<?xml version="1.0" encoding="UTF-8" standalone="no"?>
<!-- Created with Inkscape (http://www.inkscape.org/) -->

<svg
   xmlns:dc="http://purl.org/dc/elements/1.1/"
   xmlns:cc="http://creativecommons.org/ns#"
   xmlns:rdf="http://www.w3.org/1999/02/22-rdf-syntax-ns#"
   xmlns:svg="http://www.w3.org/2000/svg"
   xmlns="http://www.w3.org/2000/svg"
   xmlns:sodipodi="http://sodipodi.sourceforge.net/DTD/sodipodi-0.dtd"
   xmlns:inkscape="http://www.inkscape.org/namespaces/inkscape"
   width="48"
   height="48"
   viewBox="0 0 48 48"
   version="1.1"
   id="svg870"
   inkscape:version="0.92.3 (2405546, 2018-03-11)"
   sodipodi:docname="tdice_rx_200.svg"
   inkscape:export-filename="D:\temp\rx\work\tdice_rx_200.png"
   inkscape:export-xdpi="96"
   inkscape:export-ydpi="96">
  <defs
     id="defs864">
    <inkscape:perspective
       sodipodi:type="inkscape:persp3d"
       inkscape:vp_x="23.733083 : 11.066918 : 0"
       inkscape:vp_y="5.7812877e-014 : 1037.5862 : 0"
       inkscape:vp_z="20.939008 : -9.7640197 : 0"
       inkscape:persp3d-origin="23.128626 : 17.840617 : 1"
       id="perspective842" />
  </defs>
  <sodipodi:namedview
     id="base"
     pagecolor="#ffffff"
     bordercolor="#666666"
     borderopacity="1.0"
     inkscape:pageopacity="0.0"
     inkscape:pageshadow="2"
     inkscape:zoom="16"
     inkscape:cx="39.847345"
     inkscape:cy="1.3076877"
     inkscape:document-units="px"
     inkscape:current-layer="layer5"
     showgrid="true"
     units="px"
     inkscape:window-width="1920"
     inkscape:window-height="1018"
     inkscape:window-x="-8"
     inkscape:window-y="-8"
     inkscape:window-maximized="1"
     inkscape:snap-global="true"
     showguides="false"
     inkscape:guide-bbox="true"
     inkscape:snap-grids="false"
     inkscape:snap-object-midpoints="true"
     inkscape:measure-start="11.4106,-4.90373"
     inkscape:measure-end="11.9764,-4.71513">
    <inkscape:grid
       type="xygrid"
       id="grid1418" />
  </sodipodi:namedview>
  <metadata
     id="metadata867">
    <rdf:RDF>
      <cc:Work
         rdf:about="">
        <dc:format>image/svg+xml</dc:format>
        <dc:type
           rdf:resource="http://purl.org/dc/dcmitype/StillImage" />
        <dc:title />
      </cc:Work>
    </rdf:RDF>
  </metadata>
  <g
     inkscape:label="base"
     inkscape:groupmode="layer"
     id="layer1"
     transform="translate(0,-284.29999)"
     style="display:inline"
     sodipodi:insensitive="true">
    <path
       style="opacity:1;fill:none;fill-opacity:1;stroke:none;stroke-width:5.88613749;stroke-linecap:butt;stroke-linejoin:round;stroke-miterlimit:4;stroke-dasharray:none;stroke-opacity:1;paint-order:stroke fill markers"
       d="m 0,284.29999 h 48 v 48 H 0 Z"
       id="rect1420"
       inkscape:connector-curvature="0" />
  </g>
  <g
     inkscape:groupmode="layer"
     id="layer7"
     inkscape:label="shadow" />
  <g
     inkscape:groupmode="layer"
     id="layer5"
     inkscape:label="cube">
    <path
       d="m 39.097784,20.6691 -13.197773,6.151538 v 14.368955 l 12.89008,-6.174976 z"
       style="opacity:1;fill:#f2f2f2;fill-opacity:1;fill-rule:evenodd;stroke:#007cf6;stroke-width:1.70000005;stroke-linecap:butt;stroke-linejoin:round;stroke-miterlimit:4;stroke-dasharray:none;stroke-opacity:1;paint-order:normal"
       id="path1060"
       inkscape:connector-curvature="0"
       sodipodi:nodetypes="ccccc" />
    <path
       d="M 25.705229,15.796942 12.797785,20.713635 25.900011,26.820638 39.097784,20.6691 Z"
       style="opacity:1;fill:#f2f2f2;fill-opacity:1;fill-rule:evenodd;stroke:#007cf6;stroke-width:1.70000005;stroke-linecap:butt;stroke-linejoin:round;stroke-miterlimit:4;stroke-dasharray:none;stroke-opacity:1;paint-order:normal"
       id="path1062"
       inkscape:connector-curvature="0"
       sodipodi:nodetypes="ccccc" />
    <path
       d="m 12.797785,20.713635 0.243068,14.380002 12.859158,6.095956 V 26.820638 Z"
       style="opacity:1;fill:#f2f2f2;fill-opacity:1;fill-rule:evenodd;stroke:#007cf6;stroke-width:1.7;stroke-linecap:butt;stroke-linejoin:round;stroke-miterlimit:4;stroke-dasharray:none;stroke-opacity:1;paint-order:normal"
       id="path1064"
       inkscape:connector-curvature="0"
       sodipodi:nodetypes="ccccc" />
  </g>
  <g
     inkscape:label="dot3"
     id="g1223"
     inkscape:groupmode="layer"
     style="display:inline">
    <path
       inkscape:connector-curvature="0"
       id="path1213"
       d="m 34.071023,30.202492 a 1.250158,1.9770132 38.491805 0 1 -1.572125,2.298979 1.250158,1.9770132 38.491805 0 1 -1.572125,-0.845272 1.250158,1.9770132 38.491805 0 1 1.572125,-2.298978 1.250158,1.9770132 38.491805 0 1 1.572125,0.845271 z"
       style="opacity:1;fill:#005ebb;fill-opacity:1;stroke:none;stroke-width:0.09999998;stroke-linecap:butt;stroke-linejoin:round;stroke-miterlimit:4;stroke-dasharray:none;stroke-opacity:1;paint-order:stroke fill markers" />
    <path
       inkscape:connector-curvature="0"
       id="path1215"
       d="m 31.02981,28.567348 a 1.250158,1.9770132 38.491805 0 1 -1.572126,2.298982 1.250158,1.9770132 38.491805 0 1 -1.572125,-0.845271 1.250158,1.9770132 38.491805 0 1 1.572125,-2.298979 1.250158,1.9770132 38.491805 0 1 1.572126,0.845268 z"
       style="opacity:1;fill:#005ebb;fill-opacity:1;stroke:none;stroke-width:0.09999998;stroke-linecap:butt;stroke-linejoin:round;stroke-miterlimit:4;stroke-dasharray:none;stroke-opacity:1;paint-order:stroke fill markers" />
    <path
       inkscape:connector-curvature="0"
       id="path1217"
       d="m 37.155398,31.860839 a 1.250158,1.9770132 38.491805 0 1 -1.572126,2.29898 1.250158,1.9770132 38.491805 0 1 -1.572124,-0.845269 1.250158,1.9770132 38.491805 0 1 1.572124,-2.298982 1.250158,1.9770132 38.491805 0 1 1.572126,0.845271 z"
       style="opacity:1;fill:#005ebb;fill-opacity:1;stroke:none;stroke-width:0.09999998;stroke-linecap:butt;stroke-linejoin:round;stroke-miterlimit:4;stroke-dasharray:none;stroke-opacity:1;paint-order:stroke fill markers" />
  </g>
  <g
     inkscape:label="dot5"
     id="g1237"
     inkscape:groupmode="layer"
     style="display:inline">
    <path
       inkscape:connector-curvature="0"
       id="path1227"
       d="m 20.950734,31.737126 a 2.0420408,1.2565269 51.888332 0 1 -1.601836,0.816324 2.0420408,1.2565269 51.888332 0 1 -1.601836,-2.387349 2.0420408,1.2565269 51.888332 0 1 1.601836,-0.816323 2.0420408,1.2565269 51.888332 0 1 1.601836,2.387348 z"
       style="opacity:1;fill:#005ebb;fill-opacity:1;stroke:none;stroke-width:0.1;stroke-linecap:butt;stroke-linejoin:round;stroke-miterlimit:4;stroke-dasharray:none;stroke-opacity:1;paint-order:stroke fill markers" />
    <path
       inkscape:connector-curvature="0"
       id="path1229"
       d="m 17.852048,27.118896 a 2.0420408,1.2565269 51.888332 0 1 -1.601837,0.816323 2.0420408,1.2565269 51.888332 0 1 -1.601837,-2.387353 2.0420408,1.2565269 51.888332 0 1 1.601837,-0.81632 2.0420408,1.2565269 51.888332 0 1 1.601837,2.38735 z"
       style="opacity:1;fill:#005ebb;fill-opacity:1;stroke:none;stroke-width:0.1;stroke-linecap:butt;stroke-linejoin:round;stroke-miterlimit:4;stroke-dasharray:none;stroke-opacity:1;paint-order:stroke fill markers" />
    <path
       inkscape:connector-curvature="0"
       id="path1231"
       d="m 24.093399,36.420903 a 2.0420408,1.2565269 51.888332 0 1 -1.601837,0.816322 2.0420408,1.2565269 51.888332 0 1 -1.601835,-2.387349 2.0420408,1.2565269 51.888332 0 1 1.601835,-0.816323 2.0420408,1.2565269 51.888332 0 1 1.601837,2.38735 z"
       style="opacity:1;fill:#005ebb;fill-opacity:1;stroke:none;stroke-width:0.1;stroke-linecap:butt;stroke-linejoin:round;stroke-miterlimit:4;stroke-dasharray:none;stroke-opacity:1;paint-order:stroke fill markers" />
    <path
       inkscape:connector-curvature="0"
       id="path1233"
       d="m 24.075065,30.144918 a 2.0420408,1.2565269 51.888332 0 1 -1.601836,0.816322 2.0420408,1.2565269 51.888332 0 1 -1.601836,-2.387351 2.0420408,1.2565269 51.888332 0 1 1.601836,-0.816321 2.0420408,1.2565269 51.888332 0 1 1.601836,2.38735 z"
       style="opacity:1;fill:#005ebb;fill-opacity:1;stroke:none;stroke-width:0.1;stroke-linecap:butt;stroke-linejoin:round;stroke-miterlimit:4;stroke-dasharray:none;stroke-opacity:1;paint-order:stroke fill markers" />
    <path
       inkscape:connector-curvature="0"
       id="path1235"
       d="m 17.808071,33.338682 a 2.0420408,1.2565269 51.888332 0 1 -1.601836,0.816323 2.0420408,1.2565269 51.888332 0 1 -1.601836,-2.38735 2.0420408,1.2565269 51.888332 0 1 1.601836,-0.816322 2.0420408,1.2565269 51.888332 0 1 1.601836,2.387349 z"
       style="opacity:1;fill:#005ebb;fill-opacity:1;stroke:none;stroke-width:0.1;stroke-linecap:butt;stroke-linejoin:round;stroke-miterlimit:4;stroke-dasharray:none;stroke-opacity:1;paint-order:stroke fill markers" />
  </g>
  <g
     inkscape:label="dot1"
     id="g1209"
     inkscape:groupmode="layer"
     style="display:inline">
    <path
       inkscape:connector-curvature="0"
       id="path1199"
       d="m 27.639205,20.541333 a 0.94041522,2.4310855 89.544613 0 1 0.05469,1.329449 0.94041522,2.4310855 89.544613 0 1 -3.437548,0.04446 0.94041522,2.4310855 89.544613 0 1 -0.05469,-1.329436 0.94041522,2.4310855 89.544613 0 1 3.437549,-0.04446 z"
       style="opacity:1;fill:#005ebb;fill-opacity:1;stroke:none;stroke-width:0.09999999;stroke-linecap:butt;stroke-linejoin:round;stroke-miterlimit:4;stroke-dasharray:none;stroke-opacity:1;paint-order:stroke fill markers" />
  </g>
  <g
     inkscape:groupmode="layer"
     id="layer2"
     inkscape:label="text"
     sodipodi:insensitive="true"
     style="display:inline">
    <flowRoot
       xml:space="preserve"
       id="flowRoot914"
       style="font-style:normal;font-variant:normal;font-weight:normal;font-stretch:normal;font-size:12px;line-height:1.25;font-family:'Arial Unicode MS';-inkscape-font-specification:'Arial Unicode MS';letter-spacing:0px;word-spacing:0px;clip-rule:evenodd;fill:#c500ab;fill-opacity:1;fill-rule:evenodd;stroke:#ffffff;stroke-width:2.96764684;stroke-linecap:round;stroke-linejoin:round;stroke-miterlimit:4;stroke-dasharray:none;stroke-opacity:1;paint-order:markers stroke fill;image-rendering:optimizeQuality;shape-rendering:geometricPrecision;text-rendering:geometricPrecision"
       transform="matrix(0.92708572,0,0,1.1022954,-1.6745897,-0.28070299)"><flowRegion
         id="flowRegion916"
         style="fill:#c500ab;fill-opacity:1;stroke:#ffffff;stroke-width:2.96764684;stroke-linecap:round;stroke-linejoin:round;stroke-miterlimit:4;stroke-dasharray:none;stroke-opacity:1;paint-order:markers stroke fill"><rect
           id="rect918"
           width="38.14209"
           height="34.674625"
           x="3.4674628"
           y="-1.8781176"
           style="fill:#c500ab;fill-opacity:1;stroke:#ffffff;stroke-width:2.96764684;stroke-linecap:round;stroke-linejoin:round;stroke-miterlimit:4;stroke-dasharray:none;stroke-opacity:1;paint-order:markers stroke fill" /></flowRegion><flowPara
         id="flowPara920"
         style="font-style:normal;font-variant:normal;font-weight:bold;font-stretch:normal;font-size:21.33333397px;font-family:Arial;-inkscape-font-specification:'Arial Bold';stroke:#ffffff;stroke-width:2.96764684;stroke-linecap:round;stroke-linejoin:round;stroke-miterlimit:4;stroke-dasharray:none;stroke-opacity:1;paint-order:markers stroke fill">Rx</flowPara></flowRoot>  </g>
</svg>
