<?xml version="1.0" encoding="UTF-8" standalone="no"?>
<!-- Created with Inkscape (http://www.inkscape.org/) -->

<svg
   xmlns:dc="http://purl.org/dc/elements/1.1/"
   xmlns:cc="http://creativecommons.org/ns#"
   xmlns:rdf="http://www.w3.org/1999/02/22-rdf-syntax-ns#"
   xmlns:svg="http://www.w3.org/2000/svg"
   xmlns="http://www.w3.org/2000/svg"
   xmlns:sodipodi="http://sodipodi.sourceforge.net/DTD/sodipodi-0.dtd"
   xmlns:inkscape="http://www.inkscape.org/namespaces/inkscape"
   width="24"
   height="24"
   viewBox="0 0 24 24"
   id="svg4225"
   version="1.1"
   inkscape:version="0.92.2 (5c3e80d, 2017-08-06)"
   sodipodi:docname="tipfiledataprovider.svg"
   inkscape:export-filename="tipfiledataprovider.png"
   inkscape:export-xdpi="96"
   inkscape:export-ydpi="96">
  <defs
     id="defs4227" />
  <sodipodi:namedview
     id="base"
     pagecolor="#ffffff"
     bordercolor="#666666"
     borderopacity="1.0"
     inkscape:pageopacity="0.0"
     inkscape:pageshadow="2"
     inkscape:zoom="42.727273"
     inkscape:cx="11.999999"
     inkscape:cy="12"
     inkscape:document-units="px"
     inkscape:current-layer="layer1"
     showgrid="true"
     inkscape:snap-bbox="true"
     inkscape:bbox-paths="true"
     inkscape:bbox-nodes="true"
     inkscape:snap-bbox-edge-midpoints="true"
     inkscape:snap-bbox-midpoints="true"
     inkscape:object-paths="true"
     inkscape:snap-intersection-paths="true"
     inkscape:object-nodes="true"
     inkscape:snap-smooth-nodes="true"
     inkscape:snap-midpoints="true"
     inkscape:snap-object-midpoints="true"
     inkscape:snap-center="true"
     units="px"
     inkscape:window-width="1920"
     inkscape:window-height="1137"
     inkscape:window-x="-8"
     inkscape:window-y="-8"
     inkscape:window-maximized="1"
     showguides="true"
     inkscape:guide-bbox="true"
     inkscape:snap-grids="true">
    <inkscape:grid
       type="xygrid"
       id="grid4241" />
  </sodipodi:namedview>
  <metadata
     id="metadata4230">
    <rdf:RDF>
      <cc:Work
         rdf:about="">
        <dc:format>image/svg+xml</dc:format>
        <dc:type
           rdf:resource="http://purl.org/dc/dcmitype/StillImage" />
        <dc:title />
      </cc:Work>
    </rdf:RDF>
  </metadata>
  <g
     inkscape:label="Ebene 1"
     inkscape:groupmode="layer"
     id="layer1"
     transform="translate(0,-1028.3622)">
    <path
       style="fill:#f9f9f9;fill-rule:evenodd;stroke:#999999;stroke-width:1px;stroke-linecap:butt;stroke-linejoin:miter;stroke-opacity:1"
       d="m 3.5,1044.8622 v -15 h 9 l 3,3 v 12 z"
       id="path1094"
       inkscape:connector-curvature="0"
       sodipodi:nodetypes="cccccc" />
    <rect
       style="opacity:1;fill:#739bdf;fill-opacity:1;fill-rule:evenodd;stroke:none;stroke-width:0.99999994;stroke-linecap:round;stroke-linejoin:round;stroke-miterlimit:4;stroke-dasharray:none;stroke-dashoffset:0;stroke-opacity:1;paint-order:normal"
       id="rect951"
       width="21.999998"
       height="7.0000172"
       x="0.99999994"
       y="1044.3622" />
    <path
       inkscape:connector-curvature="0"
       id="path940"
       style="font-style:normal;font-variant:normal;font-weight:bold;font-stretch:normal;font-size:medium;line-height:25px;font-family:Arial;-inkscape-font-specification:'Arial Bold';letter-spacing:0px;word-spacing:0px;fill:#ffffff;fill-opacity:1;stroke:none;stroke-width:1px;stroke-linecap:butt;stroke-linejoin:miter;stroke-opacity:1"
       d="m 4,1050.3622 v -5 h 4 v 1 H 5 v 1.0312 l 2,-0.031 v 1 l -2,2e-4 v 2 z"
       sodipodi:nodetypes="ccccccccccc" />
    <path
       inkscape:connector-curvature="0"
       id="path944"
       style="font-style:normal;font-variant:normal;font-weight:bold;font-stretch:normal;font-size:medium;line-height:25px;font-family:Arial;-inkscape-font-specification:'Arial Bold';letter-spacing:0px;word-spacing:0px;fill:#ffffff;fill-opacity:1;stroke:none;stroke-width:1px;stroke-linecap:butt;stroke-linejoin:miter;stroke-opacity:1"
       d="m 13,1050.3622 v -5 h 1 v 4 h 2 v 1 z"
       sodipodi:nodetypes="ccccccc" />
    <g
       id="g1172"
       transform="matrix(0.5,0,0,0.5,31,517.18155)"
       style="stroke-width:2">
      <path
         style="fill:#9bdbf6;stroke-width:1.99999988"
         d="m -49.486042,1052.1534 c -6.3542,-0.5944 -11.392369,-7.2087 -10.244942,-13.4808 0.644526,-4.726 4.508989,-8.8613 9.226953,-9.7167 -0.239921,1.4661 -2.444185,2.167 -1.817569,3.867 0.139063,1.029 2.320248,2.2183 2.253495,0.6305 -0.578737,-0.8605 0.197095,-1.9672 1.094127,-1.1043 1.068098,0.3203 3.558516,0.5579 3.511364,-0.9462 -0.772224,0.038 -1.865465,1.2276 -2.142425,-0.2003 0.03815,-1.4763 1.775037,-1.6231 2.880462,-1.2981 1.164152,0.3194 2.259971,0.858 3.425996,1.1626 2.647094,1.2075 4.133585,3.9903 4.798806,6.6987 0.482434,0.7485 0.332664,3.166 -0.674759,2.673 -0.186624,-1.801 -2.8787,-1.2078 -2.848768,0.4191 -0.483875,1.0037 -1.265963,2.3733 -0.319332,3.3509 1.095077,1.3843 2.692877,-1.3703 3.507578,-0.3364 -0.135285,1.4503 -1.09285,2.6592 -1.874536,3.8341 -2.488601,3.2118 -6.733162,5.0142 -10.77645,4.4469 z m 7.94425,-8.2316 c -0.404434,0.1574 0.31498,0.3976 0,0 z m 0.208343,-3.465 c 0.542563,-0.7616 -1.474274,-1.1988 -0.50015,-0.3057 0.128278,0.1506 0.301158,0.2734 0.50015,0.3057 z m 1.869231,-1.8197 c -0.07684,-1.6932 -1.159824,0.7711 0,0 z m -6.032293,-1.3912 c 0.974015,0.3679 2.894249,-0.8361 1.178958,-1.3804 -1.210369,-0.2752 -2.429931,-0.9024 -3.496404,-1.2691 -1.493025,0.581 0.294987,1.8648 1.104777,2.0649 0.374672,0.2478 0.770973,0.4804 1.212669,0.5846 z m 0.852389,-0.7313 c -0.147668,-0.572 0.271259,-0.1032 0.149444,0.13 l -0.03143,-0.01 z m -3.998024,-0.7408 c -0.156334,-0.7179 0.624044,0.2846 0,0 z m -0.305885,-0.1583 c -0.348022,0.1371 -0.03835,-0.3121 0,0 z m 1.249858,0.011 c -0.88812,-0.5635 0.762095,-0.348 0,0 z m 7.823517,0.6537 c 0.71384,-0.9321 -1.64651,-0.7093 -0.373048,0.023 0.101173,0.084 0.29675,0.1223 0.373048,-0.023 z m -1.923797,-1.0426 c 0.669542,-1.4421 -2.682158,-0.4182 -0.762825,-0.013 0.250916,0.04 0.511649,0.078 0.762825,0.013 z m -9.284484,-0.084 c -0.156426,-0.3338 -0.02874,0.3559 0,0 z m 6.816778,-3.6088 c -0.317078,-0.5373 -0.32854,0.5561 0,0 z m 7.747687,10.6266 c 0.03663,-0.3106 0.03663,0.3106 0,0 z m -13.321944,-7.9106 c -0.459115,-0.2446 0.323522,-0.1552 0,0 z m -1.635931,-0.6775 c 0.117989,-0.3343 0.07653,0.3458 0,0 z m 0.34751,0.011 -0.01814,-0.025 z m 4.520286,-4.7864 c 0.008,-0.6719 0.215997,0.3453 0,0 z"
         id="path1156"
         inkscape:connector-curvature="0" />
      <path
         style="fill:#74c9f2;stroke-width:1.99999988"
         d="m -49.378158,1052.1206 c -6.479531,-0.5502 -11.614947,-7.3921 -10.247295,-13.756 0.592921,-3.2939 2.701037,-6.2425 5.534648,-8.0026 0.388695,-1.4432 2.321226,0.2915 0.678216,0.707 -1.010063,0.9267 -2.696216,1.377 -2.934274,2.9234 -0.756226,2.9026 0.744153,5.9329 2.942095,7.8019 1.797437,1.8461 3.609237,3.71 5.74101,5.1777 1.586161,-0.5252 0.635758,-2.7577 0.111425,-3.8033 -1.033819,-1.2803 -2.782014,-0.1125 -3.992319,-0.9601 -1.344158,-0.687 -1.37169,-2.5655 -0.516164,-3.6453 0.563321,-0.7709 1.119443,-1.5808 1.249,-2.5502 0.463411,-1.7175 1.733796,-3.5113 3.676505,-3.5814 0.790664,0.078 2.693866,-0.077 1.70054,-1.2224 -0.738754,-0.3637 -1.245132,1.4555 -2.008705,0.2933 -0.711015,-1.462 1.215016,-1.8593 2.269104,-1.682 1.489574,0.2136 2.802137,1.0198 4.233082,1.439 2.037048,0.8645 3.090513,2.9778 3.933328,4.8914 0.415205,1.2451 0.95072,2.6789 0.659496,3.9565 -1.131398,1.012 -1.297733,-1.2168 -2.208607,-1.4298 -0.492478,-0.4045 -1.380604,-0.1107 -0.657501,0.4996 -0.475204,1.2979 -1.266821,2.4824 -1.674566,3.788 -0.735292,1.1981 -1.383379,2.4926 -1.622178,3.8862 0.370424,1.2411 1.007976,-0.4202 1.500326,-0.4411 0.27282,0.7642 0.856405,1.319 1.607966,0.6129 1.096891,-0.6969 1.102422,0.6075 0.318901,1.0802 -2.507659,2.8998 -6.474786,4.4824 -10.294033,4.0171 z m 8.140103,-11.5812 c 0.559363,-0.7443 -1.494221,-1.7084 -0.779549,-0.5063 0.160649,0.272 0.439524,0.5289 0.779549,0.5063 z m -4.179774,-3.3162 c 1.082188,0.7314 3.106974,-0.9018 1.209983,-1.3838 -1.348488,-0.6137 -2.750424,-1.3658 -4.281684,-1.2356 -1.29388,0.3431 -0.41535,2.106 0.669753,1.5306 0.826744,0.3058 1.500003,0.9833 2.401948,1.0888 z m 2.311681,-0.6487 c -0.304677,-0.5628 0.316145,0.2251 0,0 z m -1.498633,-0.1661 c 0.272936,-0.028 -0.306297,0.2305 0,0 z m -2.058848,-0.4364 c -0.136684,-0.8343 0.483111,0.3252 0,0 z m -0.963381,-0.5262 c -0.683478,-0.543 0.619173,-0.2963 0,0 z m 0.04158,-0.5295 c -0.129816,-0.6398 0.224995,0.3122 0,0 z m 7.744066,1.3808 c 0.903836,-0.934 -1.726131,-1.061 -0.491852,-0.018 0.102777,0.1553 0.415051,0.2559 0.491852,0.018 z m -16.944929,-0.4518 c -0.112747,-0.3386 -0.0754,0.3325 0,0 z m 14.985153,-0.4989 c 0.867332,-1.238 -2.365462,-0.906 -1.052573,-0.078 0.350079,-0.027 0.720106,-0.067 1.052573,0.078 z m 1.025556,11.908 c -0.352181,-0.419 0.257924,-0.1118 0,0 z m 3.094828,-1.7604 c 0.286915,-0.1061 -0.427993,0.4696 0,0 z M -49.9806,1033.2184 c -0.59621,-1.1908 1.522463,-0.1391 0.3178,0.035 l -0.160758,-0.01 z m -0.998847,-0.213 c -0.01557,-1.4723 0.807484,0.6222 0,0 z m -1.466005,-2.026 c 0.224263,-0.9172 0.6243,0.6543 0,0 z m 5.836901,-2.1715 c 0.008,-0.6719 0.215997,0.3453 0,0 z"
         id="path1158"
         inkscape:connector-curvature="0" />
      <path
         style="fill:#58a9db;stroke-width:1.99999988"
         d="m -49.404389,1052.1112 c -6.410964,-0.5712 -11.520574,-7.3004 -10.228464,-13.6181 0.294695,-1.7709 1.005416,-3.482 2.113537,-4.9008 -0.07013,-0.9031 1.117532,-0.1588 0.630174,0.3981 0.180505,1.5548 -1.317311,2.866 -0.792505,4.4428 0.618368,4.3445 4.034731,7.8405 7.933505,9.5761 1.126409,0.4866 2.316121,0.829 3.53101,1.0052 -1.108947,-1.8798 -0.182688,-4.3436 -1.543565,-6.1252 -1.200252,-0.935 -3.032219,0.2587 -4.091166,-0.9795 -1.198,-1.2384 -0.780642,-3.4824 0.640158,-4.3727 0.494758,-1.278 0.427626,-2.9508 1.710784,-3.776 0.753535,-1.3373 2.476599,-1.3596 3.829006,-1.3512 1.396711,-0.6138 -0.640356,-1.9597 -0.928477,-0.6061 -1.816065,0.017 -0.56952,-2.7024 0.840185,-2.0066 1.62283,-0.022 3.010857,0.9675 4.5428,1.3492 2.62813,1.1494 3.964922,3.9325 4.690913,6.5483 0.490811,0.7832 0.38243,3.3905 -0.945647,2.3247 -0.220875,-0.7008 -1.448962,-2.2576 -1.956868,-1.2486 0.648995,0.9752 -0.673549,1.6927 -0.838594,2.6436 -0.588411,1.5376 -1.410314,2.9628 -1.999445,4.5001 -0.48396,0.8555 -1.644956,2.8487 0.174323,2.8714 0.950078,0.2538 2.324788,-1.8609 2.756214,-0.434 -1.436733,1.5798 -3.385235,2.6825 -5.403444,3.3622 -1.504856,0.4532 -3.104473,0.5876 -4.664434,0.3971 z m 5.324156,-2.9716 c 0.23055,-0.4666 -0.309685,0.2289 0,0 z m 2.842178,-8.6002 c 0.559363,-0.7443 -1.494221,-1.7084 -0.779549,-0.5063 0.160649,0.272 0.439524,0.5289 0.779549,0.5063 z m -4.179774,-3.3162 c 1.082188,0.7314 3.106974,-0.9018 1.209983,-1.3838 -1.348488,-0.6137 -2.750424,-1.3658 -4.281684,-1.2356 -1.29388,0.3431 -0.41535,2.106 0.669753,1.5306 0.826744,0.3058 1.500003,0.9833 2.401948,1.0888 z m 2.311681,-0.6487 c -0.304677,-0.5628 0.316145,0.2251 0,0 z m -1.498633,-0.1661 c 0.272936,-0.028 -0.306297,0.2305 0,0 z m -2.058848,-0.4364 c -0.136684,-0.8343 0.483111,0.3252 0,0 z m -0.963381,-0.5262 c -0.683478,-0.543 0.619173,-0.2963 0,0 z m 0.04158,-0.5295 c -0.129816,-0.6398 0.224995,0.3122 0,0 z m 7.744066,1.3808 c 0.903836,-0.934 -1.726131,-1.061 -0.491852,-0.018 0.102777,0.1553 0.415051,0.2559 0.491852,0.018 z m -1.959776,-0.9507 c 0.867332,-1.238 -2.365462,-0.906 -1.052573,-0.078 0.350079,-0.027 0.720106,-0.067 1.052573,0.078 z m 0.199864,12.1537 c -1.321924,-0.7331 1.722239,-1.5611 0.495878,-0.2406 -0.130124,0.1328 -0.303854,0.2388 -0.495878,0.2406 z m -8.379322,-14.2817 c -0.59621,-1.1908 1.522463,-0.1391 0.3178,0.035 l -0.160758,-0.01 z m -0.998847,-0.213 c -0.01557,-1.4723 0.807484,0.6222 0,0 z m -4.659979,-0.5776 c 0.161647,-1.5349 1.701847,-2.3103 2.97211,-2.836 -0.121973,1.5015 -1.674273,2.1811 -2.794358,2.8764 z m -0.283563,-0.582 c -0.284664,-0.3517 0.2778,-0.072 0,0 z m 3.477537,-0.8664 c 0.224263,-0.9172 0.6243,0.6543 0,0 z m 5.836901,-2.1715 c 0.008,-0.6719 0.215997,0.3453 0,0 z"
         id="path1160"
         inkscape:connector-curvature="0" />
      <path
         style="fill:#99d638;stroke-width:1.99999988"
         d="m -48.932295,1052.1273 c -6.167031,-0.3481 -11.4006,-6.3427 -10.796879,-12.5016 0.06616,-1.4098 0.403416,-2.8225 1.094627,-4.0608 -0.854595,-1.8775 3.246273,-0.772 1.146194,0.2269 -1.306579,1.1235 -1.761484,2.9418 -1.790631,4.5983 0.238421,2.3375 2.048684,4.103 3.860405,5.408 0.928621,1.1326 1.477958,2.7698 3.022132,3.2222 2.5924,1.238 5.559134,2.2548 8.444296,1.5082 1.52433,0.4486 -0.697513,1.3833 -1.389422,1.2927 -1.182,0.2222 -2.386566,0.3585 -3.590722,0.3061 z M -59.2921,1040.7875 c 0.2373,-0.7006 -0.6023,0.2166 0,0 z m 17.416838,9.4282 c 0.08771,-0.4848 0.305513,0.33 0,0 z m -0.211692,-0.087 c 0.272939,-0.028 -0.306297,0.2305 0,0 z m -3.789854,-0.7866 c -0.654327,-1.2316 -1.229928,-2.6674 -0.843802,-4.0751 -0.200859,-1.1824 -0.814012,-2.7464 -2.226979,-2.7768 -1.470916,0.3947 -3.519474,-0.431 -3.572232,-2.1391 -0.350079,-1.7247 1.738432,-2.695 1.661016,-4.3703 0.30261,-1.4666 1.415289,-2.6119 2.625468,-3.4173 0.950232,-0.2877 3.136303,0.2897 2.932895,-1.2928 -0.802776,-0.1914 -2.66262,1.1775 -2.214545,-0.5867 0.475463,-1.1894 2.00522,-1.0116 3.007179,-0.7219 1.2975,0.544 2.672506,0.9064 3.941282,1.5209 2.316626,1.383 3.523888,4.0436 4.11601,6.5763 0.450604,0.7836 0.337433,2.7658 -0.953255,2.143 0.01905,-0.8644 -1.57977,-2.2451 -2.006251,-1.3963 0.587765,1.4079 -1.312559,2.2668 -1.208751,3.6392 -0.796616,1.2783 -1.541208,2.6048 -1.827187,4.0914 -0.575846,1.3023 -1.661799,2.6013 -3.136109,2.8283 h -0.14787 z m 4.638753,-8.8024 c 0.559363,-0.7443 -1.494221,-1.7084 -0.779549,-0.5063 0.160649,0.272 0.439524,0.5289 0.779549,0.5063 z m -4.179774,-3.3162 c 1.082188,0.7314 3.106974,-0.9018 1.209983,-1.3838 -1.348488,-0.6137 -2.750424,-1.3658 -4.281684,-1.2356 -1.29388,0.3431 -0.41535,2.106 0.669753,1.5306 0.826744,0.3058 1.500003,0.9833 2.401948,1.0888 z m 2.311681,-0.6487 c -0.304677,-0.5628 0.316145,0.2251 0,0 z m -1.498633,-0.1661 c 0.272936,-0.028 -0.306297,0.2305 0,0 z m -2.058848,-0.4364 c -0.136684,-0.8343 0.483111,0.3252 0,0 z m -0.963381,-0.5262 c -0.683478,-0.543 0.619173,-0.2963 0,0 z m 0.04158,-0.5295 c -0.129816,-0.6398 0.224995,0.3122 0,0 z m 7.744066,1.3808 c 0.903836,-0.934 -1.726131,-1.061 -0.491852,-0.018 0.102777,0.1553 0.415051,0.2559 0.491852,0.018 z m -1.959776,-0.9507 c 0.867332,-1.238 -2.365462,-0.906 -1.052573,-0.078 0.350079,-0.027 0.720106,-0.067 1.052573,0.078 z m 0.22125,12.0795 c -1.164951,-0.7094 1.541961,-1.3564 0.496114,-0.2731 -0.123986,0.1462 -0.298998,0.2639 -0.496114,0.2731 z m -17.397482,-6.316 c -0.273131,-0.8883 0.665732,0.3534 0,0 z m 1.521474,-7.644 c -0.04918,-1.1924 1.099821,0.1735 0,0 z m 7.4753,-0.2475 c -0.59621,-1.1908 1.522463,-0.1391 0.3178,0.035 l -0.160758,-0.01 z m -0.998847,-0.213 c -0.01557,-1.4723 0.807484,0.6222 0,0 z m -4.659979,-0.5776 c 0.161647,-1.5349 1.701847,-2.3103 2.97211,-2.836 -0.121973,1.5015 -1.674273,2.1811 -2.794358,2.8764 z m 3.193974,-1.4484 c 0.224263,-0.9172 0.6243,0.6543 0,0 z m 5.836901,-2.1715 c 0.008,-0.6719 0.215997,0.3453 0,0 z"
         id="path1162"
         inkscape:connector-curvature="0" />
      <path
         style="fill:#1f6aad;stroke-width:1.99999988"
         d="m -48.932295,1052.1273 c -5.991694,-0.3524 -11.157105,-6.0355 -10.773247,-12.0446 0.203879,-1.3499 0.01638,-3.0024 1.187121,-3.9704 0.318332,1.473 -1.346632,2.661 -0.789842,4.1359 0.158963,2.3826 2.026347,4.1517 3.810553,5.5183 0.908379,1.1769 1.550063,2.7688 3.097626,3.2401 2.7065,1.4158 5.880489,2.1758 8.915431,1.5376 0.700209,1.1783 -1.711411,1.1741 -2.472413,1.387 -0.980232,0.1729 -1.980109,0.2659 -2.975229,0.1961 z M -59.2921,1040.7875 c 0.2373,-0.7006 -0.6023,0.2166 0,0 z m 17.416838,9.4282 c 0.08771,-0.4848 0.305513,0.33 0,0 z m -0.211692,-0.087 c 0.272939,-0.028 -0.306297,0.2305 0,0 z m -3.789854,-0.7866 c -0.77826,-1.2642 -1.10706,-2.8009 -0.897988,-4.2713 -0.07609,-1.2782 -1.032474,-2.881 -2.504835,-2.6225 -1.65699,0.6137 -3.685485,-1.1161 -3.10789,-2.8609 0.345895,-2.008 2.499827,-3.8488 4.575919,-3.1591 1.356196,0.5801 2.751707,1.3141 4.273376,1.1982 0.637015,-0.7144 0.732315,-2.825 2.135145,-1.8112 1.310247,0.8325 2.95888,-0.8509 4.12218,0.3342 0.757606,0.8831 1.605707,2.9576 0.408431,3.721 -1.24977,0.1003 -1.006445,-1.938 -2.44939,-1.6033 -0.846206,0.3115 0.779002,1.5405 -0.388696,2.0317 -1.017117,0.9282 -2.03059,-0.061 -2.160002,-1.1171 -0.319942,-0.7492 -1.111758,-0.4658 -0.580887,0.2923 0.511105,0.9875 1.869614,1.5681 1.788827,2.8118 -0.666099,1.3416 -1.679384,2.6007 -1.77996,4.1692 -0.581116,1.4115 -1.749013,2.9261 -3.43423,2.887 z m 3.920734,-13.5068 c -0.302245,-0.493 0.03648,0.3879 0,0 z m 0.645887,0.1013 c 0.02315,-0.7136 -0.182688,0.2624 0,0 z m -0.269705,11.4896 c -1.120693,-0.7911 1.676601,-1.2164 0.39107,-0.1655 -0.108687,0.093 -0.245483,0.1609 -0.39107,0.1655 z m -17.397482,-6.316 c -0.273131,-0.8883 0.665732,0.3534 0,0 z m 8.521716,-5.1198 c -0.900942,-0.4759 0.787932,-0.28 0.18289,-0.023 z m 0.552953,-0.2014 c 0.07104,-0.4058 -0.242842,0 -0.07527,0.081 z m -8.3403,-0.1309 c -0.140269,-0.3262 -0.04332,0.1513 0.07878,0.055 z m 17.318475,-0.1128 c -0.515851,-0.03 0.03844,-0.3179 0,0 z m -16.085791,0.029 c 0.02423,-0.428 0.264016,0.3042 0,0 z m 11.796017,-0.024 -0.009,-0.024 z m -4.426127,-0.075 c -0.132353,-0.6512 0.367254,0.3734 0,0 z m -0.62159,-0.055 c -0.343747,-0.4186 0.274684,0.1217 0,0 z m 10.273256,-0.1073 c 0.17616,-0.2623 -0.04774,0.4859 0,0 z m -9.336941,-0.1509 c -0.430704,-0.031 -0.03148,-0.2613 0.07684,-0.054 z m -8.025573,-0.059 c 0.08507,-0.3394 0.08507,0.3394 0,0 z m 17.152695,-0.029 c 0.286917,-0.106 -0.428022,0.4696 0,0 z m -4.366856,-0.01 c -0.05118,-0.4128 0.207232,0.2613 0,0 z"
         id="path1164"
         inkscape:connector-curvature="0" />
      <path
         style="fill:#669c07;stroke-width:1.99999988"
         d="m -45.84892,1049.3119 c -0.727385,-1.2507 -1.228128,-2.7611 -0.845693,-4.2056 -0.270766,-1.2152 -1.045498,-2.7479 -2.49365,-2.6891 -1.554447,0.5421 -3.610221,-0.8022 -3.234995,-2.5401 0.238185,-1.9911 2.145816,-3.9821 4.260742,-3.5298 1.550137,0.4975 3.082596,1.4514 4.77358,1.1482 0.842958,-0.4556 -0.0044,-2.6389 1.574659,-1.8014 1.431303,0.8074 3.067083,-0.4143 4.365033,0.3399 1.089254,0.8978 1.340489,2.6204 0.856025,3.8649 -0.979313,1.1154 -1.072568,-1.3908 -2.107636,-1.486 -0.51211,-0.5439 -1.625679,0.016 -0.752936,0.5376 0.726383,1.564 -1.956784,2.5172 -2.189765,0.7061 0.125587,-0.683 -1.274454,-1.8575 -1.074923,-0.7018 0.452194,1.2736 2.093279,1.9404 2.010055,3.4221 -0.7255,1.2778 -1.578213,2.5132 -1.698545,3.9955 -0.612332,1.4114 -1.746808,2.9272 -3.441951,2.9395 z m 3.892846,-13.4769 c -0.302245,-0.493 0.03648,0.3879 0,0 z m 0.645887,0.1013 c 0.02315,-0.7136 -0.182688,0.2624 0,0 z m -15.155966,12.5849 c -1.342731,-1.4819 -2.548126,-3.2671 -2.689089,-5.3179 1.726258,-0.01 2.172053,2.1685 3.718658,2.5603 1.054321,0.7228 0.649621,3.286 -0.818895,2.8943 z m 14.914237,-1.1232 c -1.12312,-0.7541 1.625362,-1.2273 0.377545,-0.1693 -0.103722,0.093 -0.235663,0.1624 -0.377545,0.1693 z m -18.082394,-5.7538 c -0.497564,-0.2799 0.220263,-0.2049 0,0 z m 0.734589,-0.5214 c -0.162895,-0.3779 0.107847,0.2774 0,0 z m -0.680995,-1.7986 c -0.603194,-0.4899 0.332484,-2.8699 0.811784,-1.8153 -0.281726,0.6 -0.568794,1.1983 -0.811784,1.8153 z m 9.125058,-3.3341 c -0.900942,-0.4759 0.787932,-0.28 0.18289,-0.023 z m 0.552953,-0.2014 c 0.07104,-0.4058 -0.242842,0 -0.07527,0.081 z m -8.3403,-0.1309 c -0.140269,-0.3262 -0.04332,0.1513 0.07878,0.055 z m 17.318475,-0.1128 c -0.515851,-0.03 0.03844,-0.3179 0,0 z m -16.085791,0.029 c 0.02423,-0.428 0.264016,0.3042 0,0 z m 11.796017,-0.024 -0.009,-0.024 z m -4.426127,-0.075 c -0.132353,-0.6512 0.367254,0.3734 0,0 z m -0.62159,-0.055 c -0.343747,-0.4186 0.274684,0.1217 0,0 z m 10.273256,-0.1073 c 0.17616,-0.2623 -0.04774,0.4859 0,0 z m -9.336941,-0.1509 c -0.430704,-0.031 -0.03148,-0.2613 0.07684,-0.054 z m -8.025573,-0.059 c 0.08507,-0.3394 0.08507,0.3394 0,0 z m 17.152695,-0.029 c 0.286917,-0.106 -0.428022,0.4696 0,0 z m -4.366856,-0.01 c -0.05118,-0.4128 0.207232,0.2613 0,0 z"
         id="path1166"
         inkscape:connector-curvature="0" />
      <path
         style="fill:#476706;stroke-width:1.99999988"
         d="m -45.84892,1049.3119 c -0.672004,-1.2309 -1.216909,-2.692 -0.801604,-4.0972 -0.274465,-1.0902 -0.66394,-2.4566 -1.871659,-2.8201 -0.544378,-0.01 -2.255412,0.3982 -2.008906,-0.3576 2.385309,0.076 4.771438,-0.2525 7.157836,-0.1204 1.399646,-0.9863 3.095205,1.1935 1.62879,2.2173 -0.580005,1.4387 -0.774521,3.1215 -1.964053,4.241 -0.554483,0.5454 -1.332804,1.0192 -2.140404,0.937 z m -4.945517,-7.0354 c -0.15471,-0.2934 -0.004,0.4955 0,0 z m 3.410608,-0.1322 c 0.333566,-0.3944 -0.12406,-0.2249 0,0 z m -8.800808,6.6482 c -1.469647,-1.4956 -2.705589,-3.3502 -2.999037,-5.4638 1.661348,-0.1061 2.126543,1.9508 3.569832,2.3537 1.054168,0.7062 1.020137,3.1491 -0.570795,3.1101 z m 14.637933,-1.3971 c -1.053523,-0.8063 1.62695,-1.083 0.334229,-0.1603 -0.09186,0.096 -0.211939,0.123 -0.334229,0.1603 z m -18.003533,-5.7254 c -0.0065,0.4114 -0.451631,-0.1449 0,0 z m 18.98447,-0.022 c 0.08507,-0.3394 0.08507,0.3394 0,0 z m -11.352617,-0.1844 c 0.355384,-0.012 -0.061,0.578 0,0 z m 14.839461,-0.3523 c -0.385044,-0.1105 0.329247,-0.2013 0,0 z m -3.958937,-0.3504 c -0.348632,-0.088 0.106992,-0.307 0,0 z"
         id="path1168"
         inkscape:connector-curvature="0" />
      <path
         style="color:#000000;font-style:normal;font-variant:normal;font-weight:normal;font-stretch:normal;font-size:medium;line-height:normal;font-family:sans-serif;font-variant-ligatures:normal;font-variant-position:normal;font-variant-caps:normal;font-variant-numeric:normal;font-variant-alternates:normal;font-feature-settings:normal;text-indent:0;text-align:start;text-decoration:none;text-decoration-line:none;text-decoration-style:solid;text-decoration-color:#000000;letter-spacing:normal;word-spacing:normal;text-transform:none;writing-mode:lr-tb;direction:ltr;text-orientation:mixed;dominant-baseline:auto;baseline-shift:baseline;text-anchor:start;white-space:normal;shape-padding:0;clip-rule:nonzero;display:inline;overflow:visible;visibility:visible;opacity:1;isolation:auto;mix-blend-mode:normal;color-interpolation:sRGB;color-interpolation-filters:linearRGB;solid-color:#000000;solid-opacity:1;vector-effect:none;fill:#457abe;fill-opacity:1;fill-rule:evenodd;stroke:none;stroke-width:2;stroke-linecap:round;stroke-linejoin:round;stroke-miterlimit:4;stroke-dasharray:none;stroke-dashoffset:0;stroke-opacity:1;paint-order:normal;color-rendering:auto;image-rendering:auto;shape-rendering:auto;text-rendering:auto;enable-background:accumulate"
         d="m -48,1028.3613 c -6.621495,0 -12,5.3785 -12,12 0,6.6215 5.378505,12 12,12 6.621495,0 12,-5.3785 12,-12 0,-6.6215 -5.378505,-12 -12,-12 z m 0,1 c 6.081055,0 11,4.919 11,11 0,6.0811 -4.918945,11 -11,11 -6.081055,0 -11,-4.9189 -11,-11 0,-6.081 4.918945,-11 11,-11 z"
         id="path1170"
         inkscape:connector-curvature="0" />
    </g>
    <path
       id="path1096"
       d="m 21.889088,1037.7157 -1.414215,1.4142 -2.12132,-2.1213 -0.707107,0.7071 2.121321,2.1214 -1.414214,1.4142 L 22,1041.3622 Z"
       style="fill:#aa4400;fill-rule:evenodd;stroke:none;stroke-width:1px;stroke-linecap:butt;stroke-linejoin:miter;stroke-opacity:1"
       inkscape:connector-curvature="0"
       sodipodi:nodetypes="cccccccc" />
    <path
       inkscape:connector-curvature="0"
       style="fill:#aa4400;fill-rule:evenodd;stroke:none;stroke-width:1px;stroke-linecap:butt;stroke-linejoin:miter;stroke-opacity:1"
       d="m 21.889088,1034.0087 -1.414215,-1.4142 -2.12132,2.1213 -0.707107,-0.7071 2.121322,-2.1214 -1.414215,-1.4142 L 22,1030.3622 Z"
       id="path1098"
       sodipodi:nodetypes="cccccccc" />
    <path
       sodipodi:nodetypes="ccccccccccccc"
       d="m 9,1050.3622 v -1 h 1 v -3 H 9 v -1 h 3 v 1 h -1 v 3 h 1 v 1 z"
       style="font-style:normal;font-variant:normal;font-weight:bold;font-stretch:normal;font-size:medium;line-height:25px;font-family:Arial;-inkscape-font-specification:'Arial Bold';letter-spacing:0px;word-spacing:0px;fill:#ffffff;fill-opacity:1;stroke:none;stroke-width:1px;stroke-linecap:butt;stroke-linejoin:miter;stroke-opacity:1"
       id="path839"
       inkscape:connector-curvature="0" />
    <path
       sodipodi:nodetypes="ccccccccccccc"
       d="m 17,1050.3622 v -5 h 3 v 1 h -2 v 1 h 2 v 1 h -2 v 1 h 2 v 1 z"
       style="font-style:normal;font-variant:normal;font-weight:bold;font-stretch:normal;font-size:medium;line-height:25px;font-family:Arial;-inkscape-font-specification:'Arial Bold';letter-spacing:0px;word-spacing:0px;fill:#ffffff;fill-opacity:1;stroke:none;stroke-width:1px;stroke-linecap:butt;stroke-linejoin:miter;stroke-opacity:1"
       id="path841"
       inkscape:connector-curvature="0" />
  </g>
</svg>
