<?xml version="1.0" encoding="UTF-8" standalone="no"?>
<!-- Created with Inkscape (http://www.inkscape.org/) -->

<svg
   xmlns:dc="http://purl.org/dc/elements/1.1/"
   xmlns:cc="http://creativecommons.org/ns#"
   xmlns:rdf="http://www.w3.org/1999/02/22-rdf-syntax-ns#"
   xmlns:svg="http://www.w3.org/2000/svg"
   xmlns="http://www.w3.org/2000/svg"
   xmlns:sodipodi="http://sodipodi.sourceforge.net/DTD/sodipodi-0.dtd"
   xmlns:inkscape="http://www.inkscape.org/namespaces/inkscape"
   width="24"
   height="24"
   viewBox="0 0 24 24"
   id="svg4225"
   version="1.1"
   inkscape:version="0.92.2 (5c3e80d, 2017-08-06)"
   sodipodi:docname="tchartguiconnectorbgra.svg"
   inkscape:export-filename="tchartguiconnectorbgra.png"
   inkscape:export-xdpi="96"
   inkscape:export-ydpi="96">
  <defs
     id="defs4227" />
  <sodipodi:namedview
     id="base"
     pagecolor="#ffffff"
     bordercolor="#666666"
     borderopacity="1.0"
     inkscape:pageopacity="0.0"
     inkscape:pageshadow="2"
     inkscape:zoom="30.212721"
     inkscape:cx="10.960637"
     inkscape:cy="11.667756"
     inkscape:document-units="px"
     inkscape:current-layer="layer1"
     showgrid="true"
     inkscape:snap-bbox="true"
     inkscape:bbox-paths="true"
     inkscape:bbox-nodes="true"
     inkscape:snap-bbox-edge-midpoints="true"
     inkscape:snap-bbox-midpoints="true"
     inkscape:object-paths="true"
     inkscape:snap-intersection-paths="true"
     inkscape:object-nodes="true"
     inkscape:snap-smooth-nodes="true"
     inkscape:snap-midpoints="true"
     inkscape:snap-object-midpoints="true"
     inkscape:snap-center="true"
     units="px"
     inkscape:window-width="1920"
     inkscape:window-height="1137"
     inkscape:window-x="-8"
     inkscape:window-y="-8"
     inkscape:window-maximized="1"
     showguides="false"
     inkscape:guide-bbox="true"
     inkscape:snap-grids="true">
    <inkscape:grid
       type="xygrid"
       id="grid4241"
       spacingx="0.5"
       spacingy="0.5"
       empspacing="2" />
  </sodipodi:namedview>
  <metadata
     id="metadata4230">
    <rdf:RDF>
      <cc:Work
         rdf:about="">
        <dc:format>image/svg+xml</dc:format>
        <dc:type
           rdf:resource="http://purl.org/dc/dcmitype/StillImage" />
        <dc:title />
      </cc:Work>
    </rdf:RDF>
  </metadata>
  <g
     inkscape:label="Ebene 1"
     inkscape:groupmode="layer"
     id="layer1"
     transform="translate(0,-1028.3622)">
    <rect
       style="opacity:1;fill:#ffffff;fill-opacity:1;fill-rule:evenodd;stroke:#b3b3b3;stroke-width:1;stroke-linecap:square;stroke-linejoin:round;stroke-miterlimit:4;stroke-dasharray:none;stroke-dashoffset:0;stroke-opacity:1;paint-order:normal"
       id="rect894-2"
       width="20"
       height="14.000018"
       x="1.5"
       y="1029.8622" />
    <rect
       style="opacity:1;fill:#b3b3b3;fill-opacity:1;fill-rule:evenodd;stroke:none;stroke-width:2.93907523;stroke-linecap:round;stroke-linejoin:round;stroke-miterlimit:4;stroke-dasharray:none;stroke-dashoffset:0;stroke-opacity:1;paint-order:normal"
       id="rect828"
       width="1"
       height="9.0000172"
       x="7"
       y="1031.3622" />
    <rect
       y="1031.3622"
       x="11"
       height="9.0000172"
       width="1"
       id="rect844"
       style="opacity:1;fill:#b3b3b3;fill-opacity:1;fill-rule:evenodd;stroke:none;stroke-width:2.93907523;stroke-linecap:round;stroke-linejoin:round;stroke-miterlimit:4;stroke-dasharray:none;stroke-dashoffset:0;stroke-opacity:1;paint-order:normal" />
    <rect
       style="opacity:1;fill:#b3b3b3;fill-opacity:1;fill-rule:evenodd;stroke:none;stroke-width:2.93907523;stroke-linecap:round;stroke-linejoin:round;stroke-miterlimit:4;stroke-dasharray:none;stroke-dashoffset:0;stroke-opacity:1;paint-order:normal"
       id="rect846"
       width="1"
       height="9.0000172"
       x="15"
       y="1031.3622" />
    <rect
       y="1031.3622"
       x="19"
       height="9.0000172"
       width="1"
       id="rect848"
       style="opacity:1;fill:#b3b3b3;fill-opacity:1;fill-rule:evenodd;stroke:none;stroke-width:2.93907523;stroke-linecap:round;stroke-linejoin:round;stroke-miterlimit:4;stroke-dasharray:none;stroke-dashoffset:0;stroke-opacity:1;paint-order:normal" />
    <rect
       style="opacity:1;fill:#b3b3b3;fill-opacity:1;fill-rule:evenodd;stroke:none;stroke-width:4.30236053;stroke-linecap:round;stroke-linejoin:round;stroke-miterlimit:4;stroke-dasharray:none;stroke-dashoffset:0;stroke-opacity:1;paint-order:normal"
       id="rect850"
       width="1.0000174"
       height="16"
       x="1031.3622"
       y="-20"
       transform="rotate(90)" />
    <path
       inkscape:connector-curvature="0"
       id="path826"
       d="m 3.782254,1033.3495 2.6653602,4.5127 2.9959328,-3.0045 3.378772,4.0045 6.177681,-5"
       style="fill:none;fill-rule:evenodd;stroke:#5599ff;stroke-width:1.55110466;stroke-linecap:round;stroke-linejoin:round;stroke-miterlimit:4;stroke-dasharray:none;stroke-opacity:1"
       sodipodi:nodetypes="ccccc" />
    <path
       style="color:#000000;font-style:normal;font-variant:normal;font-weight:normal;font-stretch:normal;font-size:medium;line-height:normal;font-family:sans-serif;font-variant-ligatures:normal;font-variant-position:normal;font-variant-caps:normal;font-variant-numeric:normal;font-variant-alternates:normal;font-feature-settings:normal;text-indent:0;text-align:start;text-decoration:none;text-decoration-line:none;text-decoration-style:solid;text-decoration-color:#000000;letter-spacing:normal;word-spacing:normal;text-transform:none;writing-mode:lr-tb;direction:ltr;text-orientation:mixed;dominant-baseline:auto;baseline-shift:baseline;text-anchor:start;white-space:normal;shape-padding:0;clip-rule:nonzero;display:inline;overflow:visible;visibility:visible;opacity:1;isolation:auto;mix-blend-mode:normal;color-interpolation:sRGB;color-interpolation-filters:linearRGB;solid-color:#000000;solid-opacity:1;vector-effect:none;fill:#4d4d4d;fill-opacity:1;fill-rule:evenodd;stroke:none;stroke-width:1px;stroke-linecap:butt;stroke-linejoin:miter;stroke-miterlimit:4;stroke-dasharray:none;stroke-dashoffset:0;stroke-opacity:1;color-rendering:auto;image-rendering:auto;shape-rendering:auto;text-rendering:auto;enable-background:accumulate"
       d="m 3,1031.3622 v 10 h 17 v -1 H 4 v -9 z"
       id="path815-0"
       inkscape:connector-curvature="0"
       sodipodi:nodetypes="ccccccc" />
    <rect
       style="opacity:1;fill:#d45500;fill-opacity:1;fill-rule:evenodd;stroke:none;stroke-width:1;stroke-linecap:round;stroke-linejoin:round;stroke-miterlimit:4;stroke-dasharray:none;stroke-dashoffset:0;stroke-opacity:1;paint-order:normal"
       id="rect903"
       width="21"
       height="8.0000172"
       x="1"
       y="1043.3622" />
    <g
       aria-label="BGRA"
       style="font-style:normal;font-variant:normal;font-weight:bold;font-stretch:normal;font-size:8px;line-height:25px;font-family:'Trebuchet MS';-inkscape-font-specification:'Trebuchet MS Bold';letter-spacing:0px;word-spacing:0px;fill:#ffffff;fill-opacity:1;stroke:none;stroke-width:1px;stroke-linecap:butt;stroke-linejoin:miter;stroke-opacity:1"
       id="text901">
      <path
         d="M 3.75,1050.2645 H 2 v -5.7187 q 1.15625,-0.055 1.6210938,-0.055 0.8906249,0 1.3906249,0.3828 0.5039063,0.3789 0.5039063,1.0859 0,0.6797 -0.71875,1.0743 1.0664062,0.3711 1.0664062,1.5312 0,0.7813 -0.5898437,1.2422 -0.5898438,0.457 -1.5234375,0.457 z m -0.734375,-4.9062 v 1.3711 q 0.234375,0.016 0.4921875,0.016 0.9921875,0 0.9921875,-0.7461 0,-0.6602 -0.9023437,-0.6602 -0.2382813,0 -0.5820313,0.02 z m 0,2.164 v 1.8907 q 0.3085938,0.027 0.5,0.027 0.6796875,0 0.984375,-0.2305 0.3085937,-0.2304 0.3085937,-0.7656 0,-0.4883 -0.2851562,-0.7109 -0.2851563,-0.2227 -0.9960937,-0.2227 -0.1484375,0 -0.5117188,0.012 z"
         style=""
         id="path905" />
      <path
         d="m 10.992188,1045.0067 -0.425782,0.8164 q -0.179687,-0.1601 -0.554687,-0.3164 -0.3750002,-0.1601 -0.6445315,-0.1601 -0.84375,0 -1.3320312,0.5742 -0.4882813,0.5703 -0.4882813,1.5312 0,0.9141 0.4765625,1.461 0.4804688,0.5468 1.3046875,0.5468 0.5429688,0 0.894531,-0.2968 v -1.125 H 9.4296875 v -0.8672 h 1.8085935 v 2.5625 q -0.363281,0.2969 -0.9375,0.4648 -0.5703122,0.1641 -1.1367185,0.1641 -1.2304688,0 -1.953125,-0.8047 -0.71875,-0.8086 -0.71875,-2.1328 0,-1.3242 0.7851562,-2.1524 0.7851563,-0.8281 2.1132813,-0.8281 0.941406,0 1.601563,0.5625 z"
         style=""
         id="path907" />
      <path
         d="m 15.367188,1050.2645 -1.527344,-2.3633 q -0.230469,-0 -0.644531,-0.027 v 2.3906 h -1.054688 v -5.7226 q 0.08594,0 0.660156,-0.027 0.574219,-0.031 0.925782,-0.031 2.179687,0 2.179687,1.6875 0,0.5078 -0.300781,0.9258 -0.300781,0.4179 -0.757813,0.5898 l 1.691406,2.5781 z m -2.171875,-4.8398 v 1.5898 q 0.28125,0.024 0.429687,0.024 0.636719,0 0.929688,-0.1797 0.296875,-0.1797 0.296875,-0.6992 0,-0.4219 -0.316407,-0.5899 -0.316406,-0.168 -0.996093,-0.168 -0.164063,0 -0.34375,0.024 z"
         style=""
         id="path909" />
      <path
         d="m 20.371094,1050.2645 -0.417969,-1.1601 h -1.960938 l -0.398437,1.1601 h -1.128906 l 2.28125,-5.8008 h 0.445312 l 2.300781,5.8008 z m -1.402344,-4.0508 -0.6875,2.1133 h 1.375 z"
         style=""
         id="path911" />
    </g>
  </g>
</svg>
