<?xml version="1.0" encoding="UTF-8" standalone="no"?>
<!-- Created with Inkscape (http://www.inkscape.org/) -->

<svg
   xmlns:dc="http://purl.org/dc/elements/1.1/"
   xmlns:cc="http://creativecommons.org/ns#"
   xmlns:rdf="http://www.w3.org/1999/02/22-rdf-syntax-ns#"
   xmlns:svg="http://www.w3.org/2000/svg"
   xmlns="http://www.w3.org/2000/svg"
   xmlns:sodipodi="http://sodipodi.sourceforge.net/DTD/sodipodi-0.dtd"
   xmlns:inkscape="http://www.inkscape.org/namespaces/inkscape"
   width="16"
   height="16"
   id="svg2"
   sodipodi:version="0.32"
   inkscape:version="0.92.2 (5c3e80d, 2017-08-06)"
   version="1.0"
   sodipodi:docname="menu_build_all.svg"
   inkscape:output_extension="org.inkscape.output.svg.inkscape"
   inkscape:export-filename="menu_build_all.png"
   inkscape:export-xdpi="96"
   inkscape:export-ydpi="96">
  <defs
     id="defs4" />
  <sodipodi:namedview
     id="base"
     pagecolor="#ffffff"
     bordercolor="#666666"
     borderopacity="1.0"
     inkscape:pageopacity="0.0"
     inkscape:pageshadow="2"
     inkscape:zoom="22.627417"
     inkscape:cx="7.4124153"
     inkscape:cy="5.0415542"
     inkscape:document-units="px"
     inkscape:current-layer="layer1"
     showgrid="true"
     objecttolerance="10"
     gridtolerance="10"
     guidetolerance="10"
     showguides="true"
     inkscape:guide-bbox="true"
     inkscape:window-width="1920"
     inkscape:window-height="1137"
     inkscape:window-x="-8"
     inkscape:window-y="-8"
     inkscape:snap-bbox="true"
     inkscape:bbox-paths="true"
     inkscape:bbox-nodes="true"
     inkscape:snap-bbox-edge-midpoints="true"
     inkscape:snap-bbox-midpoints="true"
     inkscape:object-paths="true"
     inkscape:snap-intersection-paths="true"
     inkscape:object-nodes="true"
     inkscape:snap-smooth-nodes="true"
     inkscape:snap-midpoints="true"
     inkscape:snap-object-midpoints="true"
     inkscape:snap-center="true"
     inkscape:window-maximized="1"
     inkscape:snap-grids="true">
    <inkscape:grid
       type="xygrid"
       id="grid2409"
       visible="true"
       enabled="true"
       spacingx="0.5"
       spacingy="0.5"
       empspacing="2"
       snapvisiblegridlinesonly="true"
       originx="0"
       originy="0" />
  </sodipodi:namedview>
  <metadata
     id="metadata7">
    <rdf:RDF>
      <cc:Work
         rdf:about="">
        <dc:format>image/svg+xml</dc:format>
        <dc:type
           rdf:resource="http://purl.org/dc/dcmitype/StillImage" />
        <dc:title />
      </cc:Work>
    </rdf:RDF>
  </metadata>
  <g
     inkscape:label="Ebene 1"
     inkscape:groupmode="layer"
     id="layer1">
    <path
       id="path825"
       d="M 4.4375,0.5 4.25,2 3.409179,2.3486329 2.215332,1.4199219 1.419922,2.2153321 2.348633,3.4091797 2,4.25 0.5,4.4375 v 1.125 L 2,5.75 2.348633,6.5908204 1.419921,7.7846683 2.215332,8.5800785 3.409179,7.651367 4.25,8 4.4375,9.5 h 1.125 L 5.75,8 6.59082,7.651367 7.784668,8.5800785 8.5800782,7.7846683 7.6513667,6.5908204 7.9999997,5.75 l 1.5,-0.1875 V 4.4375 L 7.9999997,4.25 7.6513667,3.4091797 8.5800782,2.215332 7.784668,1.4199219 6.59082,2.3486329 5.75,2 5.5625,0.5 Z M 5,3.5 A 1.5,1.5 0 0 1 6.4999997,5 1.5,1.5 0 0 1 5,6.5 1.5,1.5 0 0 1 3.5,5 1.5,1.5 0 0 1 5,3.5 Z"
       style="fill:#ececec;fill-opacity:1;fill-rule:evenodd;stroke:#999999;stroke-width:1px;stroke-linecap:butt;stroke-linejoin:round;stroke-opacity:1"
       inkscape:connector-curvature="0" />
    <path
       inkscape:connector-curvature="0"
       style="fill:#ececec;fill-opacity:1;fill-rule:evenodd;stroke:#999999;stroke-width:1px;stroke-linecap:butt;stroke-linejoin:round;stroke-opacity:1"
       d="M 10.4375,6.5 10.25,8 9.4091792,8.3486329 8.2153322,7.4199219 7.4199221,8.2153321 8.3486332,9.4091797 8.0000002,10.25 6.5000001,10.4375 v 1.125 l 1.5000001,0.1875 0.348633,0.84082 -0.928712,1.193848 0.795411,0.795411 1.193847,-0.928712 L 10.25,14 l 0.1875,1.5 h 1.125 L 11.75,14 l 0.84082,-0.348633 1.193848,0.928712 0.79541,-0.795411 L 13.651367,12.59082 14,11.75 15.5,11.5625 v -1.125 L 14,10.25 13.651367,9.4091797 14.580078,8.215332 13.784668,7.4199219 12.59082,8.3486329 11.75,8 11.5625,6.5 Z M 11,9.5 A 1.5,1.5 0 0 1 12.5,11 1.5,1.5 0 0 1 11,12.5 1.5,1.5 0 0 1 9.5000002,11 1.5,1.5 0 0 1 11,9.5 Z"
       id="path827" />
  </g>
</svg>
