<?xml version="1.0" encoding="UTF-8" standalone="no"?>
<!-- Created with Inkscape (http://www.inkscape.org/) -->

<svg
   xmlns:dc="http://purl.org/dc/elements/1.1/"
   xmlns:cc="http://creativecommons.org/ns#"
   xmlns:rdf="http://www.w3.org/1999/02/22-rdf-syntax-ns#"
   xmlns:svg="http://www.w3.org/2000/svg"
   xmlns="http://www.w3.org/2000/svg"
   xmlns:sodipodi="http://sodipodi.sourceforge.net/DTD/sodipodi-0.dtd"
   xmlns:inkscape="http://www.inkscape.org/namespaces/inkscape"
   width="32"
   height="32"
   id="svg2"
   sodipodi:version="0.32"
   inkscape:version="0.92.2 (5c3e80d, 2017-08-06)"
   version="1.0"
   sodipodi:docname="menu_build_all_200.svg"
   inkscape:output_extension="org.inkscape.output.svg.inkscape"
   inkscape:export-filename="menu_build_all_200.png"
   inkscape:export-xdpi="96"
   inkscape:export-ydpi="96">
  <defs
     id="defs4" />
  <sodipodi:namedview
     id="base"
     pagecolor="#ffffff"
     bordercolor="#666666"
     borderopacity="1.0"
     inkscape:pageopacity="0.0"
     inkscape:pageshadow="2"
     inkscape:zoom="22.627417"
     inkscape:cx="16.852669"
     inkscape:cy="15.315353"
     inkscape:document-units="px"
     inkscape:current-layer="layer1"
     showgrid="true"
     objecttolerance="10"
     gridtolerance="10"
     guidetolerance="10"
     showguides="true"
     inkscape:guide-bbox="true"
     inkscape:window-width="1920"
     inkscape:window-height="1137"
     inkscape:window-x="-8"
     inkscape:window-y="-8"
     inkscape:window-maximized="1">
    <inkscape:grid
       type="xygrid"
       id="grid2409"
       visible="true"
       enabled="true"
       spacingx="0.5"
       spacingy="0.5"
       empspacing="2"
       snapvisiblegridlinesonly="true"
       originx="0"
       originy="0" />
  </sodipodi:namedview>
  <metadata
     id="metadata7">
    <rdf:RDF>
      <cc:Work
         rdf:about="">
        <dc:format>image/svg+xml</dc:format>
        <dc:type
           rdf:resource="http://purl.org/dc/dcmitype/StillImage" />
        <dc:title />
      </cc:Work>
    </rdf:RDF>
  </metadata>
  <g
     inkscape:label="Ebene 1"
     inkscape:groupmode="layer"
     id="layer1">
    <path
       inkscape:connector-curvature="0"
       style="fill:#ececec;fill-opacity:1;fill-rule:evenodd;stroke:#999999;stroke-width:2;stroke-linecap:butt;stroke-linejoin:round;stroke-miterlimit:4;stroke-dasharray:none;stroke-opacity:1"
       d="M 8.875,0.9999996 8.5,3.9999997 6.8183598,4.6972657 4.4306642,2.8398428 2.8398438,4.4306627 l 1.857422,2.387696 -0.6972657,1.6816411 -3,0.375 V 11.125 l 3,0.375001 0.6972657,1.68164 -1.857422,2.387695 1.5908204,1.590822 L 6.8183598,15.302734 8.5,16 8.875,19 h 2.25 l 0.375001,-3 1.68164,-0.697266 2.387696,1.857424 1.590821,-1.590822 -1.857423,-2.387695 0.697266,-1.68164 L 19,11.125 V 8.8749998 l -2.999999,-0.375 L 15.302735,6.8183587 17.160158,4.4306627 15.569337,2.8398428 13.181641,4.6972657 11.500001,3.9999997 11.125,0.9999996 Z M 10,7.0000007 A 3,3 0 0 1 13.000001,10 3,3 0 0 1 10,13 3,3 0 0 1 7,10 3,3 0 0 1 10,7.0000007 Z"
       id="path1030" />
    <path
       id="path822"
       d="m 20.875,13 -0.375,3 -1.68164,0.697266 -2.387696,-1.857423 -1.59082,1.59082 1.857422,2.387696 L 16,20.5 13,20.875 v 2.25 l 3,0.375001 0.697266,1.68164 -1.857422,2.387695 1.59082,1.590822 L 18.81836,27.302734 20.5,28 l 0.375,3 h 2.25 l 0.375001,-3 1.68164,-0.697266 2.387696,1.857424 1.590821,-1.590822 -1.857423,-2.387695 0.697266,-1.68164 L 31,23.125 v -2.25 L 28.000001,20.5 27.302735,18.818359 29.160158,16.430663 27.569337,14.839843 25.181641,16.697266 23.500001,16 23.125,13 Z M 22,19.000001 A 3,3 0 0 1 25.000001,22 3,3 0 0 1 22,25 3,3 0 0 1 19,22 3,3 0 0 1 22,19.000001 Z"
       style="fill:#ececec;fill-opacity:1;fill-rule:evenodd;stroke:#999999;stroke-width:2;stroke-linecap:butt;stroke-linejoin:round;stroke-miterlimit:4;stroke-dasharray:none;stroke-opacity:1"
       inkscape:connector-curvature="0" />
  </g>
</svg>
