<?xml version="1.0" encoding="UTF-8" standalone="no"?>
<!-- Created with Inkscape (http://www.inkscape.org/) -->

<svg
   xmlns:dc="http://purl.org/dc/elements/1.1/"
   xmlns:cc="http://creativecommons.org/ns#"
   xmlns:rdf="http://www.w3.org/1999/02/22-rdf-syntax-ns#"
   xmlns:svg="http://www.w3.org/2000/svg"
   xmlns="http://www.w3.org/2000/svg"
   xmlns:sodipodi="http://sodipodi.sourceforge.net/DTD/sodipodi-0.dtd"
   xmlns:inkscape="http://www.inkscape.org/namespaces/inkscape"
   width="24"
   height="24"
   viewBox="0 0 24 24"
   id="svg4225"
   version="1.1"
   inkscape:version="0.92.3 (2405546, 2018-03-11)"
   sodipodi:docname="ttimeedit_rx.svg"
   inkscape:export-filename="D:\temp\rx\work\ttimeedit_rx.png"
   inkscape:export-xdpi="96"
   inkscape:export-ydpi="96">
  <defs
     id="defs4227" />
  <sodipodi:namedview
     id="base"
     pagecolor="#ffffff"
     bordercolor="#666666"
     borderopacity="1.0"
     inkscape:pageopacity="0.0"
     inkscape:pageshadow="2"
     inkscape:zoom="32"
     inkscape:cx="11.929989"
     inkscape:cy="5.8717127"
     inkscape:document-units="px"
     inkscape:current-layer="layer3"
     showgrid="true"
     inkscape:snap-bbox="true"
     inkscape:bbox-paths="false"
     inkscape:bbox-nodes="true"
     inkscape:snap-bbox-edge-midpoints="false"
     inkscape:snap-bbox-midpoints="false"
     inkscape:object-paths="false"
     inkscape:snap-intersection-paths="true"
     inkscape:object-nodes="true"
     inkscape:snap-smooth-nodes="false"
     inkscape:snap-midpoints="false"
     inkscape:snap-object-midpoints="true"
     inkscape:snap-center="true"
     units="px"
     inkscape:window-width="1920"
     inkscape:window-height="1018"
     inkscape:window-x="-8"
     inkscape:window-y="-8"
     inkscape:window-maximized="1"
     inkscape:snap-global="true"
     inkscape:snap-nodes="true">
    <inkscape:grid
       type="xygrid"
       id="grid4241" />
  </sodipodi:namedview>
  <metadata
     id="metadata4230">
    <rdf:RDF>
      <cc:Work
         rdf:about="">
        <dc:format>image/svg+xml</dc:format>
        <dc:type
           rdf:resource="http://purl.org/dc/dcmitype/StillImage" />
        <dc:title></dc:title>
      </cc:Work>
    </rdf:RDF>
  </metadata>
  <g
     inkscape:groupmode="layer"
     id="layer5"
     inkscape:label="base"
     transform="translate(0,-24)"
     style="display:inline"
     sodipodi:insensitive="true">
    <path
       style="opacity:1;fill:none;fill-opacity:1;fill-rule:evenodd;stroke:none;stroke-width:0.50566834;stroke-linecap:square;stroke-linejoin:round;stroke-miterlimit:4;stroke-dasharray:none;stroke-dashoffset:0;stroke-opacity:1;paint-order:fill markers stroke"
       d="M 0,24 H 24 V 48 H 0 Z"
       id="rect891"
       inkscape:connector-curvature="0" />
  </g>
  <g
     inkscape:label="time_edit"
     inkscape:groupmode="layer"
     id="layer1"
     transform="translate(0,-1028.3622)"
     style="display:inline"
     sodipodi:insensitive="true">
    <path
       style="display:inline;opacity:1;fill:#7f9db9;fill-opacity:1;fill-rule:evenodd;stroke:none;stroke-width:2;stroke-linecap:round;stroke-linejoin:round;stroke-miterlimit:4;stroke-dasharray:none;stroke-dashoffset:0;stroke-opacity:1;paint-order:normal"
       d="m 0,1040.3622 h 23.999999 v 1 H 0 Z"
       id="rect915"
       inkscape:connector-curvature="0" />
    <path
       style="display:inline;opacity:1;fill:#7f9db9;fill-opacity:1;fill-rule:evenodd;stroke:none;stroke-width:2;stroke-linecap:round;stroke-linejoin:round;stroke-miterlimit:4;stroke-dasharray:none;stroke-dashoffset:0;stroke-opacity:1;paint-order:normal"
       d="M 0.00552427,1048.365 H 24 v 1 H 0.00552427 Z"
       id="rect915-0"
       inkscape:connector-curvature="0" />
    <path
       style="display:inline;opacity:1;fill:#f2f2f2;fill-opacity:1;fill-rule:evenodd;stroke:none;stroke-width:2;stroke-linecap:round;stroke-linejoin:round;stroke-miterlimit:4;stroke-dasharray:none;stroke-dashoffset:0;stroke-opacity:1;paint-order:normal"
       d="m 0,1041.3622 h 23.999999 v 7 H 0 Z"
       id="rect915-0-6"
       inkscape:connector-curvature="0" />
    <path
       style="display:inline;opacity:1;fill:#7f9db9;fill-opacity:1;fill-rule:evenodd;stroke:none;stroke-width:2;stroke-linecap:round;stroke-linejoin:round;stroke-miterlimit:4;stroke-dasharray:none;stroke-dashoffset:0;stroke-opacity:1;paint-order:normal"
       d="m 21,1044.3622 h 3 v 1 h -3 z"
       id="rect915-0-7"
       inkscape:connector-curvature="0" />
  </g>
  <g
     inkscape:groupmode="layer"
     id="layer4"
     inkscape:label="arrow"
     style="display:inline"
     sodipodi:insensitive="true">
    <path
       style="opacity:1;fill:#000000;fill-opacity:1;fill-rule:evenodd;stroke:none;stroke-width:2;stroke-linecap:round;stroke-linejoin:round;stroke-miterlimit:4;stroke-dasharray:none;stroke-dashoffset:0;stroke-opacity:1;paint-order:normal"
       inkscape:transform-center-y="-0.32044152"
       d="m 22.480698,13.077392 1.110041,1.922649 h -2.220084 z"
       id="path966"
       inkscape:connector-curvature="0" />
    <path
       style="opacity:1;fill:#000000;fill-opacity:1;fill-rule:evenodd;stroke:none;stroke-width:2;stroke-linecap:round;stroke-linejoin:round;stroke-miterlimit:4;stroke-dasharray:none;stroke-dashoffset:0;stroke-opacity:1;paint-order:normal"
       inkscape:transform-center-y="0.32044152"
       d="m 22.480698,19.933747 1.110041,-1.922649 h -2.220084 z"
       id="path966-5"
       inkscape:connector-curvature="0" />
  </g>
  <g
     inkscape:groupmode="layer"
     id="layer3"
     inkscape:label="clock"
     style="display:inline"
     transform="translate(0,-24)">
    <flowRoot
       xml:space="preserve"
       id="flowRoot844"
       style="font-style:normal;font-variant:normal;font-weight:bold;font-stretch:normal;font-size:8px;line-height:1.25;font-family:'Segoe UI';-inkscape-font-specification:'Segoe UI Bold';letter-spacing:0px;word-spacing:0px;fill:#000000;fill-opacity:1;stroke:none"
       transform="matrix(0.5,0,0,0.5,0,24)"><flowRegion
         id="flowRegion846"><rect
           id="rect848"
           width="22"
           height="15"
           x="5"
           y="29" /></flowRegion><flowPara
         id="flowPara850">12:06:48</flowPara></flowRoot>    <path
       inkscape:connector-curvature="0"
       id="path882"
       style="font-style:normal;font-variant:normal;font-weight:bold;font-stretch:normal;font-size:medium;line-height:1.25;font-family:'DJB Get Digital';-inkscape-font-specification:'DJB Get Digital Bold';letter-spacing:0px;word-spacing:0px;fill:#000000;fill-opacity:1;stroke:none;stroke-width:0.99999982"
       d="m 1.6221162,41.075605 0.015519,1.520878 -0.3134871,0.322799 -0.3072794,-0.319695 -0.015519,-1.520878 0.3103832,-0.319694 z m -0.015519,-2.346497 v 1.570539 L 1.29311,40.622446 0.98583063,40.302751 V 38.732212 L 1.2962138,38.412517 Z" />
    <path
       inkscape:connector-curvature="0"
       id="path884"
       style="font-style:normal;font-variant:normal;font-weight:bold;font-stretch:normal;font-size:medium;line-height:1.25;font-family:'DJB Get Digital';-inkscape-font-specification:'DJB Get Digital Bold';letter-spacing:0px;word-spacing:0px;fill:#000000;fill-opacity:1;stroke:none;stroke-width:0.99999982"
       d="m 3.2862275,42.379215 h 1.2353253 l 0.3227985,0.313487 -0.3196947,0.307279 H 3.2893314 L 2.9696367,42.689598 Z m -0.049661,-1.30361 v 1.235326 l -0.313487,0.322798 -0.3072794,-0.319694 v -1.235326 l 0.3103832,-0.319694 z m 1.9492067,-2.014387 v 1.235326 L 4.8722858,40.619342 4.5650064,40.299647 v -1.235325 l 0.3103833,-0.319695 z m -1.911961,1.306714 H 4.5091374 L 4.831936,40.681419 4.5122413,40.988698 H 3.276916 L 2.9572213,40.678315 Z m 0.00931,-1.989557 h 1.2353252 l 0.3227986,0.313487 -0.3196947,0.30728 H 3.2862275 L 2.9665328,38.688758 Z" />
    <path
       style="font-style:normal;font-variant:normal;font-weight:bold;font-stretch:normal;font-size:medium;line-height:1.25;font-family:'DJB Get Digital';-inkscape-font-specification:'DJB Get Digital Bold';letter-spacing:0px;word-spacing:0px;fill:#000000;fill-opacity:1;stroke:none;stroke-width:0.99999976"
       d="m 6.2250001,39.125 q 0.2102801,0 0.3551398,0.146018 Q 6.725,39.417035 6.725,39.625 q 0,0.207966 -0.1448601,0.353983 Q 6.4352799,40.125 6.2250001,40.125 6.0193927,40.125 5.86986,39.978983 5.725,39.832966 5.725,39.625 5.725,39.417035 5.86986,39.271018 6.0193932,39.125 6.2250001,39.125 Z"
       id="path909"
       inkscape:connector-curvature="0" />
    <path
       style="font-style:normal;font-variant:normal;font-weight:bold;font-stretch:normal;font-size:medium;line-height:1.25;font-family:'DJB Get Digital';-inkscape-font-specification:'DJB Get Digital Bold';letter-spacing:0px;word-spacing:0px;fill:#000000;fill-opacity:1;stroke:none;stroke-width:0.9999997"
       d="m 6.2254531,41.106076 q 0.2102803,0 0.35514,0.146017 0.14486,0.146018 0.14486,0.353983 0,0.207964 -0.14486,0.353981 -0.14486,0.146019 -0.35514,0.146019 -0.2056073,0 -0.3551399,-0.146019 -0.14486,-0.146017 -0.14486,-0.353981 0,-0.207965 0.14486,-0.353983 0.1495332,-0.146017 0.3551399,-0.146017 z"
       id="path886"
       inkscape:connector-curvature="0" />
    <path
       inkscape:connector-curvature="0"
       id="path888"
       style="font-style:normal;font-variant:normal;font-weight:bold;font-stretch:normal;font-size:medium;line-height:1.25;font-family:'DJB Get Digital';-inkscape-font-specification:'DJB Get Digital Bold';letter-spacing:0px;word-spacing:0px;fill:#000000;fill-opacity:1;stroke:none;stroke-width:0.99999982"
       d="M 7.7060848,42.379215 H 8.94141 l 0.3227986,0.313487 -0.3196947,0.307279 H 7.7091886 L 7.3894939,42.689598 Z m -0.049661,-1.30361 v 1.235326 L 7.3429364,42.633729 7.035657,42.314035 v -1.235326 l 0.3103833,-0.319694 z m 1.9492066,-2.014387 v 1.235326 L 9.2921434,40.619342 8.984864,40.299647 v -1.235325 l 0.3103832,-0.319695 z m -1.9647258,0.0031 v 1.235325 l -0.313487,0.322799 -0.3072794,-0.319695 v -1.235325 l 0.3103832,-0.319695 z m 0.062077,-0.685947 h 1.2353252 l 0.3227986,0.313487 -0.3196948,0.30728 H 7.7060848 l -0.3196947,-0.31038 z m 1.905753,2.69723 v 1.235326 L 9.2952469,42.633729 8.9879675,42.314035 v -1.235326 l 0.3103833,-0.319694 z" />
    <path
       inkscape:connector-curvature="0"
       id="path890"
       style="font-style:normal;font-variant:normal;font-weight:bold;font-stretch:normal;font-size:medium;line-height:1.25;font-family:'DJB Get Digital';-inkscape-font-specification:'DJB Get Digital Bold';letter-spacing:0px;word-spacing:0px;fill:#000000;fill-opacity:1;stroke:none;stroke-width:0.99999982"
       d="m 10.726995,42.379215 h 1.235326 l 0.322798,0.313487 -0.319695,0.307279 h -1.235325 l -0.319695,-0.310383 z m -0.04966,-1.30361 v 1.235326 l -0.313487,0.322798 -0.307279,-0.319694 v -1.235326 l 0.310383,-0.319694 z m -0.01552,-2.011283 v 1.235325 l -0.313487,0.322799 -0.307279,-0.319695 v -1.235325 l 0.310383,-0.319695 z m 0.05276,1.30361 H 11.9499 l 0.322799,0.313487 -0.319695,0.307279 h -1.235325 l -0.319695,-0.310383 z m 0.0093,-1.989557 h 1.235326 l 0.322798,0.313487 -0.319694,0.30728 h -1.235326 l -0.319694,-0.310384 z m 1.905753,2.69723 v 1.235326 l -0.313487,0.322798 -0.307279,-0.319694 v -1.235326 l 0.310383,-0.319694 z" />
    <path
       style="font-style:normal;font-variant:normal;font-weight:bold;font-stretch:normal;font-size:medium;line-height:1.25;font-family:'DJB Get Digital';-inkscape-font-specification:'DJB Get Digital Bold';letter-spacing:0px;word-spacing:0px;fill:#000000;fill-opacity:1;stroke:none;stroke-width:0.99999976"
       d="m 13.517975,39.200886 q 0.210279,0 0.355139,0.146018 0.144861,0.146017 0.144861,0.353982 0,0.207966 -0.144861,0.353983 -0.144861,0.146017 -0.355139,0.146017 -0.205607,0 -0.355138,-0.146017 -0.144862,-0.146017 -0.144862,-0.353983 0,-0.207965 0.144862,-0.353982 0.149528,-0.146018 0.355138,-0.146018 z"
       id="path913"
       inkscape:connector-curvature="0" />
    <path
       style="font-style:normal;font-variant:normal;font-weight:bold;font-stretch:normal;font-size:medium;line-height:1.25;font-family:'DJB Get Digital';-inkscape-font-specification:'DJB Get Digital Bold';letter-spacing:0px;word-spacing:0px;fill:#000000;fill-opacity:1;stroke:none;stroke-width:0.99999976"
       d="m 13.580056,41.106076 q 0.210279,0 0.355138,0.146017 0.144861,0.146018 0.144861,0.353983 0,0.207964 -0.144861,0.353981 -0.144861,0.146019 -0.355138,0.146019 -0.205607,0 -0.35514,-0.146019 -0.144861,-0.146017 -0.144861,-0.353981 0,-0.207965 0.144861,-0.353983 0.149528,-0.146017 0.35514,-0.146017 z"
       id="path892"
       inkscape:connector-curvature="0" />
    <path
       inkscape:connector-curvature="0"
       id="path894"
       style="font-style:normal;font-variant:normal;font-weight:bold;font-stretch:normal;font-size:medium;line-height:1.25;font-family:'DJB Get Digital';-inkscape-font-specification:'DJB Get Digital Bold';letter-spacing:0px;word-spacing:0px;fill:#000000;fill-opacity:1;stroke:none;stroke-width:0.99999982"
       d="m 16.94212,38.722901 -0.0062,1.573643 -0.313487,0.322798 -0.30728,-0.319695 0.0062,-1.573643 0.310383,-0.319694 z m -1.964725,0.0031 -0.0062,1.573643 -0.313487,0.322799 -0.30728,-0.319695 0.0062,-1.573643 0.310383,-0.319694 z m 0.04656,1.641928 h 1.235325 l 0.322799,0.313487 -0.319695,0.307279 h -1.235328 l -0.319695,-0.31038 z m 1.915064,0.707673 v 1.589163 l -0.313487,0.322798 -0.307279,-0.319695 v -1.589162 l 0.310383,-0.319694 z" />
    <path
       inkscape:connector-curvature="0"
       id="path896"
       style="font-style:normal;font-variant:normal;font-weight:bold;font-stretch:normal;font-size:medium;line-height:1.25;font-family:'DJB Get Digital';-inkscape-font-specification:'DJB Get Digital Bold';letter-spacing:0px;word-spacing:0px;fill:#000000;fill-opacity:1;stroke:none;stroke-width:0.99999982"
       d="m 17.836308,42.379215 h 1.235325 l 0.322799,0.313487 -0.319695,0.307279 h -1.235325 l -0.319695,-0.310383 z m -0.04966,-1.30361 v 1.235326 l -0.313487,0.322798 -0.30728,-0.319694 v -1.235326 l 0.310384,-0.319694 z m 1.949207,-2.014387 v 1.235326 l -0.313487,0.322798 -0.30728,-0.319695 v -1.235325 l 0.310383,-0.319695 z m -1.964726,0.0031 v 1.235325 l -0.313487,0.322799 -0.30728,-0.319695 v -1.235325 l 0.310384,-0.319695 z m 0.05277,1.30361 h 1.235325 l 0.322799,0.313487 -0.319695,0.307279 h -1.235325 l -0.319695,-0.310383 z m 0.0093,-1.989557 h 1.235326 l 0.322798,0.313487 -0.319695,0.30728 h -1.235325 l -0.319694,-0.310384 z m 1.905753,2.69723 v 1.235326 l -0.313487,0.322798 -0.307279,-0.319694 v -1.235326 l 0.310383,-0.319694 z" />
  </g>
  <g
     inkscape:groupmode="layer"
     id="layer2"
     inkscape:label="text"
     style="display:inline"
     transform="translate(0,-24)"
     sodipodi:insensitive="true">
    <flowRoot
       xml:space="preserve"
       id="flowRoot914-84"
       style="font-style:normal;font-variant:normal;font-weight:normal;font-stretch:normal;font-size:12px;line-height:1.25;font-family:'Arial Unicode MS';-inkscape-font-specification:'Arial Unicode MS';letter-spacing:0px;word-spacing:0px;clip-rule:evenodd;fill:#c500ab;fill-opacity:1;fill-rule:evenodd;stroke:#ffffff;stroke-width:2.96764684;stroke-linecap:round;stroke-linejoin:round;stroke-miterlimit:4;stroke-dasharray:none;stroke-opacity:1;paint-order:markers stroke fill;image-rendering:optimizeQuality;shape-rendering:geometricPrecision;text-rendering:geometricPrecision"
       transform="matrix(0.46354284,0,0,0.55114772,-0.66329474,24.066648)"><flowRegion
         id="flowRegion916-4"
         style="fill:#c500ab;fill-opacity:1;stroke:#ffffff;stroke-width:2.96764684;stroke-linecap:round;stroke-linejoin:round;stroke-miterlimit:4;stroke-dasharray:none;stroke-opacity:1;paint-order:markers stroke fill"><rect
           id="rect918-7"
           width="38.14209"
           height="34.674625"
           x="3.4674628"
           y="-1.8781176"
           style="fill:#c500ab;fill-opacity:1;stroke:#ffffff;stroke-width:2.96764684;stroke-linecap:round;stroke-linejoin:round;stroke-miterlimit:4;stroke-dasharray:none;stroke-opacity:1;paint-order:markers stroke fill" /></flowRegion><flowPara
         id="flowPara920-5"
         style="font-style:normal;font-variant:normal;font-weight:bold;font-stretch:normal;font-size:21.33333397px;font-family:Arial;-inkscape-font-specification:'Arial Bold';stroke:#ffffff;stroke-width:2.96764684;stroke-linecap:round;stroke-linejoin:round;stroke-miterlimit:4;stroke-dasharray:none;stroke-opacity:1;paint-order:markers stroke fill">Rx</flowPara></flowRoot>  </g>
</svg>
