<?xml version="1.0" encoding="UTF-8" standalone="no"?>
<!-- Created with Inkscape (http://www.inkscape.org/) -->

<svg
   xmlns:osb="http://www.openswatchbook.org/uri/2009/osb"
   xmlns:dc="http://purl.org/dc/elements/1.1/"
   xmlns:cc="http://creativecommons.org/ns#"
   xmlns:rdf="http://www.w3.org/1999/02/22-rdf-syntax-ns#"
   xmlns:svg="http://www.w3.org/2000/svg"
   xmlns="http://www.w3.org/2000/svg"
   xmlns:xlink="http://www.w3.org/1999/xlink"
   xmlns:sodipodi="http://sodipodi.sourceforge.net/DTD/sodipodi-0.dtd"
   xmlns:inkscape="http://www.inkscape.org/namespaces/inkscape"
   width="24"
   height="24"
   viewBox="0 0 24 24"
   version="1.1"
   id="svg2747"
   inkscape:version="0.92.3 (2405546, 2018-03-11)"
   sodipodi:docname="tsecretpanel_rx.svg"
   inkscape:export-filename="D:\temp\rx\work\tsecretpanel_rx.png"
   inkscape:export-xdpi="96"
   inkscape:export-ydpi="96">
  <defs
     id="defs2741">
    <linearGradient
       inkscape:collect="always"
       id="linearGradient941">
      <stop
         style="stop-color:#ffffff;stop-opacity:1"
         offset="0"
         id="stop937" />
      <stop
         style="stop-color:#d6d6d6;stop-opacity:1"
         offset="1"
         id="stop939" />
    </linearGradient>
    <linearGradient
       spreadMethod="pad"
       id="linearGradient4868"
       gradientUnits="userSpaceOnUse"
       x1="42.5844"
       y1="20.573299"
       x2="10"
       y2="29">
      <stop
         offset="0"
         stop-color="#7D6400"
         id="stop4864" />
      <stop
         style="stop-opacity:0"
         offset="1"
         stop-color="#BE9700"
         id="stop4866" />
    </linearGradient>
    <linearGradient
       y2="29"
       x2="10"
       y1="20.573299"
       x1="42.5844"
       gradientUnits="userSpaceOnUse"
       id="0-3"
       spreadMethod="pad">
      <stop
         id="stop3332"
         stop-color="#7D6400"
         offset="0" />
      <stop
         id="stop3334"
         stop-color="#BE9700"
         offset="1"
         style="stop-opacity:0" />
    </linearGradient>
    <linearGradient
       y2="29"
       x2="10"
       y1="20.573299"
       x1="42.5844"
       gradientUnits="userSpaceOnUse"
       id="0">
      <stop
         id="stop3326"
         stop-color="#7D6400"
         offset="0" />
      <stop
         id="stop3328"
         stop-color="#BE9700"
         offset="1"
         style="stop-opacity:0" />
    </linearGradient>
    <linearGradient
       id="a2"
       gradientUnits="userSpaceOnUse"
       x1="42.5844"
       y1="20.573299"
       x2="10"
       y2="29"
       spreadMethod="pad"
       xlink:href="#0-3"
       osb:paint="gradient">
      <stop
         offset="0"
         stop-color="#7D6400"
         id="stop15" />
      <stop
         offset="1"
         stop-color="#BE9700"
         id="stop17" />
    </linearGradient>
    <pattern
       y="0"
       x="0"
       height="6"
       width="6"
       patternUnits="userSpaceOnUse"
       id="EMFhbasepattern" />
    <pattern
       y="0"
       x="0"
       height="6"
       width="6"
       patternUnits="userSpaceOnUse"
       id="EMFhbasepattern-9" />
    <linearGradient
       inkscape:collect="always"
       xlink:href="#linearGradient941"
       id="linearGradient943"
       x1="4"
       y1="12"
       x2="36"
       y2="44"
       gradientUnits="userSpaceOnUse"
       gradientTransform="matrix(0.5,0,0,0.5,0,24)" />
  </defs>
  <sodipodi:namedview
     id="base"
     pagecolor="#ffffff"
     bordercolor="#666666"
     borderopacity="1.0"
     inkscape:pageopacity="0.0"
     inkscape:pageshadow="2"
     inkscape:zoom="17.104167"
     inkscape:cx="7.6917037"
     inkscape:cy="5.136815"
     inkscape:document-units="px"
     inkscape:current-layer="layer8"
     showgrid="true"
     units="px"
     inkscape:window-width="1920"
     inkscape:window-height="1018"
     inkscape:window-x="-8"
     inkscape:window-y="-8"
     inkscape:window-maximized="1"
     inkscape:snap-global="true"
     inkscape:snap-object-midpoints="true">
    <inkscape:grid
       type="xygrid"
       id="grid3295" />
  </sodipodi:namedview>
  <metadata
     id="metadata2744">
    <rdf:RDF>
      <cc:Work
         rdf:about="">
        <dc:format>image/svg+xml</dc:format>
        <dc:type
           rdf:resource="http://purl.org/dc/dcmitype/StillImage" />
        <dc:title></dc:title>
      </cc:Work>
    </rdf:RDF>
  </metadata>
  <g
     inkscape:label="base"
     inkscape:groupmode="layer"
     id="layer1"
     transform="translate(0,-308.29999)"
     style="display:inline"
     sodipodi:insensitive="true">
    <path
       style="opacity:1;fill:none;fill-opacity:1;fill-rule:nonzero;stroke:none;stroke-width:0.55000001;stroke-linecap:butt;stroke-linejoin:round;stroke-miterlimit:4;stroke-dasharray:none;stroke-opacity:1;paint-order:stroke fill markers"
       d="m 0,308.29999 h 24 v 24 H 0 Z"
       id="rect3297"
       inkscape:connector-curvature="0" />
  </g>
  <g
     inkscape:groupmode="layer"
     id="layer8"
     inkscape:label="panel"
     transform="translate(0,-24)"
     sodipodi:insensitive="true">
    <path
       style="color:#000000;font-style:normal;font-variant:normal;font-weight:normal;font-stretch:normal;font-size:medium;line-height:normal;font-family:sans-serif;font-variant-ligatures:normal;font-variant-position:normal;font-variant-caps:normal;font-variant-numeric:normal;font-variant-alternates:normal;font-feature-settings:normal;text-indent:0;text-align:start;text-decoration:none;text-decoration-line:none;text-decoration-style:solid;text-decoration-color:#000000;letter-spacing:normal;word-spacing:normal;text-transform:none;writing-mode:lr-tb;direction:ltr;text-orientation:mixed;dominant-baseline:auto;baseline-shift:baseline;text-anchor:start;white-space:normal;shape-padding:0;clip-rule:nonzero;display:inline;overflow:visible;visibility:visible;opacity:1;isolation:auto;mix-blend-mode:normal;color-interpolation:sRGB;color-interpolation-filters:linearRGB;solid-color:#000000;solid-opacity:1;vector-effect:none;fill:#999999;fill-opacity:1;fill-rule:evenodd;stroke:none;stroke-width:1.03625989;stroke-linecap:round;stroke-linejoin:round;stroke-miterlimit:4;stroke-dasharray:none;stroke-dashoffset:0;stroke-opacity:1;color-rendering:auto;image-rendering:auto;shape-rendering:auto;text-rendering:auto;enable-background:accumulate"
       d="m 1.5246074,29 a 0.5183978,0.51796585 0 0 0 -0.5181925,0.517761 v 16.952773 a 0.5183978,0.51796585 0 0 0 0.5181925,0.51776 H 18.491519 a 0.5183978,0.51796585 0 0 0 0.518192,-0.51776 V 29.517761 A 0.5183978,0.51796585 0 0 0 18.491519,29 Z"
       id="path869"
       inkscape:connector-curvature="0" />
    <path
       style="color:#000000;font-style:normal;font-variant:normal;font-weight:normal;font-stretch:normal;font-size:medium;line-height:normal;font-family:sans-serif;font-variant-ligatures:normal;font-variant-position:normal;font-variant-caps:normal;font-variant-numeric:normal;font-variant-alternates:normal;font-feature-settings:normal;text-indent:0;text-align:start;text-decoration:none;text-decoration-line:none;text-decoration-style:solid;text-decoration-color:#000000;letter-spacing:normal;word-spacing:normal;text-transform:none;writing-mode:lr-tb;direction:ltr;text-orientation:mixed;dominant-baseline:auto;baseline-shift:baseline;text-anchor:start;white-space:normal;shape-padding:0;clip-rule:nonzero;display:inline;overflow:visible;visibility:visible;opacity:1;isolation:auto;mix-blend-mode:normal;color-interpolation:sRGB;color-interpolation-filters:linearRGB;solid-color:#000000;solid-opacity:1;vector-effect:none;fill:url(#linearGradient943);fill-opacity:1;fill-rule:evenodd;stroke:none;stroke-width:1.03937006;stroke-linecap:round;stroke-linejoin:round;stroke-miterlimit:4;stroke-dasharray:none;stroke-dashoffset:0;stroke-opacity:1;color-rendering:auto;image-rendering:auto;shape-rendering:auto;text-rendering:auto;enable-background:accumulate"
       d="M 2.0146484,30.014648 H 17.985351 V 45.985351 H 2.0146484 Z"
       id="path826"
       inkscape:connector-curvature="0" />
    <path
       id="path830"
       d="m 4.3699775,27.550102 h 5.9999565 c 0.559996,0 1.039992,0.48 1.039992,1.04 v 0.960001 c 0,0.56 -0.479996,1.040001 -1.039992,1.040001 H 4.3699775 c -0.479996,0 -0.9599918,-0.480001 -0.9599918,-1.040001 v -0.960001 c 0,-0.56 0.4799958,-1.04 0.9599918,-1.04 z"
       style="fill:none;stroke:none;stroke-width:1"
       inkscape:connector-curvature="0" />
  </g>
  <g
     inkscape:groupmode="layer"
     id="layer5"
     inkscape:label="spy_circle"
     style="display:inline"
     transform="translate(0,-24)">
    <path
       style="color:#000000;font-style:normal;font-variant:normal;font-weight:normal;font-stretch:normal;font-size:medium;line-height:normal;font-family:sans-serif;font-variant-ligatures:normal;font-variant-position:normal;font-variant-caps:normal;font-variant-numeric:normal;font-variant-alternates:normal;font-feature-settings:normal;text-indent:0;text-align:start;text-decoration:none;text-decoration-line:none;text-decoration-style:solid;text-decoration-color:#000000;letter-spacing:normal;word-spacing:normal;text-transform:none;writing-mode:lr-tb;direction:ltr;text-orientation:mixed;dominant-baseline:auto;baseline-shift:baseline;text-anchor:start;white-space:normal;shape-padding:0;clip-rule:nonzero;display:inline;overflow:visible;visibility:visible;opacity:1;isolation:auto;mix-blend-mode:normal;color-interpolation:sRGB;color-interpolation-filters:linearRGB;solid-color:#000000;solid-opacity:1;vector-effect:none;fill:#222222;fill-opacity:1;fill-rule:evenodd;stroke:none;stroke-width:0.6148538;stroke-linecap:round;stroke-linejoin:round;stroke-miterlimit:4;stroke-dasharray:none;stroke-dashoffset:0;stroke-opacity:1;paint-order:normal;color-rendering:auto;image-rendering:auto;shape-rendering:auto;text-rendering:auto;enable-background:accumulate"
       d="m 14.9802,29.995147 c -4.414775,1e-6 -7.9997048,3.584951 -7.9997048,7.9997 0,4.41475 3.5849298,8.000299 7.9997048,8.0003 4.414785,0 8.000293,-3.585548 8.000293,-8.0003 0,-4.41475 -3.585509,-7.9997 -8.000293,-7.9997 z"
       id="path933"
       inkscape:connector-curvature="0" />
    <path
       style="color:#000000;font-style:normal;font-variant:normal;font-weight:normal;font-stretch:normal;font-size:medium;line-height:normal;font-family:sans-serif;font-variant-ligatures:normal;font-variant-position:normal;font-variant-caps:normal;font-variant-numeric:normal;font-variant-alternates:normal;font-feature-settings:normal;text-indent:0;text-align:start;text-decoration:none;text-decoration-line:none;text-decoration-style:solid;text-decoration-color:#000000;letter-spacing:normal;word-spacing:normal;text-transform:none;writing-mode:lr-tb;direction:ltr;text-orientation:mixed;dominant-baseline:auto;baseline-shift:baseline;text-anchor:start;white-space:normal;shape-padding:0;clip-rule:nonzero;display:inline;overflow:visible;visibility:visible;opacity:1;isolation:auto;mix-blend-mode:normal;color-interpolation:sRGB;color-interpolation-filters:linearRGB;solid-color:#000000;solid-opacity:1;vector-effect:none;fill:#ffffff;fill-opacity:1;fill-rule:evenodd;stroke:none;stroke-width:0.59249759;stroke-linecap:round;stroke-linejoin:round;stroke-miterlimit:4;stroke-dasharray:none;stroke-dashoffset:0;stroke-opacity:1;paint-order:normal;color-rendering:auto;image-rendering:auto;shape-rendering:auto;text-rendering:auto;enable-background:accumulate"
       d="m 14.9802,30.878521 c 3.93402,0 7.116938,3.182309 7.116938,7.116338 0,3.934028 -3.182918,7.116919 -7.116939,7.116919 -3.93401,0 -7.1163485,-3.182894 -7.1163485,-7.116919 0,-3.934029 3.1823405,-7.116338 7.1163495,-7.116338 z"
       id="path926"
       inkscape:connector-curvature="0" />
  </g>
  <g
     inkscape:groupmode="layer"
     id="layer2"
     inkscape:label="spy"
     style="display:inline;opacity:1"
     transform="translate(0,-24)">
    <path
       style="fill:#000000;fill-opacity:1;fill-rule:evenodd;stroke:none;stroke-width:0.02379189"
       d="m 12.991346,32.87887 c -0.554046,0 -0.879916,0.492929 -1.14164,0.882166 l -0.249564,0.423785 c -0.148438,0.24451 -0.315286,0.637417 -0.43488,0.914289 -0.03225,0.07441 -0.05829,0.147531 -0.0859,0.219307 a 5.3000683,2.3947478 0 0 0 3.943193,0.801239 5.3000683,2.3947478 0 0 0 3.864723,-0.761707 c -0.187272,-0.467349 -0.422547,-0.985884 -0.527561,-1.161392 -0.08905,-0.14922 -0.153964,-0.280574 -0.250215,-0.424402 -0.257207,-0.384745 -0.593493,-0.893285 -1.1484,-0.893285 -0.482087,0 -0.665672,0.156493 -1.053304,0.35336 L 15.497,33.437949 C 14.674097,33.801116 14.329468,33.309231 13.638769,33.021574 13.333865,32.894821 13.299827,32.87887 12.991346,32.87887 Z m -2.164623,3.17716 c -0.0059,0.01981 -0.01239,0.0453 -0.0134,0.0593 -0.118705,0 -0.583218,0.11686 -0.717237,0.150117 -0.5387004,0.133943 -2.0952816,0.535293 -1.5493689,1.267032 0.2590494,0.347889 1.295304,0.615137 1.7279499,0.72031 0.0908,0.02249 0.254177,0.07003 0.34588,0.07722 0,0.460258 -0.06209,0.541249 0.05936,1.135449 0.03511,0.175295 0.171709,0.656061 0.171709,0.656061 0.811555,2.316724 2.893477,2.840001 3.190756,2.890516 1.047185,0.177944 1.556546,0.09797 2.219023,-0.09019 0.662458,-0.188161 2.223575,-0.923616 2.839824,-2.800321 0.345133,-1.050947 0.231053,-1.79151 0.231053,-1.79151 l 0.657318,-0.150736 c 0.393905,-0.116858 1.539465,-0.413686 1.539465,-0.92788 0,-0.550149 -1.188,-0.864762 -1.657475,-0.981624 -0.143601,-0.0359 -0.601124,-0.153955 -0.730803,-0.154441 a 5.3000683,2.3947478 0 0 1 -4.107516,0.883401 5.3000683,2.3947478 0 0 1 -4.206357,-0.942701 z m 1.648173,2.637847 c 0.523476,-0.0062 1.144924,0.05041 1.402931,0.07907 0.543238,0.06023 0.677602,0.155058 1.214543,0.155058 0.178956,0 1.160649,-0.231043 2.023164,-0.231043 l 0.674625,0.01791 c 0.234711,0.0017 0.306209,0.02416 0.442897,0.116761 0,0.4216 -0.12949,0.271243 -0.244655,0.563399 l -0.228557,0.599848 c -0.05757,0.138437 -0.217648,0.420777 -0.315659,0.493592 -0.03694,0.02696 -0.07808,0.04964 -0.11676,0.0766 -0.373248,0.267881 -1.074869,0.267419 -1.461629,0.0346 -0.0621,-0.03774 -0.06874,-0.04093 -0.125404,-0.08587 -0.214968,-0.175293 -0.268786,-0.340035 -0.371274,-0.649271 -0.04132,-0.124053 -0.06214,-0.180624 -0.116137,-0.288493 -0.05223,-0.105171 -0.10832,-0.167413 -0.257598,-0.167413 -0.160995,0 -0.22941,0.01485 -0.307643,0.155058 -0.119647,0.213943 -0.165645,0.595701 -0.372525,0.842009 -0.237445,0.283167 -0.72887,0.420956 -1.214544,0.339152 -0.49554,-0.0845 -0.666106,-0.235561 -0.906259,-0.712897 -0.0989,-0.195073 -0.148629,-0.380402 -0.222385,-0.586258 -0.132211,-0.368565 -0.187819,-0.147324 -0.229144,-0.387335 -0.03272,-0.18608 -0.03379,-0.139172 -0.0059,-0.265024 0.14366,-0.06911 0.422287,-0.09574 0.736369,-0.09945 z"
       id="path855"
       inkscape:connector-curvature="0" />
  </g>
  <g
     inkscape:groupmode="layer"
     id="layer10"
     inkscape:label="text"
     style="display:inline"
     transform="translate(0,-24)"
     sodipodi:insensitive="true">
    <flowRoot
       xml:space="preserve"
       id="flowRoot914-84-6"
       style="font-style:normal;font-variant:normal;font-weight:normal;font-stretch:normal;font-size:12px;line-height:1.25;font-family:'Arial Unicode MS';-inkscape-font-specification:'Arial Unicode MS';letter-spacing:0px;word-spacing:0px;clip-rule:evenodd;fill:#c500ab;fill-opacity:1;fill-rule:evenodd;stroke:#ffffff;stroke-width:2.96764684;stroke-linecap:round;stroke-linejoin:round;stroke-miterlimit:4;stroke-dasharray:none;stroke-opacity:1;paint-order:markers stroke fill;image-rendering:optimizeQuality;shape-rendering:geometricPrecision;text-rendering:geometricPrecision"
       transform="matrix(0.46354284,0,0,0.55114772,-0.66329474,24.066648)"><flowRegion
         id="flowRegion916-4-9"
         style="fill:#c500ab;fill-opacity:1;stroke:#ffffff;stroke-width:2.96764684;stroke-linecap:round;stroke-linejoin:round;stroke-miterlimit:4;stroke-dasharray:none;stroke-opacity:1;paint-order:markers stroke fill"><rect
           id="rect918-7-2"
           width="38.14209"
           height="34.674625"
           x="3.4674628"
           y="-1.8781176"
           style="fill:#c500ab;fill-opacity:1;stroke:#ffffff;stroke-width:2.96764684;stroke-linecap:round;stroke-linejoin:round;stroke-miterlimit:4;stroke-dasharray:none;stroke-opacity:1;paint-order:markers stroke fill" /></flowRegion><flowPara
         id="flowPara920-5-9"
         style="font-style:normal;font-variant:normal;font-weight:bold;font-stretch:normal;font-size:21.33333397px;font-family:Arial;-inkscape-font-specification:'Arial Bold';stroke:#ffffff;stroke-width:2.96764684;stroke-linecap:round;stroke-linejoin:round;stroke-miterlimit:4;stroke-dasharray:none;stroke-opacity:1;paint-order:markers stroke fill">Rx</flowPara></flowRoot>  </g>
</svg>
