<?xml version="1.0" encoding="UTF-8" standalone="no"?>
<!-- Created with Inkscape (http://www.inkscape.org/) -->

<svg
   xmlns:dc="http://purl.org/dc/elements/1.1/"
   xmlns:cc="http://creativecommons.org/ns#"
   xmlns:rdf="http://www.w3.org/1999/02/22-rdf-syntax-ns#"
   xmlns:svg="http://www.w3.org/2000/svg"
   xmlns="http://www.w3.org/2000/svg"
   xmlns:sodipodi="http://sodipodi.sourceforge.net/DTD/sodipodi-0.dtd"
   xmlns:inkscape="http://www.inkscape.org/namespaces/inkscape"
   width="36"
   height="36"
   viewBox="0 0 36 36"
   version="1.1"
   id="svg870"
   inkscape:version="0.92.3 (2405546, 2018-03-11)"
   sodipodi:docname="TRxPageManager_150.svg"
   inkscape:export-filename="TRxPageManager_150.png"
   inkscape:export-xdpi="96"
   inkscape:export-ydpi="96"
   style="enable-background:new">
  <defs
     id="defs864">
    <marker
       inkscape:stockid="Arrow1Lend"
       orient="auto"
       refY="0.0"
       refX="0.0"
       id="Arrow1Lend"
       style="overflow:visible;"
       inkscape:isstock="true">
      <path
         id="path860"
         d="M 0.0,0.0 L 5.0,-5.0 L -12.5,0.0 L 5.0,5.0 L 0.0,0.0 z "
         style="fill-rule:evenodd;stroke:#000000;stroke-width:1.0pt;"
         transform="scale(0.8) rotate(180) translate(12.5,0)" />
    </marker>
    <marker
       inkscape:stockid="Arrow1Lstart"
       orient="auto"
       refY="0.0"
       refX="0.0"
       id="Arrow1Lstart"
       style="overflow:visible"
       inkscape:isstock="true">
      <path
         id="path857"
         d="M 0.0,0.0 L 5.0,-5.0 L -12.5,0.0 L 5.0,5.0 L 0.0,0.0 z "
         style="fill-rule:evenodd;stroke:#000000;stroke-width:1.0pt"
         transform="scale(0.8) translate(12.5,0)" />
    </marker>
    <filter
       height="1"
       width="1"
       y="0"
       x="0"
       style="color-interpolation-filters:sRGB"
       inkscape:label="Blur"
       id="filter1161">
      <feGaussianBlur
         stdDeviation="84.9 85.42"
         result="blur"
         id="feGaussianBlur1155" />
      <feColorMatrix
         values="1 0 0 0 0 0 1 0 0 0 0 0 1 0 0 0 0 0 50 0 "
         result="colormatrix"
         id="feColorMatrix1157" />
      <feComposite
         in="colormatrix"
         in2="SourceGraphic"
         operator="in"
         id="feComposite1159" />
    </filter>
    <pattern
       y="0"
       x="0"
       height="6"
       width="6"
       patternUnits="userSpaceOnUse"
       id="EMFhbasepattern" />
    <pattern
       y="0"
       x="0"
       height="6"
       width="6"
       patternUnits="userSpaceOnUse"
       id="EMFhbasepattern-3" />
    <filter
       inkscape:collect="always"
       style="color-interpolation-filters:sRGB"
       id="filter953"
       x="-0.1043038"
       width="1.2086076"
       y="-0.14125715"
       height="1.2825143">
      <feGaussianBlur
         inkscape:collect="always"
         stdDeviation="0.8239939"
         id="feGaussianBlur955" />
    </filter>
    <filter
       inkscape:collect="always"
       style="color-interpolation-filters:sRGB"
       id="filter5058"
       x="-0.38334437"
       width="1.7666887"
       y="-0.33933562"
       height="1.6786712">
      <feGaussianBlur
         inkscape:collect="always"
         stdDeviation="2.4036273"
         id="feGaussianBlur5060" />
    </filter>
  </defs>
  <sodipodi:namedview
     id="base"
     pagecolor="#ffffff"
     bordercolor="#666666"
     borderopacity="1.0"
     inkscape:pageopacity="0.0"
     inkscape:pageshadow="2"
     inkscape:zoom="10.604167"
     inkscape:cx="21.087519"
     inkscape:cy="18.342283"
     inkscape:document-units="px"
     inkscape:current-layer="layer8"
     showgrid="true"
     inkscape:window-width="1366"
     inkscape:window-height="706"
     inkscape:window-x="-8"
     inkscape:window-y="-8"
     inkscape:window-maximized="1"
     units="px"
     inkscape:snap-global="true"
     inkscape:snap-object-midpoints="true"
     inkscape:snap-grids="true"
     showguides="true"
     inkscape:guide-bbox="true"
     inkscape:snap-bbox="true"
     inkscape:bbox-nodes="true"
     inkscape:snap-others="false"
     inkscape:snap-nodes="true">
    <inkscape:grid
       type="xygrid"
       id="grid5121" />
  </sodipodi:namedview>
  <metadata
     id="metadata867">
    <rdf:RDF>
      <cc:Work
         rdf:about="">
        <dc:format>image/svg+xml</dc:format>
        <dc:type
           rdf:resource="http://purl.org/dc/dcmitype/StillImage" />
        <dc:title />
      </cc:Work>
    </rdf:RDF>
  </metadata>
  <g
     inkscape:label="base"
     inkscape:groupmode="layer"
     id="layer1"
     transform="translate(0,-296.29999)"
     style="display:inline"
     sodipodi:insensitive="true">
    <path
       style="opacity:1;fill:none;fill-opacity:1;stroke:none;stroke-width:0.33734375;stroke-linecap:butt;stroke-linejoin:round;stroke-miterlimit:4;stroke-dasharray:none;stroke-opacity:1;paint-order:stroke fill markers"
       d="m 0,296.3 h 36 v 36 H 0 Z"
       id="rect5123"
       inkscape:connector-curvature="0" />
  </g>
  <g
     inkscape:groupmode="layer"
     id="layer3"
     inkscape:label="pagectrl"
     style="display:inline"
     transform="translate(0,-12)"
     sodipodi:insensitive="true">
    <path
       style="color:#000000;font-style:normal;font-variant:normal;font-weight:normal;font-stretch:normal;font-size:medium;line-height:normal;font-family:sans-serif;font-variant-ligatures:normal;font-variant-position:normal;font-variant-caps:normal;font-variant-numeric:normal;font-variant-alternates:normal;font-feature-settings:normal;text-indent:0;text-align:start;text-decoration:none;text-decoration-line:none;text-decoration-style:solid;text-decoration-color:#000000;letter-spacing:normal;word-spacing:normal;text-transform:none;writing-mode:lr-tb;direction:ltr;text-orientation:mixed;dominant-baseline:auto;baseline-shift:baseline;text-anchor:start;white-space:normal;shape-padding:0;clip-rule:nonzero;display:inline;overflow:visible;visibility:visible;opacity:1;isolation:auto;mix-blend-mode:normal;color-interpolation:sRGB;color-interpolation-filters:linearRGB;solid-color:#000000;solid-opacity:1;vector-effect:none;fill:#666666;fill-opacity:1;fill-rule:nonzero;stroke:none;stroke-width:1.41395473;stroke-linecap:round;stroke-linejoin:round;stroke-miterlimit:4;stroke-dasharray:none;stroke-dashoffset:0;stroke-opacity:1;paint-order:stroke fill markers;color-rendering:auto;image-rendering:auto;shape-rendering:auto;text-rendering:auto;enable-background:accumulate"
       d="M 15.751678,28 A 0.75175292,0.66500167 0 0 0 15,28.664935 v 2.67013 A 0.75175292,0.66500167 0 0 0 15.751678,32 h 5.496644 A 0.75175292,0.66500167 0 0 0 22,31.335065 v -2.67013 A 0.75175292,0.66500167 0 0 0 21.248322,28 Z"
       id="path903"
       inkscape:connector-curvature="0" />
    <path
       style="color:#000000;font-style:normal;font-variant:normal;font-weight:normal;font-stretch:normal;font-size:medium;line-height:normal;font-family:sans-serif;font-variant-ligatures:normal;font-variant-position:normal;font-variant-caps:normal;font-variant-numeric:normal;font-variant-alternates:normal;font-feature-settings:normal;text-indent:0;text-align:start;text-decoration:none;text-decoration-line:none;text-decoration-style:solid;text-decoration-color:#000000;letter-spacing:normal;word-spacing:normal;text-transform:none;writing-mode:lr-tb;direction:ltr;text-orientation:mixed;dominant-baseline:auto;baseline-shift:baseline;text-anchor:start;white-space:normal;shape-padding:0;clip-rule:nonzero;display:inline;overflow:visible;visibility:visible;opacity:1;isolation:auto;mix-blend-mode:normal;color-interpolation:sRGB;color-interpolation-filters:linearRGB;solid-color:#000000;solid-opacity:1;vector-effect:none;fill:#cccccc;fill-opacity:1;fill-rule:nonzero;stroke:none;stroke-width:1.93275011;stroke-linecap:round;stroke-linejoin:round;stroke-miterlimit:4;stroke-dasharray:none;stroke-dashoffset:0;stroke-opacity:1;paint-order:stroke fill markers;color-rendering:auto;image-rendering:auto;shape-rendering:auto;text-rendering:auto;enable-background:accumulate"
       d="m 16,29 h 5 v 2 h -5 z"
       id="rect843"
       inkscape:connector-curvature="0" />
    <path
       style="color:#000000;font-style:normal;font-variant:normal;font-weight:normal;font-stretch:normal;font-size:medium;line-height:normal;font-family:sans-serif;font-variant-ligatures:normal;font-variant-position:normal;font-variant-caps:normal;font-variant-numeric:normal;font-variant-alternates:normal;font-feature-settings:normal;text-indent:0;text-align:start;text-decoration:none;text-decoration-line:none;text-decoration-style:solid;text-decoration-color:#000000;letter-spacing:normal;word-spacing:normal;text-transform:none;writing-mode:lr-tb;direction:ltr;text-orientation:mixed;dominant-baseline:auto;baseline-shift:baseline;text-anchor:start;white-space:normal;shape-padding:0;clip-rule:nonzero;display:inline;overflow:visible;visibility:visible;opacity:1;isolation:auto;mix-blend-mode:normal;color-interpolation:sRGB;color-interpolation-filters:linearRGB;solid-color:#000000;solid-opacity:1;vector-effect:none;fill:#666666;fill-opacity:1;fill-rule:nonzero;stroke:none;stroke-width:1.41406333;stroke-linecap:round;stroke-linejoin:round;stroke-miterlimit:4;stroke-dasharray:none;stroke-dashoffset:0;stroke-opacity:1;paint-order:stroke fill markers;color-rendering:auto;image-rendering:auto;shape-rendering:auto;text-rendering:auto;enable-background:accumulate"
       d="M 9.7514678,28 A 0.75154291,0.66528965 0 0 0 9,28.665223 v 2.669554 A 0.75154291,0.66528965 0 0 0 9.7514678,32 H 15.248532 A 0.75154291,0.66528965 0 0 0 16,31.334777 V 28.665223 A 0.75154291,0.66528965 0 0 0 15.248532,28 Z"
       id="path896"
       inkscape:connector-curvature="0" />
    <path
       style="color:#000000;font-style:normal;font-variant:normal;font-weight:normal;font-stretch:normal;font-size:medium;line-height:normal;font-family:sans-serif;font-variant-ligatures:normal;font-variant-position:normal;font-variant-caps:normal;font-variant-numeric:normal;font-variant-alternates:normal;font-feature-settings:normal;text-indent:0;text-align:start;text-decoration:none;text-decoration-line:none;text-decoration-style:solid;text-decoration-color:#000000;letter-spacing:normal;word-spacing:normal;text-transform:none;writing-mode:lr-tb;direction:ltr;text-orientation:mixed;dominant-baseline:auto;baseline-shift:baseline;text-anchor:start;white-space:normal;shape-padding:0;clip-rule:nonzero;display:inline;overflow:visible;visibility:visible;opacity:1;isolation:auto;mix-blend-mode:normal;color-interpolation:sRGB;color-interpolation-filters:linearRGB;solid-color:#000000;solid-opacity:1;vector-effect:none;fill:#cccccc;fill-opacity:1;fill-rule:nonzero;stroke:none;stroke-width:1.93352628;stroke-linecap:round;stroke-linejoin:round;stroke-miterlimit:4;stroke-dasharray:none;stroke-dashoffset:0;stroke-opacity:1;paint-order:stroke fill markers;color-rendering:auto;image-rendering:auto;shape-rendering:auto;text-rendering:auto;enable-background:accumulate"
       d="m 10,29 h 5 v 2 h -5 z"
       id="rect840"
       inkscape:connector-curvature="0" />
    <path
       style="color:#000000;font-style:normal;font-variant:normal;font-weight:normal;font-stretch:normal;font-size:medium;line-height:normal;font-family:sans-serif;font-variant-ligatures:normal;font-variant-position:normal;font-variant-caps:normal;font-variant-numeric:normal;font-variant-alternates:normal;font-feature-settings:normal;text-indent:0;text-align:start;text-decoration:none;text-decoration-line:none;text-decoration-style:solid;text-decoration-color:#000000;letter-spacing:normal;word-spacing:normal;text-transform:none;writing-mode:lr-tb;direction:ltr;text-orientation:mixed;dominant-baseline:auto;baseline-shift:baseline;text-anchor:start;white-space:normal;shape-padding:0;clip-rule:nonzero;display:inline;overflow:visible;visibility:visible;opacity:1;isolation:auto;mix-blend-mode:normal;color-interpolation:sRGB;color-interpolation-filters:linearRGB;solid-color:#000000;solid-opacity:1;vector-effect:none;fill:#666666;fill-opacity:1;fill-rule:nonzero;stroke:none;stroke-width:1.51861632;stroke-linecap:round;stroke-linejoin:round;stroke-miterlimit:4;stroke-dasharray:none;stroke-dashoffset:0;stroke-opacity:1;paint-order:stroke fill markers;color-rendering:auto;image-rendering:auto;shape-rendering:auto;text-rendering:auto;enable-background:accumulate"
       d="M 2.7567993,27 A 0.75687505,0.76190138 0 0 0 2,27.761825 V 45.238174 A 0.75687505,0.76190138 0 0 0 2.7567993,46 H 26.243201 A 0.75687505,0.76190138 0 0 0 27,45.238174 V 31.8487 A 0.75687505,0.76190138 0 0 0 26.243201,31.086875 H 9.9956644 v -3.32505 A 0.75687505,0.76190138 0 0 0 9.2388649,27 Z"
       id="path883"
       inkscape:connector-curvature="0" />
    <path
       style="fill:#f2f2f2;fill-opacity:1;stroke-width:1.48825133"
       d="M 3,32 H 26 V 45 H 3 Z"
       id="rect885"
       inkscape:connector-curvature="0" />
    <path
       style="fill:#f2f2f2;fill-opacity:1;stroke-width:1.50752795"
       d="m 3,28 h 6 v 4 H 3 Z"
       id="rect888"
       inkscape:connector-curvature="0" />
  </g>
  <g
     inkscape:groupmode="layer"
     id="layer8"
     inkscape:label="matte">
    <rect
       style="opacity:1;fill:#ffffff;fill-opacity:1;stroke-width:1.24516571;filter:url(#filter5058)"
       id="rect1031"
       width="15.048364"
       height="17"
       x="13.951636"
       y="15" />
  </g>
  <g
     inkscape:groupmode="layer"
     id="layer7"
     inkscape:label="wheel"
     transform="translate(0,-12)"
     style="display:inline">
    <path
       style="color:#000000;font-style:normal;font-variant:normal;font-weight:normal;font-stretch:normal;font-size:medium;line-height:normal;font-family:sans-serif;font-variant-ligatures:normal;font-variant-position:normal;font-variant-caps:normal;font-variant-numeric:normal;font-variant-alternates:normal;font-feature-settings:normal;text-indent:0;text-align:start;text-decoration:none;text-decoration-line:none;text-decoration-style:solid;text-decoration-color:#000000;letter-spacing:normal;word-spacing:normal;text-transform:none;writing-mode:lr-tb;direction:ltr;text-orientation:mixed;dominant-baseline:auto;baseline-shift:baseline;text-anchor:start;white-space:normal;shape-padding:0;clip-rule:nonzero;display:inline;overflow:visible;visibility:visible;opacity:1;isolation:auto;mix-blend-mode:normal;color-interpolation:sRGB;color-interpolation-filters:linearRGB;solid-color:#000000;solid-opacity:1;vector-effect:none;fill:#0038ff;fill-opacity:1;fill-rule:evenodd;stroke:none;stroke-width:1.02246022;stroke-linecap:butt;stroke-linejoin:round;stroke-miterlimit:4;stroke-dasharray:none;stroke-dashoffset:0;stroke-opacity:1;color-rendering:auto;image-rendering:auto;shape-rendering:auto;text-rendering:auto;enable-background:accumulate"
       d="m 23.814645,21.000004 a 0.51126067,0.51130182 0 0 0 -0.508425,0.446069 l -0.358429,2.870599 -1.223337,0.505674 -2.283042,-1.776582 a 0.51126067,0.51130182 0 0 0 -0.674007,0.04231 l -1.677218,1.678522 a 0.51126067,0.51130182 0 0 0 -0.04285,0.67487 l 1.776565,2.282253 -0.508426,1.22284 -2.86744,0.359546 A 0.51126067,0.51130182 0 0 0 15,29.811764 v 2.374543 a 0.51126067,0.51130182 0 0 0 0.448036,0.507595 l 2.86744,0.359546 0.508426,1.22284 -1.776565,2.282253 a 0.51126067,0.51130182 0 0 0 0.04285,0.672947 l 1.677215,1.678524 a 0.51126067,0.51130182 0 0 0 0.674008,0.0423 l 2.283042,-1.776581 1.223337,0.507595 0.358429,2.868677 a 0.51126067,0.51130182 0 0 0 0.508424,0.447991 h 2.370704 a 0.51126067,0.51130182 0 0 0 0.508424,-0.447991 l 0.35843,-2.868677 1.223336,-0.507595 2.281097,1.776581 a 0.51126067,0.51130182 0 0 0 0.675953,-0.0423 l 1.677218,-1.678524 a 0.51126067,0.51130182 0 0 0 0.04285,-0.672947 l -1.776565,-2.282253 0.508424,-1.22284 2.867441,-0.359546 A 0.51126067,0.51130182 0 0 0 35,32.186307 v -2.37454 a 0.51126067,0.51130182 0 0 0 -0.448034,-0.505672 l -2.867446,-0.359546 -0.508423,-1.222841 1.776565,-2.282253 a 0.51126067,0.51130182 0 0 0 -0.04285,-0.67487 l -1.677217,-1.678521 a 0.51126067,0.51130182 0 0 0 -0.675953,-0.0423 l -2.281099,1.77658 -1.223335,-0.505673 -0.35843,-2.870598 a 0.51126067,0.51130182 0 0 0 -0.508427,-0.446074 z m 1.21165,3.937705 c 3.295289,0 5.984222,2.653772 5.984222,5.906554 0,3.252784 -2.688933,5.906554 -5.984222,5.906554 -3.295293,0 -5.984223,-2.653767 -5.984223,-5.906554 -1e-6,-3.252785 2.68893,-5.906555 5.984223,-5.906554 z"
       id="path879"
       inkscape:connector-curvature="0" />
  </g>
  <g
     inkscape:groupmode="layer"
     id="layer5"
     inkscape:label="screwdriver">
    <path
       style="display:inline;opacity:1;fill:#000080;fill-opacity:1;stroke-width:1.00537217;enable-background:new"
       d="m 28.011006,24.011788 h 0.977988 C 29.549092,24.011788 30,24.457686 30,25.011559 v 5.000458 c 0,0.553873 -0.450908,0.999771 -1.011006,0.999771 H 28.011006 C 27.450908,31.011788 27,30.56589 27,30.012017 v -5.000458 c 0,-0.553873 0.450908,-0.999771 1.011006,-0.999771 z"
       id="rect967"
       inkscape:connector-curvature="0" />
    <rect
       style="display:inline;opacity:1;fill:#000080;fill-opacity:1;stroke-width:0.96005619;enable-background:new"
       id="rect970"
       width="1"
       height="6"
       x="28"
       y="18.011787" />
    <path
       style="display:inline;opacity:1;fill:#000080;fill-opacity:1;stroke-width:0.9780941;enable-background:new"
       d="m 28,16 h 1 L 30,19.011788 29,20 h -1 l -1,-0.988212 z"
       id="rect973"
       inkscape:connector-curvature="0"
       sodipodi:nodetypes="ccccccc" />
  </g>
  <g
     inkscape:groupmode="layer"
     id="layer6"
     inkscape:label=" wrench">
    <path
       style="opacity:1;fill:#000080;fill-opacity:1;stroke-width:1.0148083"
       d="M 22,16 A 3,3.0895072 0 0 0 20,18.910493 3,3.0895072 0 0 0 23,22 3,3.0895072 0 0 0 26,18.910493 3,3.0895072 0 0 0 24,16.002011 v 3.4234 c 0,0.285264 -0.223,0.514917 -0.5,0.514917 h -1 c -0.277,0 -0.5,-0.229653 -0.5,-0.514917 z"
       id="path981"
       inkscape:connector-curvature="0" />
    <path
       style="opacity:1;fill:#000080;fill-opacity:1"
       d="m 22,21 v 4.5 1.5 3.5 c 0,0.277 0.223,0.5 0.5,0.5 h 1 C 23.777,31 24,30.777 24,30.5 V 27 25.5 21 Z"
       id="rect984"
       inkscape:connector-curvature="0" />
  </g>
  <g
     inkscape:groupmode="layer"
     id="layer2"
     inkscape:label="text"
     style="display:none"
     transform="translate(0,-12)"
     sodipodi:insensitive="true">
    <flowRoot
       xml:space="preserve"
       id="flowRoot914-8"
       style="font-style:normal;font-variant:normal;font-weight:normal;font-stretch:normal;font-size:12px;line-height:1.25;font-family:'Arial Unicode MS';-inkscape-font-specification:'Arial Unicode MS';letter-spacing:0px;word-spacing:0px;clip-rule:evenodd;fill:#c500ab;fill-opacity:1;fill-rule:evenodd;stroke:#ffffff;stroke-width:2.96764684;stroke-linecap:round;stroke-linejoin:round;stroke-miterlimit:4;stroke-dasharray:none;stroke-opacity:1;paint-order:markers stroke fill;image-rendering:optimizeQuality;shape-rendering:geometricPrecision;text-rendering:geometricPrecision"
       transform="matrix(0.69531428,0,0,0.82672154,-1.4999422,11.646973)"><flowRegion
         id="flowRegion916-5"
         style="fill:#c500ab;fill-opacity:1;stroke:#ffffff;stroke-width:2.96764684;stroke-linecap:round;stroke-linejoin:round;stroke-miterlimit:4;stroke-dasharray:none;stroke-opacity:1;paint-order:markers stroke fill"><rect
           id="rect918-0"
           width="38.14209"
           height="34.674625"
           x="3.4674628"
           y="-1.8781176"
           style="fill:#c500ab;fill-opacity:1;stroke:#ffffff;stroke-width:2.96764684;stroke-linecap:round;stroke-linejoin:round;stroke-miterlimit:4;stroke-dasharray:none;stroke-opacity:1;paint-order:markers stroke fill" /></flowRegion><flowPara
         id="flowPara920-2"
         style="font-style:normal;font-variant:normal;font-weight:bold;font-stretch:normal;font-size:21.33333397px;font-family:Arial;-inkscape-font-specification:'Arial Bold';stroke:#ffffff;stroke-width:2.96764684;stroke-linecap:round;stroke-linejoin:round;stroke-miterlimit:4;stroke-dasharray:none;stroke-opacity:1;paint-order:markers stroke fill">Rx</flowPara></flowRoot>  </g>
  <g
     inkscape:groupmode="layer"
     id="layer4"
     inkscape:label="text_new"
     sodipodi:insensitive="true">
    <path
       id="path909"
       d="M 3.0399923,2.0400071 H 17.999882 c 1.119991,0 1.999985,0.7999941 1.999985,1.8399864 V 14.119918 c 0,1.039992 -0.879994,1.919985 -1.999985,1.919985 H 3.0399923 c -1.1199917,0 -1.9999852,-0.879993 -1.9999852,-1.919985 V 3.8799935 c 0,-1.0399923 0.8799935,-1.8399864 1.9999852,-1.8399864 z"
       style="opacity:0.7;fill:#ffffff;fill-opacity:1;fill-rule:evenodd;stroke:none;filter:url(#filter953)"
       inkscape:connector-curvature="0" />
    <path
       id="path911"
       d="M 2.8799935,3 C 2.399997,3 2,3.3199976 2,3.7199946 v 4.5599663 c 0,0.399997 0.399997,0.7199946 0.8799935,0.7199946 h 3.9199709 c 1.759987,0 3.1999765,-1.1999911 3.1999765,-2.6399804 V 5.7199798 C 9.9999409,4.1999911 8.5599514,3 6.7999644,3 Z M 3.9999852,4.9999852 H 6.719965 c 0.7199947,0 1.2799905,0.399997 1.2799905,0.799994 v 0.3999971 c 0,0.4799964 -0.5599958,0.799994 -1.2799905,0.799994 H 3.9999852 Z"
       style="fill:#c500ab;fill-opacity:1;fill-rule:evenodd;stroke:none"
       inkscape:connector-curvature="0" />
    <path
       id="path913"
       d="M 2,3 V 14.999911 H 3.9999852 V 3 Z"
       style="fill:#c500ab;fill-opacity:1;fill-rule:nonzero;stroke:none"
       inkscape:connector-curvature="0" />
    <path
       id="path915"
       d="M 4.959978,8.0399626 C 6.8799638,11.559937 6.7999644,11.479937 8.7199502,14.999911 H 11.039933 L 7.1999615,8.0399626 v 0 z"
       style="fill:#c500ab;fill-opacity:1;fill-rule:nonzero;stroke:none"
       inkscape:connector-curvature="0" />
    <path
       id="path917"
       d="M 17.119888,6.9999703 11.51993,14.999911 h 2.399982 L 19.51987,6.9999703 Z"
       style="fill:#c500ab;fill-opacity:1;fill-rule:nonzero;stroke:none"
       inkscape:connector-curvature="0" />
    <path
       id="path919"
       d="M 13.919912,6.9999703 19.51987,14.999911 H 17.119888 L 11.51993,6.9999703 Z"
       style="fill:#c500ab;fill-opacity:1;fill-rule:nonzero;stroke:none"
       inkscape:connector-curvature="0" />
  </g>
</svg>
