<?xml version="1.0" encoding="UTF-8" standalone="no"?>
<!-- Created with Inkscape (http://www.inkscape.org/) -->

<svg
   xmlns:dc="http://purl.org/dc/elements/1.1/"
   xmlns:cc="http://creativecommons.org/ns#"
   xmlns:rdf="http://www.w3.org/1999/02/22-rdf-syntax-ns#"
   xmlns:svg="http://www.w3.org/2000/svg"
   xmlns="http://www.w3.org/2000/svg"
   xmlns:sodipodi="http://sodipodi.sourceforge.net/DTD/sodipodi-0.dtd"
   xmlns:inkscape="http://www.inkscape.org/namespaces/inkscape"
   width="48"
   height="48"
   viewBox="0 0 48 48"
   version="1.1"
   id="svg2782"
   inkscape:version="0.92.3 (2405546, 2018-03-11)"
   sodipodi:docname="tclock_rx_200.svg"
   inkscape:export-filename="D:\temp\rx\work\tclock_rx_200_3.png"
   inkscape:export-xdpi="96"
   inkscape:export-ydpi="96">
  <defs
     id="defs2776" />
  <sodipodi:namedview
     id="base"
     pagecolor="#ffffff"
     bordercolor="#666666"
     borderopacity="1.0"
     inkscape:pageopacity="0.0"
     inkscape:pageshadow="2"
     inkscape:zoom="11.313709"
     inkscape:cx="17.229833"
     inkscape:cy="31.290998"
     inkscape:document-units="px"
     inkscape:current-layer="layer1"
     showgrid="true"
     inkscape:window-width="1920"
     inkscape:window-height="1018"
     inkscape:window-x="-8"
     inkscape:window-y="-8"
     inkscape:window-maximized="1"
     units="px"
     inkscape:snap-global="true"
     inkscape:snap-grids="false"
     inkscape:measure-start="3.07422,8.99609"
     inkscape:measure-end="3.86719,9">
    <inkscape:grid
       type="xygrid"
       id="grid3330" />
  </sodipodi:namedview>
  <metadata
     id="metadata2779">
    <rdf:RDF>
      <cc:Work
         rdf:about="">
        <dc:format>image/svg+xml</dc:format>
        <dc:type
           rdf:resource="http://purl.org/dc/dcmitype/StillImage" />
        <dc:title />
      </cc:Work>
    </rdf:RDF>
  </metadata>
  <g
     inkscape:label="base"
     inkscape:groupmode="layer"
     id="layer1"
     transform="translate(0,-284.29999)"
     style="display:inline">
    <path
       style="opacity:1;fill:none;fill-opacity:1;fill-rule:evenodd;stroke:none;stroke-width:0.80125976;stroke-linecap:round;stroke-linejoin:round;stroke-miterlimit:4;stroke-dasharray:none;stroke-dashoffset:0;stroke-opacity:1;paint-order:normal"
       d="m 0,284.3 h 48 v 48 H 0 Z"
       id="rect3332"
       inkscape:connector-curvature="0" />
  </g>
  <g
     inkscape:groupmode="layer"
     id="layer5"
     inkscape:label="panel"
     style="display:inline">
    <path
       style="color:#000000;font-style:normal;font-variant:normal;font-weight:normal;font-stretch:normal;font-size:medium;line-height:normal;font-family:sans-serif;font-variant-ligatures:normal;font-variant-position:normal;font-variant-caps:normal;font-variant-numeric:normal;font-variant-alternates:normal;font-feature-settings:normal;text-indent:0;text-align:start;text-decoration:none;text-decoration-line:none;text-decoration-style:solid;text-decoration-color:#000000;letter-spacing:normal;word-spacing:normal;text-transform:none;writing-mode:lr-tb;direction:ltr;text-orientation:mixed;dominant-baseline:auto;baseline-shift:baseline;text-anchor:start;white-space:normal;shape-padding:0;clip-rule:nonzero;display:inline;overflow:visible;visibility:visible;opacity:1;isolation:auto;mix-blend-mode:normal;color-interpolation:sRGB;color-interpolation-filters:linearRGB;solid-color:#000000;solid-opacity:1;vector-effect:none;fill:#666666;fill-opacity:1;fill-rule:evenodd;stroke:none;stroke-width:0.80000001;stroke-linecap:butt;stroke-linejoin:miter;stroke-miterlimit:4;stroke-dasharray:none;stroke-dashoffset:0;stroke-opacity:1;paint-order:normal;color-rendering:auto;image-rendering:auto;shape-rendering:auto;text-rendering:auto;enable-background:accumulate"
       d="m 3.0742188,25.083984 v 0.457877 16.467905 H 44.900391 V 25.083984 Z"
       id="path835"
       inkscape:connector-curvature="0" />
    <path
       style="color:#000000;font-style:normal;font-variant:normal;font-weight:normal;font-stretch:normal;font-size:medium;line-height:normal;font-family:sans-serif;font-variant-ligatures:normal;font-variant-position:normal;font-variant-caps:normal;font-variant-numeric:normal;font-variant-alternates:normal;font-feature-settings:normal;text-indent:0;text-align:start;text-decoration:none;text-decoration-line:none;text-decoration-style:solid;text-decoration-color:#000000;letter-spacing:normal;word-spacing:normal;text-transform:none;writing-mode:lr-tb;direction:ltr;text-orientation:mixed;dominant-baseline:auto;baseline-shift:baseline;text-anchor:start;white-space:normal;shape-padding:0;clip-rule:nonzero;display:inline;overflow:visible;visibility:visible;opacity:1;isolation:auto;mix-blend-mode:normal;color-interpolation:sRGB;color-interpolation-filters:linearRGB;solid-color:#000000;solid-opacity:1;vector-effect:none;fill:#e6e6e6;fill-opacity:1;fill-rule:evenodd;stroke:none;stroke-width:0.80000013;stroke-linecap:butt;stroke-linejoin:miter;stroke-miterlimit:4;stroke-dasharray:none;stroke-dashoffset:0;stroke-opacity:1;paint-order:normal;color-rendering:auto;image-rendering:auto;shape-rendering:auto;text-rendering:auto;enable-background:accumulate"
       d="M 3.875,25.96 H 44.099609 V 41.183999 H 3.875 Z"
       id="rect828"
       inkscape:connector-curvature="0" />
  </g>
  <g
     inkscape:groupmode="layer"
     id="layer2"
     inkscape:label="shadow_light"
     style="display:none"
     sodipodi:insensitive="true">
    <path
       style="opacity:1;fill:#ffffff;fill-opacity:1;fill-rule:evenodd;stroke:none;stroke-width:0.79999995;stroke-linecap:butt;stroke-linejoin:miter;stroke-miterlimit:4;stroke-dasharray:none;stroke-dashoffset:0;stroke-opacity:1;paint-order:normal"
       d="m 2.2691874,25.084418 h 0.8 v 17.516434 h -0.8 z"
       id="rect908"
       inkscape:connector-curvature="0" />
    <path
       style="opacity:1;fill:#ffffff;fill-opacity:1;fill-rule:evenodd;stroke:none;stroke-width:0.80000001;stroke-linecap:butt;stroke-linejoin:miter;stroke-miterlimit:4;stroke-dasharray:none;stroke-dashoffset:0;stroke-opacity:1;paint-order:normal"
       d="M 2.2695313,24.286265 H 44.894467 v 0.8 H 2.2695313 Z"
       id="rect911"
       inkscape:connector-curvature="0" />
    <path
       style="opacity:1;fill:#ffffff;fill-opacity:1;fill-rule:evenodd;stroke:none;stroke-width:0.79999995;stroke-linecap:butt;stroke-linejoin:miter;stroke-miterlimit:4;stroke-dasharray:none;stroke-dashoffset:0;stroke-opacity:1;paint-order:normal"
       d="m 43.296864,25.957031 h 0.8 v 15.226612 h -0.8 z"
       id="rect914"
       inkscape:connector-curvature="0" />
    <path
       style="opacity:1;fill:#ffffff;fill-opacity:1;fill-rule:evenodd;stroke:none;stroke-width:0.80000007;stroke-linecap:butt;stroke-linejoin:miter;stroke-miterlimit:4;stroke-dasharray:none;stroke-dashoffset:0;stroke-opacity:1;paint-order:normal"
       d="M 4.6562504,40.387219 H 43.306626 v 0.8 H 4.6562504 Z"
       id="rect917"
       inkscape:connector-curvature="0" />
  </g>
  <g
     inkscape:groupmode="layer"
     id="layer3"
     inkscape:label="shadow_dark"
     style="display:none"
     sodipodi:insensitive="true">
    <path
       style="opacity:1;fill:#4d4d4d;fill-opacity:1;fill-rule:evenodd;stroke:none;stroke-width:0.80000001;stroke-linecap:butt;stroke-linejoin:miter;stroke-miterlimit:4;stroke-dasharray:none;stroke-dashoffset:0;stroke-opacity:1;paint-order:normal"
       d="M 3.0742187,41.822266 H 44.90039 v 0.8 H 3.0742187 Z"
       id="rect921"
       inkscape:connector-curvature="0" />
    <path
       style="opacity:1;fill:#4d4d4d;fill-opacity:1;fill-rule:evenodd;stroke:none;stroke-width:0.80000001;stroke-linecap:butt;stroke-linejoin:miter;stroke-miterlimit:4;stroke-dasharray:none;stroke-dashoffset:0;stroke-opacity:1;paint-order:normal"
       d="m 44.90039,24.282161 h 0.8 v 18.340106 h -0.8 z"
       id="rect924"
       inkscape:connector-curvature="0" />
    <path
       style="opacity:1;fill:#4d4d4d;fill-opacity:1;fill-rule:evenodd;stroke:none;stroke-width:0.79999995;stroke-linecap:butt;stroke-linejoin:miter;stroke-miterlimit:4;stroke-dasharray:none;stroke-dashoffset:0;stroke-opacity:1;paint-order:normal"
       d="m 3.875,25.960001 h 0.8 v 15.223998 h -0.8 z"
       id="rect927"
       inkscape:connector-curvature="0" />
    <path
       style="opacity:1;fill:#4d4d4d;fill-opacity:1;fill-rule:evenodd;stroke:none;stroke-width:0.79999995;stroke-linecap:butt;stroke-linejoin:miter;stroke-miterlimit:4;stroke-dasharray:none;stroke-dashoffset:0;stroke-opacity:1;paint-order:normal"
       d="M 4.6710936,25.958083 H 43.319438 v 0.8 H 4.6710936 Z"
       id="rect930"
       inkscape:connector-curvature="0" />
  </g>
  <g
     inkscape:label="panel_caption"
     id="g881"
     inkscape:groupmode="layer"
     style="display:inline">
    <path
       inkscape:connector-curvature="0"
       id="path840"
       style="font-style:normal;font-variant:normal;font-weight:bold;font-stretch:normal;font-size:medium;line-height:1.25;font-family:'DJB Get Digital';-inkscape-font-specification:'DJB Get Digital Bold';letter-spacing:0px;word-spacing:0px;display:inline;fill:#0000ff;fill-opacity:1;stroke:none;stroke-width:1.00000036"
       d="m 8.1474157,34.369989 0.028032,2.797137 -0.5662719,0.593675 -0.5550594,-0.587971 -0.028032,-2.797135 0.560666,-0.587971 z m -0.028032,-4.315583 v 2.88847 L 7.5531105,33.536554 6.9980527,32.948588 v -2.888474 l 0.5606656,-0.587969 z" />
    <path
       inkscape:connector-curvature="0"
       id="path842"
       style="font-style:normal;font-variant:normal;font-weight:bold;font-stretch:normal;font-size:medium;line-height:1.25;font-family:'DJB Get Digital';-inkscape-font-specification:'DJB Get Digital Bold';letter-spacing:0px;word-spacing:0px;display:inline;fill:#0000ff;fill-opacity:1;stroke:none;stroke-width:1.00000036"
       d="m 10.434932,36.767534 h 2.231447 l 0.583093,0.576556 -0.577484,0.565134 H 10.440539 L 9.8630544,37.338379 Z m -0.08969,-2.397545 v 2.271956 L 9.7789671,37.235626 9.2239079,36.64766 v -2.271966 l 0.5606672,-0.587971 z m 3.520982,-3.70478 v 2.271959 l -0.566272,0.593678 -0.555061,-0.58797 v -2.271958 l 0.560665,-0.587969 z m -3.453699,2.403253 h 2.231448 l 0.583092,0.576553 -0.577485,0.565136 H 10.418119 L 9.8406304,33.639307 Z m 0.01682,-3.659107 h 2.231448 l 0.583091,0.576549 -0.577486,0.565141 h -2.231455 l -0.5774866,-0.57085 z" />
    <path
       inkscape:connector-curvature="0"
       id="path846"
       style="font-style:normal;font-variant:normal;font-weight:bold;font-stretch:normal;font-size:medium;line-height:1.25;font-family:'DJB Get Digital';-inkscape-font-specification:'DJB Get Digital Bold';letter-spacing:0px;word-spacing:0px;display:inline;fill:#0000ff;fill-opacity:1;stroke:none;stroke-width:1.00000036"
       d="m 18.361292,36.767534 h 2.231451 l 0.583091,0.576556 -0.577485,0.565134 H 18.3669 l -0.577486,-0.570845 z m -0.08968,-2.397545 v 2.271956 l -0.566278,0.593681 -0.555059,-0.587966 v -2.271965 l 0.560664,-0.587971 z m 3.520979,-3.70478 v 2.271959 l -0.566274,0.593678 -0.555058,-0.58797 v -2.271958 l 0.560668,-0.587969 z m -3.549013,0.0055 v 2.271958 L 17.677306,33.536448 17.12225,32.948482 V 30.67656 l 0.560665,-0.587968 z m 0.112148,-1.26151 h 2.231447 l 0.583096,0.576549 -0.577487,0.565138 h -2.231458 l -0.577487,-0.570789 z m 3.442488,4.960637 v 2.271961 l -0.566272,0.593674 -0.555059,-0.587966 v -2.271979 l 0.560661,-0.587971 z" />
    <path
       inkscape:connector-curvature="0"
       id="path848"
       style="font-style:normal;font-variant:normal;font-weight:bold;font-stretch:normal;font-size:medium;line-height:1.25;font-family:'DJB Get Digital';-inkscape-font-specification:'DJB Get Digital Bold';letter-spacing:0px;word-spacing:0px;display:inline;fill:#0000ff;fill-opacity:1;stroke:none;stroke-width:1.00000036"
       d="m 23.88088,36.767534 h 2.231448 l 0.583093,0.576556 -0.577483,0.565134 h -2.23145 L 23.309001,37.338379 Z M 23.7912,34.369989 v 2.271956 l -0.566275,0.593681 -0.555061,-0.587966 v -2.271965 l 0.560668,-0.587971 z m -0.02803,-3.699071 v 2.271958 l -0.566274,0.593678 -0.555061,-0.587966 v -2.271963 l 0.560667,-0.587968 z m 0.09533,2.397544 h 2.231448 l 0.583092,0.576553 -0.577484,0.565136 h -2.231437 l -0.577485,-0.570844 z m 0.01683,-3.659107 h 2.23145 l 0.583094,0.576549 -0.577487,0.565141 h -2.231453 l -0.577487,-0.570851 z m 3.442487,4.960634 v 2.271956 l -0.566272,0.593681 -0.555059,-0.587966 v -2.271965 l 0.560668,-0.587971 z" />
    <path
       inkscape:connector-curvature="0"
       id="path852"
       style="font-style:normal;font-variant:normal;font-weight:bold;font-stretch:normal;font-size:medium;line-height:1.25;font-family:'DJB Get Digital';-inkscape-font-specification:'DJB Get Digital Bold';letter-spacing:0px;word-spacing:0px;display:inline;fill:#0000ff;fill-opacity:1;stroke:none;stroke-width:1.00000036"
       d="m 35.925962,30.042988 -0.01115,2.89418 -0.566271,0.593678 -0.555059,-0.58797 0.01115,-2.894178 0.560665,-0.58797 z m -3.549013,0.0055 -0.01115,2.894182 -0.566273,0.593675 -0.555059,-0.587968 0.01115,-2.894179 0.560668,-0.58797 z m 0.08413,3.019768 h 2.231446 l 0.583089,0.576554 -0.577485,0.565135 h -2.231448 l -0.577488,-0.570844 z m 3.459309,1.301524 v 2.922722 l -0.566276,0.593733 -0.555061,-0.587974 v -2.922689 l 0.560671,-0.587971 z" />
    <path
       inkscape:connector-curvature="0"
       id="path854"
       style="font-style:normal;font-variant:normal;font-weight:bold;font-stretch:normal;font-size:medium;line-height:1.25;font-family:'DJB Get Digital';-inkscape-font-specification:'DJB Get Digital Bold';letter-spacing:0px;word-spacing:0px;display:inline;fill:#0000ff;fill-opacity:1;stroke:none;stroke-width:1.00000036"
       d="m 37.789673,36.767534 h 2.231448 l 0.583094,0.576556 -0.577484,0.565134 h -2.23145 l -0.577485,-0.570845 z m -0.08968,-2.397545 v 2.271956 l -0.566275,0.593681 -0.555057,-0.587966 v -2.271965 l 0.560665,-0.587971 z m 3.520981,-3.70478 v 2.271959 l -0.566276,0.593678 -0.555061,-0.58797 v -2.271958 l 0.560664,-0.587969 z m -3.549015,0.0055 v 2.271958 l -0.56628,0.593702 -0.555056,-0.587967 v -2.27194 l 0.560665,-0.587972 z m 0.09533,2.397546 h 2.231446 l 0.583092,0.576551 -0.577486,0.565136 h -2.231456 l -0.577479,-0.570734 z m 0.01683,-3.658964 h 2.231447 l 0.583085,0.576572 -0.577488,0.565136 h -2.231452 l -0.577483,-0.570812 z m 3.442485,4.960637 v 2.271966 l -0.566267,0.593398 -0.555056,-0.587963 v -2.271932 l 0.56066,-0.587967 z" />
    <path
       d="m 15.46694,31.972995 q 0.252299,0 0.426105,0.188375 0.173808,0.188386 0.173808,0.456679 0,0.268296 -0.173808,0.456678 -0.173806,0.188377 -0.426105,0.188377 -0.246693,0 -0.426105,-0.188377 -0.173808,-0.188382 -0.173808,-0.456678 0,-0.268292 0.173808,-0.456679 0.179412,-0.188375 0.426105,-0.188375 z m 0.11214,2.814262 q 0.252301,0 0.426106,0.18838 0.173805,0.188379 0.173805,0.456673 0,0.268297 -0.173805,0.456678 -0.173805,0.188375 -0.426106,0.188375 -0.246694,0 -0.426108,-0.188375 -0.173805,-0.188381 -0.173805,-0.456678 0,-0.268294 0.173805,-0.456673 0.179414,-0.18838 0.426108,-0.18838 z"
       style="font-style:normal;font-variant:normal;font-weight:bold;font-stretch:normal;font-size:medium;line-height:1.25;font-family:'DJB Get Digital';-inkscape-font-specification:'DJB Get Digital Bold';letter-spacing:0px;word-spacing:0px;fill:#0000ff;fill-opacity:1;stroke:none;stroke-width:1.00000036"
       id="path869"
       inkscape:connector-curvature="0" />
    <path
       d="m 29.500731,31.972995 q 0.2523,0 0.426109,0.188375 0.173807,0.188386 0.173807,0.456679 0,0.268296 -0.173807,0.456678 -0.173809,0.188377 -0.426109,0.188377 -0.24669,0 -0.426101,-0.188377 -0.173807,-0.188382 -0.173807,-0.456678 0,-0.268292 0.173807,-0.456679 0.179411,-0.188375 0.426101,-0.188375 z m 0.112144,2.814262 q 0.252299,0 0.426107,0.18838 0.173803,0.188379 0.173803,0.456673 0,0.268297 -0.173803,0.456678 -0.173808,0.188375 -0.426107,0.188375 -0.246695,0 -0.426107,-0.188375 -0.173806,-0.188381 -0.173806,-0.456678 0,-0.268294 0.173806,-0.456673 0.179412,-0.18838 0.426107,-0.18838 z"
       style="font-style:normal;font-variant:normal;font-weight:bold;font-stretch:normal;font-size:medium;line-height:1.25;font-family:'DJB Get Digital';-inkscape-font-specification:'DJB Get Digital Bold';letter-spacing:0px;word-spacing:0px;fill:#0000ff;fill-opacity:1;stroke:none;stroke-width:1.00000036"
       id="path875"
       inkscape:connector-curvature="0" />
  </g>
  <g
     inkscape:groupmode="layer"
     id="layer6"
     inkscape:label="text"
     style="display:inline">
    <flowRoot
       xml:space="preserve"
       id="flowRoot914"
       style="font-style:normal;font-variant:normal;font-weight:normal;font-stretch:normal;font-size:12px;line-height:1.25;font-family:'Arial Unicode MS';-inkscape-font-specification:'Arial Unicode MS';letter-spacing:0px;word-spacing:0px;clip-rule:evenodd;fill:#c500ab;fill-opacity:1;fill-rule:evenodd;stroke:#ffffff;stroke-width:2.96764684;stroke-linecap:round;stroke-linejoin:round;stroke-miterlimit:4;stroke-dasharray:none;stroke-opacity:1;paint-order:markers stroke fill;image-rendering:optimizeQuality;shape-rendering:geometricPrecision;text-rendering:geometricPrecision"
       transform="matrix(0.92708572,0,0,1.1022954,-1.6745897,-0.28070299)"><flowRegion
         id="flowRegion916"
         style="fill:#c500ab;fill-opacity:1;stroke:#ffffff;stroke-width:2.96764684;stroke-linecap:round;stroke-linejoin:round;stroke-miterlimit:4;stroke-dasharray:none;stroke-opacity:1;paint-order:markers stroke fill"><rect
           id="rect918"
           width="38.14209"
           height="34.674625"
           x="3.4674628"
           y="-1.8781176"
           style="fill:#c500ab;fill-opacity:1;stroke:#ffffff;stroke-width:2.96764684;stroke-linecap:round;stroke-linejoin:round;stroke-miterlimit:4;stroke-dasharray:none;stroke-opacity:1;paint-order:markers stroke fill" /></flowRegion><flowPara
         id="flowPara920"
         style="font-style:normal;font-variant:normal;font-weight:bold;font-stretch:normal;font-size:21.33333397px;font-family:Arial;-inkscape-font-specification:'Arial Bold';stroke:#ffffff;stroke-width:2.96764684;stroke-linecap:round;stroke-linejoin:round;stroke-miterlimit:4;stroke-dasharray:none;stroke-opacity:1;paint-order:markers stroke fill">Rx</flowPara></flowRoot>  </g>
</svg>
