<?xml version="1.0" encoding="UTF-8" standalone="no"?>
<!-- Created with Inkscape (http://www.inkscape.org/) -->

<svg
   xmlns:dc="http://purl.org/dc/elements/1.1/"
   xmlns:cc="http://creativecommons.org/ns#"
   xmlns:rdf="http://www.w3.org/1999/02/22-rdf-syntax-ns#"
   xmlns:svg="http://www.w3.org/2000/svg"
   xmlns="http://www.w3.org/2000/svg"
   xmlns:xlink="http://www.w3.org/1999/xlink"
   xmlns:sodipodi="http://sodipodi.sourceforge.net/DTD/sodipodi-0.dtd"
   xmlns:inkscape="http://www.inkscape.org/namespaces/inkscape"
   width="24"
   height="24"
   id="svg2"
   sodipodi:version="0.32"
   inkscape:version="0.92.3 (2405546, 2018-03-11)"
   version="1.0"
   sodipodi:docname="06 FPCCompatibility_150.svg"
   inkscape:output_extension="org.inkscape.output.svg.inkscape"
   inkscape:export-filename="06 FPCCompatibility_150.png"
   inkscape:export-xdpi="96"
   inkscape:export-ydpi="96">
  <defs
     id="defs4">
    <linearGradient
       id="linearGradient1204"
       inkscape:collect="always">
      <stop
         id="stop1200"
         offset="0"
         style="stop-color:#ddcaab;stop-opacity:1" />
      <stop
         id="stop1202"
         offset="1"
         style="stop-color:#b98f4f;stop-opacity:1" />
    </linearGradient>
    <linearGradient
       gradientTransform="matrix(1.4734636,0,0,1.4734636,0.4245819,24.424579)"
       gradientUnits="userSpaceOnUse"
       y2="11.927964"
       x2="11.927962"
       y1="3.7838879"
       x1="2.7658763"
       id="linearGradient1206"
       xlink:href="#linearGradient1204"
       inkscape:collect="always" />
  </defs>
  <sodipodi:namedview
     id="base"
     pagecolor="#ffffff"
     bordercolor="#666666"
     borderopacity="1.0"
     inkscape:pageopacity="0.0"
     inkscape:pageshadow="2"
     inkscape:zoom="37.777737"
     inkscape:cx="12.426339"
     inkscape:cy="11.672843"
     inkscape:document-units="px"
     inkscape:current-layer="layer1"
     showgrid="true"
     objecttolerance="10"
     gridtolerance="10"
     guidetolerance="10"
     showguides="true"
     inkscape:guide-bbox="true"
     inkscape:window-width="1920"
     inkscape:window-height="1137"
     inkscape:window-x="-8"
     inkscape:window-y="-8"
     inkscape:window-maximized="1"
     inkscape:snap-bbox="true"
     inkscape:bbox-paths="true"
     inkscape:bbox-nodes="true"
     inkscape:snap-bbox-edge-midpoints="true"
     inkscape:snap-bbox-midpoints="true"
     inkscape:object-paths="true"
     inkscape:snap-intersection-paths="true"
     inkscape:object-nodes="true"
     inkscape:snap-smooth-nodes="true"
     inkscape:snap-midpoints="true"
     inkscape:snap-object-midpoints="true"
     inkscape:snap-center="true">
    <inkscape:grid
       type="xygrid"
       id="grid2409"
       visible="true"
       enabled="true"
       spacingx="0.5"
       spacingy="0.5"
       empspacing="2"
       snapvisiblegridlinesonly="true"
       originx="0"
       originy="0" />
  </sodipodi:namedview>
  <metadata
     id="metadata7">
    <rdf:RDF>
      <cc:Work
         rdf:about="">
        <dc:format>image/svg+xml</dc:format>
        <dc:type
           rdf:resource="http://purl.org/dc/dcmitype/StillImage" />
        <dc:title />
      </cc:Work>
    </rdf:RDF>
  </metadata>
  <g
     inkscape:label="Ebene 1"
     inkscape:groupmode="layer"
     id="layer1"
     transform="translate(0,-24)">
    <rect
       y="24"
       x="0"
       height="24"
       width="24"
       id="rect1117"
       style="opacity:1;fill:url(#linearGradient1206);fill-opacity:1;fill-rule:evenodd;stroke:none;stroke-width:0.16001421;stroke-linecap:round;stroke-linejoin:round;stroke-miterlimit:4;stroke-dasharray:none;stroke-dashoffset:0;stroke-opacity:1;paint-order:normal" />
    <path
       inkscape:connector-curvature="0"
       id="path1119"
       d="m 15.115553,25.788886 c 1.367449,-0.99046 3.593014,1.460559 2.109667,2.501816 -1.428951,0.714443 -3.228574,-1.179188 -2.109667,-2.501816 z"
       style="fill:#552200;fill-opacity:1;fill-rule:evenodd;stroke:none;stroke-width:1.11055589px;stroke-linecap:butt;stroke-linejoin:miter;stroke-opacity:1" />
    <path
       inkscape:connector-curvature="0"
       id="path1121"
       d="m 19.557777,30.23111 c 1.518774,-1.308291 4.504392,2.038591 2.021556,2.479937 -1.330113,0.347282 -3.104315,-1.752701 -2.118842,-2.601921 l 0.09729,0.121928 z"
       style="fill:#552200;fill-opacity:1;fill-rule:evenodd;stroke:none;stroke-width:1.11055589px;stroke-linecap:butt;stroke-linejoin:miter;stroke-opacity:1" />
    <path
       inkscape:connector-curvature="0"
       id="path1123"
       d="m 15.670832,33.007499 c 1.069465,-0.324271 3.276061,0.05764 3.08449,1.492598 -0.823577,1.43767 -3.206775,1.624433 -3.964284,0.01355 -0.478672,-0.750654 -0.347316,-2.258966 0.87966,-1.506298"
       style="fill:#552200;fill-opacity:1;fill-rule:evenodd;stroke:none;stroke-width:1.11055589px;stroke-linecap:butt;stroke-linejoin:miter;stroke-opacity:1" />
    <path
       inkscape:connector-curvature="0"
       id="path1125"
       d="m 10.67333,30.786387 c 1.889766,-0.529701 0.511322,3.134611 -0.235183,1.200178 0.04353,-0.405541 0.103393,-0.812616 0.23485,-1.200333"
       style="fill:#552200;fill-opacity:1;fill-rule:evenodd;stroke:none;stroke-width:1.11055589px;stroke-linecap:butt;stroke-linejoin:miter;stroke-opacity:1" />
    <path
       inkscape:connector-curvature="0"
       id="path1127"
       d="m 21.778888,35.228611 c 1.520129,-1.714099 2.346327,2.521883 0.463302,1.746904 -0.376834,-0.503437 -0.306126,-1.168094 -0.463335,-1.746649"
       style="fill:#552200;fill-opacity:1;fill-rule:evenodd;stroke:none;stroke-width:1.11055589px;stroke-linecap:butt;stroke-linejoin:miter;stroke-opacity:1" />
    <path
       inkscape:connector-curvature="0"
       id="path1129"
       d="m 20.668332,38.560278 c 1.301704,0.246255 2.68528,1.08408 3.09975,2.403432 0.215314,1.625676 -2.09694,1.733311 -2.889933,0.729036 -0.82772,-0.777501 -1.188627,-2.316809 -0.209817,-3.132468 z"
       style="fill:#552200;fill-opacity:1;fill-rule:evenodd;stroke:none;stroke-width:1.11055589px;stroke-linecap:butt;stroke-linejoin:miter;stroke-opacity:1" />
    <path
       inkscape:connector-curvature="0"
       id="path1131"
       d="m 16.781386,38.560278 c 0.487845,0.52486 2.517764,2.114799 0.618336,1.889067 -0.820312,-0.222933 -1.869776,-1.361652 -0.618336,-1.889067 z"
       style="fill:#552200;fill-opacity:1;fill-rule:evenodd;stroke:none;stroke-width:1.11055589px;stroke-linecap:butt;stroke-linejoin:miter;stroke-opacity:1" />
    <path
       inkscape:connector-curvature="0"
       id="path1133"
       d="m 11.783886,34.673333 c 0.798512,0.567616 2.773791,2.63255 0.898895,2.965939 -1.206719,-0.323338 -3.1256375,-1.915686 -1.938509,-3.184241 0.291143,-0.265345 0.821301,-0.05153 1.039614,0.218302 z"
       style="fill:#552200;fill-opacity:1;fill-rule:evenodd;stroke:none;stroke-width:1.11055589px;stroke-linecap:butt;stroke-linejoin:miter;stroke-opacity:1" />
    <path
       inkscape:connector-curvature="0"
       id="path1135"
       d="M 5.6758286,28.565276 C 7.41748,27.440705 8.384763,31.035296 6.2997611,30.842937 4.9270585,31.181845 4.2418012,28.939144 5.6758286,28.565276 Z"
       style="fill:#552200;fill-opacity:1;fill-rule:evenodd;stroke:none;stroke-width:1.11055589px;stroke-linecap:butt;stroke-linejoin:miter;stroke-opacity:1" />
    <path
       inkscape:connector-curvature="0"
       id="path1137"
       d="m 15.115553,30.23111 c 1.886191,-0.327092 -0.638347,2.268632 -0.551024,0.173235 0.09484,-0.193947 0.363262,-0.292609 0.551024,-0.173235 z"
       style="fill:#552200;fill-opacity:1;fill-rule:evenodd;stroke:none;stroke-width:1.11055589px;stroke-linecap:butt;stroke-linejoin:miter;stroke-opacity:1" />
    <path
       inkscape:connector-curvature="0"
       id="path1139"
       d="m 22.334166,25.788886 c -0.01798,2.037037 3.442502,1.31863 2.979765,-0.406441 -0.34255,-1.504759 -3.025587,-2.312199 -3.056405,-0.234716 -0.01155,0.21597 0.0135,0.434183 0.07664,0.641157 z"
       style="fill:#552200;fill-opacity:1;fill-rule:evenodd;stroke:none;stroke-width:1.11055589px;stroke-linecap:butt;stroke-linejoin:miter;stroke-opacity:1" />
    <path
       inkscape:connector-curvature="0"
       id="path1141"
       d="m 19.557777,24.123053 c -1.939754,1.005575 2.265244,1.858526 0.953379,0.400655 -0.04065,-0.199289 -0.866513,-0.212538 -0.398135,-0.400667"
       style="fill:#552200;fill-opacity:1;fill-rule:evenodd;stroke:none;stroke-width:1.11055589px;stroke-linecap:butt;stroke-linejoin:miter;stroke-opacity:1" />
    <path
       inkscape:connector-curvature="0"
       id="path1143"
       d="M -0.44068293,24.101592 C -1.0746429,26.061612 3.3129411,26.104924 1.6072821,24.299471 1.1837166,24.08077 0.52651107,23.610982 0.11474007,24.10167"
       style="fill:#552200;fill-opacity:1;fill-rule:evenodd;stroke:none;stroke-width:1.11055589px;stroke-linecap:butt;stroke-linejoin:miter;stroke-opacity:1" />
    <path
       inkscape:connector-curvature="0"
       id="path1145"
       d="m 14.004997,40.78139 c -1.984963,0.90889 0.141462,3.352468 1.69612,3.022411 1.200943,0.795258 3.080159,-0.691511 1.255259,-1.44269 -0.8866,-0.305247 -1.557232,-1.30557 -1.995135,-1.798668 -0.28127,0.08796 -1.389638,1.292855 -0.956244,0.218947 z"
       style="fill:#552200;fill-opacity:1;fill-rule:evenodd;stroke:none;stroke-width:1.11055589px;stroke-linecap:butt;stroke-linejoin:miter;stroke-opacity:1" />
    <path
       inkscape:connector-curvature="0"
       id="path1147"
       d="m 10.67333,39.670834 c 1.315842,1.068977 1.370237,-1.903937 -0.115376,-1.019834 -0.5680491,0.216991 -0.7941694,1.493464 0.115565,1.019946"
       style="fill:#552200;fill-opacity:1;fill-rule:evenodd;stroke:none;stroke-width:1.11055589px;stroke-linecap:butt;stroke-linejoin:miter;stroke-opacity:1" />
    <path
       inkscape:connector-curvature="0"
       id="path1149"
       d="M 9.0074961,36.894445 C 8.8948302,35.49671 6.0524292,33.632253 5.915853,35.826368 c 0.3279916,1.389871 2.1184963,2.352179 3.4157811,1.640679 0.1343661,-0.254284 -0.1547338,-0.446643 -0.32446,-0.57268"
       style="fill:#552200;fill-opacity:1;fill-rule:evenodd;stroke:none;stroke-width:1.11055589px;stroke-linecap:butt;stroke-linejoin:miter;stroke-opacity:1" />
    <path
       inkscape:connector-curvature="0"
       id="path1151"
       d="M 3.4547169,32.452221 C 4.1054361,33.994694 6.0184351,31.533814 4.140774,31.581046 3.7509467,31.698498 3.6512964,32.148307 3.4547169,32.452221 Z"
       style="fill:#552200;fill-opacity:1;fill-rule:evenodd;stroke:none;stroke-width:1.11055589px;stroke-linecap:butt;stroke-linejoin:miter;stroke-opacity:1" />
    <path
       inkscape:connector-curvature="0"
       id="path1153"
       d="M 4.0099948,38.560278 C 3.0559386,38.103651 0.43373861,36.616906 0.56215216,38.632131 1.1769003,40.135469 3.6688322,40.783833 4.7990226,39.578592 5.2136263,38.977281 4.7094007,38.21102 4.0099948,38.560245 Z"
       style="fill:#552200;fill-opacity:1;fill-rule:evenodd;stroke:none;stroke-width:1.11055589px;stroke-linecap:butt;stroke-linejoin:miter;stroke-opacity:1" />
    <path
       inkscape:connector-curvature="0"
       id="path1155"
       d="m 6.7863844,40.226112 c 0.3419069,1.025154 2.8120607,2.777745 2.3729692,0.665057 C 8.6875894,40.110048 7.5931144,39.927994 6.7863844,40.226112 Z"
       style="fill:#552200;fill-opacity:1;fill-rule:evenodd;stroke:none;stroke-width:1.11055589px;stroke-linecap:butt;stroke-linejoin:miter;stroke-opacity:1" />
    <path
       inkscape:connector-curvature="0"
       id="path1157"
       d="M 6.2311065,26.344164 C 7.8903324,25.951705 6.546993,24.206589 5.4675439,24.949506 4.7025375,25.533836 5.5489476,26.2938 6.2311065,26.344164 Z"
       style="fill:#552200;fill-opacity:1;fill-rule:evenodd;stroke:none;stroke-width:1.11055589px;stroke-linecap:butt;stroke-linejoin:miter;stroke-opacity:1" />
    <path
       inkscape:connector-curvature="0"
       id="path1159"
       d="M 2.3441611,29.120554 C 2.0768726,27.222536 -1.7289801,27.897787 0.11966231,29.588631 0.90178234,30.181801 2.8542617,30.622792 2.8988949,29.120276"
       style="fill:#552200;fill-opacity:1;fill-rule:evenodd;stroke:none;stroke-width:1.11055589px;stroke-linecap:butt;stroke-linejoin:miter;stroke-opacity:1" />
    <path
       inkscape:connector-curvature="0"
       id="path1161"
       d="m 0.1230495,33.562777 c 1.2315398,0.53862 1.2706869,2.345116 2.5684158,2.763174 C 4.80844,35.667614 1.7653284,33.141088 0.38491857,33.535968 Z"
       style="fill:#552200;fill-opacity:1;fill-rule:evenodd;stroke:none;stroke-width:1.11055589px;stroke-linecap:butt;stroke-linejoin:miter;stroke-opacity:1" />
    <path
       inkscape:connector-curvature="0"
       id="path1163"
       d="m 6.2311065,43.002501 c 1.1175634,0.465534 3.4718974,0.01644 3.3958688,1.762452 C 9.1685156,46.28405 7.0503858,45.648879 6.3663612,44.60199 6.048198,44.184655 5.5551335,43.346662 6.2311065,43.002501 Z"
       style="fill:#552200;fill-opacity:1;fill-rule:evenodd;stroke:none;stroke-width:1.11055589px;stroke-linecap:butt;stroke-linejoin:miter;stroke-opacity:1" />
    <path
       inkscape:connector-curvature="0"
       id="path1165"
       d="m 15.115553,45.778891 c 1.73501,0.02443 3.633761,0.856983 4.343384,2.533589 -1.595191,1.009629 -3.956543,0.247054 -4.845888,-1.353268 -0.231029,-0.44531 -0.187895,-1.246254 0.502504,-1.180321 z"
       style="fill:#552200;fill-opacity:1;fill-rule:evenodd;stroke:none;stroke-width:1.11055589px;stroke-linecap:butt;stroke-linejoin:miter;stroke-opacity:1" />
    <path
       inkscape:connector-curvature="0"
       id="path1167"
       d="M 3.6570104,47.431854 C 4.0688044,45.612264 1.5229218,44.467325 0.10514188,45.111835 -0.89384757,46.19616 0.67563441,47.130804 1.5,47.25 c 0.3812094,0.400833 2.5974902,1.555588 2.1568993,0.181897"
       style="fill:#552200;fill-opacity:1;fill-rule:evenodd;stroke:none;stroke-width:1.11055589px;stroke-linecap:butt;stroke-linejoin:miter;stroke-opacity:1" />
    <path
       style="fill:#552200;fill-opacity:1;fill-rule:evenodd;stroke:none;stroke-width:1.11055589px;stroke-linecap:butt;stroke-linejoin:miter;stroke-opacity:1"
       d="M 9.7571102,27.7829 C 9.7391192,29.819937 13.199611,29.10153 12.736876,27.376459 12.394325,25.8717 9.7112886,25.06426 9.6804707,27.141743 c -0.01155,0.21597 0.01344,0.434183 0.076629,0.641157 z"
       id="path1169"
       inkscape:connector-curvature="0" />
    <g
       id="g1239"
       transform="matrix(1.5,0,0,1.5,-0.20332032,22.499989)">
      <path
         sodipodi:nodetypes="sccsccccccccccccccccccccccsccccccsacccscca"
         inkscape:connector-curvature="0"
         id="path1230"
         d="M 12.686263,9 C 11.792231,9 10.817946,9.3491593 10.212891,9.9863281 9.9093305,9.6223245 9.5007748,9.3145359 9.0332031,9.1914062 8.5763788,9.0694383 8.2292002,9.0820313 7.6152344,9.0820312 H 6.0683594 C 5.9317652,9.0822751 5.7964938,9.1087989 5.6699219,9.1601562 5.54335,9.1087989 5.4080786,9.0822751 5.2714844,9.0820312 H 2 C 1.4121931,9.0822103 0.93572616,9.5586771 0.93554688,10.146484 v 4.771485 C 0.93572605,15.505776 1.412193,15.982243 2,15.982422 h 0.9628906 c 0.587807,-1.79e-4 1.064274,-0.476646 1.0644532,-1.064453 v -0.962891 h 0.9277343 c 0.016289,-2.93e-4 0.032569,-9.6e-4 0.048828,-0.002 v 0.964844 c 1.792e-4,0.587807 0.4766462,1.064274 1.0644532,1.064453 H 7.033203 c 0.587807,-1.79e-4 1.0642739,-0.476646 1.0644531,-1.064453 v -0.765625 c 0.263693,-0.01124 0.5423908,-0.01164 0.7695313,-0.05664 0.00652,-0.0012 0.013033,-0.0025 0.019531,-0.0039 0.2200472,-0.04796 0.4099172,-0.163259 0.6035156,-0.267578 0.1462865,0.466877 0.3652363,0.900558 0.699219,1.255859 6.65e-4,6.68e-4 0.0013,0.0013 0.002,0.002 0.596582,0.631489 1.559992,0.982422 2.436262,0.982422 0.685687,0 1.365994,-0.182665 1.908203,-0.59375 h 0.002 c 0.554557,-0.421319 0.911753,-1.043452 1.099609,-1.726562 0.14766,-0.537716 -0.144546,-1.098277 -0.669921,-1.285157 0.520283,-0.193882 0.804248,-0.755013 0.652343,-1.289062 C 15.473977,10.656426 15.230763,10.177102 14.836653,9.8066406 14.266734,9.2690538 13.4783,9 12.686263,9 Z m -0.07227,2.958984 c 0.07375,0.171521 0.145953,0.35091 0.28125,0.484375 -0.125773,0.135832 -0.21396,0.302107 -0.25586,0.482422 -0.04014,0.174654 -0.06362,0.181697 -0.05469,0.173828 0.04522,0.05259 -0.07422,-0.125385 -0.07422,-0.595703 0,-0.429497 0.106921,-0.577181 0.07031,-0.535156 0.01314,-0.0186 0.02909,-0.01305 0.0332,-0.0098 0,0 5e-6,2.3e-5 1e-5,3.4e-5 z"
         style="font-style:normal;font-variant:normal;font-weight:bold;font-stretch:normal;font-size:medium;line-height:25px;font-family:Arial;-inkscape-font-specification:'Arial Bold';letter-spacing:0px;word-spacing:0px;fill:#ffffff;fill-opacity:1;stroke:none;stroke-width:1px;stroke-linecap:butt;stroke-linejoin:miter;stroke-opacity:1"
         transform="translate(0,-0.064453)" />
      <path
         sodipodi:nodetypes="cccscscsccccscscsscccsccssccscccccsscsscccccccccccccc"
         id="path1226"
         d="m 13.775205,13.09961 0.934245,0.296224 c -0.143229,0.520833 -0.381944,0.908203 -0.716146,1.162109 -0.332031,0.251736 -0.754123,0.377604 -1.266276,0.377604 -0.63368,0 -1.154513,-0.215929 -1.5625,-0.647786 -0.407986,-0.434028 -0.611978,-1.026476 -0.611979,-1.777344 10e-7,-0.794271 0.205079,-1.41059 0.615235,-1.848958 0.410156,-0.440538 0.949436,-0.660807 1.617838,-0.660807 0.583768,0 1.057943,0.172526 1.422526,0.517578 0.217015,0.203993 0.379775,0.496961 0.488281,0.878906 l -0.953776,0.227865 c -0.05643,-0.247396 -0.174698,-0.442709 -0.354817,-0.585938 -0.177951,-0.143229 -0.394965,-0.214844 -0.651042,-0.214844 -0.353732,0 -0.641276,0.126953 -0.86263,0.38086 -0.219184,0.253906 -0.328776,0.665147 -0.328775,1.233724 0,0.603298 0.108507,1.032985 0.325521,1.289062 0.217013,0.256077 0.499131,0.384115 0.846354,0.384115 0.256076,0 0.476344,-0.08138 0.660807,-0.244141 0.184462,-0.162761 0.31684,-0.418837 0.397134,-0.768229 z m -7.6060045,1.754557 v -4.772135 h 1.546224 c 0.5859375,0 0.9678819,0.02387 1.1458334,0.07161 0.2734374,0.07161 0.502387,0.227865 0.6868488,0.46875 0.1844619,0.238715 0.2766927,0.54796 0.2766927,0.927735 0,0.292969 -0.053168,0.539279 -0.1595052,0.738932 -0.1063368,0.199653 -0.2419704,0.356988 -0.406901,0.472005 -0.1627603,0.112847 -0.328776,0.187717 -0.4980469,0.22461 -0.2300347,0.04557 -0.563151,0.06836 -0.9993489,0.06836 H 7.1327423 v 1.80013 z m 0.9635417,-3.964844 v 1.354167 h 0.5273437 c 0.3797744,0 0.6336806,-0.02496 0.7617189,-0.07487 0.1280381,-0.04991 0.2278645,-0.128038 0.299479,-0.234375 0.073785,-0.106337 0.1106771,-0.230034 0.1106771,-0.371093 10e-8,-0.173611 -0.050998,-0.316841 -0.1529948,-0.429688 C 8.5769696,11.020617 8.4478463,10.950087 8.2915963,10.921876 8.176579,10.900176 7.9454592,10.889326 7.598237,10.889326 Z m -5.1327423,3.964844 v -4.772135 h 3.2714843 v 0.807291 H 2.9635416 v 1.129558 H 4.955729 v 0.807291 H 2.9635416 v 2.027995 z"
         inkscape:connector-curvature="0"
         style="font-style:normal;font-variant:normal;font-weight:bold;font-stretch:normal;font-size:medium;line-height:25px;font-family:Arial;-inkscape-font-specification:'Arial Bold';letter-spacing:0px;word-spacing:0px;fill:#0044aa;fill-opacity:1;stroke:none;stroke-width:1px;stroke-linecap:butt;stroke-linejoin:miter;stroke-opacity:1" />
    </g>
  </g>
</svg>
