<?xml version="1.0" encoding="UTF-8" standalone="no"?>
<!-- Created with Inkscape (http://www.inkscape.org/) -->

<svg
   xmlns:dc="http://purl.org/dc/elements/1.1/"
   xmlns:cc="http://creativecommons.org/ns#"
   xmlns:rdf="http://www.w3.org/1999/02/22-rdf-syntax-ns#"
   xmlns:svg="http://www.w3.org/2000/svg"
   xmlns="http://www.w3.org/2000/svg"
   xmlns:xlink="http://www.w3.org/1999/xlink"
   xmlns:sodipodi="http://sodipodi.sourceforge.net/DTD/sodipodi-0.dtd"
   xmlns:inkscape="http://www.inkscape.org/namespaces/inkscape"
   width="32"
   height="32"
   id="svg2"
   sodipodi:version="0.32"
   inkscape:version="0.92.3 (2405546, 2018-03-11)"
   version="1.0"
   sodipodi:docname="FileVersion_200.svg"
   inkscape:output_extension="org.inkscape.output.svg.inkscape"
   inkscape:export-filename="FileVersion_200.png"
   inkscape:export-xdpi="96"
   inkscape:export-ydpi="96">
  <defs
     id="defs4">
    <linearGradient
       id="linearGradient885"
       inkscape:collect="always">
      <stop
         id="stop881"
         offset="0"
         style="stop-color:#e3edf5;stop-opacity:1" />
      <stop
         id="stop883"
         offset="1"
         style="stop-color:#fdfefe;stop-opacity:1" />
    </linearGradient>
    <linearGradient
       gradientUnits="userSpaceOnUse"
       y2="1.5"
       x2="4"
       y1="12.5"
       x1="8.5"
       id="linearGradient887"
       xlink:href="#linearGradient885"
       inkscape:collect="always" />
  </defs>
  <sodipodi:namedview
     id="base"
     pagecolor="#ffffff"
     bordercolor="#666666"
     borderopacity="1.0"
     inkscape:pageopacity="0.0"
     inkscape:pageshadow="2"
     inkscape:zoom="24.617792"
     inkscape:cx="7.7791155"
     inkscape:cy="16.789227"
     inkscape:document-units="px"
     inkscape:current-layer="layer1"
     showgrid="true"
     objecttolerance="10"
     gridtolerance="10"
     guidetolerance="10"
     showguides="true"
     inkscape:guide-bbox="true"
     inkscape:window-width="1920"
     inkscape:window-height="1137"
     inkscape:window-x="-8"
     inkscape:window-y="-8"
     inkscape:window-maximized="1"
     inkscape:snap-bbox="true"
     inkscape:bbox-paths="true"
     inkscape:bbox-nodes="true"
     inkscape:snap-bbox-edge-midpoints="true"
     inkscape:snap-bbox-midpoints="true"
     inkscape:object-paths="true"
     inkscape:snap-intersection-paths="true"
     inkscape:snap-smooth-nodes="true"
     inkscape:snap-midpoints="true"
     inkscape:snap-object-midpoints="true">
    <inkscape:grid
       type="xygrid"
       id="grid2409"
       visible="true"
       enabled="true"
       spacingx="0.5"
       spacingy="0.5"
       empspacing="2"
       snapvisiblegridlinesonly="true"
       originx="0"
       originy="0" />
  </sodipodi:namedview>
  <metadata
     id="metadata7">
    <rdf:RDF>
      <cc:Work
         rdf:about="">
        <dc:format>image/svg+xml</dc:format>
        <dc:type
           rdf:resource="http://purl.org/dc/dcmitype/StillImage" />
        <dc:title />
      </cc:Work>
    </rdf:RDF>
  </metadata>
  <g
     inkscape:label="Ebene 1"
     inkscape:groupmode="layer"
     id="layer1">
    <g
       id="layer1-4"
       inkscape:label="Ebene 1"
       transform="matrix(2,0,0,2,-1.7881393e-7,1.0000002)">
      <rect
         ry="2.3829377"
         rx="2"
         y="1.2772144"
         x="0.27721462"
         height="12.445571"
         width="15.445571"
         id="rect830"
         style="opacity:1;fill:url(#linearGradient887);fill-opacity:1;fill-rule:evenodd;stroke:#01518f;stroke-width:0.55442923;stroke-linecap:butt;stroke-linejoin:round;stroke-miterlimit:4;stroke-dasharray:none;stroke-dashoffset:0;stroke-opacity:1;paint-order:normal" />
      <path
         d="m 8.0667917,10.433417 q 0,0.369791 -0.125,0.494791 Q 7.822,11.048 7.4990833,11.048 q -0.3125,0 -0.4322917,-0.119792 Q 6.947,10.808417 6.947,10.449042 q 0,-0.369792 0.1197916,-0.4895837 0.125,-0.125 0.4479167,-0.125 0.3125,0 0.4322917,0.1197917 0.1197917,0.119792 0.1197917,0.479167 z"
         style="font-style:normal;font-variant:normal;font-weight:normal;font-stretch:normal;font-size:medium;line-height:25px;font-family:Calibri;-inkscape-font-specification:Calibri;letter-spacing:0px;word-spacing:0px;fill:#3771c8;fill-opacity:1;stroke:none;stroke-width:1px;stroke-linecap:butt;stroke-linejoin:miter;stroke-opacity:1"
         id="path822"
         inkscape:connector-curvature="0" />
      <path
         d="m 12.375,7.4847974 q 0,0.7550677 -0.100558,1.3783785 Q 12.178072,9.4864867 11.947626,9.9375 11.721369,10.383447 11.352654,10.631757 10.983939,10.875 10.443437,10.875 9.9322624,10.875 9.5803073,10.657095 9.2325417,10.434122 9.0188545,10.008446 8.8051673,9.5777029 8.7129888,8.9543921 8.625,8.3260137 8.625,7.5152028 8.625,6.7652029 8.7255587,6.141892 8.8261173,5.5135135 9.0523743,5.0675676 9.2786313,4.6165541 9.6473462,4.3733109 10.016062,4.125 10.552374,4.125 q 0.515364,0 0.863129,0.222973 0.351956,0.2179053 0.565643,0.6486487 0.213686,0.4256756 0.301675,1.054054 0.09218,0.623311 0.09218,1.4341217 z m -0.73743,0.060811 q 0,-0.491554 -0.02933,-0.8817568 Q 11.578911,6.2736489 11.520251,5.9746624 11.465782,5.6756759 11.373604,5.4628381 11.28561,5.2449327 11.159916,5.1081084 11.034217,4.9662165 10.87081,4.9054057 q -0.159218,-0.065878 -0.360335,-0.065878 -0.356145,0 -0.5782132,0.2027028 -0.2220681,0.2027024 -0.351956,0.5574321 -0.1256983,0.3547297 -0.171788,0.8310812 -0.046088,0.4763513 -0.046088,1.0236486 0,0.7347973 0.062854,1.2516893 0.062854,0.5118243 0.1969267,0.8361486 0.1382681,0.3243244 0.3477654,0.4712837 0.2136871,0.146959 0.5153631,0.146959 0.234637,0 0.410614,-0.09121 0.180168,-0.09121 0.305866,-0.2584447 0.129889,-0.1722974 0.213688,-0.410473 0.08379,-0.2381757 0.134078,-0.5270271 0.05029,-0.2888513 0.06703,-0.6233108 0.02095,-0.3395271 0.02095,-0.7043919 z"
         style="font-style:normal;font-variant:normal;font-weight:normal;font-stretch:normal;font-size:medium;line-height:25px;font-family:Calibri;-inkscape-font-specification:Calibri;letter-spacing:0px;word-spacing:0px;fill:#3771c8;fill-opacity:1;stroke:#3771c8;stroke-width:0.25;stroke-linecap:butt;stroke-linejoin:miter;stroke-miterlimit:4;stroke-dasharray:none;stroke-opacity:1"
         id="path824"
         inkscape:connector-curvature="0" />
      <path
         inkscape:connector-curvature="0"
         id="path832"
         d="m 5.484375,4.2011719 a 0.50005,0.50005 0 0 0 -0.2792969,0.09375 L 3.2050781,5.75 3.7949219,6.5585938 5,5.6816406 V 11 H 6 V 4.6992188 A 0.50005,0.50005 0 0 0 5.484375,4.2011719 Z"
         style="color:#000000;font-style:normal;font-variant:normal;font-weight:normal;font-stretch:normal;font-size:medium;line-height:normal;font-family:sans-serif;font-variant-ligatures:normal;font-variant-position:normal;font-variant-caps:normal;font-variant-numeric:normal;font-variant-alternates:normal;font-feature-settings:normal;text-indent:0;text-align:start;text-decoration:none;text-decoration-line:none;text-decoration-style:solid;text-decoration-color:#000000;letter-spacing:normal;word-spacing:normal;text-transform:none;writing-mode:lr-tb;direction:ltr;text-orientation:mixed;dominant-baseline:auto;baseline-shift:baseline;text-anchor:start;white-space:normal;shape-padding:0;clip-rule:nonzero;display:inline;overflow:visible;visibility:visible;opacity:1;isolation:auto;mix-blend-mode:normal;color-interpolation:sRGB;color-interpolation-filters:linearRGB;solid-color:#000000;solid-opacity:1;vector-effect:none;fill:#3771c8;fill-opacity:1;fill-rule:evenodd;stroke:none;stroke-width:1px;stroke-linecap:butt;stroke-linejoin:round;stroke-miterlimit:4;stroke-dasharray:none;stroke-dashoffset:0;stroke-opacity:1;color-rendering:auto;image-rendering:auto;shape-rendering:auto;text-rendering:auto;enable-background:accumulate" />
    </g>
  </g>
</svg>
