<?xml version="1.0" encoding="UTF-8" standalone="no"?>
<!-- Created with Inkscape (http://www.inkscape.org/) -->

<svg
   xmlns:dc="http://purl.org/dc/elements/1.1/"
   xmlns:cc="http://creativecommons.org/ns#"
   xmlns:rdf="http://www.w3.org/1999/02/22-rdf-syntax-ns#"
   xmlns:svg="http://www.w3.org/2000/svg"
   xmlns="http://www.w3.org/2000/svg"
   xmlns:xlink="http://www.w3.org/1999/xlink"
   xmlns:sodipodi="http://sodipodi.sourceforge.net/DTD/sodipodi-0.dtd"
   xmlns:inkscape="http://www.inkscape.org/namespaces/inkscape"
   width="48"
   height="48"
   viewBox="0 0 48 48"
   version="1.1"
   id="svg862"
   inkscape:version="0.92.3 (2405546, 2018-03-11)"
   sodipodi:docname="TRxSortZeos_200.svg"
   inkscape:export-filename="TRxSortZeos_200.png"
   inkscape:export-xdpi="96"
   inkscape:export-ydpi="96">
  <sodipodi:namedview
     id="base"
     pagecolor="#ffffff"
     bordercolor="#666666"
     borderopacity="1.0"
     inkscape:pageopacity="0.0"
     inkscape:pageshadow="2"
     inkscape:zoom="12.094472"
     inkscape:cx="17.077913"
     inkscape:cy="18.37665"
     inkscape:document-units="px"
     inkscape:current-layer="layer4"
     showgrid="true"
     units="px"
     inkscape:window-width="1920"
     inkscape:window-height="1018"
     inkscape:window-x="-8"
     inkscape:window-y="-8"
     inkscape:window-maximized="1"
     inkscape:snap-bbox="true"
     inkscape:bbox-nodes="true"
     inkscape:snap-global="true"
     inkscape:snap-object-midpoints="false">
    <inkscape:grid
       id="grid1407"
       type="xygrid" />
  </sodipodi:namedview>
  <defs
     id="defs856">
    <inkscape:path-effect
       effect="simplify"
       id="path-effect1290"
       is_visible="true"
       steps="1"
       threshold="0.5"
       smooth_angles="360"
       helper_size="0"
       simplify_individual_paths="false"
       simplify_just_coalesce="false"
       simplifyindividualpaths="false"
       simplifyJustCoalesce="false" />
    <inkscape:path-effect
       effect="simplify"
       id="path-effect1263"
       is_visible="true"
       steps="1"
       threshold="0.5"
       smooth_angles="360"
       helper_size="0"
       simplify_individual_paths="false"
       simplify_just_coalesce="false"
       simplifyindividualpaths="false"
       simplifyJustCoalesce="false" />
    <inkscape:path-effect
       effect="simplify"
       id="path-effect1257"
       is_visible="true"
       steps="1"
       threshold="0.5"
       smooth_angles="360"
       helper_size="0"
       simplify_individual_paths="false"
       simplify_just_coalesce="false"
       simplifyindividualpaths="false"
       simplifyJustCoalesce="false" />
    <inkscape:path-effect
       effect="simplify"
       id="path-effect1232"
       is_visible="true"
       steps="1"
       threshold="0.5"
       smooth_angles="360"
       helper_size="0"
       simplify_individual_paths="false"
       simplify_just_coalesce="false"
       simplifyindividualpaths="false"
       simplifyJustCoalesce="false" />
    <inkscape:path-effect
       effect="simplify"
       id="path-effect1228"
       is_visible="true"
       steps="1"
       threshold="0.5"
       smooth_angles="360"
       helper_size="0"
       simplify_individual_paths="false"
       simplify_just_coalesce="false"
       simplifyindividualpaths="false"
       simplifyJustCoalesce="false" />
    <inkscape:path-effect
       effect="simplify"
       id="path-effect1224"
       is_visible="true"
       steps="1"
       threshold="0.5"
       smooth_angles="360"
       helper_size="0"
       simplify_individual_paths="false"
       simplify_just_coalesce="false"
       simplifyindividualpaths="false"
       simplifyJustCoalesce="false" />
    <inkscape:path-effect
       effect="powerstroke"
       id="path-effect1220"
       is_visible="true"
       offset_points="1,0.5"
       sort_points="true"
       interpolator_type="CubicBezierJohan"
       interpolator_beta="0.2"
       start_linecap_type="zerowidth"
       linejoin_type="extrp_arc"
       miter_limit="4"
       end_linecap_type="zerowidth" />
    <inkscape:path-effect
       effect="simplify"
       id="path-effect1218"
       is_visible="true"
       steps="1"
       threshold="0.5"
       smooth_angles="360"
       helper_size="0"
       simplify_individual_paths="false"
       simplify_just_coalesce="false"
       simplifyindividualpaths="false"
       simplifyJustCoalesce="false" />
    <linearGradient
       id="linearGradient923"
       inkscape:collect="always">
      <stop
         id="stop919"
         offset="0"
         style="stop-color:#b3b3b3" />
      <stop
         style="stop-color:#e6e6e6"
         offset="0.12078682"
         id="stop929" />
      <stop
         id="stop931"
         offset="0.47874999"
         style="stop-color:#ffffff" />
      <stop
         style="stop-color:#e6e6e6"
         offset="0.88"
         id="stop927" />
      <stop
         id="stop921"
         offset="1"
         style="stop-color:#b3b3b3" />
    </linearGradient>
    <filter
       height="1.2819999"
       y="-0.141"
       width="1.2088889"
       x="-0.10444444"
       id="filter946"
       style="color-interpolation-filters:sRGB"
       inkscape:collect="always">
      <feGaussianBlur
         id="feGaussianBlur948"
         stdDeviation="0.94000001"
         inkscape:collect="always" />
    </filter>
    <linearGradient
       gradientTransform="translate(0,-10)"
       gradientUnits="userSpaceOnUse"
       y2="41"
       x2="20"
       y1="16"
       x1="20"
       id="linearGradient925"
       xlink:href="#linearGradient923"
       inkscape:collect="always" />
    <linearGradient
       gradientUnits="userSpaceOnUse"
       y2="37"
       x2="46"
       y1="12"
       x1="46"
       id="linearGradient949"
       xlink:href="#linearGradient923"
       inkscape:collect="always"
       gradientTransform="matrix(1.3333333,0,0,1,-16,-6)" />
  </defs>
  <metadata
     id="metadata859">
    <rdf:RDF>
      <cc:Work
         rdf:about="">
        <dc:format>image/svg+xml</dc:format>
        <dc:type
           rdf:resource="http://purl.org/dc/dcmitype/StillImage" />
        <dc:title />
      </cc:Work>
    </rdf:RDF>
  </metadata>
  <g
     sodipodi:insensitive="true"
     transform="translate(0,-284.29999)"
     id="layer1"
     inkscape:groupmode="layer"
     inkscape:label="base"
     style="display:none">
    <path
       transform="translate(0,284.29999)"
       inkscape:connector-curvature="0"
       id="rect1409"
       d="M 0,0 H 48 V 48 H 0 Z"
       style="fill:#f4e3d7;fill-opacity:0.93922652;stroke-width:2.91042757" />
  </g>
  <g
     inkscape:label="title"
     id="layer3"
     inkscape:groupmode="layer"
     sodipodi:insensitive="true"
     style="display:none">
    <path
       inkscape:connector-curvature="0"
       id="path884"
       d="M 0,4 V 4.690476 33 H 48 V 4 Z"
       style="color:#000000;fill:#808080;stroke-width:1.1630863" />
    <path
       inkscape:connector-curvature="0"
       id="rect836"
       d="M 0,6 H 42 V 31 H 0 Z"
       style="color:#000000;fill:url(#linearGradient925);stroke-width:1.08434844" />
    <path
       inkscape:connector-curvature="0"
       id="rect836-8"
       d="m 44,6 h 4 v 25 h -4 z"
       style="color:#000000;fill:url(#linearGradient949);stroke-width:0.33463722" />
    <path
       inkscape:connector-curvature="0"
       id="rect901"
       d="m 41,6 h 1 v 25 h -1 z"
       style="fill:#4d4d4d;fill-opacity:0.93922652;stroke-width:1.66666675" />
    <path
       inkscape:connector-curvature="0"
       id="rect901-0"
       d="m 43,6 h 1 v 25 h -1 z"
       style="fill:#ffffff;fill-opacity:0.93922652;stroke-width:1.66666675" />
  </g>
  <g
     inkscape:groupmode="layer"
     id="layer4"
     inkscape:label="table"
     sodipodi:insensitive="true">
    <path
       style="color:#000000;fill:#666666;stroke-width:1.23176348;stroke-miterlimit:1"
       d="M 3.706897,17 C 2.771117,17 2,17.903533 2,19 v 16 c 0,1.096467 0.771117,2 1.706897,2 H 33.293103 C 34.228882,37 35,36.096467 35,35 V 19 c 0,-1.096467 -0.771118,-2 -1.706897,-2 z"
       id="path876"
       inkscape:connector-curvature="0" />
    <rect
       style="fill:#ffffff;stroke-width:3.21109176;stroke-miterlimit:1"
       id="rect986"
       width="29"
       height="16"
       x="4"
       y="19" />
    <path
       style="fill:#000000;stroke-width:2.82842731;stroke-miterlimit:1"
       d="m 11,19 h 1 v 16 h -1 z"
       id="rect878"
       inkscape:connector-curvature="0" />
    <path
       style="fill:#000000;stroke-width:2.91547608;stroke-miterlimit:1"
       d="m 24,18 h 1 v 17 h -1 z"
       id="rect878-2"
       inkscape:connector-curvature="0" />
    <path
       style="fill:#000000;stroke-width:3.8078866;stroke-miterlimit:1"
       d="m 33,21 v 1 H 4 v -1 z"
       id="rect878-2-2"
       inkscape:connector-curvature="0" />
    <path
       style="fill:#000000;stroke-width:1.7320509;stroke-miterlimit:1"
       d="m 32,24 v 1 h -6 v -1 z"
       id="rect878-2-2-4"
       inkscape:connector-curvature="0" />
    <path
       style="fill:#000000;stroke-width:1.7320509;stroke-miterlimit:1"
       d="m 32,26 v 1 h -6 v -1 z"
       id="rect878-2-2-4-8"
       inkscape:connector-curvature="0" />
    <path
       style="fill:#000000;stroke-width:1.7320509;stroke-miterlimit:1"
       d="m 32,30 v 1 h -6 v -1 z"
       id="rect878-2-2-4-9"
       inkscape:connector-curvature="0" />
    <path
       style="fill:#d5f6ff;stroke-width:4.2426405;stroke-miterlimit:1"
       d="M 12,22 H 24 V 34 H 12 Z"
       id="rect996-6-3"
       inkscape:connector-curvature="0" />
    <path
       style="fill:#000000;stroke-width:2.23606801;stroke-miterlimit:1"
       d="m 23,24 v 1 H 13 v -1 z"
       id="rect878-2-2-4-2"
       inkscape:connector-curvature="0" />
    <path
       style="fill:#000000;stroke-width:1.73205078;stroke-miterlimit:1"
       d="m 19,26 v 1 h -6 v -1 z"
       id="rect878-2-2-4-0"
       inkscape:connector-curvature="0" />
    <path
       style="fill:#ffeeaa;stroke-width:3.10241818;stroke-miterlimit:1"
       d="m 4,22 h 7 V 33 H 4 Z"
       id="rect996-7"
       inkscape:connector-curvature="0" />
    <path
       style="fill:#000000;stroke-width:1.58113885;stroke-miterlimit:1"
       d="m 10,24 v 1 H 5 v -1 z"
       id="rect878-2-2-4-24"
       inkscape:connector-curvature="0" />
    <path
       style="fill:#000000;stroke-width:1.58113885;stroke-miterlimit:1"
       d="m 10,26 v 1 H 5 v -1 z"
       id="rect878-2-2-4-24-3"
       inkscape:connector-curvature="0" />
    <path
       style="fill:#aa8800;stroke-width:1.32287562;stroke-miterlimit:1"
       d="m 4,19 h 7 v 2 H 4 Z"
       id="rect996"
       inkscape:connector-curvature="0" />
    <path
       style="fill:#216778;stroke-width:1.73205078;stroke-miterlimit:1"
       d="m 12,19 h 12 v 2 H 12 Z"
       id="rect996-6"
       inkscape:connector-curvature="0" />
    <path
       style="fill:#cccccc;stroke-width:1.41421354;stroke-miterlimit:1"
       d="m 25,19 h 8 v 2 h -8 z"
       id="rect996-1"
       inkscape:connector-curvature="0" />
    <path
       style="fill:#000000;stroke-width:1.73205078;stroke-miterlimit:1"
       d="m 19,30 v 1 h -6 v -1 z"
       id="rect878-2-2-4-0-4"
       inkscape:connector-curvature="0" />
    <path
       style="fill:#000000;stroke-width:1.41421342;stroke-miterlimit:1"
       d="m 9,30 v 1 H 5 v -1 z"
       id="rect878-2-2-4-0-9"
       inkscape:connector-curvature="0" />
  </g>
  <g
     inkscape:groupmode="layer"
     id="layer6"
     inkscape:label="dbdriver_base"
     sodipodi:insensitive="true">
    <path
       style="color:#000000;fill:#0060b0;stroke-width:0.9290629;stroke-linejoin:round"
       d="M 3.6184211,30 C 2.7311472,30 2,30.542119 2,31.2 V 44.8 C 2,45.457881 2.7311472,46 3.6184211,46 H 41.381579 C 42.268852,46 43,45.457881 43,44.8 V 31.2 C 43,30.542119 42.268852,30 41.381579,30 Z"
       id="path1142"
       inkscape:connector-curvature="0" />
  </g>
  <g
     inkscape:groupmode="layer"
     id="layer7"
     inkscape:label="dbdriver_name"
     sodipodi:insensitive="true">
    <text
       xml:space="preserve"
       style="font-size:16.10716057px;line-height:1.25;font-family:Arial;-inkscape-font-specification:Arial;letter-spacing:0px;word-spacing:0px;fill:#ffffff;stroke-width:0.86288357"
       x="5.0308657"
       y="42.276051"
       id="text868"
       transform="scale(0.96081933,1.0407784)"><tspan
         sodipodi:role="line"
         id="tspan866"
         x="5.0308657"
         y="42.276051"
         style="font-weight:bold">Z</tspan></text>
    <text
       xml:space="preserve"
       style="font-size:15.61160183px;line-height:1.25;font-family:Arial;-inkscape-font-specification:Arial;letter-spacing:0px;word-spacing:0px;fill:#ffffff;stroke-width:0.83633584"
       x="13.686619"
       y="46.354572"
       id="text872"
       transform="scale(1.057671,0.9454736)"><tspan
         sodipodi:role="line"
         id="tspan870"
         x="13.686619"
         y="46.354572"
         style="font-weight:bold">e</tspan></text>
    <g
       aria-label="o"
       transform="scale(1.0063667,0.99367358)"
       style="font-size:14.85433292px;font-family:Arial;-inkscape-font-specification:Arial;letter-spacing:0px;word-spacing:0px;fill:#ffffff;stroke-width:0.79576784"
       id="text876">
      <path
         d="m 27.992188,36 c -0.759124,0 -1.446449,0.166516 -2.064454,0.498047 -0.613138,0.331532 -1.088061,0.811977 -1.423828,1.441406 C 24.16814,38.568882 24,39.219905 24,39.892578 c 0,0.879279 0.16814,1.62522 0.503906,2.240234 0.335767,0.610211 0.824461,1.073508 1.466797,1.390626 C 26.617905,43.840555 27.29735,44 28.007812,44 29.156231,44 30.10707,43.620487 30.861328,42.861328 31.620452,42.097364 32,41.136473 32,39.978516 32,38.830167 31.624392,37.880409 30.875,37.130859 30.125608,36.376505 29.164937,36 27.992188,36 Z m 0.01172,2 c 0.565191,0 1.037752,0.172067 1.417969,0.515625 C 29.807232,38.859183 30,39.350244 30,39.988281 30,40.642678 29.807232,41.140817 29.421875,41.484375 29.041658,41.827933 28.569097,42 28.003906,42 27.438717,42 26.963482,41.827933 26.578125,41.484375 26.192768,41.140817 26,40.646217 26,40 26,39.353783 26.192768,38.859183 26.578125,38.515625 26.963482,38.172067 27.438717,38 28.003906,38 Z"
         transform="scale(0.99367358,1.0063667)"
         id="path887"
         inkscape:connector-curvature="0" />
    </g>
    <text
       xml:space="preserve"
       style="font-size:14.60517025px;line-height:1.25;font-family:Arial;-inkscape-font-specification:Arial;letter-spacing:0px;word-spacing:0px;fill:#ffffff;stroke-width:0.7824198"
       x="33.509678"
       y="43.366234"
       id="text880"
       transform="scale(0.98948612,1.0106256)"><tspan
         sodipodi:role="line"
         id="tspan878"
         x="33.509678"
         y="43.366234"
         style="font-weight:bold">s</tspan></text>
  </g>
  <g
     inkscape:groupmode="layer"
     id="layer8"
     inkscape:label="arrow_matte">
    <path
       style="fill:#ffffff;stroke-width:0.7171371;stroke-miterlimit:1"
       d="m 29,17 h 6 v 6 h -6 z"
       id="rect991"
       inkscape:connector-curvature="0" />
  </g>
  <g
     inkscape:groupmode="layer"
     id="layer5"
     inkscape:label="arrows">
    <g
       id="g1118"
       transform="translate(6.9999998,2)"
       style="fill:#008000">
      <path
         inkscape:connector-curvature="0"
         id="path1061"
         d="M 34.496484,1e-5 A 0.60011442,0.75007417 0 0 0 33.99722,0.341318 L 30.096866,7.84131 A 0.60011442,0.75007417 0 0 0 30.599646,9 h 0.131262 7.669445 A 0.60011442,0.75007417 0 0 0 38.903134,7.84131 L 35.00278,0.341318 A 0.60011442,0.75007417 0 0 0 34.496484,1e-5 Z"
         style="color:#000000;stroke-width:1.34170091;stroke-linejoin:round" />
      <path
         inkscape:connector-curvature="0"
         id="rect1063"
         d="M 34,5 A 1.0001,0.92316923 0 0 0 33,5.923077 V 16.076923 A 1.0001,0.92316923 0 0 0 34,17 h 1 a 1.0001,0.92316923 0 0 0 1,-0.923077 V 5.923077 A 1.0001,0.92316923 0 0 0 35,5 Z"
         style="color:#000000;stroke-width:1.92153788;stroke-linejoin:round" />
    </g>
    <g
       id="g1122"
       transform="translate(-8,-5)"
       style="fill:#ff0000">
      <path
         inkscape:connector-curvature="0"
         id="path1061-0"
         d="M 41.496484,26.99999 A 0.60011442,0.75007417 0 0 1 40.99722,26.658682 L 37.096866,19.15869 A 0.60011442,0.75007417 0 0 1 37.599646,18 h 0.131262 7.669445 a 0.60011442,0.75007417 0 0 1 0.502781,1.15869 l -3.900354,7.499992 a 0.60011442,0.75007417 0 0 1 -0.506296,0.341308 z"
         style="color:#000000;stroke-width:1.34170091;stroke-linejoin:round" />
      <path
         inkscape:connector-curvature="0"
         id="rect1063-7"
         d="M 41,22 A 1.0001,0.92316923 0 0 1 40,21.076923 V 10.923077 A 1.0001,0.92316923 0 0 1 41,10 h 1 a 1.0001,0.92316923 0 0 1 1,0.923077 V 21.076923 A 1.0001,0.92316923 0 0 1 42,22 Z"
         style="color:#000000;stroke-width:1.92153788;stroke-linejoin:round" />
    </g>
  </g>
  <g
     inkscape:label="triangle"
     id="g1156"
     inkscape:groupmode="layer"
     sodipodi:insensitive="true"
     style="display:none">
    <path
       inkscape:connector-curvature="0"
       id="path1144"
       d="M 34.496484,8.00001 A 0.60011442,0.75007417 0 0 0 33.99722,8.341318 L 30.096866,15.84131 A 0.60011442,0.75007417 0 0 0 30.599646,17 h 0.131262 7.669445 a 0.60011442,0.75007417 0 0 0 0.502781,-1.15869 L 35.00278,8.341318 A 0.60011442,0.75007417 0 0 0 34.496484,8.00001 Z"
       style="color:#000000;fill:#008000;stroke-width:1.34170091;stroke-linejoin:round" />
    <path
       inkscape:connector-curvature="0"
       id="path1150"
       d="M 34.496484,27.99999 A 0.60011442,0.75007417 0 0 1 33.99722,27.658682 L 30.096866,20.15869 A 0.60011442,0.75007417 0 0 1 30.599646,19 h 0.131262 7.669445 a 0.60011442,0.75007417 0 0 1 0.502781,1.15869 l -3.900354,7.499992 a 0.60011442,0.75007417 0 0 1 -0.506296,0.341308 z"
       style="color:#000000;fill:#ff0000;stroke-width:1.34170091;stroke-linejoin:round" />
  </g>
  <g
     sodipodi:insensitive="true"
     inkscape:label="text"
     id="layer2"
     inkscape:groupmode="layer">
    <path
       id="rect1019"
       d="M 9.5999996,348.82498 H 28 c 0.8864,0 1.6,0.7136 1.6,1.6 v 12.8 c 0,0.8864 -0.7136,1.6 -1.6,1.6 H 9.5999996 c -0.8864,0 -1.6,-0.7136 -1.6,-1.6 v -12.8 c 0,-0.8864 0.7136,-1.6 1.6,-1.6 z"
       style="opacity:0.7;fill:#ffffff;fill-rule:evenodd;stroke-width:1.60000002;stroke-linecap:round;stroke-linejoin:round;filter:url(#filter946)"
       inkscape:connector-curvature="0"
       transform="matrix(1.2462707,0,0,1.2498717,-7.9671821,-434.98639)" />
    <path
       sodipodi:nodetypes="ccccc"
       inkscape:connector-curvature="0"
       id="path989"
       d="M 24.178814,6.9994871 16.958233,18.998256 h 3.489558 l 7.22837,-11.9987689 z"
       style="color:#000000;fill:#c500ab;stroke-width:1.72937655px" />
    <path
       sodipodi:nodetypes="ccccc"
       inkscape:connector-curvature="0"
       id="path989-7"
       d="M 20.45558,6.9994871 27.676161,18.998256 H 24.186603 L 16.958233,6.9994871 Z"
       style="color:#000000;fill:#c500ab;stroke-width:1.72937655px" />
    <path
       inkscape:connector-curvature="0"
       id="path920"
       d="m 3,2 v 2.9996923 h 7.090113 c 1.079391,0 1.883037,0.5155471 1.883037,1.1502695 v 0.6991533 c 0,0.6347223 -0.803646,1.1502694 -1.883037,1.1502694 H 3 v 2.9996925 h 7.941082 c 2.190962,0 4.023117,-1.7400967 4.023117,-3.9136612 V 5.913661 C 14.964199,3.7400966 13.132044,2 10.941082,2 Z"
       style="color:#000000;fill:#c500ab;fill-rule:evenodd;stroke-width:1.9843508;stroke-linecap:round;stroke-linejoin:round" />
    <path
       inkscape:connector-curvature="0"
       id="path922"
       d="M 3,2 V 18.998256 H 5.9910503 V 2 Z"
       style="color:#000000;fill:#c500ab;stroke-width:1.75538361px" />
    <path
       sodipodi:nodetypes="ccccc"
       inkscape:connector-curvature="0"
       id="path942"
       d="m 7.6918423,9.8227224 4.8810757,9.1755336 h 3.388298 L 10.331004,8.4111052 Z"
       style="color:#000000;fill:#c500ab;stroke-width:1.72937644px" />
  </g>
</svg>
