<?xml version="1.0" encoding="UTF-8" standalone="no"?>
<!-- Created with Inkscape (http://www.inkscape.org/) -->

<svg
   xmlns:dc="http://purl.org/dc/elements/1.1/"
   xmlns:cc="http://creativecommons.org/ns#"
   xmlns:rdf="http://www.w3.org/1999/02/22-rdf-syntax-ns#"
   xmlns:svg="http://www.w3.org/2000/svg"
   xmlns="http://www.w3.org/2000/svg"
   xmlns:xlink="http://www.w3.org/1999/xlink"
   xmlns:sodipodi="http://sodipodi.sourceforge.net/DTD/sodipodi-0.dtd"
   xmlns:inkscape="http://www.inkscape.org/namespaces/inkscape"
   width="48"
   height="48"
   viewBox="0 0 48 48"
   version="1.1"
   id="svg862"
   inkscape:version="0.92.3 (2405546, 2018-03-11)"
   sodipodi:docname="TRxSortFBDataSet_200.svg"
   inkscape:export-filename="TRxSortFBDataSet_200.png"
   inkscape:export-xdpi="96"
   inkscape:export-ydpi="96">
  <sodipodi:namedview
     id="base"
     pagecolor="#ffffff"
     bordercolor="#666666"
     borderopacity="1.0"
     inkscape:pageopacity="0.0"
     inkscape:pageshadow="2"
     inkscape:zoom="17.104167"
     inkscape:cx="24"
     inkscape:cy="24"
     inkscape:document-units="px"
     inkscape:current-layer="layer8"
     showgrid="true"
     units="px"
     inkscape:window-width="1920"
     inkscape:window-height="1018"
     inkscape:window-x="-8"
     inkscape:window-y="-8"
     inkscape:window-maximized="1"
     inkscape:snap-bbox="true"
     inkscape:bbox-nodes="true"
     inkscape:snap-global="true">
    <inkscape:grid
       id="grid1407"
       type="xygrid" />
  </sodipodi:namedview>
  <defs
     id="defs856">
    <inkscape:path-effect
       effect="simplify"
       id="path-effect1290"
       is_visible="true"
       steps="1"
       threshold="0.5"
       smooth_angles="360"
       helper_size="0"
       simplify_individual_paths="false"
       simplify_just_coalesce="false"
       simplifyindividualpaths="false"
       simplifyJustCoalesce="false" />
    <inkscape:path-effect
       effect="simplify"
       id="path-effect1263"
       is_visible="true"
       steps="1"
       threshold="0.5"
       smooth_angles="360"
       helper_size="0"
       simplify_individual_paths="false"
       simplify_just_coalesce="false"
       simplifyindividualpaths="false"
       simplifyJustCoalesce="false" />
    <inkscape:path-effect
       effect="simplify"
       id="path-effect1257"
       is_visible="true"
       steps="1"
       threshold="0.5"
       smooth_angles="360"
       helper_size="0"
       simplify_individual_paths="false"
       simplify_just_coalesce="false"
       simplifyindividualpaths="false"
       simplifyJustCoalesce="false" />
    <inkscape:path-effect
       effect="simplify"
       id="path-effect1232"
       is_visible="true"
       steps="1"
       threshold="0.5"
       smooth_angles="360"
       helper_size="0"
       simplify_individual_paths="false"
       simplify_just_coalesce="false"
       simplifyindividualpaths="false"
       simplifyJustCoalesce="false" />
    <inkscape:path-effect
       effect="simplify"
       id="path-effect1228"
       is_visible="true"
       steps="1"
       threshold="0.5"
       smooth_angles="360"
       helper_size="0"
       simplify_individual_paths="false"
       simplify_just_coalesce="false"
       simplifyindividualpaths="false"
       simplifyJustCoalesce="false" />
    <inkscape:path-effect
       effect="simplify"
       id="path-effect1224"
       is_visible="true"
       steps="1"
       threshold="0.5"
       smooth_angles="360"
       helper_size="0"
       simplify_individual_paths="false"
       simplify_just_coalesce="false"
       simplifyindividualpaths="false"
       simplifyJustCoalesce="false" />
    <inkscape:path-effect
       effect="powerstroke"
       id="path-effect1220"
       is_visible="true"
       offset_points="1,0.5"
       sort_points="true"
       interpolator_type="CubicBezierJohan"
       interpolator_beta="0.2"
       start_linecap_type="zerowidth"
       linejoin_type="extrp_arc"
       miter_limit="4"
       end_linecap_type="zerowidth" />
    <inkscape:path-effect
       effect="simplify"
       id="path-effect1218"
       is_visible="true"
       steps="1"
       threshold="0.5"
       smooth_angles="360"
       helper_size="0"
       simplify_individual_paths="false"
       simplify_just_coalesce="false"
       simplifyindividualpaths="false"
       simplifyJustCoalesce="false" />
    <linearGradient
       id="linearGradient923"
       inkscape:collect="always">
      <stop
         id="stop919"
         offset="0"
         style="stop-color:#b3b3b3" />
      <stop
         style="stop-color:#e6e6e6"
         offset="0.12078682"
         id="stop929" />
      <stop
         id="stop931"
         offset="0.47874999"
         style="stop-color:#ffffff" />
      <stop
         style="stop-color:#e6e6e6"
         offset="0.88"
         id="stop927" />
      <stop
         id="stop921"
         offset="1"
         style="stop-color:#b3b3b3" />
    </linearGradient>
    <filter
       height="1.2819999"
       y="-0.141"
       width="1.2088889"
       x="-0.10444444"
       id="filter946"
       style="color-interpolation-filters:sRGB"
       inkscape:collect="always">
      <feGaussianBlur
         id="feGaussianBlur948"
         stdDeviation="0.94000001"
         inkscape:collect="always" />
    </filter>
    <linearGradient
       gradientTransform="translate(0,-10)"
       gradientUnits="userSpaceOnUse"
       y2="41"
       x2="20"
       y1="16"
       x1="20"
       id="linearGradient925"
       xlink:href="#linearGradient923"
       inkscape:collect="always" />
    <linearGradient
       gradientUnits="userSpaceOnUse"
       y2="37"
       x2="46"
       y1="12"
       x1="46"
       id="linearGradient949"
       xlink:href="#linearGradient923"
       inkscape:collect="always"
       gradientTransform="matrix(1.3333333,0,0,1,-16,-6)" />
  </defs>
  <metadata
     id="metadata859">
    <rdf:RDF>
      <cc:Work
         rdf:about="">
        <dc:format>image/svg+xml</dc:format>
        <dc:type
           rdf:resource="http://purl.org/dc/dcmitype/StillImage" />
        <dc:title />
      </cc:Work>
    </rdf:RDF>
  </metadata>
  <g
     sodipodi:insensitive="true"
     transform="translate(0,-284.29999)"
     id="layer1"
     inkscape:groupmode="layer"
     inkscape:label="base"
     style="display:none">
    <path
       transform="translate(0,284.29999)"
       inkscape:connector-curvature="0"
       id="rect1409"
       d="M 0,0 H 48 V 48 H 0 Z"
       style="fill:#f4e3d7;fill-opacity:0.93922652;stroke-width:2.91042757" />
  </g>
  <g
     inkscape:label="title"
     id="layer3"
     inkscape:groupmode="layer"
     sodipodi:insensitive="true"
     style="display:none">
    <path
       inkscape:connector-curvature="0"
       id="path884"
       d="M 0,4 V 4.690476 33 H 48 V 4 Z"
       style="color:#000000;fill:#808080;stroke-width:1.1630863" />
    <path
       inkscape:connector-curvature="0"
       id="rect836"
       d="M 0,6 H 42 V 31 H 0 Z"
       style="color:#000000;fill:url(#linearGradient925);stroke-width:1.08434844" />
    <path
       inkscape:connector-curvature="0"
       id="rect836-8"
       d="m 44,6 h 4 v 25 h -4 z"
       style="color:#000000;fill:url(#linearGradient949);stroke-width:0.33463722" />
    <path
       inkscape:connector-curvature="0"
       id="rect901"
       d="m 41,6 h 1 v 25 h -1 z"
       style="fill:#4d4d4d;fill-opacity:0.93922652;stroke-width:1.66666675" />
    <path
       inkscape:connector-curvature="0"
       id="rect901-0"
       d="m 43,6 h 1 v 25 h -1 z"
       style="fill:#ffffff;fill-opacity:0.93922652;stroke-width:1.66666675" />
  </g>
  <g
     inkscape:groupmode="layer"
     id="layer4"
     inkscape:label="table">
    <path
       style="color:#000000;fill:#666666;stroke-width:1.23176348;stroke-miterlimit:1"
       d="M 3.706897,17 C 2.771117,17 2,17.903533 2,19 v 16 c 0,1.096467 0.771117,2 1.706897,2 H 33.293103 C 34.228882,37 35,36.096467 35,35 V 19 c 0,-1.096467 -0.771118,-2 -1.706897,-2 z"
       id="path876"
       inkscape:connector-curvature="0" />
    <rect
       style="fill:#ffffff;stroke-width:3.21109176;stroke-miterlimit:1"
       id="rect986"
       width="29"
       height="16"
       x="4"
       y="19" />
    <path
       style="fill:#000000;stroke-width:2.82842731;stroke-miterlimit:1"
       d="m 11,19 h 1 v 16 h -1 z"
       id="rect878"
       inkscape:connector-curvature="0" />
    <path
       style="fill:#000000;stroke-width:2.91547608;stroke-miterlimit:1"
       d="m 24,18 h 1 v 17 h -1 z"
       id="rect878-2"
       inkscape:connector-curvature="0" />
    <path
       style="fill:#000000;stroke-width:3.8078866;stroke-miterlimit:1"
       d="m 33,21 v 1 H 4 v -1 z"
       id="rect878-2-2"
       inkscape:connector-curvature="0" />
    <path
       style="fill:#000000;stroke-width:1.7320509;stroke-miterlimit:1"
       d="m 32,24 v 1 h -6 v -1 z"
       id="rect878-2-2-4"
       inkscape:connector-curvature="0" />
    <path
       style="fill:#000000;stroke-width:1.7320509;stroke-miterlimit:1"
       d="m 32,26 v 1 h -6 v -1 z"
       id="rect878-2-2-4-8"
       inkscape:connector-curvature="0" />
    <path
       style="fill:#000000;stroke-width:1.7320509;stroke-miterlimit:1"
       d="m 32,30 v 1 h -6 v -1 z"
       id="rect878-2-2-4-9"
       inkscape:connector-curvature="0" />
    <path
       style="fill:#d5f6ff;stroke-width:4.2426405;stroke-miterlimit:1"
       d="M 12,22 H 24 V 34 H 12 Z"
       id="rect996-6-3"
       inkscape:connector-curvature="0" />
    <path
       style="fill:#000000;stroke-width:2.23606801;stroke-miterlimit:1"
       d="m 23,24 v 1 H 13 v -1 z"
       id="rect878-2-2-4-2"
       inkscape:connector-curvature="0" />
    <path
       style="fill:#000000;stroke-width:1.73205078;stroke-miterlimit:1"
       d="m 19,26 v 1 h -6 v -1 z"
       id="rect878-2-2-4-0"
       inkscape:connector-curvature="0" />
    <path
       style="fill:#ffeeaa;stroke-width:3.10241818;stroke-miterlimit:1"
       d="m 4,22 h 7 V 33 H 4 Z"
       id="rect996-7"
       inkscape:connector-curvature="0" />
    <path
       style="fill:#000000;stroke-width:1.58113885;stroke-miterlimit:1"
       d="m 10,24 v 1 H 5 v -1 z"
       id="rect878-2-2-4-24"
       inkscape:connector-curvature="0" />
    <path
       style="fill:#000000;stroke-width:1.58113885;stroke-miterlimit:1"
       d="m 10,26 v 1 H 5 v -1 z"
       id="rect878-2-2-4-24-3"
       inkscape:connector-curvature="0" />
    <path
       style="fill:#aa8800;stroke-width:1.32287562;stroke-miterlimit:1"
       d="m 4,19 h 7 v 2 H 4 Z"
       id="rect996"
       inkscape:connector-curvature="0" />
    <path
       style="fill:#216778;stroke-width:1.73205078;stroke-miterlimit:1"
       d="m 12,19 h 12 v 2 H 12 Z"
       id="rect996-6"
       inkscape:connector-curvature="0" />
    <path
       style="fill:#cccccc;stroke-width:1.41421354;stroke-miterlimit:1"
       d="m 25,19 h 8 v 2 h -8 z"
       id="rect996-1"
       inkscape:connector-curvature="0" />
    <path
       style="fill:#000000;stroke-width:1.73205078;stroke-miterlimit:1"
       d="m 19,30 v 1 h -6 v -1 z"
       id="rect878-2-2-4-0-4"
       inkscape:connector-curvature="0" />
    <path
       style="fill:#000000;stroke-width:1.41421342;stroke-miterlimit:1"
       d="m 9,30 v 1 H 5 v -1 z"
       id="rect878-2-2-4-0-9"
       inkscape:connector-curvature="0" />
  </g>
  <g
     inkscape:groupmode="layer"
     id="layer6"
     inkscape:label="dbdriver_base"
     sodipodi:insensitive="true">
    <path
       style="color:#000000;fill:#0060b0;stroke-width:0.75393695;stroke-linejoin:round"
       d="M 3.0657895,30 C 2.4814872,30 2,30.542119 2,31.2 V 44.8 C 2,45.457881 2.4814872,46 3.0657895,46 H 27.934211 C 28.518513,46 29,45.457881 29,44.8 V 31.2 C 29,30.542119 28.518513,30 27.934211,30 Z"
       id="path1142"
       inkscape:connector-curvature="0" />
    <g
       aria-label="F"
       transform="matrix(0.98613948,0,0,1.0140553,0,-1)"
       style="font-size:16.53162384px;font-family:Arial;-inkscape-font-specification:Arial;letter-spacing:0px;word-spacing:0px;fill:#ffffff;stroke-width:0.88562286"
       id="text869">
      <path
         d="M 6.0843319,44.376278 V 32.542606 h 8.1124421 l 1e-6,1.972277 H 8.1124427 v 2.958419 h 5.0702763 v 1.972279 H 8.1124427 v 4.930697 z"
         id="path875"
         inkscape:connector-curvature="0"
         sodipodi:nodetypes="ccccccccccc" />
    </g>
    <g
       aria-label="B"
       transform="matrix(0.94623385,0,0,1.0568212,0,-1)"
       style="font-size:15.86264706px;font-family:Arial;-inkscape-font-specification:Arial;letter-spacing:0px;word-spacing:0px;fill:#ffffff;stroke-width:0.84978473"
       id="text873">
      <path
         d="m 16,33 v 12 h 3.65625 c 1.382737,-0.01091 2.255624,-0.03838 2.617188,-0.08203 0.576546,-0.07094 1.060292,-0.25886 1.451171,-0.564453 0.395766,-0.31105 0.706886,-0.723368 0.931641,-1.236328 C 24.885892,42.598769 25,42.067187 25,41.521484 c 0,-0.693042 -0.175552,-1.295634 -0.527344,-1.808593 -0.351792,-0.512961 -0.855042,-0.87702 -1.509765,-1.089844 0.46417,-0.234652 0.83088,-0.585384 1.099609,-1.054688 0.273616,-0.469304 0.410156,-0.986754 0.410156,-1.548828 0,-0.518417 -0.110208,-0.983703 -0.330078,-1.398437 -0.219869,-0.420191 -0.495877,-0.75679 -0.828125,-1.007813 C 22.987092,33.362258 22.613555,33.199445 22.193359,33.123047 21.77805,33.041191 21.145085,33 20.294922,33 Z m 2,2 h 1.246094 c 1.021172,0 1.638532,0.01542 1.853515,0.04492 0.361564,0.0531 0.633673,0.205297 0.814453,0.458984 0.185669,0.247788 0.277344,0.57343 0.277344,0.97461 0,0.418878 -0.107282,0.757991 -0.322265,1.017578 -0.210098,0.25369 -0.499759,0.405889 -0.871094,0.458984 C 20.792835,37.984578 20.267152,38 19.421875,38 H 18 Z m 0,5 h 1.751953 c 0.986971,0 1.626762,0.05301 1.919922,0.160156 0.298046,0.107144 0.525289,0.278979 0.681641,0.513672 0.156352,0.234694 0.234375,0.520688 0.234375,0.857422 0,0.397959 -0.103382,0.715283 -0.308594,0.955078 -0.200326,0.234694 -0.460728,0.384087 -0.783203,0.445313 C 21.285996,42.977563 20.789571,43 20.007812,43 H 18 Z"
         transform="scale(1.0568212,0.94623386)"
         id="path885"
         inkscape:connector-curvature="0" />
    </g>
  </g>
  <g
     inkscape:groupmode="layer"
     id="layer7"
     inkscape:label="dbdriver_name"
     sodipodi:insensitive="true" />
  <g
     inkscape:groupmode="layer"
     id="layer8"
     inkscape:label="arrow_matte">
    <path
       style="fill:#ffffff;stroke-width:0.7171371;stroke-miterlimit:1"
       d="m 29,17 h 6 v 6 h -6 z"
       id="rect991"
       inkscape:connector-curvature="0" />
  </g>
  <g
     inkscape:groupmode="layer"
     id="layer5"
     inkscape:label="arrow">
    <g
       id="g1118"
       transform="translate(7.0000004,2)"
       style="fill:#008000">
      <path
         inkscape:connector-curvature="0"
         id="path1061"
         d="M 34.496484,1e-5 A 0.60011442,0.75007417 0 0 0 33.99722,0.341318 L 30.096866,7.84131 A 0.60011442,0.75007417 0 0 0 30.599646,9 h 0.131262 7.669445 A 0.60011442,0.75007417 0 0 0 38.903134,7.84131 L 35.00278,0.341318 A 0.60011442,0.75007417 0 0 0 34.496484,1e-5 Z"
         style="color:#000000;stroke-width:1.34170091;stroke-linejoin:round" />
      <path
         inkscape:connector-curvature="0"
         id="rect1063"
         d="M 34,5 A 1.0001,0.92316923 0 0 0 33,5.923077 V 16.076923 A 1.0001,0.92316923 0 0 0 34,17 h 1 a 1.0001,0.92316923 0 0 0 1,-0.923077 V 5.923077 A 1.0001,0.92316923 0 0 0 35,5 Z"
         style="color:#000000;stroke-width:1.92153788;stroke-linejoin:round" />
    </g>
    <g
       id="g1122"
       transform="translate(-7.9999998,-4.9999998)"
       style="fill:#ff0000">
      <path
         inkscape:connector-curvature="0"
         id="path1061-0"
         d="M 41.496484,26.99999 A 0.60011442,0.75007417 0 0 1 40.99722,26.658682 L 37.096866,19.15869 A 0.60011442,0.75007417 0 0 1 37.599646,18 h 0.131262 7.669445 a 0.60011442,0.75007417 0 0 1 0.502781,1.15869 l -3.900354,7.499992 a 0.60011442,0.75007417 0 0 1 -0.506296,0.341308 z"
         style="color:#000000;stroke-width:1.34170091;stroke-linejoin:round" />
      <path
         inkscape:connector-curvature="0"
         id="rect1063-7"
         d="M 41,22 A 1.0001,0.92316923 0 0 1 40,21.076923 V 10.923077 A 1.0001,0.92316923 0 0 1 41,10 h 1 a 1.0001,0.92316923 0 0 1 1,0.923077 V 21.076923 A 1.0001,0.92316923 0 0 1 42,22 Z"
         style="color:#000000;stroke-width:1.92153788;stroke-linejoin:round" />
    </g>
  </g>
  <g
     inkscape:label="triangle"
     id="g1156"
     inkscape:groupmode="layer"
     sodipodi:insensitive="true"
     style="display:none">
    <path
       inkscape:connector-curvature="0"
       id="path1144"
       d="M 34.496484,8.00001 A 0.60011442,0.75007417 0 0 0 33.99722,8.341318 L 30.096866,15.84131 A 0.60011442,0.75007417 0 0 0 30.599646,17 h 0.131262 7.669445 a 0.60011442,0.75007417 0 0 0 0.502781,-1.15869 L 35.00278,8.341318 A 0.60011442,0.75007417 0 0 0 34.496484,8.00001 Z"
       style="color:#000000;fill:#008000;stroke-width:1.34170091;stroke-linejoin:round" />
    <path
       inkscape:connector-curvature="0"
       id="path1150"
       d="M 34.496484,27.99999 A 0.60011442,0.75007417 0 0 1 33.99722,27.658682 L 30.096866,20.15869 A 0.60011442,0.75007417 0 0 1 30.599646,19 h 0.131262 7.669445 a 0.60011442,0.75007417 0 0 1 0.502781,1.15869 l -3.900354,7.499992 a 0.60011442,0.75007417 0 0 1 -0.506296,0.341308 z"
       style="color:#000000;fill:#ff0000;stroke-width:1.34170091;stroke-linejoin:round" />
  </g>
  <g
     sodipodi:insensitive="true"
     inkscape:label="text"
     id="layer2"
     inkscape:groupmode="layer">
    <path
       id="rect1019"
       d="M 9.5999996,348.82498 H 28 c 0.8864,0 1.6,0.7136 1.6,1.6 v 12.8 c 0,0.8864 -0.7136,1.6 -1.6,1.6 H 9.5999996 c -0.8864,0 -1.6,-0.7136 -1.6,-1.6 v -12.8 c 0,-0.8864 0.7136,-1.6 1.6,-1.6 z"
       style="opacity:0.7;fill:#ffffff;fill-rule:evenodd;stroke-width:1.60000002;stroke-linecap:round;stroke-linejoin:round;filter:url(#filter946)"
       inkscape:connector-curvature="0"
       transform="matrix(1.2462707,0,0,1.2498717,-7.9671821,-434.98639)" />
    <path
       sodipodi:nodetypes="ccccc"
       inkscape:connector-curvature="0"
       id="path989"
       d="M 24.178814,6.9994871 16.958233,18.998256 h 3.489558 l 7.22837,-11.9987689 z"
       style="color:#000000;fill:#c500ab;stroke-width:1.72937655px" />
    <path
       sodipodi:nodetypes="ccccc"
       inkscape:connector-curvature="0"
       id="path989-7"
       d="M 20.45558,6.9994871 27.676161,18.998256 H 24.186603 L 16.958233,6.9994871 Z"
       style="color:#000000;fill:#c500ab;stroke-width:1.72937655px" />
    <path
       inkscape:connector-curvature="0"
       id="path920"
       d="m 3,2 v 2.9996923 h 7.090113 c 1.079391,0 1.883037,0.5155471 1.883037,1.1502695 v 0.6991533 c 0,0.6347223 -0.803646,1.1502694 -1.883037,1.1502694 H 3 v 2.9996925 h 7.941082 c 2.190962,0 4.023117,-1.7400967 4.023117,-3.9136612 V 5.913661 C 14.964199,3.7400966 13.132044,2 10.941082,2 Z"
       style="color:#000000;fill:#c500ab;fill-rule:evenodd;stroke-width:1.9843508;stroke-linecap:round;stroke-linejoin:round" />
    <path
       inkscape:connector-curvature="0"
       id="path922"
       d="M 3,2 V 18.998256 H 5.9910503 V 2 Z"
       style="color:#000000;fill:#c500ab;stroke-width:1.75538361px" />
    <path
       sodipodi:nodetypes="ccccc"
       inkscape:connector-curvature="0"
       id="path942"
       d="m 7.6918423,9.8227224 4.8810757,9.1755336 h 3.388298 L 10.331004,8.4111052 Z"
       style="color:#000000;fill:#c500ab;stroke-width:1.72937644px" />
  </g>
</svg>
