<?xml version="1.0" encoding="UTF-8" standalone="no"?>
<!-- Created with Inkscape (http://www.inkscape.org/) -->

<svg
   xmlns:dc="http://purl.org/dc/elements/1.1/"
   xmlns:cc="http://creativecommons.org/ns#"
   xmlns:rdf="http://www.w3.org/1999/02/22-rdf-syntax-ns#"
   xmlns:svg="http://www.w3.org/2000/svg"
   xmlns="http://www.w3.org/2000/svg"
   xmlns:sodipodi="http://sodipodi.sourceforge.net/DTD/sodipodi-0.dtd"
   xmlns:inkscape="http://www.inkscape.org/namespaces/inkscape"
   width="24"
   height="24"
   viewBox="0 0 24 24"
   id="svg4225"
   version="1.1"
   inkscape:version="0.92.2 (5c3e80d, 2017-08-06)"
   sodipodi:docname="tdividerbevel.svg"
   inkscape:export-filename="tdividerbevel.png"
   inkscape:export-xdpi="96"
   inkscape:export-ydpi="96">
  <defs
     id="defs4227" />
  <sodipodi:namedview
     id="base"
     pagecolor="#ffffff"
     bordercolor="#666666"
     borderopacity="1.0"
     inkscape:pageopacity="0.0"
     inkscape:pageshadow="2"
     inkscape:zoom="31.333405"
     inkscape:cx="8.4761263"
     inkscape:cy="8.9888129"
     inkscape:document-units="px"
     inkscape:current-layer="layer1"
     showgrid="true"
     inkscape:snap-bbox="true"
     inkscape:bbox-paths="true"
     inkscape:bbox-nodes="true"
     inkscape:snap-bbox-edge-midpoints="true"
     inkscape:snap-bbox-midpoints="true"
     inkscape:object-paths="true"
     inkscape:snap-intersection-paths="true"
     inkscape:object-nodes="true"
     inkscape:snap-smooth-nodes="true"
     inkscape:snap-midpoints="true"
     inkscape:snap-object-midpoints="true"
     inkscape:snap-center="true"
     units="px"
     inkscape:window-width="1920"
     inkscape:window-height="1137"
     inkscape:window-x="-8"
     inkscape:window-y="-8"
     inkscape:window-maximized="1"
     showguides="true"
     inkscape:guide-bbox="true">
    <inkscape:grid
       type="xygrid"
       id="grid4241" />
  </sodipodi:namedview>
  <metadata
     id="metadata4230">
    <rdf:RDF>
      <cc:Work
         rdf:about="">
        <dc:format>image/svg+xml</dc:format>
        <dc:type
           rdf:resource="http://purl.org/dc/dcmitype/StillImage" />
        <dc:title />
      </cc:Work>
    </rdf:RDF>
  </metadata>
  <g
     inkscape:label="Ebene 1"
     inkscape:groupmode="layer"
     id="layer1"
     transform="translate(0,-1028.3622)">
    <rect
       style="opacity:1;fill:#cccccc;fill-opacity:0.49803922;fill-rule:evenodd;stroke:none;stroke-width:0;stroke-linecap:square;stroke-linejoin:round;stroke-miterlimit:4;stroke-dasharray:none;stroke-dashoffset:0;stroke-opacity:1;paint-order:normal"
       id="rect843"
       width="24"
       height="24"
       x="0"
       y="1028.3622" />
    <g
       aria-label="DB"
       style="font-style:normal;font-variant:normal;font-weight:bold;font-stretch:normal;font-size:10.66666698px;line-height:25px;font-family:'Liberation Sans Narrow';-inkscape-font-specification:'Liberation Sans Narrow Bold';letter-spacing:0px;word-spacing:0px;fill:#3771c8;fill-opacity:1;stroke:none;stroke-width:1px;stroke-linecap:butt;stroke-linejoin:miter;stroke-opacity:1"
       id="text847"
       transform="translate(0.2000002)">
      <path
         d="m 11.055583,1039.8092 q 0,0.9167 -0.229166,1.6146 -0.223959,0.6927 -0.619792,1.1615 -0.390625,0.4687 -0.9270834,0.7083 -0.5364583,0.2396 -1.15625,0.2396 H 5.6909998 v -7.3385 h 2.1770834 q 0.6979167,0 1.2812501,0.2135 0.5885417,0.2135 1.0104167,0.6563 0.421875,0.4427 0.65625,1.125 0.239583,0.6822 0.239583,1.6197 z m -1.270833,0 q 0,-0.6406 -0.1458334,-1.0989 -0.140625,-0.4583 -0.3958333,-0.75 -0.2552084,-0.2969 -0.6145834,-0.4375 -0.3541666,-0.1406 -0.7864583,-0.1406 H 6.9514165 v 4.9635 h 1.0677084 q 0.3802084,0 0.703125,-0.1615 0.3229167,-0.1614 0.5572917,-0.4791 0.2395834,-0.3229 0.3697917,-0.7969 0.1354167,-0.474 0.1354167,-1.099 z"
         id="path853"
         inkscape:connector-curvature="0" />
      <path
         d="m 17.336833,1041.4395 q 0,0.5572 -0.1875,0.9583 -0.182291,0.3958 -0.5,0.651 -0.317708,0.25 -0.739583,0.3698 -0.421875,0.1146 -0.895833,0.1146 H 12.0035 v -7.3385 h 2.755208 q 0.53125,0 0.947917,0.1145 0.416667,0.1094 0.703125,0.3386 0.286458,0.2292 0.432292,0.5781 0.145833,0.3438 0.145833,0.8125 0,0.625 -0.286458,1.0573 -0.28125,0.4271 -0.859375,0.5781 0.729166,0.1042 1.109375,0.5625 0.385416,0.4532 0.385416,1.2032 z m -1.614583,-3.1928 q 0,-0.4947 -0.260417,-0.7031 -0.255208,-0.2083 -0.765625,-0.2083 h -1.432291 v 1.8177 h 1.442708 q 0.53125,0 0.770833,-0.224 0.244792,-0.2291 0.244792,-0.6823 z m 0.348958,3.073 q 0,-0.2917 -0.09375,-0.4896 -0.09375,-0.1979 -0.260416,-0.3177 -0.161459,-0.1198 -0.380209,-0.1719 -0.21875,-0.052 -0.479166,-0.052 h -1.59375 v 2.1042 h 1.645833 q 0.25,0 0.458333,-0.047 0.213542,-0.052 0.369792,-0.1719 0.15625,-0.125 0.244792,-0.3333 0.08854,-0.2083 0.08854,-0.5208 z"
         id="path855"
         inkscape:connector-curvature="0" />
    </g>
    <path
       style="fill:#b3b3b3;fill-rule:evenodd;stroke:#999999;stroke-width:1px;stroke-linecap:butt;stroke-linejoin:miter;stroke-opacity:1"
       d="M 0,1037.8622 H 4"
       id="path858"
       inkscape:connector-curvature="0"
       sodipodi:nodetypes="cc" />
    <path
       style="fill:none;fill-rule:evenodd;stroke:#ffffff;stroke-width:1px;stroke-linecap:butt;stroke-linejoin:miter;stroke-opacity:1"
       d="m 3.5,1038.3622 v 3.5 H 0"
       id="path860"
       inkscape:connector-curvature="0"
       sodipodi:nodetypes="ccc" />
    <path
       sodipodi:nodetypes="cc"
       inkscape:connector-curvature="0"
       id="path862"
       d="M 24,1041.8622 H 20"
       style="fill:#ffffff;fill-rule:evenodd;stroke:#ffffff;stroke-width:1px;stroke-linecap:butt;stroke-linejoin:miter;stroke-opacity:1" />
    <path
       sodipodi:nodetypes="ccc"
       inkscape:connector-curvature="0"
       id="path864"
       d="m 19.5,1042.3622 v -4.5 H 24"
       style="fill:none;fill-rule:evenodd;stroke:#999999;stroke-width:1px;stroke-linecap:butt;stroke-linejoin:miter;stroke-opacity:1" />
  </g>
</svg>
