<?xml version="1.0" encoding="UTF-8" standalone="no"?>
<!-- Created with Inkscape (http://www.inkscape.org/) -->

<svg
   xmlns:dc="http://purl.org/dc/elements/1.1/"
   xmlns:cc="http://creativecommons.org/ns#"
   xmlns:rdf="http://www.w3.org/1999/02/22-rdf-syntax-ns#"
   xmlns:svg="http://www.w3.org/2000/svg"
   xmlns="http://www.w3.org/2000/svg"
   xmlns:xlink="http://www.w3.org/1999/xlink"
   xmlns:sodipodi="http://sodipodi.sourceforge.net/DTD/sodipodi-0.dtd"
   xmlns:inkscape="http://www.inkscape.org/namespaces/inkscape"
   width="24"
   height="24"
   viewBox="0 0 24 24"
   id="svg4225"
   version="1.1"
   inkscape:version="0.92.2 (5c3e80d, 2017-08-06)"
   sodipodi:docname="teditbutton.svg"
   inkscape:export-filename="teditbutton.png"
   inkscape:export-xdpi="96"
   inkscape:export-ydpi="96">
  <defs
     id="defs4227">
    <linearGradient
       inkscape:collect="always"
       id="linearGradient850">
      <stop
         style="stop-color:#e6e6e6;stop-opacity:1"
         offset="0"
         id="stop846" />
      <stop
         style="stop-color:#f9f9f9;stop-opacity:1"
         offset="1"
         id="stop848" />
    </linearGradient>
    <linearGradient
       inkscape:collect="always"
       xlink:href="#linearGradient850"
       id="linearGradient852"
       x1="20"
       y1="1046.3622"
       x2="20"
       y2="1034.3622"
       gradientUnits="userSpaceOnUse"
       gradientTransform="matrix(1,0,0,0.92307826,0,79.526478)" />
  </defs>
  <sodipodi:namedview
     id="base"
     pagecolor="#ffffff"
     bordercolor="#666666"
     borderopacity="1.0"
     inkscape:pageopacity="0.0"
     inkscape:pageshadow="2"
     inkscape:zoom="20.00523"
     inkscape:cx="2.0005867"
     inkscape:cy="9.2919569"
     inkscape:document-units="px"
     inkscape:current-layer="layer1"
     showgrid="true"
     inkscape:snap-bbox="true"
     inkscape:bbox-paths="true"
     inkscape:bbox-nodes="true"
     inkscape:snap-bbox-edge-midpoints="true"
     inkscape:snap-bbox-midpoints="true"
     inkscape:object-paths="true"
     inkscape:snap-intersection-paths="true"
     inkscape:object-nodes="true"
     inkscape:snap-smooth-nodes="true"
     inkscape:snap-midpoints="true"
     inkscape:snap-object-midpoints="true"
     inkscape:snap-center="true"
     units="px"
     inkscape:window-width="1920"
     inkscape:window-height="1137"
     inkscape:window-x="-8"
     inkscape:window-y="-8"
     inkscape:window-maximized="1"
     showguides="true"
     inkscape:guide-bbox="true">
    <inkscape:grid
       type="xygrid"
       id="grid4241" />
  </sodipodi:namedview>
  <metadata
     id="metadata4230">
    <rdf:RDF>
      <cc:Work
         rdf:about="">
        <dc:format>image/svg+xml</dc:format>
        <dc:type
           rdf:resource="http://purl.org/dc/dcmitype/StillImage" />
        <dc:title />
      </cc:Work>
    </rdf:RDF>
  </metadata>
  <g
     inkscape:label="Ebene 1"
     inkscape:groupmode="layer"
     id="layer1"
     transform="translate(0,-1028.3622)">
    <rect
       style="opacity:1;fill:#7f9db9;fill-opacity:1;stroke:none;stroke-width:0;stroke-linecap:round;stroke-linejoin:round;stroke-miterlimit:4;stroke-dasharray:none;stroke-dashoffset:0;stroke-opacity:1;paint-order:normal"
       id="rect820"
       width="16"
       height="13.000017"
       x="0"
       y="1033.3622" />
    <rect
       style="opacity:1;fill:#ffffff;fill-opacity:1;stroke:none;stroke-width:0;stroke-linecap:round;stroke-linejoin:round;stroke-miterlimit:4;stroke-dasharray:none;stroke-dashoffset:0;stroke-opacity:1;paint-order:normal"
       id="rect818"
       width="14"
       height="11.000017"
       x="1"
       y="1034.3622" />
    <g
       aria-label="ab"
       style="font-style:normal;font-weight:normal;font-size:10.66666698px;line-height:25px;font-family:sans-serif;letter-spacing:0px;word-spacing:0px;fill:#000000;fill-opacity:1;stroke:none;stroke-width:1px;stroke-linecap:butt;stroke-linejoin:miter;stroke-opacity:1"
       id="text859">
      <path
         d="M 7.2545417,1043.1212 H 6.400375 v -0.8333 h -0.020833 q -0.5572917,0.9583 -1.6406251,0.9583 -0.796875,0 -1.25,-0.4219 -0.4479167,-0.4218 -0.4479167,-1.1198 0,-1.4947 1.7604167,-1.7395 l 1.5989584,-0.224 q 0,-1.3594 -1.0989584,-1.3594 -0.9635417,0 -1.7395833,0.6563 v -0.875 q 0.7864583,-0.5 1.8125,-0.5 1.8802084,0 1.8802084,1.9896 z m -0.8541667,-2.6979 -1.2864584,0.1771 q -0.59375,0.083 -0.8958333,0.2969 -0.3020834,0.2083 -0.3020834,0.7447 0,0.3907 0.2760417,0.6407 0.28125,0.2448 0.7447917,0.2448 0.6354167,0 1.046875,-0.4427 0.4166667,-0.448 0.4166667,-1.1303 z"
         style="font-style:normal;font-variant:normal;font-weight:normal;font-stretch:normal;font-size:10.66666698px;font-family:'Segoe UI';-inkscape-font-specification:'Segoe UI'"
         id="path865" />
      <path
         d="m 9.7493333,1042.3504 h -0.020833 v 0.7708 H 8.8743332 v -7.8958 h 0.8541667 v 3.5 h 0.020833 q 0.6302087,-1.0625 1.8437497,-1.0625 1.026042,0 1.604167,0.7187 0.583333,0.7136 0.583333,1.9167 0,1.3385 -0.651041,2.1458 -0.651042,0.8021 -1.78125,0.8021 -1.057292,0 -1.5989587,-0.8958 z m -0.020833,-2.1511 v 0.7448 q 0,0.6615 0.4270831,1.125 0.432292,0.4584 1.09375,0.4584 0.776042,0 1.213542,-0.5938 0.442708,-0.5937 0.442708,-1.651 0,-0.8907 -0.411458,-1.3959 -0.411458,-0.5052 -1.114583,-0.5052 -0.744792,0 -1.197917,0.5209 -0.4531251,0.5156 -0.4531251,1.2968 z"
         style="font-style:normal;font-variant:normal;font-weight:normal;font-stretch:normal;font-size:10.66666698px;font-family:'Segoe UI';-inkscape-font-specification:'Segoe UI'"
         id="path867" />
    </g>
    <rect
       style="opacity:1;fill:url(#linearGradient852);fill-opacity:1;fill-rule:evenodd;stroke:#3771c8;stroke-width:1;stroke-linecap:round;stroke-linejoin:round;stroke-miterlimit:4;stroke-dasharray:none;stroke-dashoffset:0;stroke-opacity:1;paint-order:normal"
       id="rect844"
       width="6"
       height="12.000017"
       x="17.5"
       y="1033.8622" />
  </g>
</svg>
