<?xml version="1.0" encoding="UTF-8" standalone="no"?>
<!-- Created with Inkscape (http://www.inkscape.org/) -->

<svg
   xmlns:dc="http://purl.org/dc/elements/1.1/"
   xmlns:cc="http://creativecommons.org/ns#"
   xmlns:rdf="http://www.w3.org/1999/02/22-rdf-syntax-ns#"
   xmlns:svg="http://www.w3.org/2000/svg"
   xmlns="http://www.w3.org/2000/svg"
   xmlns:sodipodi="http://sodipodi.sourceforge.net/DTD/sodipodi-0.dtd"
   xmlns:inkscape="http://www.inkscape.org/namespaces/inkscape"
   width="48"
   height="48"
   viewBox="0 0 48 48"
   id="svg4225"
   version="1.1"
   inkscape:version="0.92.2 (5c3e80d, 2017-08-06)"
   sodipodi:docname="tstringgrid_200.svg"
   inkscape:export-filename="tstringgrid_200.png"
   inkscape:export-xdpi="96"
   inkscape:export-ydpi="96">
  <defs
     id="defs4227" />
  <sodipodi:namedview
     id="base"
     pagecolor="#ffffff"
     bordercolor="#666666"
     borderopacity="1.0"
     inkscape:pageopacity="0.0"
     inkscape:pageshadow="2"
     inkscape:zoom="15.839192"
     inkscape:cx="22.237286"
     inkscape:cy="26.614489"
     inkscape:document-units="px"
     inkscape:current-layer="layer1"
     showgrid="true"
     inkscape:snap-bbox="true"
     inkscape:bbox-paths="true"
     inkscape:bbox-nodes="true"
     inkscape:snap-bbox-edge-midpoints="true"
     inkscape:snap-bbox-midpoints="true"
     inkscape:object-paths="true"
     inkscape:snap-intersection-paths="true"
     inkscape:object-nodes="true"
     inkscape:snap-smooth-nodes="true"
     inkscape:snap-midpoints="true"
     inkscape:snap-object-midpoints="true"
     inkscape:snap-center="true"
     units="px"
     inkscape:window-width="1920"
     inkscape:window-height="1137"
     inkscape:window-x="-8"
     inkscape:window-y="-8"
     inkscape:window-maximized="1">
    <inkscape:grid
       type="xygrid"
       id="grid4241" />
  </sodipodi:namedview>
  <metadata
     id="metadata4230">
    <rdf:RDF>
      <cc:Work
         rdf:about="">
        <dc:format>image/svg+xml</dc:format>
        <dc:type
           rdf:resource="http://purl.org/dc/dcmitype/StillImage" />
        <dc:title />
      </cc:Work>
    </rdf:RDF>
  </metadata>
  <g
     inkscape:label="Ebene 1"
     inkscape:groupmode="layer"
     id="layer1"
     transform="translate(0,-1004.3622)">
    <g
       aria-label="abc"
       style="font-style:normal;font-weight:normal;font-size:24px;line-height:50px;font-family:sans-serif;letter-spacing:0px;word-spacing:0px;fill:#376bbe;fill-opacity:1;stroke:none;stroke-width:1px;stroke-linecap:butt;stroke-linejoin:miter;stroke-opacity:1"
       id="text838-9">
      <path
         d="M 22.427084,1049.7122 H 20.71875 v -1.6667 h -0.04167 q -1.114584,1.9167 -3.281251,1.9167 -1.59375,0 -2.5,-0.8438 Q 14,1048.2747 14,1046.8788 q 0,-2.9896 3.520833,-3.4791 l 3.197917,-0.448 q 0,-2.7187 -2.197917,-2.7187 -1.927083,0 -3.479166,1.3125 v -1.75 q 1.572916,-1 3.625,-1 3.760417,0 3.760417,3.9792 z m -1.708334,-5.3959 -2.572917,0.3542 q -1.1875,0.1667 -1.791666,0.5937 -0.604167,0.4167 -0.604167,1.4896 0,0.7813 0.552083,1.2813 0.5625,0.4896 1.489584,0.4896 1.270833,0 2.09375,-0.8855 0.833333,-0.8958 0.833333,-2.2604 z"
         style="font-style:normal;font-variant:normal;font-weight:normal;font-stretch:normal;font-size:21.33333397px;font-family:'Segoe UI';-inkscape-font-specification:'Segoe UI';stroke-width:1px;fill:#376bbe;fill-opacity:1"
         id="path830" />
      <path
         d="M 27.416667,1048.1705 H 27.375 v 1.5417 h -1.708333 v -15.7917 H 27.375 v 7 h 0.04167 q 1.260416,-2.125 3.6875,-2.125 2.052083,0 3.208333,1.4375 1.166667,1.4271 1.166667,3.8333 0,2.6771 -1.302083,4.2917 -1.302084,1.6042 -3.5625,1.6042 -2.114584,0 -3.197917,-1.7917 z m -0.04167,-4.3021 v 1.4896 q 0,1.3229 0.854167,2.25 0.864583,0.9167 2.1875,0.9167 1.552083,0 2.427083,-1.1875 0.885417,-1.1875 0.885417,-3.3021 0,-1.7813 -0.822917,-2.7917 -0.822916,-1.0104 -2.229166,-1.0104 -1.489584,0 -2.395834,1.0417 -0.90625,1.0312 -0.90625,2.5937 z"
         style="font-style:normal;font-variant:normal;font-weight:normal;font-stretch:normal;font-size:21.33333397px;font-family:'Segoe UI';-inkscape-font-specification:'Segoe UI';stroke-width:1px;fill:#376bbe;fill-opacity:1"
         id="path832" />
      <path
         d="m 45.479168,1049.2226 q -1.229166,0.7396 -2.916667,0.7396 -2.28125,0 -3.6875,-1.4792 -1.395833,-1.4896 -1.395833,-3.8542 0,-2.6354 1.510417,-4.2291 1.510416,-1.6042 4.03125,-1.6042 1.40625,0 2.479167,0.5208 v 1.75 q -1.1875,-0.8333 -2.541667,-0.8333 -1.635417,0 -2.6875,1.1771 -1.041667,1.1666 -1.041667,3.0729 0,1.875 0.979167,2.9583 0.989583,1.0834 2.645833,1.0834 1.395834,0 2.625,-0.9271 z"
         style="font-style:normal;font-variant:normal;font-weight:normal;font-stretch:normal;font-size:21.33333397px;font-family:'Segoe UI';-inkscape-font-specification:'Segoe UI';stroke-width:1px;fill:#376bbe;fill-opacity:1"
         id="path834" />
    </g>
    <g
       id="g914"
       transform="translate(53.5,1.5000174)">
      <rect
         y="1007.8622"
         x="-48.5"
         height="24"
         width="36"
         id="rect835"
         style="opacity:1;fill:#ffffff;fill-opacity:1;stroke:#4d4d4d;stroke-width:2;stroke-linecap:round;stroke-linejoin:round;stroke-miterlimit:4;stroke-dasharray:none;stroke-dashoffset:0;stroke-opacity:1;paint-order:normal" />
      <path
         inkscape:connector-curvature="0"
         id="path837"
         d="m -47.5,1011.8622 h 34"
         style="fill:#4d4d4d;fill-opacity:1;fill-rule:evenodd;stroke:#4d4d4d;stroke-width:2px;stroke-linecap:butt;stroke-linejoin:miter;stroke-opacity:1" />
      <path
         inkscape:connector-curvature="0"
         id="path839"
         d="m -44.5,1012.8622 v 18"
         style="fill:#4d4d4d;fill-opacity:1;fill-rule:evenodd;stroke:#4d4d4d;stroke-width:2px;stroke-linecap:butt;stroke-linejoin:miter;stroke-opacity:1" />
      <path
         inkscape:connector-curvature="0"
         id="path841"
         d="m -32.5,1012.8622 v 18"
         style="fill:#4d4d4d;fill-opacity:1;fill-rule:evenodd;stroke:#4d4d4d;stroke-width:2px;stroke-linecap:butt;stroke-linejoin:miter;stroke-opacity:1" />
      <path
         inkscape:connector-curvature="0"
         id="path843"
         d="m -41.5,1015.8622 h 6"
         style="fill:none;fill-rule:evenodd;stroke:#000000;stroke-width:2px;stroke-linecap:butt;stroke-linejoin:miter;stroke-opacity:1" />
      <path
         style="fill:none;fill-rule:evenodd;stroke:#000000;stroke-width:2px;stroke-linecap:butt;stroke-linejoin:miter;stroke-opacity:1"
         d="m -41.5,1027.8622 h 6"
         id="path845"
         inkscape:connector-curvature="0" />
      <path
         inkscape:connector-curvature="0"
         id="path847-5"
         d="m -41.5,1023.8622 h 6"
         style="fill:none;fill-rule:evenodd;stroke:#000000;stroke-width:2px;stroke-linecap:butt;stroke-linejoin:miter;stroke-opacity:1" />
      <path
         style="fill:none;fill-rule:evenodd;stroke:#000000;stroke-width:2px;stroke-linecap:butt;stroke-linejoin:miter;stroke-opacity:1"
         d="m -41.5,1019.8622 h 6"
         id="path849"
         inkscape:connector-curvature="0" />
      <path
         style="fill:none;fill-rule:evenodd;stroke:#000000;stroke-width:2px;stroke-linecap:butt;stroke-linejoin:miter;stroke-opacity:1"
         d="m -29.500002,1015.8622 h 14"
         id="path851"
         inkscape:connector-curvature="0" />
      <path
         inkscape:connector-curvature="0"
         id="path853"
         d="m -29.5,1027.8622 h 12"
         style="fill:none;fill-rule:evenodd;stroke:#000000;stroke-width:2px;stroke-linecap:butt;stroke-linejoin:miter;stroke-opacity:1" />
      <path
         style="fill:none;fill-rule:evenodd;stroke:#000000;stroke-width:2px;stroke-linecap:butt;stroke-linejoin:miter;stroke-opacity:1"
         d="m -29.500002,1023.862 h 14"
         id="path855"
         inkscape:connector-curvature="0" />
      <path
         inkscape:connector-curvature="0"
         id="path857"
         d="m -29.5,1019.8622 h 12"
         style="fill:none;fill-rule:evenodd;stroke:#000000;stroke-width:2px;stroke-linecap:butt;stroke-linejoin:miter;stroke-opacity:1" />
      <rect
         style="opacity:1;fill:#e6e6e6;fill-opacity:1;stroke:none;stroke-width:2;stroke-linecap:round;stroke-linejoin:round;stroke-miterlimit:4;stroke-dasharray:none;stroke-dashoffset:0;stroke-opacity:1;paint-order:normal"
         id="rect864"
         width="2"
         height="18.000034"
         x="-47.5"
         y="1012.8622" />
      <rect
         y="1008.8622"
         x="-47.5"
         height="2"
         width="34"
         id="rect874"
         style="opacity:1;fill:#e6e6e6;fill-opacity:1;stroke:none;stroke-width:2;stroke-linecap:round;stroke-linejoin:round;stroke-miterlimit:4;stroke-dasharray:none;stroke-dashoffset:0;stroke-opacity:1;paint-order:normal" />
    </g>
  </g>
</svg>
