<?xml version="1.0" encoding="UTF-8" standalone="no"?>
<!-- Created with Inkscape (http://www.inkscape.org/) -->

<svg
   xmlns:dc="http://purl.org/dc/elements/1.1/"
   xmlns:cc="http://creativecommons.org/ns#"
   xmlns:rdf="http://www.w3.org/1999/02/22-rdf-syntax-ns#"
   xmlns:svg="http://www.w3.org/2000/svg"
   xmlns="http://www.w3.org/2000/svg"
   xmlns:sodipodi="http://sodipodi.sourceforge.net/DTD/sodipodi-0.dtd"
   xmlns:inkscape="http://www.inkscape.org/namespaces/inkscape"
   width="36"
   height="36"
   viewBox="0 0 36 36"
   id="svg4225"
   version="1.1"
   inkscape:version="0.92.2 (5c3e80d, 2017-08-06)"
   sodipodi:docname="tstringgrid_150.svg"
   inkscape:export-filename="tstringgrid_150.png"
   inkscape:export-xdpi="96"
   inkscape:export-ydpi="96">
  <defs
     id="defs4227" />
  <sodipodi:namedview
     id="base"
     pagecolor="#ffffff"
     bordercolor="#666666"
     borderopacity="1.0"
     inkscape:pageopacity="0.0"
     inkscape:pageshadow="2"
     inkscape:zoom="15.839192"
     inkscape:cx="6.7954714"
     inkscape:cy="13.561986"
     inkscape:document-units="px"
     inkscape:current-layer="layer1"
     showgrid="true"
     inkscape:snap-bbox="true"
     inkscape:bbox-paths="true"
     inkscape:bbox-nodes="true"
     inkscape:snap-bbox-edge-midpoints="true"
     inkscape:snap-bbox-midpoints="true"
     inkscape:object-paths="true"
     inkscape:snap-intersection-paths="true"
     inkscape:object-nodes="true"
     inkscape:snap-smooth-nodes="true"
     inkscape:snap-midpoints="true"
     inkscape:snap-object-midpoints="true"
     inkscape:snap-center="true"
     units="px"
     inkscape:window-width="1920"
     inkscape:window-height="1137"
     inkscape:window-x="-8"
     inkscape:window-y="-8"
     inkscape:window-maximized="1"
     showguides="false">
    <inkscape:grid
       type="xygrid"
       id="grid4241" />
  </sodipodi:namedview>
  <metadata
     id="metadata4230">
    <rdf:RDF>
      <cc:Work
         rdf:about="">
        <dc:format>image/svg+xml</dc:format>
        <dc:type
           rdf:resource="http://purl.org/dc/dcmitype/StillImage" />
        <dc:title />
      </cc:Work>
    </rdf:RDF>
  </metadata>
  <g
     inkscape:label="Ebene 1"
     inkscape:groupmode="layer"
     id="layer1"
     transform="translate(0,-1016.3622)">
    <g
       aria-label="abc"
       style="font-style:normal;font-weight:normal;font-size:18px;line-height:37.5px;font-family:sans-serif;letter-spacing:0px;word-spacing:0px;fill:#376bbe;fill-opacity:1;stroke:none;stroke-width:1px;stroke-linecap:butt;stroke-linejoin:miter;stroke-opacity:1"
       id="text838">
      <path
         d="m 16.320312,1050.3748 h -1.281249 v -1.25 h -0.03125 q -0.835938,1.4375 -2.460938,1.4375 -1.195312,0 -1.875,-0.6329 Q 10,1049.2966 10,1048.2498 q 0,-2.2422 2.640625,-2.6094 l 2.398438,-0.336 q 0,-2.039 -1.648438,-2.039 -1.445312,0 -2.609375,0.9844 v -1.3125 q 1.179688,-0.75 2.71875,-0.75 2.820312,0 2.820312,2.9843 z m -1.281249,-4.0469 -1.929688,0.2656 q -0.890625,0.125 -1.34375,0.4453 -0.453125,0.3125 -0.453125,1.1172 0,0.5859 0.414063,0.9609 0.421875,0.3672 1.117187,0.3672 0.953125,0 1.570313,-0.664 0.625,-0.6719 0.625,-1.6953 z"
         style="font-style:normal;font-variant:normal;font-weight:normal;font-stretch:normal;font-size:16px;font-family:'Segoe UI';-inkscape-font-specification:'Segoe UI';stroke-width:1px;fill:#376bbe;fill-opacity:1"
         id="path829" />
      <path
         d="m 20.0625,1049.2185 h -0.03125 v 1.1563 H 18.75 v -11.8438 h 1.28125 v 5.25 h 0.03125 q 0.945312,-1.5937 2.765625,-1.5937 1.539062,0 2.40625,1.0781 0.875,1.0703 0.875,2.875 0,2.0078 -0.976563,3.2187 -0.976562,1.2032 -2.671875,1.2032 -1.585937,0 -2.398437,-1.3438 z m -0.03125,-3.2266 v 1.1172 q 0,0.9922 0.640625,1.6875 0.648437,0.6875 1.640625,0.6875 1.164062,0 1.820312,-0.8906 0.664063,-0.8906 0.664063,-2.4766 0,-1.3359 -0.617188,-2.0937 -0.617187,-0.7578 -1.671875,-0.7578 -1.117187,0 -1.796875,0.7812 -0.679687,0.7735 -0.679687,1.9453 z"
         style="font-style:normal;font-variant:normal;font-weight:normal;font-stretch:normal;font-size:16px;font-family:'Segoe UI';-inkscape-font-specification:'Segoe UI';stroke-width:1px;fill:#376bbe;fill-opacity:1"
         id="path831" />
      <path
         d="m 33.609375,1050.0076 q -0.921875,0.5547 -2.1875,0.5547 -1.710938,0 -2.765625,-1.1094 -1.046875,-1.1172 -1.046875,-2.8906 0,-1.9766 1.132812,-3.1719 1.132813,-1.2031 3.023438,-1.2031 1.054687,0 1.859375,0.3906 v 1.3125 q -0.890625,-0.625 -1.90625,-0.625 -1.226563,0 -2.015625,0.8828 -0.78125,0.875 -0.78125,2.3047 0,1.4062 0.734375,2.2187 0.742187,0.8125 1.984375,0.8125 1.046875,0 1.96875,-0.6953 z"
         style="font-style:normal;font-variant:normal;font-weight:normal;font-stretch:normal;font-size:16px;font-family:'Segoe UI';-inkscape-font-specification:'Segoe UI';stroke-width:1px;fill:#376bbe;fill-opacity:1"
         id="path833" />
    </g>
    <rect
       style="opacity:1;fill:#ffffff;fill-opacity:1;stroke:#4d4d4d;stroke-width:1;stroke-linecap:round;stroke-linejoin:round;stroke-miterlimit:4;stroke-dasharray:none;stroke-dashoffset:0;stroke-opacity:1;paint-order:normal"
       id="rect835"
       width="28"
       height="18.999983"
       x="3.5"
       y="1019.8622" />
    <path
       style="fill:#4d4d4d;fill-opacity:1;fill-rule:evenodd;stroke:#4d4d4d;stroke-width:1.00000012px;stroke-linecap:butt;stroke-linejoin:miter;stroke-opacity:1"
       d="M 4,1022.8622 H 31.000002"
       id="path837"
       inkscape:connector-curvature="0" />
    <path
       style="fill:#4d4d4d;fill-opacity:1;fill-rule:evenodd;stroke:#4d4d4d;stroke-width:0.99999994px;stroke-linecap:butt;stroke-linejoin:miter;stroke-opacity:1"
       d="m 6.499999,1023.3622 v 15"
       id="path839"
       inkscape:connector-curvature="0" />
    <path
       style="fill:#4d4d4d;fill-opacity:1;fill-rule:evenodd;stroke:#4d4d4d;stroke-width:0.99999994px;stroke-linecap:butt;stroke-linejoin:miter;stroke-opacity:1"
       d="m 15.499999,1023.3622 v 15"
       id="path841"
       inkscape:connector-curvature="0" />
    <path
       style="fill:none;fill-rule:evenodd;stroke:#000000;stroke-width:1px;stroke-linecap:butt;stroke-linejoin:miter;stroke-opacity:1"
       d="M 9.0000001,1025.8622 H 13"
       id="path843"
       inkscape:connector-curvature="0" />
    <path
       inkscape:connector-curvature="0"
       id="path845"
       d="M 9.0000001,1034.8622 H 13"
       style="fill:none;fill-rule:evenodd;stroke:#000000;stroke-width:1px;stroke-linecap:butt;stroke-linejoin:miter;stroke-opacity:1" />
    <path
       style="fill:none;fill-rule:evenodd;stroke:#000000;stroke-width:1px;stroke-linecap:butt;stroke-linejoin:miter;stroke-opacity:1"
       d="M 9.0000001,1031.8622 H 13"
       id="path847-5"
       inkscape:connector-curvature="0" />
    <path
       inkscape:connector-curvature="0"
       id="path849"
       d="M 9.0000001,1028.8622 H 13"
       style="fill:none;fill-rule:evenodd;stroke:#000000;stroke-width:1px;stroke-linecap:butt;stroke-linejoin:miter;stroke-opacity:1" />
    <path
       inkscape:connector-curvature="0"
       id="path851"
       d="M 18,1025.8622 H 28.694444"
       style="fill:none;fill-rule:evenodd;stroke:#000000;stroke-width:1px;stroke-linecap:butt;stroke-linejoin:miter;stroke-opacity:1" />
    <path
       style="fill:none;fill-rule:evenodd;stroke:#000000;stroke-width:1px;stroke-linecap:butt;stroke-linejoin:miter;stroke-opacity:1"
       d="m 18,1034.8622 h 9.166667"
       id="path853"
       inkscape:connector-curvature="0" />
    <path
       inkscape:connector-curvature="0"
       id="path855"
       d="M 18,1031.8622 H 28.694444"
       style="fill:none;fill-rule:evenodd;stroke:#000000;stroke-width:1px;stroke-linecap:butt;stroke-linejoin:miter;stroke-opacity:1" />
    <path
       style="fill:none;fill-rule:evenodd;stroke:#000000;stroke-width:1px;stroke-linecap:butt;stroke-linejoin:miter;stroke-opacity:1"
       d="m 18,1028.8622 h 9.166667"
       id="path857"
       inkscape:connector-curvature="0" />
    <rect
       y="1023.3622"
       x="4"
       height="14.999999"
       width="1.9999999"
       id="rect864"
       style="opacity:1;fill:#e6e6e6;fill-opacity:1;stroke:none;stroke-width:0.99999982;stroke-linecap:round;stroke-linejoin:round;stroke-miterlimit:4;stroke-dasharray:none;stroke-dashoffset:0;stroke-opacity:1;paint-order:normal" />
    <rect
       style="opacity:1;fill:#e6e6e6;fill-opacity:1;stroke:none;stroke-width:0.99999994;stroke-linecap:round;stroke-linejoin:round;stroke-miterlimit:4;stroke-dasharray:none;stroke-dashoffset:0;stroke-opacity:1;paint-order:normal"
       id="rect874"
       width="26.999998"
       height="2.000061"
       x="4"
       y="1020.3622" />
  </g>
</svg>
