<?xml version="1.0" encoding="UTF-8" standalone="no"?>
<!-- Created with Inkscape (http://www.inkscape.org/) -->

<svg
   xmlns:dc="http://purl.org/dc/elements/1.1/"
   xmlns:cc="http://creativecommons.org/ns#"
   xmlns:rdf="http://www.w3.org/1999/02/22-rdf-syntax-ns#"
   xmlns:svg="http://www.w3.org/2000/svg"
   xmlns="http://www.w3.org/2000/svg"
   xmlns:sodipodi="http://sodipodi.sourceforge.net/DTD/sodipodi-0.dtd"
   xmlns:inkscape="http://www.inkscape.org/namespaces/inkscape"
   width="36"
   height="36"
   viewBox="0 0 36 36"
   version="1.1"
   id="svg870"
   inkscape:version="0.92.3 (2405546, 2018-03-11)"
   sodipodi:docname="tdice_rx_150.svg"
   inkscape:export-filename="D:\temp\rx\work\tdice_rx_150.png"
   inkscape:export-xdpi="96"
   inkscape:export-ydpi="96">
  <defs
     id="defs864">
    <inkscape:perspective
       sodipodi:type="inkscape:persp3d"
       inkscape:vp_x="23.733083 : 11.066918 : 0"
       inkscape:vp_y="5.7812877e-014 : 1037.5862 : 0"
       inkscape:vp_z="20.939008 : -9.7640197 : 0"
       inkscape:persp3d-origin="23.128626 : 17.840617 : 1"
       id="perspective842" />
  </defs>
  <sodipodi:namedview
     id="base"
     pagecolor="#ffffff"
     bordercolor="#666666"
     borderopacity="1.0"
     inkscape:pageopacity="0.0"
     inkscape:pageshadow="2"
     inkscape:zoom="5.6568543"
     inkscape:cx="2.472728"
     inkscape:cy="9.704796"
     inkscape:document-units="px"
     inkscape:current-layer="layer2"
     showgrid="true"
     units="px"
     inkscape:window-width="1920"
     inkscape:window-height="1018"
     inkscape:window-x="-8"
     inkscape:window-y="-8"
     inkscape:window-maximized="1"
     inkscape:snap-global="true"
     showguides="false"
     inkscape:guide-bbox="true"
     inkscape:snap-grids="false"
     inkscape:snap-object-midpoints="true"
     inkscape:measure-start="11.4106,-4.90373"
     inkscape:measure-end="11.9764,-4.71513">
    <inkscape:grid
       type="xygrid"
       id="grid1418" />
  </sodipodi:namedview>
  <metadata
     id="metadata867">
    <rdf:RDF>
      <cc:Work
         rdf:about="">
        <dc:format>image/svg+xml</dc:format>
        <dc:type
           rdf:resource="http://purl.org/dc/dcmitype/StillImage" />
        <dc:title></dc:title>
      </cc:Work>
    </rdf:RDF>
  </metadata>
  <g
     inkscape:label="base"
     inkscape:groupmode="layer"
     id="layer1"
     transform="translate(0,-296.29999)"
     style="display:inline"
     sodipodi:insensitive="true">
    <path
       style="opacity:1;fill:none;fill-opacity:1;stroke:none;stroke-width:4.41460323;stroke-linecap:butt;stroke-linejoin:round;stroke-miterlimit:4;stroke-dasharray:none;stroke-opacity:1;paint-order:stroke fill markers"
       d="m 0,296.29999 h 36 v 36 H 0 Z"
       id="rect1420"
       inkscape:connector-curvature="0" />
  </g>
  <g
     inkscape:groupmode="layer"
     id="layer7"
     inkscape:label="shadow"
     transform="translate(0,-12)" />
  <g
     inkscape:groupmode="layer"
     id="layer5"
     inkscape:label="cube"
     transform="translate(0,-12)">
    <path
       d="m 29.641523,27.112944 -10.14057,4.726562 v 11.040455 l 9.904153,-4.744572 z"
       style="opacity:1;fill:#f2f2f2;fill-opacity:1;fill-rule:evenodd;stroke:#007cf6;stroke-width:1.02447271;stroke-linecap:butt;stroke-linejoin:round;stroke-miterlimit:4;stroke-dasharray:none;stroke-opacity:1;paint-order:normal"
       id="path1060"
       inkscape:connector-curvature="0"
       sodipodi:nodetypes="ccccc" />
    <path
       d="m 19.351291,23.3694 -9.9174926,3.777763 10.0671546,4.692343 10.14057,-4.726562 z"
       style="opacity:1;fill:#f2f2f2;fill-opacity:1;fill-rule:evenodd;stroke:#007cf6;stroke-width:1.02447271;stroke-linecap:butt;stroke-linejoin:round;stroke-miterlimit:4;stroke-dasharray:none;stroke-opacity:1;paint-order:normal"
       id="path1062"
       inkscape:connector-curvature="0"
       sodipodi:nodetypes="ccccc" />
    <path
       d="m 9.4337984,27.147163 0.1867623,11.04894 9.8803923,4.683858 V 31.839506 Z"
       style="opacity:1;fill:#f2f2f2;fill-opacity:1;fill-rule:evenodd;stroke:#007cf6;stroke-width:1.02447271;stroke-linecap:butt;stroke-linejoin:round;stroke-miterlimit:4;stroke-dasharray:none;stroke-opacity:1;paint-order:normal"
       id="path1064"
       inkscape:connector-curvature="0"
       sodipodi:nodetypes="ccccc" />
  </g>
  <g
     inkscape:label="dot3"
     id="g1223"
     inkscape:groupmode="layer"
     style="display:inline"
     transform="translate(0,-12)">
    <path
       inkscape:connector-curvature="0"
       id="path1213"
       d="m 25.779188,34.437969 a 0.96056462,1.5190471 38.491805 0 1 -1.207951,1.766432 0.96056462,1.5190471 38.491805 0 1 -1.207947,-0.649468 0.96056462,1.5190471 38.491805 0 1 1.207947,-1.76643 0.96056462,1.5190471 38.491805 0 1 1.207951,0.649466 z"
       style="opacity:1;fill:#005ebb;fill-opacity:1;stroke:none;stroke-width:0.07683545;stroke-linecap:butt;stroke-linejoin:round;stroke-miterlimit:4;stroke-dasharray:none;stroke-opacity:1;paint-order:stroke fill markers" />
    <path
       inkscape:connector-curvature="0"
       id="path1215"
       d="m 23.442459,33.181599 a 0.96056462,1.5190471 38.491805 0 1 -1.207951,1.766433 0.96056462,1.5190471 38.491805 0 1 -1.20795,-0.649467 0.96056462,1.5190471 38.491805 0 1 1.20795,-1.766432 0.96056462,1.5190471 38.491805 0 1 1.207951,0.649466 z"
       style="opacity:1;fill:#005ebb;fill-opacity:1;stroke:none;stroke-width:0.07683545;stroke-linecap:butt;stroke-linejoin:round;stroke-miterlimit:4;stroke-dasharray:none;stroke-opacity:1;paint-order:stroke fill markers" />
    <path
       inkscape:connector-curvature="0"
       id="path1217"
       d="m 28.149081,35.712167 a 0.96056462,1.5190471 38.491805 0 1 -1.20795,1.766432 0.96056462,1.5190471 38.491805 0 1 -1.207948,-0.649466 0.96056462,1.5190471 38.491805 0 1 1.207948,-1.766432 0.96056462,1.5190471 38.491805 0 1 1.20795,0.649466 z"
       style="opacity:1;fill:#005ebb;fill-opacity:1;stroke:none;stroke-width:0.07683545;stroke-linecap:butt;stroke-linejoin:round;stroke-miterlimit:4;stroke-dasharray:none;stroke-opacity:1;paint-order:stroke fill markers" />
  </g>
  <g
     inkscape:label="dot5"
     id="g1237"
     inkscape:groupmode="layer"
     style="display:inline"
     transform="translate(0,-12)">
    <path
       inkscape:connector-curvature="0"
       id="path1227"
       d="m 15.698154,35.617112 a 1.5690114,0.96545818 51.888332 0 1 -1.230777,0.627227 1.5690114,0.96545818 51.888332 0 1 -1.230779,-1.83433 1.5690114,0.96545818 51.888332 0 1 1.230779,-0.627226 1.5690114,0.96545818 51.888332 0 1 1.230777,1.834329 z"
       style="opacity:1;fill:#005ebb;fill-opacity:1;stroke:none;stroke-width:0.07683546;stroke-linecap:butt;stroke-linejoin:round;stroke-miterlimit:4;stroke-dasharray:none;stroke-opacity:1;paint-order:stroke fill markers" />
    <path
       inkscape:connector-curvature="0"
       id="path1229"
       d="m 13.317264,32.068673 a 1.5690114,0.96545818 51.888332 0 1 -1.23078,0.627227 1.5690114,0.96545818 51.888332 0 1 -1.230777,-1.834334 1.5690114,0.96545818 51.888332 0 1 1.230777,-0.627222 1.5690114,0.96545818 51.888332 0 1 1.23078,1.834329 z"
       style="opacity:1;fill:#005ebb;fill-opacity:1;stroke:none;stroke-width:0.07683546;stroke-linecap:butt;stroke-linejoin:round;stroke-miterlimit:4;stroke-dasharray:none;stroke-opacity:1;paint-order:stroke fill markers" />
    <path
       inkscape:connector-curvature="0"
       id="path1231"
       d="m 18.112834,39.215915 a 1.5690114,0.96545818 51.888332 0 1 -1.230777,0.627225 1.5690114,0.96545818 51.888332 0 1 -1.230778,-1.834333 1.5690114,0.96545818 51.888332 0 1 1.230778,-0.627224 1.5690114,0.96545818 51.888332 0 1 1.230777,1.834332 z"
       style="opacity:1;fill:#005ebb;fill-opacity:1;stroke:none;stroke-width:0.07683546;stroke-linecap:butt;stroke-linejoin:round;stroke-miterlimit:4;stroke-dasharray:none;stroke-opacity:1;paint-order:stroke fill markers" />
    <path
       inkscape:connector-curvature="0"
       id="path1233"
       d="m 18.098749,34.393732 a 1.5690114,0.96545818 51.888332 0 1 -1.230779,0.627225 1.5690114,0.96545818 51.888332 0 1 -1.230778,-1.83433 1.5690114,0.96545818 51.888332 0 1 1.230778,-0.627226 1.5690114,0.96545818 51.888332 0 1 1.230779,1.834331 z"
       style="opacity:1;fill:#005ebb;fill-opacity:1;stroke:none;stroke-width:0.07683546;stroke-linecap:butt;stroke-linejoin:round;stroke-miterlimit:4;stroke-dasharray:none;stroke-opacity:1;paint-order:stroke fill markers" />
    <path
       inkscape:connector-curvature="0"
       id="path1235"
       d="m 13.283474,36.847675 a 1.5690114,0.96545818 51.888332 0 1 -1.230778,0.627227 1.5690114,0.96545818 51.888332 0 1 -1.230779,-1.834333 1.5690114,0.96545818 51.888332 0 1 1.230779,-0.627224 1.5690114,0.96545818 51.888332 0 1 1.230778,1.83433 z"
       style="opacity:1;fill:#005ebb;fill-opacity:1;stroke:none;stroke-width:0.07683546;stroke-linecap:butt;stroke-linejoin:round;stroke-miterlimit:4;stroke-dasharray:none;stroke-opacity:1;paint-order:stroke fill markers" />
  </g>
  <g
     inkscape:label="dot1"
     id="g1209"
     inkscape:groupmode="layer"
     style="display:inline"
     transform="translate(0,-12)">
    <path
       inkscape:connector-curvature="0"
       id="path1199"
       d="m 20.837271,27.014774 a 0.72257232,1.8679357 89.544613 0 1 0.04203,1.021489 0.72257232,1.8679357 89.544613 0 1 -2.641255,0.03417 0.72257232,1.8679357 89.544613 0 1 -0.04204,-1.021477 0.72257232,1.8679357 89.544613 0 1 2.641256,-0.03417 z"
       style="opacity:1;fill:#005ebb;fill-opacity:1;stroke:none;stroke-width:0.07683545;stroke-linecap:butt;stroke-linejoin:round;stroke-miterlimit:4;stroke-dasharray:none;stroke-opacity:1;paint-order:stroke fill markers" />
  </g>
  <g
     inkscape:groupmode="layer"
     id="layer2"
     inkscape:label="text"
     style="display:inline"
     transform="translate(0,-12)">
    <flowRoot
       xml:space="preserve"
       id="flowRoot914-8"
       style="font-style:normal;font-variant:normal;font-weight:normal;font-stretch:normal;font-size:12px;line-height:1.25;font-family:'Arial Unicode MS';-inkscape-font-specification:'Arial Unicode MS';letter-spacing:0px;word-spacing:0px;clip-rule:evenodd;fill:#c500ab;fill-opacity:1;fill-rule:evenodd;stroke:#ffffff;stroke-width:2.96764684;stroke-linecap:round;stroke-linejoin:round;stroke-miterlimit:4;stroke-dasharray:none;stroke-opacity:1;paint-order:markers stroke fill;image-rendering:optimizeQuality;shape-rendering:geometricPrecision;text-rendering:geometricPrecision"
       transform="matrix(0.69531428,0,0,0.82672154,-1.4999422,11.646973)"><flowRegion
         id="flowRegion916-5"
         style="fill:#c500ab;fill-opacity:1;stroke:#ffffff;stroke-width:2.96764684;stroke-linecap:round;stroke-linejoin:round;stroke-miterlimit:4;stroke-dasharray:none;stroke-opacity:1;paint-order:markers stroke fill"><rect
           id="rect918-0"
           width="38.14209"
           height="34.674625"
           x="3.4674628"
           y="-1.8781176"
           style="fill:#c500ab;fill-opacity:1;stroke:#ffffff;stroke-width:2.96764684;stroke-linecap:round;stroke-linejoin:round;stroke-miterlimit:4;stroke-dasharray:none;stroke-opacity:1;paint-order:markers stroke fill" /></flowRegion><flowPara
         id="flowPara920-2"
         style="font-style:normal;font-variant:normal;font-weight:bold;font-stretch:normal;font-size:21.33333397px;font-family:Arial;-inkscape-font-specification:'Arial Bold';stroke:#ffffff;stroke-width:2.96764684;stroke-linecap:round;stroke-linejoin:round;stroke-miterlimit:4;stroke-dasharray:none;stroke-opacity:1;paint-order:markers stroke fill">Rx</flowPara></flowRoot>  </g>
</svg>
