<?xml version="1.0" encoding="UTF-8" standalone="no"?>
<!-- Created with Inkscape (http://www.inkscape.org/) -->

<svg
   xmlns:dc="http://purl.org/dc/elements/1.1/"
   xmlns:cc="http://creativecommons.org/ns#"
   xmlns:rdf="http://www.w3.org/1999/02/22-rdf-syntax-ns#"
   xmlns:svg="http://www.w3.org/2000/svg"
   xmlns="http://www.w3.org/2000/svg"
   xmlns:sodipodi="http://sodipodi.sourceforge.net/DTD/sodipodi-0.dtd"
   xmlns:inkscape="http://www.inkscape.org/namespaces/inkscape"
   width="16"
   height="16"
   id="svg2"
   sodipodi:version="0.32"
   inkscape:version="0.92.3 (2405546, 2018-03-11)"
   version="1.0"
   sodipodi:docname="issue_fpgui.svg"
   inkscape:output_extension="org.inkscape.output.svg.inkscape"
   inkscape:export-filename="issue_fpgui.png"
   inkscape:export-xdpi="96"
   inkscape:export-ydpi="96">
  <defs
     id="defs4" />
  <sodipodi:namedview
     id="base"
     pagecolor="#ffffff"
     bordercolor="#666666"
     borderopacity="1.0"
     inkscape:pageopacity="0.0"
     inkscape:pageshadow="2"
     inkscape:zoom="72.259923"
     inkscape:cx="7.6380155"
     inkscape:cy="8.293359"
     inkscape:document-units="px"
     inkscape:current-layer="layer1"
     showgrid="true"
     objecttolerance="10"
     gridtolerance="10"
     guidetolerance="10"
     showguides="true"
     inkscape:guide-bbox="true"
     inkscape:window-width="1920"
     inkscape:window-height="1137"
     inkscape:window-x="-8"
     inkscape:window-y="-8"
     inkscape:snap-bbox="true"
     inkscape:bbox-paths="true"
     inkscape:bbox-nodes="true"
     inkscape:snap-bbox-edge-midpoints="true"
     inkscape:snap-bbox-midpoints="true"
     inkscape:object-paths="true"
     inkscape:snap-intersection-paths="true"
     inkscape:object-nodes="true"
     inkscape:snap-smooth-nodes="true"
     inkscape:snap-midpoints="true"
     inkscape:snap-object-midpoints="true"
     inkscape:snap-center="true"
     inkscape:window-maximized="1"
     inkscape:snap-grids="true">
    <inkscape:grid
       type="xygrid"
       id="grid2409"
       visible="true"
       enabled="true"
       spacingx="0.5"
       spacingy="0.5"
       empspacing="2"
       snapvisiblegridlinesonly="true"
       originx="0"
       originy="0" />
  </sodipodi:namedview>
  <metadata
     id="metadata7">
    <rdf:RDF>
      <cc:Work
         rdf:about="">
        <dc:format>image/svg+xml</dc:format>
        <dc:type
           rdf:resource="http://purl.org/dc/dcmitype/StillImage" />
        <dc:title />
      </cc:Work>
    </rdf:RDF>
  </metadata>
  <g
     inkscape:label="Ebene 1"
     inkscape:groupmode="layer"
     id="layer1">
    <g
       id="g865">
      <g
         id="g857">
        <path
           inkscape:connector-curvature="0"
           id="path845"
           style="font-style:normal;font-variant:normal;font-weight:bold;font-stretch:normal;font-size:medium;line-height:25px;font-family:Corbel;-inkscape-font-specification:'Corbel Bold';letter-spacing:0px;word-spacing:0px;fill:#374548;fill-opacity:1;stroke:none;stroke-width:1px;stroke-linecap:butt;stroke-linejoin:miter;stroke-opacity:1"
           d="M 4.0582682,7.3 H 2.9417318 V 1.202344 H 6.8245442 V 2.1365887 H 4.0582682 V 3.7134116 H 6.4235025 V 4.6476563 H 4.0582682 Z" />
        <path
           inkscape:connector-curvature="0"
           id="path847"
           style="font-style:normal;font-variant:normal;font-weight:bold;font-stretch:normal;font-size:medium;line-height:25px;font-family:Corbel;-inkscape-font-specification:'Corbel Bold';letter-spacing:0px;word-spacing:0px;fill:#374548;fill-opacity:1;stroke:none;stroke-width:1.00004828px;stroke-linecap:butt;stroke-linejoin:miter;stroke-opacity:1"
           d="m 9.6863609,4.939323 q -0.1504046,0 -0.2962526,-0.00456 Q 9.2442612,4.930203 9.1166439,4.916534 V 7.3 H 8 V 1.202344 h 1.7592849 q 0.4420991,0 0.7702561,0.041016 0.332715,0.036458 0.592505,0.1139323 0.62441,0.1914062 0.961683,0.610677 0.337271,0.4192709 0.337271,1.0664062 0,0.4420573 -0.182308,0.7975261 Q 12.056381,4.182813 11.705436,4.4289067 11.354491,4.6750005 10.848583,4.8071619 10.342674,4.9393234 9.6863609,4.939323 Z M 9.1166439,3.9777345 q 0.095709,0.013672 0.2415602,0.022786 0.1504056,0.00456 0.309926,0.00456 0.4512159,0 0.7565839,-0.072917 0.305367,-0.072917 0.492235,-0.2005209 0.186867,-0.1321614 0.268906,-0.3144531 0.08203,-0.1868489 0.08203,-0.4055989 0,-0.2688802 -0.123057,-0.4648437 Q 11.021776,2.3507814 10.716409,2.2414064 10.556888,2.1867194 10.319886,2.1639324 10.087441,2.1365884 9.7456116,2.1365884 H 9.1166439 Z" />
        <path
           inkscape:connector-curvature="0"
           id="path835"
           style="font-style:normal;font-variant:normal;font-weight:bold;font-stretch:normal;font-size:medium;line-height:25px;font-family:Corbel;-inkscape-font-specification:'Corbel Bold';letter-spacing:0px;word-spacing:0px;fill:#374548;fill-opacity:1;stroke:none;stroke-width:1px;stroke-linecap:butt;stroke-linejoin:miter;stroke-opacity:1"
           d="M 4.884375,12.117188 H 3.7125 v -0.800782 h 2.1289062 v 2.636719 q -0.1171875,0.04297 -0.3007812,0.08984 -0.1796875,0.04687 -0.40625,0.08203 -0.2226563,0.03906 -0.4609375,0.0625 -0.2382813,0.02344 -0.4726563,0.02344 -0.7031249,0 -1.2304687,-0.1875 -0.5234375,-0.191407 -0.875,-0.535157 Q 1.7476562,13.144531 1.571875,12.671875 1.4,12.195313 1.4,11.621094 1.4,11.214844 1.489844,10.847656 1.583594,10.476563 1.7593753,10.164063 1.9390625,9.8476563 2.1929688,9.59375 2.446875,9.3398438 2.7710938,9.1601563 3.0992188,8.9804688 3.4859375,8.8867188 q 0.390625,-0.097656 0.8359375,-0.097656 0.3945312,0 0.75,0.058594 0.3554687,0.054687 0.5820312,0.1367187 v 0.8125 q -0.3046875,-0.097657 -0.6171875,-0.148438 -0.3085937,-0.050781 -0.625,-0.050781 -0.4257812,0 -0.7968749,0.1289062 -0.3710938,0.125 -0.6445313,0.3750003 -0.2695312,0.246093 -0.4257812,0.609375 -0.15625,0.363281 -0.15625,0.839843 0.00391,0.925782 0.484375,1.390625 0.4804687,0.460938 1.3632812,0.460938 0.1640625,0 0.3398437,-0.01563 0.1757813,-0.01953 0.3085938,-0.04687 z" />
        <path
           inkscape:connector-curvature="0"
           id="path837"
           style="font-style:normal;font-variant:normal;font-weight:bold;font-stretch:normal;font-size:medium;line-height:25px;font-family:Corbel;-inkscape-font-specification:'Corbel Bold';letter-spacing:0px;word-spacing:0px;fill:#374548;fill-opacity:1;stroke:none;stroke-width:1px;stroke-linecap:butt;stroke-linejoin:miter;stroke-opacity:1"
           d="m 9.0735938,14.210938 q -0.4101562,0 -0.7382812,-0.08203 -0.328125,-0.07813 -0.5781251,-0.226564 -0.25,-0.152344 -0.4257812,-0.367188 -0.1757813,-0.21875 -0.28125,-0.492187 -0.085937,-0.21875 -0.125,-0.484375 Q 6.89,12.292969 6.89,11.964844 V 8.8867188 h 0.9570313 v 2.9921872 q 0,0.554688 0.1328125,0.867188 0.1484375,0.347656 0.4335938,0.503906 0.2851562,0.152344 0.671875,0.152344 0.3867187,0 0.671875,-0.152344 0.2851564,-0.15625 0.4335934,-0.503906 0.132813,-0.3125 0.132813,-0.867188 V 8.8867188 h 0.957031 v 3.0781252 q 0,0.328125 -0.03906,0.59375 -0.03516,0.265625 -0.121093,0.484375 -0.105469,0.273437 -0.285157,0.492187 -0.175781,0.214844 -0.433593,0.367188 -0.253907,0.148437 -0.5859377,0.226562 -0.3320312,0.08203 -0.7421875,0.08203 z" />
        <path
           inkscape:connector-curvature="0"
           id="path839"
           style="font-style:normal;font-variant:normal;font-weight:bold;font-stretch:normal;font-size:medium;line-height:25px;font-family:Corbel;-inkscape-font-specification:'Corbel Bold';letter-spacing:0px;word-spacing:0px;fill:#374548;fill-opacity:1;stroke:none;stroke-width:1px;stroke-linecap:butt;stroke-linejoin:miter;stroke-opacity:1"
           d="M 12.919,14.113281 V 8.8867188 h 0.957031 v 5.2265622 z" />
      </g>
    </g>
  </g>
</svg>
