<?xml version="1.0" encoding="UTF-8" standalone="no"?>
<!-- Created with Inkscape (http://www.inkscape.org/) -->

<svg
   xmlns:dc="http://purl.org/dc/elements/1.1/"
   xmlns:cc="http://creativecommons.org/ns#"
   xmlns:rdf="http://www.w3.org/1999/02/22-rdf-syntax-ns#"
   xmlns:svg="http://www.w3.org/2000/svg"
   xmlns="http://www.w3.org/2000/svg"
   xmlns:sodipodi="http://sodipodi.sourceforge.net/DTD/sodipodi-0.dtd"
   xmlns:inkscape="http://www.inkscape.org/namespaces/inkscape"
   width="24"
   height="24"
   id="svg2"
   sodipodi:version="0.32"
   inkscape:version="0.92.3 (2405546, 2018-03-11)"
   version="1.0"
   sodipodi:docname="issue_qt_150.svg"
   inkscape:output_extension="org.inkscape.output.svg.inkscape"
   inkscape:export-filename="issue_qt_150.png"
   inkscape:export-xdpi="96"
   inkscape:export-ydpi="96">
  <defs
     id="defs4" />
  <sodipodi:namedview
     id="base"
     pagecolor="#ffffff"
     bordercolor="#666666"
     borderopacity="1.0"
     inkscape:pageopacity="0.0"
     inkscape:pageshadow="2"
     inkscape:zoom="58.75"
     inkscape:cx="12"
     inkscape:cy="12"
     inkscape:document-units="px"
     inkscape:current-layer="layer1"
     showgrid="true"
     objecttolerance="10"
     gridtolerance="10"
     guidetolerance="10"
     showguides="true"
     inkscape:guide-bbox="true"
     inkscape:window-width="1920"
     inkscape:window-height="1137"
     inkscape:window-x="-8"
     inkscape:window-y="-8"
     inkscape:window-maximized="1"
     inkscape:snap-bbox="true"
     inkscape:bbox-paths="true"
     inkscape:bbox-nodes="true"
     inkscape:snap-bbox-edge-midpoints="true"
     inkscape:snap-bbox-midpoints="true"
     inkscape:object-paths="true"
     inkscape:snap-intersection-paths="true"
     inkscape:object-nodes="true"
     inkscape:snap-smooth-nodes="true"
     inkscape:snap-midpoints="true"
     inkscape:snap-object-midpoints="true"
     inkscape:snap-center="true">
    <inkscape:grid
       type="xygrid"
       id="grid2409"
       visible="true"
       enabled="true"
       spacingx="0.5"
       spacingy="0.5"
       empspacing="2"
       snapvisiblegridlinesonly="true"
       originx="0"
       originy="0" />
  </sodipodi:namedview>
  <metadata
     id="metadata7">
    <rdf:RDF>
      <cc:Work
         rdf:about="">
        <dc:format>image/svg+xml</dc:format>
        <dc:type
           rdf:resource="http://purl.org/dc/dcmitype/StillImage" />
        <dc:title />
      </cc:Work>
    </rdf:RDF>
  </metadata>
  <g
     inkscape:label="Ebene 1"
     inkscape:groupmode="layer"
     id="layer1"
     transform="translate(0,-24)">
    <path
       style="fill:#88aa00;fill-opacity:1;fill-rule:evenodd;stroke:none;stroke-width:1.5px;stroke-linecap:butt;stroke-linejoin:miter;stroke-opacity:1"
       d="M 2,42 V 30 l 2,-2 h 16 l 2,2 v 12 l -2,2 H 4 Z"
       id="path836"
       inkscape:connector-curvature="0"
       sodipodi:nodetypes="ccccccccc" />
    <path
       style="font-style:normal;font-variant:normal;font-weight:bold;font-stretch:normal;font-size:medium;line-height:25px;font-family:Corbel;-inkscape-font-specification:'Corbel Bold';letter-spacing:0px;word-spacing:0px;fill:#ffffff;fill-opacity:1;stroke:none;stroke-width:1.42381477px;stroke-linecap:butt;stroke-linejoin:miter;stroke-opacity:1"
       inkscape:connector-curvature="0"
       id="path848"
       d="m 11.690049,36.000991 q 0,-0.953125 -0.211172,-1.664062 -0.211171,-0.71875 -0.584242,-1.195313 -0.373069,-0.476562 -0.886921,-0.710937 -0.5138511,-0.234375 -1.126249,-0.234375 -0.6123982,0 -1.1262489,0.234375 -0.5138507,0.234375 -0.8869215,0.710937 -0.3730698,0.476563 -0.5842412,1.195313 -0.2111723,0.710937 -0.2111723,1.664062 0,0.953126 0.2111723,1.671876 0.2111714,0.710937 0.5842412,1.1875 0.3730708,0.468749 0.8869215,0.710936 0.5138508,0.234375 1.1262489,0.234375 0.6123979,0 1.126249,-0.234375 0.513852,-0.242187 0.886921,-0.710936 0.373071,-0.476563 0.584242,-1.1875 0.211172,-0.71875 0.211172,-1.671876 z m 0.190055,3.890625 q 0.175976,-0.05469 0.401226,-0.101564 0.22525,-0.04687 0.464577,-0.07812 0.246367,-0.03125 0.485696,-0.04687 0.246367,-0.01563 0.478655,-0.01563 H 13.844 v 1.664062 q -0.37307,-0.03906 -0.900999,-0.0625 -0.527929,-0.02345 -1.11921,-0.02345 -0.443461,0 -0.795414,0.02345 -0.351953,0.02344 -0.710944,0.04687 -0.351953,0.03124 -0.7391019,0.05469 -0.3801087,0.02344 -0.7461396,0.02344 -1.1051323,0 -1.9498187,-0.390624 Q 6.0376856,40.594744 5.4604826,39.883808 4.8832809,39.172867 4.5876401,38.188492 4.292,37.196304 4.292,36.000991 q 0,-1.195312 0.3026791,-2.187499 0.3097188,-1.000001 0.8939609,-1.718751 0.5912802,-0.71875 1.4430063,-1.117187 0.8587653,-0.398438 1.9498187,-0.398438 1.091054,0 1.94278,0.398438 0.858765,0.398437 1.443007,1.109375 0.591281,0.710937 0.89396,1.695312 0.309719,0.976563 0.309719,2.140626 0,0.609375 -0.10559,1.1875 -0.105589,0.578125 -0.309719,1.078125 -0.197093,0.5 -0.499773,0.9375 -0.302676,0.429687 -0.689825,0.742187 z" />
    <path
       style="font-style:normal;font-variant:normal;font-weight:bold;font-stretch:normal;font-size:medium;line-height:25px;font-family:Corbel;-inkscape-font-specification:'Corbel Bold';letter-spacing:0px;word-spacing:0px;fill:#ffffff;fill-opacity:1;stroke:none;stroke-width:1.5px;stroke-linecap:butt;stroke-linejoin:miter;stroke-opacity:1"
       inkscape:connector-curvature="0"
       id="path850"
       d="m 20.156499,41.21937 q -0.312499,0.09375 -0.75,0.14844 -0.429687,0.05469 -0.804687,0.05469 -0.953125,0 -1.5625,-0.304688 Q 16.43775,40.805313 16.18775,40.227187 16.008062,39.813126 16.008062,39.102188 V 35.180307 H 14.594 v -1.523438 h 1.414062 v -2.117187 h 1.851562 v 2.117187 h 2.187501 v 1.523438 h -2.187501 v 3.679688 q 0,0.4375 0.13281,0.648437 0.234375,0.359375 0.929688,0.359375 0.320312,0 0.632813,-0.04687 0.320311,-0.05469 0.601561,-0.13281 z" />
  </g>
</svg>
