<?xml version="1.0" encoding="UTF-8" standalone="no"?>
<!-- Created with Inkscape (http://www.inkscape.org/) -->

<svg
   xmlns:dc="http://purl.org/dc/elements/1.1/"
   xmlns:cc="http://creativecommons.org/ns#"
   xmlns:rdf="http://www.w3.org/1999/02/22-rdf-syntax-ns#"
   xmlns:svg="http://www.w3.org/2000/svg"
   xmlns="http://www.w3.org/2000/svg"
   xmlns:sodipodi="http://sodipodi.sourceforge.net/DTD/sodipodi-0.dtd"
   xmlns:inkscape="http://www.inkscape.org/namespaces/inkscape"
   width="16"
   height="16"
   id="svg2"
   sodipodi:version="0.32"
   inkscape:version="0.92.3 (2405546, 2018-03-11)"
   version="1.0"
   sodipodi:docname="issue_carbon.svg"
   inkscape:output_extension="org.inkscape.output.svg.inkscape"
   inkscape:export-filename="issue_carbon.png"
   inkscape:export-xdpi="96"
   inkscape:export-ydpi="96">
  <defs
     id="defs4" />
  <sodipodi:namedview
     id="base"
     pagecolor="#ffffff"
     bordercolor="#666666"
     borderopacity="1.0"
     inkscape:pageopacity="0.0"
     inkscape:pageshadow="2"
     inkscape:zoom="58.75"
     inkscape:cx="8.0006533"
     inkscape:cy="8"
     inkscape:document-units="px"
     inkscape:current-layer="layer1"
     showgrid="true"
     objecttolerance="10"
     gridtolerance="10"
     guidetolerance="10"
     showguides="true"
     inkscape:guide-bbox="true"
     inkscape:window-width="1920"
     inkscape:window-height="1137"
     inkscape:window-x="-8"
     inkscape:window-y="-8"
     inkscape:snap-bbox="true"
     inkscape:bbox-paths="true"
     inkscape:bbox-nodes="true"
     inkscape:snap-bbox-edge-midpoints="true"
     inkscape:snap-bbox-midpoints="true"
     inkscape:object-paths="true"
     inkscape:snap-intersection-paths="true"
     inkscape:object-nodes="true"
     inkscape:snap-smooth-nodes="true"
     inkscape:snap-midpoints="true"
     inkscape:snap-object-midpoints="true"
     inkscape:snap-center="true"
     inkscape:window-maximized="1"
     inkscape:snap-grids="true">
    <inkscape:grid
       type="xygrid"
       id="grid2409"
       visible="true"
       enabled="true"
       spacingx="0.5"
       spacingy="0.5"
       empspacing="2"
       snapvisiblegridlinesonly="true"
       originx="0"
       originy="0" />
  </sodipodi:namedview>
  <metadata
     id="metadata7">
    <rdf:RDF>
      <cc:Work
         rdf:about="">
        <dc:format>image/svg+xml</dc:format>
        <dc:type
           rdf:resource="http://purl.org/dc/dcmitype/StillImage" />
        <dc:title />
      </cc:Work>
    </rdf:RDF>
  </metadata>
  <g
     inkscape:label="Ebene 1"
     inkscape:groupmode="layer"
     id="layer1">
    <g
       id="g817">
      <path
         sodipodi:type="inkscape:offset"
         inkscape:radius="1.0005511"
         inkscape:original="M 10.966797 1 C 9.5364559 1 8.0625 2.2128482 8.0625 4.25 C 10.086761 4.021188 11.127452 2.4212896 10.966797 1 z M 5.6347656 4.3378906 C 3.8143321 4.3378906 2.0800781 5.8971313 2.0800781 8.7578125 C 2.0800781 11.011683 4.0738015 15 6.1542969 15 C 7.4112629 15 7.4561423 14.566406 8.2363281 14.566406 C 9.0165139 14.566406 8.8856123 15 10.142578 15 C 11.568984 15 13.266499 13.125673 13.919922 11.220703 C 12.768127 10.745673 12.016176 9.6228605 12.015625 8.3769531 C 12.017025 7.2972079 12.583802 6.2975644 13.509766 5.7421875 C 12.834272 4.8213385 11.848557 4.3378906 10.835938 4.3378906 C 9.3622529 4.3378906 8.9298266 4.9433594 8.2363281 4.9433594 C 7.5428297 4.9433594 7.1084499 4.3378906 5.6347656 4.3378906 z "
         style="fill:#ffffff;fill-rule:evenodd;stroke:none;stroke-width:0.08668731px;stroke-linecap:butt;stroke-linejoin:miter;stroke-opacity:1"
         id="path827"
         d="M 10.966797,0 C 9.1497588,0 7.4779013,1.4726042 7.1796875,3.6308594 6.7638769,3.4936214 6.3218446,3.3378906 5.6347656,3.3378906 c -2.3917626,0 -4.5546875,2.1548592 -4.5546875,5.4199219 0,1.4219565 0.5539074,3.0559845 1.3964844,4.4765625 C 3.3191395,14.654953 4.4746958,16 6.1542969,16 c 0.7435306,0 1.2833862,-0.162881 1.5976562,-0.291016 0.31427,-0.128134 0.2796367,-0.142578 0.484375,-0.142578 0.2047384,0 0.050542,-0.02417 0.3359375,0.115235 C 8.8576615,15.821045 9.3990476,16 10.142578,16 c 1.151451,0 2.101251,-0.657316 2.896484,-1.478516 0.795234,-0.8212 1.447814,-1.867814 1.828126,-2.976562 a 1.0006512,1.0006512 0 0 0 -0.566407,-1.25 C 13.521438,9.9735005 13.016778,9.221708 13.015625,8.3789062 v -0.00195 c 0.0016,-0.7296529 0.382129,-1.4020695 1.007813,-1.7773437 A 1.0006512,1.0006512 0 0 0 14.316406,5.1503906 C 13.553861,4.1108707 12.418486,3.5560039 11.236328,3.4355469 11.769668,2.6741737 12.06185,1.779472 11.960938,0.88671875 A 1.0006512,1.0006512 0 0 0 10.966797,0 Z" />
      <path
         d="M 10.966797,1 C 9.5364559,1 8.0625,2.2128482 8.0625,4.25 10.086761,4.021188 11.127452,2.4212896 10.966797,1 Z M 5.6347656,4.3378906 c -1.8204335,0 -3.5546875,1.5592407 -3.5546875,4.4199219 C 2.0800781,11.011683 4.0738015,15 6.1542969,15 7.4112629,15 7.4561423,14.566406 8.2363281,14.566406 9.0165139,14.566406 8.8856123,15 10.142578,15 c 1.426406,0 3.123921,-1.874327 3.777344,-3.779297 -1.151795,-0.47503 -1.903746,-1.5978425 -1.904297,-2.8437499 0.0014,-1.0797452 0.568177,-2.0793887 1.494141,-2.6347656 -0.675494,-0.920849 -1.661209,-1.4042969 -2.673828,-1.4042969 -1.4736851,0 -1.9061114,0.6054688 -2.5996099,0.6054688 -0.6934984,0 -1.1278782,-0.6054688 -2.6015625,-0.6054688 z"
         id="path871"
         style="fill:#9393ac;fill-rule:evenodd;stroke:none;stroke-width:0.08668731px;stroke-linecap:butt;stroke-linejoin:miter;stroke-opacity:1"
         inkscape:original="M 10.966797 1 C 9.5364559 1 8.0625 2.2128482 8.0625 4.25 C 10.086761 4.021188 11.127452 2.4212896 10.966797 1 z M 5.6347656 4.3378906 C 3.8143321 4.3378906 2.0800781 5.8971313 2.0800781 8.7578125 C 2.0800781 11.011683 4.0738015 15 6.1542969 15 C 7.4112629 15 7.4561423 14.566406 8.2363281 14.566406 C 9.0165139 14.566406 8.8856123 15 10.142578 15 C 11.568984 15 13.266499 13.125673 13.919922 11.220703 C 12.768127 10.745673 12.016176 9.6228605 12.015625 8.3769531 C 12.017025 7.2972079 12.583802 6.2975644 13.509766 5.7421875 C 12.834272 4.8213385 11.848557 4.3378906 10.835938 4.3378906 C 9.3622529 4.3378906 8.9298266 4.9433594 8.2363281 4.9433594 C 7.5428297 4.9433594 7.1084499 4.3378906 5.6347656 4.3378906 z "
         inkscape:radius="0"
         sodipodi:type="inkscape:offset" />
    </g>
  </g>
</svg>
