<?xml version="1.0" encoding="UTF-8" standalone="no"?>
<!-- Created with Inkscape (http://www.inkscape.org/) -->

<svg
   xmlns:dc="http://purl.org/dc/elements/1.1/"
   xmlns:cc="http://creativecommons.org/ns#"
   xmlns:rdf="http://www.w3.org/1999/02/22-rdf-syntax-ns#"
   xmlns:svg="http://www.w3.org/2000/svg"
   xmlns="http://www.w3.org/2000/svg"
   xmlns:sodipodi="http://sodipodi.sourceforge.net/DTD/sodipodi-0.dtd"
   xmlns:inkscape="http://www.inkscape.org/namespaces/inkscape"
   width="24"
   height="24"
   id="svg2"
   sodipodi:version="0.32"
   inkscape:version="0.92.3 (2405546, 2018-03-11)"
   version="1.0"
   sodipodi:docname="issue_mui_150.svg"
   inkscape:output_extension="org.inkscape.output.svg.inkscape"
   inkscape:export-filename="issue_mui_150.png"
   inkscape:export-xdpi="96"
   inkscape:export-ydpi="96">
  <defs
     id="defs4" />
  <sodipodi:namedview
     id="base"
     pagecolor="#ffffff"
     bordercolor="#666666"
     borderopacity="1.0"
     inkscape:pageopacity="0.0"
     inkscape:pageshadow="2"
     inkscape:zoom="69.474017"
     inkscape:cx="11.800438"
     inkscape:cy="11.999998"
     inkscape:document-units="px"
     inkscape:current-layer="layer1"
     showgrid="true"
     objecttolerance="10"
     gridtolerance="10"
     guidetolerance="10"
     showguides="true"
     inkscape:guide-bbox="true"
     inkscape:window-width="1920"
     inkscape:window-height="1137"
     inkscape:window-x="-8"
     inkscape:window-y="-8"
     inkscape:window-maximized="1"
     inkscape:snap-bbox="true"
     inkscape:bbox-paths="true"
     inkscape:bbox-nodes="true"
     inkscape:snap-bbox-edge-midpoints="true"
     inkscape:snap-bbox-midpoints="true"
     inkscape:object-paths="true"
     inkscape:snap-intersection-paths="true"
     inkscape:object-nodes="true"
     inkscape:snap-smooth-nodes="true"
     inkscape:snap-midpoints="true"
     inkscape:snap-object-midpoints="true"
     inkscape:snap-center="true">
    <inkscape:grid
       type="xygrid"
       id="grid2409"
       visible="true"
       enabled="true"
       spacingx="0.5"
       spacingy="0.5"
       empspacing="2"
       snapvisiblegridlinesonly="true"
       originx="0"
       originy="0" />
  </sodipodi:namedview>
  <metadata
     id="metadata7">
    <rdf:RDF>
      <cc:Work
         rdf:about="">
        <dc:format>image/svg+xml</dc:format>
        <dc:type
           rdf:resource="http://purl.org/dc/dcmitype/StillImage" />
        <dc:title />
      </cc:Work>
    </rdf:RDF>
  </metadata>
  <g
     inkscape:label="Ebene 1"
     inkscape:groupmode="layer"
     id="layer1"
     transform="translate(0,-24)">
    <path
       inkscape:connector-curvature="0"
       id="path820"
       style="font-style:normal;font-variant:normal;font-weight:bold;font-stretch:normal;font-size:medium;line-height:25px;font-family:Calibri;-inkscape-font-specification:'Calibri Bold';letter-spacing:0px;word-spacing:0px;fill:#374548;fill-opacity:1;stroke:none;stroke-width:1.51386166px;stroke-linecap:butt;stroke-linejoin:miter;stroke-opacity:1"
       d="m 11.027,39.562501 q 0,0.05859 -0.03581,0.105465 -0.02984,0.04687 -0.119364,0.07617 -0.08355,0.0293 -0.226791,0.04687 -0.143236,0.01758 -0.364058,0.01758 -0.214854,0 -0.35809,-0.01758 -0.1432372,-0.01758 -0.2267911,-0.04687 -0.083553,-0.02929 -0.119364,-0.07617 -0.035808,-0.04687 -0.035808,-0.105465 V 33.39258 h -0.01194 l -2.2380606,6.164061 q -0.023873,0.07617 -0.077586,0.12891 -0.053714,0.04687 -0.1492035,0.07617 -0.089523,0.02929 -0.2327586,0.03516 -0.1432365,0.0117 -0.3461539,0.0117 -0.2029178,0 -0.3461538,-0.01758 -0.1432365,-0.0117 -0.2387265,-0.04101 -0.089523,-0.03516 -0.1432365,-0.08204 -0.053713,-0.04687 -0.071617,-0.11133 L 3.5250106,33.39258 h -0.01194 v 6.169921 q 0,0.05859 -0.035808,0.105465 -0.029841,0.04687 -0.119364,0.07617 -0.089523,0.0293 -0.2327586,0.04687 -0.137268,0.01758 -0.3580902,0.01758 -0.214854,0 -0.3580902,-0.01758 Q 2.2657231,39.773426 2.176201,39.744136 2.092648,39.714846 2.056837,39.667966 2.027,39.621096 2.027,39.5625 v -6.755859 q 0,-0.298828 0.1611405,-0.457031 0.1611406,-0.158203 0.4297081,-0.158203 h 1.0265253 q 0.2745359,0 0.4714853,0.04687 0.1969497,0.04102 0.3401857,0.146484 0.1432365,0.09961 0.2387268,0.269531 0.095492,0.164063 0.1671087,0.410156 l 1.6710874,4.517584 h 0.023873 l 1.730769,-4.505858 q 0.077586,-0.246094 0.1671089,-0.416016 0.09549,-0.169922 0.214854,-0.275391 0.125331,-0.105468 0.2924404,-0.146484 0.1671087,-0.04687 0.3879309,-0.04687 h 1.056367 q 0.16114,0 0.274536,0.04102 0.119364,0.04102 0.190981,0.123047 0.07759,0.07617 0.113395,0.193359 0.04178,0.111329 0.04178,0.257813 z" />
    <path
       inkscape:connector-curvature="0"
       id="path822"
       style="font-style:normal;font-variant:normal;font-weight:bold;font-stretch:normal;font-size:medium;line-height:25px;font-family:Calibri;-inkscape-font-specification:'Calibri Bold';letter-spacing:0px;word-spacing:0px;fill:#374548;fill-opacity:1;stroke:none;stroke-width:1.47639871px;stroke-linecap:butt;stroke-linejoin:miter;stroke-opacity:1"
       d="m 18.526998,36.916992 q 0,0.697266 -0.198675,1.248047 -0.198675,0.550781 -0.584673,0.93164 -0.385998,0.38086 -0.953642,0.580079 -0.567645,0.199218 -1.305583,0.199218 -0.692525,0 -1.24314,-0.175781 Q 13.69067,39.518554 13.310349,39.155274 12.930027,38.791992 12.725676,38.252929 12.527,37.708008 12.527,36.981445 v -4.611328 q 0,-0.05859 0.03406,-0.105468 0.03406,-0.04687 0.119205,-0.07617 0.09082,-0.0293 0.232734,-0.04687 0.14191,-0.01758 0.363292,-0.01758 0.215705,0 0.357616,0.01758 0.14191,0.01758 0.227057,0.04687 0.08515,0.0293 0.119205,0.07617 0.03974,0.04687 0.03974,0.105468 v 4.476562 q 0,0.451173 0.107853,0.785157 0.107853,0.328125 0.306528,0.544922 0.204352,0.216796 0.482498,0.328125 0.283823,0.105468 0.630084,0.105468 0.351939,0 0.630086,-0.111329 0.278145,-0.111328 0.471144,-0.322265 0.192999,-0.216797 0.295174,-0.527344 0.10785,-0.316406 0.10785,-0.714844 v -4.564452 q 0,-0.05859 0.03406,-0.105468 0.03407,-0.04687 0.119205,-0.07617 0.08514,-0.0293 0.227058,-0.04687 0.147585,-0.01758 0.363291,-0.01758 0.215705,0 0.351939,0.01758 0.141915,0.01758 0.227058,0.04687 0.08514,0.0293 0.119205,0.07617 0.03406,0.04687 0.03406,0.105468 z" />
    <path
       inkscape:connector-curvature="0"
       id="path824"
       style="font-style:normal;font-variant:normal;font-weight:bold;font-stretch:normal;font-size:medium;line-height:25px;font-family:Calibri;-inkscape-font-specification:'Calibri Bold';letter-spacing:0px;word-spacing:0px;fill:#374548;fill-opacity:1;stroke:none;stroke-width:1.5px;stroke-linecap:butt;stroke-linejoin:miter;stroke-opacity:1"
       d="m 21.573876,39.58008 q 0,0.05859 -0.04101,0.105465 -0.03516,0.04687 -0.123045,0.07617 -0.08788,0.02929 -0.234375,0.04687 -0.14649,0.01758 -0.375,0.01758 -0.222656,0 -0.375,-0.01758 -0.14649,-0.01758 -0.234375,-0.04687 -0.08788,-0.0293 -0.12891,-0.07617 -0.03516,-0.04687 -0.03516,-0.105465 v -7.160157 q 0,-0.05859 0.03516,-0.105468 0.04101,-0.04687 0.12891,-0.07617 0.09375,-0.0293 0.240234,-0.04687 0.14649,-0.01758 0.369141,-0.01758 0.228516,0 0.375,0.01758 0.14649,0.01758 0.234375,0.04687 0.08788,0.0293 0.123045,0.07617 0.04101,0.04687 0.04101,0.105468 z" />
  </g>
</svg>
