<?xml version="1.0" encoding="UTF-8" standalone="no"?>
<!-- Created with Inkscape (http://www.inkscape.org/) -->

<svg
   xmlns:dc="http://purl.org/dc/elements/1.1/"
   xmlns:cc="http://creativecommons.org/ns#"
   xmlns:rdf="http://www.w3.org/1999/02/22-rdf-syntax-ns#"
   xmlns:svg="http://www.w3.org/2000/svg"
   xmlns="http://www.w3.org/2000/svg"
   xmlns:sodipodi="http://sodipodi.sourceforge.net/DTD/sodipodi-0.dtd"
   xmlns:inkscape="http://www.inkscape.org/namespaces/inkscape"
   width="16"
   height="16"
   id="svg2"
   sodipodi:version="0.32"
   inkscape:version="0.92.3 (2405546, 2018-03-11)"
   version="1.0"
   sodipodi:docname="issue_qt.svg"
   inkscape:output_extension="org.inkscape.output.svg.inkscape"
   inkscape:export-filename="issue_qt.png"
   inkscape:export-xdpi="96"
   inkscape:export-ydpi="96">
  <defs
     id="defs4" />
  <sodipodi:namedview
     id="base"
     pagecolor="#ffffff"
     bordercolor="#666666"
     borderopacity="1.0"
     inkscape:pageopacity="0.0"
     inkscape:pageshadow="2"
     inkscape:zoom="85.454545"
     inkscape:cx="8"
     inkscape:cy="8.5"
     inkscape:document-units="px"
     inkscape:current-layer="layer1"
     showgrid="true"
     objecttolerance="10"
     gridtolerance="10"
     guidetolerance="10"
     showguides="true"
     inkscape:guide-bbox="true"
     inkscape:window-width="1920"
     inkscape:window-height="1137"
     inkscape:window-x="-8"
     inkscape:window-y="-8"
     inkscape:snap-bbox="true"
     inkscape:bbox-paths="true"
     inkscape:bbox-nodes="true"
     inkscape:snap-bbox-edge-midpoints="true"
     inkscape:snap-bbox-midpoints="true"
     inkscape:object-paths="true"
     inkscape:snap-intersection-paths="true"
     inkscape:object-nodes="true"
     inkscape:snap-smooth-nodes="true"
     inkscape:snap-midpoints="true"
     inkscape:snap-object-midpoints="true"
     inkscape:snap-center="true"
     inkscape:window-maximized="1"
     inkscape:snap-grids="true">
    <inkscape:grid
       type="xygrid"
       id="grid2409"
       visible="true"
       enabled="true"
       spacingx="0.5"
       spacingy="0.5"
       empspacing="2"
       snapvisiblegridlinesonly="true"
       originx="0"
       originy="0" />
  </sodipodi:namedview>
  <metadata
     id="metadata7">
    <rdf:RDF>
      <cc:Work
         rdf:about="">
        <dc:format>image/svg+xml</dc:format>
        <dc:type
           rdf:resource="http://purl.org/dc/dcmitype/StillImage" />
        <dc:title />
      </cc:Work>
    </rdf:RDF>
  </metadata>
  <g
     inkscape:label="Ebene 1"
     inkscape:groupmode="layer"
     id="layer1">
    <path
       style="fill:#88aa00;fill-opacity:1;fill-rule:evenodd;stroke:none;stroke-width:1px;stroke-linecap:butt;stroke-linejoin:miter;stroke-opacity:1"
       d="m 1,11.5 v -8 L 2.5,2 h 11 L 15,3.5 v 8 L 13.5,13 h -11 z"
       id="path836"
       inkscape:connector-curvature="0"
       sodipodi:nodetypes="ccccccccc" />
    <path
       style="font-style:normal;font-variant:normal;font-weight:bold;font-stretch:normal;font-size:medium;line-height:25px;font-family:Corbel;-inkscape-font-specification:'Corbel Bold';letter-spacing:0px;word-spacing:0px;fill:#ffffff;fill-opacity:1;stroke:none;stroke-width:0.94920987px;stroke-linecap:butt;stroke-linejoin:miter;stroke-opacity:1"
       inkscape:connector-curvature="0"
       id="path848"
       d="m 7.8600324,7.500661 q 0,-0.6354167 -0.1407809,-1.109375 Q 7.5784707,5.9121193 7.3297568,5.594411 7.0810437,5.2767026 6.7384761,5.1204526 q -0.3425675,-0.15625 -0.7508328,-0.15625 -0.4082654,0 -0.7508326,0.15625 -0.3425671,0.15625 -0.591281,0.4739584 -0.2487132,0.3177083 -0.3894941,0.796875 -0.1407815,0.4739583 -0.1407815,1.109375 0,0.6354167 0.1407815,1.1145834 0.1407809,0.4739583 0.3894941,0.7916667 0.2487139,0.3124999 0.591281,0.4739579 0.3425672,0.15625 0.7508326,0.15625 0.4082653,0 0.7508328,-0.15625 Q 7.0810437,9.719411 7.3297568,9.4069111 7.5784707,9.0892027 7.7192515,8.6152444 7.8600324,8.1360777 7.8600324,7.500661 Z m 0.1267036,2.59375 q 0.1173176,-0.03646 0.2674838,-0.06771 0.1501668,-0.03125 0.3097183,-0.05208 0.1642448,-0.02083 0.323797,-0.03125 0.1642447,-0.01042 0.3191036,-0.01042 H 9.296 v 1.109375 q -0.2487132,-0.02604 -0.6006661,-0.04167 -0.3519528,-0.01563 -0.7461401,-0.01563 -0.2956405,0 -0.5302756,0.01563 -0.2346353,0.01563 -0.4739632,0.03125 -0.2346352,0.02083 -0.4927343,0.03646 -0.2534058,0.01563 -0.4974264,0.01563 -0.7367548,0 -1.2998791,-0.260416 Q 4.0917904,10.563163 3.7069884,10.089205 3.3221873,9.6152444 3.1250934,8.9589944 2.928,8.2975361 2.928,7.500661 2.928,6.703786 3.1297861,6.0423277 3.3362653,5.375661 3.72576,4.8964943 4.1199468,4.4173276 4.6877642,4.1517026 q 0.5725102,-0.265625 1.2998791,-0.265625 0.7273695,0 1.2951867,0.265625 0.5725098,0.265625 0.9620045,0.7395834 0.3941874,0.4739583 0.5959734,1.1302083 0.2064793,0.6510417 0.2064793,1.4270834 0,0.40625 -0.070393,0.7916667 -0.070393,0.3854167 -0.2064793,0.71875 -0.1313955,0.3333334 -0.333182,0.625 Q 8.2354487,9.870453 7.9773496,10.078786 Z" />
    <path
       style="font-style:normal;font-variant:normal;font-weight:bold;font-stretch:normal;font-size:medium;line-height:25px;font-family:Corbel;-inkscape-font-specification:'Corbel Bold';letter-spacing:0px;word-spacing:0px;fill:#ffffff;fill-opacity:1;stroke:none;stroke-width:1px;stroke-linecap:butt;stroke-linejoin:miter;stroke-opacity:1"
       inkscape:connector-curvature="0"
       id="path850"
       d="m 13.571333,10.97958 q -0.208333,0.0625 -0.5,0.09896 -0.286458,0.03646 -0.536458,0.03646 -0.635417,0 -1.041667,-0.203125 Q 11.092167,10.703542 10.9255,10.318125 10.805708,10.042084 10.805708,9.5681254 V 6.953538 H 9.863 V 5.937913 h 0.942708 V 4.5264546 h 1.234375 V 5.937913 h 1.458334 v 1.015625 h -1.458334 v 2.4531251 q 0,0.2916667 0.08854,0.4322917 0.15625,0.2395832 0.619792,0.2395832 0.213541,0 0.421875,-0.03125 0.213541,-0.03646 0.401041,-0.08854 z" />
  </g>
</svg>
