<?xml version="1.0" encoding="UTF-8" standalone="no"?>
<!-- Created with Inkscape (http://www.inkscape.org/) -->

<svg
   xmlns:osb="http://www.openswatchbook.org/uri/2009/osb"
   xmlns:dc="http://purl.org/dc/elements/1.1/"
   xmlns:cc="http://creativecommons.org/ns#"
   xmlns:rdf="http://www.w3.org/1999/02/22-rdf-syntax-ns#"
   xmlns:svg="http://www.w3.org/2000/svg"
   xmlns="http://www.w3.org/2000/svg"
   xmlns:sodipodi="http://sodipodi.sourceforge.net/DTD/sodipodi-0.dtd"
   xmlns:inkscape="http://www.inkscape.org/namespaces/inkscape"
   width="32"
   height="32"
   id="svg2"
   sodipodi:version="0.32"
   inkscape:version="0.92.3 (2405546, 2018-03-11)"
   version="1.0"
   sodipodi:docname="issue_customdraw_200.svg"
   inkscape:output_extension="org.inkscape.output.svg.inkscape"
   inkscape:export-filename="issue_customdraw_200.png"
   inkscape:export-xdpi="96"
   inkscape:export-ydpi="96">
  <defs
     id="defs4">
    <linearGradient
       osb:paint="solid"
       id="linearGradient826">
      <stop
         id="stop824"
         offset="0"
         style="stop-color:#e6e6e6;stop-opacity:1;" />
    </linearGradient>
  </defs>
  <sodipodi:namedview
     id="base"
     pagecolor="#ffffff"
     bordercolor="#666666"
     borderopacity="1.0"
     inkscape:pageopacity="0.0"
     inkscape:pageshadow="2"
     inkscape:zoom="33.571429"
     inkscape:cx="16"
     inkscape:cy="16.700024"
     inkscape:document-units="px"
     inkscape:current-layer="layer1"
     showgrid="true"
     objecttolerance="10"
     gridtolerance="10"
     guidetolerance="10"
     showguides="true"
     inkscape:guide-bbox="true"
     inkscape:window-width="1920"
     inkscape:window-height="1137"
     inkscape:window-x="-8"
     inkscape:window-y="-8"
     inkscape:window-maximized="1"
     inkscape:snap-bbox="true"
     inkscape:bbox-paths="true"
     inkscape:bbox-nodes="true"
     inkscape:snap-bbox-edge-midpoints="true"
     inkscape:snap-bbox-midpoints="true"
     inkscape:object-paths="true"
     inkscape:snap-intersection-paths="true"
     inkscape:snap-smooth-nodes="true"
     inkscape:snap-midpoints="true"
     inkscape:snap-object-midpoints="true">
    <inkscape:grid
       type="xygrid"
       id="grid2409"
       visible="true"
       enabled="true"
       spacingx="0.5"
       spacingy="0.5"
       empspacing="2"
       snapvisiblegridlinesonly="true"
       originx="0"
       originy="0" />
  </sodipodi:namedview>
  <metadata
     id="metadata7">
    <rdf:RDF>
      <cc:Work
         rdf:about="">
        <dc:format>image/svg+xml</dc:format>
        <dc:type
           rdf:resource="http://purl.org/dc/dcmitype/StillImage" />
        <dc:title />
      </cc:Work>
    </rdf:RDF>
  </metadata>
  <g
     inkscape:label="Ebene 1"
     inkscape:groupmode="layer"
     id="layer1">
    <g
       id="layer1-8"
       inkscape:label="Ebene 1"
       transform="translate(-16,-1023.0622)">
      <g
         style="stroke-width:0.50287294"
         transform="matrix(2.0053089,0,0,1.9719785,-52.265445,-1019.3218)"
         id="g907">
        <path
           inkscape:connector-curvature="0"
           style="fill:#ffffff;fill-rule:evenodd;stroke:none;stroke-width:0.50287294px;stroke-linecap:butt;stroke-linejoin:miter;stroke-opacity:1"
           d="m 48.964844,8 a 0.99922802,0.99922802 0 0 0 -0.671875,0.2617188 l -6.597657,6.0078122 a 1.0314021,1.0314021 0 0 0 -0.246093,0.181641 l -0.273438,0.273437 a 1.0314021,1.0314021 0 0 0 -0.183593,0.248047 l -1.148438,1.699219 c -0.441074,-0.03614 -0.905345,0.01792 -1.357422,0.193359 -0.51473,0.1998 -0.871819,0.587835 -1.109375,0.927735 -0.237556,0.3399 -0.406402,0.665119 -0.621094,1.011719 -0.142781,0.2305 -0.216636,0.263737 -0.488281,0.335937 -0.271645,0.0721 -0.722407,0.0958 -1.277344,0.154297 a 1.0596659,1.0596659 0 0 0 -0.21875,2.060547 c 1.306229,0.4293 2.44439,0.733412 3.490235,0.820312 1.045845,0.0869 2.059351,-0.05848 2.876953,-0.646484 0.811396,-0.583455 1.211468,-1.508072 1.169922,-2.359375 l 1.734375,-1.171875 a 1.0314021,1.0314021 0 0 0 0.230469,-0.169922 l 0.27539,-0.273437 a 1.0314021,1.0314021 0 0 0 0.183594,-0.248047 1.0314021,1.0314021 0 0 0 0.002,-0.002 L 50,11.517578 V 8 Z"
           transform="translate(0,1028.3622)"
           id="path860" />
        <g
           style="stroke-width:0.50287294"
           transform="translate(26,9)"
           id="g895">
          <path
             inkscape:connector-curvature="0"
             id="path884"
             d="m 14.152471,1037.2244 0.383327,-0.3833 0.98568,0.9857 -0.383327,0.3833 z"
             style="opacity:1;fill:#ffffff;fill-opacity:1;fill-rule:evenodd;stroke:none;stroke-width:0.50287294;stroke-linecap:square;stroke-linejoin:miter;stroke-miterlimit:4;stroke-dasharray:none;stroke-dashoffset:0;stroke-opacity:1;paint-order:normal" />
          <path
             sodipodi:nodetypes="csssc"
             inkscape:connector-curvature="0"
             id="path886"
             d="m 9.1010652,1039.7112 c 1.0046458,-0.106 1.9787448,-0.056 2.5548008,-0.9857 0.469751,-0.7583 0.69713,-1.3112 1.212555,-1.5113 1.952144,-0.7576 3.30037,1.6309 1.651111,2.8169 -1.101035,0.7918 -2.87913,0.5146 -5.4184668,-0.3199 z"
             style="fill:#ff0000;fill-rule:evenodd;stroke:none;stroke-width:0.50287294px;stroke-linecap:butt;stroke-linejoin:miter;stroke-opacity:1" />
          <path
             inkscape:connector-curvature="0"
             id="path888"
             d="m 14.535784,1036.8411 0.985686,0.9857 2.026133,-1.369 -1.642811,-1.6428 z"
             style="fill:#b3b3b3;fill-rule:evenodd;stroke:none;stroke-width:0.50287294px;stroke-linecap:butt;stroke-linejoin:miter;stroke-opacity:1"
             sodipodi:nodetypes="ccccc" />
          <path
             style="fill:#c87137;fill-rule:evenodd;stroke:none;stroke-width:0.50287294px;stroke-linecap:butt;stroke-linejoin:miter;stroke-opacity:1"
             d="M 22.964844,0 16.177734,6.1796875 17.822266,7.8222656 24,1.0351562 V 0 Z"
             transform="translate(0,1028.3622)"
             id="path890"
             inkscape:connector-curvature="0" />
          <path
             inkscape:connector-curvature="0"
             id="path892"
             d="m 15.904775,1034.815 0.2738,-0.2738 1.642816,1.6428 -0.273799,0.2738 z"
             style="opacity:1;fill:#ffffff;fill-opacity:1;fill-rule:evenodd;stroke:none;stroke-width:0.50287294;stroke-linecap:square;stroke-linejoin:miter;stroke-miterlimit:4;stroke-dasharray:none;stroke-dashoffset:0;stroke-opacity:1;paint-order:normal" />
        </g>
      </g>
    </g>
  </g>
</svg>
