<?xml version="1.0" encoding="UTF-8" standalone="no"?>
<!-- Created with Inkscape (http://www.inkscape.org/) -->

<svg
   xmlns:dc="http://purl.org/dc/elements/1.1/"
   xmlns:cc="http://creativecommons.org/ns#"
   xmlns:rdf="http://www.w3.org/1999/02/22-rdf-syntax-ns#"
   xmlns:svg="http://www.w3.org/2000/svg"
   xmlns="http://www.w3.org/2000/svg"
   xmlns:sodipodi="http://sodipodi.sourceforge.net/DTD/sodipodi-0.dtd"
   xmlns:inkscape="http://www.inkscape.org/namespaces/inkscape"
   width="32"
   height="32"
   id="svg2"
   sodipodi:version="0.32"
   inkscape:version="0.92.3 (2405546, 2018-03-11)"
   version="1.0"
   sodipodi:docname="issue_qt5_200.svg"
   inkscape:output_extension="org.inkscape.output.svg.inkscape"
   inkscape:export-filename="issue_qt5_200.png"
   inkscape:export-xdpi="96"
   inkscape:export-ydpi="96">
  <defs
     id="defs4" />
  <sodipodi:namedview
     id="base"
     pagecolor="#ffffff"
     bordercolor="#666666"
     borderopacity="1.0"
     inkscape:pageopacity="0.0"
     inkscape:pageshadow="2"
     inkscape:zoom="33.580318"
     inkscape:cx="16.130554"
     inkscape:cy="14.503706"
     inkscape:document-units="px"
     inkscape:current-layer="layer1"
     showgrid="true"
     objecttolerance="10"
     gridtolerance="10"
     guidetolerance="10"
     showguides="true"
     inkscape:guide-bbox="true"
     inkscape:window-width="1920"
     inkscape:window-height="1137"
     inkscape:window-x="-8"
     inkscape:window-y="-8"
     inkscape:window-maximized="1"
     inkscape:snap-bbox="true"
     inkscape:bbox-paths="true"
     inkscape:bbox-nodes="true"
     inkscape:snap-bbox-edge-midpoints="true"
     inkscape:snap-bbox-midpoints="true"
     inkscape:object-paths="true"
     inkscape:snap-intersection-paths="true"
     inkscape:snap-smooth-nodes="true"
     inkscape:snap-midpoints="true"
     inkscape:snap-object-midpoints="true">
    <inkscape:grid
       type="xygrid"
       id="grid2409"
       visible="true"
       enabled="true"
       spacingx="0.5"
       spacingy="0.5"
       empspacing="2"
       snapvisiblegridlinesonly="true"
       originx="0"
       originy="0" />
  </sodipodi:namedview>
  <metadata
     id="metadata7">
    <rdf:RDF>
      <cc:Work
         rdf:about="">
        <dc:format>image/svg+xml</dc:format>
        <dc:type
           rdf:resource="http://purl.org/dc/dcmitype/StillImage" />
        <dc:title />
      </cc:Work>
    </rdf:RDF>
  </metadata>
  <g
     inkscape:label="Ebene 1"
     inkscape:groupmode="layer"
     id="layer1">
    <g
       id="layer1-8"
       inkscape:label="Ebene 1"
       transform="matrix(2,0,0,2,-1,-2)">
      <path
         sodipodi:nodetypes="ccccccccc"
         inkscape:connector-curvature="0"
         id="path836"
         d="m 1.25,10.75 v -6.5 l 1.5,-1.5 h 10.5 l 1.5,1.5 v 6.5 l -1.5,1.5 H 2.75 Z"
         style="fill:#88aa00;fill-opacity:1;fill-rule:evenodd;stroke:none;stroke-width:1px;stroke-linecap:butt;stroke-linejoin:miter;stroke-opacity:1" />
      <path
         d="m 7.8600324,7.500661 q 0,-0.6354167 -0.1407809,-1.109375 Q 7.5784707,5.9121193 7.3297568,5.594411 7.0810437,5.2767026 6.7384761,5.1204526 q -0.3425675,-0.15625 -0.7508328,-0.15625 -0.4082654,0 -0.7508326,0.15625 -0.3425671,0.15625 -0.591281,0.4739584 -0.2487132,0.3177083 -0.3894941,0.796875 -0.1407815,0.4739583 -0.1407815,1.109375 0,0.6354167 0.1407815,1.1145834 0.1407809,0.4739583 0.3894941,0.7916667 0.2487139,0.3124999 0.591281,0.4739579 0.3425672,0.15625 0.7508326,0.15625 0.4082653,0 0.7508328,-0.15625 Q 7.0810437,9.719411 7.3297568,9.4069111 7.5784707,9.0892027 7.7192515,8.6152444 7.8600324,8.1360777 7.8600324,7.500661 Z m 0.1267036,2.59375 q 0.1173176,-0.03646 0.2674838,-0.06771 0.1501668,-0.03125 0.3097183,-0.05208 0.1642448,-0.02083 0.323797,-0.03125 0.1642447,-0.01042 0.3191036,-0.01042 H 9.296 v 1.109375 q -0.2487132,-0.02604 -0.6006661,-0.04167 -0.3519528,-0.01563 -0.7461401,-0.01563 -0.2956405,0 -0.5302756,0.01563 -0.2346353,0.01563 -0.4739632,0.03125 -0.2346352,0.02083 -0.4927343,0.03646 -0.2534058,0.01563 -0.4974264,0.01563 -0.7367548,0 -1.2998791,-0.260416 Q 4.0917904,10.563163 3.7069884,10.089205 3.3221873,9.6152444 3.1250934,8.9589944 2.928,8.2975361 2.928,7.500661 2.928,6.703786 3.1297861,6.0423277 3.3362653,5.375661 3.72576,4.8964943 4.1199468,4.4173276 4.6877642,4.1517026 q 0.5725102,-0.265625 1.2998791,-0.265625 0.7273695,0 1.2951867,0.265625 0.5725098,0.265625 0.9620045,0.7395834 0.3941874,0.4739583 0.5959734,1.1302083 0.2064793,0.6510417 0.2064793,1.4270834 0,0.40625 -0.070393,0.7916667 -0.070393,0.3854167 -0.2064793,0.71875 -0.1313955,0.3333334 -0.333182,0.625 Q 8.2354487,9.870453 7.9773496,10.078786 Z"
         id="path848"
         inkscape:connector-curvature="0"
         style="font-style:normal;font-variant:normal;font-weight:bold;font-stretch:normal;font-size:medium;line-height:25px;font-family:Corbel;-inkscape-font-specification:'Corbel Bold';letter-spacing:0px;word-spacing:0px;fill:#ffffff;fill-opacity:1;stroke:none;stroke-width:0.94920987px;stroke-linecap:butt;stroke-linejoin:miter;stroke-opacity:1" />
      <path
         d="m 13.571333,10.97958 q -0.208333,0.0625 -0.5,0.09896 -0.286458,0.03646 -0.536458,0.03646 -0.635417,0 -1.041667,-0.203125 Q 11.092167,10.703542 10.9255,10.318125 10.805708,10.042084 10.805708,9.5681254 V 6.953538 H 9.863 V 5.937913 h 0.942708 V 4.5264546 h 1.234375 V 5.937913 h 1.458334 v 1.015625 h -1.458334 v 2.4531251 q 0,0.2916667 0.08854,0.4322917 0.15625,0.2395832 0.619792,0.2395832 0.213541,0 0.421875,-0.03125 0.213541,-0.03646 0.401041,-0.08854 z"
         id="path850"
         inkscape:connector-curvature="0"
         style="font-style:normal;font-variant:normal;font-weight:bold;font-stretch:normal;font-size:medium;line-height:25px;font-family:Corbel;-inkscape-font-specification:'Corbel Bold';letter-spacing:0px;word-spacing:0px;fill:#ffffff;fill-opacity:1;stroke:none;stroke-width:1px;stroke-linecap:butt;stroke-linejoin:miter;stroke-opacity:1" />
    </g>
    <g
       id="g848"
       transform="matrix(2,0,0,2,-1.5161162,-1.4841464)">
      <g
         id="text821"
         style="font-style:normal;font-variant:normal;font-weight:bold;font-stretch:normal;font-size:9.33333397px;line-height:25px;font-family:Calibri;-inkscape-font-specification:'Calibri Bold';letter-spacing:0px;word-spacing:0px;fill:#000000;fill-opacity:1;stroke:none;stroke-width:1px;stroke-linecap:butt;stroke-linejoin:miter;stroke-opacity:1"
         aria-label="5">
        <path
           id="path831"
           d="m 12.058594,8.9980469 c -0.234682,0 -0.560387,0.079176 -0.785156,0.3320312 a 0.74457127,0.74457127 0 0 0 -0.002,0.00195 C 11.0342,9.6008975 11.017532,9.8693933 11.017532,10.083981 v 2.560547 c 0,0.19484 -0.0163,0.419577 0.216797,0.710938 a 0.74457127,0.74457127 0 0 0 0.03711,0.04101 c 0.224745,0.242021 0.52474,0.302735 0.736328,0.302735 0.162432,0 0.328047,-0.01158 0.498047,-0.0332 0.109503,-0.01369 0.24009,-0.02149 0.390625,-0.02149 0.179061,0 0.309733,0.01702 0.38086,0.03516 0.07172,0.01828 0.09091,0.03571 0.08789,0.0332 0.0041,0.01051 0.01367,0.03768 0.01367,0.103515 0,0.09037 -0.01624,0.12984 -0.01758,0.132813 -0.0084,0.01862 -0.01129,0.0204 -0.01953,0.02734 -0.009,0.0068 -0.02592,0.01918 -0.08203,0.0332 a 0.74457127,0.74457127 0 0 0 -0.0039,0.002 c -0.07166,0.0183 -0.170045,0.03125 -0.294921,0.03125 -0.160361,0 -0.283843,-0.01648 -0.357422,-0.0332 h -0.002 c -0.110746,-0.02833 -0.195816,-0.05509 -0.248046,-0.07617 -0.08296,-0.0352 -0.147559,-0.06688 -0.191407,-0.08984 l 0.03711,0.02148 c -0.107723,-0.06463 -0.19136,-0.160156 -0.519531,-0.160156 -0.192644,0 -0.399034,0.07696 -0.541016,0.195313 -0.186638,0.155518 -0.225057,0.279994 -0.259766,0.363281 a 0.74457127,0.74457127 0 0 0 -0.01953,0.05078 c -0.03799,0.113894 -0.05095,0.210518 -0.06055,0.306641 -0.0092,0.0894 -0.01367,0.183831 -0.01367,0.289062 0,0.08426 -4.31e-4,0.162502 0.0039,0.244141 0.0039,0.07449 0.0098,0.144701 0.02149,0.220703 a 0.74457127,0.74457127 0 0 0 0.01367,0.06641 c 0.02143,0.0857 0.05023,0.160369 0.07617,0.21875 0.05726,0.128824 0.137264,0.231015 0.207031,0.300782 a 0.74457127,0.74457127 0 0 0 0.07031,0.06055 c 0.137779,0.107158 0.209287,0.131209 0.31836,0.179688 a 0.74457127,0.74457127 0 0 0 0.03125,0.01367 c 0.12375,0.04861 0.250649,0.0868 0.394531,0.126953 a 0.74457127,0.74457127 0 0 0 0.01563,0.0039 c 0.16327,0.04177 0.335037,0.07355 0.517578,0.09766 0.0019,2.77e-4 0.004,-2.74e-4 0.0059,0 0.0028,3.66e-4 0.005,0.0016 0.0078,0.002 0.197642,0.02861 0.402828,0.04297 0.615234,0.04297 0.41099,0 0.803295,-0.05384 1.169922,-0.171875 0.366626,-0.117008 0.702231,-0.29381 0.984375,-0.533203 a 0.74457127,0.74457127 0 0 0 0,-0.002 c 0.286428,-0.243679 0.514069,-0.551993 0.666016,-0.896484 v -0.002 c 0.158745,-0.356832 0.234375,-0.750379 0.234375,-1.158203 0,-0.360415 -0.05794,-0.707183 -0.189453,-1.02539 -0.128666,-0.313878 -0.332181,-0.598879 -0.591797,-0.81836 -0.199303,-0.172446 -0.446653,-0.273303 -0.69336,-0.36914 h 0.1875 c 0.197887,0 0.43304,-0.09013 0.578126,-0.220703 0.142046,-0.127842 0.206577,-0.265566 0.25,-0.38086 0.09784,-0.248503 0.103515,-0.437816 0.103515,-0.662109 10e-7,-0.109259 -0.0055,-0.212401 -0.01953,-0.3183596 -0.01082,-0.1105971 -0.03569,-0.2255793 -0.0918,-0.3574219 C 15.622975,9.450461 15.540066,9.2961621 15.376953,9.1738281 15.240267,9.071289 15.04433,8.9980469 14.851562,8.9980469 Z m 2.40039,2.4042971 0.0098,0.0039 c -0.0012,-3.66e-4 -0.0027,3.65e-4 -0.0039,0 -0.0023,-6.73e-4 -0.0036,-0.0032 -0.0059,-0.0039 z"
           style="fill:#ffffff"
           inkscape:connector-curvature="0" />
      </g>
      <g
         id="text839"
         style="font-style:normal;font-variant:normal;font-weight:bold;font-stretch:normal;font-size:9.33333397px;line-height:25px;font-family:Calibri;-inkscape-font-specification:'Calibri Bold';letter-spacing:0px;word-spacing:0px;fill:#000000;fill-opacity:1;stroke:none;stroke-width:1px;stroke-linecap:butt;stroke-linejoin:miter;stroke-opacity:1"
         aria-label="5">
        <path
           id="path841"
           d="m 15.394084,13.725146 q 0,0.478516 -0.16862,0.856771 -0.164063,0.373698 -0.469401,0.633464 -0.300782,0.255208 -0.729167,0.391927 -0.423828,0.136719 -0.943359,0.136719 -0.273438,0 -0.519532,-0.03646 -0.246093,-0.0319 -0.442057,-0.08203 -0.195964,-0.05469 -0.323568,-0.104818 -0.123047,-0.05469 -0.164062,-0.08659 -0.03646,-0.03646 -0.05469,-0.07747 -0.01823,-0.04102 -0.0319,-0.0957 -0.0091,-0.05925 -0.01367,-0.145834 -0.0046,-0.08659 -0.0046,-0.205078 0,-0.127604 0.0091,-0.214193 0.0091,-0.09115 0.02734,-0.145833 0.02279,-0.05469 0.05013,-0.07747 0.02734,-0.02279 0.0638,-0.02279 0.04557,0 0.136718,0.05469 0.0957,0.05013 0.246094,0.113932 0.154948,0.0638 0.373698,0.11849 0.21875,0.05013 0.524089,0.05013 0.264323,0 0.478515,-0.05469 0.21875,-0.05469 0.369141,-0.173177 0.150391,-0.123047 0.232422,-0.305339 0.08203,-0.182292 0.08203,-0.4375 0,-0.21875 -0.06836,-0.38737 -0.06836,-0.173177 -0.214193,-0.291667 -0.145833,-0.118489 -0.378255,-0.177734 -0.232422,-0.05925 -0.565104,-0.05925 -0.264323,0 -0.483073,0.02734 -0.214193,0.02734 -0.405599,0.02734 -0.132162,0 -0.191407,-0.0638 -0.05469,-0.06836 -0.05469,-0.246094 V 10.08387 q 0,-0.1822918 0.06836,-0.2597658 0.07292,-0.082031 0.227865,-0.082031 h 2.79362 q 0.04102,0 0.07747,0.027344 0.03646,0.027344 0.05925,0.086589 0.02734,0.059245 0.03646,0.1595048 0.01367,0.0957 0.01367,0.232422 0,0.273438 -0.05013,0.396485 -0.04557,0.123047 -0.136719,0.123047 h -2.096354 v 1.26237 q 0.159505,-0.01823 0.314453,-0.02279 0.159505,-0.0046 0.332682,-0.0046 0.478516,0 0.847656,0.113932 0.373698,0.109375 0.624349,0.328125 0.255209,0.214193 0.38737,0.537761 0.132162,0.31901 0.132162,0.742838 z"
           inkscape:connector-curvature="0" />
      </g>
    </g>
  </g>
</svg>
