<?xml version="1.0" encoding="UTF-8" standalone="no"?>
<!-- Created with Inkscape (http://www.inkscape.org/) -->

<svg
   xmlns:dc="http://purl.org/dc/elements/1.1/"
   xmlns:cc="http://creativecommons.org/ns#"
   xmlns:rdf="http://www.w3.org/1999/02/22-rdf-syntax-ns#"
   xmlns:svg="http://www.w3.org/2000/svg"
   xmlns="http://www.w3.org/2000/svg"
   xmlns:sodipodi="http://sodipodi.sourceforge.net/DTD/sodipodi-0.dtd"
   xmlns:inkscape="http://www.inkscape.org/namespaces/inkscape"
   width="24"
   height="24"
   id="svg2"
   sodipodi:version="0.32"
   inkscape:version="0.92.3 (2405546, 2018-03-11)"
   version="1.0"
   sodipodi:docname="issue_nogui_150.svg"
   inkscape:output_extension="org.inkscape.output.svg.inkscape"
   inkscape:export-filename="issue_nogui_150.png"
   inkscape:export-xdpi="96"
   inkscape:export-ydpi="96">
  <defs
     id="defs4" />
  <sodipodi:namedview
     id="base"
     pagecolor="#ffffff"
     bordercolor="#666666"
     borderopacity="1.0"
     inkscape:pageopacity="0.0"
     inkscape:pageshadow="2"
     inkscape:zoom="33.234016"
     inkscape:cx="11.921247"
     inkscape:cy="12.104346"
     inkscape:document-units="px"
     inkscape:current-layer="layer1"
     showgrid="true"
     objecttolerance="10"
     gridtolerance="10"
     guidetolerance="10"
     showguides="true"
     inkscape:guide-bbox="true"
     inkscape:window-width="1920"
     inkscape:window-height="1137"
     inkscape:window-x="-8"
     inkscape:window-y="-8"
     inkscape:window-maximized="1"
     inkscape:snap-bbox="true"
     inkscape:bbox-paths="true"
     inkscape:bbox-nodes="true"
     inkscape:snap-bbox-edge-midpoints="true"
     inkscape:snap-bbox-midpoints="true"
     inkscape:object-paths="true"
     inkscape:snap-intersection-paths="true"
     inkscape:object-nodes="true"
     inkscape:snap-smooth-nodes="true"
     inkscape:snap-midpoints="true"
     inkscape:snap-object-midpoints="true"
     inkscape:snap-center="true">
    <inkscape:grid
       type="xygrid"
       id="grid2409"
       visible="true"
       enabled="true"
       spacingx="0.5"
       spacingy="0.5"
       empspacing="2"
       snapvisiblegridlinesonly="true"
       originx="0"
       originy="0" />
  </sodipodi:namedview>
  <metadata
     id="metadata7">
    <rdf:RDF>
      <cc:Work
         rdf:about="">
        <dc:format>image/svg+xml</dc:format>
        <dc:type
           rdf:resource="http://purl.org/dc/dcmitype/StillImage" />
        <dc:title />
      </cc:Work>
    </rdf:RDF>
  </metadata>
  <g
     inkscape:label="Ebene 1"
     inkscape:groupmode="layer"
     id="layer1"
     transform="translate(0,-24)">
    <g
       id="g857">
      <path
         d="m 7.8576484,30.174469 q 0.984375,1.401367 1.5996093,2.488281 h 0.041016 Q 9.4162417,30.87857 9.4162417,30.065094 V 25.922516 H 11.091047 V 35.069 H 9.3342107 L 6.353742,30.858063 Q 5.5676093,29.764313 4.7267891,28.32193 h -0.041016 q 0.08203,1.68164 0.08203,2.604492 V 35.069 H 3.093 v -9.146484 h 1.7568359 z"
         style="font-style:normal;font-variant:normal;font-weight:bold;font-stretch:normal;font-size:medium;line-height:25px;font-family:Corbel;-inkscape-font-specification:'Corbel Bold';letter-spacing:0px;word-spacing:0px;fill:#374548;fill-opacity:1;stroke:none;stroke-width:1.5px;stroke-linecap:butt;stroke-linejoin:miter;stroke-opacity:1"
         id="path824"
         inkscape:connector-curvature="0" />
      <path
         d="m 20.266632,30.49586 q 0,-0.833985 -0.205078,-1.456055 -0.205079,-0.628906 -0.567383,-1.045899 -0.362305,-0.416992 -0.861328,-0.62207 -0.499023,-0.205078 -1.093749,-0.205078 -0.594728,0 -1.093751,0.205078 -0.499023,0.205078 -0.861328,0.62207 -0.362304,0.416993 -0.567383,1.045899 -0.205078,0.62207 -0.205078,1.456055 0,0.833984 0.205078,1.46289 0.205079,0.62207 0.567383,1.039062 0.362305,0.410157 0.861328,0.622071 0.499023,0.205078 1.093751,0.205078 0.594726,0 1.093749,-0.205078 0.499023,-0.211914 0.861328,-0.622071 0.362304,-0.416992 0.567383,-1.039062 0.205078,-0.628906 0.205078,-1.46289 z m 1.729493,0 q 0,1.045898 -0.300782,1.920898 -0.293946,0.868164 -0.868164,1.49707 -0.567382,0.628906 -1.401367,0.977539 Q 18.598664,35.24 17.539094,35.24 q -1.059572,0 -1.893555,-0.348633 -0.827149,-0.348633 -1.401367,-0.977539 -0.567383,-0.628906 -0.868165,-1.49707 -0.293945,-0.875 -0.293945,-1.920898 0,-1.045899 0.293945,-1.914063 0.300782,-0.875 0.868165,-1.503906 0.574218,-0.628906 1.401367,-0.977539 0.833983,-0.348633 1.893555,-0.348633 1.05957,0 1.886718,0.348633 0.833985,0.348633 1.401367,0.977539 0.574218,0.628906 0.868164,1.503906 0.300782,0.868164 0.300782,1.914063 z"
         style="font-style:normal;font-variant:normal;font-weight:bold;font-stretch:normal;font-size:medium;line-height:25px;font-family:Corbel;-inkscape-font-specification:'Corbel Bold';letter-spacing:0px;word-spacing:0px;fill:#374548;fill-opacity:1;stroke:none;stroke-width:1.5px;stroke-linecap:butt;stroke-linejoin:miter;stroke-opacity:1"
         id="path826"
         inkscape:connector-curvature="0" />
      <path
         d="M 7.7695625,42.415375 H 6.0117499 v -1.201173 h 3.1933594 v 3.955078 q -0.1757813,0.06446 -0.4511718,0.13476 -0.2695313,0.07031 -0.609375,0.123046 -0.3339845,0.05859 -0.6914063,0.09375 -0.357422,0.03516 -0.7089845,0.03516 -1.0546873,0 -1.845703,-0.28125 -0.7851563,-0.287111 -1.3125,-0.802736 -0.5214844,-0.515621 -0.7851563,-1.224605 -0.2578125,-0.714843 -0.2578125,-1.576171 0,-0.609375 0.1347661,-1.160157 0.140625,-0.55664 0.4042969,-1.02539 0.2695308,-0.47461 0.6503903,-0.855469 0.3808592,-0.380859 0.8671875,-0.650391 0.4921875,-0.269531 1.0722655,-0.410156 0.5859375,-0.146484 1.2539063,-0.146484 0.5917968,0 1.125,0.08789 0.533203,0.08203 0.8730468,0.205078 v 1.21875 Q 8.466828,38.788421 7.998078,38.712249 q -0.4628905,-0.07617 -0.9375,-0.07617 -0.6386718,0 -1.1953123,0.193359 -0.5566407,0.1875 -0.966797,0.5625 -0.4042968,0.36914 -0.6386718,0.914063 -0.234375,0.544921 -0.234375,1.259764 0.00586,1.388673 0.7265625,2.085938 0.7207031,0.691407 2.0449218,0.691407 0.2460938,0 0.5097656,-0.02344 0.2636719,-0.0293 0.4628907,-0.07031 z"
         style="font-style:normal;font-variant:normal;font-weight:bold;font-stretch:normal;font-size:medium;line-height:25px;font-family:Corbel;-inkscape-font-specification:'Corbel Bold';letter-spacing:0px;word-spacing:0px;fill:#374548;fill-opacity:1;stroke:none;stroke-width:1.5px;stroke-linecap:butt;stroke-linejoin:miter;stroke-opacity:1"
         id="path835-9"
         inkscape:connector-curvature="0" />
      <path
         d="m 14.053391,45.556 q -0.615235,0 -1.107422,-0.123045 -0.492188,-0.117195 -0.867188,-0.339846 -0.375,-0.228516 -0.638672,-0.550782 -0.263672,-0.328125 -0.421875,-0.738281 -0.128905,-0.328125 -0.1875,-0.726562 Q 10.778,42.679046 10.778,42.186859 v -4.617188 h 1.435547 v 4.488281 q 0,0.832032 0.199219,1.300782 0.222656,0.521484 0.65039,0.755859 0.427735,0.228516 1.007813,0.228516 0.580078,0 1.007812,-0.228516 0.427735,-0.234375 0.65039,-0.755859 0.19922,-0.46875 0.19922,-1.300782 v -4.488281 h 1.435546 v 4.617188 q 0,0.492187 -0.05859,0.890625 -0.05274,0.398437 -0.181639,0.726562 -0.158204,0.410156 -0.427736,0.738281 -0.263671,0.322266 -0.650389,0.550782 -0.380861,0.222655 -0.878907,0.339843 -0.498046,0.123045 -1.113281,0.123045 z"
         style="font-style:normal;font-variant:normal;font-weight:bold;font-stretch:normal;font-size:medium;line-height:25px;font-family:Corbel;-inkscape-font-specification:'Corbel Bold';letter-spacing:0px;word-spacing:0px;fill:#374548;fill-opacity:1;stroke:none;stroke-width:1.5px;stroke-linecap:butt;stroke-linejoin:miter;stroke-opacity:1"
         id="path837-6"
         inkscape:connector-curvature="0" />
      <path
         d="m 19.8215,45.409514 v -7.839843 h 1.435546 v 7.839843 z"
         style="font-style:normal;font-variant:normal;font-weight:bold;font-stretch:normal;font-size:medium;line-height:25px;font-family:Corbel;-inkscape-font-specification:'Corbel Bold';letter-spacing:0px;word-spacing:0px;fill:#374548;fill-opacity:1;stroke:none;stroke-width:1.5px;stroke-linecap:butt;stroke-linejoin:miter;stroke-opacity:1"
         id="path839-5"
         inkscape:connector-curvature="0" />
    </g>
  </g>
</svg>
