<?xml version="1.0" encoding="UTF-8" standalone="no"?>
<!-- Created with Inkscape (http://www.inkscape.org/) -->

<svg
   xmlns:dc="http://purl.org/dc/elements/1.1/"
   xmlns:cc="http://creativecommons.org/ns#"
   xmlns:rdf="http://www.w3.org/1999/02/22-rdf-syntax-ns#"
   xmlns:svg="http://www.w3.org/2000/svg"
   xmlns="http://www.w3.org/2000/svg"
   xmlns:sodipodi="http://sodipodi.sourceforge.net/DTD/sodipodi-0.dtd"
   xmlns:inkscape="http://www.inkscape.org/namespaces/inkscape"
   width="24"
   height="24"
   id="svg2"
   sodipodi:version="0.32"
   inkscape:version="0.92.3 (2405546, 2018-03-11)"
   version="1.0"
   sodipodi:docname="issue_qt5_150.svg"
   inkscape:output_extension="org.inkscape.output.svg.inkscape"
   inkscape:export-filename="issue_qt5_150.png"
   inkscape:export-xdpi="96"
   inkscape:export-ydpi="96">
  <defs
     id="defs4" />
  <sodipodi:namedview
     id="base"
     pagecolor="#ffffff"
     bordercolor="#666666"
     borderopacity="1.0"
     inkscape:pageopacity="0.0"
     inkscape:pageshadow="2"
     inkscape:zoom="42.520958"
     inkscape:cx="12.282568"
     inkscape:cy="10.946627"
     inkscape:document-units="px"
     inkscape:current-layer="layer1"
     showgrid="true"
     objecttolerance="10"
     gridtolerance="10"
     guidetolerance="10"
     showguides="true"
     inkscape:guide-bbox="true"
     inkscape:window-width="1920"
     inkscape:window-height="1137"
     inkscape:window-x="-8"
     inkscape:window-y="-8"
     inkscape:window-maximized="1"
     inkscape:snap-bbox="true"
     inkscape:bbox-paths="true"
     inkscape:bbox-nodes="true"
     inkscape:snap-bbox-edge-midpoints="true"
     inkscape:snap-bbox-midpoints="true"
     inkscape:object-paths="true"
     inkscape:snap-intersection-paths="true"
     inkscape:object-nodes="true"
     inkscape:snap-smooth-nodes="true"
     inkscape:snap-midpoints="true"
     inkscape:snap-object-midpoints="true"
     inkscape:snap-center="true">
    <inkscape:grid
       type="xygrid"
       id="grid2409"
       visible="true"
       enabled="true"
       spacingx="0.5"
       spacingy="0.5"
       empspacing="2"
       snapvisiblegridlinesonly="true"
       originx="0"
       originy="0" />
  </sodipodi:namedview>
  <metadata
     id="metadata7">
    <rdf:RDF>
      <cc:Work
         rdf:about="">
        <dc:format>image/svg+xml</dc:format>
        <dc:type
           rdf:resource="http://purl.org/dc/dcmitype/StillImage" />
        <dc:title />
      </cc:Work>
    </rdf:RDF>
  </metadata>
  <g
     inkscape:label="Ebene 1"
     inkscape:groupmode="layer"
     id="layer1"
     transform="translate(0,-24)">
    <g
       id="g856"
       transform="translate(-1,-2)">
      <path
         sodipodi:nodetypes="ccccccccc"
         inkscape:connector-curvature="0"
         id="path836"
         d="M 2,42 V 30 l 2,-2 h 16 l 2,2 v 12 l -2,2 H 4 Z"
         style="fill:#88aa00;fill-opacity:1;fill-rule:evenodd;stroke:none;stroke-width:1.5px;stroke-linecap:butt;stroke-linejoin:miter;stroke-opacity:1" />
      <path
         d="m 11.690049,36.000991 q 0,-0.953125 -0.211172,-1.664062 -0.211171,-0.71875 -0.584242,-1.195313 -0.373069,-0.476562 -0.886921,-0.710937 -0.5138511,-0.234375 -1.126249,-0.234375 -0.6123982,0 -1.1262489,0.234375 -0.5138507,0.234375 -0.8869215,0.710937 -0.3730698,0.476563 -0.5842412,1.195313 -0.2111723,0.710937 -0.2111723,1.664062 0,0.953126 0.2111723,1.671876 0.2111714,0.710937 0.5842412,1.1875 0.3730708,0.468749 0.8869215,0.710936 0.5138508,0.234375 1.1262489,0.234375 0.6123979,0 1.126249,-0.234375 0.513852,-0.242187 0.886921,-0.710936 0.373071,-0.476563 0.584242,-1.1875 0.211172,-0.71875 0.211172,-1.671876 z m 0.190055,3.890625 q 0.175976,-0.05469 0.401226,-0.101564 0.22525,-0.04687 0.464577,-0.07812 0.246367,-0.03125 0.485696,-0.04687 0.246367,-0.01563 0.478655,-0.01563 H 13.844 v 1.664062 q -0.37307,-0.03906 -0.900999,-0.0625 -0.527929,-0.02345 -1.11921,-0.02345 -0.443461,0 -0.795414,0.02345 -0.351953,0.02344 -0.710944,0.04687 -0.351953,0.03124 -0.7391019,0.05469 -0.3801087,0.02344 -0.7461396,0.02344 -1.1051323,0 -1.9498187,-0.390624 Q 6.0376856,40.594744 5.4604826,39.883808 4.8832809,39.172867 4.5876401,38.188492 4.292,37.196304 4.292,36.000991 q 0,-1.195312 0.3026791,-2.187499 0.3097188,-1.000001 0.8939609,-1.718751 0.5912802,-0.71875 1.4430063,-1.117187 0.8587653,-0.398438 1.9498187,-0.398438 1.091054,0 1.94278,0.398438 0.858765,0.398437 1.443007,1.109375 0.591281,0.710937 0.89396,1.695312 0.309719,0.976563 0.309719,2.140626 0,0.609375 -0.10559,1.1875 -0.105589,0.578125 -0.309719,1.078125 -0.197093,0.5 -0.499773,0.9375 -0.302676,0.429687 -0.689825,0.742187 z"
         id="path848"
         inkscape:connector-curvature="0"
         style="font-style:normal;font-variant:normal;font-weight:bold;font-stretch:normal;font-size:medium;line-height:25px;font-family:Corbel;-inkscape-font-specification:'Corbel Bold';letter-spacing:0px;word-spacing:0px;fill:#ffffff;fill-opacity:1;stroke:none;stroke-width:1.42381477px;stroke-linecap:butt;stroke-linejoin:miter;stroke-opacity:1" />
      <path
         d="m 20.156499,41.21937 q -0.312499,0.09375 -0.75,0.14844 -0.429687,0.05469 -0.804687,0.05469 -0.953125,0 -1.5625,-0.304688 Q 16.43775,40.805313 16.18775,40.227187 16.008062,39.813126 16.008062,39.102188 V 35.180307 H 14.594 v -1.523438 h 1.414062 v -2.117187 h 1.851562 v 2.117187 h 2.187501 v 1.523438 h -2.187501 v 3.679688 q 0,0.4375 0.13281,0.648437 0.234375,0.359375 0.929688,0.359375 0.320312,0 0.632813,-0.04687 0.320311,-0.05469 0.601561,-0.13281 z"
         id="path850"
         inkscape:connector-curvature="0"
         style="font-style:normal;font-variant:normal;font-weight:bold;font-stretch:normal;font-size:medium;line-height:25px;font-family:Corbel;-inkscape-font-specification:'Corbel Bold';letter-spacing:0px;word-spacing:0px;fill:#ffffff;fill-opacity:1;stroke:none;stroke-width:1.5px;stroke-linecap:butt;stroke-linejoin:miter;stroke-opacity:1" />
    </g>
    <g
       id="g848"
       transform="matrix(1.5,0,0,1.5,-0.642781,23.374195)">
      <g
         id="text821"
         style="font-style:normal;font-variant:normal;font-weight:bold;font-stretch:normal;font-size:9.33333397px;line-height:25px;font-family:Calibri;-inkscape-font-specification:'Calibri Bold';letter-spacing:0px;word-spacing:0px;fill:#000000;fill-opacity:1;stroke:none;stroke-width:1px;stroke-linecap:butt;stroke-linejoin:miter;stroke-opacity:1"
         aria-label="5">
        <path
           id="path831"
           d="m 12.058594,8.9980469 c -0.234682,0 -0.560387,0.079176 -0.785156,0.3320312 a 0.74457127,0.74457127 0 0 0 -0.002,0.00195 C 11.0342,9.6008975 11.017532,9.8693933 11.017532,10.083981 v 2.560547 c 0,0.19484 -0.0163,0.419577 0.216797,0.710938 a 0.74457127,0.74457127 0 0 0 0.03711,0.04101 c 0.224745,0.242021 0.52474,0.302735 0.736328,0.302735 0.162432,0 0.328047,-0.01158 0.498047,-0.0332 0.109503,-0.01369 0.24009,-0.02149 0.390625,-0.02149 0.179061,0 0.309733,0.01702 0.38086,0.03516 0.07172,0.01828 0.09091,0.03571 0.08789,0.0332 0.0041,0.01051 0.01367,0.03768 0.01367,0.103515 0,0.09037 -0.01624,0.12984 -0.01758,0.132813 -0.0084,0.01862 -0.01129,0.0204 -0.01953,0.02734 -0.009,0.0068 -0.02592,0.01918 -0.08203,0.0332 a 0.74457127,0.74457127 0 0 0 -0.0039,0.002 c -0.07166,0.0183 -0.170045,0.03125 -0.294921,0.03125 -0.160361,0 -0.283843,-0.01648 -0.357422,-0.0332 h -0.002 c -0.110746,-0.02833 -0.195816,-0.05509 -0.248046,-0.07617 -0.08296,-0.0352 -0.147559,-0.06688 -0.191407,-0.08984 l 0.03711,0.02148 c -0.107723,-0.06463 -0.19136,-0.160156 -0.519531,-0.160156 -0.192644,0 -0.399034,0.07696 -0.541016,0.195313 -0.186638,0.155518 -0.225057,0.279994 -0.259766,0.363281 a 0.74457127,0.74457127 0 0 0 -0.01953,0.05078 c -0.03799,0.113894 -0.05095,0.210518 -0.06055,0.306641 -0.0092,0.0894 -0.01367,0.183831 -0.01367,0.289062 0,0.08426 -4.31e-4,0.162502 0.0039,0.244141 0.0039,0.07449 0.0098,0.144701 0.02149,0.220703 a 0.74457127,0.74457127 0 0 0 0.01367,0.06641 c 0.02143,0.0857 0.05023,0.160369 0.07617,0.21875 0.05726,0.128824 0.137264,0.231015 0.207031,0.300782 a 0.74457127,0.74457127 0 0 0 0.07031,0.06055 c 0.137779,0.107158 0.209287,0.131209 0.31836,0.179688 a 0.74457127,0.74457127 0 0 0 0.03125,0.01367 c 0.12375,0.04861 0.250649,0.0868 0.394531,0.126953 a 0.74457127,0.74457127 0 0 0 0.01563,0.0039 c 0.16327,0.04177 0.335037,0.07355 0.517578,0.09766 0.0019,2.77e-4 0.004,-2.74e-4 0.0059,0 0.0028,3.66e-4 0.005,0.0016 0.0078,0.002 0.197642,0.02861 0.402828,0.04297 0.615234,0.04297 0.41099,0 0.803295,-0.05384 1.169922,-0.171875 0.366626,-0.117008 0.702231,-0.29381 0.984375,-0.533203 a 0.74457127,0.74457127 0 0 0 0,-0.002 c 0.286428,-0.243679 0.514069,-0.551993 0.666016,-0.896484 v -0.002 c 0.158745,-0.356832 0.234375,-0.750379 0.234375,-1.158203 0,-0.360415 -0.05794,-0.707183 -0.189453,-1.02539 -0.128666,-0.313878 -0.332181,-0.598879 -0.591797,-0.81836 -0.199303,-0.172446 -0.446653,-0.273303 -0.69336,-0.36914 h 0.1875 c 0.197887,0 0.43304,-0.09013 0.578126,-0.220703 0.142046,-0.127842 0.206577,-0.265566 0.25,-0.38086 0.09784,-0.248503 0.103515,-0.437816 0.103515,-0.662109 10e-7,-0.109259 -0.0055,-0.212401 -0.01953,-0.3183596 -0.01082,-0.1105971 -0.03569,-0.2255793 -0.0918,-0.3574219 C 15.622975,9.450461 15.540066,9.2961621 15.376953,9.1738281 15.240267,9.071289 15.04433,8.9980469 14.851562,8.9980469 Z m 2.40039,2.4042971 0.0098,0.0039 c -0.0012,-3.66e-4 -0.0027,3.65e-4 -0.0039,0 -0.0023,-6.73e-4 -0.0036,-0.0032 -0.0059,-0.0039 z"
           style="fill:#ffffff"
           inkscape:connector-curvature="0" />
      </g>
      <g
         id="text839"
         style="font-style:normal;font-variant:normal;font-weight:bold;font-stretch:normal;font-size:9.33333397px;line-height:25px;font-family:Calibri;-inkscape-font-specification:'Calibri Bold';letter-spacing:0px;word-spacing:0px;fill:#000000;fill-opacity:1;stroke:none;stroke-width:1px;stroke-linecap:butt;stroke-linejoin:miter;stroke-opacity:1"
         aria-label="5">
        <path
           id="path841"
           d="m 15.394084,13.725146 q 0,0.478516 -0.16862,0.856771 -0.164063,0.373698 -0.469401,0.633464 -0.300782,0.255208 -0.729167,0.391927 -0.423828,0.136719 -0.943359,0.136719 -0.273438,0 -0.519532,-0.03646 -0.246093,-0.0319 -0.442057,-0.08203 -0.195964,-0.05469 -0.323568,-0.104818 -0.123047,-0.05469 -0.164062,-0.08659 -0.03646,-0.03646 -0.05469,-0.07747 -0.01823,-0.04102 -0.0319,-0.0957 -0.0091,-0.05925 -0.01367,-0.145834 -0.0046,-0.08659 -0.0046,-0.205078 0,-0.127604 0.0091,-0.214193 0.0091,-0.09115 0.02734,-0.145833 0.02279,-0.05469 0.05013,-0.07747 0.02734,-0.02279 0.0638,-0.02279 0.04557,0 0.136718,0.05469 0.0957,0.05013 0.246094,0.113932 0.154948,0.0638 0.373698,0.11849 0.21875,0.05013 0.524089,0.05013 0.264323,0 0.478515,-0.05469 0.21875,-0.05469 0.369141,-0.173177 0.150391,-0.123047 0.232422,-0.305339 0.08203,-0.182292 0.08203,-0.4375 0,-0.21875 -0.06836,-0.38737 -0.06836,-0.173177 -0.214193,-0.291667 -0.145833,-0.118489 -0.378255,-0.177734 -0.232422,-0.05925 -0.565104,-0.05925 -0.264323,0 -0.483073,0.02734 -0.214193,0.02734 -0.405599,0.02734 -0.132162,0 -0.191407,-0.0638 -0.05469,-0.06836 -0.05469,-0.246094 V 10.08387 q 0,-0.1822918 0.06836,-0.2597658 0.07292,-0.082031 0.227865,-0.082031 h 2.79362 q 0.04102,0 0.07747,0.027344 0.03646,0.027344 0.05925,0.086589 0.02734,0.059245 0.03646,0.1595048 0.01367,0.0957 0.01367,0.232422 0,0.273438 -0.05013,0.396485 -0.04557,0.123047 -0.136719,0.123047 h -2.096354 v 1.26237 q 0.159505,-0.01823 0.314453,-0.02279 0.159505,-0.0046 0.332682,-0.0046 0.478516,0 0.847656,0.113932 0.373698,0.109375 0.624349,0.328125 0.255209,0.214193 0.38737,0.537761 0.132162,0.31901 0.132162,0.742838 z"
           inkscape:connector-curvature="0" />
      </g>
    </g>
  </g>
</svg>
