<?xml version="1.0" encoding="UTF-8" standalone="no"?>
<!-- Created with Inkscape (http://www.inkscape.org/) -->

<svg
   xmlns:dc="http://purl.org/dc/elements/1.1/"
   xmlns:cc="http://creativecommons.org/ns#"
   xmlns:rdf="http://www.w3.org/1999/02/22-rdf-syntax-ns#"
   xmlns:svg="http://www.w3.org/2000/svg"
   xmlns="http://www.w3.org/2000/svg"
   xmlns:sodipodi="http://sodipodi.sourceforge.net/DTD/sodipodi-0.dtd"
   xmlns:inkscape="http://www.inkscape.org/namespaces/inkscape"
   width="24"
   height="24"
   id="svg2"
   sodipodi:version="0.32"
   inkscape:version="0.92.3 (2405546, 2018-03-11)"
   version="1.0"
   sodipodi:docname="issue_wince_150.svg"
   inkscape:output_extension="org.inkscape.output.svg.inkscape"
   inkscape:export-filename="issue_wince_150.png"
   inkscape:export-xdpi="96"
   inkscape:export-ydpi="96">
  <defs
     id="defs4" />
  <sodipodi:namedview
     id="base"
     pagecolor="#ffffff"
     bordercolor="#666666"
     borderopacity="1.0"
     inkscape:pageopacity="0.0"
     inkscape:pageshadow="2"
     inkscape:zoom="31.931225"
     inkscape:cx="11.65787"
     inkscape:cy="8.7694815"
     inkscape:document-units="px"
     inkscape:current-layer="layer1"
     showgrid="true"
     objecttolerance="10"
     gridtolerance="10"
     guidetolerance="10"
     showguides="true"
     inkscape:guide-bbox="true"
     inkscape:window-width="1920"
     inkscape:window-height="1137"
     inkscape:window-x="-8"
     inkscape:window-y="-8"
     inkscape:window-maximized="1"
     inkscape:snap-bbox="true"
     inkscape:bbox-paths="true"
     inkscape:bbox-nodes="true"
     inkscape:snap-bbox-edge-midpoints="true"
     inkscape:snap-bbox-midpoints="true"
     inkscape:object-paths="true"
     inkscape:snap-intersection-paths="true"
     inkscape:object-nodes="true"
     inkscape:snap-smooth-nodes="true"
     inkscape:snap-midpoints="true"
     inkscape:snap-object-midpoints="true"
     inkscape:snap-center="true">
    <inkscape:grid
       type="xygrid"
       id="grid2409"
       visible="true"
       enabled="true"
       spacingx="0.5"
       spacingy="0.5"
       empspacing="2"
       snapvisiblegridlinesonly="true"
       originx="0"
       originy="0" />
  </sodipodi:namedview>
  <metadata
     id="metadata7">
    <rdf:RDF>
      <cc:Work
         rdf:about="">
        <dc:format>image/svg+xml</dc:format>
        <dc:type
           rdf:resource="http://purl.org/dc/dcmitype/StillImage" />
        <dc:title />
      </cc:Work>
    </rdf:RDF>
  </metadata>
  <g
     inkscape:label="Ebene 1"
     inkscape:groupmode="layer"
     id="layer1"
     transform="translate(0,-24)">
    <g
       id="layer1-6"
       inkscape:label="Ebene 1"
       transform="matrix(1.5454545,0,0,1.5454545,-0.09090909,23.909091)">
      <rect
         y="2"
         x="2"
         height="11"
         width="11"
         id="rect817"
         style="opacity:1;fill:#ffffff;fill-opacity:1;fill-rule:evenodd;stroke:none;stroke-width:0.5;stroke-linecap:round;stroke-linejoin:round;stroke-miterlimit:4;stroke-dasharray:none;stroke-dashoffset:0;stroke-opacity:1;paint-order:normal" />
      <rect
         y="2"
         x="2"
         height="5"
         width="5"
         id="rect827"
         style="opacity:1;fill:#f34b1b;fill-opacity:1;fill-rule:evenodd;stroke:none;stroke-width:0.625;stroke-linecap:round;stroke-linejoin:round;stroke-miterlimit:4;stroke-dasharray:none;stroke-dashoffset:0;stroke-opacity:1;paint-order:normal" />
      <rect
         style="opacity:1;fill:#fcb600;fill-opacity:1;fill-rule:evenodd;stroke:none;stroke-width:0.625;stroke-linecap:round;stroke-linejoin:round;stroke-miterlimit:4;stroke-dasharray:none;stroke-dashoffset:0;stroke-opacity:1;paint-order:normal"
         id="rect829"
         width="5"
         height="5"
         x="8"
         y="8" />
      <rect
         y="8"
         x="2"
         height="5"
         width="5"
         id="rect831"
         style="opacity:1;fill:#059ee5;fill-opacity:1;fill-rule:evenodd;stroke:none;stroke-width:0.625;stroke-linecap:round;stroke-linejoin:round;stroke-miterlimit:4;stroke-dasharray:none;stroke-dashoffset:0;stroke-opacity:1;paint-order:normal" />
      <rect
         style="opacity:1;fill:#7bb406;fill-opacity:1;fill-rule:evenodd;stroke:none;stroke-width:0.625;stroke-linecap:round;stroke-linejoin:round;stroke-miterlimit:4;stroke-dasharray:none;stroke-dashoffset:0;stroke-opacity:1;paint-order:normal"
         id="rect833"
         width="5"
         height="5"
         x="8"
         y="2" />
    </g>
    <g
       id="g864"
       transform="matrix(1.5,0,0,1.5,28.226577,-11.809603)">
      <g
         transform="translate(-18.933374,23.73869)"
         id="text828"
         style="font-style:normal;font-variant:normal;font-weight:bold;font-stretch:normal;font-size:8px;line-height:25px;font-family:Calibri;-inkscape-font-specification:'Calibri Bold';letter-spacing:0px;word-spacing:0px;fill:#ffffff;fill-opacity:1;stroke:none;stroke-width:1px;stroke-linecap:butt;stroke-linejoin:miter;stroke-opacity:1"
         aria-label="CE">
        <path
           id="path830"
           d="m 9.84375,8.9882812 c -0.3820072,0 -0.7453489,0.087174 -1.0976562,0.2050782 -0.061513,0.020586 -0.1312287,0.012756 -0.1914063,0.037109 a 0.51164742,0.51164742 0 0 0 -0.00586,0.00195 C 8.1414822,9.3990627 7.7787375,9.652394 7.484375,9.9765625 7.186534,10.304566 6.9667149,10.697327 6.8183594,11.128906 c -0.1531729,0.445594 -0.2207031,0.927557 -0.2207032,1.4375 0,0.495844 0.060424,0.961343 0.2011719,1.390625 0.1374784,0.41931 0.3475795,0.804604 0.640625,1.125 a 0.51164742,0.51164742 0 0 0 0.00391,0.0039 c 0.2900954,0.313242 0.6483857,0.553594 1.0488281,0.707031 0.3961928,0.151811 0.8227822,0.21875 1.2617187,0.21875 0.1883057,0 0.3687471,-0.0233 0.5468751,-0.05078 a 0.51164742,0.51164742 0 0 0 0.111328,-0.0059 c 0.16916,-0.03154 0.324552,-0.07717 0.47461,-0.126953 0.0012,-3.83e-4 0.0028,3.84e-4 0.0039,0 a 0.51164742,0.51164742 0 0 0 0.06445,-0.01758 0.51164742,0.51164742 0 0 0 0.0098,-0.002 c 0.152489,-0.05635 0.294705,-0.121758 0.429687,-0.199219 0.09126,-0.05133 0.231702,-0.130145 0.363281,-0.261719 0.0065,-0.0064 0.01323,-0.01295 0.01953,-0.01953 a 0.51164742,0.51164742 0 0 0 0.0078,-0.0078 c 0.04842,-0.0528 0.124108,-0.139794 0.1875,-0.253906 0.05645,-0.101646 0.09199,-0.203127 0.115235,-0.294922 l 0.002,-0.0039 c 0.0012,-0.0046 0.0028,-0.009 0.0039,-0.01367 a 0.51164742,0.51164742 0 0 0 0,-0.0039 c 0.01896,-0.08208 0.02771,-0.159432 0.0332,-0.230469 0.0019,-0.01811 0.0025,-0.03658 0.0039,-0.05469 0.0054,-0.06717 0.0098,-0.134866 0.0098,-0.203125 0,-0.09191 -0.0036,-0.175 -0.0098,-0.257813 v -0.002 a 0.51164742,0.51164742 0 0 0 -0.002,-0.04687 c -0.0074,-0.08125 -0.02258,-0.202582 -0.06641,-0.333984 h 0.002 C 12.036167,13.5362 11.91424,13.25797 11.667969,13.09375 c -0.202428,-0.134972 -0.414437,-0.167969 -0.5625,-0.167969 -0.313655,0 -0.586715,0.177018 -0.640625,0.212891 -0.0045,0.003 -0.0092,0.0048 -0.01367,0.0078 a 0.51164742,0.51164742 0 0 0 -0.0059,0.0039 c -0.0131,0.0091 -0.07134,0.04622 -0.148437,0.08789 a 0.51164742,0.51164742 0 0 0 -0.0078,0.0039 c -0.0252,0.014 -0.09116,0.04415 -0.171874,0.07226 -7.81e-4,2.72e-4 -0.0012,-2.72e-4 -0.002,0 -0.02077,0.0065 -0.09165,0.02149 -0.2011715,0.02149 -0.093531,0 -0.1421834,-0.012 -0.1816406,-0.02734 -0.030987,-0.01372 -0.040092,-0.01848 -0.068359,-0.05274 v -0.002 c -0.017992,-0.02296 -0.0582,-0.09195 -0.09375,-0.207031 -2.79e-4,-9.03e-4 2.786e-4,-10e-4 0,-0.002 -0.03232,-0.11862 -0.058594,-0.299346 -0.058594,-0.533203 0,-0.207785 0.021793,-0.375898 0.054687,-0.5 0.033105,-0.124893 0.073825,-0.200475 0.109375,-0.25 0.041745,-0.05728 0.053673,-0.06341 0.085938,-0.08008 a 0.51164742,0.51164742 0 0 0 0.00781,-0.0039 c 0.024948,-0.01311 0.037658,-0.02148 0.1171876,-0.02148 0.1036894,0 0.1635365,0.01614 0.1621095,0.01563 a 0.51164742,0.51164742 0 0 0 0.02148,0.0078 c 0.08096,0.02698 0.135735,0.05702 0.154297,0.06836 0.0067,0.0041 0.01465,0.0078 0.02149,0.01172 a 0.51164742,0.51164742 0 0 0 0.0039,0.002 c 0.06767,0.03841 0.119605,0.0739 0.125,0.07813 a 0.51164742,0.51164742 0 0 0 0.002,0.0039 c 0.006,0.0046 0.01151,0.0092 0.01758,0.01367 0.09533,0.07029 0.362532,0.240233 0.683594,0.240234 0.257795,0 0.457663,-0.07667 0.648437,-0.240234 0.166997,-0.143177 0.260451,-0.325599 0.302735,-0.435547 0.05464,-0.142004 0.07488,-0.275338 0.08398,-0.371094 0.0089,-0.0933 0.01172,-0.187071 0.01172,-0.285156 0,-0.08501 -0.0042,-0.167716 -0.01172,-0.25 -0.0042,-0.07031 -0.01046,-0.155177 -0.03125,-0.251953 -0.02029,-0.0947 -0.0577,-0.216704 -0.125,-0.3378908 C 11.881796,9.7903347 11.782967,9.6921941 11.730469,9.6425781 11.601845,9.5114563 11.461749,9.4209492 11.351562,9.359375 11.206414,9.278261 11.057326,9.2190033 10.910156,9.1699219 c -5.75e-4,-2.05e-4 -0.0014,2.046e-4 -0.002,0 -0.0027,-8.895e-4 -0.0051,-0.00302 -0.0078,-0.00391 a 0.51164742,0.51164742 0 0 0 -0.06836,-0.015625 C 10.696004,9.1057934 10.556489,9.0638005 10.408203,9.0371094 10.221855,9.0035669 10.033885,8.9882812 9.84375,8.9882812 Z m 2.283203,5.5312498 c 6.51e-4,-0.0033 0.0033,-0.03451 0.0039,-0.04687 z M 8.5546875,9.2304688 8.7402344,9.1933594 a 0.51164742,0.51164742 0 0 0 -0.1855469,0.037109 z"
           style="fill:#ffffff"
           inkscape:connector-curvature="0" />
        <path
           id="path832"
           d="m 12.28125,8.9980469 c -0.307594,0 -0.604659,0.099519 -0.855469,0.3164062 -0.339013,0.292783 -0.423828,0.6920939 -0.423828,0.9824219 v 4.40625 c 0,0.287584 0.08168,0.674147 0.400391,0.966797 0.0011,9.89e-4 0.0028,9.69e-4 0.0039,0.002 4.49e-4,4.09e-4 -4.5e-4,0.0015 0,0.002 0.01048,0.0097 0.02036,0.01814 0.03125,0.02734 a 0.50128108,0.50128108 0 0 0 0.0059,0.0039 c 0.252426,0.208524 0.544961,0.296875 0.837891,0.296875 h 2.539062 c 0.227534,0 0.430399,-0.05937 0.628907,-0.201172 a 0.50128108,0.50128108 0 0 0 0.0059,-0.0039 c 0.0042,-0.0031 0.0076,-0.0066 0.01172,-0.0098 0.193971,-0.145488 0.303522,-0.326506 0.365234,-0.474609 0.059,-0.141553 0.08067,-0.276492 0.0918,-0.373047 1.83e-4,-0.0013 0.0018,-0.0026 0.002,-0.0039 0.01391,-0.101826 0.02149,-0.2055 0.02149,-0.310547 0,-0.09519 -0.0057,-0.195155 -0.01953,-0.298828 v -0.0039 c -0.0109,-0.101777 -0.03585,-0.241119 -0.0957,-0.384766 -0.07733,-0.185635 -0.201337,-0.338278 -0.378906,-0.46875 a 0.50128108,0.50128108 0 0 0 -0.002,0 c -0.04479,-0.03274 -0.121597,-0.03246 -0.171875,-0.06055 0.09054,-0.09536 0.2004,-0.186184 0.248047,-0.291015 a 0.50128108,0.50128108 0 0 0 0,-0.002 c 0.0042,-0.0093 0.0078,-0.01984 0.01172,-0.0293 0.05851,-0.141923 0.08098,-0.276077 0.0918,-0.371094 1.88e-4,-0.0013 0.0018,-0.0026 0.002,-0.0039 0.01397,-0.100387 0.02149,-0.201323 0.02149,-0.304688 0,-0.0943 -0.0059,-0.193114 -0.01953,-0.294922 v -0.0039 c -0.01106,-0.103831 -0.0405,-0.244617 -0.101563,-0.386719 -0.02601,-0.06131 -0.09146,-0.104334 -0.128906,-0.160156 0.0093,-0.0063 0.02001,-0.0031 0.0293,-0.0098 0.02198,-0.0155 0.04383,-0.03156 0.06445,-0.04883 a 0.50128108,0.50128108 0 0 0 0.0039,-0.0039 c 0.170308,-0.146024 0.264154,-0.324208 0.310547,-0.435547 0.05901,-0.141572 0.08067,-0.276528 0.0918,-0.373047 1.82e-4,-0.0013 0.0018,-0.0026 0.002,-0.0039 0.01371,-0.100128 0.02148,-0.202557 0.02148,-0.306641 0,-0.09609 -0.0054,-0.197097 -0.01953,-0.302734 v -0.0039 C 15.897461,9.9720062 15.872178,9.8403901 15.818359,9.7050781 15.777672,9.6003039 15.660414,9.3612571 15.433594,9.1992188 15.23505,9.0573856 15.032189,8.9980469 14.804688,8.9980469 Z"
           style="fill:#ffffff"
           inkscape:connector-curvature="0" />
      </g>
      <text
         id="text820"
         y="38.766033"
         x="-11.741968"
         style="font-style:normal;font-variant:normal;font-weight:bold;font-stretch:normal;font-size:8px;line-height:25px;font-family:Calibri;-inkscape-font-specification:'Calibri Bold';letter-spacing:0px;word-spacing:0px;fill:#000000;fill-opacity:1;stroke:none;stroke-width:1px;stroke-linecap:butt;stroke-linejoin:miter;stroke-opacity:1"
         xml:space="preserve"><tspan
           y="38.766033"
           x="-11.741968"
           id="tspan818"
           sodipodi:role="line">CE</tspan></text>
    </g>
  </g>
</svg>
