<?xml version="1.0" encoding="UTF-8" standalone="no"?>
<!-- Created with Inkscape (http://www.inkscape.org/) -->

<svg
   xmlns:dc="http://purl.org/dc/elements/1.1/"
   xmlns:cc="http://creativecommons.org/ns#"
   xmlns:rdf="http://www.w3.org/1999/02/22-rdf-syntax-ns#"
   xmlns:svg="http://www.w3.org/2000/svg"
   xmlns="http://www.w3.org/2000/svg"
   xmlns:sodipodi="http://sodipodi.sourceforge.net/DTD/sodipodi-0.dtd"
   xmlns:inkscape="http://www.inkscape.org/namespaces/inkscape"
   width="32"
   height="32"
   id="svg2"
   sodipodi:version="0.32"
   inkscape:version="0.92.3 (2405546, 2018-03-11)"
   version="1.0"
   sodipodi:docname="issue_carbon_200.svg"
   inkscape:output_extension="org.inkscape.output.svg.inkscape"
   inkscape:export-filename="issue_carbon_200.png"
   inkscape:export-xdpi="96"
   inkscape:export-ydpi="96">
  <defs
     id="defs4" />
  <sodipodi:namedview
     id="base"
     pagecolor="#ffffff"
     bordercolor="#666666"
     borderopacity="1.0"
     inkscape:pageopacity="0.0"
     inkscape:pageshadow="2"
     inkscape:zoom="20.813676"
     inkscape:cx="14.789242"
     inkscape:cy="13.466446"
     inkscape:document-units="px"
     inkscape:current-layer="layer1"
     showgrid="true"
     objecttolerance="10"
     gridtolerance="10"
     guidetolerance="10"
     showguides="false"
     inkscape:guide-bbox="true"
     inkscape:window-width="1920"
     inkscape:window-height="1137"
     inkscape:window-x="-8"
     inkscape:window-y="-8"
     inkscape:window-maximized="1"
     inkscape:snap-bbox="true"
     inkscape:bbox-paths="true"
     inkscape:bbox-nodes="true"
     inkscape:snap-bbox-edge-midpoints="true"
     inkscape:snap-bbox-midpoints="true"
     inkscape:object-paths="true"
     inkscape:snap-intersection-paths="true"
     inkscape:snap-smooth-nodes="true"
     inkscape:snap-midpoints="true"
     inkscape:snap-object-midpoints="true">
    <inkscape:grid
       type="xygrid"
       id="grid2409"
       visible="true"
       enabled="true"
       spacingx="0.5"
       spacingy="0.5"
       empspacing="2"
       snapvisiblegridlinesonly="true"
       originx="0"
       originy="0" />
  </sodipodi:namedview>
  <metadata
     id="metadata7">
    <rdf:RDF>
      <cc:Work
         rdf:about="">
        <dc:format>image/svg+xml</dc:format>
        <dc:type
           rdf:resource="http://purl.org/dc/dcmitype/StillImage" />
        <dc:title />
      </cc:Work>
    </rdf:RDF>
  </metadata>
  <g
     inkscape:label="Ebene 1"
     inkscape:groupmode="layer"
     id="layer1">
    <g
       id="g830">
      <g
         id="g822"
         transform="matrix(0.17337461,0,0,0.17337461,31.381409,15.263158)"
         style="fill:#9393ac;fill-opacity:1">
        <path
           d="m -54.5,-87.847656 c -20.821446,0 -40.767018,16.433631 -44.253906,41.160156 -4.608344,-1.406427 -10.047824,-2.660156 -17.246094,-2.660156 -27.48428,0 -52.34766,24.76281 -52.34766,62.347656 0,16.346056 6.38405,35.181149 16.08789,51.539062 9.70385,16.357914 23.00998,31.808594 42.25977,31.808594 8.55431,0 14.738942,-1.867258 18.351562,-3.341797 3.612621,-1.474539 3.249826,-1.658203 5.648438,-1.658203 2.398612,0 0.681592,-0.249071 3.962891,1.351563 3.281298,1.600633 9.482799,3.648437 18.037109,3.648437 13.197762,0 24.129882,-7.562322 33.279297,-17.013672 9.149415,-9.451349 16.643298,-21.491669 21.0195311,-34.25 A 11.348629,11.348629 0 0 0 -16.109375,30.912109 c -9.06631,-3.739176 -14.934308,-12.500372 -14.943359,-22.3066402 0.01362,-8.48787271 4.449166,-16.3077998 11.728515,-20.6738278 a 11.348629,11.348629 0 0 0 3.314453,-16.441407 c -8.668889,-11.81763 -21.364807,-19.025722 -34.783203,-20.521484 5.813378,-8.614206 8.698025,-18.750188 7.56836,-28.744141 A 11.348629,11.348629 0 0 0 -54.5,-87.847656 Z"
           id="path820"
           style="fill:#ffffff;fill-opacity:1;fill-rule:evenodd;stroke:none;stroke-width:1px;stroke-linecap:butt;stroke-linejoin:miter;stroke-opacity:1"
           inkscape:original="M -54.5 -76.5 C -71 -76.5 -88 -62.5 -88 -39 C -64.648705 -41.63951 -52.646727 -60.10441 -54.5 -76.5 z M -116 -38 C -137 -38 -157 -20 -157 13 C -157 39 -134 85 -110 85 C -95.5 85 -95 80 -86 80 C -77 80 -78.5 85 -64 85 C -47.545392 85 -27.973254 63.377533 -20.435547 41.402344 C -33.722328 35.922539 -42.394035 22.972041 -42.400391 8.5996094 C -42.384434 -3.8560225 -35.841805 -15.392159 -25.160156 -21.798828 C -32.952461 -32.421479 -44.318705 -38 -56 -38 C -73 -38 -78 -31 -86 -31 C -94 -31 -99 -38 -116 -38 z "
           inkscape:radius="11.347494"
           sodipodi:type="inkscape:offset" />
      </g>
      <g
         style="fill:#9393ac;fill-opacity:1"
         transform="matrix(0.17337461,0,0,0.17337461,31.381409,15.263158)"
         id="g850">
        <path
           d="m -116,-38 c -21,0 -41,18 -41,51 0,26 23,72 47,72 14.5,0 15,-5 24,-5 9,0 7.5,5 22,5 16.454608,0 36.026746,-21.622467 43.564453,-43.597656 C -33.722328,35.922539 -42.394035,22.972041 -42.400391,8.5996094 -42.384434,-3.8560225 -35.841805,-15.392159 -25.160156,-21.798828 -32.952461,-32.421479 -44.318705,-38 -56,-38 c -17,0 -22,7 -30,7 -8,0 -13,-7 -30,-7 z m 61.5,-38.5 c -16.5,0 -33.5,14 -33.5,37.5 23.351295,-2.63951 35.353273,-21.10441 33.5,-37.5 z"
           style="fill:#9393ac;fill-rule:evenodd;stroke:none;stroke-width:1px;stroke-linecap:butt;stroke-linejoin:miter;stroke-opacity:1;fill-opacity:1"
           id="path836" />
      </g>
    </g>
  </g>
</svg>
