<?xml version="1.0" encoding="UTF-8" standalone="no"?>
<!-- Created with Inkscape (http://www.inkscape.org/) -->

<svg
   xmlns:dc="http://purl.org/dc/elements/1.1/"
   xmlns:cc="http://creativecommons.org/ns#"
   xmlns:rdf="http://www.w3.org/1999/02/22-rdf-syntax-ns#"
   xmlns:svg="http://www.w3.org/2000/svg"
   xmlns="http://www.w3.org/2000/svg"
   xmlns:sodipodi="http://sodipodi.sourceforge.net/DTD/sodipodi-0.dtd"
   xmlns:inkscape="http://www.inkscape.org/namespaces/inkscape"
   width="24"
   height="24"
   id="svg2"
   sodipodi:version="0.32"
   inkscape:version="0.92.3 (2405546, 2018-03-11)"
   version="1.0"
   sodipodi:docname="issue_carbon_150.svg"
   inkscape:output_extension="org.inkscape.output.svg.inkscape"
   inkscape:export-filename="issue_carbon_150.png"
   inkscape:export-xdpi="96"
   inkscape:export-ydpi="96">
  <defs
     id="defs4" />
  <sodipodi:namedview
     id="base"
     pagecolor="#ffffff"
     bordercolor="#666666"
     borderopacity="1.0"
     inkscape:pageopacity="0.0"
     inkscape:pageshadow="2"
     inkscape:zoom="39.161062"
     inkscape:cx="11.99994"
     inkscape:cy="12"
     inkscape:document-units="px"
     inkscape:current-layer="layer1"
     showgrid="true"
     objecttolerance="10"
     gridtolerance="10"
     guidetolerance="10"
     showguides="true"
     inkscape:guide-bbox="true"
     inkscape:window-width="1920"
     inkscape:window-height="1137"
     inkscape:window-x="-8"
     inkscape:window-y="-8"
     inkscape:window-maximized="1"
     inkscape:snap-bbox="true"
     inkscape:bbox-paths="true"
     inkscape:bbox-nodes="true"
     inkscape:snap-bbox-edge-midpoints="true"
     inkscape:snap-bbox-midpoints="true"
     inkscape:object-paths="true"
     inkscape:snap-intersection-paths="true"
     inkscape:object-nodes="true"
     inkscape:snap-smooth-nodes="true"
     inkscape:snap-midpoints="true"
     inkscape:snap-object-midpoints="true"
     inkscape:snap-center="true">
    <inkscape:grid
       type="xygrid"
       id="grid2409"
       visible="true"
       enabled="true"
       spacingx="0.5"
       spacingy="0.5"
       empspacing="2"
       snapvisiblegridlinesonly="true"
       originx="0"
       originy="0" />
  </sodipodi:namedview>
  <metadata
     id="metadata7">
    <rdf:RDF>
      <cc:Work
         rdf:about="">
        <dc:format>image/svg+xml</dc:format>
        <dc:type
           rdf:resource="http://purl.org/dc/dcmitype/StillImage" />
        <dc:title />
      </cc:Work>
    </rdf:RDF>
  </metadata>
  <g
     inkscape:label="Ebene 1"
     inkscape:groupmode="layer"
     id="layer1"
     transform="translate(0,-24)">
    <g
       id="g823">
      <path
         transform="matrix(0.13622291,0,0,0.13622291,24.085393,35.421053)"
         sodipodi:type="inkscape:offset"
         inkscape:radius="7.3532162"
         inkscape:original="M -54.5 -76.5 C -71 -76.5 -88 -62.5 -88 -39 C -64.648705 -41.63951 -52.646727 -60.10441 -54.5 -76.5 z M -116 -38 C -137 -38 -157 -20 -157 13 C -157 39 -134 85 -110 85 C -95.5 85 -95 80 -86 80 C -77 80 -78.5 85 -64 85 C -47.545392 85 -27.973254 63.377533 -20.435547 41.402344 C -33.722328 35.922539 -42.394035 22.972041 -42.400391 8.5996094 C -42.384434 -3.8560225 -35.841805 -15.392159 -25.160156 -21.798828 C -32.952461 -32.421479 -44.318705 -38 -56 -38 C -73 -38 -78 -31 -86 -31 C -94 -31 -99 -38 -116 -38 z "
         style="fill:#ffffff;fill-opacity:1;fill-rule:evenodd;stroke:none;stroke-width:1px;stroke-linecap:butt;stroke-linejoin:miter;stroke-opacity:1"
         id="path820"
         d="m -54.5,-83.853516 c -20.01991,0 -39.435773,16.806303 -40.628906,42.453125 -4.76864,-1.890875 -11.488674,-3.953125 -20.871094,-3.953125 -25.20184,0 -48.35352,22.38252 -48.35352,58.353516 0,15.168256 6.16121,33.71002 15.5293,49.501953 9.3681,15.791933 22.12633,29.851563 38.82422,29.851563 8.0952,0 13.422817,-1.64942 16.841797,-3.044922 3.41898,-1.395502 4.01991,-1.955078 7.158203,-1.955078 3.138293,0 2.684607,0.278647 5.712891,1.755859 3.028284,1.477212 8.191912,3.244141 16.287109,3.244141 11.448178,0 21.703321,-6.802711 30.410156,-15.796875 8.706836,-8.994165 15.946937,-20.632541 20.109375,-32.767579 a 7.3539515,7.3539515 0 0 0 -4.152343,-9.183593 C -28.182823,30.254377 -35.036309,20.020467 -35.046875,8.609375 v -0.00586 c 0.01472,-9.8842095 5.191251,-19.0115136 13.667969,-24.0957036 a 7.3539515,7.3539515 0 0 0 2.148437,-10.65625 C -28.313655,-38.530848 -41.977636,-45.353516 -56,-45.353516 c -1.068318,0 -1.981113,0.11202 -2.982422,0.16211 8.678497,-8.841728 13.08507,-20.669207 11.789063,-32.134766 A 7.3539515,7.3539515 0 0 0 -54.5,-83.853516 Z" />
      <path
         id="path836"
         style="fill:#9393ac;fill-opacity:1;fill-rule:evenodd;stroke:none;stroke-width:0.13622291px;stroke-linecap:butt;stroke-linejoin:miter;stroke-opacity:1"
         d="m 8.2835354,30.244582 c -2.8606811,0 -5.5851393,2.452013 -5.5851393,6.947369 0,3.541795 3.133127,9.808049 6.4024768,9.808049 1.9752321,0 2.0433441,-0.681114 3.2693501,-0.681114 1.226006,0 1.021672,0.681114 2.996904,0.681114 2.241494,0 4.907668,-2.945475 5.934476,-5.938999 -1.809964,-0.746475 -2.991249,-2.51063 -2.992115,-4.468484 0.0022,-1.696743 0.89343,-3.268229 2.348515,-4.140964 -1.06149,-1.447048 -2.609833,-2.206971 -4.201093,-2.206971 -2.315789,0 -2.996904,0.953561 -4.086687,0.953561 -1.089784,0 -1.770898,-0.953561 -4.0866876,-0.953561 z M 16.661244,25 c -2.247678,0 -4.563467,1.907121 -4.563467,5.10836 C 15.278758,29.748798 16.913703,27.233455 16.661244,25 Z"
         inkscape:connector-curvature="0" />
    </g>
  </g>
</svg>
