<?xml version="1.0" encoding="UTF-8" standalone="no"?>
<!-- Created with Inkscape (http://www.inkscape.org/) -->

<svg
   xmlns:dc="http://purl.org/dc/elements/1.1/"
   xmlns:cc="http://creativecommons.org/ns#"
   xmlns:rdf="http://www.w3.org/1999/02/22-rdf-syntax-ns#"
   xmlns:svg="http://www.w3.org/2000/svg"
   xmlns="http://www.w3.org/2000/svg"
   xmlns:sodipodi="http://sodipodi.sourceforge.net/DTD/sodipodi-0.dtd"
   xmlns:inkscape="http://www.inkscape.org/namespaces/inkscape"
   width="24"
   height="24"
   id="svg2"
   sodipodi:version="0.32"
   inkscape:version="0.92.3 (2405546, 2018-03-11)"
   version="1.0"
   sodipodi:docname="issue_gtk2_150.svg"
   inkscape:output_extension="org.inkscape.output.svg.inkscape"
   inkscape:export-filename="issue_gtk2_150.png"
   inkscape:export-xdpi="96"
   inkscape:export-ydpi="96">
  <defs
     id="defs4" />
  <sodipodi:namedview
     id="base"
     pagecolor="#ffffff"
     bordercolor="#666666"
     borderopacity="1.0"
     inkscape:pageopacity="0.0"
     inkscape:pageshadow="2"
     inkscape:zoom="31.677713"
     inkscape:cx="12.005505"
     inkscape:cy="10.576225"
     inkscape:document-units="px"
     inkscape:current-layer="layer1"
     showgrid="true"
     objecttolerance="10"
     gridtolerance="10"
     guidetolerance="10"
     showguides="true"
     inkscape:guide-bbox="true"
     inkscape:window-width="1920"
     inkscape:window-height="1137"
     inkscape:window-x="-8"
     inkscape:window-y="-8"
     inkscape:window-maximized="1"
     inkscape:snap-bbox="true"
     inkscape:bbox-paths="true"
     inkscape:bbox-nodes="true"
     inkscape:snap-bbox-edge-midpoints="true"
     inkscape:snap-bbox-midpoints="true"
     inkscape:object-paths="true"
     inkscape:snap-intersection-paths="true"
     inkscape:object-nodes="true"
     inkscape:snap-smooth-nodes="true"
     inkscape:snap-midpoints="true"
     inkscape:snap-object-midpoints="true"
     inkscape:snap-center="true">
    <inkscape:grid
       type="xygrid"
       id="grid2409"
       visible="true"
       enabled="true"
       spacingx="0.5"
       spacingy="0.5"
       empspacing="2"
       snapvisiblegridlinesonly="true"
       originx="0"
       originy="0" />
  </sodipodi:namedview>
  <metadata
     id="metadata7">
    <rdf:RDF>
      <cc:Work
         rdf:about="">
        <dc:format>image/svg+xml</dc:format>
        <dc:type
           rdf:resource="http://purl.org/dc/dcmitype/StillImage" />
        <dc:title />
      </cc:Work>
    </rdf:RDF>
  </metadata>
  <g
     inkscape:label="Ebene 1"
     inkscape:groupmode="layer"
     id="layer1"
     transform="translate(0,-24)">
    <g
       id="layer1-7"
       inkscape:label="Ebene 1"
       transform="matrix(1.5,0,0,1.5,0,24)">
      <g
         style="stroke-width:0.52163064;stroke-miterlimit:4;stroke-dasharray:none"
         transform="matrix(0.95834454,0,0,0.95872079,0.81241595,0.33023993)"
         id="g959">
        <path
           sodipodi:nodetypes="ccccc"
           inkscape:connector-curvature="0"
           id="path876"
           d="m 1.5,4.5 6,3 6,-3 -6,-3 z"
           style="fill:#8099fb;fill-opacity:1;fill-rule:evenodd;stroke:#666666;stroke-width:0.52163064;stroke-linecap:butt;stroke-linejoin:round;stroke-miterlimit:4;stroke-dasharray:none;stroke-opacity:1" />
        <path
           sodipodi:nodetypes="ccccc"
           inkscape:connector-curvature="0"
           id="path878"
           d="m 1.5,4.5 6,3 v 7 l -6,-3 z"
           style="fill:#e15f6b;fill-opacity:1;fill-rule:evenodd;stroke:#666666;stroke-width:0.52163064;stroke-linecap:butt;stroke-linejoin:round;stroke-miterlimit:4;stroke-dasharray:none;stroke-opacity:1" />
        <path
           sodipodi:nodetypes="ccccc"
           inkscape:connector-curvature="0"
           id="path880"
           d="m 7.5,7.5 6,-3.0000002 V 11.5 l -6,3 z"
           style="fill:#adf36f;fill-opacity:1;fill-rule:evenodd;stroke:#666666;stroke-width:0.52163064;stroke-linecap:butt;stroke-linejoin:round;stroke-miterlimit:4;stroke-dasharray:none;stroke-opacity:1" />
        <path
           style="fill:#6ea8ff;fill-opacity:1;fill-rule:evenodd;stroke:#666666;stroke-width:0.52163064;stroke-linecap:butt;stroke-linejoin:round;stroke-miterlimit:4;stroke-dasharray:none;stroke-opacity:1"
           d="m 1.5,4.5 6,3 6,-3 -6,-3 z"
           id="path919"
           inkscape:connector-curvature="0"
           sodipodi:nodetypes="ccccc" />
        <path
           style="fill:#ff0000;fill-opacity:1;fill-rule:evenodd;stroke:#666666;stroke-width:0.52163064;stroke-linecap:butt;stroke-linejoin:round;stroke-miterlimit:4;stroke-dasharray:none;stroke-opacity:1"
           d="m 1.5,4.5 6,3 v 7 l -6,-3 z"
           id="path921"
           inkscape:connector-curvature="0"
           sodipodi:nodetypes="ccccc" />
        <path
           style="fill:#00ff00;fill-opacity:1;fill-rule:evenodd;stroke:#666666;stroke-width:0.52163064;stroke-linecap:butt;stroke-linejoin:round;stroke-miterlimit:4;stroke-dasharray:none;stroke-opacity:1"
           d="m 7.5,7.5 6,-3.0000002 V 11.5 l -6,3 z"
           id="path923"
           inkscape:connector-curvature="0"
           sodipodi:nodetypes="ccccc" />
      </g>
    </g>
    <g
       id="g847"
       transform="matrix(1.5,0,0,1.5,-9.1795464,23.482586)">
      <path
         style="font-style:normal;font-variant:normal;font-weight:bold;font-stretch:normal;font-size:medium;line-height:26.73912811px;font-family:Arial;-inkscape-font-specification:'Arial Bold';letter-spacing:0px;word-spacing:0px;fill:#ffffff;fill-opacity:1;stroke:none;stroke-width:1.06956518px;stroke-linecap:butt;stroke-linejoin:miter;stroke-opacity:1"
         d="m 18.824219,7.9980469 c -0.69613,0 -1.365511,0.1913818 -1.896485,0.5976562 -0.597706,0.4573372 -0.899037,1.184638 -0.984375,1.9765629 a 0.85132475,0.85132475 0 0 0 0.761719,0.939453 L 17.875,11.626953 a 0.85132475,0.85132475 0 0 0 0.02539,0.002 c -0.05889,0.0567 -0.04256,0.047 -0.107422,0.107422 h 0.002 c -0.685159,0.635805 -1.163656,1.143832 -1.470703,1.654297 -0.282742,0.467043 -0.459794,0.983081 -0.517578,1.517578 a 0.85132475,0.85132475 0 0 0 0.845703,0.943359 h 4.115234 A 0.85132475,0.85132475 0 0 0 21.619141,15 v -1.089844 a 0.85132475,0.85132475 0 0 0 -0.851563,-0.851562 h -0.347656 c 0.127982,-0.131689 0.304621,-0.288634 0.398437,-0.408203 0.251483,-0.32007 0.452918,-0.643463 0.589844,-0.990235 0.140087,-0.35022 0.210938,-0.726576 0.210938,-1.105468 0,-0.6862812 -0.285646,-1.3646253 -0.785157,-1.835938 -0.52665,-0.4969193 -1.252873,-0.7207031 -2.009765,-0.7207031 z m -0.05469,2.6347651 c 0.0039,0.0039 0.0078,0.01172 0.0059,0.01172 -0.01139,-0.006 0.0045,-0.0011 -0.0059,-0.01172 z"
         id="path843"
         inkscape:connector-curvature="0" />
      <path
         inkscape:connector-curvature="0"
         id="path845"
         style="font-style:normal;font-variant:normal;font-weight:bold;font-stretch:normal;font-size:medium;line-height:26.73912811px;font-family:Arial;-inkscape-font-specification:'Arial Bold';letter-spacing:0px;word-spacing:0px;fill:#000000;fill-opacity:1;stroke:none;stroke-width:1.06956518px;stroke-linecap:butt;stroke-linejoin:miter;stroke-opacity:1"
         d="M 20.767319,13.909545 V 15 H 16.652 q 0.06685,-0.618342 0.401087,-1.169837 0.334239,-0.555672 1.320245,-1.470652 0.793818,-0.739504 0.973471,-1.002717 0.242324,-0.363485 0.242324,-0.718614 0,-0.392731 -0.213078,-0.601631 -0.208899,-0.2130773 -0.58074,-0.2130773 -0.367663,0 -0.584919,0.2214333 -0.217255,0.221433 -0.250679,0.735326 l -1.169837,-0.116984 q 0.10445,-0.969293 0.655944,-1.3912699 0.551495,-0.4219769 1.378737,-0.4219769 0.906623,0 1.424694,0.4888247 0.51807,0.4888248 0.51807,1.2157951 0,0.413621 -0.150407,0.78964 -0.14623,0.371841 -0.467935,0.781284 -0.213077,0.271569 -0.76875,0.781284 -0.555672,0.509714 -0.70608,0.676834 -0.14623,0.167119 -0.238145,0.325883 z" />
    </g>
  </g>
</svg>
