<?xml version="1.0" encoding="UTF-8" standalone="no"?>
<!-- Created with Inkscape (http://www.inkscape.org/) -->

<svg
   xmlns:dc="http://purl.org/dc/elements/1.1/"
   xmlns:cc="http://creativecommons.org/ns#"
   xmlns:rdf="http://www.w3.org/1999/02/22-rdf-syntax-ns#"
   xmlns:svg="http://www.w3.org/2000/svg"
   xmlns="http://www.w3.org/2000/svg"
   xmlns:xlink="http://www.w3.org/1999/xlink"
   xmlns:sodipodi="http://sodipodi.sourceforge.net/DTD/sodipodi-0.dtd"
   xmlns:inkscape="http://www.inkscape.org/namespaces/inkscape"
   width="36"
   height="36"
   viewBox="0 0 36 36"
   version="1.1"
   id="svg862"
   inkscape:version="0.92.3 (2405546, 2018-03-11)"
   sodipodi:docname="TRxSortIBX_150.svg"
   inkscape:export-filename="TRxSortIBX_150.png"
   inkscape:export-xdpi="96"
   inkscape:export-ydpi="96">
  <sodipodi:namedview
     id="base"
     pagecolor="#ffffff"
     bordercolor="#666666"
     borderopacity="1.0"
     inkscape:pageopacity="0.0"
     inkscape:pageshadow="2"
     inkscape:zoom="22.805556"
     inkscape:cx="17.276492"
     inkscape:cy="18"
     inkscape:document-units="px"
     inkscape:current-layer="layer7"
     showgrid="true"
     units="px"
     inkscape:window-width="1920"
     inkscape:window-height="1018"
     inkscape:window-x="-8"
     inkscape:window-y="-8"
     inkscape:window-maximized="1"
     inkscape:snap-bbox="true"
     inkscape:bbox-nodes="true"
     inkscape:snap-global="true"
     inkscape:snap-bbox-midpoints="false"
     inkscape:snap-object-midpoints="false"
     inkscape:snap-nodes="true">
    <inkscape:grid
       id="grid1407"
       type="xygrid" />
  </sodipodi:namedview>
  <defs
     id="defs856">
    <inkscape:path-effect
       effect="simplify"
       id="path-effect1396"
       is_visible="true"
       steps="1"
       threshold="0.5"
       smooth_angles="360"
       helper_size="0"
       simplify_individual_paths="false"
       simplify_just_coalesce="false"
       simplifyindividualpaths="false"
       simplifyJustCoalesce="false" />
    <inkscape:path-effect
       effect="simplify"
       id="path-effect1392"
       is_visible="true"
       steps="1"
       threshold="0.5"
       smooth_angles="360"
       helper_size="0"
       simplify_individual_paths="false"
       simplify_just_coalesce="false"
       simplifyindividualpaths="false"
       simplifyJustCoalesce="false" />
    <inkscape:path-effect
       effect="simplify"
       id="path-effect1290"
       is_visible="true"
       steps="1"
       threshold="0.5"
       smooth_angles="360"
       helper_size="0"
       simplify_individual_paths="false"
       simplify_just_coalesce="false"
       simplifyindividualpaths="false"
       simplifyJustCoalesce="false" />
    <inkscape:path-effect
       effect="simplify"
       id="path-effect1263"
       is_visible="true"
       steps="1"
       threshold="0.5"
       smooth_angles="360"
       helper_size="0"
       simplify_individual_paths="false"
       simplify_just_coalesce="false"
       simplifyindividualpaths="false"
       simplifyJustCoalesce="false" />
    <inkscape:path-effect
       effect="simplify"
       id="path-effect1257"
       is_visible="true"
       steps="1"
       threshold="0.5"
       smooth_angles="360"
       helper_size="0"
       simplify_individual_paths="false"
       simplify_just_coalesce="false"
       simplifyindividualpaths="false"
       simplifyJustCoalesce="false" />
    <inkscape:path-effect
       effect="simplify"
       id="path-effect1232"
       is_visible="true"
       steps="1"
       threshold="0.5"
       smooth_angles="360"
       helper_size="0"
       simplify_individual_paths="false"
       simplify_just_coalesce="false"
       simplifyindividualpaths="false"
       simplifyJustCoalesce="false" />
    <inkscape:path-effect
       effect="simplify"
       id="path-effect1228"
       is_visible="true"
       steps="1"
       threshold="0.5"
       smooth_angles="360"
       helper_size="0"
       simplify_individual_paths="false"
       simplify_just_coalesce="false"
       simplifyindividualpaths="false"
       simplifyJustCoalesce="false" />
    <inkscape:path-effect
       effect="simplify"
       id="path-effect1224"
       is_visible="true"
       steps="1"
       threshold="0.5"
       smooth_angles="360"
       helper_size="0"
       simplify_individual_paths="false"
       simplify_just_coalesce="false"
       simplifyindividualpaths="false"
       simplifyJustCoalesce="false" />
    <inkscape:path-effect
       effect="powerstroke"
       id="path-effect1220"
       is_visible="true"
       offset_points="1,0.5"
       sort_points="true"
       interpolator_type="CubicBezierJohan"
       interpolator_beta="0.2"
       start_linecap_type="zerowidth"
       linejoin_type="extrp_arc"
       miter_limit="4"
       end_linecap_type="zerowidth" />
    <inkscape:path-effect
       effect="simplify"
       id="path-effect1218"
       is_visible="true"
       steps="1"
       threshold="0.5"
       smooth_angles="360"
       helper_size="0"
       simplify_individual_paths="false"
       simplify_just_coalesce="false"
       simplifyindividualpaths="false"
       simplifyJustCoalesce="false" />
    <linearGradient
       id="linearGradient923"
       inkscape:collect="always">
      <stop
         id="stop919"
         offset="0"
         style="stop-color:#b3b3b3" />
      <stop
         style="stop-color:#e6e6e6"
         offset="0.12078682"
         id="stop929" />
      <stop
         id="stop931"
         offset="0.47874999"
         style="stop-color:#ffffff" />
      <stop
         style="stop-color:#e6e6e6"
         offset="0.88"
         id="stop927" />
      <stop
         id="stop921"
         offset="1"
         style="stop-color:#b3b3b3" />
    </linearGradient>
    <linearGradient
       gradientTransform="matrix(0.71428571,0,0,0.79999998,0,4.1999999)"
       gradientUnits="userSpaceOnUse"
       y2="41"
       x2="20"
       y1="16"
       x1="20"
       id="linearGradient925"
       xlink:href="#linearGradient923"
       inkscape:collect="always" />
    <linearGradient
       gradientUnits="userSpaceOnUse"
       y2="37"
       x2="46"
       y1="12"
       x1="46"
       id="linearGradient949"
       xlink:href="#linearGradient923"
       inkscape:collect="always"
       gradientTransform="matrix(0.99999998,0,0,0.8,-12,7.4000001)" />
    <filter
       inkscape:collect="always"
       style="color-interpolation-filters:sRGB"
       id="filter922"
       x="-0.10421053"
       width="1.2084211"
       y="-0.14142857"
       height="1.2828571">
      <feGaussianBlur
         inkscape:collect="always"
         stdDeviation="0.66"
         id="feGaussianBlur924" />
    </filter>
  </defs>
  <metadata
     id="metadata859">
    <rdf:RDF>
      <cc:Work
         rdf:about="">
        <dc:format>image/svg+xml</dc:format>
        <dc:type
           rdf:resource="http://purl.org/dc/dcmitype/StillImage" />
        <dc:title />
      </cc:Work>
    </rdf:RDF>
  </metadata>
  <g
     transform="translate(0,-296.29999)"
     id="layer1"
     inkscape:groupmode="layer"
     inkscape:label="base"
     sodipodi:insensitive="true"
     style="display:none">
    <path
       inkscape:connector-curvature="0"
       id="rect1409"
       d="m 0,296.29999 h 36 v 36 H 0 Z"
       style="fill:#f4e3d7;fill-opacity:0.93922652;stroke-width:2.1828208" />
  </g>
  <g
     inkscape:label="title"
     id="layer3"
     inkscape:groupmode="layer"
     transform="translate(0,-12)"
     sodipodi:insensitive="true"
     style="display:none">
    <path
       inkscape:connector-curvature="0"
       id="path884"
       d="M 0,16 V 16.523809 38 H 36 V 16 Z"
       style="color:#000000;fill:#808080;stroke-width:0.87731367" />
    <path
       inkscape:connector-curvature="0"
       id="rect836"
       d="M 0,17 H 30 V 37 H 0 Z"
       style="color:#000000;fill:url(#linearGradient925);stroke-width:0.81969041" />
    <path
       inkscape:connector-curvature="0"
       id="rect836-8"
       d="m 33,17 h 3 v 20 h -3 z"
       style="color:#000000;fill:url(#linearGradient949);stroke-width:0.25920889" />
    <path
       inkscape:connector-curvature="0"
       id="rect901"
       d="m 30,17 h 1 v 20 h -1 z"
       style="fill:#4d4d4d;fill-opacity:0.93922652;stroke-width:1.49071205" />
    <path
       inkscape:connector-curvature="0"
       id="rect901-0"
       d="m 32,17 h 1 v 20 h -1 z"
       style="fill:#ffffff;fill-opacity:0.93922652;stroke-width:1.49071193" />
  </g>
  <g
     inkscape:groupmode="layer"
     id="layer4"
     inkscape:label="table"
     sodipodi:insensitive="true">
    <path
       style="color:#000000;fill:#666666;stroke-width:1.17141891;stroke-linejoin:round;stroke-miterlimit:1"
       d="M 2.7222223,12 A 0.72229444,0.4750475 0 0 0 2,12.475 v 18.05 A 0.72229444,0.4750475 0 0 0 2.7222223,31 H 27.277777 A 0.72229444,0.4750475 0 0 0 28,30.525 V 12.475 A 0.72229444,0.4750475 0 0 0 27.277777,12 Z"
       id="path964"
       inkscape:connector-curvature="0" />
    <path
       id="path872"
       d="m 9,13 h 1 V 30 H 9 Z"
       style="fill:#000000;stroke-width:1.0520395"
       inkscape:connector-curvature="0" />
    <path
       id="path900-8"
       d="m 20,16 h 7 v 13.999985 h -7 z"
       style="fill:#f2f2f2;stroke-width:2.47489071"
       inkscape:connector-curvature="0" />
    <path
       id="path874"
       d="m 19,13.040125 h 1.039992 V 30 H 19 Z"
       style="fill:#000000"
       inkscape:connector-curvature="0" />
    <path
       id="path876"
       d="M 27,14.960007 V 16 H 3 v -1.039993 z"
       style="fill:#000000;stroke-width:0.90909427"
       inkscape:connector-curvature="0" />
    <path
       id="path878-0"
       d="m 26,17 v 1 h -5 v -1 z"
       style="fill:#000000;stroke-width:0.93170178"
       inkscape:connector-curvature="0" />
    <path
       id="path880"
       d="m 26,19 v 1 h -5 v -1 z"
       style="fill:#000000;stroke-width:0.93170178"
       inkscape:connector-curvature="0" />
    <path
       id="path882"
       d="m 25,24 v 1 h -4 v -1 z"
       style="fill:#000000;stroke-width:0.83333945"
       inkscape:connector-curvature="0" />
    <path
       id="path884-9"
       d="m 10,16 h 9 v 14 h -9 z"
       style="fill:#d5f6ff;stroke-width:0.93542129"
       inkscape:connector-curvature="0" />
    <path
       id="path886"
       d="m 18,17 v 1 h -7 v -1 z"
       style="fill:#000000;stroke-width:0.85391885"
       inkscape:connector-curvature="0" />
    <path
       id="path888"
       d="m 17,19 v 1 h -6 v -1 z"
       style="fill:#000000;stroke-width:1.02062821"
       inkscape:connector-curvature="0" />
    <path
       id="path890"
       d="M 3,16 H 9 V 30 H 3 Z"
       style="fill:#ffeeaa;stroke-width:1.043401"
       inkscape:connector-curvature="0" />
    <path
       id="path892"
       d="m 8,17 v 1 H 4 v -1 z"
       style="fill:#000000;stroke-width:0.91655123"
       inkscape:connector-curvature="0" />
    <path
       id="path894"
       d="m 8,19 v 1 H 4 v -1 z"
       style="fill:#000000;stroke-width:0.91655123"
       inkscape:connector-curvature="0" />
    <path
       id="path896"
       d="m 3,13.000015 h 7.039948 V 15 H 3 Z"
       style="fill:#aa8800"
       inkscape:connector-curvature="0" />
    <path
       id="path898"
       d="m 10,13 h 9 v 1.999985 h -9 z"
       style="fill:#216778;stroke-width:0.86602861"
       inkscape:connector-curvature="0" />
    <path
       id="path900"
       d="m 20,13.000015 h 7 V 15 h -7 z"
       style="fill:#e6e6e6;stroke-width:0.93541777"
       inkscape:connector-curvature="0" />
    <path
       id="path902"
       d="m 17,21 v 1 h -6 v -1 z"
       style="fill:#000000;stroke-width:1.02062821"
       inkscape:connector-curvature="0" />
    <path
       id="path904"
       d="m 8,21 v 1 H 4 v -1 z"
       style="fill:#000000;stroke-width:1.02062821"
       inkscape:connector-curvature="0" />
  </g>
  <g
     inkscape:groupmode="layer"
     id="layer6"
     inkscape:label="dbdriver_base"
     transform="translate(0,-12)">
    <path
       style="color:#000000;fill:#0060b0;stroke-width:0.57697022;stroke-linejoin:round"
       d="M 2.9078947,35 C 2.4101557,35 2,35.372707 2,35.825 v 9.35 C 2,45.627293 2.4101557,46 2.9078947,46 H 24.092105 C 24.589844,46 25,45.627293 25,45.175 v -9.35 C 25,35.372707 24.589844,35 24.092105,35 Z"
       id="path1142"
       inkscape:connector-curvature="0" />
  </g>
  <g
     inkscape:groupmode="layer"
     id="layer7"
     inkscape:label="dbdriver_name"
     transform="translate(0,-12)"
     style="opacity:0.97000002">
    <text
       xml:space="preserve"
       style="font-size:11.52081871px;line-height:1.25;font-family:Arial;-inkscape-font-specification:Arial;letter-spacing:0px;word-spacing:0px;fill:#ffffff;stroke-width:0.61718673"
       x="5.4735141"
       y="41.234184"
       id="text1163"
       transform="scale(0.91631514,1.0913276)"><tspan
         sodipodi:role="line"
         id="tspan1161"
         x="5.4735141"
         y="41.234184">I</tspan></text>
    <g
       aria-label="B"
       transform="matrix(1.00803,0,0,1.0642716,-1.728176,0)"
       style="font-size:11.81370354px;font-family:Arial;-inkscape-font-specification:Arial;letter-spacing:0px;word-spacing:0px;fill:#ffffff;stroke-width:0.63287705"
       id="text1167">
      <path
         d="m 10,24 v 9 h 3.029297 c 0.505871,0 0.932413,-0.04826 1.279297,-0.146484 0.350497,-0.102319 0.641791,-0.252766 0.873047,-0.449219 0.231255,-0.196453 0.424703,-0.47382 0.580078,-0.833985 C 15.920707,31.206056 16,30.81218 16,30.390625 c 0,-0.523875 -0.130462,-0.978561 -0.390625,-1.363281 -0.256549,-0.384721 -0.624891,-0.656788 -1.105469,-0.816406 0.372177,-0.208732 0.649703,-0.482566 0.833985,-0.822266 0.184282,-0.339701 0.277343,-0.701218 0.277343,-1.085938 0,-0.413369 -0.104877,-0.809011 -0.314453,-1.185546 C 15.094819,24.736559 14.808016,24.455472 14.439453,24.275391 14.074502,24.091216 13.587515,24 12.980469,24 Z m 1,1 h 1.611328 c 0.579243,0 0.988266,0.04777 1.226563,0.142578 0.238297,0.09029 0.420515,0.26085 0.548828,0.513672 0.128313,0.248307 0.193359,0.537617 0.193359,0.867188 0,0.34763 -0.06967,0.636938 -0.208984,0.867187 -0.135645,0.230249 -0.340037,0.394817 -0.611328,0.494141 C 13.554464,27.961512 13.217068,28 12.744141,28 H 11 Z m 0,4 h 1.861328 c 0.512622,0 0.904824,0.04923 1.175781,0.148438 0.274619,0.09524 0.488793,0.263795 0.642579,0.505859 0.153785,0.238094 0.230468,0.520306 0.230468,0.845703 0,0.277778 -0.05202,0.523996 -0.158203,0.738281 -0.106186,0.210318 -0.241479,0.371311 -0.40625,0.482422 -0.164771,0.111108 -0.369908,0.190659 -0.615234,0.238281 C 13.591329,31.986762 13.348095,32 13.003906,32 H 11 Z"
         transform="matrix(1.0642716,0,0,0.93960978,0,11.275317)"
         id="path3812"
         inkscape:connector-curvature="0" />
    </g>
    <g
       aria-label="X"
       transform="matrix(0.92107516,0,0,1.0856877,-1.3069425,0)"
       style="font-size:11.58066845px;font-family:Arial;-inkscape-font-specification:Arial;letter-spacing:0px;word-spacing:0px;fill:#ffffff;stroke-width:0.62039304"
       id="text1171">
      <path
         d="m 18.514282,41.448383 3.206172,-4.320132 -2.827312,-3.969545 h 1.306218 l 1.50413,2.126138 q 0.469334,0.661591 0.667246,1.017832 0.277076,-0.45237 0.655936,-0.944322 l 1.668114,-2.199648 h 1.193125 l -2.912131,3.907344 3.138316,4.382333 h -1.357109 l -2.086556,-2.957368 q -0.175294,-0.254458 -0.361896,-0.554153 -0.277077,0.45237 -0.395824,0.622009 l -2.080901,2.889512 z"
         id="path1187"
         inkscape:connector-curvature="0" />
    </g>
  </g>
  <g
     inkscape:groupmode="layer"
     id="layer5"
     inkscape:label="arrow_matte">
    <path
       style="fill:#ffffff;stroke-width:0.59761423;stroke-miterlimit:1"
       d="m 23,12 h 5 v 5 h -5 z"
       id="rect991"
       inkscape:connector-curvature="0" />
  </g>
  <g
     inkscape:groupmode="layer"
     id="layer8"
     inkscape:label="arrow">
    <g
       id="g1056">
      <path
         inkscape:connector-curvature="0"
         id="path1061"
         d="m 30.997656,2.000007 a 0.40007622,0.50004945 0 0 0 -0.332843,0.2275386 l -2.600236,4.9999946 a 0.40007622,0.50004945 0 0 0 0.335188,0.77246 h 0.08751 5.112962 a 0.40007622,0.50004945 0 0 0 0.335186,-0.77246 L 31.335186,2.2275456 A 0.40007622,0.50004945 0 0 0 30.997656,2.000007 Z"
         style="color:#000000;fill:#008000;stroke-width:0.89446723;stroke-linejoin:round" />
      <path
         inkscape:connector-curvature="0"
         id="rect1063"
         d="M 30.666666,7.0000002 A 0.66673352,0.46158461 0 0 0 30,7.4615387 V 12.538461 A 0.66673352,0.46158461 0 0 0 30.666666,13 h 0.666667 A 0.66673352,0.46158461 0 0 0 32,12.538461 V 7.4615387 A 0.66673352,0.46158461 0 0 0 31.333333,7.0000002 Z"
         style="color:#000000;fill:#008000;stroke-width:1.10940063;stroke-linejoin:round" />
    </g>
    <g
       id="g1060"
       transform="translate(1.0000005)">
      <path
         inkscape:connector-curvature="0"
         id="path1061-7"
         d="M 24.997656,15.999993 A 0.40007622,0.50004945 0 0 1 24.664813,15.772455 L 22.064577,10.77246 A 0.40007622,0.50004945 0 0 1 22.399765,10 h 0.08751 5.112962 a 0.40007622,0.50004945 0 0 1 0.335186,0.77246 l -2.600237,4.999995 a 0.40007622,0.50004945 0 0 1 -0.33753,0.227538 z"
         style="color:#000000;fill:#ff0000;stroke-width:0.89446723;stroke-linejoin:round" />
      <path
         inkscape:connector-curvature="0"
         id="rect1063-78"
         d="M 24.666666,11 A 0.66673352,0.46158461 0 0 1 24,10.538462 V 5.4615388 a 0.66673352,0.46158461 0 0 1 0.666666,-0.4615386 h 0.666667 A 0.66673352,0.46158461 0 0 1 26,5.4615388 V 10.538462 A 0.66673352,0.46158461 0 0 1 25.333333,11 Z"
         style="color:#000000;fill:#ff0000;stroke-width:1.10940051;stroke-linejoin:round" />
    </g>
  </g>
  <g
     inkscape:label="triangle"
     id="g1156"
     inkscape:groupmode="layer"
     transform="translate(0,-12)"
     sodipodi:insensitive="true"
     style="display:none">
    <path
       inkscape:connector-curvature="0"
       id="path1144"
       d="m 24.497264,19.000007 a 0.46675548,0.5000494 0 0 0 -0.388316,0.22754 L 21.07534,24.22754 A 0.46675548,0.5000494 0 0 0 21.466391,25 h 0.102096 5.965122 a 0.46675548,0.5000494 0 0 0 0.391051,-0.77246 l -3.033607,-4.999993 a 0.46675548,0.5000494 0 0 0 -0.393785,-0.22754 z"
       style="color:#000000;fill:#008000;stroke-width:0.96613479;stroke-linejoin:round" />
    <path
       inkscape:connector-curvature="0"
       id="path1150"
       d="M 24.497264,32.999993 A 0.46675549,0.50004948 0 0 1 24.108948,32.772455 L 21.07534,27.77246 A 0.46675549,0.50004948 0 0 1 21.466391,27 h 0.102096 5.965122 a 0.46675549,0.50004948 0 0 1 0.391051,0.77246 l -3.033607,4.999995 a 0.46675549,0.50004948 0 0 1 -0.393785,0.227538 z"
       style="color:#000000;fill:#ff0000;stroke-width:0.96613491;stroke-linejoin:round" />
  </g>
  <g
     inkscape:label="text"
     id="layer2"
     inkscape:groupmode="layer"
     transform="translate(0,-12)"
     sodipodi:insensitive="true">
    <path
       transform="matrix(1.25,0,0,1.25,-9,-31)"
       style="opacity:0.7;fill:#ffffff;fill-rule:evenodd;stroke-width:1.54574692;stroke-linecap:round;stroke-linejoin:round;filter:url(#filter922)"
       d="m 9.6,36 h 12 c 0.8864,0 1.6,0.666027 1.6,1.493333 v 8.213333 C 23.2,46.533974 22.4864,47.2 21.6,47.2 H 9.6 C 8.7136,47.2 8,46.533974 8,45.706666 V 37.493333 C 8,36.666027 8.7136,36 9.6,36 Z"
       id="rect927"
       inkscape:connector-curvature="0" />
    <path
       style="color:#000000;fill:#c500ab;fill-rule:evenodd;stroke-width:1.58827055;stroke-linecap:round;stroke-linejoin:round"
       d="M 2.865235,15 A 0.86602866,0.72835573 0 0 0 2,15.728515 v 4.542969 A 0.86602866,0.72835573 0 0 0 2.865235,21 H 6.81836 c 1.7472863,0 3.1816399,-1.206265 3.1816399,-2.675781 V 17.675781 C 9.9999999,16.206265 8.5656463,15 6.81836,15 Z M 4,17 H 6.7226563 C 7.443925,17 8,17.343367 8,17.789063 v 0.421875 C 8,18.656633 7.443925,19 6.7226563,19 H 4 Z"
       id="path866"
       inkscape:connector-curvature="0" />
    <path
       style="color:#000000;fill:#c500ab;stroke-width:1.41421366px"
       d="M 2,15 V 27 H 4 V 15 Z"
       id="path869"
       inkscape:connector-curvature="0" />
    <path
       style="color:#000000;fill:#c500ab;stroke-width:1.41421366px"
       d="m 4.9023438,20 c 1.9183312,3.509988 1.9019812,3.490013 3.8203125,7 H 11 L 7.1735263,19.999098 7.1679688,20 Z"
       id="path869-7"
       inkscape:connector-curvature="0"
       sodipodi:nodetypes="cccccc" />
    <path
       style="color:#000000;fill:#c500ab;stroke-width:1.41421342px"
       d="M 17.067184,19 11.500203,26.999474 13.929688,27 19.5,19 Z"
       id="path914"
       inkscape:connector-curvature="0"
       inkscape:transform-center-x="-4.2600094"
       inkscape:transform-center-y="-4.3500857"
       sodipodi:nodetypes="ccccc" />
    <path
       sodipodi:nodetypes="ccccc"
       inkscape:transform-center-y="-4.3500857"
       inkscape:transform-center-x="4.2600094"
       inkscape:connector-curvature="0"
       id="path922-0"
       d="M 13.933019,19 19.5,26.999474 17.070515,27 11.500203,19 Z"
       style="color:#000000;fill:#c500ab;stroke-width:1.41421342px" />
  </g>
</svg>
