<?xml version="1.0" encoding="UTF-8" standalone="no"?>
<!-- Created with Inkscape (http://www.inkscape.org/) -->

<svg
   xmlns:dc="http://purl.org/dc/elements/1.1/"
   xmlns:cc="http://creativecommons.org/ns#"
   xmlns:rdf="http://www.w3.org/1999/02/22-rdf-syntax-ns#"
   xmlns:svg="http://www.w3.org/2000/svg"
   xmlns="http://www.w3.org/2000/svg"
   xmlns:sodipodi="http://sodipodi.sourceforge.net/DTD/sodipodi-0.dtd"
   xmlns:inkscape="http://www.inkscape.org/namespaces/inkscape"
   width="24"
   height="24"
   viewBox="0 0 24 24"
   version="1.1"
   id="svg862"
   inkscape:version="0.92.3 (2405546, 2018-03-11)"
   sodipodi:docname="TRxSortIBX.svg"
   inkscape:export-filename="TRxSortIBX.png"
   inkscape:export-xdpi="96"
   inkscape:export-ydpi="96">
  <sodipodi:namedview
     id="base"
     pagecolor="#ffffff"
     bordercolor="#666666"
     borderopacity="1.0"
     inkscape:pageopacity="0.0"
     inkscape:pageshadow="2"
     inkscape:zoom="17.0625"
     inkscape:cx="8.0222683"
     inkscape:cy="11.796668"
     inkscape:document-units="px"
     inkscape:current-layer="layer5"
     showgrid="true"
     units="px"
     inkscape:window-width="1920"
     inkscape:window-height="1018"
     inkscape:window-x="-8"
     inkscape:window-y="-8"
     inkscape:window-maximized="1"
     inkscape:snap-bbox="true"
     inkscape:bbox-nodes="true"
     inkscape:snap-global="true">
    <inkscape:grid
       id="grid1407"
       type="xygrid" />
  </sodipodi:namedview>
  <defs
     id="defs856">
    <inkscape:path-effect
       effect="simplify"
       id="path-effect1290"
       is_visible="true"
       steps="1"
       threshold="0.5"
       smooth_angles="360"
       helper_size="0"
       simplify_individual_paths="false"
       simplify_just_coalesce="false"
       simplifyindividualpaths="false"
       simplifyJustCoalesce="false" />
    <inkscape:path-effect
       effect="simplify"
       id="path-effect1263"
       is_visible="true"
       steps="1"
       threshold="0.5"
       smooth_angles="360"
       helper_size="0"
       simplify_individual_paths="false"
       simplify_just_coalesce="false"
       simplifyindividualpaths="false"
       simplifyJustCoalesce="false" />
    <inkscape:path-effect
       effect="simplify"
       id="path-effect1257"
       is_visible="true"
       steps="1"
       threshold="0.5"
       smooth_angles="360"
       helper_size="0"
       simplify_individual_paths="false"
       simplify_just_coalesce="false"
       simplifyindividualpaths="false"
       simplifyJustCoalesce="false" />
    <inkscape:path-effect
       effect="simplify"
       id="path-effect1232"
       is_visible="true"
       steps="1"
       threshold="0.5"
       smooth_angles="360"
       helper_size="0"
       simplify_individual_paths="false"
       simplify_just_coalesce="false"
       simplifyindividualpaths="false"
       simplifyJustCoalesce="false" />
    <inkscape:path-effect
       effect="simplify"
       id="path-effect1228"
       is_visible="true"
       steps="1"
       threshold="0.5"
       smooth_angles="360"
       helper_size="0"
       simplify_individual_paths="false"
       simplify_just_coalesce="false"
       simplifyindividualpaths="false"
       simplifyJustCoalesce="false" />
    <inkscape:path-effect
       effect="simplify"
       id="path-effect1224"
       is_visible="true"
       steps="1"
       threshold="0.5"
       smooth_angles="360"
       helper_size="0"
       simplify_individual_paths="false"
       simplify_just_coalesce="false"
       simplifyindividualpaths="false"
       simplifyJustCoalesce="false" />
    <inkscape:path-effect
       effect="powerstroke"
       id="path-effect1220"
       is_visible="true"
       offset_points="1,0.5"
       sort_points="true"
       interpolator_type="CubicBezierJohan"
       interpolator_beta="0.2"
       start_linecap_type="zerowidth"
       linejoin_type="extrp_arc"
       miter_limit="4"
       end_linecap_type="zerowidth" />
    <inkscape:path-effect
       effect="simplify"
       id="path-effect1218"
       is_visible="true"
       steps="1"
       threshold="0.5"
       smooth_angles="360"
       helper_size="0"
       simplify_individual_paths="false"
       simplify_just_coalesce="false"
       simplifyindividualpaths="false"
       simplifyJustCoalesce="false" />
    <filter
       inkscape:collect="always"
       style="color-interpolation-filters:sRGB"
       id="filter906"
       x="-0.104"
       width="1.2079999"
       y="-0.14181818"
       height="1.2836365">
      <feGaussianBlur
         inkscape:collect="always"
         stdDeviation="0.52"
         id="feGaussianBlur908" />
    </filter>
    <pattern
       y="0"
       x="0"
       height="6"
       width="6"
       patternUnits="userSpaceOnUse"
       id="EMFhbasepattern" />
  </defs>
  <metadata
     id="metadata859">
    <rdf:RDF>
      <cc:Work
         rdf:about="">
        <dc:format>image/svg+xml</dc:format>
        <dc:type
           rdf:resource="http://purl.org/dc/dcmitype/StillImage" />
        <dc:title />
      </cc:Work>
    </rdf:RDF>
  </metadata>
  <g
     transform="translate(0,-308.29999)"
     id="layer1"
     inkscape:groupmode="layer"
     inkscape:label="base"
     sodipodi:insensitive="true"
     style="display:none">
    <path
       inkscape:connector-curvature="0"
       id="rect1409"
       d="m 0,308.29999 h 24 v 24 H 0 Z"
       style="fill:#f4e3d7;fill-opacity:0.93922652;stroke-width:1.45521379" />
  </g>
  <g
     inkscape:label="title"
     id="layer3"
     inkscape:groupmode="layer"
     transform="translate(0,-24)"
     sodipodi:insensitive="true"
     style="display:none">
    <path
       inkscape:connector-curvature="0"
       id="path884"
       d="M 0,27 V 27.357143 42 H 24 V 27 Z"
       style="color:#000000;fill:#808080;stroke-width:0.59148479" />
    <path
       inkscape:connector-curvature="0"
       id="rect836"
       d="M 0,28 H 21 V 41 H 0 Z"
       style="color:#000000;fill:#e6e6e6;stroke-width:0.55291134" />
    <path
       inkscape:connector-curvature="0"
       id="rect836-8"
       d="m 23,28 h 1 v 13 h -1 z"
       style="color:#000000;fill:#e6e6e6;stroke-width:0.12065516" />
    <path
       inkscape:connector-curvature="0"
       id="rect901"
       d="m 21,28 h 1 v 13 h -1 z"
       style="fill:#4d4d4d;fill-opacity:0.93922652;stroke-width:1.20185053" />
    <path
       inkscape:connector-curvature="0"
       id="rect901-0"
       d="m 22,28 h 1 v 13 h -1 z"
       style="fill:#ffffff;fill-opacity:0.93922652;stroke-width:1.20185053" />
  </g>
  <g
     inkscape:groupmode="layer"
     id="layer5"
     inkscape:label="table">
    <path
       style="fill:#666666;stroke-width:2.81365728;stroke-miterlimit:1"
       d="M 1,5 H 20 V 20 H 1 Z"
       id="rect927"
       inkscape:connector-curvature="0" />
    <path
       id="path865"
       d="m 14,9 h 5 v 10 h -5 z"
       style="fill:#ffffff;stroke-width:0.32804239"
       inkscape:connector-curvature="0" />
    <path
       id="path867"
       d="M 6,6 H 7 V 19 H 6 Z"
       style="fill:#000000;stroke-width:0.9199819"
       inkscape:connector-curvature="0" />
    <path
       id="path869"
       d="m 13,6 h 1 v 13 h -1 z"
       style="fill:#000000;stroke-width:0.85851032"
       inkscape:connector-curvature="0" />
    <path
       id="path871"
       d="M 19,8 V 9 H 2 V 8 Z"
       style="fill:#000000;stroke-width:0.75026155"
       inkscape:connector-curvature="0" />
    <path
       id="path873"
       d="m 18,11 v 1 h -3 v -1 z"
       style="fill:#000000;stroke-width:0.72169292"
       inkscape:connector-curvature="0" />
    <path
       id="path875"
       d="m 18,13 v 1 h -3 v -1 z"
       style="fill:#000000;stroke-width:0.72169274"
       inkscape:connector-curvature="0" />
    <path
       id="path879"
       d="M 6.9952195,9 H 13 V 19 H 6.9952195 Z"
       style="fill:#d5f6ff;stroke-width:0.64575911"
       inkscape:connector-curvature="0" />
    <path
       id="path881"
       d="m 12,11 v 1 H 8 v -1 z"
       style="fill:#000000;stroke-width:0.64550185"
       inkscape:connector-curvature="0" />
    <path
       id="path883"
       d="m 11,13 v 1 H 8 v -1 z"
       style="fill:#000000;stroke-width:0.72169274"
       inkscape:connector-curvature="0" />
    <path
       id="path885-5"
       d="M 2,9 H 6 V 19 H 2 Z"
       style="fill:#ffeeaa;stroke-width:0.72001517"
       inkscape:connector-curvature="0" />
    <path
       id="path887"
       d="m 5,11 v 1 H 3 v -1 z"
       style="fill:#000000;stroke-width:0.64809942"
       inkscape:connector-curvature="0" />
    <path
       id="path889"
       d="m 5,13 v 1 H 3 v -1 z"
       style="fill:#000000;stroke-width:0.64809924"
       inkscape:connector-curvature="0" />
    <path
       id="path891"
       d="M 2,6 H 6 V 8 H 2 Z"
       style="fill:#aa8800;stroke-width:0.753784"
       inkscape:connector-curvature="0" />
    <path
       id="path893"
       d="m 7,6 h 6 V 8 H 7 Z"
       style="fill:#216778;stroke-width:0.70711201"
       inkscape:connector-curvature="0" />
    <path
       id="path895"
       d="m 14,6 h 5 v 2 h -5 z"
       style="fill:#cccccc;stroke-width:0.79057527"
       inkscape:connector-curvature="0" />
    <path
       id="path875-0"
       d="m 18,15 v 1 h -3 v -1 z"
       style="fill:#000000;stroke-width:0.72169274"
       inkscape:connector-curvature="0" />
    <path
       id="path875-6"
       d="m 18,17 v 1 h -3 v -1 z"
       style="fill:#000000;stroke-width:0.72169274"
       inkscape:connector-curvature="0" />
  </g>
  <g
     inkscape:groupmode="layer"
     id="layer6"
     inkscape:label="dbdriver_base"
     transform="translate(0,-24)"
     sodipodi:insensitive="true">
    <path
       style="color:#000000;fill:#0060b0;stroke-width:0.41039425;stroke-linejoin:round"
       d="m 1.6313583,39 c -0.3462582,0 -0.63158793,0.27106 -0.63158793,0.6 v 6.8 c 0,0.328941 0.28532973,0.6 0.63158793,0.6 H 16.368413 C 16.71467,47 17,46.728941 17,46.4 V 39.6 C 17,39.27106 16.71467,39 16.368413,39 Z"
       id="path1142"
       inkscape:connector-curvature="0" />
  </g>
  <g
     inkscape:groupmode="layer"
     id="layer7"
     inkscape:label="dbdriver_name"
     transform="translate(0,-24)"
     sodipodi:insensitive="true">
    <text
       xml:space="preserve"
       style="font-size:7.61540031px;line-height:1.25;font-family:Arial;-inkscape-font-specification:Arial;letter-spacing:0px;word-spacing:0px;fill:#ffffff;stroke-width:0.4079679"
       x="2.7814059"
       y="41.792976"
       id="text858"
       transform="scale(0.90854305,1.1006633)"><tspan
         sodipodi:role="line"
         id="tspan856"
         x="2.7814059"
         y="41.792976"
         style="font-weight:bold">I</tspan></text>
    <g
       aria-label="B"
       transform="matrix(0.99741802,0,0,1.0025887,0.99999998,0)"
       style="font-size:8.3603487px;font-family:Arial;-inkscape-font-specification:Arial;letter-spacing:0px;word-spacing:0px;fill:#ffffff;stroke-width:0.44787583"
       id="text862">
      <path
         d="m 4,16 v 6 H 6.03125 C 6.7994367,21.9945 7.2835064,21.98081 7.484375,21.95898 7.804679,21.92351 8.0738604,21.828575 8.2910156,21.675777 8.5108854,21.520257 8.6837294,21.31507 8.8085938,21.05859 8.936172,20.799385 8.9800367,20.531885 9,20.259766 9.100023,18.896344 8.4269818,18.321451 7.7167969,18.166016 7.9648456,17.998578 8.0256969,17.620344 8.0039062,17.324219 7.9229045,16.223416 6.8590315,16 6.3867188,16 Z m 1,1 h 0.59375 c 0.4871235,0 0.7822134,0.0058 0.8847656,0.01563 C 6.65099,17.0334 6.7809503,17.08307 6.8671875,17.167974 6.9557554,17.250892 7,17.359875 7,17.494141 c 0,0.140188 -0.051744,0.254919 -0.1542969,0.341797 -0.1002216,0.0849 -0.2388797,0.134571 -0.4160156,0.152343 -0.097891,0.0099 -0.348736,0.01563 -0.7519531,0.01563 H 5 Z m 0,2 h 1.1445312 c 0.6453675,0 1.0641661,0.03599 1.2558594,0.107422 0.1948881,0.07143 0.3430761,0.185335 0.4453125,0.341797 C 7.9479395,19.605681 8,19.795042 8,20.019531 8,20.284837 7.9330134,20.49834 7.7988281,20.658203 7.6678377,20.814663 7.4960189,20.912306 7.2851562,20.953125 7.1477761,20.983737 6.8236822,21 6.3125,21 H 5 Z"
         transform="matrix(1.0025887,0,0,0.99741798,0,23.938032)"
         id="path877"
         inkscape:connector-curvature="0" />
    </g>
    <text
       xml:space="preserve"
       style="font-size:7.95034838px;line-height:1.25;font-family:Arial;-inkscape-font-specification:Arial;letter-spacing:0px;word-spacing:0px;fill:#ffffff;stroke-width:0.42591155"
       x="10.523219"
       y="43.631138"
       id="text866"
       transform="scale(0.948503,1.0542929)"><tspan
         sodipodi:role="line"
         id="tspan864"
         x="10.523219"
         y="43.631138"
         style="font-weight:bold">X</tspan></text>
  </g>
  <g
     inkscape:groupmode="layer"
     id="layer4"
     inkscape:label="dbdriver_name_thin"
     sodipodi:insensitive="true"
     style="display:none">
    <text
       xml:space="preserve"
       style="font-size:10.58448601px;line-height:1.25;font-family:Calibri;-inkscape-font-specification:Calibri;letter-spacing:0px;word-spacing:0px;fill:#ffffff;stroke-width:0.56702602"
       x="1.7778628"
       y="24.717808"
       id="text904"
       transform="scale(1.1249462,0.88893141)"><tspan
         sodipodi:role="line"
         id="tspan902"
         x="1.7778628"
         y="24.717808">I</tspan></text>
    <g
       aria-label="B"
       transform="scale(1.0056503,0.99438143)"
       style="font-size:9.54979229px;font-family:Calibri;-inkscape-font-specification:Calibri;letter-spacing:0px;word-spacing:0px;fill:#ffffff;stroke-width:0.51159602"
       id="text908">
      <path
         d="M 5.3007812,16 C 5.2288783,16 5.1594009,16.024758 5.09375,16.074219 5.0312254,16.120587 5,16.203662 5,16.324219 v 5.351562 c 0,0.120555 0.031225,0.204446 0.09375,0.253907 C 5.1594007,21.976056 5.2288781,22 5.3007812,22 H 6.8847656 C 7.1129798,22 7.315166,21.98404 7.4902344,21.95312 7.668429,21.91911 7.8331432,21.86959 7.9863281,21.804683 8.1426392,21.739773 8.2823742,21.660275 8.4042969,21.564448 8.5293457,21.468618 8.635122,21.357203 8.7226562,21.230464 8.8101902,21.103725 8.8788878,20.96038 8.9257812,20.802729 8.9758013,20.641992 9,20.467859 9,20.279297 9,20.075278 8.9687746,19.888765 8.90625,19.71875 8.8437256,19.548735 8.7578553,19.400173 8.6484375,19.273438 8.542146,19.146698 8.4172437,19.043261 8.2734375,18.962891 8.1296314,18.879428 7.9742835,18.821928 7.8085938,18.791016 7.939895,18.735375 8.0562109,18.664679 8.15625,18.578125 c 0.1031651,-0.08655 0.1863023,-0.184777 0.2519531,-0.292969 0.068777,-0.111282 0.1218615,-0.231497 0.15625,-0.361328 0.034389,-0.12983 0.050781,-0.266008 0.050781,-0.408203 0,-0.238022 -0.039032,-0.450109 -0.1171875,-0.638672 C 8.4198917,16.688391 8.3027954,16.528265 8.1464844,16.398438 7.9932995,16.268608 7.8016528,16.169569 7.5703125,16.101562 7.3389721,16.03356 7.0423292,16 6.6796875,16 Z M 6,16.648438 h 0.6855469 c 0.1901866,0 0.3452836,0.02313 0.4609375,0.06641 0.1156529,0.04328 0.209287,0.10599 0.28125,0.189453 0.071962,0.08037 0.1228392,0.179409 0.15625,0.296875 0.033412,0.11746 0.050781,0.249245 0.050781,0.394531 0,0.129832 -0.01737,0.255259 -0.050781,0.378906 -0.030841,0.120557 -0.080998,0.227577 -0.1503906,0.320313 -0.069393,0.08965 -0.1563455,0.16311 -0.2617188,0.21875 -0.105373,0.05255 -0.2438195,0.07813 -0.4160156,0.07813 H 6 Z m 0,2.578124 h 0.8203125 c 0.2151395,10e-7 0.3943858,0.02476 0.5351563,0.07422 0.1434262,0.04637 0.2605541,0.116249 0.3535156,0.208985 0.095617,0.09274 0.1670344,0.207737 0.2148437,0.34375 C 7.974293,19.989527 8,20.146883 8,20.326172 c 10e-8,0.166924 -0.025707,0.314667 -0.076172,0.441406 -0.050465,0.126739 -0.1206321,0.231806 -0.2109375,0.31836 -0.087649,0.08346 -0.1897747,0.14813 -0.3066406,0.191406 -0.116866,0.04328 -0.2534498,0.06445 -0.4101562,0.06445 H 6 Z"
         transform="scale(0.99438145,1.0056503)"
         id="path933"
         inkscape:connector-curvature="0" />
    </g>
    <g
       aria-label="X"
       transform="scale(0.95124971,1.0512487)"
       style="font-size:8.95019627px;font-family:Calibri;-inkscape-font-specification:Calibri;letter-spacing:0px;word-spacing:0px;fill:#ffffff;stroke-width:0.47947481"
       id="text912">
      <path
         d="m 13.597402,20.630319 q 0.05681,0.09614 0.06555,0.152957 0.01311,0.05681 -0.02622,0.09177 -0.03933,0.03059 -0.131106,0.03933 -0.08741,0.01311 -0.235992,0.01311 -0.139847,0 -0.218511,-0.0087 -0.07866,-0.0044 -0.126736,-0.02185 -0.0437,-0.01748 -0.06992,-0.03933 -0.02185,-0.02622 -0.03933,-0.06555 l -1.258621,-2.250659 -1.271732,2.250659 q -0.02185,0.03933 -0.04807,0.06555 -0.02622,0.02622 -0.07429,0.0437 -0.0437,0.01311 -0.122366,0.01748 -0.078664,0.0087 -0.2097705,0.0087 -0.1442171,0 -0.2272511,-0.01311 -0.083034,-0.0087 -0.1179958,-0.03933 -0.030591,-0.03496 -0.021851,-0.09177 0.013111,-0.05681 0.069923,-0.152957 L 11.075798,18.030042 9.603036,15.517169 q -0.052443,-0.09614 -0.069923,-0.152957 -0.013111,-0.06118 0.021851,-0.09178 0.034962,-0.03496 0.122366,-0.0437 0.087404,-0.0087 0.2403617,-0.0087 0.1311063,0 0.2141403,0.0087 0.08303,0.0044 0.131107,0.02185 0.04807,0.01311 0.06992,0.0437 0.02185,0.02622 0.04807,0.06118 l 1.21492,2.115184 1.206178,-2.115184 q 0.02185,-0.03496 0.0437,-0.06118 0.02185,-0.03059 0.06118,-0.0437 0.0437,-0.01748 0.117996,-0.02185 0.07429,-0.0087 0.20103,-0.0087 0.135477,0 0.218511,0.01311 0.0874,0.0087 0.122366,0.03933 0.03933,0.03059 0.03059,0.09178 -0.0087,0.05681 -0.06118,0.152957 l -1.468391,2.495392 z"
         id="path924"
         inkscape:connector-curvature="0" />
    </g>
  </g>
  <g
     inkscape:groupmode="layer"
     id="layer8"
     inkscape:label="arrow_matte">
    <path
       id="path898"
       d="m 16,4.9600374 h 3.99997 V 13 H 16 Z"
       style="fill:#ffffff;stroke-width:1.2630291"
       inkscape:connector-curvature="0" />
  </g>
  <g
     inkscape:groupmode="layer"
     id="layer9"
     inkscape:label="arrow">
    <path
       inkscape:connector-curvature="0"
       style="fill:#008000;stroke-width:1.80973029"
       d="m 20.070111,1 c -0.159301,0 -0.3186,0.1315783 -0.3186,0.1315783 l -2.708095,4.2105268 c -0.1593,0.263158 0.159301,0.526316 0.3186,0.6578949 h 0.159304 5.097586 c 0.3186,-0.1315783 0.4779,-0.3947369 0.3186,-0.6578949 L 20.388714,1.1315783 C 20.229411,1.1315783 20.229411,1 20.070111,1 Z"
       id="path872" />
    <path
       inkscape:connector-curvature="0"
       style="fill:#ff0000;stroke-width:1.80973029"
       d="m 20.070111,12 c -0.159301,0 -0.3186,-0.131578 -0.3186,-0.131578 L 17.043416,7.6578948 c -0.1593,-0.2631581 0.159301,-0.5263161 0.3186,-0.657895 h 0.159303 5.097587 c 0.3186,0.1315783 0.4779,0.3947369 0.3186,0.657895 L 20.388714,11.868422 C 20.229411,11.868422 20.229411,12 20.070111,12 Z"
       id="path872-6" />
  </g>
  <g
     inkscape:label="triangle"
     id="g1156"
     inkscape:groupmode="layer"
     transform="translate(0,-24)"
     sodipodi:insensitive="true"
     style="display:none">
    <path
       inkscape:connector-curvature="0"
       id="path1144"
       d="m 17.498047,29.000004 a 0.33339697,0.33336629 0 0 0 -0.277369,0.151693 l -2.166864,3.33333 A 0.33339697,0.33336629 0 0 0 15.333137,33 h 0.07292 4.260803 a 0.33339697,0.33336629 0 0 0 0.279323,-0.514973 l -2.166862,-3.33333 a 0.33339697,0.33336629 0 0 0 -0.281276,-0.151693 z"
       style="color:#000000;fill:#008000;stroke-width:0.66669661;stroke-linejoin:round" />
    <path
       inkscape:connector-curvature="0"
       id="path1150"
       d="m 17.498047,37.999995 a 0.33339697,0.33336629 0 0 1 -0.277369,-0.151693 l -2.166864,-3.33333 a 0.33339697,0.33336629 0 0 1 0.279323,-0.514973 h 0.07292 4.260803 a 0.33339697,0.33336629 0 0 1 0.279323,0.514973 l -2.166863,3.33333 a 0.33339697,0.33336629 0 0 1 -0.281275,0.151693 z"
       style="color:#000000;fill:#ff0000;stroke-width:0.66669661;stroke-linejoin:round" />
  </g>
  <g
     inkscape:label="text"
     id="layer2"
     inkscape:groupmode="layer"
     transform="translate(0,-24)"
     sodipodi:insensitive="true">
    <path
       transform="matrix(1.25,0,0,1.25,-10,-47)"
       inkscape:connector-curvature="0"
       style="opacity:0.7;fill:#ffffff;fill-rule:evenodd;stroke-width:0.80000001;stroke-linejoin:round;paint-order:fill markers stroke;filter:url(#filter906)"
       d="m 8.8,56.8 h 10.4 c 0.4432,0 0.8,0.3568 0.8,0.8 v 7.2 c 0,0.4432 -0.3568,0.8 -0.8,0.8 H 8.8 C 8.3568,65.6 8,65.2432 8,64.8 v -7.2 c 0,-0.4432 0.3568,-0.8 0.8,-0.8 z"
       id="rect957" />
    <path
       style="color:#000000;fill:#c500ab;fill-rule:evenodd;stroke-width:0.99394226;stroke-linejoin:round;paint-order:fill markers stroke"
       d="M 1.5429688,25 A 0.54445904,0.45371587 0 0 0 1,25.453125 v 4.09375 A 0.54445904,0.45371587 0 0 0 1.5429688,30 h 2.5 C 5.6183038,30 7,29.114429 7,27.908203 V 27.091796 C 7,25.885571 5.6183038,25 4.0429688,25 Z M 3,26 H 4.021485 C 4.5969613,26 5,26.542635 5,27.115234 v 0.769531 C 5,28.457365 4.5969613,29 4.021485,29 H 3 Z"
       id="path923"
       inkscape:connector-curvature="0" />
    <path
       style="color:#000000;fill:#c500ab;stroke-width:1.41421342px"
       d="m 1,25 v 9 h 2 v -9 z"
       id="path926"
       inkscape:connector-curvature="0" />
    <path
       style="color:#000000;fill:#c500ab;stroke-width:1px"
       d="m 3,29 3,5 H 8 L 5,29 Z"
       id="path926-3"
       inkscape:connector-curvature="0"
       inkscape:transform-center-x="2.1060773"
       inkscape:transform-center-y="-3.9821745"
       sodipodi:nodetypes="ccccc" />
    <path
       style="color:#000000;fill:#c500ab;stroke-width:1px"
       d="m 12,28 -4,6.005859 2,-0.0059 4,-6 z"
       id="path946"
       inkscape:connector-curvature="0"
       sodipodi:nodetypes="ccccc" />
    <path
       sodipodi:nodetypes="ccccc"
       inkscape:connector-curvature="0"
       id="path950"
       d="m 10,28 4,6 -2,-4.1e-5 -4,-6 z"
       style="color:#000000;fill:#c500ab;stroke-width:1px" />
  </g>
</svg>
