<?xml version="1.0" encoding="UTF-8" standalone="no"?>
<!-- Created with Inkscape (http://www.inkscape.org/) -->

<svg
   xmlns:dc="http://purl.org/dc/elements/1.1/"
   xmlns:cc="http://creativecommons.org/ns#"
   xmlns:rdf="http://www.w3.org/1999/02/22-rdf-syntax-ns#"
   xmlns:svg="http://www.w3.org/2000/svg"
   xmlns="http://www.w3.org/2000/svg"
   xmlns:sodipodi="http://sodipodi.sourceforge.net/DTD/sodipodi-0.dtd"
   xmlns:inkscape="http://www.inkscape.org/namespaces/inkscape"
   width="48"
   height="48"
   viewBox="0 0 48 48"
   id="svg4225"
   version="1.1"
   inkscape:version="0.92.2 (5c3e80d, 2017-08-06)"
   sodipodi:docname="TChemText_200.svg"
   inkscape:export-filename="TChemText_200.png"
   inkscape:export-xdpi="96"
   inkscape:export-ydpi="96">
  <defs
     id="defs4227" />
  <sodipodi:namedview
     id="base"
     pagecolor="#ffffff"
     bordercolor="#666666"
     borderopacity="1.0"
     inkscape:pageopacity="0.0"
     inkscape:pageshadow="2"
     inkscape:zoom="33.95"
     inkscape:cx="24"
     inkscape:cy="23.0282"
     inkscape:document-units="px"
     inkscape:current-layer="layer1"
     showgrid="true"
     inkscape:snap-bbox="true"
     inkscape:bbox-paths="true"
     inkscape:bbox-nodes="true"
     inkscape:snap-bbox-edge-midpoints="true"
     inkscape:snap-bbox-midpoints="true"
     inkscape:object-paths="true"
     inkscape:snap-intersection-paths="true"
     inkscape:object-nodes="true"
     inkscape:snap-smooth-nodes="true"
     inkscape:snap-midpoints="true"
     inkscape:snap-object-midpoints="true"
     inkscape:snap-center="true"
     units="px"
     inkscape:window-width="1920"
     inkscape:window-height="1137"
     inkscape:window-x="-8"
     inkscape:window-y="-8"
     inkscape:window-maximized="1">
    <inkscape:grid
       type="xygrid"
       id="grid4241"
       spacingx="0.5"
       spacingy="0.5"
       empspacing="2" />
  </sodipodi:namedview>
  <metadata
     id="metadata4230">
    <rdf:RDF>
      <cc:Work
         rdf:about="">
        <dc:format>image/svg+xml</dc:format>
        <dc:type
           rdf:resource="http://purl.org/dc/dcmitype/StillImage" />
        <dc:title />
      </cc:Work>
    </rdf:RDF>
  </metadata>
  <g
     inkscape:label="Ebene 1"
     inkscape:groupmode="layer"
     id="layer1"
     transform="translate(0,-1004.3622)">
    <g
       transform="matrix(2,0,0,2,0,-1052.3622)"
       id="layer1-3"
       inkscape:label="Ebene 1"
       style="stroke-width:0.5">
      <g
         id="text820"
         style="font-style:normal;font-variant:normal;font-weight:bold;font-stretch:normal;font-size:16px;line-height:25px;font-family:'Trebuchet MS';-inkscape-font-specification:'Trebuchet MS Bold';letter-spacing:0px;word-spacing:0px;fill:#000000;fill-opacity:1;stroke:none;stroke-width:0.5px;stroke-linecap:butt;stroke-linejoin:miter;stroke-opacity:1"
         aria-label="H2O">
        <g
           style="fill:#376bbe;fill-opacity:1;stroke-width:0.5px"
           id="g838">
          <path
             d="m 7.3645454,1044.3622 v -3.9544 h -3.71 v 3.9544 H 2 v -9 h 1.6545454 v 3.6265 h 3.71 v -3.6265 H 9 v 9 z"
             style="font-size:12px;fill:#376bbe;fill-opacity:1;stroke-width:0.5px"
             id="path828"
             inkscape:connector-curvature="0"
             sodipodi:nodetypes="ccccccccccccc" />
          <path
             d="m 10.565574,1046.3622 v -0.3059 l 1.90164,-2.7484 q 0.569672,-0.825 0.569672,-1.3884 0,-0.6679 -0.815574,-0.6679 -0.622951,0 -1.004098,0.6478 L 10.5,1041.3441 q 0.213115,-0.4225 0.668033,-0.7003 0.459017,-0.2816 1.012296,-0.2816 0.922131,0 1.442623,0.4144 0.520491,0.4106 0.520491,1.1429 0,0.6721 -0.668032,1.6741 l -1.229508,1.8391 h 2.254098 v 0.9295 z"
             style="font-size:8px;fill:#376bbe;fill-opacity:1;stroke-width:0.5px"
             id="path830"
             inkscape:connector-curvature="0" />
          <path
             d="m 15,1039.7905 q 0,-1.8698 0.935156,-3.1602 0.940626,-1.2963 2.510157,-1.2963 1.728125,0 2.641406,1.1708 Q 22,1037.6758 22,1039.7905 q 0,2.1148 -0.957031,3.3574 -0.951563,1.2426 -2.707031,1.2426 -1.613282,0 -2.477344,-1.2306 Q 15,1041.9291 15,1039.7905 Z m 1.476563,0 q 0,1.5353 0.475781,2.3776 0.475781,0.8424 1.383594,0.8424 1.066406,0 1.624218,-0.8244 0.563282,-0.8244 0.563282,-2.3956 0,-3.0767 -2.078125,-3.0767 -0.951563,0 -1.460157,0.8364 -0.508593,0.8304 -0.508593,2.2403 z"
             style="font-size:12px;fill:#376bbe;fill-opacity:1;stroke-width:0.5px"
             id="path832"
             inkscape:connector-curvature="0" />
        </g>
      </g>
    </g>
  </g>
</svg>
