<?xml version="1.0" encoding="UTF-8" standalone="no"?>
<!-- Created with Inkscape (http://www.inkscape.org/) -->

<svg
   xmlns:dc="http://purl.org/dc/elements/1.1/"
   xmlns:cc="http://creativecommons.org/ns#"
   xmlns:rdf="http://www.w3.org/1999/02/22-rdf-syntax-ns#"
   xmlns:svg="http://www.w3.org/2000/svg"
   xmlns="http://www.w3.org/2000/svg"
   xmlns:sodipodi="http://sodipodi.sourceforge.net/DTD/sodipodi-0.dtd"
   xmlns:inkscape="http://www.inkscape.org/namespaces/inkscape"
   width="36"
   height="36"
   viewBox="0 0 36 36"
   id="svg4225"
   version="1.1"
   inkscape:version="0.92.2 (5c3e80d, 2017-08-06)"
   sodipodi:docname="TChemText_150.svg"
   inkscape:export-filename="TChemText_150.png"
   inkscape:export-xdpi="96"
   inkscape:export-ydpi="96">
  <defs
     id="defs4227" />
  <sodipodi:namedview
     id="base"
     pagecolor="#ffffff"
     bordercolor="#666666"
     borderopacity="1.0"
     inkscape:pageopacity="0.0"
     inkscape:pageshadow="2"
     inkscape:zoom="44.818482"
     inkscape:cx="18.15"
     inkscape:cy="17.1709"
     inkscape:document-units="px"
     inkscape:current-layer="layer1"
     showgrid="true"
     inkscape:snap-bbox="true"
     inkscape:bbox-paths="true"
     inkscape:bbox-nodes="true"
     inkscape:snap-bbox-edge-midpoints="true"
     inkscape:snap-bbox-midpoints="true"
     inkscape:object-paths="true"
     inkscape:snap-intersection-paths="true"
     inkscape:object-nodes="true"
     inkscape:snap-smooth-nodes="true"
     inkscape:snap-midpoints="true"
     inkscape:snap-object-midpoints="true"
     inkscape:snap-center="true"
     units="px"
     inkscape:window-width="1920"
     inkscape:window-height="1137"
     inkscape:window-x="-8"
     inkscape:window-y="-8"
     inkscape:window-maximized="1"
     showguides="false">
    <inkscape:grid
       type="xygrid"
       id="grid4241"
       spacingx="0.5"
       spacingy="0.5"
       empspacing="2" />
  </sodipodi:namedview>
  <metadata
     id="metadata4230">
    <rdf:RDF>
      <cc:Work
         rdf:about="">
        <dc:format>image/svg+xml</dc:format>
        <dc:type
           rdf:resource="http://purl.org/dc/dcmitype/StillImage" />
        <dc:title></dc:title>
      </cc:Work>
    </rdf:RDF>
  </metadata>
  <g
     inkscape:label="Ebene 1"
     inkscape:groupmode="layer"
     id="layer1"
     transform="translate(0,-1016.3622)">
    <g
       id="g857">
      <path
         d="m 11.046818,1040.5622 v -5.9316 H 5.4818181 v 5.9316 H 3 v -13.5 h 2.4818181 v 5.4398 h 5.5649999 v -5.4398 H 13.5 v 13.5 z"
         style="font-style:normal;font-variant:normal;font-weight:bold;font-stretch:normal;font-size:12px;line-height:25px;font-family:'Trebuchet MS';-inkscape-font-specification:'Trebuchet MS Bold';letter-spacing:0px;word-spacing:0px;fill:#376bbe;fill-opacity:1;stroke:none;stroke-width:1px;stroke-linecap:butt;stroke-linejoin:miter;stroke-opacity:1"
         id="path828"
         inkscape:connector-curvature="0"
         sodipodi:nodetypes="ccccccccccccc" />
      <path
         d="m 15.848361,1043.3622 v -0.4589 l 2.85246,-4.1225 q 0.854508,-1.2375 0.854508,-2.0826 0,-1.0019 -1.223361,-1.0019 -0.934426,0 -1.506147,0.9717 L 15.75,1035.8351 q 0.319672,-0.6338 1.002049,-1.0505 0.688526,-0.4224 1.518444,-0.4224 1.383197,0 2.163935,0.6216 0.780736,0.6159 0.780736,1.7144 0,1.0081 -1.002048,2.5111 l -1.844262,2.7586 h 3.381147 v 1.3943 z"
         style="font-style:normal;font-variant:normal;font-weight:bold;font-stretch:normal;font-size:8px;line-height:25px;font-family:'Trebuchet MS';-inkscape-font-specification:'Trebuchet MS Bold';letter-spacing:0px;word-spacing:0px;fill:#376bbe;fill-opacity:1;stroke:none;stroke-width:1px;stroke-linecap:butt;stroke-linejoin:miter;stroke-opacity:1"
         id="path830"
         inkscape:connector-curvature="0" />
      <path
         d="m 22.8,1033.7052 q 0,-2.8047 1.402734,-4.7403 1.410939,-1.9445 3.765235,-1.9445 2.592188,0 3.962109,1.7562 1.369922,1.7565 1.369922,4.9286 0,3.1722 -1.435547,5.0361 -1.427344,1.8639 -4.060546,1.8639 -2.419923,0 -3.716016,-1.8459 Q 22.8,1036.9131 22.8,1033.7052 Z m 2.214844,0 q 0,2.3029 0.713672,3.5664 0.713672,1.2636 2.075391,1.2636 1.599609,0 2.436327,-1.2366 0.844923,-1.2366 0.844923,-3.5934 0,-4.6151 -3.117188,-4.6151 -1.427344,0 -2.190235,1.2546 -0.76289,1.2456 -0.76289,3.3605 z"
         style="font-style:normal;font-variant:normal;font-weight:bold;font-stretch:normal;font-size:12px;line-height:25px;font-family:'Trebuchet MS';-inkscape-font-specification:'Trebuchet MS Bold';letter-spacing:0px;word-spacing:0px;fill:#376bbe;fill-opacity:1;stroke:none;stroke-width:1px;stroke-linecap:butt;stroke-linejoin:miter;stroke-opacity:1"
         id="path832"
         inkscape:connector-curvature="0" />
    </g>
  </g>
</svg>
