<?xml version="1.0" encoding="UTF-8" standalone="no"?>
<!-- Created with Inkscape (http://www.inkscape.org/) -->

<svg
   xmlns:dc="http://purl.org/dc/elements/1.1/"
   xmlns:cc="http://creativecommons.org/ns#"
   xmlns:rdf="http://www.w3.org/1999/02/22-rdf-syntax-ns#"
   xmlns:svg="http://www.w3.org/2000/svg"
   xmlns="http://www.w3.org/2000/svg"
   xmlns:xlink="http://www.w3.org/1999/xlink"
   xmlns:sodipodi="http://sodipodi.sourceforge.net/DTD/sodipodi-0.dtd"
   xmlns:inkscape="http://www.inkscape.org/namespaces/inkscape"
   width="36"
   height="36"
   viewBox="0 0 36 36"
   id="svg4225"
   version="1.1"
   inkscape:version="0.92.2 (5c3e80d, 2017-08-06)"
   sodipodi:docname="theadercontrol_150.svg"
   inkscape:export-filename="theadercontrol_150.png"
   inkscape:export-xdpi="96"
   inkscape:export-ydpi="96">
  <defs
     id="defs4227">
    <linearGradient
       inkscape:collect="always"
       id="linearGradient879">
      <stop
         style="stop-color:#ffffff;stop-opacity:1"
         offset="0"
         id="stop875" />
      <stop
         style="stop-color:#e6e6e6;stop-opacity:1"
         offset="1"
         id="stop877" />
    </linearGradient>
    <pattern
       y="0"
       x="0"
       height="6"
       width="6"
       patternUnits="userSpaceOnUse"
       id="EMFhbasepattern" />
    <linearGradient
       inkscape:collect="always"
       xlink:href="#linearGradient879"
       id="linearGradient881"
       x1="9"
       y1="1024.3622"
       x2="9"
       y2="1041.3622"
       gradientUnits="userSpaceOnUse" />
  </defs>
  <sodipodi:namedview
     id="base"
     pagecolor="#ffffff"
     bordercolor="#666666"
     borderopacity="1.0"
     inkscape:pageopacity="0.0"
     inkscape:pageshadow="2"
     inkscape:zoom="11.313709"
     inkscape:cx="29.923468"
     inkscape:cy="-0.85513281"
     inkscape:document-units="px"
     inkscape:current-layer="layer1"
     showgrid="true"
     inkscape:snap-bbox="true"
     inkscape:bbox-paths="true"
     inkscape:bbox-nodes="true"
     inkscape:snap-bbox-edge-midpoints="true"
     inkscape:snap-bbox-midpoints="true"
     inkscape:object-paths="true"
     inkscape:snap-intersection-paths="true"
     inkscape:object-nodes="true"
     inkscape:snap-smooth-nodes="true"
     inkscape:snap-midpoints="true"
     inkscape:snap-object-midpoints="true"
     inkscape:snap-center="true"
     units="px"
     inkscape:window-width="1920"
     inkscape:window-height="1137"
     inkscape:window-x="-8"
     inkscape:window-y="-8"
     inkscape:window-maximized="1"
     showguides="true"
     inkscape:guide-bbox="true"
     inkscape:snap-grids="true">
    <inkscape:grid
       type="xygrid"
       id="grid4241" />
  </sodipodi:namedview>
  <metadata
     id="metadata4230">
    <rdf:RDF>
      <cc:Work
         rdf:about="">
        <dc:format>image/svg+xml</dc:format>
        <dc:type
           rdf:resource="http://purl.org/dc/dcmitype/StillImage" />
        <dc:title />
      </cc:Work>
    </rdf:RDF>
  </metadata>
  <g
     inkscape:label="Ebene 1"
     inkscape:groupmode="layer"
     id="layer1"
     transform="translate(0,-1016.3622)">
    <path
       id="path838"
       d="m 0,1023.3622 h 35.999999 v 19 H 0 Z"
       style="fill:#b3b3b3;fill-opacity:1;fill-rule:nonzero;stroke:none;stroke-width:1"
       inkscape:connector-curvature="0" />
    <path
       id="path840"
       d="m 0,1024.3622 h 35.999733 v 17 H 0 Z"
       style="fill:url(#linearGradient881);fill-opacity:1;fill-rule:evenodd;stroke:none;stroke-width:1"
       inkscape:connector-curvature="0" />
    <path
       id="path842"
       d="m 17.279872,1024.9222 v 16.4399 z"
       style="fill:#666666;fill-opacity:1;fill-rule:evenodd;stroke:none;stroke-width:1"
       inkscape:connector-curvature="0" />
    <path
       id="path844"
       d="m 17.479997,1024.3623 v 17"
       style="fill:none;stroke:#999999;stroke-width:1;stroke-linecap:butt;stroke-linejoin:miter;stroke-miterlimit:4;stroke-dasharray:none;stroke-opacity:1"
       inkscape:connector-curvature="0" />
    <path
       id="path846"
       d="m 18.719862,1024.9222 v 16.4399 z"
       style="fill:#ffffff;fill-opacity:1;fill-rule:evenodd;stroke:none;stroke-width:1"
       inkscape:connector-curvature="0" />
    <path
       id="path848"
       d="m 18.479997,1024.3623 v 17"
       style="fill:none;stroke:#ffffff;stroke-width:1;stroke-linecap:butt;stroke-linejoin:miter;stroke-miterlimit:4;stroke-dasharray:none;stroke-opacity:1"
       inkscape:connector-curvature="0" />
    <path
       id="path850"
       d="M 27.819956,1038.4222 H 21.94 v -11.1599 h 1.319991 v 10.0799 h 4.559965 z"
       style="fill:#000000;fill-opacity:1;fill-rule:nonzero;stroke:none;stroke-width:1"
       inkscape:connector-curvature="0" />
    <path
       id="path852"
       d="m 35.139902,1038.4222 h -1.319989 v -1.2 0 c -0.599997,0.96 -1.43999,1.44 -2.519983,1.44 -0.839994,0 -1.439989,-0.24 -1.919986,-0.6 -0.359997,-0.48 -0.599996,-0.96 -0.599996,-1.68 0,-1.56 0.839995,-2.4 2.639981,-2.6399 l 2.399984,-0.36 c 0,-1.32 -0.599997,-2.04 -1.679988,-2.04 -0.959993,0 -1.799987,0.36 -2.639981,0.96 v -1.32 c 0.839994,-0.48 1.679988,-0.72 2.759979,-0.72 1.919986,0 2.879979,0.96 2.879979,3 z m -1.319989,-3.96 -1.919987,0.24 c -0.599995,0.12 -1.079993,0.24 -1.319989,0.48 -0.359999,0.12 -0.479997,0.48 -0.479997,1.08 0,0.36 0.12,0.72 0.359997,0.96 0.359997,0.24 0.719995,0.36 1.199991,0.36 0.599995,0 1.079992,-0.24 1.559988,-0.72 0.359998,-0.36 0.599997,-0.96 0.599997,-1.68 z"
       style="fill:#000000;fill-opacity:1;fill-rule:nonzero;stroke:none;stroke-width:1"
       inkscape:connector-curvature="0" />
    <path
       id="path854"
       d="m 7.69995,1030.7023 -4.679964,6.5999 H 7.69995 v 1.08 H 1.1 v -0.36 l 4.679965,-6.5999 H 1.579997 v -1.08 H 7.69995 Z"
       style="fill:#000000;fill-opacity:1;fill-rule:nonzero;stroke:none;stroke-width:1"
       inkscape:connector-curvature="0" />
    <path
       id="path856"
       d="m 15.139896,1038.3822 h -1.319991 v -1.2 0 c -0.599996,0.96 -1.439989,1.44 -2.51998,1.44 -0.719996,0 -1.43999,-0.24 -1.799987,-0.72 -0.479997,-0.36 -0.719995,-0.96 -0.719995,-1.68 0,-1.44 0.839994,-2.2799 2.63998,-2.6399 l 2.399982,-0.24 c 0,-1.44 -0.599995,-2.04 -1.679988,-2.04 -0.959992,0 -1.799986,0.24 -2.51998,0.96 v -1.32 c 0.719994,-0.48 1.679988,-0.72 2.63998,-0.72 1.919985,0 2.879979,0.96 2.879979,3 z m -1.319991,-4.08 -1.919985,0.24 c -0.599995,0.12 -1.079992,0.24 -1.319991,0.48 -0.359997,0.24 -0.479995,0.6 -0.479995,1.08 0,0.48 0.119999,0.72 0.359996,0.96 0.359997,0.24 0.719994,0.48 1.199991,0.48 0.599996,0 1.079993,-0.24 1.559988,-0.72 0.359997,-0.48 0.599996,-0.96 0.599996,-1.68 z"
       style="fill:#000000;fill-opacity:1;fill-rule:nonzero;stroke:none;stroke-width:1"
       inkscape:connector-curvature="0" />
  </g>
</svg>
