<?xml version="1.0" encoding="UTF-8" standalone="no"?>
<!-- Created with Inkscape (http://www.inkscape.org/) -->

<svg
   xmlns:dc="http://purl.org/dc/elements/1.1/"
   xmlns:cc="http://creativecommons.org/ns#"
   xmlns:rdf="http://www.w3.org/1999/02/22-rdf-syntax-ns#"
   xmlns:svg="http://www.w3.org/2000/svg"
   xmlns="http://www.w3.org/2000/svg"
   xmlns:xlink="http://www.w3.org/1999/xlink"
   xmlns:sodipodi="http://sodipodi.sourceforge.net/DTD/sodipodi-0.dtd"
   xmlns:inkscape="http://www.inkscape.org/namespaces/inkscape"
   width="48"
   height="48"
   viewBox="0 0 48 48"
   id="svg4225"
   version="1.1"
   inkscape:version="0.92.2 (5c3e80d, 2017-08-06)"
   sodipodi:docname="theadercontrol_200.svg"
   inkscape:export-filename="theadercontrol_200.png"
   inkscape:export-xdpi="96"
   inkscape:export-ydpi="96">
  <defs
     id="defs4227">
    <linearGradient
       inkscape:collect="always"
       id="linearGradient879">
      <stop
         style="stop-color:#ffffff;stop-opacity:1"
         offset="0"
         id="stop875" />
      <stop
         style="stop-color:#e6e6e6;stop-opacity:1"
         offset="1"
         id="stop877" />
    </linearGradient>
    <pattern
       y="0"
       x="0"
       height="6"
       width="6"
       patternUnits="userSpaceOnUse"
       id="EMFhbasepattern" />
    <linearGradient
       inkscape:collect="always"
       xlink:href="#linearGradient879"
       id="linearGradient881"
       x1="11"
       y1="1014.3622"
       x2="11"
       y2="1036.3622"
       gradientUnits="userSpaceOnUse" />
  </defs>
  <sodipodi:namedview
     id="base"
     pagecolor="#ffffff"
     bordercolor="#666666"
     borderopacity="1.0"
     inkscape:pageopacity="0.0"
     inkscape:pageshadow="2"
     inkscape:zoom="11.313709"
     inkscape:cx="27.255636"
     inkscape:cy="24.542925"
     inkscape:document-units="px"
     inkscape:current-layer="layer1"
     showgrid="true"
     inkscape:snap-bbox="true"
     inkscape:bbox-paths="true"
     inkscape:bbox-nodes="true"
     inkscape:snap-bbox-edge-midpoints="true"
     inkscape:snap-bbox-midpoints="true"
     inkscape:object-paths="true"
     inkscape:snap-intersection-paths="true"
     inkscape:object-nodes="true"
     inkscape:snap-smooth-nodes="true"
     inkscape:snap-midpoints="true"
     inkscape:snap-object-midpoints="true"
     inkscape:snap-center="true"
     units="px"
     inkscape:window-width="1920"
     inkscape:window-height="1137"
     inkscape:window-x="-8"
     inkscape:window-y="-8"
     inkscape:window-maximized="1"
     showguides="false">
    <inkscape:grid
       type="xygrid"
       id="grid4241" />
  </sodipodi:namedview>
  <metadata
     id="metadata4230">
    <rdf:RDF>
      <cc:Work
         rdf:about="">
        <dc:format>image/svg+xml</dc:format>
        <dc:type
           rdf:resource="http://purl.org/dc/dcmitype/StillImage" />
        <dc:title />
      </cc:Work>
    </rdf:RDF>
  </metadata>
  <g
     inkscape:label="Ebene 1"
     inkscape:groupmode="layer"
     id="layer1"
     transform="translate(0,-1004.3622)">
    <path
       id="path838"
       d="m 0,1012.3622 h 47.999999 v 26 H 0 Z"
       style="fill:#b3b3b3;fill-opacity:1;fill-rule:nonzero;stroke:none;stroke-width:0.99999994"
       inkscape:connector-curvature="0" />
    <path
       id="path840"
       d="m 0,1014.3622 h 47.999999 v 22 H 0 Z"
       style="fill:url(#linearGradient881);fill-opacity:1;fill-rule:evenodd;stroke:none;stroke-width:1"
       inkscape:connector-curvature="0" />
    <path
       id="path842"
       d="m 23.03983,1014.4422 v 21.9198 z"
       style="fill:#666666;fill-opacity:1;fill-rule:evenodd;stroke:none;stroke-width:1"
       inkscape:connector-curvature="0" />
    <path
       id="path844"
       d="m 23,1014.3622 v 21.9198"
       style="fill:none;stroke:#999999;stroke-width:2;stroke-linecap:butt;stroke-linejoin:miter;stroke-miterlimit:4;stroke-dasharray:none;stroke-opacity:1"
       inkscape:connector-curvature="0" />
    <path
       id="path846"
       d="m 24.959816,1014.4422 v 21.9198 z"
       style="fill:#ffffff;fill-opacity:1;fill-rule:evenodd;stroke:none;stroke-width:1"
       inkscape:connector-curvature="0" />
    <path
       id="path848"
       d="m 24.959816,1014.4422 v 21.9198"
       style="fill:none;stroke:#ffffff;stroke-width:2;stroke-linecap:butt;stroke-linejoin:miter;stroke-miterlimit:4;stroke-dasharray:none;stroke-opacity:1"
       inkscape:connector-curvature="0" />
    <path
       id="path850"
       d="M 36.959942,1032.2422 H 29.12 v -14.8798 h 1.759988 v 13.4398 h 6.079954 z"
       style="fill:#000000;fill-opacity:1;fill-rule:nonzero;stroke:none;stroke-width:1"
       inkscape:connector-curvature="0" />
    <path
       id="path852"
       d="m 46.71987,1032.2422 h -1.759986 v -1.6 0 c -0.799996,1.28 -1.919986,1.92 -3.359976,1.92 -1.119992,0 -1.919986,-0.32 -2.559982,-0.8 -0.479996,-0.64 -0.799994,-1.28 -0.799994,-2.24 0,-2.08 1.119992,-3.2 3.519974,-3.5198 l 3.199978,-0.48 c 0,-1.76 -0.799996,-2.72 -2.239984,-2.72 -1.27999,0 -2.399982,0.48 -3.519974,1.28 v -1.76 c 1.119992,-0.64 2.239984,-0.96 3.679972,-0.96 2.559982,0 3.839972,1.28 3.839972,4 z m -1.759986,-5.28 -2.559982,0.32 c -0.799994,0.16 -1.43999,0.32 -1.759986,0.64 -0.479998,0.16 -0.639996,0.64 -0.639996,1.44 0,0.48 0.16,0.96 0.479996,1.28 0.479996,0.32 0.959994,0.48 1.599988,0.48 0.799994,0 1.43999,-0.32 2.079984,-0.96 0.479998,-0.48 0.799996,-1.28 0.799996,-2.24 z"
       style="fill:#000000;fill-opacity:1;fill-rule:nonzero;stroke:none;stroke-width:1"
       inkscape:connector-curvature="0" />
    <path
       id="path854"
       d="m 9.899934,1021.9824 -6.239952,8.7998 h 6.239952 v 1.44 H 1.1 v -0.48 l 6.239954,-8.7998 H 1.739996 v -1.44 h 8.159938 z"
       style="fill:#000000;fill-opacity:1;fill-rule:nonzero;stroke:none;stroke-width:1"
       inkscape:connector-curvature="0" />
    <path
       id="path856"
       d="m 19.819862,1032.2222 h -1.759988 v -1.6 0 c -0.799994,1.28 -1.919986,1.92 -3.359974,1.92 -0.959994,0 -1.919986,-0.32 -2.399982,-0.96 -0.639996,-0.48 -0.959994,-1.28 -0.959994,-2.24 0,-1.92 1.119992,-3.0398 3.519974,-3.5198 l 3.199976,-0.32 c 0,-1.92 -0.799994,-2.72 -2.239984,-2.72 -1.27999,0 -2.399982,0.32 -3.359974,1.28 v -1.76 c 0.959992,-0.64 2.239984,-0.96 3.519974,-0.96 2.55998,0 3.839972,1.28 3.839972,4 z m -1.759988,-5.44 -2.55998,0.32 c -0.799994,0.16 -1.43999,0.32 -1.759988,0.64 -0.479996,0.32 -0.639994,0.8 -0.639994,1.44 0,0.64 0.16,0.96 0.479996,1.28 0.479996,0.32 0.959992,0.64 1.599988,0.64 0.799994,0 1.43999,-0.32 2.079984,-0.96 0.479996,-0.64 0.799994,-1.28 0.799994,-2.24 z"
       style="fill:#000000;fill-opacity:1;fill-rule:nonzero;stroke:none;stroke-width:1"
       inkscape:connector-curvature="0" />
  </g>
</svg>
