<?xml version="1.0" encoding="UTF-8" standalone="no"?>
<!-- Created with Inkscape (http://www.inkscape.org/) -->

<svg
   xmlns:dc="http://purl.org/dc/elements/1.1/"
   xmlns:cc="http://creativecommons.org/ns#"
   xmlns:rdf="http://www.w3.org/1999/02/22-rdf-syntax-ns#"
   xmlns:svg="http://www.w3.org/2000/svg"
   xmlns="http://www.w3.org/2000/svg"
   xmlns:sodipodi="http://sodipodi.sourceforge.net/DTD/sodipodi-0.dtd"
   xmlns:inkscape="http://www.inkscape.org/namespaces/inkscape"
   width="36"
   height="36"
   viewBox="0 0 36 36"
   id="svg4225"
   version="1.1"
   inkscape:version="0.92.2 (5c3e80d, 2017-08-06)"
   sodipodi:docname="tlabel_150.svg"
   inkscape:export-filename="tlabel_150.png"
   inkscape:export-xdpi="96"
   inkscape:export-ydpi="96">
  <defs
     id="defs4227" />
  <sodipodi:namedview
     id="base"
     pagecolor="#ffffff"
     bordercolor="#666666"
     borderopacity="1.0"
     inkscape:pageopacity="0.0"
     inkscape:pageshadow="2"
     inkscape:zoom="22.558093"
     inkscape:cx="18.137877"
     inkscape:cy="16.461334"
     inkscape:document-units="px"
     inkscape:current-layer="layer1"
     showgrid="true"
     inkscape:snap-bbox="true"
     inkscape:bbox-paths="true"
     inkscape:bbox-nodes="true"
     inkscape:snap-bbox-edge-midpoints="true"
     inkscape:snap-bbox-midpoints="true"
     inkscape:object-paths="true"
     inkscape:snap-intersection-paths="true"
     inkscape:object-nodes="true"
     inkscape:snap-smooth-nodes="true"
     inkscape:snap-midpoints="true"
     inkscape:snap-object-midpoints="true"
     inkscape:snap-center="true"
     units="px"
     inkscape:window-width="1920"
     inkscape:window-height="1137"
     inkscape:window-x="-8"
     inkscape:window-y="-8"
     inkscape:window-maximized="1"
     showguides="false">
    <inkscape:grid
       type="xygrid"
       id="grid4241" />
  </sodipodi:namedview>
  <metadata
     id="metadata4230">
    <rdf:RDF>
      <cc:Work
         rdf:about="">
        <dc:format>image/svg+xml</dc:format>
        <dc:type
           rdf:resource="http://purl.org/dc/dcmitype/StillImage" />
        <dc:title />
      </cc:Work>
    </rdf:RDF>
  </metadata>
  <g
     inkscape:label="Ebene 1"
     inkscape:groupmode="layer"
     id="layer1"
     transform="translate(0,-1016.3622)">
    <g
       aria-label="Abc"
       style="font-style:normal;font-weight:normal;font-size:18px;line-height:37.5px;font-family:sans-serif;letter-spacing:0px;word-spacing:0px;fill:#376bbe;fill-opacity:1;stroke:none;stroke-width:1px;stroke-linecap:butt;stroke-linejoin:miter;stroke-opacity:1"
       id="text859-9">
      <path
         d="m 14.713344,1040.8013 h -1.634766 l -1.335938,-3.5332 H 6.3988905 l -1.2568359,3.5332 H 3.4984999 l 4.8339843,-12.6035 h 1.5292969 z m -3.454102,-4.8604 -1.977539,-5.3701 q -0.09668,-0.2637 -0.1933594,-0.8437 h -0.035156 q -0.087891,0.5361 -0.2021485,0.8437 l -1.9599609,5.3701 z"
         style="font-style:normal;font-variant:normal;font-weight:normal;font-stretch:normal;font-size:18px;font-family:'Segoe UI';-inkscape-font-specification:'Segoe UI, Normal';font-variant-ligatures:normal;font-variant-caps:normal;font-variant-numeric:normal;font-feature-settings:normal;text-align:start;writing-mode:lr-tb;text-anchor:start;fill:#376bbe;fill-opacity:1;stroke-width:1px"
         id="path820" />
      <path
         d="m 17.84225,1039.5005 h -0.03516 v 1.3008 h -1.441407 v -13.3242 h 1.441407 v 5.9062 h 0.03516 q 1.063476,-1.793 3.111328,-1.793 1.731445,0 2.707031,1.2129 0.984375,1.2041 0.984375,3.2344 0,2.2588 -1.098633,3.6211 -1.098632,1.3535 -3.005859,1.3535 -1.78418,0 -2.698242,-1.5117 z m -0.03516,-3.6299 v 1.2568 q 0,1.1163 0.720703,1.8985 0.729492,0.7734 1.845703,0.7734 1.30957,0 2.047851,-1.0019 0.747071,-1.002 0.747071,-2.7862 0,-1.5029 -0.694336,-2.3554 -0.694336,-0.8526 -1.88086,-0.8526 -1.256836,0 -2.021484,0.8789 -0.764648,0.8701 -0.764648,2.1885 z"
         style="font-style:normal;font-variant:normal;font-weight:normal;font-stretch:normal;font-size:18px;font-family:'Segoe UI';-inkscape-font-specification:'Segoe UI, Normal';font-variant-ligatures:normal;font-variant-caps:normal;font-variant-numeric:normal;font-feature-settings:normal;text-align:start;writing-mode:lr-tb;text-anchor:start;fill:#376bbe;fill-opacity:1;stroke-width:1px"
         id="path822" />
      <path
         d="m 33.082484,1040.3882 q -1.037109,0.624 -2.460937,0.624 -1.924805,0 -3.111328,-1.248 -1.177735,-1.2569 -1.177735,-3.252 0,-2.2236 1.274414,-3.5684 1.274414,-1.3535 3.401367,-1.3535 1.186524,0 2.091797,0.4395 v 1.4765 q -1.001953,-0.7031 -2.144531,-0.7031 -1.379883,0 -2.267578,0.9932 -0.878906,0.9844 -0.878906,2.5928 0,1.582 0.826172,2.4961 0.834961,0.914 2.232421,0.914 1.177735,0 2.214844,-0.7822 z"
         style="font-style:normal;font-variant:normal;font-weight:normal;font-stretch:normal;font-size:18px;font-family:'Segoe UI';-inkscape-font-specification:'Segoe UI, Normal';font-variant-ligatures:normal;font-variant-caps:normal;font-variant-numeric:normal;font-feature-settings:normal;text-align:start;writing-mode:lr-tb;text-anchor:start;fill:#376bbe;fill-opacity:1;stroke-width:1px"
         id="path824" />
    </g>
    <path
       style="opacity:1;fill:#376bbe;fill-opacity:1;stroke:#000000;stroke-width:0;stroke-linecap:butt;stroke-linejoin:round;stroke-miterlimit:4;stroke-dasharray:none;stroke-dashoffset:0;stroke-opacity:1;paint-order:normal"
       d="M 3.0000005,1042.3622 H 15 v 1 H 3.0000005 Z"
       id="rect842" />
  </g>
</svg>
