<?xml version="1.0" encoding="UTF-8" standalone="no"?>
<!-- Created with Inkscape (http://www.inkscape.org/) -->

<svg
   xmlns:dc="http://purl.org/dc/elements/1.1/"
   xmlns:cc="http://creativecommons.org/ns#"
   xmlns:rdf="http://www.w3.org/1999/02/22-rdf-syntax-ns#"
   xmlns:svg="http://www.w3.org/2000/svg"
   xmlns="http://www.w3.org/2000/svg"
   xmlns:sodipodi="http://sodipodi.sourceforge.net/DTD/sodipodi-0.dtd"
   xmlns:inkscape="http://www.inkscape.org/namespaces/inkscape"
   width="48"
   height="48"
   viewBox="0 0 48 48"
   id="svg4225"
   version="1.1"
   inkscape:version="0.92.2 (5c3e80d, 2017-08-06)"
   sodipodi:docname="tstatictext_200.svg"
   inkscape:export-filename="tstatictext_200.png"
   inkscape:export-xdpi="96"
   inkscape:export-ydpi="96">
  <defs
     id="defs4227" />
  <sodipodi:namedview
     id="base"
     pagecolor="#ffffff"
     bordercolor="#666666"
     borderopacity="1.0"
     inkscape:pageopacity="0.0"
     inkscape:pageshadow="2"
     inkscape:zoom="14.145833"
     inkscape:cx="25.638314"
     inkscape:cy="26.735693"
     inkscape:document-units="px"
     inkscape:current-layer="layer1"
     showgrid="true"
     inkscape:snap-bbox="true"
     inkscape:bbox-paths="true"
     inkscape:bbox-nodes="true"
     inkscape:snap-bbox-edge-midpoints="true"
     inkscape:snap-bbox-midpoints="true"
     inkscape:object-paths="true"
     inkscape:snap-intersection-paths="true"
     inkscape:object-nodes="true"
     inkscape:snap-smooth-nodes="true"
     inkscape:snap-midpoints="true"
     inkscape:snap-object-midpoints="true"
     inkscape:snap-center="true"
     units="px"
     inkscape:window-width="1920"
     inkscape:window-height="1137"
     inkscape:window-x="-8"
     inkscape:window-y="-8"
     inkscape:window-maximized="1">
    <inkscape:grid
       type="xygrid"
       id="grid4241" />
  </sodipodi:namedview>
  <metadata
     id="metadata4230">
    <rdf:RDF>
      <cc:Work
         rdf:about="">
        <dc:format>image/svg+xml</dc:format>
        <dc:type
           rdf:resource="http://purl.org/dc/dcmitype/StillImage" />
        <dc:title />
      </cc:Work>
    </rdf:RDF>
  </metadata>
  <g
     inkscape:label="Ebene 1"
     inkscape:groupmode="layer"
     id="layer1"
     transform="translate(0,-1004.3622)">
    <path
       style="opacity:1;fill:#7f9db9;fill-opacity:1;stroke:none;stroke-width:0;stroke-linecap:round;stroke-linejoin:round;stroke-miterlimit:4;stroke-dasharray:none;stroke-dashoffset:0;stroke-opacity:1;paint-order:normal"
       d="M 0 10 L 0 38 L 48 38 L 48 10 L 0 10 z M 2 12 L 46 12 L 46 36 L 2 36 L 2 12 z "
       transform="translate(0,1004.3622)"
       id="rect820" />
    <g
       aria-label="abc"
       style="font-style:normal;font-weight:normal;font-size:24px;line-height:50px;font-family:sans-serif;letter-spacing:0px;word-spacing:0px;fill:#376bbe;fill-opacity:1;stroke:none;stroke-width:1px;stroke-linecap:butt;stroke-linejoin:miter;stroke-opacity:1"
       id="text859">
      <path
         d="m 15.88047,1036.2809 h -1.921875 v -1.875 h -0.04687 q -1.253906,2.1562 -3.691406,2.1562 -1.7929687,0 -2.8125,-0.9492 -1.0078125,-0.9492 -1.0078125,-2.5195 0,-3.3633 3.9609375,-3.9141 l 3.597656,-0.5039 q 0,-3.0586 -2.472656,-3.0586 -2.1679687,0 -3.9140625,1.4766 v -1.9688 q 1.7695313,-1.125 4.0781255,-1.125 4.230468,0 4.230468,4.4766 z m -1.921875,-6.0703 -2.894531,0.3984 q -1.3359375,0.1875 -2.015625,0.668 -0.6796875,0.4687 -0.6796875,1.6758 0,0.8789 0.6210938,1.4414 0.6328125,0.5507 1.6757817,0.5507 1.429687,0 2.355468,-0.996 0.9375,-1.0079 0.9375,-2.543 z"
         style="font-style:normal;font-variant:normal;font-weight:normal;font-stretch:normal;font-size:24px;font-family:'Segoe UI';-inkscape-font-specification:'Segoe UI';stroke-width:1px;fill:#376bbe;fill-opacity:1"
         id="path818" />
      <path
         d="m 21.493752,1034.5465 h -0.04687 v 1.7344 h -1.921875 v -17.7656 h 1.921875 v 7.875 h 0.04687 q 1.417968,-2.3907 4.148437,-2.3907 2.308594,0 3.609375,1.6172 1.3125,1.6055 1.3125,4.3125 0,3.0117 -1.464844,4.8281 -1.464843,1.8047 -4.007812,1.8047 -2.378906,0 -3.597656,-2.0156 z m -0.04687,-4.8398 v 1.6757 q 0,1.4883 0.960937,2.5313 0.972656,1.0312 2.460938,1.0312 1.746093,0 2.730468,-1.3359 0.996094,-1.3359 0.996094,-3.7148 0,-2.0039 -0.925781,-3.1407 -0.925781,-1.1367 -2.507813,-1.1367 -1.675781,0 -2.695312,1.1719 -1.019531,1.1602 -1.019531,2.918 z"
         style="font-style:normal;font-variant:normal;font-weight:normal;font-stretch:normal;font-size:24px;font-family:'Segoe UI';-inkscape-font-specification:'Segoe UI';stroke-width:1px;fill:#376bbe;fill-opacity:1"
         id="path820" />
      <path
         d="m 41.814064,1035.7301 q -1.382812,0.832 -3.28125,0.832 -2.566406,0 -4.148437,-1.664 -1.570313,-1.6758 -1.570313,-4.336 0,-2.9648 1.699219,-4.7578 1.699219,-1.8047 4.535156,-1.8047 1.582031,0 2.789063,0.586 v 1.9687 q -1.335938,-0.9375 -2.859375,-0.9375 -1.839844,0 -3.023438,1.3242 -1.171875,1.3125 -1.171875,3.4571 0,2.1093 1.101563,3.3281 1.113281,1.2187 2.976562,1.2187 1.570313,0 2.953125,-1.0429 z"
         style="font-style:normal;font-variant:normal;font-weight:normal;font-stretch:normal;font-size:24px;font-family:'Segoe UI';-inkscape-font-specification:'Segoe UI';stroke-width:1px;fill:#376bbe;fill-opacity:1"
         id="path822" />
    </g>
  </g>
</svg>
