<?xml version="1.0" encoding="UTF-8" standalone="no"?>
<!-- Created with Inkscape (http://www.inkscape.org/) -->

<svg
   xmlns:dc="http://purl.org/dc/elements/1.1/"
   xmlns:cc="http://creativecommons.org/ns#"
   xmlns:rdf="http://www.w3.org/1999/02/22-rdf-syntax-ns#"
   xmlns:svg="http://www.w3.org/2000/svg"
   xmlns="http://www.w3.org/2000/svg"
   xmlns:sodipodi="http://sodipodi.sourceforge.net/DTD/sodipodi-0.dtd"
   xmlns:inkscape="http://www.inkscape.org/namespaces/inkscape"
   width="36"
   height="36"
   viewBox="0 0 36 36"
   id="svg4225"
   version="1.1"
   inkscape:version="0.92.2 (5c3e80d, 2017-08-06)"
   sodipodi:docname="tstatictext_150.svg"
   inkscape:export-filename="tstatictext_150.png"
   inkscape:export-xdpi="96"
   inkscape:export-ydpi="96">
  <defs
     id="defs4227" />
  <sodipodi:namedview
     id="base"
     pagecolor="#ffffff"
     bordercolor="#666666"
     borderopacity="1.0"
     inkscape:pageopacity="0.0"
     inkscape:pageshadow="2"
     inkscape:zoom="18.861111"
     inkscape:cx="16.883865"
     inkscape:cy="15.06083"
     inkscape:document-units="px"
     inkscape:current-layer="layer1"
     showgrid="true"
     inkscape:snap-bbox="true"
     inkscape:bbox-paths="true"
     inkscape:bbox-nodes="true"
     inkscape:snap-bbox-edge-midpoints="true"
     inkscape:snap-bbox-midpoints="true"
     inkscape:object-paths="true"
     inkscape:snap-intersection-paths="true"
     inkscape:object-nodes="true"
     inkscape:snap-smooth-nodes="true"
     inkscape:snap-midpoints="true"
     inkscape:snap-object-midpoints="true"
     inkscape:snap-center="true"
     units="px"
     inkscape:window-width="1920"
     inkscape:window-height="1137"
     inkscape:window-x="-8"
     inkscape:window-y="-8"
     inkscape:window-maximized="1"
     showguides="false">
    <inkscape:grid
       type="xygrid"
       id="grid4241" />
  </sodipodi:namedview>
  <metadata
     id="metadata4230">
    <rdf:RDF>
      <cc:Work
         rdf:about="">
        <dc:format>image/svg+xml</dc:format>
        <dc:type
           rdf:resource="http://purl.org/dc/dcmitype/StillImage" />
        <dc:title />
      </cc:Work>
    </rdf:RDF>
  </metadata>
  <g
     inkscape:label="Ebene 1"
     inkscape:groupmode="layer"
     id="layer1"
     transform="translate(0,-1016.3622)">
    <path
       style="opacity:1;fill:#7f9db9;fill-opacity:1;stroke:none;stroke-width:0;stroke-linecap:round;stroke-linejoin:round;stroke-miterlimit:4;stroke-dasharray:none;stroke-dashoffset:0;stroke-opacity:1;paint-order:normal"
       d="M 0 8 L 0 29 L 36 29 L 36 8 L 0 8 z M 1 9 L 35 9 L 35 28 L 1 28 L 1 9 z "
       transform="translate(0,1016.3622)"
       id="rect820" />
    <g
       aria-label="abc"
       style="font-style:normal;font-weight:normal;font-size:18px;line-height:37.5px;font-family:sans-serif;letter-spacing:0px;word-spacing:0px;fill:#376bbe;fill-opacity:1;stroke:none;stroke-width:1px;stroke-linecap:butt;stroke-linejoin:miter;stroke-opacity:1"
       id="text859">
      <path
         d="m 12.110352,1040.8013 h -1.441407 v -1.4063 h -0.03516 q -0.9404296,1.6172 -2.7685546,1.6172 -1.3447266,0 -2.109375,-0.7119 Q 5,1039.5884 5,1038.4106 q 0,-2.5224 2.9707031,-2.9355 l 2.6982419,-0.3779 q 0,-2.294 -1.8544919,-2.294 -1.6259765,0 -2.9355469,1.1074 v -1.4765 q 1.3271485,-0.8438 3.0585938,-0.8438 3.172852,0 3.172852,3.3575 z m -1.441407,-4.5528 -2.1708981,0.2989 q -1.0019532,0.1406 -1.5117188,0.5009 -0.5097656,0.3516 -0.5097656,1.2569 0,0.6592 0.4658203,1.081 0.4746094,0.4131 1.256836,0.4131 1.0722656,0 1.7666015,-0.7471 0.7031247,-0.7558 0.7031247,-1.9072 z"
         style="font-style:normal;font-variant:normal;font-weight:normal;font-stretch:normal;font-size:18px;font-family:'Segoe UI';-inkscape-font-specification:'Segoe UI';stroke-width:1px;fill:#376bbe;fill-opacity:1"
         id="path818" />
      <path
         d="m 16.320312,1039.5005 h -0.03516 v 1.3008 H 14.84375 v -13.3242 h 1.441406 v 5.9062 h 0.03516 q 1.063477,-1.793 3.111329,-1.793 1.731445,0 2.707031,1.2129 0.984375,1.2041 0.984375,3.2344 0,2.2588 -1.098633,3.6211 -1.098633,1.3535 -3.005859,1.3535 -1.78418,0 -2.698243,-1.5117 z m -0.03516,-3.6299 v 1.2568 q 0,1.1163 0.720703,1.8985 0.729493,0.7734 1.845703,0.7734 1.309571,0 2.047852,-1.0019 0.74707,-1.002 0.74707,-2.7862 0,-1.5029 -0.694336,-2.3554 -0.694336,-0.8526 -1.880859,-0.8526 -1.256836,0 -2.021484,0.8789 -0.764649,0.8701 -0.764649,2.1885 z"
         style="font-style:normal;font-variant:normal;font-weight:normal;font-stretch:normal;font-size:18px;font-family:'Segoe UI';-inkscape-font-specification:'Segoe UI';stroke-width:1px;fill:#376bbe;fill-opacity:1"
         id="path820" />
      <path
         d="m 31.560547,1040.3882 q -1.03711,0.624 -2.460938,0.624 -1.924804,0 -3.111328,-1.248 -1.177734,-1.2569 -1.177734,-3.252 0,-2.2236 1.274414,-3.5684 1.274414,-1.3535 3.401367,-1.3535 1.186524,0 2.091797,0.4395 v 1.4765 q -1.001953,-0.7031 -2.144531,-0.7031 -1.379883,0 -2.267578,0.9932 -0.878907,0.9844 -0.878907,2.5928 0,1.582 0.826172,2.4961 0.834961,0.914 2.232422,0.914 1.177734,0 2.214844,-0.7822 z"
         style="font-style:normal;font-variant:normal;font-weight:normal;font-stretch:normal;font-size:18px;font-family:'Segoe UI';-inkscape-font-specification:'Segoe UI';stroke-width:1px;fill:#376bbe;fill-opacity:1"
         id="path822" />
    </g>
  </g>
</svg>
