<?xml version="1.0" encoding="UTF-8" standalone="no"?>
<!-- Created with Inkscape (http://www.inkscape.org/) -->

<svg
   xmlns:dc="http://purl.org/dc/elements/1.1/"
   xmlns:cc="http://creativecommons.org/ns#"
   xmlns:rdf="http://www.w3.org/1999/02/22-rdf-syntax-ns#"
   xmlns:svg="http://www.w3.org/2000/svg"
   xmlns="http://www.w3.org/2000/svg"
   xmlns:sodipodi="http://sodipodi.sourceforge.net/DTD/sodipodi-0.dtd"
   xmlns:inkscape="http://www.inkscape.org/namespaces/inkscape"
   width="36"
   height="36"
   viewBox="0 0 36 36"
   id="svg4225"
   version="1.1"
   inkscape:version="0.92.2 (5c3e80d, 2017-08-06)"
   sodipodi:docname="ttogglebox_150.svg"
   inkscape:export-filename="ttogglebox_150.png"
   inkscape:export-xdpi="96"
   inkscape:export-ydpi="96">
  <defs
     id="defs4227" />
  <sodipodi:namedview
     id="base"
     pagecolor="#ffffff"
     bordercolor="#666666"
     borderopacity="1.0"
     inkscape:pageopacity="0.0"
     inkscape:pageshadow="2"
     inkscape:zoom="18.861111"
     inkscape:cx="20.812689"
     inkscape:cy="16.827896"
     inkscape:document-units="px"
     inkscape:current-layer="layer1"
     showgrid="true"
     inkscape:snap-bbox="true"
     inkscape:bbox-paths="true"
     inkscape:bbox-nodes="true"
     inkscape:snap-bbox-edge-midpoints="true"
     inkscape:snap-bbox-midpoints="true"
     inkscape:object-paths="true"
     inkscape:snap-intersection-paths="true"
     inkscape:object-nodes="true"
     inkscape:snap-smooth-nodes="true"
     inkscape:snap-midpoints="true"
     inkscape:snap-object-midpoints="true"
     inkscape:snap-center="true"
     units="px"
     inkscape:window-width="1920"
     inkscape:window-height="1137"
     inkscape:window-x="-8"
     inkscape:window-y="-8"
     inkscape:window-maximized="1">
    <inkscape:grid
       type="xygrid"
       id="grid4241" />
  </sodipodi:namedview>
  <metadata
     id="metadata4230">
    <rdf:RDF>
      <cc:Work
         rdf:about="">
        <dc:format>image/svg+xml</dc:format>
        <dc:type
           rdf:resource="http://purl.org/dc/dcmitype/StillImage" />
        <dc:title />
      </cc:Work>
    </rdf:RDF>
  </metadata>
  <g
     inkscape:label="Ebene 1"
     inkscape:groupmode="layer"
     id="layer1"
     transform="translate(0,-1016.3622)">
    <path
       style="opacity:1;fill:#005499;fill-opacity:1;stroke:none;stroke-width:0;stroke-linecap:round;stroke-linejoin:round;stroke-miterlimit:4;stroke-dasharray:none;stroke-dashoffset:0;stroke-opacity:1;paint-order:normal"
       d="m 2,1023.3622 h 32 c 1.108,0 2,0.892 2,2 v 17 c 0,1.108 -0.892,2 -2,2 H 2 c -1.108,0 -2,-0.892 -2,-2 v -17 c 0,-1.108 0.892,-2 2,-2 z"
       id="rect822" />
    <path
       style="opacity:1;fill:#cce4f7;fill-opacity:1;stroke:none;stroke-width:0;stroke-linecap:round;stroke-linejoin:round;stroke-miterlimit:4;stroke-dasharray:none;stroke-dashoffset:0;stroke-opacity:1;paint-order:normal"
       d="m 2.5,1024.3623 h 31 c 0.831,0 1.5,0.669 1.5,1.5 v 16 c 0,0.831 -0.669,1.5 -1.5,1.5 h -31 c -0.831,0 -1.5,-0.669 -1.5,-1.5 v -16 c 0,-0.831 0.669,-1.5 1.5,-1.5 z"
       id="rect824" />
    <g
       aria-label="on"
       style="font-style:normal;font-weight:normal;font-size:12px;line-height:37.5px;font-family:sans-serif;letter-spacing:0px;word-spacing:0px;fill:#000000;fill-opacity:1;stroke:none;stroke-width:1px;stroke-linecap:butt;stroke-linejoin:miter;stroke-opacity:1"
       id="text859">
      <path
         d="m 13.958297,1037.5262 q -1.551758,0 -2.481446,-0.9775 -0.922851,-0.9844 -0.922851,-2.6045 0,-1.7637 0.963867,-2.7549 0.963867,-0.9912 2.604492,-0.9912 1.56543,0 2.44043,0.9639 0.881836,0.9639 0.881836,2.6728 0,1.6748 -0.950195,2.6866 -0.94336,1.0048 -2.536133,1.0048 z m 0.08203,-6.3847 q -1.080078,0 -1.708984,0.7383 -0.628907,0.7314 -0.628907,2.0234 0,1.2441 0.635743,1.9619 0.635742,0.7178 1.702148,0.7178 1.086914,0 1.667969,-0.7041 0.58789,-0.7041 0.58789,-2.0029 0,-1.3125 -0.58789,-2.0235 -0.581055,-0.7109 -1.667969,-0.7109 z"
         style="font-style:normal;font-variant:normal;font-weight:normal;font-stretch:normal;font-size:14px;font-family:'Segoe UI';-inkscape-font-specification:'Segoe UI';stroke-width:1px"
         id="path817" />
      <path
         d="m 25.046187,1037.3622 h -1.121093 v -3.9922 q 0,-2.2285 -1.626953,-2.2285 -0.840821,0 -1.394532,0.6357 -0.546875,0.6289 -0.546875,1.5928 v 3.9922 h -1.121093 v -7 h 1.121093 v 1.1621 h 0.02734 q 0.792969,-1.3262 2.296875,-1.3262 1.148438,0 1.756836,0.7451 0.608398,0.7383 0.608398,2.1397 z"
         style="font-style:normal;font-variant:normal;font-weight:normal;font-stretch:normal;font-size:14px;font-family:'Segoe UI';-inkscape-font-specification:'Segoe UI';stroke-width:1px"
         id="path819" />
    </g>
  </g>
</svg>
