<?xml version="1.0" encoding="UTF-8" standalone="no"?>
<!-- Created with Inkscape (http://www.inkscape.org/) -->

<svg
   xmlns:dc="http://purl.org/dc/elements/1.1/"
   xmlns:cc="http://creativecommons.org/ns#"
   xmlns:rdf="http://www.w3.org/1999/02/22-rdf-syntax-ns#"
   xmlns:svg="http://www.w3.org/2000/svg"
   xmlns="http://www.w3.org/2000/svg"
   xmlns:sodipodi="http://sodipodi.sourceforge.net/DTD/sodipodi-0.dtd"
   xmlns:inkscape="http://www.inkscape.org/namespaces/inkscape"
   width="24"
   height="24"
   viewBox="0 0 24 24"
   id="svg4225"
   version="1.1"
   inkscape:version="0.92.2 (5c3e80d, 2017-08-06)"
   sodipodi:docname="ttogglebox.svg"
   inkscape:export-filename="ttogglebox.png"
   inkscape:export-xdpi="96"
   inkscape:export-ydpi="96">
  <defs
     id="defs4227" />
  <sodipodi:namedview
     id="base"
     pagecolor="#ffffff"
     bordercolor="#666666"
     borderopacity="1.0"
     inkscape:pageopacity="0.0"
     inkscape:pageshadow="2"
     inkscape:zoom="28.291667"
     inkscape:cx="13.232527"
     inkscape:cy="9.6803897"
     inkscape:document-units="px"
     inkscape:current-layer="layer1"
     showgrid="true"
     inkscape:snap-bbox="true"
     inkscape:bbox-paths="true"
     inkscape:bbox-nodes="true"
     inkscape:snap-bbox-edge-midpoints="true"
     inkscape:snap-bbox-midpoints="true"
     inkscape:object-paths="true"
     inkscape:snap-intersection-paths="true"
     inkscape:object-nodes="true"
     inkscape:snap-smooth-nodes="true"
     inkscape:snap-midpoints="true"
     inkscape:snap-object-midpoints="true"
     inkscape:snap-center="true"
     units="px"
     inkscape:window-width="1920"
     inkscape:window-height="1137"
     inkscape:window-x="-8"
     inkscape:window-y="-8"
     inkscape:window-maximized="1"
     showguides="true"
     inkscape:guide-bbox="true">
    <inkscape:grid
       type="xygrid"
       id="grid4241" />
  </sodipodi:namedview>
  <metadata
     id="metadata4230">
    <rdf:RDF>
      <cc:Work
         rdf:about="">
        <dc:format>image/svg+xml</dc:format>
        <dc:type
           rdf:resource="http://purl.org/dc/dcmitype/StillImage" />
        <dc:title />
      </cc:Work>
    </rdf:RDF>
  </metadata>
  <g
     inkscape:label="Ebene 1"
     inkscape:groupmode="layer"
     id="layer1"
     transform="translate(0,-1028.3622)">
    <path
       style="opacity:1;fill:#005499;fill-opacity:1;stroke:none;stroke-width:0;stroke-linecap:round;stroke-linejoin:round;stroke-miterlimit:4;stroke-dasharray:none;stroke-dashoffset:0;stroke-opacity:1;paint-order:normal"
       d="m 1.5,1033.3622 h 21 c 0.831,0 1.5,0.669 1.5,1.5 v 11 c 0,0.831 -0.669,1.5 -1.5,1.5 h -21 c -0.831,0 -1.5,-0.669 -1.5,-1.5 v -11 c 0,-0.831 0.669,-1.5 1.5,-1.5 z"
       id="rect820" />
    <path
       style="opacity:1;fill:#cce4f7;fill-opacity:1;stroke:none;stroke-width:0;stroke-linecap:round;stroke-linejoin:round;stroke-miterlimit:4;stroke-dasharray:none;stroke-dashoffset:0;stroke-opacity:1;paint-order:normal"
       d="m 2,1034.3622 h 20 c 0.554,0 1,0.446 1,1 v 10 c 0,0.554 -0.446,1 -1,1 H 2 c -0.554,0 -1,-0.446 -1,-1 v -10 c 0,-0.554 0.446,-1 1,-1 z"
       id="rect818" />
    <g
       aria-label="on"
       style="font-style:normal;font-weight:normal;font-size:8px;line-height:25px;font-family:sans-serif;letter-spacing:0px;word-spacing:0px;fill:#000000;fill-opacity:1;stroke:none;stroke-width:1px;stroke-linecap:butt;stroke-linejoin:miter;stroke-opacity:1"
       id="text859">
      <path
         d="m 9.4185313,1042.5022 q -1.0345051,0 -1.6542968,-0.6517 -0.6152343,-0.6562 -0.6152343,-1.7363 0,-1.1758 0.6425781,-1.8366 0.6425781,-0.6608 1.736328,-0.6608 1.0436197,0 1.6269527,0.6426 0.587891,0.6425 0.587891,1.7819 0,1.1165 -0.633464,1.791 -0.628906,0.6699 -1.6907547,0.6699 z m 0.054687,-4.2565 q -0.720052,0 -1.1393229,0.4922 -0.4192708,0.4876 -0.4192708,1.3489 0,0.8295 0.4238281,1.308 0.4238281,0.4785 1.1347656,0.4785 0.7246092,0 1.1119792,-0.4694 0.391927,-0.4694 0.391927,-1.3353 0,-0.875 -0.391927,-1.349 -0.38737,-0.4739 -1.1119792,-0.4739 z"
         style="font-style:normal;font-variant:normal;font-weight:normal;font-stretch:normal;font-size:9.33333302px;font-family:'Segoe UI';-inkscape-font-specification:'Segoe UI';stroke-width:1px"
         id="path828" />
      <path
         d="m 16.810458,1042.3928 h -0.747395 v -2.6614 q 0,-1.4857 -1.084636,-1.4857 -0.560547,0 -0.929687,0.4238 -0.364584,0.4193 -0.364584,1.0619 v 2.6614 h -0.747395 v -4.6666 h 0.747395 v 0.7747 h 0.01823 q 0.528645,-0.8841 1.531249,-0.8841 0.765625,0 1.171224,0.4967 0.405599,0.4922 0.405599,1.4265 z"
         style="font-style:normal;font-variant:normal;font-weight:normal;font-stretch:normal;font-size:9.33333302px;font-family:'Segoe UI';-inkscape-font-specification:'Segoe UI';stroke-width:1px"
         id="path830" />
    </g>
  </g>
</svg>
