<?xml version="1.0" encoding="UTF-8" standalone="no"?>
<!-- Created with Inkscape (http://www.inkscape.org/) -->

<svg
   xmlns:dc="http://purl.org/dc/elements/1.1/"
   xmlns:cc="http://creativecommons.org/ns#"
   xmlns:rdf="http://www.w3.org/1999/02/22-rdf-syntax-ns#"
   xmlns:svg="http://www.w3.org/2000/svg"
   xmlns="http://www.w3.org/2000/svg"
   xmlns:xlink="http://www.w3.org/1999/xlink"
   xmlns:sodipodi="http://sodipodi.sourceforge.net/DTD/sodipodi-0.dtd"
   xmlns:inkscape="http://www.inkscape.org/namespaces/inkscape"
   width="36"
   height="36"
   viewBox="0 0 36 36"
   id="svg4225"
   version="1.1"
   inkscape:version="0.92.2 (5c3e80d, 2017-08-06)"
   sodipodi:docname="tcdprogressbar_150.svg"
   inkscape:export-filename="tcdprogressbar_150.png"
   inkscape:export-xdpi="96"
   inkscape:export-ydpi="96">
  <defs
     id="defs4227">
    <linearGradient
       inkscape:collect="always"
       xlink:href="#linearGradient968"
       id="linearGradient970"
       x1="20.626196"
       y1="1050.5933"
       x2="3.9488814"
       y2="1033.0542"
       gradientUnits="userSpaceOnUse"
       gradientTransform="matrix(1.738889,0,0,0.68418288,-2.8666665,322.56424)" />
    <linearGradient
       inkscape:collect="always"
       id="linearGradient968">
      <stop
         style="stop-color:#cccccc;stop-opacity:1"
         offset="0"
         id="stop964" />
      <stop
         style="stop-color:#ffffff;stop-opacity:1"
         offset="1"
         id="stop966" />
    </linearGradient>
  </defs>
  <sodipodi:namedview
     id="base"
     pagecolor="#ffffff"
     bordercolor="#666666"
     borderopacity="1.0"
     inkscape:pageopacity="0.0"
     inkscape:pageshadow="2"
     inkscape:zoom="37.587937"
     inkscape:cx="18.5"
     inkscape:cy="12.504011"
     inkscape:document-units="px"
     inkscape:current-layer="layer1"
     showgrid="true"
     inkscape:snap-bbox="true"
     inkscape:bbox-paths="true"
     inkscape:bbox-nodes="true"
     inkscape:snap-bbox-edge-midpoints="true"
     inkscape:snap-bbox-midpoints="true"
     inkscape:object-paths="true"
     inkscape:snap-intersection-paths="true"
     inkscape:object-nodes="true"
     inkscape:snap-smooth-nodes="true"
     inkscape:snap-midpoints="true"
     inkscape:snap-object-midpoints="true"
     inkscape:snap-center="true"
     units="px"
     inkscape:window-width="1920"
     inkscape:window-height="1137"
     inkscape:window-x="-8"
     inkscape:window-y="-8"
     inkscape:window-maximized="1">
    <inkscape:grid
       type="xygrid"
       id="grid4241" />
  </sodipodi:namedview>
  <metadata
     id="metadata4230">
    <rdf:RDF>
      <cc:Work
         rdf:about="">
        <dc:format>image/svg+xml</dc:format>
        <dc:type
           rdf:resource="http://purl.org/dc/dcmitype/StillImage" />
        <dc:title />
      </cc:Work>
    </rdf:RDF>
  </metadata>
  <g
     inkscape:label="Ebene 1"
     inkscape:groupmode="layer"
     id="layer1"
     transform="translate(0,-1016.3622)">
    <rect
       style="opacity:1;fill:url(#linearGradient970);fill-opacity:1;stroke:#999999;stroke-width:1.05263174;stroke-linecap:round;stroke-linejoin:round;stroke-miterlimit:4;stroke-dasharray:none;stroke-dashoffset:0;stroke-opacity:1;paint-order:normal"
       id="rect842"
       width="32.947369"
       height="12.963466"
       x="1.5263158"
       y="1027.8805" />
    <rect
       style="opacity:1;fill:#3771c8;fill-opacity:1;stroke:#999999;stroke-width:0;stroke-linecap:round;stroke-linejoin:round;stroke-miterlimit:4;stroke-dasharray:none;stroke-dashoffset:0;stroke-opacity:1;paint-order:normal"
       id="rect836"
       width="4.9999986"
       height="7.999999"
       x="4.0000005"
       y="1030.3622" />
    <rect
       y="1030.3622"
       x="11"
       height="7.999999"
       width="4.9999986"
       id="rect855"
       style="opacity:1;fill:#3771c8;fill-opacity:1;stroke:#999999;stroke-width:0;stroke-linecap:round;stroke-linejoin:round;stroke-miterlimit:4;stroke-dasharray:none;stroke-dashoffset:0;stroke-opacity:1;paint-order:normal" />
    <rect
       style="opacity:1;fill:#3771c8;fill-opacity:1;stroke:#999999;stroke-width:0;stroke-linecap:round;stroke-linejoin:round;stroke-miterlimit:4;stroke-dasharray:none;stroke-dashoffset:0;stroke-opacity:1;paint-order:normal"
       id="rect857"
       width="4.9999986"
       height="7.999999"
       x="18"
       y="1030.3622" />
    <g
       id="layer1-1"
       inkscape:label="Ebene 1">
      <g
         style="stroke-width:1.00189745"
         transform="matrix(1.0066284,0,0,0.98965598,-4.2651367,-18.021247)"
         id="g899">
        <path
           inkscape:connector-curvature="0"
           style="opacity:1;fill:#ffffff;fill-opacity:1;fill-rule:evenodd;stroke:none;stroke-width:1.00189745;stroke-linecap:square;stroke-linejoin:miter;stroke-miterlimit:4;stroke-dasharray:none;stroke-dashoffset:0;stroke-opacity:1;paint-order:normal"
           d="m 38.447266,45 a 1.0000656,1.0000656 0 0 0 -0.673828,0.259766 L 27.59375,54.527344 a 1.0000656,1.0000656 0 0 0 -0.0332,0.0332 l -0.002,0.002 a 1.0000656,1.0000656 0 0 0 -0.002,0.002 L 27.148347,54.9747 a 1.0000656,1.0000656 0 0 0 -0.119141,0.144532 l -2.001953,2.960937 -0.08398,0.08398 c -0.636214,-0.09785 -1.310769,-0.0866 -2.001953,0.181641 -0.630326,0.244666 -1.070655,0.714992 -1.394531,1.179688 -0.323876,0.464696 -0.579163,0.954747 -0.912109,1.492187 -0.294915,0.475981 -0.580337,0.630648 -1.082032,0.763672 -0.501694,0.133023 -1.202507,0.163286 -2.005859,0.248047 a 1.0000656,1.0000656 0 0 0 -0.207031,1.943359 c 1.938999,0.637186 3.614233,1.079526 5.101562,1.203125 1.48733,0.123598 2.84403,-0.08425 3.921875,-0.859375 1.11666,-0.803002 1.438717,-2.009014 1.34375,-3.130859 l 0.212891,-0.212891 2.96289,-2.001953 a 1.0000656,1.0000656 0 0 0 0.146485,-0.121094 l 0.353515,-0.353515 0.0078,-0.0059 a 1.0000656,1.0000656 0 0 0 0.08398,-0.08203 L 40,49.039062 V 45 Z"
           transform="translate(0,1016.3622)"
           id="path867" />
        <g
           style="stroke-width:0.66793162"
           transform="matrix(1.5,0,0,1.5,4,-480.1811)"
           id="g864">
          <path
             inkscape:connector-curvature="0"
             id="path854"
             d="m 14.152471,1037.2244 0.383327,-0.3833 0.98568,0.9857 -0.383327,0.3833 z"
             style="opacity:1;fill:#ffffff;fill-opacity:1;fill-rule:evenodd;stroke:none;stroke-width:0.66793162;stroke-linecap:square;stroke-linejoin:miter;stroke-miterlimit:4;stroke-dasharray:none;stroke-dashoffset:0;stroke-opacity:1;paint-order:normal" />
          <path
             sodipodi:nodetypes="csssc"
             inkscape:connector-curvature="0"
             id="path856"
             d="m 9.1010652,1039.7112 c 1.0046458,-0.106 1.9787448,-0.056 2.5548008,-0.9857 0.469751,-0.7583 0.69713,-1.3112 1.212555,-1.5113 1.952144,-0.7576 3.30037,1.6309 1.651111,2.8169 -1.101035,0.7918 -2.87913,0.5146 -5.4184668,-0.3199 z"
             style="fill:#ff0000;fill-rule:evenodd;stroke:none;stroke-width:0.66793162px;stroke-linecap:butt;stroke-linejoin:miter;stroke-opacity:1" />
          <path
             inkscape:connector-curvature="0"
             id="path858"
             d="m 14.535784,1036.8411 0.985686,0.9857 2.026133,-1.369 -1.642811,-1.6428 z"
             style="fill:#b3b3b3;fill-rule:evenodd;stroke:none;stroke-width:0.66793162px;stroke-linecap:butt;stroke-linejoin:miter;stroke-opacity:1"
             sodipodi:nodetypes="ccccc" />
          <path
             style="fill:#c87137;fill-rule:evenodd;stroke:none;stroke-width:0.66793162px;stroke-linecap:butt;stroke-linejoin:miter;stroke-opacity:1"
             d="M 22.964844,0 16.177734,6.1796875 17.822266,7.8222656 24,1.0351562 V 0 Z"
             transform="translate(0,1028.3622)"
             id="path860"
             inkscape:connector-curvature="0" />
          <path
             inkscape:connector-curvature="0"
             id="path862"
             d="m 15.904775,1034.815 0.2738,-0.2738 1.642816,1.6428 -0.273799,0.2738 z"
             style="opacity:1;fill:#ffffff;fill-opacity:1;fill-rule:evenodd;stroke:none;stroke-width:0.66793162;stroke-linecap:square;stroke-linejoin:miter;stroke-miterlimit:4;stroke-dasharray:none;stroke-dashoffset:0;stroke-opacity:1;paint-order:normal" />
        </g>
      </g>
    </g>
  </g>
</svg>
