<?xml version="1.0" encoding="UTF-8" standalone="no"?>
<!-- Created with Inkscape (http://www.inkscape.org/) -->

<svg
   xmlns:dc="http://purl.org/dc/elements/1.1/"
   xmlns:cc="http://creativecommons.org/ns#"
   xmlns:rdf="http://www.w3.org/1999/02/22-rdf-syntax-ns#"
   xmlns:svg="http://www.w3.org/2000/svg"
   xmlns="http://www.w3.org/2000/svg"
   xmlns:sodipodi="http://sodipodi.sourceforge.net/DTD/sodipodi-0.dtd"
   xmlns:inkscape="http://www.inkscape.org/namespaces/inkscape"
   width="36"
   height="36"
   viewBox="0 0 36 36"
   id="svg4225"
   version="1.1"
   inkscape:version="0.92.2 (5c3e80d, 2017-08-06)"
   sodipodi:docname="tcdstatictext_150.svg"
   inkscape:export-filename="tcdstatictext_150.png"
   inkscape:export-xdpi="96"
   inkscape:export-ydpi="96">
  <defs
     id="defs4227" />
  <sodipodi:namedview
     id="base"
     pagecolor="#ffffff"
     bordercolor="#666666"
     borderopacity="1.0"
     inkscape:pageopacity="0.0"
     inkscape:pageshadow="2"
     inkscape:zoom="33.571428"
     inkscape:cx="18"
     inkscape:cy="14"
     inkscape:document-units="px"
     inkscape:current-layer="layer1"
     showgrid="true"
     inkscape:snap-bbox="true"
     inkscape:bbox-paths="true"
     inkscape:bbox-nodes="true"
     inkscape:snap-bbox-edge-midpoints="true"
     inkscape:snap-bbox-midpoints="true"
     inkscape:object-paths="true"
     inkscape:snap-intersection-paths="true"
     inkscape:object-nodes="true"
     inkscape:snap-smooth-nodes="true"
     inkscape:snap-midpoints="true"
     inkscape:snap-object-midpoints="true"
     inkscape:snap-center="true"
     units="px"
     inkscape:window-width="1920"
     inkscape:window-height="1137"
     inkscape:window-x="-8"
     inkscape:window-y="-8"
     inkscape:window-maximized="1"
     showguides="false">
    <inkscape:grid
       type="xygrid"
       id="grid4241" />
  </sodipodi:namedview>
  <metadata
     id="metadata4230">
    <rdf:RDF>
      <cc:Work
         rdf:about="">
        <dc:format>image/svg+xml</dc:format>
        <dc:type
           rdf:resource="http://purl.org/dc/dcmitype/StillImage" />
        <dc:title />
      </cc:Work>
    </rdf:RDF>
  </metadata>
  <g
     inkscape:label="Ebene 1"
     inkscape:groupmode="layer"
     id="layer1"
     transform="translate(0,-1016.3622)">
    <path
       style="opacity:1;fill:#7f9db9;fill-opacity:1;stroke:none;stroke-width:0;stroke-linecap:round;stroke-linejoin:round;stroke-miterlimit:4;stroke-dasharray:none;stroke-dashoffset:0;stroke-opacity:1;paint-order:normal"
       d="M 0 8 L 0 29 L 36 29 L 36 8 L 0 8 z M 1 9 L 35 9 L 35 28 L 1 28 L 1 9 z "
       transform="translate(0,1016.3622)"
       id="rect820" />
    <g
       aria-label="abc"
       style="font-style:normal;font-weight:normal;font-size:18px;line-height:37.5px;font-family:sans-serif;letter-spacing:0px;word-spacing:0px;fill:#376bbe;fill-opacity:1;stroke:none;stroke-width:1px;stroke-linecap:butt;stroke-linejoin:miter;stroke-opacity:1"
       id="text859">
      <path
         d="m 12.110352,1040.8013 h -1.441407 v -1.4063 h -0.03516 q -0.9404296,1.6172 -2.7685546,1.6172 -1.3447266,0 -2.109375,-0.7119 Q 5,1039.5884 5,1038.4106 q 0,-2.5224 2.9707031,-2.9355 l 2.6982419,-0.3779 q 0,-2.294 -1.8544919,-2.294 -1.6259765,0 -2.9355469,1.1074 v -1.4765 q 1.3271485,-0.8438 3.0585938,-0.8438 3.172852,0 3.172852,3.3575 z m -1.441407,-4.5528 -2.1708981,0.2989 q -1.0019532,0.1406 -1.5117188,0.5009 -0.5097656,0.3516 -0.5097656,1.2569 0,0.6592 0.4658203,1.081 0.4746094,0.4131 1.256836,0.4131 1.0722656,0 1.7666015,-0.7471 0.7031247,-0.7558 0.7031247,-1.9072 z"
         style="font-style:normal;font-variant:normal;font-weight:normal;font-stretch:normal;font-size:18px;font-family:'Segoe UI';-inkscape-font-specification:'Segoe UI';stroke-width:1px;fill:#376bbe;fill-opacity:1"
         id="path818" />
      <path
         d="m 16.320312,1039.5005 h -0.03516 v 1.3008 H 14.84375 v -13.3242 h 1.441406 v 5.9062 h 0.03516 q 1.063477,-1.793 3.111329,-1.793 1.731445,0 2.707031,1.2129 0.984375,1.2041 0.984375,3.2344 0,2.2588 -1.098633,3.6211 -1.098633,1.3535 -3.005859,1.3535 -1.78418,0 -2.698243,-1.5117 z m -0.03516,-3.6299 v 1.2568 q 0,1.1163 0.720703,1.8985 0.729493,0.7734 1.845703,0.7734 1.309571,0 2.047852,-1.0019 0.74707,-1.002 0.74707,-2.7862 0,-1.5029 -0.694336,-2.3554 -0.694336,-0.8526 -1.880859,-0.8526 -1.256836,0 -2.021484,0.8789 -0.764649,0.8701 -0.764649,2.1885 z"
         style="font-style:normal;font-variant:normal;font-weight:normal;font-stretch:normal;font-size:18px;font-family:'Segoe UI';-inkscape-font-specification:'Segoe UI';stroke-width:1px;fill:#376bbe;fill-opacity:1"
         id="path820" />
      <path
         d="m 31.560547,1040.3882 q -1.03711,0.624 -2.460938,0.624 -1.924804,0 -3.111328,-1.248 -1.177734,-1.2569 -1.177734,-3.252 0,-2.2236 1.274414,-3.5684 1.274414,-1.3535 3.401367,-1.3535 1.186524,0 2.091797,0.4395 v 1.4765 q -1.001953,-0.7031 -2.144531,-0.7031 -1.379883,0 -2.267578,0.9932 -0.878907,0.9844 -0.878907,2.5928 0,1.582 0.826172,2.4961 0.834961,0.914 2.232422,0.914 1.177734,0 2.214844,-0.7822 z"
         style="font-style:normal;font-variant:normal;font-weight:normal;font-stretch:normal;font-size:18px;font-family:'Segoe UI';-inkscape-font-specification:'Segoe UI';stroke-width:1px;fill:#376bbe;fill-opacity:1"
         id="path822" />
    </g>
    <g
       id="layer1-1"
       inkscape:label="Ebene 1">
      <g
         style="stroke-width:1.00189745"
         transform="matrix(1.0066284,0,0,0.98965598,-4.2651367,-18.021247)"
         id="g899">
        <path
           inkscape:connector-curvature="0"
           style="opacity:1;fill:#ffffff;fill-opacity:1;fill-rule:evenodd;stroke:none;stroke-width:1.00189745;stroke-linecap:square;stroke-linejoin:miter;stroke-miterlimit:4;stroke-dasharray:none;stroke-dashoffset:0;stroke-opacity:1;paint-order:normal"
           d="m 38.447266,45 a 1.0000656,1.0000656 0 0 0 -0.673828,0.259766 L 27.59375,54.527344 a 1.0000656,1.0000656 0 0 0 -0.0332,0.0332 l -0.002,0.002 a 1.0000656,1.0000656 0 0 0 -0.002,0.002 L 27.148347,54.9747 a 1.0000656,1.0000656 0 0 0 -0.119141,0.144532 l -2.001953,2.960937 -0.08398,0.08398 c -0.636214,-0.09785 -1.310769,-0.0866 -2.001953,0.181641 -0.630326,0.244666 -1.070655,0.714992 -1.394531,1.179688 -0.323876,0.464696 -0.579163,0.954747 -0.912109,1.492187 -0.294915,0.475981 -0.580337,0.630648 -1.082032,0.763672 -0.501694,0.133023 -1.202507,0.163286 -2.005859,0.248047 a 1.0000656,1.0000656 0 0 0 -0.207031,1.943359 c 1.938999,0.637186 3.614233,1.079526 5.101562,1.203125 1.48733,0.123598 2.84403,-0.08425 3.921875,-0.859375 1.11666,-0.803002 1.438717,-2.009014 1.34375,-3.130859 l 0.212891,-0.212891 2.96289,-2.001953 a 1.0000656,1.0000656 0 0 0 0.146485,-0.121094 l 0.353515,-0.353515 0.0078,-0.0059 a 1.0000656,1.0000656 0 0 0 0.08398,-0.08203 L 40,49.039062 V 45 Z"
           transform="translate(0,1016.3622)"
           id="path867" />
        <g
           style="stroke-width:0.66793162"
           transform="matrix(1.5,0,0,1.5,4,-480.1811)"
           id="g864">
          <path
             inkscape:connector-curvature="0"
             id="path854"
             d="m 14.152471,1037.2244 0.383327,-0.3833 0.98568,0.9857 -0.383327,0.3833 z"
             style="opacity:1;fill:#ffffff;fill-opacity:1;fill-rule:evenodd;stroke:none;stroke-width:0.66793162;stroke-linecap:square;stroke-linejoin:miter;stroke-miterlimit:4;stroke-dasharray:none;stroke-dashoffset:0;stroke-opacity:1;paint-order:normal" />
          <path
             sodipodi:nodetypes="csssc"
             inkscape:connector-curvature="0"
             id="path856"
             d="m 9.1010652,1039.7112 c 1.0046458,-0.106 1.9787448,-0.056 2.5548008,-0.9857 0.469751,-0.7583 0.69713,-1.3112 1.212555,-1.5113 1.952144,-0.7576 3.30037,1.6309 1.651111,2.8169 -1.101035,0.7918 -2.87913,0.5146 -5.4184668,-0.3199 z"
             style="fill:#ff0000;fill-rule:evenodd;stroke:none;stroke-width:0.66793162px;stroke-linecap:butt;stroke-linejoin:miter;stroke-opacity:1" />
          <path
             inkscape:connector-curvature="0"
             id="path858"
             d="m 14.535784,1036.8411 0.985686,0.9857 2.026133,-1.369 -1.642811,-1.6428 z"
             style="fill:#b3b3b3;fill-rule:evenodd;stroke:none;stroke-width:0.66793162px;stroke-linecap:butt;stroke-linejoin:miter;stroke-opacity:1"
             sodipodi:nodetypes="ccccc" />
          <path
             style="fill:#c87137;fill-rule:evenodd;stroke:none;stroke-width:0.66793162px;stroke-linecap:butt;stroke-linejoin:miter;stroke-opacity:1"
             d="M 22.964844,0 16.177734,6.1796875 17.822266,7.8222656 24,1.0351562 V 0 Z"
             transform="translate(0,1028.3622)"
             id="path860"
             inkscape:connector-curvature="0" />
          <path
             inkscape:connector-curvature="0"
             id="path862"
             d="m 15.904775,1034.815 0.2738,-0.2738 1.642816,1.6428 -0.273799,0.2738 z"
             style="opacity:1;fill:#ffffff;fill-opacity:1;fill-rule:evenodd;stroke:none;stroke-width:0.66793162;stroke-linecap:square;stroke-linejoin:miter;stroke-miterlimit:4;stroke-dasharray:none;stroke-dashoffset:0;stroke-opacity:1;paint-order:normal" />
        </g>
      </g>
    </g>
  </g>
</svg>
