<?xml version="1.0" encoding="UTF-8" standalone="no"?>
<!-- Created with Inkscape (http://www.inkscape.org/) -->

<svg
   xmlns:dc="http://purl.org/dc/elements/1.1/"
   xmlns:cc="http://creativecommons.org/ns#"
   xmlns:rdf="http://www.w3.org/1999/02/22-rdf-syntax-ns#"
   xmlns:svg="http://www.w3.org/2000/svg"
   xmlns="http://www.w3.org/2000/svg"
   xmlns:sodipodi="http://sodipodi.sourceforge.net/DTD/sodipodi-0.dtd"
   xmlns:inkscape="http://www.inkscape.org/namespaces/inkscape"
   width="24"
   height="24"
   viewBox="0 0 24 24"
   id="svg4225"
   version="1.1"
   inkscape:version="0.92.2 (5c3e80d, 2017-08-06)"
   sodipodi:docname="tcdspinedit.svg"
   inkscape:export-filename="tcdspinedit.png"
   inkscape:export-xdpi="96"
   inkscape:export-ydpi="96">
  <defs
     id="defs4227" />
  <sodipodi:namedview
     id="base"
     pagecolor="#ffffff"
     bordercolor="#666666"
     borderopacity="1.0"
     inkscape:pageopacity="0.0"
     inkscape:pageshadow="2"
     inkscape:zoom="49.47364"
     inkscape:cx="12.5"
     inkscape:cy="9.5000086"
     inkscape:document-units="px"
     inkscape:current-layer="layer1"
     showgrid="true"
     inkscape:snap-bbox="true"
     inkscape:bbox-paths="true"
     inkscape:bbox-nodes="true"
     inkscape:snap-bbox-edge-midpoints="true"
     inkscape:snap-bbox-midpoints="true"
     inkscape:object-paths="true"
     inkscape:snap-intersection-paths="true"
     inkscape:object-nodes="true"
     inkscape:snap-smooth-nodes="true"
     inkscape:snap-midpoints="true"
     inkscape:snap-object-midpoints="true"
     inkscape:snap-center="true"
     units="px"
     inkscape:window-width="1920"
     inkscape:window-height="1137"
     inkscape:window-x="-8"
     inkscape:window-y="-8"
     inkscape:window-maximized="1"
     showguides="true"
     inkscape:guide-bbox="true">
    <inkscape:grid
       type="xygrid"
       id="grid4241"
       spacingx="0.5"
       spacingy="0.5"
       empspacing="2" />
  </sodipodi:namedview>
  <metadata
     id="metadata4230">
    <rdf:RDF>
      <cc:Work
         rdf:about="">
        <dc:format>image/svg+xml</dc:format>
        <dc:type
           rdf:resource="http://purl.org/dc/dcmitype/StillImage" />
        <dc:title />
      </cc:Work>
    </rdf:RDF>
  </metadata>
  <g
     inkscape:label="Ebene 1"
     inkscape:groupmode="layer"
     id="layer1"
     transform="translate(0,-1028.3622)">
    <g
       id="g839"
       transform="translate(0,2)">
      <g
         transform="translate(0,-0.99999978)"
         id="g851">
        <rect
           style="opacity:1;fill:#ffffff;fill-opacity:1;stroke:#999999;stroke-width:1;stroke-linecap:round;stroke-linejoin:round;stroke-miterlimit:4;stroke-dasharray:none;stroke-dashoffset:0;stroke-opacity:1;paint-order:normal"
           id="rect842"
           width="7"
           height="4.9999824"
           x="16.5"
           y="1032.8622" />
        <path
           style="fill:#000000;fill-opacity:1;fill-rule:evenodd;stroke:#000000;stroke-width:1px;stroke-linecap:butt;stroke-linejoin:round;stroke-opacity:1"
           d="m 20,1034.3622 -1.5,1.5 h 3 z"
           id="path833"
           inkscape:connector-curvature="0"
           sodipodi:nodetypes="cccc" />
        <rect
           style="opacity:1;fill:#7f9db9;fill-opacity:1;stroke:none;stroke-width:0;stroke-linecap:round;stroke-linejoin:round;stroke-miterlimit:4;stroke-dasharray:none;stroke-dashoffset:0;stroke-opacity:1;paint-order:normal"
           id="rect820"
           width="14"
           height="13.000017"
           x="1"
           y="1032.3622" />
        <rect
           style="opacity:1;fill:#ffffff;fill-opacity:1;stroke:none;stroke-width:0;stroke-linecap:round;stroke-linejoin:round;stroke-miterlimit:4;stroke-dasharray:none;stroke-dashoffset:0;stroke-opacity:1;paint-order:normal"
           id="rect818"
           width="12"
           height="11.000017"
           x="2"
           y="1033.3622" />
        <path
           inkscape:connector-curvature="0"
           id="path951"
           style="font-style:normal;font-variant:normal;font-weight:bold;font-stretch:normal;font-size:8px;line-height:25px;font-family:'Yu Gothic UI';-inkscape-font-specification:'Yu Gothic UI Bold';letter-spacing:0px;word-spacing:0px;fill:#162d50;fill-opacity:1;stroke:none;stroke-width:1px;stroke-linecap:butt;stroke-linejoin:miter;stroke-opacity:1"
           d="m 9.1994061,1041.0847 v -0.8711 q 0.5507813,0.3711 1.1171879,0.3711 0.570312,0 0.917968,-0.289 0.347657,-0.293 0.347657,-0.7774 0,-0.4766 -0.355469,-0.7422 -0.351563,-0.2656 -1.011719,-0.2656 -0.2265624,0 -0.9179686,0.047 l 0.1992187,-2.9453 h 2.7578129 v 0.7734 h -2.003907 l -0.09375,1.4023 q 0.269532,-0.016 0.488282,-0.016 0.890625,0 1.375,0.457 0.488281,0.4571 0.488281,1.25 0,0.8321 -0.558594,1.336 -0.554687,0.5 -1.527344,0.5 -0.8203121,0 -1.2226559,-0.2305 z" />
        <rect
           y="-1044.8622"
           x="16.5"
           height="5.0000858"
           width="7"
           id="rect935"
           style="opacity:1;fill:#ffffff;fill-opacity:1;stroke:#999999;stroke-width:1;stroke-linecap:round;stroke-linejoin:round;stroke-miterlimit:4;stroke-dasharray:none;stroke-dashoffset:0;stroke-opacity:1;paint-order:normal"
           transform="scale(1,-1)" />
        <path
           sodipodi:nodetypes="cccc"
           inkscape:connector-curvature="0"
           id="path937"
           d="m 20,1043.3622 -1.5,-1.5 h 3 z"
           style="fill:#000000;fill-opacity:1;fill-rule:evenodd;stroke:#000000;stroke-width:1px;stroke-linecap:butt;stroke-linejoin:round;stroke-opacity:1" />
      </g>
    </g>
    <g
       id="layer1-8"
       inkscape:label="Ebene 1">
      <g
         style="stroke-width:1.00574589"
         transform="matrix(1.0026544,0,0,0.98598927,-26.132721,16.520191)"
         id="g907">
        <path
           inkscape:connector-curvature="0"
           style="fill:#ffffff;fill-rule:evenodd;stroke:none;stroke-width:1.00574589px;stroke-linecap:butt;stroke-linejoin:miter;stroke-opacity:1"
           d="m 48.964844,8 a 0.99922802,0.99922802 0 0 0 -0.671875,0.2617188 l -6.597657,6.0078122 a 1.0314021,1.0314021 0 0 0 -0.246093,0.181641 l -0.273438,0.273437 a 1.0314021,1.0314021 0 0 0 -0.183593,0.248047 l -1.148438,1.699219 c -0.441074,-0.03614 -0.905345,0.01792 -1.357422,0.193359 -0.51473,0.1998 -0.871819,0.587835 -1.109375,0.927735 -0.237556,0.3399 -0.406402,0.665119 -0.621094,1.011719 -0.142781,0.2305 -0.216636,0.263737 -0.488281,0.335937 -0.271645,0.0721 -0.722407,0.0958 -1.277344,0.154297 a 1.0596659,1.0596659 0 0 0 -0.21875,2.060547 c 1.306229,0.4293 2.44439,0.733412 3.490235,0.820312 1.045845,0.0869 2.059351,-0.05848 2.876953,-0.646484 0.811396,-0.583455 1.211468,-1.508072 1.169922,-2.359375 l 1.734375,-1.171875 a 1.0314021,1.0314021 0 0 0 0.230469,-0.169922 l 0.27539,-0.273437 a 1.0314021,1.0314021 0 0 0 0.183594,-0.248047 1.0314021,1.0314021 0 0 0 0.002,-0.002 L 50,11.517578 V 8 Z"
           transform="translate(0,1028.3622)"
           id="path860" />
        <g
           style="stroke-width:1.00574589"
           transform="translate(26,9)"
           id="g895">
          <path
             inkscape:connector-curvature="0"
             id="path884"
             d="m 14.152471,1037.2244 0.383327,-0.3833 0.98568,0.9857 -0.383327,0.3833 z"
             style="opacity:1;fill:#ffffff;fill-opacity:1;fill-rule:evenodd;stroke:none;stroke-width:1.00574589;stroke-linecap:square;stroke-linejoin:miter;stroke-miterlimit:4;stroke-dasharray:none;stroke-dashoffset:0;stroke-opacity:1;paint-order:normal" />
          <path
             sodipodi:nodetypes="csssc"
             inkscape:connector-curvature="0"
             id="path886"
             d="m 9.1010652,1039.7112 c 1.0046458,-0.106 1.9787448,-0.056 2.5548008,-0.9857 0.469751,-0.7583 0.69713,-1.3112 1.212555,-1.5113 1.952144,-0.7576 3.30037,1.6309 1.651111,2.8169 -1.101035,0.7918 -2.87913,0.5146 -5.4184668,-0.3199 z"
             style="fill:#ff0000;fill-rule:evenodd;stroke:none;stroke-width:1.00574589px;stroke-linecap:butt;stroke-linejoin:miter;stroke-opacity:1" />
          <path
             inkscape:connector-curvature="0"
             id="path888"
             d="m 14.535784,1036.8411 0.985686,0.9857 2.026133,-1.369 -1.642811,-1.6428 z"
             style="fill:#b3b3b3;fill-rule:evenodd;stroke:none;stroke-width:1.00574589px;stroke-linecap:butt;stroke-linejoin:miter;stroke-opacity:1"
             sodipodi:nodetypes="ccccc" />
          <path
             style="fill:#c87137;fill-rule:evenodd;stroke:none;stroke-width:1.00574589px;stroke-linecap:butt;stroke-linejoin:miter;stroke-opacity:1"
             d="M 22.964844,0 16.177734,6.1796875 17.822266,7.8222656 24,1.0351562 V 0 Z"
             transform="translate(0,1028.3622)"
             id="path890"
             inkscape:connector-curvature="0" />
          <path
             inkscape:connector-curvature="0"
             id="path892"
             d="m 15.904775,1034.815 0.2738,-0.2738 1.642816,1.6428 -0.273799,0.2738 z"
             style="opacity:1;fill:#ffffff;fill-opacity:1;fill-rule:evenodd;stroke:none;stroke-width:1.00574589;stroke-linecap:square;stroke-linejoin:miter;stroke-miterlimit:4;stroke-dasharray:none;stroke-dashoffset:0;stroke-opacity:1;paint-order:normal" />
        </g>
      </g>
    </g>
  </g>
</svg>
