<?xml version="1.0" encoding="UTF-8" standalone="no"?>
<!-- Created with Inkscape (http://www.inkscape.org/) -->

<svg
   xmlns:dc="http://purl.org/dc/elements/1.1/"
   xmlns:cc="http://creativecommons.org/ns#"
   xmlns:rdf="http://www.w3.org/1999/02/22-rdf-syntax-ns#"
   xmlns:svg="http://www.w3.org/2000/svg"
   xmlns="http://www.w3.org/2000/svg"
   xmlns:sodipodi="http://sodipodi.sourceforge.net/DTD/sodipodi-0.dtd"
   xmlns:inkscape="http://www.inkscape.org/namespaces/inkscape"
   width="36"
   height="36"
   viewBox="0 0 36 36"
   version="1.1"
   id="svg2782"
   inkscape:version="0.92.3 (2405546, 2018-03-11)"
   sodipodi:docname="tclock_rx_150.svg"
   inkscape:export-filename="D:\temp\rx\work\tclock_rx_150.png"
   inkscape:export-xdpi="96"
   inkscape:export-ydpi="96">
  <defs
     id="defs2776" />
  <sodipodi:namedview
     id="base"
     pagecolor="#ffffff"
     bordercolor="#666666"
     borderopacity="1.0"
     inkscape:pageopacity="0.0"
     inkscape:pageshadow="2"
     inkscape:zoom="22.805556"
     inkscape:cx="18"
     inkscape:cy="18"
     inkscape:document-units="px"
     inkscape:current-layer="g881"
     showgrid="true"
     inkscape:window-width="1920"
     inkscape:window-height="1018"
     inkscape:window-x="-8"
     inkscape:window-y="-8"
     inkscape:window-maximized="1"
     units="px"
     inkscape:snap-global="true"
     inkscape:snap-grids="false"
     inkscape:measure-start="3.07422,8.99609"
     inkscape:measure-end="3.86719,9">
    <inkscape:grid
       type="xygrid"
       id="grid3330" />
  </sodipodi:namedview>
  <metadata
     id="metadata2779">
    <rdf:RDF>
      <cc:Work
         rdf:about="">
        <dc:format>image/svg+xml</dc:format>
        <dc:type
           rdf:resource="http://purl.org/dc/dcmitype/StillImage" />
        <dc:title></dc:title>
      </cc:Work>
    </rdf:RDF>
  </metadata>
  <g
     inkscape:label="base"
     inkscape:groupmode="layer"
     id="layer1"
     transform="translate(0,-296.29999)"
     style="display:inline">
    <path
       style="opacity:1;fill:none;fill-opacity:1;fill-rule:evenodd;stroke:none;stroke-width:0.60094482;stroke-linecap:round;stroke-linejoin:round;stroke-miterlimit:4;stroke-dasharray:none;stroke-dashoffset:0;stroke-opacity:1;paint-order:normal"
       d="m 0,296.3 h 36 v 36 H 0 Z"
       id="rect3332"
       inkscape:connector-curvature="0" />
  </g>
  <g
     inkscape:groupmode="layer"
     id="layer5"
     inkscape:label="panel"
     style="display:inline"
     transform="translate(0,-12)"
     sodipodi:insensitive="true">
    <path
       style="color:#000000;font-style:normal;font-variant:normal;font-weight:normal;font-stretch:normal;font-size:medium;line-height:normal;font-family:sans-serif;font-variant-ligatures:normal;font-variant-position:normal;font-variant-caps:normal;font-variant-numeric:normal;font-variant-alternates:normal;font-feature-settings:normal;text-indent:0;text-align:start;text-decoration:none;text-decoration-line:none;text-decoration-style:solid;text-decoration-color:#000000;letter-spacing:normal;word-spacing:normal;text-transform:none;writing-mode:lr-tb;direction:ltr;text-orientation:mixed;dominant-baseline:auto;baseline-shift:baseline;text-anchor:start;white-space:normal;shape-padding:0;clip-rule:nonzero;display:inline;overflow:visible;visibility:visible;opacity:1;isolation:auto;mix-blend-mode:normal;color-interpolation:sRGB;color-interpolation-filters:linearRGB;solid-color:#000000;solid-opacity:1;vector-effect:none;fill:#666666;fill-opacity:1;fill-rule:evenodd;stroke:none;stroke-width:0.61377966;stroke-linecap:butt;stroke-linejoin:miter;stroke-miterlimit:4;stroke-dasharray:none;stroke-dashoffset:0;stroke-opacity:1;paint-order:normal;color-rendering:auto;image-rendering:auto;shape-rendering:auto;text-rendering:auto;enable-background:accumulate"
       d="m 1.9548721,31.039515 v 0.351513 12.642487 H 34.024872 v -12.994 z"
       id="path835"
       inkscape:connector-curvature="0" />
    <path
       style="color:#000000;font-style:normal;font-variant:normal;font-weight:normal;font-stretch:normal;font-size:medium;line-height:normal;font-family:sans-serif;font-variant-ligatures:normal;font-variant-position:normal;font-variant-caps:normal;font-variant-numeric:normal;font-variant-alternates:normal;font-feature-settings:normal;text-indent:0;text-align:start;text-decoration:none;text-decoration-line:none;text-decoration-style:solid;text-decoration-color:#000000;letter-spacing:normal;word-spacing:normal;text-transform:none;writing-mode:lr-tb;direction:ltr;text-orientation:mixed;dominant-baseline:auto;baseline-shift:baseline;text-anchor:start;white-space:normal;shape-padding:0;clip-rule:nonzero;display:inline;overflow:visible;visibility:visible;opacity:1;isolation:auto;mix-blend-mode:normal;color-interpolation:sRGB;color-interpolation-filters:linearRGB;solid-color:#000000;solid-opacity:1;vector-effect:none;fill:#e6e6e6;fill-opacity:1;fill-rule:evenodd;stroke:none;stroke-width:0.60000008;stroke-linecap:butt;stroke-linejoin:miter;stroke-miterlimit:4;stroke-dasharray:none;stroke-dashoffset:0;stroke-opacity:1;paint-order:normal;color-rendering:auto;image-rendering:auto;shape-rendering:auto;text-rendering:auto;enable-background:accumulate"
       d="M 2.8478871,31.941097 H 33.016345 v 11.218 H 2.8478871 Z"
       id="rect828"
       inkscape:connector-curvature="0" />
  </g>
  <g
     inkscape:label="panel_caption"
     id="g881"
     inkscape:groupmode="layer"
     style="display:inline"
     transform="translate(0,-12)">
    <path
       inkscape:connector-curvature="0"
       id="path840"
       style="font-style:normal;font-variant:normal;font-weight:bold;font-stretch:normal;font-size:medium;line-height:1.25;font-family:'DJB Get Digital';-inkscape-font-specification:'DJB Get Digital Bold';letter-spacing:0px;word-spacing:0px;display:inline;fill:#0000ff;fill-opacity:1;stroke:none;stroke-width:0.75000024"
       d="m 6.0971169,37.996739 0.020695,2.097853 -0.4180797,0.445256 -0.4098017,-0.440978 -0.020695,-2.097851 0.413941,-0.440979 z m -0.020696,-3.236687 v 2.166353 l -0.41808,0.445258 -0.4098005,-0.440974 v -2.166356 l 0.4139407,-0.440977 z" />
    <path
       inkscape:connector-curvature="0"
       id="path842"
       style="font-style:normal;font-variant:normal;font-weight:bold;font-stretch:normal;font-size:medium;line-height:1.25;font-family:'DJB Get Digital';-inkscape-font-specification:'DJB Get Digital Bold';letter-spacing:0px;word-spacing:0px;display:inline;fill:#0000ff;fill-opacity:1;stroke:none;stroke-width:0.75000024"
       d="M 7.785995,39.794898 H 9.4334768 L 9.863975,40.227315 9.437618,40.651166 H 7.7901345 L 7.3637767,40.223032 Z M 7.719777,37.996739 v 1.703967 L 7.3016947,40.145967 6.8918932,39.704993 V 38.001018 L 7.305835,37.56004 Z m 2.599547,-2.778585 v 1.70397 L 9.901246,37.367382 9.4914426,36.926405 V 35.222436 L 9.905381,34.781459 Z m -2.5498719,1.80244 H 9.4169349 L 9.84743,37.453009 9.4210746,37.876861 H 7.7735819 L 7.3472208,37.448728 Z m 0.012419,-2.74433 H 9.4293533 L 9.859848,34.708676 9.4334915,35.132531 H 7.786003 L 7.3596436,34.704394 Z" />
    <path
       inkscape:connector-curvature="0"
       id="path846"
       style="font-style:normal;font-variant:normal;font-weight:bold;font-stretch:normal;font-size:medium;line-height:1.25;font-family:'DJB Get Digital';-inkscape-font-specification:'DJB Get Digital Bold';letter-spacing:0px;word-spacing:0px;display:inline;fill:#0000ff;fill-opacity:1;stroke:none;stroke-width:0.75000024"
       d="m 13.638041,39.794898 h 1.647486 l 0.4305,0.432417 -0.426359,0.423851 h -1.647483 l -0.42636,-0.428134 z m -0.06622,-1.798159 v 1.703967 l -0.418079,0.445261 -0.409806,-0.440974 v -1.703974 l 0.413939,-0.440979 z m 2.599548,-2.778585 v 1.70397 l -0.418081,0.445258 -0.409798,-0.440977 v -1.703969 l 0.413942,-0.440977 z m -2.620244,0.0041 v 1.703969 l -0.418081,0.445336 -0.409798,-0.440975 v -1.703941 l 0.413941,-0.440976 z m 0.08279,-0.946132 h 1.647482 l 0.4305,0.432412 -0.426361,0.423853 h -1.647477 l -0.426355,-0.428092 z m 2.541598,3.720478 v 1.70397 l -0.418083,0.445256 -0.409803,-0.440975 v -1.703984 l 0.413941,-0.440978 z" />
    <path
       inkscape:connector-curvature="0"
       id="path848"
       style="font-style:normal;font-variant:normal;font-weight:bold;font-stretch:normal;font-size:medium;line-height:1.25;font-family:'DJB Get Digital';-inkscape-font-specification:'DJB Get Digital Bold';letter-spacing:0px;word-spacing:0px;display:inline;fill:#0000ff;fill-opacity:1;stroke:none;stroke-width:0.75000024"
       d="m 17.713165,39.794898 h 1.647483 l 0.430502,0.432417 -0.426358,0.423851 h -1.647484 l -0.42636,-0.428134 z m -0.06622,-1.798159 v 1.703967 l -0.41808,0.445261 -0.409804,-0.440974 v -1.703974 l 0.413942,-0.440979 z m -0.0207,-2.774303 v 1.703969 l -0.418086,0.445258 -0.409801,-0.440974 V 35.226716 L 17.2123,34.78574 Z m 0.07038,1.798158 h 1.647483 l 0.430496,0.432415 -0.426359,0.423852 h -1.647468 l -0.426359,-0.428133 z m 0.01242,-2.74433 h 1.647484 l 0.430502,0.432412 -0.42636,0.423855 h -1.647478 l -0.426361,-0.428138 z m 2.541603,3.720475 v 1.703967 l -0.418079,0.445261 -0.409804,-0.440974 v -1.703974 l 0.413941,-0.440979 z" />
    <path
       inkscape:connector-curvature="0"
       id="path852"
       style="font-style:normal;font-variant:normal;font-weight:bold;font-stretch:normal;font-size:medium;line-height:1.25;font-family:'DJB Get Digital';-inkscape-font-specification:'DJB Get Digital Bold';letter-spacing:0px;word-spacing:0px;display:inline;fill:#0000ff;fill-opacity:1;stroke:none;stroke-width:0.75000024"
       d="m 26.474528,34.751489 -0.0084,2.170635 -0.418078,0.445258 -0.409804,-0.440977 0.0084,-2.170634 0.413941,-0.440977 z m -2.620241,0.0041 -0.0084,2.170636 -0.418079,0.445256 -0.409803,-0.440976 0.0084,-2.170634 0.413943,-0.440977 z m 0.0621,2.264826 h 1.647482 l 0.430493,0.432415 -0.426357,0.423851 h -1.647476 l -0.42636,-0.428133 z m 2.554016,0.976143 v 2.192041 l -0.418085,0.4453 -0.409801,-0.440981 v -2.192016 l 0.413945,-0.440979 z" />
    <path
       inkscape:connector-curvature="0"
       id="path854"
       style="font-style:normal;font-variant:normal;font-weight:bold;font-stretch:normal;font-size:medium;line-height:1.25;font-family:'DJB Get Digital';-inkscape-font-specification:'DJB Get Digital Bold';letter-spacing:0px;word-spacing:0px;display:inline;fill:#0000ff;fill-opacity:1;stroke:none;stroke-width:0.75000024"
       d="m 27.982059,39.794898 h 1.647482 l 0.430497,0.432417 -0.426356,0.423851 H 27.986197 L 27.55984,40.223032 Z m -0.06622,-1.798159 v 1.703967 L 27.497757,40.145967 27.08796,39.704993 V 38.001019 L 27.5019,37.56004 Z m 2.599546,-2.778585 v 1.70397 l -0.418081,0.445258 -0.409802,-0.440977 v -1.703969 l 0.413941,-0.440977 z m -2.620243,0.0041 v 1.703969 l -0.418088,0.445276 -0.409797,-0.440975 v -1.703955 l 0.413941,-0.440979 z m 0.07038,1.79816 h 1.647481 l 0.4305,0.432413 -0.426359,0.423852 h -1.647491 l -0.426355,-0.42805 z m 0.01242,-2.744223 h 1.647482 l 0.430495,0.432429 -0.426361,0.423852 h -1.647477 l -0.426356,-0.428109 z m 2.541594,3.720478 v 1.703974 l -0.418076,0.445049 -0.409798,-0.440973 v -1.703924 l 0.413936,-0.440975 z" />
    <path
       d="m 11.501139,35.9359 q 0.186272,0 0.314592,0.141281 0.128322,0.14129 0.128322,0.342509 0,0.201222 -0.128322,0.342509 -0.12832,0.141283 -0.314592,0.141283 -0.182135,0 -0.314594,-0.141283 -0.128328,-0.141287 -0.128328,-0.342509 0,-0.201219 0.128328,-0.342509 0.132459,-0.141281 0.314594,-0.141281 z m 0.08278,2.110696 q 0.186275,0 0.314595,0.141285 0.128325,0.141285 0.128325,0.342505 0,0.201223 -0.128325,0.342509 -0.12832,0.141281 -0.314595,0.141281 -0.182132,0 -0.314595,-0.141281 -0.128318,-0.141286 -0.128318,-0.342509 0,-0.20122 0.128318,-0.342505 0.132463,-0.141285 0.314595,-0.141285 z"
       style="font-style:normal;font-variant:normal;font-weight:bold;font-stretch:normal;font-size:medium;line-height:1.25;font-family:'DJB Get Digital';-inkscape-font-specification:'DJB Get Digital Bold';letter-spacing:0px;word-spacing:0px;fill:#0000ff;fill-opacity:1;stroke:none;stroke-width:0.75000024"
       id="path869"
       inkscape:connector-curvature="0" />
    <path
       d="m 21.46767,35.9359 q 0.186274,0 0.314598,0.141281 0.128327,0.14129 0.128327,0.342509 0,0.201222 -0.128327,0.342509 -0.128324,0.141283 -0.314598,0.141283 -0.182128,0 -0.314589,-0.141283 -0.12832,-0.141287 -0.12832,-0.342509 0,-0.201219 0.12832,-0.342509 Q 21.285542,35.9359 21.46767,35.9359 Z m 0.08279,2.110696 q 0.186272,0 0.314595,0.141285 0.128319,0.141285 0.128319,0.342505 0,0.201223 -0.128319,0.342509 -0.128323,0.141281 -0.314595,0.141281 -0.18214,0 -0.314597,-0.141281 -0.128325,-0.141286 -0.128325,-0.342509 0,-0.20122 0.128325,-0.342505 0.132457,-0.141285 0.314597,-0.141285 z"
       style="font-style:normal;font-variant:normal;font-weight:bold;font-stretch:normal;font-size:medium;line-height:1.25;font-family:'DJB Get Digital';-inkscape-font-specification:'DJB Get Digital Bold';letter-spacing:0px;word-spacing:0px;fill:#0000ff;fill-opacity:1;stroke:none;stroke-width:0.75000024"
       id="path875"
       inkscape:connector-curvature="0" />
  </g>
  <g
     inkscape:groupmode="layer"
     id="layer6"
     inkscape:label="text"
     style="display:inline"
     transform="translate(0,-12)"
     sodipodi:insensitive="true">
    <flowRoot
       xml:space="preserve"
       id="flowRoot914-8"
       style="font-style:normal;font-variant:normal;font-weight:normal;font-stretch:normal;font-size:12px;line-height:1.25;font-family:'Arial Unicode MS';-inkscape-font-specification:'Arial Unicode MS';letter-spacing:0px;word-spacing:0px;clip-rule:evenodd;fill:#c500ab;fill-opacity:1;fill-rule:evenodd;stroke:#ffffff;stroke-width:2.96764684;stroke-linecap:round;stroke-linejoin:round;stroke-miterlimit:4;stroke-dasharray:none;stroke-opacity:1;paint-order:markers stroke fill;image-rendering:optimizeQuality;shape-rendering:geometricPrecision;text-rendering:geometricPrecision"
       transform="matrix(0.69531428,0,0,0.82672154,-1.4999422,11.646973)"><flowRegion
         id="flowRegion916-5"
         style="fill:#c500ab;fill-opacity:1;stroke:#ffffff;stroke-width:2.96764684;stroke-linecap:round;stroke-linejoin:round;stroke-miterlimit:4;stroke-dasharray:none;stroke-opacity:1;paint-order:markers stroke fill"><rect
           id="rect918-0"
           width="38.14209"
           height="34.674625"
           x="3.4674628"
           y="-1.8781176"
           style="fill:#c500ab;fill-opacity:1;stroke:#ffffff;stroke-width:2.96764684;stroke-linecap:round;stroke-linejoin:round;stroke-miterlimit:4;stroke-dasharray:none;stroke-opacity:1;paint-order:markers stroke fill" /></flowRegion><flowPara
         id="flowPara920-2"
         style="font-style:normal;font-variant:normal;font-weight:bold;font-stretch:normal;font-size:21.33333397px;font-family:Arial;-inkscape-font-specification:'Arial Bold';stroke:#ffffff;stroke-width:2.96764684;stroke-linecap:round;stroke-linejoin:round;stroke-miterlimit:4;stroke-dasharray:none;stroke-opacity:1;paint-order:markers stroke fill">Rx</flowPara></flowRoot>  </g>
</svg>
