<?xml version="1.0" encoding="UTF-8" standalone="no"?>
<!-- Created with Inkscape (http://www.inkscape.org/) -->

<svg
   xmlns:dc="http://purl.org/dc/elements/1.1/"
   xmlns:cc="http://creativecommons.org/ns#"
   xmlns:rdf="http://www.w3.org/1999/02/22-rdf-syntax-ns#"
   xmlns:svg="http://www.w3.org/2000/svg"
   xmlns="http://www.w3.org/2000/svg"
   xmlns:xlink="http://www.w3.org/1999/xlink"
   xmlns:sodipodi="http://sodipodi.sourceforge.net/DTD/sodipodi-0.dtd"
   xmlns:inkscape="http://www.inkscape.org/namespaces/inkscape"
   width="48"
   height="48"
   viewBox="0 0 48 48"
   version="1.1"
   id="svg106"
   inkscape:version="0.92.3 (2405546, 2018-03-11)"
   sodipodi:docname="TRxDBProgressBar_200.svg"
   inkscape:export-filename="TRxDBProgressBar_200.png"
   inkscape:export-xdpi="96"
   inkscape:export-ydpi="96">
  <defs
     id="defs100">
    <linearGradient
       inkscape:collect="always"
       xlink:href="#linearGradient914"
       id="linearGradient226"
       gradientUnits="userSpaceOnUse"
       gradientTransform="matrix(2,0,0,2,-36.919643,-1051.5318)"
       x1="3"
       y1="1035.3622"
       x2="12"
       y2="1035.3622" />
    <linearGradient
       inkscape:collect="always"
       id="linearGradient914">
      <stop
         style="stop-color:#4276c4;stop-opacity:1;"
         offset="0"
         id="stop910" />
      <stop
         id="stop916"
         offset="0.34375"
         style="stop-color:#80b3ff;stop-opacity:1" />
      <stop
         style="stop-color:#0044aa;stop-opacity:1"
         offset="1"
         id="stop912" />
    </linearGradient>
    <linearGradient
       gradientTransform="matrix(2,0,0,2,-36.919643,-1057.5318)"
       y2="1035.3622"
       x2="12"
       y1="1035.3622"
       x1="3"
       gradientUnits="userSpaceOnUse"
       id="linearGradient932"
       xlink:href="#linearGradient914"
       inkscape:collect="always" />
    <linearGradient
       y2="1035.3622"
       x2="12"
       y1="1035.3622"
       x1="3"
       gradientTransform="matrix(2,0,0,2,-36.919643,-1063.5316)"
       gradientUnits="userSpaceOnUse"
       id="linearGradient936"
       xlink:href="#linearGradient914"
       inkscape:collect="always" />
    <linearGradient
       inkscape:collect="always"
       xlink:href="#linearGradient914"
       id="linearGradient208"
       gradientUnits="userSpaceOnUse"
       gradientTransform="matrix(2,0,0,2,-36.919643,-1051.5318)"
       x1="3"
       y1="1035.3622"
       x2="12"
       y2="1035.3622" />
    <pattern
       y="0"
       x="0"
       height="6"
       width="6"
       patternUnits="userSpaceOnUse"
       id="EMFhbasepattern" />
    <filter
       inkscape:collect="always"
       style="color-interpolation-filters:sRGB"
       id="filter851"
       x="-0.1043787"
       width="1.2087574"
       y="-0.14112"
       height="1.28224">
      <feGaussianBlur
         inkscape:collect="always"
         stdDeviation="1.1759913"
         id="feGaussianBlur853" />
    </filter>
  </defs>
  <sodipodi:namedview
     id="base"
     pagecolor="#ffffff"
     bordercolor="#666666"
     borderopacity="1.0"
     inkscape:pageopacity="0.0"
     inkscape:pageshadow="2"
     inkscape:zoom="17.104167"
     inkscape:cx="-2.0170519"
     inkscape:cy="24"
     inkscape:document-units="px"
     inkscape:current-layer="layer4"
     showgrid="true"
     units="px"
     inkscape:window-width="1920"
     inkscape:window-height="1018"
     inkscape:window-x="-8"
     inkscape:window-y="-8"
     inkscape:window-maximized="1"
     inkscape:snap-global="true"
     inkscape:snap-bbox="true"
     inkscape:bbox-nodes="true"
     inkscape:snap-nodes="false"
     inkscape:snap-others="false">
    <inkscape:grid
       type="xygrid"
       id="grid108" />
  </sodipodi:namedview>
  <metadata
     id="metadata103">
    <rdf:RDF>
      <cc:Work
         rdf:about="">
        <dc:format>image/svg+xml</dc:format>
        <dc:type
           rdf:resource="http://purl.org/dc/dcmitype/StillImage" />
        <dc:title />
      </cc:Work>
    </rdf:RDF>
  </metadata>
  <g
     inkscape:label="base"
     inkscape:groupmode="layer"
     id="layer1"
     transform="translate(0,-284.29999)"
     sodipodi:insensitive="true">
    <rect
       style="fill:none;fill-rule:evenodd;stroke-width:0.87635607"
       id="rect110"
       width="48"
       height="48"
       x="0"
       y="284.29999" />
  </g>
  <g
     inkscape:groupmode="layer"
     id="layer2"
     inkscape:label="db"
     style="display:inline"
     sodipodi:insensitive="true">
    <g
       style="display:inline"
       id="g899"
       transform="translate(36.919643,-1005.1925)">
      <ellipse
         ry="3"
         rx="10"
         cy="1030.1925"
         cx="-20.919643"
         id="ellipse880"
         style="opacity:1;fill:#bdd1ec;fill-opacity:1;fill-rule:evenodd;stroke:url(#linearGradient208);stroke-width:3.99999976;stroke-linecap:round;stroke-linejoin:round;stroke-miterlimit:4;stroke-dasharray:none;stroke-dashoffset:0;stroke-opacity:1;paint-order:normal" />
      <ellipse
         ry="3.9169633"
         rx="10.988618"
         cy="1026.2755"
         cx="-20.919643"
         id="ellipse878"
         style="opacity:1;fill:#bdd1ec;fill-opacity:1;fill-rule:evenodd;stroke:#ffffff;stroke-width:2;stroke-linecap:round;stroke-linejoin:round;stroke-miterlimit:4;stroke-dasharray:none;stroke-dashoffset:0;stroke-opacity:1;paint-order:normal" />
      <ellipse
         style="opacity:1;fill:#bdd1ec;fill-opacity:1;fill-rule:evenodd;stroke:url(#linearGradient932);stroke-width:3.99999976;stroke-linecap:round;stroke-linejoin:round;stroke-miterlimit:4;stroke-dasharray:none;stroke-dashoffset:0;stroke-opacity:1;paint-order:normal"
         id="ellipse930"
         cx="-20.919643"
         cy="1024.1925"
         rx="10"
         ry="3" />
      <ellipse
         style="opacity:1;fill:#bdd1ec;fill-opacity:1;fill-rule:evenodd;stroke:#ffffff;stroke-width:2;stroke-linecap:round;stroke-linejoin:round;stroke-miterlimit:4;stroke-dasharray:none;stroke-dashoffset:0;stroke-opacity:1;paint-order:normal"
         id="ellipse874"
         cx="-20.919643"
         cy="1020.2756"
         rx="10.988618"
         ry="3.9169633" />
      <ellipse
         ry="3"
         rx="10"
         cy="1018.1926"
         cx="-20.919643"
         id="ellipse934"
         style="opacity:1;fill:#bdd1ec;fill-opacity:1;fill-rule:evenodd;stroke:url(#linearGradient936);stroke-width:3.99999976;stroke-linecap:round;stroke-linejoin:round;stroke-miterlimit:4;stroke-dasharray:none;stroke-dashoffset:0;stroke-opacity:1;paint-order:normal" />
      <ellipse
         ry="3.9169633"
         rx="10.988618"
         cy="1014.2756"
         cx="-20.919643"
         id="ellipse858"
         style="opacity:1;fill:#bdd1ec;fill-opacity:1;fill-rule:evenodd;stroke:#ffffff;stroke-width:2;stroke-linecap:round;stroke-linejoin:round;stroke-miterlimit:4;stroke-dasharray:none;stroke-dashoffset:0;stroke-opacity:1;paint-order:normal" />
      <ellipse
         style="opacity:1;fill:#80b3ff;fill-opacity:1;fill-rule:evenodd;stroke:url(#linearGradient226);stroke-width:1.99999988;stroke-linecap:round;stroke-linejoin:round;stroke-miterlimit:4;stroke-dasharray:none;stroke-dashoffset:0;stroke-opacity:1;paint-order:normal"
         id="ellipse868"
         cx="-20.919643"
         cy="1012.1926"
         rx="11"
         ry="4" />
    </g>
  </g>
  <g
     inkscape:groupmode="layer"
     id="layer3"
     inkscape:label="progressbar"
     style="display:inline"
     sodipodi:insensitive="true">
    <path
       style="color:#000000;font-style:normal;font-variant:normal;font-weight:normal;font-stretch:normal;font-size:medium;line-height:normal;font-family:sans-serif;font-variant-ligatures:normal;font-variant-position:normal;font-variant-caps:normal;font-variant-numeric:normal;font-variant-alternates:normal;font-feature-settings:normal;text-indent:0;text-align:start;text-decoration:none;text-decoration-line:none;text-decoration-style:solid;text-decoration-color:#000000;letter-spacing:normal;word-spacing:normal;text-transform:none;writing-mode:lr-tb;direction:ltr;text-orientation:mixed;dominant-baseline:auto;baseline-shift:baseline;text-anchor:start;white-space:normal;shape-padding:0;clip-rule:nonzero;display:inline;overflow:visible;visibility:visible;opacity:1;isolation:auto;mix-blend-mode:normal;color-interpolation:sRGB;color-interpolation-filters:linearRGB;solid-color:#000000;solid-opacity:1;vector-effect:none;fill:#4d4d4d;fill-opacity:1;fill-rule:nonzero;stroke:none;stroke-width:2.00921869;stroke-linecap:round;stroke-linejoin:round;stroke-miterlimit:4;stroke-dasharray:none;stroke-dashoffset:0;stroke-opacity:1;paint-order:normal;color-rendering:auto;image-rendering:auto;shape-rendering:auto;text-rendering:auto;enable-background:accumulate"
       d="m 13,26 a 1.0001,1.0093408 0 0 0 -1,1.00924 V 40.99076 A 1.0001,1.0093408 0 0 0 13,42 h 30 a 1.0001,1.0093408 0 0 0 1,-1.00924 V 27.00924 A 1.0001,1.0093408 0 0 0 43,26 Z"
       id="path846"
       inkscape:connector-curvature="0" />
    <path
       style="color:#000000;font-style:normal;font-variant:normal;font-weight:normal;font-stretch:normal;font-size:medium;line-height:normal;font-family:sans-serif;font-variant-ligatures:normal;font-variant-position:normal;font-variant-caps:normal;font-variant-numeric:normal;font-variant-alternates:normal;font-feature-settings:normal;text-indent:0;text-align:start;text-decoration:none;text-decoration-line:none;text-decoration-style:solid;text-decoration-color:#000000;letter-spacing:normal;word-spacing:normal;text-transform:none;writing-mode:lr-tb;direction:ltr;text-orientation:mixed;dominant-baseline:auto;baseline-shift:baseline;text-anchor:start;white-space:normal;shape-padding:0;clip-rule:nonzero;display:inline;overflow:visible;visibility:visible;opacity:1;isolation:auto;mix-blend-mode:normal;color-interpolation:sRGB;color-interpolation-filters:linearRGB;solid-color:#000000;solid-opacity:1;vector-effect:none;fill:#e6e6e6;fill-opacity:1;fill-rule:nonzero;stroke:none;stroke-width:2.01232004;stroke-linecap:round;stroke-linejoin:round;stroke-miterlimit:4;stroke-dasharray:none;stroke-dashoffset:0;stroke-opacity:1;paint-order:normal;color-rendering:auto;image-rendering:auto;shape-rendering:auto;text-rendering:auto;enable-background:accumulate"
       d="M 14,28 H 42 V 40 H 14 Z"
       id="rect842"
       inkscape:connector-curvature="0" />
    <path
       style="color:#000000;font-style:normal;font-variant:normal;font-weight:normal;font-stretch:normal;font-size:medium;line-height:normal;font-family:sans-serif;font-variant-ligatures:normal;font-variant-position:normal;font-variant-caps:normal;font-variant-numeric:normal;font-variant-alternates:normal;font-feature-settings:normal;text-indent:0;text-align:start;text-decoration:none;text-decoration-line:none;text-decoration-style:solid;text-decoration-color:#000000;letter-spacing:normal;word-spacing:normal;text-transform:none;writing-mode:lr-tb;direction:ltr;text-orientation:mixed;dominant-baseline:auto;baseline-shift:baseline;text-anchor:start;white-space:normal;shape-padding:0;clip-rule:nonzero;display:inline;overflow:visible;visibility:visible;opacity:1;isolation:auto;mix-blend-mode:normal;color-interpolation:sRGB;color-interpolation-filters:linearRGB;solid-color:#000000;solid-opacity:1;vector-effect:none;fill:#3771c8;fill-opacity:1;fill-rule:nonzero;stroke:none;stroke-width:0;stroke-linecap:round;stroke-linejoin:round;stroke-miterlimit:4;stroke-dasharray:none;stroke-dashoffset:0;stroke-opacity:1;paint-order:normal;color-rendering:auto;image-rendering:auto;shape-rendering:auto;text-rendering:auto;enable-background:accumulate"
       d="m 23.012,30.000003 a 0.01572861,0.01595293 0 0 0 -0.002,0.002 0.01572861,0.01595293 0 0 0 -0.002,0 0.01572861,0.01595293 0 0 0 -0.002,0.002 0.01572861,0.01595293 0 0 0 0,0.002 0.01572861,0.01595293 0 0 0 -0.002,0 0.01572861,0.01595293 0 0 0 0,0.002 0.01572861,0.01595293 0 0 0 -0.002,0.002 0.01572861,0.01595293 0 0 0 0,0.002 0.01572861,0.01595293 0 0 0 0,0.002 0.01572861,0.01595293 0 0 0 -0.002,0.002 v 7.967879 a 0.01572861,0.01595293 0 0 0 0.002,0.002 0.01572861,0.01595293 0 0 0 0,0.002 0.01572861,0.01595293 0 0 0 0,0.002 0.01572861,0.01595293 0 0 0 0,0.002 0.01572861,0.01595293 0 0 0 0.002,0 0.01572861,0.01595293 0 0 0 0,0.002 0.01572861,0.01595293 0 0 0 0.002,0.002 0.01572861,0.01595293 0 0 0 0.002,0 0.01572861,0.01595293 0 0 0 0,0.002 0.01572861,0.01595293 0 0 0 0.002,0 0.01572861,0.01595293 0 0 0 0.002,0 0.01572861,0.01595293 0 0 0 0,0.002 0.01572861,0.01595293 0 0 0 0.002,0 0.01572861,0.01595293 0 0 0 0.002,0 0.01572861,0.01595293 0 0 0 0.002,0 h 4.966532 a 0.01572861,0.01595293 0 0 0 0.002,0 0.01572861,0.01595293 0 0 0 0.002,-0.002 0.01572861,0.01595293 0 0 0 0.002,0 0.01572861,0.01595293 0 0 0 0.002,-0.002 0.01572861,0.01595293 0 0 0 0.002,0 0.01572861,0.01595293 0 0 0 0,-0.002 0.01572861,0.01595293 0 0 0 0.002,0 0.01572861,0.01595293 0 0 0 0,-0.002 0.01572861,0.01595293 0 0 0 0.002,-0.002 0.01572861,0.01595293 0 0 0 0,-0.002 0.01572861,0.01595293 0 0 0 0.002,-0.002 0.01572861,0.01595293 0 0 0 0,-0.002 v -7.96785 a 0.01572861,0.01595293 0 0 0 0,-0.002 0.01572861,0.01595293 0 0 0 -0.002,-0.002 0.01572861,0.01595293 0 0 0 0,-0.002 0.01572861,0.01595293 0 0 0 0,-0.002 0.01572861,0.01595293 0 0 0 -0.002,0 0.01572861,0.01595293 0 0 0 0,-0.002 0.01572861,0.01595293 0 0 0 -0.002,-0.002 0.01572861,0.01595293 0 0 0 -0.002,-0.002 0.01572861,0.01595293 0 0 0 -0.002,0 0.01572861,0.01595293 0 0 0 -0.002,0 0.01572861,0.01595293 0 0 0 0,-0.002 0.01572861,0.01595293 0 0 0 -0.002,0 0.01572861,0.01595293 0 0 0 -0.002,0 H 23.018 a 0.01572861,0.01595293 0 0 0 -0.002,0 0.01572861,0.01595293 0 0 0 -0.002,0 0.01572861,0.01595293 0 0 0 -0.002,0 z"
       id="path852-6"
       inkscape:connector-curvature="0" />
    <path
       style="color:#000000;font-style:normal;font-variant:normal;font-weight:normal;font-stretch:normal;font-size:medium;line-height:normal;font-family:sans-serif;font-variant-ligatures:normal;font-variant-position:normal;font-variant-caps:normal;font-variant-numeric:normal;font-variant-alternates:normal;font-feature-settings:normal;text-indent:0;text-align:start;text-decoration:none;text-decoration-line:none;text-decoration-style:solid;text-decoration-color:#000000;letter-spacing:normal;word-spacing:normal;text-transform:none;writing-mode:lr-tb;direction:ltr;text-orientation:mixed;dominant-baseline:auto;baseline-shift:baseline;text-anchor:start;white-space:normal;shape-padding:0;clip-rule:nonzero;display:inline;overflow:visible;visibility:visible;opacity:1;isolation:auto;mix-blend-mode:normal;color-interpolation:sRGB;color-interpolation-filters:linearRGB;solid-color:#000000;solid-opacity:1;vector-effect:none;fill:#3771c8;fill-opacity:1;fill-rule:nonzero;stroke:none;stroke-width:0;stroke-linecap:round;stroke-linejoin:round;stroke-miterlimit:4;stroke-dasharray:none;stroke-dashoffset:0;stroke-opacity:1;paint-order:normal;color-rendering:auto;image-rendering:auto;shape-rendering:auto;text-rendering:auto;enable-background:accumulate"
       d="m 30.011437,30.000003 a 0.01572861,0.01595293 0 0 0 -0.002,0.002 0.01572861,0.01595293 0 0 0 -0.002,0 0.01572861,0.01595293 0 0 0 -0.002,0.002 0.01572861,0.01595293 0 0 0 0,0.002 0.01572861,0.01595293 0 0 0 -0.002,0 0.01572861,0.01595293 0 0 0 0,0.002 0.01572861,0.01595293 0 0 0 -0.002,0.002 0.01572861,0.01595293 0 0 0 0,0.002 0.01572861,0.01595293 0 0 0 0,0.002 0.01572861,0.01595293 0 0 0 -0.002,0.002 v 7.967879 a 0.01572861,0.01595293 0 0 0 0.002,0.002 0.01572861,0.01595293 0 0 0 0,0.002 0.01572861,0.01595293 0 0 0 0,0.002 0.01572861,0.01595293 0 0 0 0,0.002 0.01572861,0.01595293 0 0 0 0.002,0 0.01572861,0.01595293 0 0 0 0,0.002 0.01572861,0.01595293 0 0 0 0.002,0.002 0.01572861,0.01595293 0 0 0 0.002,0 0.01572861,0.01595293 0 0 0 0,0.002 0.01572861,0.01595293 0 0 0 0.002,0 0.01572861,0.01595293 0 0 0 0.002,0 0.01572861,0.01595293 0 0 0 0,0.002 0.01572861,0.01595293 0 0 0 0.002,0 0.01572861,0.01595293 0 0 0 0.002,0 0.01572861,0.01595293 0 0 0 0.002,0 h 4.966532 a 0.01572861,0.01595293 0 0 0 0.002,0 0.01572861,0.01595293 0 0 0 0.002,-0.002 0.01572861,0.01595293 0 0 0 0.002,0 0.01572861,0.01595293 0 0 0 0.002,-0.002 0.01572861,0.01595293 0 0 0 0.002,0 0.01572861,0.01595293 0 0 0 0,-0.002 0.01572861,0.01595293 0 0 0 0.002,0 0.01572861,0.01595293 0 0 0 0,-0.002 0.01572861,0.01595293 0 0 0 0.002,-0.002 0.01572861,0.01595293 0 0 0 0,-0.002 0.01572861,0.01595293 0 0 0 0.002,-0.002 0.01572861,0.01595293 0 0 0 0,-0.002 v -7.96785 a 0.01572861,0.01595293 0 0 0 0,-0.002 0.01572861,0.01595293 0 0 0 -0.002,-0.002 0.01572861,0.01595293 0 0 0 0,-0.002 0.01572861,0.01595293 0 0 0 0,-0.002 0.01572861,0.01595293 0 0 0 -0.002,0 0.01572861,0.01595293 0 0 0 0,-0.002 0.01572861,0.01595293 0 0 0 -0.002,-0.002 0.01572861,0.01595293 0 0 0 -0.002,-0.002 0.01572861,0.01595293 0 0 0 -0.002,0 0.01572861,0.01595293 0 0 0 -0.002,0 0.01572861,0.01595293 0 0 0 0,-0.002 0.01572861,0.01595293 0 0 0 -0.002,0 0.01572861,0.01595293 0 0 0 -0.002,0 h -4.966532 a 0.01572861,0.01595293 0 0 0 -0.002,0 0.01572861,0.01595293 0 0 0 -0.002,0 0.01572861,0.01595293 0 0 0 -0.002,0 z"
       id="path852-5"
       inkscape:connector-curvature="0" />
  </g>
  <g
     inkscape:groupmode="layer"
     id="layer5"
     inkscape:label="progressbar_bands"
     style="display:inline"
     sodipodi:insensitive="true">
    <path
       style="color:#000000;font-style:normal;font-variant:normal;font-weight:normal;font-stretch:normal;font-size:medium;line-height:normal;font-family:sans-serif;font-variant-ligatures:normal;font-variant-position:normal;font-variant-caps:normal;font-variant-numeric:normal;font-variant-alternates:normal;font-feature-settings:normal;text-indent:0;text-align:start;text-decoration:none;text-decoration-line:none;text-decoration-style:solid;text-decoration-color:#000000;letter-spacing:normal;word-spacing:normal;text-transform:none;writing-mode:lr-tb;direction:ltr;text-orientation:mixed;dominant-baseline:auto;baseline-shift:baseline;text-anchor:start;white-space:normal;shape-padding:0;clip-rule:nonzero;display:inline;overflow:visible;visibility:visible;opacity:1;isolation:auto;mix-blend-mode:normal;color-interpolation:sRGB;color-interpolation-filters:linearRGB;solid-color:#000000;solid-opacity:1;vector-effect:none;fill:#3771c8;fill-opacity:1;fill-rule:nonzero;stroke:none;stroke-width:0;stroke-linecap:round;stroke-linejoin:round;stroke-miterlimit:4;stroke-dasharray:none;stroke-dashoffset:0;stroke-opacity:1;paint-order:normal;color-rendering:auto;image-rendering:auto;shape-rendering:auto;text-rendering:auto;enable-background:accumulate"
       d="m 16.011795,30.000031 a 0.01572861,0.01595293 0 0 0 -0.002,0.002 0.01572861,0.01595293 0 0 0 -0.002,0 0.01572861,0.01595293 0 0 0 -0.002,0.002 0.01572861,0.01595293 0 0 0 0,0.002 0.01572861,0.01595293 0 0 0 -0.002,0 0.01572861,0.01595293 0 0 0 0,0.002 0.01572861,0.01595293 0 0 0 -0.002,0.002 0.01572861,0.01595293 0 0 0 0,0.002 0.01572861,0.01595293 0 0 0 0,0.002 0.01572861,0.01595293 0 0 0 -0.002,0.002 v 7.967879 a 0.01572861,0.01595293 0 0 0 0.002,0.002 0.01572861,0.01595293 0 0 0 0,0.002 0.01572861,0.01595293 0 0 0 0,0.002 0.01572861,0.01595293 0 0 0 0,0.002 0.01572861,0.01595293 0 0 0 0.002,0 0.01572861,0.01595293 0 0 0 0,0.002 0.01572861,0.01595293 0 0 0 0.002,0.002 0.01572861,0.01595293 0 0 0 0.002,0 0.01572861,0.01595293 0 0 0 0,0.002 0.01572861,0.01595293 0 0 0 0.002,0 0.01572861,0.01595293 0 0 0 0.002,0 0.01572861,0.01595293 0 0 0 0,0.002 0.01572861,0.01595293 0 0 0 0.002,0 0.01572861,0.01595293 0 0 0 0.002,0 0.01572861,0.01595293 0 0 0 0.002,0 h 4.966532 a 0.01572861,0.01595293 0 0 0 0.002,0 0.01572861,0.01595293 0 0 0 0.002,-0.002 0.01572861,0.01595293 0 0 0 0.002,0 0.01572861,0.01595293 0 0 0 0.002,-0.002 0.01572861,0.01595293 0 0 0 0.002,0 0.01572861,0.01595293 0 0 0 0,-0.002 0.01572861,0.01595293 0 0 0 0.002,0 0.01572861,0.01595293 0 0 0 0,-0.002 0.01572861,0.01595293 0 0 0 0.002,-0.002 0.01572861,0.01595293 0 0 0 0,-0.002 0.01572861,0.01595293 0 0 0 0.002,-0.002 0.01572861,0.01595293 0 0 0 0,-0.002 v -7.96785 a 0.01572861,0.01595293 0 0 0 0,-0.002 0.01572861,0.01595293 0 0 0 -0.002,-0.002 0.01572861,0.01595293 0 0 0 0,-0.002 0.01572861,0.01595293 0 0 0 0,-0.002 0.01572861,0.01595293 0 0 0 -0.002,0 0.01572861,0.01595293 0 0 0 0,-0.002 0.01572861,0.01595293 0 0 0 -0.002,-0.002 0.01572861,0.01595293 0 0 0 -0.002,-0.002 0.01572861,0.01595293 0 0 0 -0.002,0 0.01572861,0.01595293 0 0 0 -0.002,0 0.01572861,0.01595293 0 0 0 0,-0.002 0.01572861,0.01595293 0 0 0 -0.002,0 0.01572861,0.01595293 0 0 0 -0.002,0 h -4.966532 a 0.01572861,0.01595293 0 0 0 -0.002,0 0.01572861,0.01595293 0 0 0 -0.002,0 0.01572861,0.01595293 0 0 0 -0.002,0 z"
       id="path852"
       inkscape:connector-curvature="0" />
  </g>
  <g
     inkscape:groupmode="layer"
     id="layer7"
     inkscape:label="text"
     style="display:none"
     sodipodi:insensitive="true">
    <flowRoot
       xml:space="preserve"
       id="flowRoot914"
       style="font-style:normal;font-variant:normal;font-weight:normal;font-stretch:normal;font-size:12px;line-height:1.25;font-family:'Arial Unicode MS';-inkscape-font-specification:'Arial Unicode MS';letter-spacing:0px;word-spacing:0px;fill:#c500ab;fill-opacity:1;stroke:#ffffff;stroke-width:2.96764684;stroke-linecap:round;stroke-linejoin:round;stroke-miterlimit:4;stroke-dasharray:none;stroke-opacity:1;paint-order:markers stroke fill"
       transform="matrix(0.92708571,0,0,1.1022954,-1.6745896,-0.28086162)"><flowRegion
         id="flowRegion916"
         style="fill:#c500ab;fill-opacity:1;stroke:#ffffff;stroke-width:2.96764684;stroke-linecap:round;stroke-linejoin:round;stroke-miterlimit:4;stroke-dasharray:none;stroke-opacity:1;paint-order:markers stroke fill"><rect
           id="rect918"
           width="38.14209"
           height="34.674625"
           x="3.4674628"
           y="-1.8781176"
           style="fill:#c500ab;fill-opacity:1;stroke:#ffffff;stroke-width:2.96764684;stroke-linecap:round;stroke-linejoin:round;stroke-miterlimit:4;stroke-dasharray:none;stroke-opacity:1;paint-order:markers stroke fill" /></flowRegion><flowPara
         id="flowPara920"
         style="font-style:normal;font-variant:normal;font-weight:bold;font-stretch:normal;font-size:21.33333397px;font-family:Arial;-inkscape-font-specification:'Arial Bold';stroke:#ffffff;stroke-width:2.96764684;stroke-linecap:round;stroke-linejoin:round;stroke-miterlimit:4;stroke-dasharray:none;stroke-opacity:1;paint-order:markers stroke fill">Rx</flowPara></flowRoot>  </g>
  <g
     inkscape:groupmode="layer"
     id="layer4"
     inkscape:label="text_new">
    <path
       id="path847"
       d="M 3.9999852,1 H 27.039815 C 28.079807,1 29.0398,1.8799935 29.0398,2.9999852 V 18.999867 c 0,1.119991 -0.959993,1.999985 -1.999985,1.999985 H 3.9999852 C 2.8799935,20.999852 2,20.119858 2,18.999867 V 2.9999852 C 2,1.8799935 2.8799935,1 3.9999852,1 Z"
       style="fill:#ffffff;fill-opacity:1;fill-rule:evenodd;stroke:none;opacity:0.7;filter:url(#filter851)"
       inkscape:connector-curvature="0" />
    <path
       id="path849"
       d="M 24.239835,6.9999556 17.039889,18.999867 h 3.439974 L 27.759809,6.9999556 Z"
       style="fill:#c500ab;fill-opacity:1;fill-rule:nonzero;stroke:none"
       inkscape:connector-curvature="0" />
    <path
       id="path851"
       d="M 20.479863,6.9999556 27.759809,18.999867 H 24.239835 L 17.039889,6.9999556 Z"
       style="fill:#c500ab;fill-opacity:1;fill-rule:nonzero;stroke:none"
       inkscape:connector-curvature="0" />
    <path
       id="path853"
       d="M 3.0399923,2.0399923 V 4.9999704 H 10.07994 c 1.119992,0 1.919986,0.4799964 1.919986,1.1199917 v 0.7199946 c 0,0.6399953 -0.799994,1.1999912 -1.919986,1.1999912 H 3.0399923 v 2.9599781 h 7.9199417 c 2.239983,0 4.079969,-1.759987 4.079969,-3.919971 V 5.8799639 c 0,-2.159984 -1.839986,-3.8399716 -4.079969,-3.8399716 z"
       style="fill:#c500ab;fill-opacity:1;fill-rule:evenodd;stroke:none"
       inkscape:connector-curvature="0" />
    <path
       id="path855"
       d="M 3.0399923,2.0399923 V 18.999867 H 5.9999704 V 2.0399923 Z"
       style="fill:#c500ab;fill-opacity:1;fill-rule:nonzero;stroke:none"
       inkscape:connector-curvature="0" />
    <path
       id="path857"
       d="m 7.6799579,9.7999348 4.9599631,9.1999322 h 3.359975 L 10.319938,8.4399449 Z"
       style="fill:#c500ab;fill-opacity:1;fill-rule:nonzero;stroke:none"
       inkscape:connector-curvature="0" />
  </g>
</svg>
