<?xml version="1.0" encoding="UTF-8" standalone="no"?>
<!-- Created with Inkscape (http://www.inkscape.org/) -->

<svg
   xmlns:dc="http://purl.org/dc/elements/1.1/"
   xmlns:cc="http://creativecommons.org/ns#"
   xmlns:rdf="http://www.w3.org/1999/02/22-rdf-syntax-ns#"
   xmlns:svg="http://www.w3.org/2000/svg"
   xmlns="http://www.w3.org/2000/svg"
   xmlns:sodipodi="http://sodipodi.sourceforge.net/DTD/sodipodi-0.dtd"
   xmlns:inkscape="http://www.inkscape.org/namespaces/inkscape"
   width="16"
   height="16"
   id="svg2"
   sodipodi:version="0.32"
   inkscape:version="0.92.3 (2405546, 2018-03-11)"
   version="1.0"
   sodipodi:docname="ce_finalization.svg"
   inkscape:output_extension="org.inkscape.output.svg.inkscape"
   inkscape:export-filename="ce_finalization.png"
   inkscape:export-xdpi="96"
   inkscape:export-ydpi="96">
  <defs
     id="defs4" />
  <sodipodi:namedview
     id="base"
     pagecolor="#ffffff"
     bordercolor="#666666"
     borderopacity="1.0"
     inkscape:pageopacity="0.0"
     inkscape:pageshadow="2"
     inkscape:zoom="41.600445"
     inkscape:cx="8.3321338"
     inkscape:cy="7.1158342"
     inkscape:document-units="px"
     inkscape:current-layer="layer1"
     showgrid="true"
     objecttolerance="10"
     gridtolerance="10"
     guidetolerance="10"
     showguides="true"
     inkscape:guide-bbox="true"
     inkscape:window-width="1920"
     inkscape:window-height="1137"
     inkscape:window-x="-8"
     inkscape:window-y="-8"
     inkscape:snap-bbox="true"
     inkscape:bbox-paths="true"
     inkscape:bbox-nodes="true"
     inkscape:snap-bbox-edge-midpoints="true"
     inkscape:snap-bbox-midpoints="true"
     inkscape:object-paths="true"
     inkscape:snap-intersection-paths="true"
     inkscape:object-nodes="true"
     inkscape:snap-smooth-nodes="true"
     inkscape:snap-midpoints="true"
     inkscape:snap-object-midpoints="true"
     inkscape:snap-center="true"
     inkscape:window-maximized="1"
     inkscape:snap-grids="true">
    <inkscape:grid
       type="xygrid"
       id="grid2409"
       visible="true"
       enabled="true"
       spacingx="0.5"
       spacingy="0.5"
       empspacing="2"
       snapvisiblegridlinesonly="true"
       originx="0"
       originy="0" />
  </sodipodi:namedview>
  <metadata
     id="metadata7">
    <rdf:RDF>
      <cc:Work
         rdf:about="">
        <dc:format>image/svg+xml</dc:format>
        <dc:type
           rdf:resource="http://purl.org/dc/dcmitype/StillImage" />
        <dc:title />
      </cc:Work>
    </rdf:RDF>
  </metadata>
  <g
     inkscape:label="Ebene 1"
     inkscape:groupmode="layer"
     id="layer1">
    <g
       id="g1323">
      <g
         id="g1307">
        <path
           sodipodi:nodetypes="cssccsscc"
           inkscape:connector-curvature="0"
           id="path1220"
           d="M 15.857458,4.3955573 C 15.290093,3.385865 14.453771,2.782347 13.174297,2.6305693 12.258119,2.5218874 10.263049,2.8303667 9.1628386,2.5336013 7.9626391,2.2098655 7.4222789,1.648318 7.0399041,0.84304159 L 4.2709004,8.0543436 c 0.3823748,0.8052764 0.922735,1.3668238 2.1229345,1.6905596 1.1002104,0.2967658 3.09528,-0.011714 4.0114581,0.096968 1.279475,0.1517777 2.115796,0.7552968 2.683162,1.7649888 z"
           style="fill:#ffffff;fill-rule:evenodd;stroke:#808080;stroke-width:0.25;stroke-linecap:butt;stroke-linejoin:miter;stroke-miterlimit:4;stroke-dasharray:none;stroke-opacity:1" />
        <g
           id="g1293"
           transform="translate(0,-0.10006649)">
          <path
             inkscape:connector-curvature="0"
             id="path1222"
             d="M 9.320075,4.5137797 C 8.8289741,4.485469 8.4784695,4.4155056 8.0626105,4.2627788 7.95152,4.2219805 7.8601882,4.1847274 7.8596517,4.1799953 7.8587892,4.172388 8.5090694,2.4740176 8.5165998,2.4642096 c 0.00165,-0.00215 0.082242,0.026215 0.1790993,0.063023 0.4472595,0.1699697 0.8252222,0.2439159 1.3851489,0.2709976 0.118248,0.00572 0.216744,0.01227 0.218881,0.014558 0.0021,0.00229 -0.143527,0.3874417 -0.3236962,0.8558985 -0.3013333,0.7834976 -0.3310007,0.852035 -0.3702711,0.8554205 -0.023478,0.00204 -0.1520391,-0.00262 -0.2856867,-0.010328 z"
             style="opacity:1;fill:#000000;fill-opacity:1;fill-rule:evenodd;stroke:none;stroke-width:0.10280162;stroke-linecap:butt;stroke-linejoin:round;stroke-miterlimit:4;stroke-dasharray:none;stroke-dashoffset:0;stroke-opacity:1;paint-order:normal" />
          <path
             inkscape:connector-curvature="0"
             id="path1224"
             d="m 13.3427,4.6881604 c -0.377311,-0.1354203 -0.806122,-0.2083777 -1.275842,-0.21707 -0.146591,-0.00271 -0.268871,-0.0068 -0.271735,-0.00908 -0.0029,-0.00228 0.141105,-0.3851806 0.319928,-0.8508894 l 0.325135,-0.8467439 0.115804,-0.00912 c 0.293789,-0.023144 0.785944,0.025015 1.135945,0.1111549 0.203374,0.050053 0.543741,0.1691676 0.546347,0.1911996 0.0037,0.03103 -0.649217,1.7059093 -0.6652,1.7064703 -0.0094,3.33e-4 -0.113118,-0.033832 -0.230381,-0.07592 z"
             style="opacity:1;fill:#000000;fill-opacity:1;fill-rule:evenodd;stroke:none;stroke-width:0.10280162;stroke-linecap:butt;stroke-linejoin:round;stroke-miterlimit:4;stroke-dasharray:none;stroke-dashoffset:0;stroke-opacity:1;paint-order:normal" />
          <path
             inkscape:connector-curvature="0"
             id="path1226"
             d="M 6.9941239,5.9059675 C 6.6944906,5.7609889 6.357593,5.5001531 6.146622,5.2498067 6.0162545,5.0951068 5.8244321,4.8032062 5.7431842,4.6358845 l -0.043649,-0.08989 0.3209813,-0.832608 c 0.17654,-0.4579342 0.3246516,-0.8371422 0.3291375,-0.8426852 0.00448,-0.00554 0.053855,0.071693 0.1097092,0.1716356 0.1616187,0.2891913 0.3797018,0.5569382 0.6237675,0.7658182 0.1240142,0.1061359 0.4071002,0.290475 0.5648828,0.3678387 0.052694,0.025837 0.096052,0.049133 0.096351,0.051771 4.27e-4,0.00377 -0.6135618,1.6072504 -0.6506567,1.6992471 -0.00672,0.016675 -0.033184,0.011083 -0.099584,-0.021044 z"
             style="opacity:1;fill:#000000;fill-opacity:1;fill-rule:evenodd;stroke:none;stroke-width:0.10280162;stroke-linecap:butt;stroke-linejoin:round;stroke-miterlimit:4;stroke-dasharray:none;stroke-dashoffset:0;stroke-opacity:1;paint-order:normal" />
          <path
             inkscape:connector-curvature="0"
             id="path1228"
             d="m 10.959602,6.2751501 c -0.01435,-0.00111 -0.304148,0.00935 -0.643992,0.023238 -0.6355768,0.025981 -1.2419878,0.038622 -1.2575695,0.026213 -0.00485,-0.00386 0.1375829,-0.3874071 0.3165183,-0.8523223 l 0.325336,-0.8453011 0.091387,-0.00895 c 0.050262,-0.00493 0.2269112,-0.011305 0.3925522,-0.014177 0.165642,-0.00287 0.563509,-0.015328 0.884148,-0.027678 0.320639,-0.012351 0.584803,-0.021003 0.587033,-0.019229 0.0062,0.00494 -0.643678,1.6931441 -0.65734,1.7075795 -0.0066,0.00696 -0.02372,0.011745 -0.03807,0.010635 z"
             style="opacity:1;fill:#000000;fill-opacity:1;fill-rule:evenodd;stroke:none;stroke-width:0.10280162;stroke-linecap:butt;stroke-linejoin:round;stroke-miterlimit:4;stroke-dasharray:none;stroke-dashoffset:0;stroke-opacity:1;paint-order:normal" />
          <path
             inkscape:connector-curvature="0"
             id="path1230"
             d="M 14.379124,7.8683839 C 14.078855,7.3840388 13.613021,6.9425074 13.151042,6.7043675 c -0.093,-0.047941 -0.168335,-0.096406 -0.167401,-0.1076988 9.33e-4,-0.011293 0.148272,-0.401709 0.327419,-0.867591 l 0.325723,-0.8470575 0.156716,0.083322 c 0.476545,0.2533649 0.884226,0.6379319 1.201963,1.133814 l 0.125627,0.1960626 -0.323828,0.8476125 c -0.178105,0.4661874 -0.327638,0.848232 -0.332294,0.848989 -0.0047,7.347e-4 -0.04328,-0.05479 -0.08584,-0.1234364 z"
             style="opacity:1;fill:#000000;fill-opacity:1;fill-rule:evenodd;stroke:none;stroke-width:0.10280162;stroke-linecap:butt;stroke-linejoin:round;stroke-miterlimit:4;stroke-dasharray:none;stroke-dashoffset:0;stroke-opacity:1;paint-order:normal" />
          <path
             inkscape:connector-curvature="0"
             id="path1232"
             d="M 11.958199,8.2938114 C 11.580887,8.1583911 11.152076,8.0854336 10.682356,8.0767413 c -0.146591,-0.00271 -0.268871,-0.0068 -0.271735,-0.00908 -0.0029,-0.00228 0.140857,-0.3851525 0.319378,-0.850827 0.258238,-0.673618 0.331826,-0.8486573 0.360013,-0.8563447 0.04999,-0.013632 0.44071,-0.00621 0.647992,0.012307 0.257744,0.023028 0.675924,0.1153465 0.909939,0.2008806 0.11328,0.041405 0.206311,0.08167 0.206734,0.08948 0.0019,0.034222 -0.650673,1.7060311 -0.666097,1.706572 -0.0094,3.33e-4 -0.113118,-0.033832 -0.230381,-0.07592 z"
             style="opacity:1;fill:#000000;fill-opacity:1;fill-rule:evenodd;stroke:none;stroke-width:0.10280162;stroke-linecap:butt;stroke-linejoin:round;stroke-miterlimit:4;stroke-dasharray:none;stroke-dashoffset:0;stroke-opacity:1;paint-order:normal" />
          <path
             inkscape:connector-curvature="0"
             id="path1234"
             d="M 7.9355732,8.1194307 C 7.4444722,8.09112 7.0939676,8.0211565 6.6781086,7.8684298 6.5670182,7.8276314 6.4756864,7.7903784 6.4751498,7.7856463 6.4742642,7.7778354 7.1246877,6.0794935 7.132398,6.0694838 c 0.00181,-0.00235 0.096465,0.029901 0.2103402,0.071674 0.4374819,0.1604805 0.8055204,0.2325626 1.316925,0.2579277 0.1364256,0.00677 0.2506118,0.014825 0.2537471,0.017907 0.00314,0.00308 -0.14171,0.3888883 -0.3218792,0.8573451 -0.3013335,0.7834977 -0.3310008,0.8520351 -0.3702712,0.8554206 -0.023478,0.00204 -0.1520392,-0.00262 -0.2856867,-0.010327 z"
             style="opacity:1;fill:#000000;fill-opacity:1;fill-rule:evenodd;stroke:none;stroke-width:0.10280162;stroke-linecap:butt;stroke-linejoin:round;stroke-miterlimit:4;stroke-dasharray:none;stroke-dashoffset:0;stroke-opacity:1;paint-order:normal" />
          <path
             inkscape:connector-curvature="0"
             id="path1236"
             d="M 5.5175375,9.4597994 C 5.3144187,9.353474 4.9701866,9.090406 4.8293609,8.9338832 4.6536459,8.7385809 4.5060218,8.5193657 4.3574101,8.2330581 L 4.3151461,8.1516331 4.6360709,7.3190314 c 0.1765089,-0.457931 0.3245953,-0.8371362 0.3290812,-0.8426792 0.00448,-0.00554 0.053855,0.071693 0.1097092,0.1716356 0.1616187,0.2891913 0.3797018,0.5569383 0.6237675,0.7658183 0.1240143,0.1061359 0.4071003,0.290475 0.5648829,0.3678387 0.052694,0.025837 0.096052,0.049133 0.096351,0.051771 4.269e-4,0.00377 -0.6135454,1.6072071 -0.6506509,1.6992326 -0.00645,0.015986 -0.063104,-0.00555 -0.1916743,-0.072849 z"
             style="opacity:1;fill:#000000;fill-opacity:1;fill-rule:evenodd;stroke:none;stroke-width:0.10280162;stroke-linecap:butt;stroke-linejoin:round;stroke-miterlimit:4;stroke-dasharray:none;stroke-dashoffset:0;stroke-opacity:1;paint-order:normal" />
          <path
             inkscape:connector-curvature="0"
             id="path1238"
             d="m 9.111638,9.8994052 c -0.1559353,0.00484 -0.4806509,0.015282 -0.7215901,0.023212 -0.4044529,0.013312 -0.7067831,0.015381 -0.7199112,0.00493 -0.00298,-0.00237 0.1409849,-0.3846987 0.3199202,-0.8496139 l 0.325336,-0.8453011 0.091387,-0.00895 c 0.050262,-0.00493 0.2269109,-0.011305 0.3925528,-0.014177 0.1656419,-0.00287 0.5635084,-0.015328 0.8841475,-0.027678 0.3206398,-0.012351 0.5847918,-0.021013 0.5870078,-0.019248 0.0022,0.00176 -0.143071,0.3865043 -0.3228571,0.8549777 l -0.3268853,0.8517619 -0.112794,0.01065 c -0.062037,0.00585 -0.2403777,0.014604 -0.396313,0.019441 z"
             style="opacity:1;fill:#000000;fill-opacity:1;fill-rule:evenodd;stroke:none;stroke-width:0.10280162;stroke-linecap:butt;stroke-linejoin:round;stroke-miterlimit:4;stroke-dasharray:none;stroke-dashoffset:0;stroke-opacity:1;paint-order:normal" />
          <path
             inkscape:connector-curvature="0"
             id="path1240"
             d="m 13.00996,11.493039 c -0.166583,-0.282341 -0.486851,-0.646717 -0.764125,-0.869359 -0.166158,-0.13342 -0.451033,-0.315149 -0.577907,-0.368661 -0.03962,-0.01671 -0.07092,-0.04002 -0.06956,-0.05181 0.0014,-0.01178 0.149045,-0.4026015 0.328193,-0.8684835 L 12.252283,8.4876679 12.409,8.5709899 c 0.476544,0.2533649 0.884225,0.6379319 1.201962,1.133814 L 13.73659,9.9008667 13.412761,10.74848 c -0.178105,0.466188 -0.327658,0.848049 -0.33234,0.848582 -0.0047,5.32e-4 -0.03639,-0.04628 -0.07046,-0.104026 z"
             style="opacity:1;fill:#000000;fill-opacity:1;fill-rule:evenodd;stroke:none;stroke-width:0.10280162;stroke-linecap:butt;stroke-linejoin:round;stroke-miterlimit:4;stroke-dasharray:none;stroke-dashoffset:0;stroke-opacity:1;paint-order:normal" />
        </g>
      </g>
      <path
         sodipodi:nodetypes="cc"
         inkscape:connector-curvature="0"
         id="path1257"
         d="M 6.3053873,0.7772684 0.75387717,15.235037"
         style="fill:none;fill-rule:evenodd;stroke:#c87137;stroke-width:1.5;stroke-linecap:round;stroke-linejoin:miter;stroke-miterlimit:4;stroke-dasharray:none;stroke-opacity:1" />
    </g>
  </g>
</svg>
