<?xml version="1.0" encoding="UTF-8" standalone="no"?>
<!-- Created with Inkscape (http://www.inkscape.org/) -->

<svg
   xmlns:dc="http://purl.org/dc/elements/1.1/"
   xmlns:cc="http://creativecommons.org/ns#"
   xmlns:rdf="http://www.w3.org/1999/02/22-rdf-syntax-ns#"
   xmlns:svg="http://www.w3.org/2000/svg"
   xmlns="http://www.w3.org/2000/svg"
   xmlns:xlink="http://www.w3.org/1999/xlink"
   xmlns:sodipodi="http://sodipodi.sourceforge.net/DTD/sodipodi-0.dtd"
   xmlns:inkscape="http://www.inkscape.org/namespaces/inkscape"
   width="64"
   height="64"
   id="svg2"
   sodipodi:version="0.32"
   inkscape:version="0.92.3 (2405546, 2018-03-11)"
   version="1.0"
   sodipodi:docname="02 Install_200.svg"
   inkscape:output_extension="org.inkscape.output.svg.inkscape"
   inkscape:export-filename="02 Install_200.png"
   inkscape:export-xdpi="96"
   inkscape:export-ydpi="96">
  <defs
     id="defs4">
    <linearGradient
       id="linearGradient930"
       inkscape:collect="always">
      <stop
         id="stop926"
         offset="0"
         style="stop-color:#ffea91;stop-opacity:1" />
      <stop
         id="stop928"
         offset="1"
         style="stop-color:#e6b900;stop-opacity:1" />
    </linearGradient>
    <linearGradient
       inkscape:collect="always"
       id="linearGradient949">
      <stop
         style="stop-color:#fff2c0;stop-opacity:1"
         offset="0"
         id="stop945" />
      <stop
         style="stop-color:#ffe478;stop-opacity:1"
         offset="1"
         id="stop947" />
    </linearGradient>
    <linearGradient
       inkscape:collect="always"
       id="linearGradient933">
      <stop
         style="stop-color:#ffe991;stop-opacity:1"
         offset="0"
         id="stop929" />
      <stop
         style="stop-color:#e6b800;stop-opacity:1"
         offset="1"
         id="stop931" />
    </linearGradient>
    <linearGradient
       inkscape:collect="always"
       xlink:href="#linearGradient933"
       id="linearGradient935"
       x1="11"
       y1="10"
       x2="14"
       y2="12.5"
       gradientUnits="userSpaceOnUse"
       gradientTransform="matrix(2,0,0,2,0,-1.9792603)" />
    <linearGradient
       inkscape:collect="always"
       xlink:href="#linearGradient930"
       id="linearGradient943"
       x1="4"
       y1="8"
       x2="1"
       y2="11"
       gradientUnits="userSpaceOnUse"
       gradientTransform="matrix(2,0,0,2,0,-1.9792603)" />
    <linearGradient
       gradientTransform="matrix(2,0,0,2,0,0.0207397)"
       inkscape:collect="always"
       xlink:href="#linearGradient949"
       id="linearGradient951"
       x1="4.5"
       y1="3"
       x2="13.5"
       y2="4.5"
       gradientUnits="userSpaceOnUse" />
    <linearGradient
       id="linearGradient862"
       inkscape:collect="always">
      <stop
         id="stop858"
         offset="0"
         style="stop-color:#b9b9b9;stop-opacity:1" />
      <stop
         style="stop-color:#f9f9f9;stop-opacity:1"
         offset="0.30717328"
         id="stop844" />
      <stop
         style="stop-color:#ffffff;stop-opacity:1"
         offset="0.45454547"
         id="stop869" />
      <stop
         id="stop871"
         offset="0.54545456"
         style="stop-color:#f2f2f2;stop-opacity:1" />
      <stop
         id="stop860"
         offset="1"
         style="stop-color:#cccccc;stop-opacity:1" />
    </linearGradient>
    <linearGradient
       gradientTransform="translate(36.5,-5.5)"
       gradientUnits="userSpaceOnUse"
       y2="27"
       x2="-15"
       y1="16"
       x1="-26"
       id="linearGradient864"
       xlink:href="#linearGradient862"
       inkscape:collect="always" />
    <filter
       height="1.12"
       y="-0.06"
       width="1.12"
       x="-0.06"
       id="filter859"
       style="color-interpolation-filters:sRGB"
       inkscape:collect="always">
      <feGaussianBlur
         id="feGaussianBlur861"
         stdDeviation="0.4"
         inkscape:collect="always" />
    </filter>
  </defs>
  <sodipodi:namedview
     id="base"
     pagecolor="#ffffff"
     bordercolor="#666666"
     borderopacity="1.0"
     inkscape:pageopacity="0.0"
     inkscape:pageshadow="2"
     inkscape:zoom="15.038929"
     inkscape:cx="34.000001"
     inkscape:cy="31.252226"
     inkscape:document-units="px"
     inkscape:current-layer="layer1"
     showgrid="true"
     objecttolerance="10"
     gridtolerance="10"
     guidetolerance="10"
     showguides="true"
     inkscape:guide-bbox="true"
     inkscape:window-width="1920"
     inkscape:window-height="1137"
     inkscape:window-x="-8"
     inkscape:window-y="-8"
     inkscape:window-maximized="1"
     inkscape:snap-bbox="true"
     inkscape:bbox-paths="true"
     inkscape:bbox-nodes="true"
     inkscape:snap-bbox-edge-midpoints="true"
     inkscape:snap-bbox-midpoints="true"
     inkscape:object-paths="true"
     inkscape:snap-intersection-paths="true"
     inkscape:snap-smooth-nodes="true"
     inkscape:snap-midpoints="true"
     inkscape:snap-object-midpoints="true">
    <inkscape:grid
       type="xygrid"
       id="grid2409"
       visible="true"
       enabled="true"
       spacingx="0.5"
       spacingy="0.5"
       empspacing="2"
       snapvisiblegridlinesonly="true"
       originx="0"
       originy="0" />
  </sodipodi:namedview>
  <metadata
     id="metadata7">
    <rdf:RDF>
      <cc:Work
         rdf:about="">
        <dc:format>image/svg+xml</dc:format>
        <dc:type
           rdf:resource="http://purl.org/dc/dcmitype/StillImage" />
        <dc:title />
      </cc:Work>
    </rdf:RDF>
  </metadata>
  <g
     inkscape:label="Ebene 1"
     inkscape:groupmode="layer"
     id="layer1"
     transform="translate(0,32)">
    <g
       id="g912"
       transform="matrix(1.7420774,0,0,1.7415797,4.1288671,-31.246421)"
       style="stroke-width:1.14821863">
      <path
         sodipodi:nodetypes="ccccc"
         inkscape:connector-curvature="0"
         id="path839"
         d="m 1,8.0207397 15,-7 15,7 -14,8.0000003 z"
         style="fill:url(#linearGradient951);fill-opacity:1;fill-rule:evenodd;stroke:none;stroke-width:2.29643726px;stroke-linecap:butt;stroke-linejoin:miter;stroke-opacity:1" />
      <path
         sodipodi:nodetypes="ccccc"
         inkscape:connector-curvature="0"
         id="path831"
         d="M 17,16.02074 0.49238902,8.0164921 V 22.024612 L 17,30.02074 Z"
         style="fill:url(#linearGradient943);fill-opacity:1;fill-rule:evenodd;stroke:none;stroke-width:2.29643726px;stroke-linecap:butt;stroke-linejoin:miter;stroke-opacity:1" />
      <path
         style="fill:url(#linearGradient935);fill-opacity:1;fill-rule:evenodd;stroke:none;stroke-width:2.29643726px;stroke-linecap:butt;stroke-linejoin:miter;stroke-opacity:1"
         d="M 17,16.02074 31.50761,8.0207397 V 22.024612 L 17,30.02074 Z"
         id="path833"
         inkscape:connector-curvature="0"
         sodipodi:nodetypes="ccccc" />
      <path
         sodipodi:nodetypes="cc"
         inkscape:connector-curvature="0"
         id="path844"
         d="M 17,16 V 30"
         style="fill:#000000;fill-opacity:0;fill-rule:evenodd;stroke:#c49d00;stroke-width:1.14821863;stroke-linecap:butt;stroke-linejoin:round;stroke-miterlimit:4;stroke-dasharray:none;stroke-opacity:1" />
      <path
         inkscape:connector-curvature="0"
         id="path846"
         d="M 8.7500444,12.02074 22.984695,4.1670912"
         style="fill:none;fill-rule:evenodd;stroke:#5f8dd3;stroke-width:1.72232795;stroke-linecap:butt;stroke-linejoin:miter;stroke-miterlimit:4;stroke-dasharray:none;stroke-opacity:1"
         sodipodi:nodetypes="cc" />
      <path
         inkscape:connector-curvature="0"
         id="path848"
         d="M 8.5147152,4.393184 24.253805,12.02074"
         style="fill:none;fill-rule:evenodd;stroke:#5f8dd3;stroke-width:1.72232795;stroke-linecap:butt;stroke-linejoin:miter;stroke-miterlimit:4;stroke-dasharray:none;stroke-opacity:1"
         sodipodi:nodetypes="cc" />
      <path
         sodipodi:nodetypes="ccccccc"
         inkscape:connector-curvature="0"
         id="path840"
         d="M 0.5,7.9917526 V 22 L 17,30 31.5,22 V 8 L 16,1 Z"
         style="fill:#000000;fill-opacity:0;fill-rule:evenodd;stroke:#c49d00;stroke-width:1.14794648;stroke-linecap:butt;stroke-linejoin:round;stroke-miterlimit:4;stroke-dasharray:none;stroke-opacity:1" />
      <path
         sodipodi:nodetypes="ccc"
         inkscape:connector-curvature="0"
         id="path842"
         d="M 0.5,8 17,16 31.5,8"
         style="fill:#000000;fill-opacity:0;fill-rule:evenodd;stroke:#c49d00;stroke-width:1.14821863;stroke-linecap:butt;stroke-linejoin:round;stroke-miterlimit:4;stroke-dasharray:none;stroke-opacity:1" />
    </g>
    <g
       id="g935"
       transform="matrix(2,0,0,2,126.91098,19.166178)">
      <g
         transform="translate(-57.955489,-20.083089)"
         id="g885">
        <path
           sodipodi:type="inkscape:offset"
           inkscape:radius="1"
           inkscape:original="M -24 -9 A 9 9 0 0 0 -33 0 A 9 9 0 0 0 -24 9 A 9 9 0 0 0 -15 0 A 9 9 0 0 0 -24 -9 z M -24 -2 A 2 2 0 0 1 -22 0 A 2 2 0 0 1 -24 2 A 2 2 0 0 1 -26 0 A 2 2 0 0 1 -24 -2 z "
           style="opacity:1;fill:#ffffff;fill-opacity:1;fill-rule:evenodd;stroke:#ffffff;stroke-width:1;stroke-linecap:round;stroke-linejoin:round;stroke-miterlimit:4;stroke-dasharray:none;stroke-dashoffset:0;stroke-opacity:1;paint-order:normal"
           id="path877"
           d="m -24,-10 c -2.617994,0 -5.219111,1.0784863 -7.070312,2.9296875 C -32.921514,-5.2191113 -34,-2.6179939 -34,0 c 0,2.6179939 1.078486,5.2191113 2.929688,7.0703125 C -29.219111,8.9215137 -26.617994,10 -24,10 c 2.617994,0 5.219111,-1.0784863 7.070312,-2.9296875 C -15.078486,5.2191113 -14,2.6179939 -14,0 -14,-2.6179939 -15.078486,-5.2191113 -16.929688,-7.0703125 -18.780889,-8.9215137 -21.382006,-10 -24,-10 Z m 0,7 c -0.19635,0 0.778514,0.0969 0.585938,0.058594 -0.192577,-0.038306 0.743903,0.2450615 0.5625,0.1699218 -0.181404,-0.07514 0.680836,0.3864297 0.517578,0.2773438 -0.163259,-0.109086 0.593918,0.5118869 0.455078,0.3730468 -0.13884,-0.13884 0.482133,0.6183369 0.373047,0.4550782 -0.109086,-0.1632587 0.352483,0.69898142 0.277343,0.5175781 -0.07514,-0.1814033 0.208228,0.75507674 0.169922,0.5625 C -21.0969,-0.77851424 -21,0.19634954 -21,0 c 0,-0.19634954 -0.0969,0.77851424 -0.05859,0.5859375 0.03831,-0.19257674 -0.245061,0.7439033 -0.169922,0.5625 0.07514,-0.18140332 -0.386429,0.6808368 -0.277343,0.5175781 0.109086,-0.1632587 -0.511887,0.5939182 -0.373047,0.4550782 0.13884,-0.1388401 -0.618337,0.4821328 -0.455078,0.3730468 0.163258,-0.1090859 -0.698982,0.3524835 -0.517578,0.2773438 0.181403,-0.07514 -0.755077,0.2082277 -0.5625,0.1699218 C -23.221486,2.9031004 -24.19635,3 -24,3 c 0.19635,0 -0.778514,-0.0969 -0.585938,-0.058594 0.192577,0.038306 -0.743903,-0.2450615 -0.5625,-0.1699218 0.181404,0.07514 -0.680836,-0.3864297 -0.517578,-0.2773438 0.163259,0.109086 -0.593918,-0.5118869 -0.455078,-0.3730468 0.13884,0.13884 -0.482133,-0.6183369 -0.373047,-0.4550782 0.109086,0.1632587 -0.352483,-0.69898142 -0.277343,-0.5175781 0.07514,0.1814033 -0.208228,-0.75507674 -0.169922,-0.5625 C -26.9031,0.77851424 -27,-0.19634954 -27,0 c 0,0.19634954 0.0969,-0.77851424 0.05859,-0.5859375 -0.03831,0.19257674 0.245061,-0.7439033 0.169922,-0.5625 -0.07514,0.18140332 0.386429,-0.6808368 0.277343,-0.5175781 -0.109086,0.1632587 0.511887,-0.5939182 0.373047,-0.4550782 -0.13884,0.1388401 0.618337,-0.4821328 0.455078,-0.3730468 -0.163258,0.1090859 0.698982,-0.3524835 0.517578,-0.2773438 -0.181403,0.07514 0.755077,-0.2082277 0.5625,-0.1699218 C -24.778514,-2.9031004 -23.80365,-3 -24,-3 Z"
           transform="translate(40,16)" />
        <path
           style="opacity:1;fill:url(#linearGradient864);fill-opacity:1;fill-rule:evenodd;stroke:#939dac;stroke-width:1;stroke-linecap:round;stroke-linejoin:round;stroke-miterlimit:4;stroke-dasharray:none;stroke-dashoffset:0;stroke-opacity:1;paint-order:normal"
           d="m 16,7 a 9,9 0 0 0 -9,9 9,9 0 0 0 9,9 9,9 0 0 0 9,-9 9,9 0 0 0 -9,-9 z m 0,7 a 2,2 0 0 1 2,2 2,2 0 0 1 -2,2 2,2 0 0 1 -2,-2 2,2 0 0 1 2,-2 z"
           id="path856"
           inkscape:connector-curvature="0" />
        <circle
           r="8"
           cy="16"
           cx="16"
           id="path849"
           style="opacity:1;fill:none;fill-opacity:1;fill-rule:evenodd;stroke:#ffffff;stroke-width:1;stroke-linecap:round;stroke-linejoin:round;stroke-miterlimit:4;stroke-dasharray:none;stroke-dashoffset:0;stroke-opacity:1;paint-order:normal;filter:url(#filter859)" />
      </g>
    </g>
  </g>
</svg>
