<?xml version="1.0" encoding="UTF-8" standalone="no"?>
<!-- Created with Inkscape (http://www.inkscape.org/) -->

<svg
   xmlns:dc="http://purl.org/dc/elements/1.1/"
   xmlns:cc="http://creativecommons.org/ns#"
   xmlns:rdf="http://www.w3.org/1999/02/22-rdf-syntax-ns#"
   xmlns:svg="http://www.w3.org/2000/svg"
   xmlns="http://www.w3.org/2000/svg"
   xmlns:xlink="http://www.w3.org/1999/xlink"
   xmlns:sodipodi="http://sodipodi.sourceforge.net/DTD/sodipodi-0.dtd"
   xmlns:inkscape="http://www.inkscape.org/namespaces/inkscape"
   width="44"
   height="44"
   id="svg2"
   sodipodi:version="0.32"
   inkscape:version="0.92.3 (2405546, 2018-03-11)"
   version="1.0"
   sodipodi:docname="da_ifndef_200.svg"
   inkscape:output_extension="org.inkscape.output.svg.inkscape"
   inkscape:export-filename="da_ifndef_200.png"
   inkscape:export-xdpi="96"
   inkscape:export-ydpi="96">
  <defs
     id="defs4">
    <linearGradient
       id="linearGradient1094"
       inkscape:collect="always">
      <stop
         id="stop1086"
         offset="0"
         style="stop-color:#00ff66;stop-opacity:1" />
      <stop
         style="stop-color:#00aa00;stop-opacity:1"
         offset="0.25781018"
         id="stop1088" />
      <stop
         id="stop1090"
         offset="0.65000004"
         style="stop-color:#00ff66;stop-opacity:1" />
      <stop
         id="stop1092"
         offset="1"
         style="stop-color:#00aa00;stop-opacity:1" />
    </linearGradient>
    <linearGradient
       inkscape:collect="always"
       xlink:href="#linearGradient1094"
       id="linearGradient1084"
       gradientUnits="userSpaceOnUse"
       x1="7.1848779"
       y1="2.599694"
       x2="17.184877"
       y2="2.2387636"
       gradientTransform="matrix(-1.0020096,-0.18890715,0,0.8831277,23.55811,0.75363771)" />
  </defs>
  <sodipodi:namedview
     id="base"
     pagecolor="#ffffff"
     bordercolor="#666666"
     borderopacity="1.0"
     inkscape:pageopacity="0.0"
     inkscape:pageshadow="2"
     inkscape:zoom="25.405405"
     inkscape:cx="21.971851"
     inkscape:cy="21.5"
     inkscape:document-units="px"
     inkscape:current-layer="layer1"
     showgrid="true"
     objecttolerance="10"
     gridtolerance="10"
     guidetolerance="10"
     showguides="true"
     inkscape:guide-bbox="true"
     inkscape:window-width="1920"
     inkscape:window-height="1137"
     inkscape:window-x="-8"
     inkscape:window-y="-8"
     inkscape:window-maximized="1"
     inkscape:snap-bbox="true"
     inkscape:bbox-paths="true"
     inkscape:bbox-nodes="true"
     inkscape:snap-bbox-edge-midpoints="true"
     inkscape:snap-bbox-midpoints="true"
     inkscape:object-paths="true"
     inkscape:snap-intersection-paths="true"
     inkscape:snap-smooth-nodes="true"
     inkscape:snap-midpoints="true"
     inkscape:snap-object-midpoints="true">
    <inkscape:grid
       type="xygrid"
       id="grid2409"
       visible="true"
       enabled="true"
       spacingx="0.5"
       spacingy="0.5"
       empspacing="2"
       snapvisiblegridlinesonly="true"
       originx="0"
       originy="0" />
  </sodipodi:namedview>
  <metadata
     id="metadata7">
    <rdf:RDF>
      <cc:Work
         rdf:about="">
        <dc:format>image/svg+xml</dc:format>
        <dc:type
           rdf:resource="http://purl.org/dc/dcmitype/StillImage" />
        <dc:title />
      </cc:Work>
    </rdf:RDF>
  </metadata>
  <g
     inkscape:label="Ebene 1"
     inkscape:groupmode="layer"
     id="layer1"
     transform="translate(0,12)">
    <path
       sodipodi:nodetypes="cccccccc"
       inkscape:connector-curvature="0"
       id="path836-0"
       d="m 25,15 h 1 c 0,4 2,6 5,6 v -4 l 7,6 -7,6 v -4 c -6,0 -6,-5 -6,-10 z"
       style="fill:#3c5f96;fill-opacity:1;fill-rule:evenodd;stroke:none;stroke-width:2px;stroke-linecap:butt;stroke-linejoin:miter;stroke-opacity:1" />
    <g
       id="g854"
       transform="matrix(2,0,0,2,-10,6)">
      <path
         inkscape:connector-curvature="0"
         id="path952-5"
         d="m 12,0.5 h 5"
         style="fill:none;fill-rule:evenodd;stroke:#000000;stroke-width:1px;stroke-linecap:butt;stroke-linejoin:miter;stroke-opacity:1" />
      <path
         inkscape:connector-curvature="0"
         id="path954-9"
         d="m 12,2.5 h 5"
         style="fill:none;fill-rule:evenodd;stroke:#000000;stroke-width:1px;stroke-linecap:butt;stroke-linejoin:miter;stroke-opacity:1" />
    </g>
    <g
       aria-label="?"
       style="font-style:normal;font-variant:normal;font-weight:bold;font-stretch:normal;font-size:15.33333302px;line-height:25px;font-family:Arial;-inkscape-font-specification:'Arial Bold';letter-spacing:0px;word-spacing:0px;fill:#f00000;fill-opacity:1;stroke:none;stroke-width:1px;stroke-linecap:butt;stroke-linejoin:miter;stroke-opacity:1"
       id="text960-8"
       transform="matrix(2,0,0,2,-1.2556847,0.0076824)">
      <path
         d="M 5.9851015,4.2699218 H 4.0759218 q -0.00749,-0.4117838 -0.00749,-0.5016276 0,-0.9283854 0.3069662,-1.5273437 0.3069661,-0.5989583 1.2278645,-1.3476562 0.9208985,-0.7486979 1.100586,-0.98079425 0.2770182,-0.36686197 0.2770182,-0.80859373 0,-0.61393232 -0.4941406,-1.04817702 -0.4866537,-0.4417318 -1.3177083,-0.4417318 -0.8011068,0 -1.3401693,0.4567057 -0.5390625,0.4567057 -0.7412109,1.39257811 L 1.156,-0.77630202 Q 1.2383568,-2.1164713 2.2940208,-3.0523436 3.3571718,-3.988216 5.079177,-3.988216 q 1.8118489,0 2.8824869,0.9508463 1.070638,0.9433594 1.070638,2.20117185 0,0.69628905 -0.3968099,1.31770831 Q 8.2461691,1.1029297 6.9584087,2.1735677 6.2920676,2.7276042 6.1273541,3.0645182 5.9701275,3.4014323 5.9851015,4.2699218 Z M 4.0759218,7.0999999 V 4.9961588 h 2.1038411 v 2.1038411 z"
         id="path962-2"
         inkscape:connector-curvature="0" />
    </g>
    <g
       id="layer1-6"
       inkscape:label="Ebene 1"
       transform="matrix(1.0984356,0,0,1.0984356,22.606368,-2.4921778)">
      <path
         sodipodi:nodetypes="cssccsscc"
         inkscape:connector-curvature="0"
         id="path1082"
         d="m 6.138206,-4.04204 c 1.0492634,-0.7556485 2.2230174,-1.0164354 3.693558,-0.6715513 1.052994,0.246958 3.116237,1.3103193 4.450814,1.4465935 1.455863,0.1486593 2.57722,0.1020203 3.574419,-0.40708 l 0.0048,8.0156856 C 17.102065,5.0087759 15.743254,4.8973473 14.287392,4.7486887 12.952816,4.6124146 10.889571,3.5490514 9.836578,3.3020945 8.366037,2.9572086 7.1922831,3.217998 6.1430187,3.9736457 Z"
         style="fill:url(#linearGradient1084);fill-opacity:1;fill-rule:evenodd;stroke:#808080;stroke-width:0.27632701;stroke-linecap:butt;stroke-linejoin:miter;stroke-miterlimit:4;stroke-dasharray:none;stroke-opacity:1" />
      <path
         sodipodi:nodetypes="cc"
         inkscape:connector-curvature="0"
         id="path1257-5"
         d="M 5,-4 V 14"
         style="fill:none;fill-rule:evenodd;stroke:#c87137;stroke-width:2;stroke-linecap:round;stroke-linejoin:miter;stroke-miterlimit:4;stroke-dasharray:none;stroke-opacity:1" />
    </g>
    <g
       id="g877"
       transform="translate(18.887493,-35.100362)">
      <g
         style="stroke-width:3.5;stroke-miterlimit:4;stroke-dasharray:none"
         transform="matrix(1.4966899,0,0,1.4995167,-24.289551,29.598959)"
         id="g1000">
        <path
           inkscape:connector-curvature="0"
           d="m 25.496486,10.503514 5,-5.0000004 m 0,5.0000004 -5,-5.0000004"
           style="fill:none;fill-rule:evenodd;stroke:#ffffff;stroke-width:3.5;stroke-linecap:round;stroke-linejoin:miter;stroke-miterlimit:4;stroke-dasharray:none;stroke-opacity:1"
           id="path992" />
      </g>
      <g
         style="stroke-width:1.5;stroke-miterlimit:4;stroke-dasharray:none"
         transform="matrix(1.4966899,0,0,1.4995167,-24.289551,29.598959)"
         id="g996">
        <path
           inkscape:connector-curvature="0"
           d="m 25.496486,10.503514 5,-5.0000004 m 0,5.0000004 -5,-5.0000004"
           style="fill:none;fill-rule:evenodd;stroke:#dc0000;stroke-width:1.5;stroke-linecap:round;stroke-linejoin:miter;stroke-miterlimit:4;stroke-dasharray:none;stroke-opacity:1"
           id="path988" />
      </g>
    </g>
  </g>
</svg>
