<?xml version="1.0" encoding="UTF-8" standalone="no"?>
<!-- Created with Inkscape (http://www.inkscape.org/) -->

<svg
   xmlns:dc="http://purl.org/dc/elements/1.1/"
   xmlns:cc="http://creativecommons.org/ns#"
   xmlns:rdf="http://www.w3.org/1999/02/22-rdf-syntax-ns#"
   xmlns:svg="http://www.w3.org/2000/svg"
   xmlns="http://www.w3.org/2000/svg"
   xmlns:sodipodi="http://sodipodi.sourceforge.net/DTD/sodipodi-0.dtd"
   xmlns:inkscape="http://www.inkscape.org/namespaces/inkscape"
   width="32"
   height="32"
   id="svg2"
   sodipodi:version="0.32"
   inkscape:version="0.92.3 (2405546, 2018-03-11)"
   version="1.0"
   sodipodi:docname="formatbold_200.svg"
   inkscape:output_extension="org.inkscape.output.svg.inkscape"
   inkscape:export-filename="formatbold_200.png"
   inkscape:export-xdpi="96"
   inkscape:export-ydpi="96">
  <defs
     id="defs4" />
  <sodipodi:namedview
     id="base"
     pagecolor="#ffffff"
     bordercolor="#666666"
     borderopacity="1.0"
     inkscape:pageopacity="0.0"
     inkscape:pageshadow="2"
     inkscape:zoom="19.583334"
     inkscape:cx="5.4383932"
     inkscape:cy="14.518226"
     inkscape:document-units="px"
     inkscape:current-layer="layer1"
     showgrid="true"
     objecttolerance="10"
     gridtolerance="10"
     guidetolerance="10"
     showguides="false"
     inkscape:guide-bbox="true"
     inkscape:window-width="1920"
     inkscape:window-height="1137"
     inkscape:window-x="-8"
     inkscape:window-y="-8"
     inkscape:window-maximized="1"
     inkscape:snap-bbox="true"
     inkscape:bbox-paths="true"
     inkscape:bbox-nodes="true"
     inkscape:snap-bbox-edge-midpoints="true"
     inkscape:snap-bbox-midpoints="true"
     inkscape:object-paths="true"
     inkscape:snap-intersection-paths="true"
     inkscape:snap-smooth-nodes="true"
     inkscape:snap-midpoints="true"
     inkscape:snap-object-midpoints="true">
    <inkscape:grid
       type="xygrid"
       id="grid2409"
       visible="true"
       enabled="true"
       spacingx="0.5"
       spacingy="0.5"
       empspacing="2"
       snapvisiblegridlinesonly="true"
       originx="0"
       originy="0" />
  </sodipodi:namedview>
  <metadata
     id="metadata7">
    <rdf:RDF>
      <cc:Work
         rdf:about="">
        <dc:format>image/svg+xml</dc:format>
        <dc:type
           rdf:resource="http://purl.org/dc/dcmitype/StillImage" />
        <dc:title />
      </cc:Work>
    </rdf:RDF>
  </metadata>
  <g
     inkscape:label="Ebene 1"
     inkscape:groupmode="layer"
     id="layer1">
    <g
       id="g852">
      <g
         transform="matrix(2,0,0,2,0.979625,0)"
         aria-label="B"
         style="font-style:normal;font-variant:normal;font-weight:bold;font-stretch:normal;font-size:16px;line-height:25px;font-family:Calibri;-inkscape-font-specification:'Calibri Bold';letter-spacing:0px;word-spacing:0px;fill:#000000;fill-opacity:1;stroke:none;stroke-width:1px;stroke-linecap:butt;stroke-linejoin:miter;stroke-opacity:1"
         id="g841">
        <path
           style="fill:#ffffff"
           sodipodi:type="inkscape:offset"
           inkscape:radius="0.9453125"
           inkscape:original="M 4.609375 2.9453125 C 4.4375 2.9453125 4.2916667 2.9973958 4.171875 3.1015625 C 4.0572917 3.2005208 4 3.3645833 4 3.59375 L 4 12.40625 C 4 12.635417 4.0572917 12.802085 4.171875 12.90625 C 4.2916667 13.005208 4.4375 13.054687 4.609375 13.054688 L 7.296875 13.054688 C 7.703125 13.054688 8.0703125 13.031248 8.3984375 12.984375 C 8.7317708 12.932292 9.0442708 12.854167 9.3359375 12.75 C 9.6276042 12.645833 9.8932293 12.513022 10.132812 12.351562 C 10.377605 12.190106 10.585938 11.997395 10.757812 11.773438 C 10.934897 11.54948 11.072917 11.291667 11.171875 11 C 11.270834 10.708333 11.320313 10.382812 11.320312 10.023438 C 11.320312 9.6796873 11.268229 9.3697917 11.164062 9.09375 C 11.059897 8.8177083 10.916667 8.578125 10.734375 8.375 C 10.557292 8.1666667 10.346355 7.9973958 10.101562 7.8671875 C 9.8619793 7.7369792 9.5989583 7.6458333 9.3125 7.59375 C 9.5364583 7.5104167 9.734375 7.4010417 9.90625 7.265625 C 10.083333 7.1302083 10.231771 6.9739583 10.351562 6.796875 C 10.471355 6.6197917 10.5625 6.4244792 10.625 6.2109375 C 10.6875 5.9921875 10.71875 5.7604167 10.71875 5.515625 C 10.71875 5.078125 10.640625 4.6979167 10.484375 4.375 C 10.328125 4.0520833 10.101562 3.7864583 9.8046875 3.578125 C 9.5130208 3.3645833 9.1510417 3.2057292 8.71875 3.1015625 C 8.2916667 2.9973958 7.7682292 2.9453125 7.1484375 2.9453125 L 4.609375 2.9453125 z M 6.015625 4.484375 L 7.0546875 4.484375 C 7.3723958 4.484375 7.625 4.5130208 7.8125 4.5703125 C 8.0052083 4.6276042 8.1640625 4.7109375 8.2890625 4.8203125 C 8.4140625 4.9244792 8.5078125 5.0572917 8.5703125 5.21875 C 8.6328125 5.3802083 8.6640625 5.5625 8.6640625 5.765625 C 8.6640622 5.9479167 8.6354163 6.1223958 8.578125 6.2890625 C 8.5208333 6.4505208 8.4322917 6.59375 8.3125 6.71875 C 8.1979167 6.8385417 8.0520833 6.9348958 7.875 7.0078125 C 7.6979167 7.0755208 7.4609375 7.109375 7.1640625 7.109375 L 6.015625 7.109375 L 6.015625 4.484375 z M 6.015625 8.609375 L 7.234375 8.609375 C 7.609375 8.609375 7.9140625 8.6432292 8.1484375 8.7109375 C 8.3828125 8.7786458 8.5755208 8.875 8.7265625 9 C 8.8776042 9.125 8.9921875 9.28125 9.0703125 9.46875 C 9.1484375 9.6510417 9.1875 9.859375 9.1875 10.09375 C 9.1875 10.317708 9.1458333 10.51823 9.0625 10.695312 C 8.984375 10.867189 8.8723958 11.013022 8.7265625 11.132812 C 8.5859375 11.247397 8.4166667 11.335937 8.21875 11.398438 C 8.0260417 11.45573 7.7864583 11.484375 7.5 11.484375 L 6.015625 11.484375 L 6.015625 8.609375 z "
           id="path839"
           d="M 4.609375,2 C 4.2479244,2 3.8431949,2.1374978 3.5546875,2.3867188 c -0.3877748,0.3348963 -0.5,0.8203123 -0.5,1.2070312 v 8.8125 c 0,0.386719 0.1105617,0.862945 0.4804687,1.199219 a 0.94540703,0.94540703 0 0 0 0.035156,0.0293 C 3.8612493,13.875104 4.2560801,13.999998 4.609375,14 h 2.6875 c 0.4426121,0 0.8521896,-0.02548 1.234375,-0.08008 a 0.94540703,0.94540703 0 0 0 0.013672,-0.002 c 0.386755,-0.06043 0.7572842,-0.151597 1.109375,-0.277344 0.3587461,-0.128124 0.6940401,-0.29686 1.0019531,-0.503906 0.323752,-0.214244 0.610581,-0.47814 0.845703,-0.783203 0.245936,-0.312232 0.434689,-0.666364 0.564453,-1.048828 0.136915,-0.403536 0.19922,-0.835107 0.199219,-1.28125 0,-0.4392365 -0.06687,-0.8663608 -0.216797,-1.2636724 C 11.908753,8.3885592 11.704353,8.0469861 11.443359,7.7539062 11.3296,7.6214294 11.171473,7.5389696 11.037109,7.4277344 c 0.02832,-0.037683 0.07123,-0.062501 0.09766,-0.1015625 0.175854,-0.2599552 0.30999,-0.547416 0.398437,-0.8496094 a 0.94540703,0.94540703 0 0 0 0,-0.00586 c 0.08809,-0.3083101 0.13086,-0.6298343 0.130859,-0.9550781 0,-0.5500372 -0.09897,-1.0791468 -0.328124,-1.5527344 C 11.112972,3.502096 10.770501,3.103742 10.351562,2.8085938 9.9428462,2.5118356 9.4654293,2.3098786 8.9433594,2.1835938 8.4140034,2.0544825 7.8211878,2 7.1484375,2 Z m 2.3515625,3.4296875 h 0.09375 c 0.2608863,0 0.4376223,0.031233 0.4824219,0.044922 a 0.94540703,0.94540703 0 0 0 0.00586,0.00195 c 0.088718,0.026376 0.1176663,0.04998 0.1230468,0.054687 a 0.94540703,0.94540703 0 0 0 0.017578,0.015625 c -3.2e-6,-2.6e-6 -0.00476,-0.013756 0.00586,0.013672 0.014323,0.037001 0.029297,0.098908 0.029297,0.2050781 -1e-7,0.081798 -0.013091,0.147584 -0.035156,0.2128906 -0.012625,0.033742 -0.023569,0.055504 -0.052734,0.085937 a 0.94540703,0.94540703 0 0 0 -0.00195,0 c -0.011417,0.011936 -0.042308,0.035901 -0.1015624,0.0625 -0.018481,0.00613 -0.1442207,0.037109 -0.3632813,0.037109 h -0.203125 z m 0,4.125 H 7.234375 c 0.3181061,0 0.5471165,0.034054 0.6523438,0.064453 0.1373758,0.039686 0.2057212,0.084045 0.2363281,0.109375 0.033862,0.028023 0.050595,0.046819 0.074219,0.1035156 a 0.94540703,0.94540703 0 0 0 0.00391,0.00977 c 0.020342,0.047466 0.041016,0.1226128 0.041016,0.2519531 0,0.10671 -0.0172,0.161062 -0.035156,0.199219 a 0.94540703,0.94540703 0 0 0 -0.00586,0.01172 c -0.020669,0.04547 -0.035762,0.06607 -0.074219,0.09766 -0.036452,0.02943 -0.092885,0.06103 -0.1875,0.0918 C 7.8672508,10.514717 7.718534,10.539062 7.5,10.539062 H 6.9609375 Z" />
      </g>
      <g
         transform="matrix(2,0,0,2,0.979625,0)"
         id="text829"
         style="font-style:normal;font-variant:normal;font-weight:bold;font-stretch:normal;font-size:16px;line-height:25px;font-family:Calibri;-inkscape-font-specification:'Calibri Bold';letter-spacing:0px;word-spacing:0px;fill:#374548;fill-opacity:1;stroke:none;stroke-width:1px;stroke-linecap:butt;stroke-linejoin:miter;stroke-opacity:1"
         aria-label="B">
        <path
           style="fill:#374548;fill-opacity:1"
           d="m 4.609375,2.9453125 c -0.171875,0 -0.3177083,0.052083 -0.4375,0.15625 C 4.0572917,3.2005208 4,3.3645833 4,3.59375 v 8.8125 c 0,0.229167 0.057292,0.395835 0.171875,0.5 0.1197917,0.09896 0.265625,0.148437 0.4375,0.148438 h 2.6875 c 0.40625,0 0.7734375,-0.02344 1.1015625,-0.07031 0.3333333,-0.05208 0.6458333,-0.130208 0.9375,-0.234375 0.2916667,-0.104167 0.5572918,-0.236978 0.7968745,-0.398438 0.244793,-0.161456 0.453126,-0.354167 0.625,-0.578124 C 10.934897,11.54948 11.072917,11.291667 11.171875,11 c 0.09896,-0.291667 0.148438,-0.617188 0.148437,-0.976562 0,-0.3437507 -0.05208,-0.6536463 -0.15625,-0.929688 C 11.059897,8.8177083 10.916667,8.578125 10.734375,8.375 10.557292,8.1666667 10.346355,7.9973958 10.101562,7.8671875 9.8619793,7.7369792 9.5989583,7.6458333 9.3125,7.59375 9.5364583,7.5104167 9.734375,7.4010417 9.90625,7.265625 10.083333,7.1302083 10.231771,6.9739583 10.351562,6.796875 10.471355,6.6197917 10.5625,6.4244792 10.625,6.2109375 c 0.0625,-0.21875 0.09375,-0.4505208 0.09375,-0.6953125 0,-0.4375 -0.07813,-0.8177083 -0.234375,-1.140625 C 10.328125,4.0520833 10.101562,3.7864583 9.8046875,3.578125 9.5130208,3.3645833 9.1510417,3.2057292 8.71875,3.1015625 8.2916667,2.9973958 7.7682292,2.9453125 7.1484375,2.9453125 Z m 1.40625,1.5390625 h 1.0390625 c 0.3177083,0 0.5703125,0.028646 0.7578125,0.085937 0.1927083,0.057292 0.3515625,0.140625 0.4765625,0.25 0.125,0.1041667 0.21875,0.2369792 0.28125,0.3984375 0.0625,0.1614583 0.09375,0.34375 0.09375,0.546875 -3e-7,0.1822917 -0.028646,0.3567708 -0.085937,0.5234375 C 8.5208333,6.4505208 8.4322917,6.59375 8.3125,6.71875 8.1979167,6.8385417 8.0520833,6.9348958 7.875,7.0078125 7.6979167,7.0755208 7.4609375,7.109375 7.1640625,7.109375 H 6.015625 Z m 0,4.125 h 1.21875 c 0.375,0 0.6796875,0.033854 0.9140625,0.1015625 C 8.3828125,8.7786458 8.5755208,8.875 8.7265625,9 c 0.1510417,0.125 0.265625,0.28125 0.34375,0.46875 0.078125,0.1822917 0.1171875,0.390625 0.1171875,0.625 0,0.223958 -0.041667,0.42448 -0.125,0.601562 -0.078125,0.171877 -0.1901042,0.31771 -0.3359375,0.4375 C 8.5859375,11.247397 8.4166667,11.335937 8.21875,11.398438 8.0260417,11.45573 7.7864583,11.484375 7.5,11.484375 H 6.015625 Z"
           id="path831"
           inkscape:original="M 4.609375 2.9453125 C 4.4375 2.9453125 4.2916667 2.9973958 4.171875 3.1015625 C 4.0572917 3.2005208 4 3.3645833 4 3.59375 L 4 12.40625 C 4 12.635417 4.0572917 12.802085 4.171875 12.90625 C 4.2916667 13.005208 4.4375 13.054687 4.609375 13.054688 L 7.296875 13.054688 C 7.703125 13.054688 8.0703125 13.031248 8.3984375 12.984375 C 8.7317708 12.932292 9.0442708 12.854167 9.3359375 12.75 C 9.6276042 12.645833 9.8932293 12.513022 10.132812 12.351562 C 10.377605 12.190106 10.585938 11.997395 10.757812 11.773438 C 10.934897 11.54948 11.072917 11.291667 11.171875 11 C 11.270834 10.708333 11.320313 10.382812 11.320312 10.023438 C 11.320312 9.6796873 11.268229 9.3697917 11.164062 9.09375 C 11.059897 8.8177083 10.916667 8.578125 10.734375 8.375 C 10.557292 8.1666667 10.346355 7.9973958 10.101562 7.8671875 C 9.8619793 7.7369792 9.5989583 7.6458333 9.3125 7.59375 C 9.5364583 7.5104167 9.734375 7.4010417 9.90625 7.265625 C 10.083333 7.1302083 10.231771 6.9739583 10.351562 6.796875 C 10.471355 6.6197917 10.5625 6.4244792 10.625 6.2109375 C 10.6875 5.9921875 10.71875 5.7604167 10.71875 5.515625 C 10.71875 5.078125 10.640625 4.6979167 10.484375 4.375 C 10.328125 4.0520833 10.101562 3.7864583 9.8046875 3.578125 C 9.5130208 3.3645833 9.1510417 3.2057292 8.71875 3.1015625 C 8.2916667 2.9973958 7.7682292 2.9453125 7.1484375 2.9453125 L 4.609375 2.9453125 z M 6.015625 4.484375 L 7.0546875 4.484375 C 7.3723958 4.484375 7.625 4.5130208 7.8125 4.5703125 C 8.0052083 4.6276042 8.1640625 4.7109375 8.2890625 4.8203125 C 8.4140625 4.9244792 8.5078125 5.0572917 8.5703125 5.21875 C 8.6328125 5.3802083 8.6640625 5.5625 8.6640625 5.765625 C 8.6640622 5.9479167 8.6354163 6.1223958 8.578125 6.2890625 C 8.5208333 6.4505208 8.4322917 6.59375 8.3125 6.71875 C 8.1979167 6.8385417 8.0520833 6.9348958 7.875 7.0078125 C 7.6979167 7.0755208 7.4609375 7.109375 7.1640625 7.109375 L 6.015625 7.109375 L 6.015625 4.484375 z M 6.015625 8.609375 L 7.234375 8.609375 C 7.609375 8.609375 7.9140625 8.6432292 8.1484375 8.7109375 C 8.3828125 8.7786458 8.5755208 8.875 8.7265625 9 C 8.8776042 9.125 8.9921875 9.28125 9.0703125 9.46875 C 9.1484375 9.6510417 9.1875 9.859375 9.1875 10.09375 C 9.1875 10.317708 9.1458333 10.51823 9.0625 10.695312 C 8.984375 10.867189 8.8723958 11.013022 8.7265625 11.132812 C 8.5859375 11.247397 8.4166667 11.335937 8.21875 11.398438 C 8.0260417 11.45573 7.7864583 11.484375 7.5 11.484375 L 6.015625 11.484375 L 6.015625 8.609375 z "
           inkscape:radius="0"
           sodipodi:type="inkscape:offset" />
      </g>
    </g>
  </g>
</svg>
