<?xml version="1.0" encoding="UTF-8" standalone="no"?>
<!-- Created with Inkscape (http://www.inkscape.org/) -->

<svg
   xmlns:dc="http://purl.org/dc/elements/1.1/"
   xmlns:cc="http://creativecommons.org/ns#"
   xmlns:rdf="http://www.w3.org/1999/02/22-rdf-syntax-ns#"
   xmlns:svg="http://www.w3.org/2000/svg"
   xmlns="http://www.w3.org/2000/svg"
   xmlns:sodipodi="http://sodipodi.sourceforge.net/DTD/sodipodi-0.dtd"
   xmlns:inkscape="http://www.inkscape.org/namespaces/inkscape"
   width="32"
   height="32"
   id="svg2"
   sodipodi:version="0.32"
   inkscape:version="0.92.3 (2405546, 2018-03-11)"
   version="1.0"
   sodipodi:docname="insertremark_200.svg"
   inkscape:output_extension="org.inkscape.output.svg.inkscape"
   inkscape:export-filename="insertremark_200.png"
   inkscape:export-xdpi="96"
   inkscape:export-ydpi="96">
  <defs
     id="defs4" />
  <sodipodi:namedview
     id="base"
     pagecolor="#ffffff"
     bordercolor="#666666"
     borderopacity="1.0"
     inkscape:pageopacity="0.0"
     inkscape:pageshadow="2"
     inkscape:zoom="20.434783"
     inkscape:cx="8.106687"
     inkscape:cy="16.075956"
     inkscape:document-units="px"
     inkscape:current-layer="layer1"
     showgrid="true"
     objecttolerance="10"
     gridtolerance="10"
     guidetolerance="10"
     showguides="true"
     inkscape:guide-bbox="true"
     inkscape:window-width="1920"
     inkscape:window-height="1137"
     inkscape:window-x="-8"
     inkscape:window-y="-8"
     inkscape:window-maximized="1">
    <inkscape:grid
       type="xygrid"
       id="grid2409"
       visible="true"
       enabled="true"
       spacingx="0.5"
       spacingy="0.5"
       empspacing="2"
       snapvisiblegridlinesonly="true"
       originx="0"
       originy="0" />
  </sodipodi:namedview>
  <metadata
     id="metadata7">
    <rdf:RDF>
      <cc:Work
         rdf:about="">
        <dc:format>image/svg+xml</dc:format>
        <dc:type
           rdf:resource="http://purl.org/dc/dcmitype/StillImage" />
        <dc:title />
      </cc:Work>
    </rdf:RDF>
  </metadata>
  <g
     inkscape:label="Ebene 1"
     inkscape:groupmode="layer"
     id="layer1">
    <g
       id="g849">
      <path
         d="m 11.728516,4.5 c -1.8669115,0 -3.3955228,0.3270775 -4.494141,1.265625 -4.216e-4,3.571e-4 4.214e-4,0.0016 0,0.00195 C 6.0999644,6.7292206 5.6660156,8.2615769 5.6660156,10.058594 v 2.613281 c 0,0.588589 -0.1308169,0.868226 -0.1875,0.939453 -0.056683,0.07123 -0.061198,0.111328 -0.40625,0.111328 a 1.1876203,1.1876203 0 0 0 -1.1875,1.1875 v 2.15625 a 1.1876203,1.1876203 0 0 0 1.1875,1.1875 c 0.3541664,0 0.370614,0.04773 0.4199219,0.107422 0.049308,0.05969 0.1738281,0.306075 0.1738281,0.861328 v 2.8125 c 0,1.792721 0.4424471,3.327013 1.6015625,4.263672 C 8.3724382,27.191644 9.8801305,27.5 11.728516,27.5 a 1.1876203,1.1876203 0 0 0 1.1875,-1.1875 v -2.191406 a 1.1876203,1.1876203 0 0 0 -1.1875,-1.1875 c -0.466567,0 -0.562763,-0.09817 -0.5625,-0.09766 0.02175,0.02228 -0.125,-0.215308 -0.125,-0.824219 v -2.402344 c 0,-1.081436 -0.163811,-2.04125 -0.578125,-2.867187 -0.169598,-0.338095 -0.5495692,-0.477356 -0.806641,-0.75 0.2567361,-0.270357 0.634268,-0.410788 0.804688,-0.746094 0.415538,-0.817587 0.580078,-1.767535 0.580078,-2.832032 V 9.9179688 c 0,-0.4976952 0.110739,-0.6751169 0.15625,-0.7246094 0.04551,-0.049493 0.121484,-0.1269532 0.53125,-0.1269532 a 1.1876203,1.1876203 0 0 0 1.1875,-1.1875 V 5.6875 A 1.1876203,1.1876203 0 0 0 11.728516,4.5 Z m 8.554687,0 a 1.1876203,1.1876203 0 0 0 -1.1875,1.1875 v 2.1914062 a 1.1876203,1.1876203 0 0 0 1.1875,1.1875 c 0.409765,0 0.48574,0.077461 0.53125,0.1269532 0.04551,0.049493 0.15625,0.2269144 0.15625,0.7246094 v 2.4023432 c 0,1.097688 0.15997,2.068834 0.568359,2.904297 0.168823,0.34537 0.552284,0.490361 0.810547,0.769532 -0.254845,0.265669 -0.631767,0.39822 -0.800781,0.728515 -0.415725,0.81243 -0.578125,1.756113 -0.578125,2.816406 v 2.496094 c 0,0.602745 -0.152398,0.822117 -0.119141,0.78711 a 1.1876203,1.1876203 0 0 0 -0.0098,0.01172 c -3.33e-4,3.6e-4 -0.09555,0.09961 -0.558594,0.09961 a 1.1876203,1.1876203 0 0 0 -1.1875,1.1875 V 26.3125 a 1.1876203,1.1876203 0 0 0 1.1875,1.1875 c 1.85254,0 3.357333,-0.304353 4.453125,-1.205078 l 0.002,-0.002 c 1.160197,-0.948576 1.583985,-2.496966 1.583985,-4.328125 v -2.707032 c 0,-0.568536 0.126552,-0.825682 0.179687,-0.890624 0.05314,-0.06494 0.07002,-0.113282 0.425781,-0.113282 a 1.1876203,1.1876203 0 0 0 1.1875,-1.1875 v -2.15625 a 1.1876203,1.1876203 0 0 0 -1.1875,-1.1875 c -0.35317,0 -0.366646,-0.04506 -0.421875,-0.113281 -0.05523,-0.06822 -0.183593,-0.335999 -0.183593,-0.914063 v -2.683593 c 0,-1.7695039 -0.441119,-3.2885817 -1.56836,-4.2441409 -2.2e-4,-1.886e-4 2.21e-4,-0.00176 0,-0.00195 C 23.658325,4.8296667 22.135886,4.5 20.283203,4.5 Z"
         id="path829"
         style="font-style:normal;font-variant:normal;font-weight:bold;font-stretch:normal;font-size:medium;line-height:25px;font-family:'Segoe UI';-inkscape-font-specification:'Segoe UI Bold';letter-spacing:0px;word-spacing:0px;fill:#ffffff;fill-opacity:1;stroke:none;stroke-width:1px;stroke-linecap:butt;stroke-linejoin:miter;stroke-opacity:1"
         inkscape:original="M 11.728516 5.6875 C 10.009765 5.6875 8.7675781 6.015625 8.0019531 6.671875 C 7.2363281 7.3203125 6.8535156 8.4492189 6.8535156 10.058594 L 6.8535156 12.671875 C 6.8535156 14.164063 6.2597656 14.910156 5.0722656 14.910156 L 5.0722656 17.066406 C 6.2597656 17.066406 6.8535156 17.785156 6.8535156 19.222656 L 6.8535156 22.035156 C 6.8535156 23.636718 7.2402344 24.75 8.0136719 25.375 C 8.7871095 26 10.025391 26.3125 11.728516 26.3125 L 11.728516 24.121094 C 11.064453 24.121094 10.583984 23.960937 10.287109 23.640625 C 9.9980466 23.320313 9.8535156 22.777344 9.8535156 22.011719 L 9.8535156 19.609375 C 9.8535156 17.695313 9.2519531 16.496095 8.0488281 16.011719 L 8.0488281 15.964844 C 9.2519531 15.472656 9.8535156 14.289062 9.8535156 12.414062 L 9.8535156 9.9179688 C 9.8535156 8.5585938 10.478515 7.8789062 11.728516 7.8789062 L 11.728516 5.6875 z M 20.283203 5.6875 L 20.283203 7.8789062 C 21.533203 7.8789062 22.158203 8.5585938 22.158203 9.9179688 L 22.158203 12.320312 C 22.158203 14.273437 22.75586 15.496097 23.951172 15.988281 L 23.951172 16.035156 C 22.75586 16.503906 22.158203 17.671875 22.158203 19.539062 L 22.158203 22.035156 C 22.158203 22.792968 22.009767 23.328125 21.712891 23.640625 C 21.416016 23.960937 20.939452 24.121094 20.283203 24.121094 L 20.283203 26.3125 C 21.99414 26.3125 23.228516 26 23.986328 25.375 C 24.751953 24.75 25.134766 23.613281 25.134766 21.964844 L 25.134766 19.257812 C 25.134766 17.796875 25.732422 17.066406 26.927734 17.066406 L 26.927734 14.910156 C 25.732422 14.910156 25.134766 14.171875 25.134766 12.695312 L 25.134766 10.011719 C 25.134766 8.4335939 24.751953 7.3203125 23.986328 6.671875 C 23.220703 6.015625 21.986327 5.6875 20.283203 5.6875 z "
         inkscape:radius="1.1875015"
         sodipodi:type="inkscape:offset" />
      <path
         d="m 26.927734,17.066407 q -1.792968,0 -1.792968,2.191406 v 2.70703 q 0,2.472656 -1.148438,3.410156 -1.136718,0.9375 -3.703124,0.9375 v -2.191406 q 0.984374,0 1.429686,-0.480468 0.445314,-0.46875 0.445314,-1.605468 v -2.496094 q 0,-2.800781 1.792968,-3.503906 v -0.04688 Q 22.158204,15.25 22.158204,12.320313 V 9.9179691 q 0,-2.0390624 -1.875,-2.0390624 V 5.6875005 q 2.554686,0 3.703124,0.984375 1.148438,0.9726562 1.148438,3.3398435 v 2.683594 q 0,2.214844 1.792968,2.214844 z M 11.728516,26.3125 q -2.5546876,0 -3.714844,-0.9375 -1.1601562,-0.9375 -1.1601562,-3.339843 v -2.8125 q 0,-2.15625 -1.78125,-2.15625 v -2.15625 q 1.78125,0 1.78125,-2.238282 v -2.613281 q 0,-2.4140623 1.1484376,-3.3867185 1.1484374,-0.984375 3.7265626,-0.984375 v 2.1914062 q -1.8750002,0 -1.8750002,2.0390624 v 2.4960939 q 0,2.8125 -1.8046874,3.550781 v 0.04687 q 1.8046874,0.726564 1.8046874,3.597657 v 2.402344 q 0,1.148438 0.4335942,1.628906 0.445312,0.480468 1.441406,0.480468 z"
         style="font-style:normal;font-variant:normal;font-weight:bold;font-stretch:normal;font-size:medium;line-height:25px;font-family:'Segoe UI';-inkscape-font-specification:'Segoe UI Bold';letter-spacing:0px;word-spacing:0px;fill:#374548;fill-opacity:1;stroke:none;stroke-width:1px;stroke-linecap:butt;stroke-linejoin:miter;stroke-opacity:1"
         id="path833"
         inkscape:connector-curvature="0" />
    </g>
  </g>
</svg>
