<?xml version="1.0" encoding="UTF-8" standalone="no"?>
<!-- Created with Inkscape (http://www.inkscape.org/) -->

<svg
   xmlns:dc="http://purl.org/dc/elements/1.1/"
   xmlns:cc="http://creativecommons.org/ns#"
   xmlns:rdf="http://www.w3.org/1999/02/22-rdf-syntax-ns#"
   xmlns:svg="http://www.w3.org/2000/svg"
   xmlns="http://www.w3.org/2000/svg"
   xmlns:sodipodi="http://sodipodi.sourceforge.net/DTD/sodipodi-0.dtd"
   xmlns:inkscape="http://www.inkscape.org/namespaces/inkscape"
   width="16"
   height="16"
   id="svg2"
   sodipodi:version="0.32"
   inkscape:version="0.92.3 (2405546, 2018-03-11)"
   version="1.0"
   sodipodi:docname="insertremark.svg"
   inkscape:output_extension="org.inkscape.output.svg.inkscape"
   inkscape:export-filename="insertremark.png"
   inkscape:export-xdpi="96"
   inkscape:export-ydpi="96">
  <defs
     id="defs4" />
  <sodipodi:namedview
     id="base"
     pagecolor="#ffffff"
     bordercolor="#666666"
     borderopacity="1.0"
     inkscape:pageopacity="0.0"
     inkscape:pageshadow="2"
     inkscape:zoom="39.026921"
     inkscape:cx="5.3560106"
     inkscape:cy="6.3657662"
     inkscape:document-units="px"
     inkscape:current-layer="layer1"
     showgrid="true"
     objecttolerance="10"
     gridtolerance="10"
     guidetolerance="10"
     showguides="true"
     inkscape:guide-bbox="true"
     inkscape:window-width="1920"
     inkscape:window-height="1137"
     inkscape:window-x="-8"
     inkscape:window-y="-8"
     inkscape:snap-bbox="true"
     inkscape:bbox-paths="true"
     inkscape:bbox-nodes="true"
     inkscape:snap-bbox-edge-midpoints="true"
     inkscape:snap-bbox-midpoints="true"
     inkscape:object-paths="true"
     inkscape:snap-intersection-paths="true"
     inkscape:object-nodes="true"
     inkscape:snap-smooth-nodes="true"
     inkscape:snap-midpoints="true"
     inkscape:snap-object-midpoints="true"
     inkscape:snap-center="true"
     inkscape:window-maximized="1">
    <inkscape:grid
       type="xygrid"
       id="grid2409"
       visible="true"
       enabled="true"
       spacingx="0.5"
       spacingy="0.5"
       empspacing="2"
       snapvisiblegridlinesonly="true"
       originx="0"
       originy="0" />
  </sodipodi:namedview>
  <metadata
     id="metadata7">
    <rdf:RDF>
      <cc:Work
         rdf:about="">
        <dc:format>image/svg+xml</dc:format>
        <dc:type
           rdf:resource="http://purl.org/dc/dcmitype/StillImage" />
        <dc:title />
      </cc:Work>
    </rdf:RDF>
  </metadata>
  <g
     inkscape:label="Ebene 1"
     inkscape:groupmode="layer"
     id="layer1">
    <g
       id="g844">
      <path
         d="m 5.8632812,2 c -0.9684469,0 -1.7974974,0.1652188 -2.421875,0.6992188 -6.761e-4,5.782e-4 -0.00128,0.00137 -0.00195,0.00195 C 2.7916178,3.2527448 2.5605469,4.109554 2.5605469,5.0507812 v 1.3066407 c 0,0.2179962 -0.031713,0.2518564 -0.029297,0.2539062 A 0.8653209,0.8653209 0 0 0 1.6699219,7.4765625 v 1.078125 a 0.8653209,0.8653209 0 0 0 0.8652343,0.8652344 c 0.1223102,0 0.031944,-0.00625 0,-0.044922 -0.031944,-0.038669 0.025391,0.017564 0.025391,0.2578125 v 1.4062495 c 1e-7,0.940063 0.2346131,1.80417 0.9023437,2.34375 0.6281989,0.507636 1.4429892,0.660157 2.4003906,0.660157 A 0.8653209,0.8653209 0 0 0 6.7285156,13.177734 V 12.082031 A 0.8653209,0.8653209 0 0 0 5.8632812,11.216797 c -0.1745839,0 -0.1311196,-0.01525 -0.076172,0.0332 0.063735,0.07283 0.00391,0.03478 0.00391,-0.222656 V 9.8261719 C 5.7910157,9.2576012 5.7070263,8.7363182 5.4746094,8.2714844 5.4182275,8.1587206 5.2769705,8.1195728 5.2011719,8.0175781 5.2767841,7.9166871 5.4160697,7.8773235 5.4726562,7.765625 5.7059682,7.3050808 5.7910156,6.7891968 5.7910156,6.2285156 V 4.9804688 c 0,-0.2072408 0.044143,-0.2213205 0.00586,-0.1796876 -0.038283,0.041633 -0.08927,0.025391 0.066406,0.025391 A 0.8653209,0.8653209 0 0 0 6.7285156,3.9609375 V 2.8652344 A 0.8653209,0.8653209 0 0 0 5.8632812,2 Z M 10.142578,2 A 0.8653209,0.8653209 0 0 0 9.2773438,2.8652344 v 1.0957031 a 0.8653209,0.8653209 0 0 0 0.8652342,0.8652344 c 0.155676,0 0.10469,0.016242 0.06641,-0.025391 -0.03828,-0.041633 0.0059,-0.027553 0.0059,0.1796876 v 1.2011718 c 0,0.5765352 0.08326,1.1013402 0.3125,1.5703125 0.05639,0.1153567 0.199075,0.1571708 0.27539,0.2617188 -0.07477,0.098868 -0.213491,0.1346242 -0.269531,0.2441406 -0.234587,0.4584413 -0.318359,0.9740905 -0.318359,1.5332031 v 1.2480464 c 0,0.26295 -0.07582,0.301233 0.01367,0.207032 a 0.8653209,0.8653209 0 0 0 -0.0078,0.0078 c 0.06505,-0.07019 0.109228,-0.03711 -0.07813,-0.03711 a 0.8653209,0.8653209 0 0 0 -0.8652342,0.865234 v 1.095703 a 0.8653209,0.8653209 0 0 0 0.8652342,0.865235 c 0.95907,0 1.772568,-0.15139 2.396484,-0.664063 0.670367,-0.547239 0.894532,-1.41546 0.894532,-2.375 V 9.6503906 c 0,-0.2480186 0.05921,-0.3120738 0.0293,-0.2753906 -0.02992,0.036683 -0.122577,0.044922 0,0.044922 A 0.8653209,0.8653209 0 0 0 14.328125,8.5546875 V 7.4765625 A 0.8653209,0.8653209 0 0 0 13.462891,6.6113281 c -0.120692,0 -0.02643,0.00975 0.002,0.044922 0.02838,0.035175 -0.03125,-0.033944 -0.03125,-0.2871094 V 5.0273438 c 0,-0.9283615 -0.236267,-1.7790258 -0.878906,-2.3261719 l -0.002,-0.00195 C 11.930564,2.1671062 11.104226,2 10.142578,2 Z"
         id="path834"
         style="font-style:normal;font-variant:normal;font-weight:bold;font-stretch:normal;font-size:medium;line-height:25px;font-family:'Segoe UI';-inkscape-font-specification:'Segoe UI Bold';letter-spacing:0px;word-spacing:0px;fill:#ffffff;fill-opacity:1;stroke:none;stroke-width:1px;stroke-linecap:butt;stroke-linejoin:miter;stroke-opacity:1"
         inkscape:original="M 5.8632812 2.8652344 C 5.0039063 2.8652344 4.3847656 3.0292969 4.0019531 3.3574219 C 3.6191406 3.6816406 3.4257812 4.2460938 3.4257812 5.0507812 L 3.4257812 6.3574219 C 3.4257812 7.1035156 3.1289062 7.4765625 2.5351562 7.4765625 L 2.5351562 8.5546875 C 3.1289062 8.5546875 3.4257812 8.9140625 3.4257812 9.6328125 L 3.4257812 11.039062 C 3.4257813 11.839843 3.6191406 12.396484 4.0058594 12.708984 C 4.3925782 13.021484 5.0117188 13.177734 5.8632812 13.177734 L 5.8632812 12.082031 C 5.53125 12.082031 5.2929687 12.001953 5.1445312 11.841797 C 5 11.681641 4.9257812 11.410156 4.9257812 11.027344 L 4.9257812 9.8261719 C 4.9257813 8.8691406 4.6269531 8.2695316 4.0253906 8.0273438 L 4.0253906 8.0039062 C 4.6269531 7.7578125 4.9257812 7.1660156 4.9257812 6.2285156 L 4.9257812 4.9804688 C 4.9257812 4.3007813 5.2382812 3.9609375 5.8632812 3.9609375 L 5.8632812 2.8652344 z M 10.142578 2.8652344 L 10.142578 3.9609375 C 10.767578 3.9609375 11.080078 4.3007813 11.080078 4.9804688 L 11.080078 6.1816406 C 11.080078 7.1582032 11.378906 7.7695313 11.976562 8.015625 L 11.976562 8.0390625 C 11.378906 8.2734375 11.080078 8.8574219 11.080078 9.7910156 L 11.080078 11.039062 C 11.080078 11.417969 11.003907 11.685547 10.855469 11.841797 C 10.707031 12.001953 10.470703 12.082031 10.142578 12.082031 L 10.142578 13.177734 C 10.998047 13.177734 11.613281 13.021484 11.992188 12.708984 C 12.375 12.396484 12.568359 11.828125 12.568359 11.003906 L 12.568359 9.6503906 C 12.568359 8.9199219 12.865235 8.5546875 13.462891 8.5546875 L 13.462891 7.4765625 C 12.865235 7.4765625 12.568359 7.1074219 12.568359 6.3691406 L 12.568359 5.0273438 C 12.568359 4.2382813 12.375 3.6816406 11.992188 3.3574219 C 11.609375 3.0292969 10.99414 2.8652344 10.142578 2.8652344 z "
         inkscape:radius="0.86523438"
         sodipodi:type="inkscape:offset" />
      <path
         d="m 13.463867,8.5549536 q -0.896484,0 -0.896484,1.0957031 v 1.3535153 q 0,1.236328 -0.574219,1.705078 -0.568359,0.46875 -1.851562,0.46875 v -1.095703 q 0.492187,0 0.714843,-0.240234 0.222657,-0.234375 0.222657,-0.802734 V 9.7912817 q 0,-1.4003906 0.896484,-1.7519531 V 8.0158911 Q 11.079102,7.6467505 11.079102,6.1819067 V 4.9807348 q 0,-1.0195312 -0.9375,-1.0195312 V 2.8655005 q 1.277343,0 1.851562,0.4921875 0.574219,0.4863281 0.574219,1.6699218 v 1.3417969 q 0,1.1074219 0.896484,1.1074219 z M 5.8642578,13.178 q -1.2773437,0 -1.8574219,-0.46875 Q 3.4267578,12.2405 3.4267578,11.039329 V 9.6330786 q 0,-1.078125 -0.890625,-1.078125 v -1.078125 q 0.890625,0 0.890625,-1.1191406 V 5.0510473 q 0,-1.2070312 0.5742188,-1.6933593 0.5742187,-0.4921875 1.8632812,-0.4921875 v 1.0957031 q -0.9375,0 -0.9375,1.0195312 v 1.2480469 q 0,1.40625 -0.9023437,1.7753906 v 0.023437 Q 4.9267578,8.3908911 4.9267578,9.826438 v 1.201172 q 0,0.574219 0.2167969,0.814453 0.2226562,0.240234 0.7207031,0.240234 z"
         style="font-style:normal;font-variant:normal;font-weight:bold;font-stretch:normal;font-size:medium;line-height:25px;font-family:'Segoe UI';-inkscape-font-specification:'Segoe UI Bold';letter-spacing:0px;word-spacing:0px;fill:#374548;fill-opacity:1;stroke:none;stroke-width:1px;stroke-linecap:butt;stroke-linejoin:miter;stroke-opacity:1"
         id="path833"
         inkscape:connector-curvature="0" />
    </g>
  </g>
</svg>
