<?xml version="1.0" encoding="UTF-8" standalone="no"?>
<!-- Created with Inkscape (http://www.inkscape.org/) -->

<svg
   xmlns:dc="http://purl.org/dc/elements/1.1/"
   xmlns:cc="http://creativecommons.org/ns#"
   xmlns:rdf="http://www.w3.org/1999/02/22-rdf-syntax-ns#"
   xmlns:svg="http://www.w3.org/2000/svg"
   xmlns="http://www.w3.org/2000/svg"
   xmlns:sodipodi="http://sodipodi.sourceforge.net/DTD/sodipodi-0.dtd"
   xmlns:inkscape="http://www.inkscape.org/namespaces/inkscape"
   width="24"
   height="24"
   id="svg2"
   sodipodi:version="0.32"
   inkscape:version="0.92.3 (2405546, 2018-03-11)"
   version="1.0"
   sodipodi:docname="insertremark_150.svg"
   inkscape:output_extension="org.inkscape.output.svg.inkscape"
   inkscape:export-filename="insertremark_150.png"
   inkscape:export-xdpi="96"
   inkscape:export-ydpi="96">
  <defs
     id="defs4" />
  <sodipodi:namedview
     id="base"
     pagecolor="#ffffff"
     bordercolor="#666666"
     borderopacity="1.0"
     inkscape:pageopacity="0.0"
     inkscape:pageshadow="2"
     inkscape:zoom="26.111111"
     inkscape:cx="-0.62185284"
     inkscape:cy="11.784483"
     inkscape:document-units="px"
     inkscape:current-layer="layer1"
     showgrid="true"
     objecttolerance="10"
     gridtolerance="10"
     guidetolerance="10"
     showguides="true"
     inkscape:guide-bbox="true"
     inkscape:window-width="1920"
     inkscape:window-height="1137"
     inkscape:window-x="-8"
     inkscape:window-y="-8"
     inkscape:window-maximized="1"
     inkscape:snap-bbox="true"
     inkscape:bbox-paths="true"
     inkscape:bbox-nodes="true"
     inkscape:snap-bbox-edge-midpoints="true"
     inkscape:snap-bbox-midpoints="true"
     inkscape:object-paths="true"
     inkscape:snap-intersection-paths="true"
     inkscape:object-nodes="true"
     inkscape:snap-smooth-nodes="true"
     inkscape:snap-midpoints="true"
     inkscape:snap-object-midpoints="true"
     inkscape:snap-center="true">
    <inkscape:grid
       type="xygrid"
       id="grid2409"
       visible="true"
       enabled="true"
       spacingx="0.5"
       spacingy="0.5"
       empspacing="2"
       snapvisiblegridlinesonly="true"
       originx="0"
       originy="0" />
  </sodipodi:namedview>
  <metadata
     id="metadata7">
    <rdf:RDF>
      <cc:Work
         rdf:about="">
        <dc:format>image/svg+xml</dc:format>
        <dc:type
           rdf:resource="http://purl.org/dc/dcmitype/StillImage" />
        <dc:title />
      </cc:Work>
    </rdf:RDF>
  </metadata>
  <g
     inkscape:label="Ebene 1"
     inkscape:groupmode="layer"
     id="layer1"
     transform="translate(0,-24)">
    <g
       id="g836">
      <path
         d="m 8.796875,27 c -1.4473433,0 -2.6843618,0.245988 -3.6132812,1.039062 -4.285e-4,3.63e-4 4.281e-4,0.0016 0,0.002 C 4.2156687,28.861664 3.875,30.137816 3.875,31.544922 v 1.958984 c 0,0.391704 -0.091632,0.514209 -0.058594,0.472656 0.033039,-0.04155 0.1680715,-0.05859 -0.011719,-0.05859 a 1.2657516,1.2657516 0 0 0 -1.265625,1.265625 v 1.617187 a 1.2657516,1.2657516 0 0 0 1.265625,1.265625 c 0.1899673,0 0.066589,-0.0048 0.025391,-0.05469 -0.041198,-0.04987 0.044922,0.04144 0.044922,0.40625 v 2.109375 c 0,1.404219 0.3488422,2.687472 1.3398438,3.488281 C 6.148688,44.770247 7.3647148,45 8.796875,45 A 1.2657516,1.2657516 0 0 0 10.0625,43.734375 V 42.091797 A 1.2657516,1.2657516 0 0 0 8.796875,40.826172 c -0.270402,0 -0.2229806,-0.03356 -0.1425781,0.04102 0.095932,0.1088 0.00195,0.04151 0.00195,-0.357422 v -1.802735 c 0,-0.850362 -0.1259522,-1.627578 -0.4726562,-2.318359 C 8.0956642,36.213479 7.8788732,36.15145 7.7597656,35.994141 7.8777798,35.839086 8.091948,35.778194 8.1796875,35.605469 8.527463,34.920833 8.65625,34.149023 8.65625,33.310547 v -1.871094 c 0,-0.3158 0.067757,-0.345585 0.017578,-0.291015 -0.050179,0.05457 -0.1163084,0.02734 0.1230469,0.02734 A 1.2657516,1.2657516 0 0 0 10.0625,29.910156 V 28.265625 A 1.2657516,1.2657516 0 0 0 8.796875,27 Z m 6.416016,0 a 1.2657516,1.2657516 0 0 0 -1.265625,1.265625 v 1.642578 a 1.2657516,1.2657516 0 0 0 1.265625,1.265625 c 0.239355,0 0.173226,0.02723 0.123047,-0.02734 -0.05018,-0.05457 0.01758,-0.02478 0.01758,0.291016 v 1.802734 c 0,0.861235 0.124187,1.644511 0.464843,2.341797 0.08809,0.18031 0.309102,0.245967 0.429688,0.408203 -0.117844,0.153186 -0.332528,0.209979 -0.419922,0.38086 -0.348484,0.681386 -0.474609,1.448266 -0.474609,2.283203 v 1.873047 c 0,0.403087 -0.114314,0.466752 0.01367,0.332031 a 1.2657516,1.2657516 0 0 0 -0.0098,0.01172 c 0.09456,-0.102021 0.143414,-0.04687 -0.144531,-0.04687 a 1.2657516,1.2657516 0 0 0 -1.265625,1.265625 v 1.644531 A 1.2657516,1.2657516 0 0 0 15.212891,45 c 1.436604,0 2.651204,-0.226869 3.580078,-0.992188 h 0.002 c 0.992413,-0.813114 1.322266,-2.103028 1.322266,-3.533203 v -2.03125 c 0,-0.375642 0.08703,-0.478336 0.04883,-0.43164 -0.0382,0.0467 -0.161592,0.05469 0.0293,0.05469 a 1.2657516,1.2657516 0 0 0 1.265626,-1.265625 v -1.61914 a 1.2657516,1.2657516 0 0 0 -1.265626,-1.265625 c -0.18813,0 -0.0594,0.01026 -0.02344,0.05469 0.03596,0.04443 -0.05469,-0.06589 -0.05469,-0.449219 v -2.013672 c 0,-1.387647 -0.349581,-2.653707 -1.308594,-3.466796 -2.28e-4,-1.95e-4 2.27e-4,-0.0018 0,-0.002 C 17.882903,27.248741 16.650003,27 15.212891,27 Z"
         id="path822"
         style="font-style:normal;font-variant:normal;font-weight:bold;font-stretch:normal;font-size:medium;line-height:25px;font-family:'Segoe UI';-inkscape-font-specification:'Segoe UI Bold';letter-spacing:0px;word-spacing:0px;fill:#ffffff;fill-opacity:1;stroke:none;stroke-width:1px;stroke-linecap:butt;stroke-linejoin:miter;stroke-opacity:1"
         inkscape:original="M 8.796875 28.265625 C 7.5078125 28.265625 6.5761719 28.511719 6.0019531 29.003906 C 5.4277343 29.490234 5.140625 30.337891 5.140625 31.544922 L 5.140625 33.503906 C 5.140625 34.623047 4.6953125 35.183594 3.8046875 35.183594 L 3.8046875 36.800781 C 4.6953125 36.800781 5.140625 37.339843 5.140625 38.417969 L 5.140625 40.527344 C 5.140625 41.728514 5.4296875 42.5625 6.0097656 43.03125 C 6.5898438 43.5 7.5195313 43.734375 8.796875 43.734375 L 8.796875 42.091797 C 8.2988281 42.091797 7.9375 41.970703 7.7148438 41.730469 C 7.4980468 41.490235 7.390625 41.083985 7.390625 40.509766 L 7.390625 38.707031 C 7.390625 37.271485 6.939453 36.373048 6.0371094 36.009766 L 6.0371094 35.974609 C 6.939453 35.605469 7.390625 34.716797 7.390625 33.310547 L 7.390625 31.439453 C 7.390625 30.419922 7.859375 29.910156 8.796875 29.910156 L 8.796875 28.265625 z M 15.212891 28.265625 L 15.212891 29.908203 C 16.150391 29.908203 16.619141 30.417969 16.619141 31.4375 L 16.619141 33.240234 C 16.619141 34.705078 17.066407 35.621094 17.962891 35.990234 L 17.962891 36.027344 C 17.066407 36.378906 16.619141 37.253906 16.619141 38.654297 L 16.619141 40.527344 C 16.619141 41.095702 16.507813 41.496094 16.285156 41.730469 C 16.0625 41.970703 15.705078 42.089844 15.212891 42.089844 L 15.212891 43.734375 C 16.496094 43.734375 17.421876 43.5 17.990234 43.03125 C 18.564454 42.5625 18.851562 41.710937 18.851562 40.474609 L 18.851562 38.443359 C 18.851562 37.347656 19.298828 36.800781 20.195312 36.800781 L 20.195312 35.181641 C 19.298829 35.181641 18.851562 34.628906 18.851562 33.521484 L 18.851562 31.507812 C 18.851562 30.324218 18.564454 29.490234 17.990234 29.003906 C 17.416016 28.511719 16.490234 28.265625 15.212891 28.265625 z "
         inkscape:radius="1.265625"
         sodipodi:type="inkscape:offset" />
      <path
         d="m 20.195801,36.799805 q -1.344726,0 -1.344726,1.643555 v 2.030273 q 0,1.854492 -0.861329,2.557617 -0.852538,0.703125 -2.777343,0.703125 V 42.09082 q 0.738281,0 1.072265,-0.360351 0.333985,-0.351562 0.333985,-1.2041 v -1.872071 q 0,-2.100586 1.344726,-2.62793 v -0.03516 q -1.344726,-0.553711 -1.344726,-2.750977 v -1.801758 q 0,-1.529297 -1.40625,-1.529297 v -1.643554 q 1.916015,0 2.777343,0.738281 0.861329,0.729492 0.861329,2.504883 v 2.012695 q 0,1.661133 1.344726,1.661133 z m -11.3994142,6.93457 q -1.9160155,0 -2.7861328,-0.703125 -0.8701172,-0.703125 -0.8701172,-2.504881 v -2.109376 q 0,-1.617188 -1.3359375,-1.617188 v -1.617187 q 1.3359375,0 1.3359375,-1.678711 v -1.959961 q 0,-1.810547 0.8613282,-2.540039 0.8613281,-0.738281 2.7949218,-0.738281 v 1.643554 q -1.40625,0 -1.40625,1.529297 v 1.872071 q 0,2.109375 -1.3535155,2.663085 v 0.03516 q 1.3535155,0.544923 1.3535155,2.698243 v 1.801758 q 0,0.861329 0.3251954,1.221679 0.3339843,0.360351 1.0810546,0.360351 z"
         style="font-style:normal;font-variant:normal;font-weight:bold;font-stretch:normal;font-size:medium;line-height:25px;font-family:'Segoe UI';-inkscape-font-specification:'Segoe UI Bold';letter-spacing:0px;word-spacing:0px;fill:#374548;fill-opacity:1;stroke:none;stroke-width:1px;stroke-linecap:butt;stroke-linejoin:miter;stroke-opacity:1"
         id="path833"
         inkscape:connector-curvature="0" />
    </g>
  </g>
</svg>
