<?xml version="1.0" encoding="UTF-8" standalone="no"?>
<!-- Created with Inkscape (http://www.inkscape.org/) -->

<svg
   xmlns:dc="http://purl.org/dc/elements/1.1/"
   xmlns:cc="http://creativecommons.org/ns#"
   xmlns:rdf="http://www.w3.org/1999/02/22-rdf-syntax-ns#"
   xmlns:svg="http://www.w3.org/2000/svg"
   xmlns="http://www.w3.org/2000/svg"
   xmlns:sodipodi="http://sodipodi.sourceforge.net/DTD/sodipodi-0.dtd"
   xmlns:inkscape="http://www.inkscape.org/namespaces/inkscape"
   width="32"
   height="32"
   id="svg2"
   sodipodi:version="0.32"
   inkscape:version="0.92.3 (2405546, 2018-03-11)"
   version="1.0"
   sodipodi:docname="insertcodetag_200.svg"
   inkscape:output_extension="org.inkscape.output.svg.inkscape"
   inkscape:export-filename="insertcodetag_200.png"
   inkscape:export-xdpi="96"
   inkscape:export-ydpi="96">
  <defs
     id="defs4" />
  <sodipodi:namedview
     id="base"
     pagecolor="#ffffff"
     bordercolor="#666666"
     borderopacity="1.0"
     inkscape:pageopacity="0.0"
     inkscape:pageshadow="2"
     inkscape:zoom="20.763949"
     inkscape:cx="16.441672"
     inkscape:cy="15.538963"
     inkscape:document-units="px"
     inkscape:current-layer="layer1"
     showgrid="true"
     objecttolerance="10"
     gridtolerance="10"
     guidetolerance="10"
     showguides="true"
     inkscape:guide-bbox="true"
     inkscape:window-width="1920"
     inkscape:window-height="1137"
     inkscape:window-x="-8"
     inkscape:window-y="-8"
     inkscape:window-maximized="1"
     inkscape:snap-bbox="true"
     inkscape:bbox-paths="true"
     inkscape:bbox-nodes="true"
     inkscape:snap-bbox-edge-midpoints="true"
     inkscape:snap-bbox-midpoints="true"
     inkscape:object-paths="true"
     inkscape:snap-intersection-paths="true"
     inkscape:snap-smooth-nodes="true"
     inkscape:snap-midpoints="true"
     inkscape:snap-object-midpoints="true">
    <inkscape:grid
       type="xygrid"
       id="grid2409"
       visible="true"
       enabled="true"
       spacingx="0.5"
       spacingy="0.5"
       empspacing="2"
       snapvisiblegridlinesonly="true"
       originx="0"
       originy="0" />
  </sodipodi:namedview>
  <metadata
     id="metadata7">
    <rdf:RDF>
      <cc:Work
         rdf:about="">
        <dc:format>image/svg+xml</dc:format>
        <dc:type
           rdf:resource="http://purl.org/dc/dcmitype/StillImage" />
        <dc:title />
      </cc:Work>
    </rdf:RDF>
  </metadata>
  <g
     inkscape:label="Ebene 1"
     inkscape:groupmode="layer"
     id="layer1">
    <g
       id="g851">
      <path
         transform="matrix(2.001955,0,0,2.001955,-0.0156405,-0.01106578)"
         d="m 9.46875,2.265625 c -0.1294074,0 -0.2530754,0.00799 -0.3789062,0.023437 -0.1169537,0.011088 -0.2437926,0.024018 -0.421875,0.089844 C 8.4928954,2.4436198 8.3181671,2.5589016 8.171875,2.7207031 8.0315696,2.8749411 7.9376374,3.050848 7.890625,3.2089844 L 7.9023438,3.1699219 5.9257812,8.9140625 C 5.860874,8.8185825 5.846207,8.726468 5.734375,8.6425781 5.6269798,8.560982 5.5337591,8.5076951 5.453125,8.46875 a 0.9913379,0.9913379 0 0 0 -0.00195,-0.00195 L 4.4609375,7.9921875 5.5097656,7.4824219 A 0.9913379,0.9913379 0 0 0 5.53125,7.4707031 C 5.6208856,7.4243177 5.7180148,7.3689457 5.8300781,7.2695312 6.0690821,7.0575127 6.1400607,6.8381231 6.1816406,6.6875 c 0.044471,-0.1610706 0.055227,-0.2871817 0.060547,-0.4160156 0.00848,-0.120635 0.011719,-0.2413362 0.011719,-0.3847656 0,-0.2692775 0.061151,-0.4700229 -0.2050781,-0.9140626 C 5.9157973,4.7501714 5.5965246,4.4874796 5.2695312,4.4375 4.9386058,4.3869194 4.7087277,4.4806528 4.5527344,4.5585938 A 0.9913379,0.9913379 0 0 0 4.5429688,4.5625 L 0.6875,6.5410156 a 0.9913379,0.9913379 0 0 0 -0.0507813,0.029297 C 0.46055725,6.6744964 0.34613171,6.8039804 0.2734375,6.9042969 a 0.9913379,0.9913379 0 0 0 -0.0136719,0.019531 C 0.14632789,7.0881944 0.10040341,7.2373185 0.0703125,7.3710938 0.07004248,7.3722942 0.06862649,7.373802 0.06835937,7.375 0.04375633,7.4817264 0.03242273,7.5691176 0.0234375,7.6621094 0.0121496,7.7748389 0.0078125,7.8808576 0.0078125,7.9921875 c 0,0.2112939 0.00345644,0.3854698 0.0546875,0.6152344 a 0.9913379,0.9913379 0 0 0 0.0097656,0.044922 c 0.06325589,0.2338147 0.19572297,0.5498626 0.56054688,0.765625 a 0.9913379,0.9913379 0 0 0 0.0488281,0.027344 L 4.5410156,11.435547 a 0.9913379,0.9913379 0 0 0 0.023437,0.01172 c 0.1113754,0.05381 0.2252191,0.108213 0.4394531,0.132812 a 0.9913379,0.9913379 0 0 0 0.00586,0 l -0.1152344,0.333984 a 0.9913379,0.9913379 0 0 0 0,0.002 c -0.048278,0.141573 -0.1055884,0.339886 -0.0625,0.621093 0.05131,0.332936 0.2971211,0.652012 0.5214844,0.794922 a 0.9913379,0.9913379 0 0 0 0.029297,0.01758 c 0.2154581,0.127435 0.387392,0.161799 0.5488281,0.1875 0.1631773,0.02598 0.3200872,0.03516 0.4941406,0.03516 0.1298065,0 0.2506086,-0.0083 0.3808594,-0.02539 0.130003,-0.01309 0.262523,-0.03663 0.4042969,-0.08789 0.1322951,-0.04592 0.3064413,-0.112301 0.4960937,-0.308593 0.149857,-0.155092 0.231809,-0.320082 0.28125,-0.453125 a 0.9913379,0.9913379 0 0 0 0.00781,-0.02344 L 9.9589844,6.9570312 c 0.067057,0.1297249 0.1186136,0.2621343 0.2636716,0.3789063 a 0.9913379,0.9913379 0 0 0 0.03906,0.03125 c 0.116752,0.084576 0.214759,0.1311517 0.304687,0.171875 l -0.02148,-0.00781 0.990234,0.4765625 -1.009765,0.4902344 C 10.407808,8.5487525 10.275473,8.6336658 10.148438,8.7539062 9.9337679,8.9569975 9.8522715,9.1664821 9.8125,9.3105469 9.7674515,9.4737257 9.7590822,9.5806323 9.75,9.6933594 a 0.9913379,0.9913379 0 0 0 -0.00195,0.041016 c -0.00395,0.09885 -0.00781,0.2228664 -0.00781,0.376953 0,0.123529 0.00412,0.236501 0.015625,0.355469 a 0.9913379,0.9913379 0 0 0 0.00586,0.05469 c 0.020177,0.132246 0.039184,0.277824 0.1679687,0.5 a 0.9913379,0.9913379 0 0 0 0.037109,0.05664 c 0.1436531,0.212393 0.4714191,0.453839 0.8046871,0.488281 0.316935,0.03281 0.526488,-0.05846 0.677735,-0.136718 l 3.857422,-1.976563 -0.05078,0.023437 c 0.213805,-0.094829 0.367555,-0.2491077 0.466797,-0.390625 0.114826,-0.1633396 0.165574,-0.3171584 0.195313,-0.4453125 0.02562,-0.096671 0.04811,-0.1957552 0.05859,-0.2988281 0.01163,-0.1142894 0.01563,-0.2213663 0.01563,-0.3339844 0,-0.2214915 -0.01144,-0.416538 -0.08008,-0.6601563 -0.05521,-0.2121798 -0.147657,-0.5747135 -0.625,-0.8027343 l -3.83789,-1.9804688 c -0.104186,-0.05391 -0.228018,-0.1229065 -0.47461,-0.1484375 -0.06677,-0.00691 -0.102176,0.065278 -0.169921,0.074219 L 11,3.9238281 a 0.9913379,0.9913379 0 0 0 0.01563,-0.050781 c 0.04205,-0.1479363 0.07922,-0.3261054 0.04102,-0.5742188 C 11.005324,2.9659771 10.759548,2.646826 10.535156,2.5039062 10.307623,2.3589875 10.12723,2.3249947 9.9628906,2.2988281 9.7828945,2.2695318 9.634166,2.265625 9.46875,2.265625 Z m -3.4375,8.826172 -0.041016,0.05859 c 0.015434,-0.02054 0.00618,-0.02727 0.019531,-0.04687 0.00389,-0.0056 0.017913,-0.0062 0.021484,-0.01172 z"
         id="path842"
         style="font-style:normal;font-variant:normal;font-weight:bold;font-stretch:normal;font-size:medium;line-height:25px;font-family:Calibri;-inkscape-font-specification:'Calibri Bold';letter-spacing:0px;word-spacing:0px;fill:#ffffff;fill-opacity:1;stroke:none;stroke-width:0.98296046px;stroke-linecap:butt;stroke-linejoin:miter;stroke-opacity:1"
         inkscape:original="M 9.46875 3.2578125 C 9.3613932 3.2578125 9.2705221 3.2630208 9.1933594 3.2734375 C 9.1195516 3.2803815 9.0586874 3.2912324 9.0117188 3.3085938 C 8.9647503 3.3259551 8.92723 3.3515625 8.9003906 3.3828125 C 8.8735513 3.4105905 8.8532631 3.4470488 8.8398438 3.4921875 L 5.8320312 12.236328 C 5.8119019 12.295356 5.8038369 12.345052 5.8105469 12.386719 C 5.8172569 12.431855 5.8431054 12.468314 5.8867188 12.496094 C 5.9336873 12.523874 6.0006632 12.544707 6.0878906 12.558594 C 6.175118 12.57248 6.2882303 12.580078 6.4257812 12.580078 C 6.536493 12.580078 6.626813 12.574873 6.6972656 12.564453 C 6.7710734 12.557506 6.8299845 12.544704 6.8769531 12.527344 C 6.9272765 12.509984 6.9673013 12.488717 6.9941406 12.460938 C 7.02098 12.433161 7.0418191 12.396702 7.0585938 12.351562 L 10.0625 3.6015625 C 10.07928 3.5425348 10.084838 3.4908854 10.078125 3.4492188 C 10.071412 3.4040801 10.045566 3.3676218 10.001953 3.3398438 C 9.9583395 3.3120658 9.893868 3.2912324 9.8066406 3.2773438 C 9.7227682 3.2634551 9.6096559 3.2578125 9.46875 3.2578125 z M 10.873047 5.4023438 C 10.8395 5.3988718 10.810596 5.4140625 10.787109 5.4453125 C 10.766983 5.4765625 10.752254 5.5286458 10.742188 5.6015625 C 10.735474 5.6744792 10.732422 5.7738715 10.732422 5.9023438 C 10.732422 6.0481771 10.734948 6.1651475 10.738281 6.2519531 C 10.744995 6.3352865 10.756664 6.4029948 10.773438 6.4550781 C 10.790217 6.5036895 10.813557 6.5401478 10.84375 6.5644531 C 10.877303 6.5887591 10.920936 6.6124134 10.974609 6.6367188 L 13.818359 8.0019531 L 10.917969 9.4082031 C 10.877709 9.4255645 10.845752 9.4463978 10.822266 9.4707031 C 10.798786 9.4915362 10.780998 9.5256074 10.767578 9.5742188 C 10.754158 9.6228299 10.744995 9.6901042 10.738281 9.7734375 C 10.734948 9.8567708 10.732422 9.9689667 10.732422 10.111328 C 10.732422 10.215495 10.735474 10.301649 10.742188 10.371094 C 10.752254 10.437068 10.766983 10.488717 10.787109 10.523438 C 10.810596 10.558164 10.8395 10.576611 10.873047 10.580078 C 10.906591 10.583551 10.947167 10.573135 10.994141 10.548828 L 14.853516 8.5703125 C 14.877002 8.5598958 14.897289 8.5418835 14.914062 8.5175781 C 14.934189 8.4898001 14.948918 8.4533418 14.958984 8.4082031 C 14.972398 8.3630641 14.983521 8.3081595 14.990234 8.2421875 C 14.996948 8.1762152 15 8.0980902 15 8.0078125 C 15 7.8307292 14.985808 7.6957465 14.958984 7.6054688 C 14.9355 7.5151909 14.902988 7.4602865 14.859375 7.4394531 L 10.994141 5.4453125 C 10.94717 5.4210078 10.906594 5.4058171 10.873047 5.4023438 z M 4.9960938 5.4453125 L 1.140625 7.4238281 C 1.117141 7.4377168 1.0963012 7.4585501 1.0761719 7.4863281 C 1.0593972 7.5106339 1.0452209 7.5447051 1.0351562 7.5898438 C 1.0250916 7.6315104 1.0164756 7.688368 1.0097656 7.7578125 C 1.0030556 7.8237847 1 7.9019097 1 7.9921875 C 1 8.1692708 1.0091675 8.3023004 1.0292969 8.3925781 C 1.0527811 8.4793835 1.0897501 8.5366751 1.1367188 8.5644531 L 4.9960938 10.554688 C 5.0464174 10.579001 5.0869935 10.592236 5.1171875 10.595703 C 5.1507362 10.59917 5.1771363 10.585934 5.1972656 10.554688 C 5.2207496 10.523438 5.2379822 10.471354 5.2480469 10.398438 C 5.2581115 10.325521 5.2617188 10.224175 5.2617188 10.095703 C 5.2617184 9.9498701 5.2586631 9.8352865 5.2519531 9.7519531 C 5.2452438 9.6651478 5.2335715 9.5974395 5.2167969 9.5488281 C 5.2000222 9.4967445 5.1761268 9.4578991 5.1425781 9.4335938 C 5.1123839 9.4092877 5.0718077 9.3856335 5.0214844 9.3613281 L 2.1777344 7.9960938 L 5.0761719 6.5898438 C 5.1164305 6.5690104 5.148391 6.5481771 5.171875 6.5273438 C 5.1953597 6.5065107 5.2131432 6.4724395 5.2265625 6.4238281 C 5.2399838 6.375217 5.2485998 6.3098958 5.2519531 6.2265625 C 5.2586631 6.1432292 5.2617188 6.0290799 5.2617188 5.8867188 C 5.2617188 5.6783852 5.2414305 5.5425345 5.2011719 5.4765625 C 5.1609131 5.4071178 5.0933859 5.3967012 4.9960938 5.4453125 z "
         inkscape:radius="0.99123877"
         sodipodi:type="inkscape:offset" />
      <g
         transform="matrix(1.9343116,0,0,2.001955,0.52550704,-0.17415705)"
         id="text829"
         style="font-style:normal;font-variant:normal;font-weight:bold;font-stretch:normal;font-size:10.66666698px;line-height:25px;font-family:Calibri;-inkscape-font-specification:'Calibri Bold';letter-spacing:0px;word-spacing:0px;fill:#374548;fill-opacity:1;stroke:none;stroke-width:1px;stroke-linecap:butt;stroke-linejoin:miter;stroke-opacity:1"
         aria-label="&lt;/&gt;">
        <path
           style="fill:#374548;fill-opacity:1"
           inkscape:connector-curvature="0"
           id="path831"
           d="m 5.1666664,10.177083 q 0,0.192708 -0.015625,0.302083 -0.015625,0.109375 -0.052083,0.15625 -0.03125,0.04687 -0.083333,0.04167 -0.046875,-0.0052 -0.125,-0.04167 L 0.89583295,8.6458329 q -0.0729167,-0.041667 -0.109375,-0.171875 -0.03125,-0.1354166 -0.03125,-0.4010416 0,-0.1354167 0.0104167,-0.234375 0.0104167,-0.1041667 0.0260417,-0.1666667 0.015625,-0.067708 0.0416667,-0.1041667 0.03125,-0.041667 0.0677083,-0.0625 L 4.8906247,5.5260412 q 0.1510417,-0.072917 0.2135417,0.03125 0.0625,0.098958 0.0625,0.4114583 0,0.2135417 -0.010417,0.3385417 -0.00521,0.125 -0.026042,0.1979167 -0.020833,0.072917 -0.057292,0.1041666 -0.036458,0.03125 -0.098958,0.0625 L 1.973958,8.0781246 4.9166664,9.442708 q 0.078125,0.036458 0.125,0.072917 0.052083,0.036458 0.078125,0.1145834 0.026042,0.072917 0.036458,0.203125 0.010417,0.125 0.010417,0.3437496 z" />
        <path
           style="fill:#374548;fill-opacity:1"
           inkscape:connector-curvature="0"
           id="path833"
           d="M 7.0260413,12.432291 Q 6.9999996,12.5 6.958333,12.541666 q -0.041667,0.04167 -0.1197917,0.06771 -0.072917,0.02604 -0.1875,0.03646 -0.109375,0.01563 -0.28125,0.01563 -0.2135417,0 -0.3489584,-0.02083 -0.1354166,-0.02083 -0.2083333,-0.0625 -0.067708,-0.04167 -0.078125,-0.109375 -0.010417,-0.0625 0.020833,-0.151042 L 8.8697914,3.5729161 q 0.020833,-0.067708 0.0625,-0.109375 0.041667,-0.046875 0.1145833,-0.072917 0.072917,-0.026042 0.1875,-0.036458 0.1197917,-0.015625 0.2864583,-0.015625 0.2187501,0 0.3489584,0.020833 0.1354166,0.020833 0.2031246,0.0625 0.06771,0.041667 0.07813,0.109375 0.01042,0.0625 -0.01563,0.1510416 z" />
        <path
           style="fill:#374548;fill-opacity:1"
           inkscape:connector-curvature="0"
           id="path835"
           d="m 15.244792,8.0885413 q 0,0.1354166 -0.01042,0.234375 -0.01042,0.098958 -0.03125,0.1666666 -0.01563,0.067708 -0.04687,0.109375 -0.02604,0.036458 -0.0625,0.052083 l -3.994791,1.9791671 q -0.07292,0.03646 -0.125,0.03125 -0.05208,-0.0052 -0.08854,-0.05729 -0.03125,-0.05208 -0.04687,-0.151041 -0.01042,-0.104167 -0.01042,-0.260417 0,-0.2135421 0.0052,-0.3385421 0.01042,-0.125 0.03125,-0.1979167 0.02083,-0.072917 0.05729,-0.1041666 0.03646,-0.036458 0.09896,-0.0625 l 3,-1.4062501 -2.942709,-1.3645833 q -0.08333,-0.036458 -0.135416,-0.072917 -0.04687,-0.036458 -0.07292,-0.109375 -0.02604,-0.078125 -0.03646,-0.203125 -0.0052,-0.1302084 -0.0052,-0.3489584 0,-0.1927083 0.01042,-0.3020833 0.01563,-0.109375 0.04687,-0.15625 0.03646,-0.046875 0.08854,-0.041667 0.05208,0.00521 0.125,0.041667 l 4,1.9947917 q 0.06771,0.03125 0.104166,0.1666667 0.04167,0.1354167 0.04167,0.4010417 z" />
      </g>
    </g>
  </g>
</svg>
