<?xml version="1.0" encoding="UTF-8" standalone="no"?>
<!-- Created with Inkscape (http://www.inkscape.org/) -->

<svg
   xmlns:dc="http://purl.org/dc/elements/1.1/"
   xmlns:cc="http://creativecommons.org/ns#"
   xmlns:rdf="http://www.w3.org/1999/02/22-rdf-syntax-ns#"
   xmlns:svg="http://www.w3.org/2000/svg"
   xmlns="http://www.w3.org/2000/svg"
   xmlns:sodipodi="http://sodipodi.sourceforge.net/DTD/sodipodi-0.dtd"
   xmlns:inkscape="http://www.inkscape.org/namespaces/inkscape"
   width="24"
   height="24"
   id="svg2"
   sodipodi:version="0.32"
   inkscape:version="0.92.3 (2405546, 2018-03-11)"
   version="1.0"
   sodipodi:docname="insertvartag_150.svg"
   inkscape:output_extension="org.inkscape.output.svg.inkscape"
   inkscape:export-filename="insertvartag_150.png"
   inkscape:export-xdpi="96"
   inkscape:export-ydpi="96">
  <defs
     id="defs4" />
  <sodipodi:namedview
     id="base"
     pagecolor="#ffffff"
     bordercolor="#666666"
     borderopacity="1.0"
     inkscape:pageopacity="0.0"
     inkscape:pageshadow="2"
     inkscape:zoom="21.061924"
     inkscape:cx="3.3054908"
     inkscape:cy="8.5343344"
     inkscape:document-units="px"
     inkscape:current-layer="layer1"
     showgrid="true"
     objecttolerance="10"
     gridtolerance="10"
     guidetolerance="10"
     showguides="true"
     inkscape:guide-bbox="true"
     inkscape:window-width="1920"
     inkscape:window-height="1137"
     inkscape:window-x="-8"
     inkscape:window-y="-8"
     inkscape:window-maximized="1"
     inkscape:snap-bbox="true"
     inkscape:bbox-paths="true"
     inkscape:bbox-nodes="true"
     inkscape:snap-bbox-edge-midpoints="true"
     inkscape:snap-bbox-midpoints="true"
     inkscape:object-paths="true"
     inkscape:snap-intersection-paths="true"
     inkscape:object-nodes="true"
     inkscape:snap-smooth-nodes="true"
     inkscape:snap-midpoints="true"
     inkscape:snap-object-midpoints="true"
     inkscape:snap-center="true">
    <inkscape:grid
       type="xygrid"
       id="grid2409"
       visible="true"
       enabled="true"
       spacingx="0.5"
       spacingy="0.5"
       empspacing="2"
       snapvisiblegridlinesonly="true"
       originx="0"
       originy="0" />
  </sodipodi:namedview>
  <metadata
     id="metadata7">
    <rdf:RDF>
      <cc:Work
         rdf:about="">
        <dc:format>image/svg+xml</dc:format>
        <dc:type
           rdf:resource="http://purl.org/dc/dcmitype/StillImage" />
        <dc:title />
      </cc:Work>
    </rdf:RDF>
  </metadata>
  <g
     inkscape:label="Ebene 1"
     inkscape:groupmode="layer"
     id="layer1"
     transform="translate(0,-24)">
    <g
       id="g837">
      <path
         transform="matrix(1.5,0,0,1.5,-0.44970741,24.748535)"
         d="m 8.703125,3.8925781 c -0.2392616,0 -0.483169,0.023139 -0.7265625,0.070312 -0.00252,4.521e-4 -0.00529,-4.558e-4 -0.00781,0 -0.2161195,0.039053 -0.4248058,0.093779 -0.6269531,0.1640625 -0.00117,3.883e-4 -0.00273,-3.892e-4 -0.00391,0 C 7.1523852,4.1884891 6.98004,4.2644918 6.8164062,4.3515625 6.7205597,4.2697802 6.6330018,4.1369567 6.546875,4.0976562 c -0.2107817,-0.09763 -0.366756,-0.1172863 -0.4824219,-0.125 -0.079672,-0.00531 -0.167141,-0.00781 -0.2675781,-0.00781 -0.1016824,0 -0.2004157,0.00472 -0.3105469,0.015625 -0.1392023,0.010017 -0.2829568,0.034668 -0.4355469,0.095703 a 1.0331449,1.0331449 0 0 0 -0.037109,0.015625 C 4.903746,4.1406521 4.7364465,4.2197824 4.5664062,4.4238281 c -0.1528732,0.183452 -0.2199857,0.3805638 -0.25,0.515625 L 4.3457031,4.8320312 3.9921875,5.8769531 3.6328125,4.8300781 A 1.0331449,1.0331449 0 0 0 3.5996094,4.7441406 C 3.5654326,4.6672418 3.5084381,4.5813044 3.4472656,4.4960938 3.2762672,4.2563652 3.0662067,4.1407111 2.9316406,4.0859375 2.7415023,4.0062208 2.6006599,3.9880804 2.46875,3.9804688 2.3580715,3.9699956 2.2600301,3.9648437 2.15625,3.9648438 c -0.1004373,0 -0.1892586,0.00292 -0.2675781,0.00781 a 1.0331449,1.0331449 0 0 0 -0.00391,0 C 1.7746745,3.9799966 1.6355718,4.0066296 1.4804688,4.0625 1.3025129,4.1246406 1.0677126,4.2470577 0.89648438,4.5039062 0.77883297,4.6803855 0.70117188,4.9323408 0.70117188,5.1484375 v 0.042969 a 1.0331449,1.0331449 0 0 0 0.03125,0.25 c 0.002244,0.00898 0.005018,0.019651 0.009766,0.041016 a 1.0331449,1.0331449 0 0 0 0.0292969,0.1074219 l 0.0371094,0.109375 a 1.0331449,1.0331449 0 0 0 0.005859,0.015625 L 2.4082031,10.167969 a 1.0331449,1.0331449 0 0 0 0.013672,0.03516 c 0.05275,0.131872 0.1369314,0.289275 0.2851562,0.4375 0.1764958,0.176501 0.3601543,0.258724 0.5039063,0.306641 a 1.0331449,1.0331449 0 0 0 0.021484,0.0078 c 0.1412021,0.04345 0.257806,0.05879 0.3730469,0.07031 0.1260537,0.0126 0.2404636,0.01563 0.3632812,0.01563 0.109678,0 0.2143818,-0.0042 0.3261719,-0.01367 0.1172714,-0.0061 0.2446414,-0.01488 0.4121093,-0.06641 0.1774524,-0.0546 0.3814102,-0.173453 0.5488282,-0.355469 0.1172285,-0.126614 0.2156432,-0.272703 0.2734375,-0.431641 a 1.0331449,1.0331449 0 0 0 0.00195,-0.0039 L 5.8144531,9.3808594 c 0.0269,0.092763 0.015999,0.1915627 0.054687,0.28125 a 1.0331449,1.0331449 0 0 0 0.00781,0.015625 c 0.1361077,0.3018042 0.3390394,0.5813276 0.5898438,0.8007816 a 1.0331449,1.0331449 0 0 0 0.00977,0.0078 c 0.2558488,0.218408 0.5570479,0.376054 0.8691406,0.47461 0.3146257,0.101599 0.6459494,0.148437 0.9824219,0.148437 0.3821496,0 0.7590516,-0.103317 1.1132812,-0.253906 0.1088496,0.04771 0.2380892,0.133946 0.3203126,0.15039 a 1.0331449,1.0331449 0 0 0 0.013672,0.002 c 0.1551781,0.0291 0.2781954,0.0332 0.4082034,0.0332 0.132007,0 0.249895,-5.38e-4 0.429687,-0.03906 0.145306,-0.03114 0.318337,-0.08105 0.517578,-0.230469 0.09374,-0.07029 0.07739,-0.188935 0.142579,-0.289062 a 1.0331449,1.0331449 0 0 0 0.06055,0.08203 c 0.175812,0.219702 0.334632,0.292165 0.455078,0.345703 a 1.0331449,1.0331449 0 0 0 0.03711,0.01563 c 0.151831,0.06073 0.274312,0.08336 0.388672,0.09766 0.127506,0.01594 0.231244,0.01758 0.33789,0.01758 0.109189,0 0.21363,-0.0016 0.341797,-0.01758 0.115024,-0.01438 0.236491,-0.03088 0.421875,-0.113282 0.120495,-0.05355 0.279194,-0.125815 0.455078,-0.345703 a 1.0331449,1.0331449 0 0 0 0.05274,-0.07226 c 0.14237,-0.213601 0.193359,-0.476798 0.193359,-0.6445318 v -2.765625 c 0.03961,-0.056641 0.08789,-0.132279 0.121094,-0.1757812 0.04264,-0.055867 0.06171,-0.073402 0.08984,-0.1035156 -3.24e-4,-9.13e-5 0.0024,1.218e-4 0.002,0 a 1.0331449,1.0331449 0 0 0 0.07422,0.029297 c 0.09475,0.031585 0.213602,0.074219 0.429687,0.074219 0.216085,0 0.546981,-0.078201 0.792969,-0.3242188 0.102603,-0.102607 0.21383,-0.2590686 0.279297,-0.4335937 a 1.0331449,1.0331449 0 0 0 0.01367,-0.037109 c 0.06217,-0.1864588 0.06434,-0.2930248 0.07031,-0.3828125 0.0052,-0.077399 0.0078,-0.1637644 0.0078,-0.2617187 0,-0.070402 -0.0029,-0.1282877 -0.0059,-0.1875 0,-0.00266 -0.002,-0.00906 -0.002,-0.011719 5.15e-4,-0.070168 -0.009,-0.1725202 -0.03906,-0.3105469 -0.01231,-0.070518 -0.03377,-0.1533029 -0.07617,-0.2519531 C 15.691781,4.513572 15.573794,4.3665106 15.455078,4.2675781 15.25165,4.0980317 15.13228,4.0698299 15.015625,4.03125 14.918123,3.9973218 14.828424,3.9727225 14.740234,3.953125 14.629697,3.9285631 14.519562,3.9133923 14.414062,3.90625 c -0.07881,-0.00813 -0.157721,-0.013672 -0.230468,-0.013672 -0.185437,0 -0.375196,0.026702 -0.560547,0.076172 -0.124037,0.031708 -0.219946,0.097746 -0.328125,0.1503906 l 0.07617,0.042969 c -0.02278,-0.014237 -0.03105,-0.00358 -0.05274,-0.015625 -0.0092,-0.00503 -0.01633,-0.02078 -0.02539,-0.025391 -0.0071,0.00345 -0.01448,0.00624 -0.02149,0.00977 -0.19205,-0.094814 -0.361132,-0.1419513 -0.486328,-0.1503906 -0.09767,-0.010257 -0.187362,-0.015625 -0.269531,-0.015625 -0.08671,0 -0.178689,0.00439 -0.28125,0.015625 -0.134859,0.010428 -0.2957,0.052375 -0.476563,0.140625 -0.167006,0.078606 -0.372123,0.2227602 -0.515624,0.484375 -0.09664,0.180191 -0.120415,0.3334843 -0.126954,0.4667968 C 11.028121,4.932414 10.987075,4.7707903 10.869141,4.6523438 10.59091,4.3694299 10.245242,4.174529 9.8808594,4.0566406 9.5046023,3.9349104 9.1153675,3.8925781 8.703125,3.8925781 Z M 6.8085938,4.3515625 c -0.00346,0.00178 -0.00632,0.00604 -0.00977,0.00781 -0.00353,0.00191 -0.0082,0.00199 -0.011719,0.00391 z M 6.984375,4.4375 7.1015625,4.6191406 C 7.0802095,4.5764349 7.0459619,4.5799924 7.0214844,4.5429688 7.0012267,4.5099612 7.0075674,4.4664916 6.984375,4.4375 Z m 6.703125,0.00977 0.117188,0.1835938 c -0.01939,-0.038787 -0.05855,-0.046633 -0.08203,-0.082031 -0.02119,-0.033642 -0.0096,-0.069567 -0.03516,-0.1015625 z m -5.8359375,1.734375 c -8.365e-4,1.793e-4 -0.00112,0.00177 -0.00195,0.00195 -0.00304,6.798e-4 -0.00673,-6.859e-4 -0.00977,0 z"
         id="path842"
         style="font-style:normal;font-variant:normal;font-weight:normal;font-stretch:normal;font-size:medium;line-height:25px;font-family:Calibri;-inkscape-font-specification:Calibri;letter-spacing:0px;word-spacing:0px;fill:#ffffff;fill-opacity:1;stroke:none;stroke-width:1px;stroke-linecap:butt;stroke-linejoin:miter;stroke-opacity:1"
         inkscape:original="M 8.703125 4.9257812 C 8.5225694 4.9257812 8.3450521 4.9418405 8.1679688 4.9765625 C 7.9908854 5.0078125 7.8270399 5.0494792 7.6777344 5.1015625 C 7.5284288 5.1501736 7.3958333 5.2070312 7.28125 5.2695312 C 7.1666669 5.3285593 7.0857207 5.3806426 7.0371094 5.4257812 C 6.99197 5.4709201 6.9631074 5.5182292 6.9492188 5.5703125 C 6.9388021 5.6189236 6.9335938 5.686632 6.9335938 5.7734375 C 6.9335938 5.8255211 6.9364147 5.8747832 6.9433594 5.9199219 C 6.950304 5.9615883 6.9607207 5.9956595 6.9746094 6.0234375 C 6.9919707 6.0512155 7.0104167 6.0720488 7.03125 6.0859375 C 7.0520833 6.0998262 7.0776907 6.1074219 7.1054688 6.1074219 C 7.1471354 6.1074219 7.2096354 6.0837676 7.2929688 6.0351562 C 7.3797743 5.9830731 7.484375 5.9262155 7.609375 5.8671875 C 7.7378473 5.8046878 7.8860677 5.7497832 8.0527344 5.7011719 C 8.2228732 5.6490885 8.4131944 5.6230469 8.625 5.6230469 C 8.8229167 5.6230469 8.9895833 5.6467012 9.125 5.6953125 C 9.2604167 5.7404514 9.3697917 5.8105469 9.453125 5.9042969 C 9.5399303 5.9945746 9.6024303 6.1091579 9.640625 6.2480469 C 9.6788197 6.3869357 9.6992188 6.546007 9.6992188 6.7265625 L 9.6992188 7.0917969 L 9.0527344 7.0917969 C 8.688151 7.0917969 8.360026 7.1254342 8.0683594 7.1914062 C 7.7766927 7.2539062 7.5295139 7.3480902 7.328125 7.4765625 C 7.1267361 7.6050347 6.9728733 7.766493 6.8652344 7.9609375 C 6.7575955 8.155382 6.703125 8.3845486 6.703125 8.6484375 C 6.703125 8.874132 6.7419705 9.0768229 6.8183594 9.2539062 C 6.8982205 9.4309896 7.0075954 9.5796441 7.1464844 9.7011719 C 7.2888454 9.8226996 7.4583333 9.9140625 7.65625 9.9765625 C 7.8576389 10.042535 8.0815972 10.076172 8.328125 10.076172 C 8.609375 10.076172 8.875 10.016059 9.125 9.8945312 C 9.3784722 9.7730035 9.6076407 9.6015625 9.8125 9.3828125 L 9.8125 9.8515625 C 9.8125 9.8932292 9.825304 9.9244792 9.8496094 9.9453125 C 9.873915 9.9661458 9.9127604 9.9817708 9.9648438 9.9921875 C 10.020399 10.002604 10.093316 10.007812 10.183594 10.007812 C 10.277342 10.007812 10.347871 10.002604 10.396484 9.9921875 C 10.445093 9.9817708 10.483939 9.9661458 10.511719 9.9453125 C 10.539499 9.9244792 10.552734 9.8932292 10.552734 9.8515625 L 10.552734 6.6914062 C 10.552734 6.3997396 10.519098 6.1445312 10.453125 5.9257812 C 10.387153 5.7070313 10.282552 5.5247396 10.136719 5.3789062 C 9.9908855 5.2296006 9.7986111 5.1154514 9.5625 5.0390625 C 9.3263889 4.9626736 9.0399305 4.9257812 8.703125 4.9257812 z M 14.183594 4.9257812 C 14.0829 4.9257812 13.981554 4.9390189 13.880859 4.9667969 C 13.783637 4.9911025 13.684679 5.0379775 13.583984 5.1074219 C 13.48329 5.1733941 13.376302 5.264757 13.261719 5.3828125 C 13.150608 5.500868 13.030816 5.6542968 12.902344 5.8417969 L 12.902344 5.1601562 C 12.902344 5.1323789 12.894746 5.1091582 12.880859 5.0917969 C 12.870446 5.0709635 12.851999 5.0529512 12.824219 5.0390625 C 12.796445 5.0217025 12.755212 5.0112858 12.703125 5.0078125 C 12.654514 5.0008678 12.592014 4.9980469 12.515625 4.9980469 C 12.435766 4.9980469 12.372832 5.0008678 12.324219 5.0078125 C 12.275605 5.0112845 12.234372 5.0217012 12.203125 5.0390625 C 12.171878 5.0529512 12.151045 5.0709635 12.140625 5.0917969 C 12.130205 5.1091575 12.125 5.1323782 12.125 5.1601562 L 12.125 9.8476562 C 12.125 9.8754342 12.130205 9.8990885 12.140625 9.9199219 C 12.154518 9.9372832 12.177738 9.9529082 12.208984 9.9667969 C 12.243709 9.9806855 12.288197 9.9911022 12.34375 9.9980469 C 12.399305 10.004991 12.469401 10.007812 12.552734 10.007812 C 12.639542 10.007812 12.710072 10.004991 12.765625 9.9980469 C 12.821184 9.9911022 12.865238 9.9806855 12.896484 9.9667969 C 12.927738 9.9529082 12.950957 9.9372832 12.964844 9.9199219 C 12.97873 9.8990885 12.984375 9.8754342 12.984375 9.8476562 L 12.984375 6.7636719 C 13.105902 6.5726996 13.217665 6.4112413 13.318359 6.2792969 C 13.419054 6.1473524 13.515191 6.0407986 13.605469 5.9609375 C 13.699219 5.8810762 13.78776 5.8237845 13.871094 5.7890625 C 13.954427 5.7543405 14.038194 5.7382813 14.125 5.7382812 C 14.197917 5.7382813 14.265625 5.7439238 14.328125 5.7578125 C 14.390622 5.7717012 14.44748 5.7873262 14.496094 5.8046875 C 14.548178 5.8185762 14.592666 5.8342012 14.630859 5.8515625 C 14.672524 5.8654512 14.706595 5.8730469 14.734375 5.8730469 C 14.762155 5.8730469 14.782988 5.8654512 14.796875 5.8515625 C 14.814235 5.8342018 14.829424 5.8129343 14.839844 5.7851562 C 14.850264 5.7539062 14.855908 5.7122396 14.859375 5.6601562 C 14.862842 5.6080729 14.865234 5.5431858 14.865234 5.4667969 C 14.865234 5.3869355 14.862842 5.3244355 14.859375 5.2792969 C 14.859375 5.2306855 14.856556 5.1942272 14.849609 5.1699219 C 14.846136 5.1456159 14.840931 5.1271699 14.833984 5.1132812 C 14.827038 5.0959206 14.813802 5.0779082 14.792969 5.0605469 C 14.772139 5.0431862 14.73568 5.0251738 14.683594 5.0078125 C 14.634983 4.9904512 14.578125 4.9748262 14.515625 4.9609375 C 14.453124 4.9470495 14.393011 4.9390202 14.333984 4.9355469 C 14.27843 4.9286022 14.228734 4.9257812 14.183594 4.9257812 z M 2.15625 4.9980469 C 2.0763887 4.9980469 2.0086803 5.0004329 1.953125 5.0039062 C 1.9010414 5.0073789 1.8589407 5.0154082 1.8242188 5.0292969 C 1.7929688 5.0397135 1.769748 5.0553385 1.7558594 5.0761719 C 1.7419707 5.0970052 1.734375 5.1206595 1.734375 5.1484375 L 1.734375 5.1914062 C 1.7378472 5.2052951 1.7430555 5.2265625 1.75 5.2578125 L 1.7871094 5.3671875 L 3.3808594 9.8203125 C 3.3947487 9.8550352 3.4131947 9.8858509 3.4375 9.9101562 C 3.4618053 9.9344622 3.4954427 9.9529082 3.5371094 9.9667969 C 3.5822482 9.9806855 3.6395399 9.9911022 3.7089844 9.9980469 C 3.7784288 10.004991 3.8645833 10.007812 3.96875 10.007812 C 4.0729167 10.007812 4.1610243 10.004991 4.2304688 9.9980469 C 4.2999134 9.9945742 4.3572051 9.9865449 4.4023438 9.9726562 C 4.4474824 9.9587669 4.4791667 9.9383678 4.5 9.9140625 C 4.524306 9.8897572 4.5447051 9.8585072 4.5585938 9.8203125 L 6.15625 5.3671875 C 6.1631933 5.3428822 6.1684017 5.3216146 6.171875 5.3007812 C 6.1788183 5.2799479 6.1840267 5.2595488 6.1875 5.2421875 C 6.1909733 5.2248262 6.1933594 5.2092012 6.1933594 5.1953125 C 6.1968327 5.1779512 6.1992188 5.1623262 6.1992188 5.1484375 C 6.1992188 5.1206602 6.191623 5.0993926 6.1777344 5.0820312 C 6.1673177 5.0611979 6.1464844 5.0431855 6.1152344 5.0292969 C 6.0874566 5.0154089 6.0481771 5.0073796 5.9960938 5.0039062 C 5.9440104 5.0004329 5.8767361 4.9980469 5.796875 4.9980469 C 5.7031252 4.9980469 5.6273874 5.0008678 5.5683594 5.0078125 C 5.5128036 5.0112852 5.4683158 5.0212676 5.4335938 5.0351562 C 5.4023438 5.0490449 5.3767363 5.0651042 5.359375 5.0859375 C 5.3420143 5.1067708 5.3311634 5.1328125 5.3242188 5.1640625 L 4.015625 9.0292969 L 4 9.0917969 L 3.9804688 9.0292969 L 2.65625 5.1640625 C 2.6423613 5.1328125 2.6267363 5.1067708 2.609375 5.0859375 C 2.5954857 5.0651042 2.5718314 5.0490449 2.5371094 5.0351562 C 2.5058594 5.0212682 2.4589844 5.0112858 2.3964844 5.0078125 C 2.3374566 5.0008678 2.2569445 4.9980469 2.15625 4.9980469 z M 8.9648438 7.7109375 L 9.6992188 7.7109375 L 9.6992188 8.7070312 C 9.4874132 8.9431424 9.2842882 9.1178385 9.0898438 9.2324219 C 8.8988715 9.3470052 8.6905382 9.4042969 8.4648438 9.4042969 C 8.187066 9.4042969 7.96875 9.3337674 7.8125 9.1914062 C 7.6597223 9.0455729 7.5839844 8.8504775 7.5839844 8.6074219 C 7.5839844 8.4650608 7.610026 8.3400608 7.6621094 8.2324219 C 7.7176649 8.1213108 7.8033854 8.0275608 7.9179688 7.9511719 C 8.0325521 7.871311 8.1759982 7.8116322 8.3496094 7.7734375 C 8.5232205 7.7317708 8.7287327 7.7109375 8.9648438 7.7109375 z "
         inkscape:radius="1.0330416"
         sodipodi:type="inkscape:offset" />
      <path
         inkscape:connector-curvature="0"
         d="m 21.848106,32.948472 q 0,0.171875 -0.0078,0.289062 -0.0078,0.117188 -0.03125,0.1875 -0.02344,0.0625 -0.0625,0.101562 -0.03125,0.03125 -0.09375,0.03125 -0.06251,0 -0.15625,-0.03125 -0.08594,-0.03906 -0.203126,-0.07031 -0.10938,-0.03906 -0.249999,-0.07031 -0.140625,-0.03125 -0.304687,-0.03125 -0.195314,0 -0.382814,0.07812 -0.1875,0.07813 -0.398437,0.257813 -0.203124,0.179687 -0.429687,0.476562 -0.226563,0.296875 -0.5,0.726563 v 4.625 q 0,0.0625 -0.03125,0.109375 -0.03124,0.03906 -0.101565,0.07031 -0.0703,0.03125 -0.195312,0.04687 -0.124995,0.01562 -0.320313,0.01562 -0.1875,0 -0.312499,-0.01562 -0.124995,-0.01563 -0.203126,-0.04687 -0.0703,-0.03125 -0.101565,-0.07031 -0.02345,-0.04687 -0.02345,-0.109375 v -7.03125 q 0,-0.0625 0.02345,-0.101562 0.02344,-0.04687 0.09375,-0.07812 0.0703,-0.03906 0.179687,-0.04687 0.10938,-0.01563 0.289063,-0.01563 0.171875,0 0.28125,0.01563 0.117195,0.0078 0.179687,0.04687 0.06251,0.03125 0.08593,0.07812 0.03125,0.03906 0.03125,0.101562 v 1.023438 q 0.289063,-0.421875 0.539062,-0.6875 0.257813,-0.265625 0.484376,-0.414063 0.226563,-0.15625 0.445312,-0.210937 0.226563,-0.0625 0.453125,-0.0625 0.101565,0 0.226563,0.01563 0.13281,0.0078 0.273438,0.03906 0.140625,0.03125 0.249999,0.07031 0.117195,0.03906 0.164062,0.07813 0.04687,0.03906 0.06251,0.07812 0.01563,0.03125 0.02344,0.08594 0.01563,0.05469 0.01563,0.164063 0.0078,0.101562 0.0078,0.28125 z m -6.46875,6.578125 q 0,0.09375 -0.0625,0.140625 -0.0625,0.04687 -0.171874,0.07031 -0.10938,0.02344 -0.320313,0.02344 -0.203126,0 -0.328125,-0.02344 -0.117188,-0.02344 -0.171875,-0.07031 -0.05469,-0.04687 -0.05469,-0.140625 v -0.703125 q -0.460934,0.492187 -1.031246,0.765625 -0.5625,0.273438 -1.195313,0.273438 -0.554687,0 -1.007812,-0.148438 Q 10.590295,39.573472 10.269983,39.300034 9.9574825,39.026597 9.777795,38.628159 9.60592,38.229722 9.60592,37.721909 q 0,-0.59375 0.2421875,-1.03125 0.2421875,-0.4375 0.6953125,-0.726562 0.453125,-0.289063 1.109375,-0.429688 0.65625,-0.148437 1.476563,-0.148437 h 0.96875 v -0.546875 q 0,-0.40625 -0.08594,-0.71875 -0.08594,-0.3125 -0.28125,-0.515625 -0.1875,-0.210938 -0.492188,-0.3125 -0.304687,-0.109376 -0.75,-0.109376 -0.476562,0 -0.859375,0.117188 -0.375,0.109375 -0.664062,0.25 -0.28125,0.132813 -0.476563,0.25 -0.1875,0.109375 -0.28125,0.109375 -0.0625,0 -0.109375,-0.03125 -0.04687,-0.03125 -0.08594,-0.09375 -0.03125,-0.0625 -0.046875,-0.15625 -0.015626,-0.101562 -0.015626,-0.21875 0,-0.195313 0.023437,-0.304688 0.031249,-0.117187 0.132813,-0.21875 0.109375,-0.101562 0.367187,-0.234375 0.257813,-0.140625 0.59375,-0.25 0.335938,-0.117187 0.734375,-0.1875 0.398438,-0.07812 0.804688,-0.07812 0.757812,0 1.289062,0.171875 0.53125,0.171874 0.859375,0.507812 0.328125,0.328125 0.476562,0.820313 0.14844,0.492187 0.14844,1.148437 z m -1.28125,-3.210938 h -1.101563 q -0.53125,0 -0.921875,0.09375 -0.390625,0.08594 -0.648437,0.265625 -0.257813,0.171875 -0.382813,0.421875 -0.117187,0.242188 -0.117187,0.5625 0,0.546875 0.34375,0.875 0.351562,0.320313 0.976562,0.320313 0.507813,0 0.9375,-0.257813 0.4375,-0.257812 0.914063,-0.789062 z m -5.2500007,-3.84375 q 0,0.03125 -0.00782,0.07031 0,0.03125 -0.00781,0.07031 -0.00782,0.03906 -0.023437,0.08594 -0.00782,0.04687 -0.023437,0.101562 l -2.3984327,6.679688 q -0.031249,0.08594 -0.085938,0.140625 -0.046875,0.05469 -0.148437,0.08594 -0.101562,0.03125 -0.2578125,0.03906 -0.1562499,0.01562 -0.390625,0.01562 -0.234375,0 -0.3906249,-0.01562 -0.1562501,-0.01563 -0.2578125,-0.04687 -0.09375,-0.03125 -0.148437,-0.08594 -0.054687,-0.05469 -0.085938,-0.132813 L 2.2309175,32.800034 q -0.03125,-0.09375 -0.054687,-0.164062 -0.015625,-0.07031 -0.023437,-0.101563 0,-0.03906 0,-0.0625 0,-0.0625 0.031249,-0.109376 0.031249,-0.04687 0.101562,-0.07031 0.078124,-0.03125 0.1953126,-0.03906 0.1249995,-0.0078 0.3046875,-0.0078 0.2265625,0 0.3593749,0.01563 0.140625,0.0078 0.2109375,0.03906 0.078124,0.03125 0.1093755,0.07813 0.039063,0.04687 0.070312,0.117187 l 1.9843751,5.796875 0.031249,0.09375 0.023437,-0.09375 1.9609377,-5.796875 q 0.015625,-0.07031 0.054687,-0.117187 0.039063,-0.04687 0.1093755,-0.07813 0.078124,-0.03125 0.2031249,-0.03906 0.132813,-0.01563 0.34375,-0.01563 0.1796876,0 0.2968751,0.0078 0.1171875,0.0078 0.1796874,0.03906 0.070312,0.03125 0.09375,0.07812 0.03125,0.03906 0.03125,0.101562 z"
         style="font-style:normal;font-variant:normal;font-weight:normal;font-stretch:normal;font-size:medium;line-height:25px;font-family:Calibri;-inkscape-font-specification:Calibri;letter-spacing:0px;word-spacing:0px;fill:#374548;fill-opacity:1;stroke:none;stroke-width:1.5px;stroke-linecap:butt;stroke-linejoin:miter;stroke-opacity:1"
         id="path835" />
    </g>
  </g>
</svg>
