<?xml version="1.0" encoding="UTF-8" standalone="no"?>
<!-- Created with Inkscape (http://www.inkscape.org/) -->

<svg
   xmlns:dc="http://purl.org/dc/elements/1.1/"
   xmlns:cc="http://creativecommons.org/ns#"
   xmlns:rdf="http://www.w3.org/1999/02/22-rdf-syntax-ns#"
   xmlns:svg="http://www.w3.org/2000/svg"
   xmlns="http://www.w3.org/2000/svg"
   xmlns:sodipodi="http://sodipodi.sourceforge.net/DTD/sodipodi-0.dtd"
   xmlns:inkscape="http://www.inkscape.org/namespaces/inkscape"
   width="36"
   height="36"
   viewBox="0 0 36 36"
   version="1.1"
   id="svg870"
   inkscape:version="0.92.3 (2405546, 2018-03-11)"
   sodipodi:docname="tpagemanager_rx_150.svg"
   inkscape:export-filename="D:\temp\rx\work\tpagemanager_rx_150.png"
   inkscape:export-xdpi="96"
   inkscape:export-ydpi="96"
   style="enable-background:new">
  <defs
     id="defs864">
    <marker
       inkscape:stockid="Arrow1Lend"
       orient="auto"
       refY="0.0"
       refX="0.0"
       id="Arrow1Lend"
       style="overflow:visible;"
       inkscape:isstock="true">
      <path
         id="path860"
         d="M 0.0,0.0 L 5.0,-5.0 L -12.5,0.0 L 5.0,5.0 L 0.0,0.0 z "
         style="fill-rule:evenodd;stroke:#000000;stroke-width:1.0pt;"
         transform="scale(0.8) rotate(180) translate(12.5,0)" />
    </marker>
    <marker
       inkscape:stockid="Arrow1Lstart"
       orient="auto"
       refY="0.0"
       refX="0.0"
       id="Arrow1Lstart"
       style="overflow:visible"
       inkscape:isstock="true">
      <path
         id="path857"
         d="M 0.0,0.0 L 5.0,-5.0 L -12.5,0.0 L 5.0,5.0 L 0.0,0.0 z "
         style="fill-rule:evenodd;stroke:#000000;stroke-width:1.0pt"
         transform="scale(0.8) translate(12.5,0)" />
    </marker>
    <filter
       height="1"
       width="1"
       y="0"
       x="0"
       style="color-interpolation-filters:sRGB"
       inkscape:label="Blur"
       id="filter1161">
      <feGaussianBlur
         stdDeviation="84.9 85.42"
         result="blur"
         id="feGaussianBlur1155" />
      <feColorMatrix
         values="1 0 0 0 0 0 1 0 0 0 0 0 1 0 0 0 0 0 50 0 "
         result="colormatrix"
         id="feColorMatrix1157" />
      <feComposite
         in="colormatrix"
         in2="SourceGraphic"
         operator="in"
         id="feComposite1159" />
    </filter>
  </defs>
  <sodipodi:namedview
     id="base"
     pagecolor="#ffffff"
     bordercolor="#666666"
     borderopacity="1.0"
     inkscape:pageopacity="0.0"
     inkscape:pageshadow="2"
     inkscape:zoom="10.604167"
     inkscape:cx="25.081158"
     inkscape:cy="19.894079"
     inkscape:document-units="px"
     inkscape:current-layer="layer5"
     showgrid="true"
     inkscape:window-width="1366"
     inkscape:window-height="706"
     inkscape:window-x="-8"
     inkscape:window-y="-8"
     inkscape:window-maximized="1"
     units="px"
     inkscape:snap-global="false"
     inkscape:snap-object-midpoints="true"
     inkscape:snap-grids="false"
     showguides="true"
     inkscape:guide-bbox="true">
    <inkscape:grid
       type="xygrid"
       id="grid5121" />
  </sodipodi:namedview>
  <metadata
     id="metadata867">
    <rdf:RDF>
      <cc:Work
         rdf:about="">
        <dc:format>image/svg+xml</dc:format>
        <dc:type
           rdf:resource="http://purl.org/dc/dcmitype/StillImage" />
        <dc:title></dc:title>
      </cc:Work>
    </rdf:RDF>
  </metadata>
  <g
     inkscape:label="base"
     inkscape:groupmode="layer"
     id="layer1"
     transform="translate(0,-296.29999)"
     style="display:inline"
     sodipodi:insensitive="true">
    <path
       style="opacity:1;fill:none;fill-opacity:1;stroke:none;stroke-width:0.33734375;stroke-linecap:butt;stroke-linejoin:round;stroke-miterlimit:4;stroke-dasharray:none;stroke-opacity:1;paint-order:stroke fill markers"
       d="m 0,296.3 h 36 v 36 H 0 Z"
       id="rect5123"
       inkscape:connector-curvature="0" />
  </g>
  <g
     inkscape:groupmode="layer"
     id="layer3"
     inkscape:label="pagectrl"
     style="display:inline"
     transform="translate(0,-12)"
     sodipodi:insensitive="true">
    <rect
       style="opacity:1;fill:#cccccc;fill-opacity:1;stroke:#666666;stroke-width:1.5;stroke-linecap:round;stroke-linejoin:round;stroke-miterlimit:4;stroke-dasharray:none;stroke-dashoffset:0;stroke-opacity:1;paint-order:stroke fill markers"
       id="rect843"
       width="5.4849896"
       height="3.0099621"
       x="15.569598"
       y="28.778255" />
    <rect
       style="opacity:1;fill:#cccccc;fill-opacity:1;stroke:#666666;stroke-width:1.5;stroke-linecap:round;stroke-linejoin:round;stroke-miterlimit:4;stroke-dasharray:none;stroke-dashoffset:0;stroke-opacity:1;paint-order:stroke fill markers"
       id="rect840"
       width="5.4849896"
       height="3.0099621"
       x="9.6155987"
       y="28.776424" />
    <path
       style="opacity:1;fill:#f2f2f2;fill-opacity:1;stroke:#666666;stroke-width:1.5;stroke-linecap:round;stroke-linejoin:round;stroke-miterlimit:4;stroke-dasharray:none;stroke-dashoffset:0;stroke-opacity:1;paint-order:stroke fill markers"
       d="M 2.8393745,27.986287 H 9.263 V 32.01 h 16.851631 l 1.97e-4,13.180607 H 2.8393745 Z"
       id="rect842"
       inkscape:connector-curvature="0"
       sodipodi:nodetypes="ccccccc" />
  </g>
  <g
     inkscape:groupmode="layer"
     id="layer7"
     inkscape:label="wheel"
     transform="translate(0,-12)"
     style="display:inline"
     sodipodi:insensitive="true">
    <g
       transform="matrix(0.73265761,0,0,0.73265761,18.321491,-5.4462198)"
       id="layer1-6"
       inkscape:label="Ebene 1"
       style="fill:#ffff00;fill-opacity:1;stroke:#0b0bff;stroke-width:0.9554258;stroke-miterlimit:4;stroke-dasharray:none;stroke-opacity:1">
      <path
         id="path1030-5-8"
         d="m 10.812502,26.5 -0.395834,3.166666 -1.7750661,0.736003 -2.5203458,-1.960614 -1.6791995,1.6792 1.960613,2.520346 -0.7360024,1.775065 -3.1666674,0.395834 v 2.375 l 3.1666674,0.395833 0.7360024,1.775067 -1.960613,2.520345 1.6791995,1.679199 2.5203458,-1.960613 1.7750661,0.736002 L 10.812502,45.5 H 13.1875 l 0.395833,-3.166667 1.775067,-0.736002 2.520346,1.960613 1.6792,-1.679199 L 17.597332,39.3584 18.333333,37.583333 21.5,37.1875 v -2.375 l -3.166667,-0.395834 -0.736002,-1.775065 1.960615,-2.520346 -1.6792,-1.6792 L 15.3584,30.402669 13.583333,29.666666 13.1875,26.5 Z m 1.1875,6.333332 A 3.1666668,3.1666668 0 0 1 15.166668,36 3.1666668,3.1666668 0 0 1 12.000002,39.166667 3.1666668,3.1666668 0 0 1 8.8333335,36 3.1666668,3.1666668 0 0 1 12.000002,32.833332 Z"
         style="fill:#ffff00;fill-opacity:1;fill-rule:evenodd;stroke:#0b0bff;stroke-width:0.9554258;stroke-linecap:butt;stroke-linejoin:round;stroke-miterlimit:4;stroke-dasharray:none;stroke-opacity:1"
         inkscape:connector-curvature="0" />
    </g>
  </g>
  <g
     inkscape:groupmode="layer"
     id="layer8"
     inkscape:label="matte"
     style="display:inline;opacity:0.8"
     transform="translate(0,-12)"
     sodipodi:insensitive="true">
    <path
       style="fill:#ffffff;fill-rule:evenodd;stroke-width:0.99999988;filter:url(#filter1161)"
       d="m 27.561856,16.091807 h 17.707746 c 1.142247,0 2.061819,2.00856 2.061819,4.503497 v 19.454054 c 0,2.494937 -0.919572,4.503496 -2.061819,4.503496 H 27.561856 c -1.142248,0 -2.061819,-2.008559 -2.061819,-4.503496 V 20.595304 c 0,-2.494937 0.919571,-4.503497 2.061819,-4.503497 z"
       id="rect1016"
       inkscape:connector-curvature="0"
       transform="matrix(0.65928866,0,0,0.09394873,3.2325918,22.557053)" />
  </g>
  <g
     inkscape:groupmode="layer"
     id="layer5"
     inkscape:label="manager_3"
     style="display:inline"
     transform="translate(0,-12)">
    <g
       id="g974"
       style="fill:#55ddff;stroke:#0b0bff;stroke-width:0.9183653;stroke-linejoin:round;stroke-miterlimit:4;stroke-dasharray:none;stroke-opacity:1;paint-order:normal"
       transform="matrix(0.77464702,0,0,0.74999998,-0.89082513,12.000003)">
      <path
         inkscape:connector-curvature="0"
         id="path833"
         d="m 38.29885,18.937694 v 5.206711 l -3.273476,2.351621 v 14.792721 c 0,0.489625 -0.185282,0.8838 -0.415803,0.8838 h -2.288859 c -0.230521,0 -0.415803,-0.394175 -0.415803,-0.8838 V 26.59672 l -3.413858,-2.452315 v -5.206711 h 2.770724 l -0.06023,0.04315 v 3.104233 l 2.16062,1.552404 2.160135,-1.552404 v -3.104233 l -0.06023,-0.04315 z"
         style="opacity:1;fill:#55ddff;fill-opacity:1;fill-rule:nonzero;stroke:#0b0bff;stroke-width:0.9183653;stroke-linecap:butt;stroke-linejoin:round;stroke-miterlimit:4;stroke-dasharray:none;stroke-opacity:1;paint-order:normal" />
      <path
         inkscape:connector-curvature="0"
         id="rect860"
         d="m 43.579448,18.918955 5.54e-4,2.327578 -0.495113,1.022862 v 7.825459 h 0.729673 c 0.141854,0 0.256226,0.04368 0.256226,0.09831 v 1.346767 h 0.300642 c 0.200614,0 0.362398,0.189962 0.362398,0.425625 v 9.783671 c 0,0.235662 -0.161784,0.425624 -0.362398,0.425624 h -3.802203 c -0.20061,0 -0.362402,-0.189962 -0.362399,-0.425624 v -9.783671 c 0,-0.235663 0.161789,-0.425625 0.362399,-0.425625 h 0.300643 v -1.346767 c 0,-0.05463 0.11437,-0.09831 0.256225,-0.09831 h 0.729674 v -7.825459 l -0.492422,-1.022862 -0.0028,-2.327578 z"
         style="opacity:1;fill:#55ddff;fill-opacity:1;fill-rule:nonzero;stroke:#0b0bff;stroke-width:0.9183653;stroke-linecap:butt;stroke-linejoin:round;stroke-miterlimit:4;stroke-dasharray:none;stroke-opacity:1;paint-order:normal" />
    </g>
  </g>
  <g
     inkscape:groupmode="layer"
     id="layer2"
     inkscape:label="text"
     style="display:inline"
     transform="translate(0,-12)"
     sodipodi:insensitive="true">
    <flowRoot
       xml:space="preserve"
       id="flowRoot914-8"
       style="font-style:normal;font-variant:normal;font-weight:normal;font-stretch:normal;font-size:12px;line-height:1.25;font-family:'Arial Unicode MS';-inkscape-font-specification:'Arial Unicode MS';letter-spacing:0px;word-spacing:0px;clip-rule:evenodd;fill:#c500ab;fill-opacity:1;fill-rule:evenodd;stroke:#ffffff;stroke-width:2.96764684;stroke-linecap:round;stroke-linejoin:round;stroke-miterlimit:4;stroke-dasharray:none;stroke-opacity:1;paint-order:markers stroke fill;image-rendering:optimizeQuality;shape-rendering:geometricPrecision;text-rendering:geometricPrecision"
       transform="matrix(0.69531428,0,0,0.82672154,-1.4999422,11.646973)"><flowRegion
         id="flowRegion916-5"
         style="fill:#c500ab;fill-opacity:1;stroke:#ffffff;stroke-width:2.96764684;stroke-linecap:round;stroke-linejoin:round;stroke-miterlimit:4;stroke-dasharray:none;stroke-opacity:1;paint-order:markers stroke fill"><rect
           id="rect918-0"
           width="38.14209"
           height="34.674625"
           x="3.4674628"
           y="-1.8781176"
           style="fill:#c500ab;fill-opacity:1;stroke:#ffffff;stroke-width:2.96764684;stroke-linecap:round;stroke-linejoin:round;stroke-miterlimit:4;stroke-dasharray:none;stroke-opacity:1;paint-order:markers stroke fill" /></flowRegion><flowPara
         id="flowPara920-2"
         style="font-style:normal;font-variant:normal;font-weight:bold;font-stretch:normal;font-size:21.33333397px;font-family:Arial;-inkscape-font-specification:'Arial Bold';stroke:#ffffff;stroke-width:2.96764684;stroke-linecap:round;stroke-linejoin:round;stroke-miterlimit:4;stroke-dasharray:none;stroke-opacity:1;paint-order:markers stroke fill">Rx</flowPara></flowRoot>  </g>
</svg>
