<?xml version="1.0" encoding="UTF-8" standalone="no"?>
<!-- Created with Inkscape (http://www.inkscape.org/) -->

<svg
   xmlns:dc="http://purl.org/dc/elements/1.1/"
   xmlns:cc="http://creativecommons.org/ns#"
   xmlns:rdf="http://www.w3.org/1999/02/22-rdf-syntax-ns#"
   xmlns:svg="http://www.w3.org/2000/svg"
   xmlns="http://www.w3.org/2000/svg"
   xmlns:sodipodi="http://sodipodi.sourceforge.net/DTD/sodipodi-0.dtd"
   xmlns:inkscape="http://www.inkscape.org/namespaces/inkscape"
   width="36"
   height="36"
   viewBox="0 0 36 36"
   id="svg4225"
   version="1.1"
   inkscape:version="0.92.2 (5c3e80d, 2017-08-06)"
   sodipodi:docname="tmssqlconnection_150.svg"
   inkscape:export-filename="tmssqlconnection_150.png"
   inkscape:export-xdpi="96"
   inkscape:export-ydpi="96">
  <defs
     id="defs4227" />
  <sodipodi:namedview
     id="base"
     pagecolor="#ffffff"
     bordercolor="#666666"
     borderopacity="1.0"
     inkscape:pageopacity="0.0"
     inkscape:pageshadow="2"
     inkscape:zoom="20.771284"
     inkscape:cx="21.139012"
     inkscape:cy="24.997093"
     inkscape:document-units="px"
     inkscape:current-layer="layer1"
     showgrid="true"
     inkscape:snap-bbox="true"
     inkscape:bbox-paths="true"
     inkscape:bbox-nodes="true"
     inkscape:snap-bbox-edge-midpoints="true"
     inkscape:snap-bbox-midpoints="true"
     inkscape:object-paths="true"
     inkscape:snap-intersection-paths="true"
     inkscape:object-nodes="true"
     inkscape:snap-smooth-nodes="true"
     inkscape:snap-midpoints="true"
     inkscape:snap-object-midpoints="true"
     inkscape:snap-center="true"
     units="px"
     inkscape:window-width="1920"
     inkscape:window-height="1137"
     inkscape:window-x="-8"
     inkscape:window-y="-8"
     inkscape:window-maximized="1">
    <inkscape:grid
       type="xygrid"
       id="grid4241" />
  </sodipodi:namedview>
  <metadata
     id="metadata4230">
    <rdf:RDF>
      <cc:Work
         rdf:about="">
        <dc:format>image/svg+xml</dc:format>
        <dc:type
           rdf:resource="http://purl.org/dc/dcmitype/StillImage" />
        <dc:title />
      </cc:Work>
    </rdf:RDF>
  </metadata>
  <g
     inkscape:label="Ebene 1"
     inkscape:groupmode="layer"
     id="layer1"
     transform="translate(0,-1016.3622)">
    <g
       id="g895"
       transform="matrix(0.08295275,0,0,0.08295275,56.965376,955.5182)">
      <path
         style="fill:none;fill-rule:evenodd;stroke:#999999;stroke-width:8;stroke-linecap:butt;stroke-linejoin:round;stroke-miterlimit:4;stroke-dasharray:none;stroke-opacity:1"
         d="m -596,821.3622 c 17.75212,-23.59629 65.84221,-37.7018 80.17312,-43.4477 3.62178,23.87246 15.7831,49.9423 29.10472,68.4177 -35.78072,-4.18226 -75.4631,-10.14756 -109.27784,-24.97 z"
         id="path873"
         inkscape:connector-curvature="0"
         sodipodi:nodetypes="cccc" />
      <path
         style="fill:none;fill-rule:evenodd;stroke:#999999;stroke-width:8;stroke-linecap:butt;stroke-linejoin:round;stroke-miterlimit:4;stroke-dasharray:none;stroke-opacity:1"
         d="m -622.25532,1116.4048 c 52.47354,33.4293 115.7805,31.9924 136.05319,35 26.71496,-53.4847 44.0878,-116.2816 34.55241,-194.305 -37.36838,10.48763 -114.03542,37.20767 -170.35028,76.2624 -25.75944,26.1327 -46.27154,53.7271 -0.25532,83.0426 z"
         id="path875"
         inkscape:connector-curvature="0"
         sodipodi:nodetypes="scccs" />
      <path
         style="fill:none;fill-rule:evenodd;stroke:#999999;stroke-width:5;stroke-linecap:round;stroke-linejoin:round;stroke-miterlimit:4;stroke-dasharray:none;stroke-opacity:1"
         d="m -573.80245,802.80097 c 30.60627,8.82947 49.98267,11.03674 69.8791,13.56909 -12.77266,9.01218 -26.14727,19.34113 -36.09114,22.16532 -14.82468,-9.141 -23.71337,-22.89889 -33.78796,-35.73441 z"
         id="path877"
         inkscape:connector-curvature="0"
         sodipodi:nodetypes="cccc" />
      <path
         style="fill:none;fill-rule:evenodd;stroke:#999999;stroke-width:5;stroke-linecap:round;stroke-linejoin:round;stroke-miterlimit:4;stroke-dasharray:none;stroke-opacity:1"
         d="m -649.25923,1074.9798 c 91.50117,-23.0455 165.27239,-47.8823 200.24831,-76.6386 -16.04496,-6.73746 -31.15991,-17.65992 -46.72704,-26.54761 -2.31087,60.35661 -35.10434,114.61671 -71.00338,168.25571 41.0894,-9.4053 72.64164,-19.1285 97.99465,-29.0584 -40.30407,-2.5757 -133.44888,-37.1005 -120.29952,-98.0812"
         id="path879"
         inkscape:connector-curvature="0"
         sodipodi:nodetypes="cccccc" />
      <path
         style="fill:none;fill-rule:evenodd;stroke:#999999;stroke-width:5;stroke-linecap:round;stroke-linejoin:round;stroke-miterlimit:4;stroke-dasharray:none;stroke-opacity:1"
         d="m -622.25532,1116.4048 c 57.45478,-12.5931 113.81107,-32.7185 168.73228,-62.6842 -36.36555,-9.6836 -69.53113,-24.7091 -88.09429,-64.11106 -11.04494,32.34286 -48.48334,81.22446 -80.63799,126.79526 z"
         id="path881"
         inkscape:connector-curvature="0"
         sodipodi:nodetypes="cccc" />
      <path
         style="fill:none;fill-rule:evenodd;stroke:#d40000;stroke-width:8;stroke-linecap:butt;stroke-linejoin:round;stroke-miterlimit:4;stroke-dasharray:none;stroke-opacity:1"
         d="m -596,821.3622 c 45.25407,20.24001 89.59054,21.3973 134,29 75.50108,12.92545 124.24318,39.80197 148,78 -88.39925,6.68499 -238.02825,54.80282 -308,105 50.75134,-39.91224 140.77517,-126.86115 26,-212 z"
         id="path883"
         inkscape:connector-curvature="0"
         sodipodi:nodetypes="csccc" />
      <path
         style="fill:none;fill-rule:evenodd;stroke:#d40000;stroke-width:5;stroke-linecap:round;stroke-linejoin:round;stroke-miterlimit:4;stroke-dasharray:none;stroke-opacity:1"
         d="m -547.75509,876.46288 c 83.76595,20.52082 105.12447,46.04476 128.34416,71.4195"
         id="path885"
         inkscape:connector-curvature="0"
         sodipodi:nodetypes="cc" />
      <path
         style="fill:none;fill-rule:evenodd;stroke:#d40000;stroke-width:5;stroke-linecap:round;stroke-linejoin:round;stroke-miterlimit:4;stroke-dasharray:none;stroke-opacity:1"
         d="m -562.63173,973.28066 c 83.77765,-58.30612 139.08283,-78.09035 191.8072,-94.56587 -11.59994,32.61456 -30.72734,49.57201 -48.5864,69.16759"
         id="path887"
         inkscape:connector-curvature="0"
         sodipodi:nodetypes="ccc" />
      <path
         style="fill:none;fill-rule:evenodd;stroke:#d40000;stroke-width:5;stroke-linecap:round;stroke-linejoin:round;stroke-miterlimit:4;stroke-dasharray:none;stroke-opacity:1"
         d="m -511.62827,977.26207 c -2.95212,-24.68551 -14.23719,-38.70694 -31.35665,-45.2618 35.7401,-40.29859 69.60345,-56.19934 103.85259,-77.11545 -7.92312,63.88416 -44.79941,86.60521 -72.49594,122.37725 z"
         id="path889"
         inkscape:connector-curvature="0"
         sodipodi:nodetypes="cccc" />
      <path
         style="fill:none;fill-rule:evenodd;stroke:#d40000;stroke-width:5;stroke-linecap:round;stroke-linejoin:round;stroke-miterlimit:4;stroke-dasharray:none;stroke-opacity:1"
         d="m -622,1033.3622 c 60.85065,-45.63679 147.93356,-95.15247 116.67974,-189.24797 -11.48295,8.12089 -15.10221,8.37809 -42.43483,32.34865"
         id="path891"
         inkscape:connector-curvature="0"
         sodipodi:nodetypes="ccc" />
      <path
         style="fill:none;fill-rule:evenodd;stroke:#d40000;stroke-width:5;stroke-linecap:round;stroke-linejoin:round;stroke-miterlimit:4;stroke-dasharray:none;stroke-opacity:1"
         d="m -558.8026,834.27484 c 5.48038,11.36586 10.71511,23.10021 11.04751,42.18804"
         id="path893"
         inkscape:connector-curvature="0"
         sodipodi:nodetypes="cc" />
    </g>
    <g
       id="g918"
       transform="translate(1,-1)">
      <path
         sodipodi:nodetypes="ccccccccccccc"
         inkscape:connector-curvature="0"
         id="rect853"
         d="m 18.923076,1021.3622 -0.02284,-3 h 10.230767 l 0.02284,1.5 H 35 v 4.5 h -2.923076 l -0.02284,3 H 21.823313 l 0.02284,-1.5 H 16 v -4.5 z"
         style="opacity:1;fill:#ffffff;fill-opacity:1;fill-rule:evenodd;stroke:none;stroke-width:1;stroke-linecap:square;stroke-linejoin:round;stroke-miterlimit:4;stroke-dasharray:none;stroke-dashoffset:0;stroke-opacity:1;paint-order:normal" />
      <path
         sodipodi:nodetypes="ccccc"
         inkscape:connector-curvature="0"
         id="path845"
         d="m 17,1023.3622 h 4 v -3 h 6 v 3"
         style="fill:none;fill-rule:evenodd;stroke:#0000ff;stroke-width:2;stroke-linecap:butt;stroke-linejoin:miter;stroke-miterlimit:4;stroke-dasharray:none;stroke-opacity:1" />
      <path
         style="fill:none;fill-rule:evenodd;stroke:#ff0000;stroke-width:2;stroke-linecap:butt;stroke-linejoin:miter;stroke-miterlimit:4;stroke-dasharray:none;stroke-opacity:1"
         d="m 34,1022.3622 h -4 v 3 h -6 v -3"
         id="path847"
         inkscape:connector-curvature="0"
         sodipodi:nodetypes="ccccc" />
    </g>
  </g>
</svg>
