<?xml version="1.0" encoding="UTF-8" standalone="no"?>
<!-- Created with Inkscape (http://www.inkscape.org/) -->

<svg
   xmlns:osb="http://www.openswatchbook.org/uri/2009/osb"
   xmlns:dc="http://purl.org/dc/elements/1.1/"
   xmlns:cc="http://creativecommons.org/ns#"
   xmlns:rdf="http://www.w3.org/1999/02/22-rdf-syntax-ns#"
   xmlns:svg="http://www.w3.org/2000/svg"
   xmlns="http://www.w3.org/2000/svg"
   xmlns:sodipodi="http://sodipodi.sourceforge.net/DTD/sodipodi-0.dtd"
   xmlns:inkscape="http://www.inkscape.org/namespaces/inkscape"
   width="48"
   height="48"
   viewBox="0 0 48 48"
   id="svg4225"
   version="1.1"
   inkscape:version="0.92.2 (5c3e80d, 2017-08-06)"
   sodipodi:docname="tmysql40connection_200.svg"
   inkscape:export-filename="tmysql40connection_200.png"
   inkscape:export-xdpi="96"
   inkscape:export-ydpi="96">
  <defs
     id="defs4227">
    <linearGradient
       osb:paint="solid"
       id="linearGradient826">
      <stop
         id="stop824"
         offset="0"
         style="stop-color:#e6e6e6;stop-opacity:1;" />
    </linearGradient>
  </defs>
  <sodipodi:namedview
     id="base"
     pagecolor="#ffffff"
     bordercolor="#666666"
     borderopacity="1.0"
     inkscape:pageopacity="0.0"
     inkscape:pageshadow="2"
     inkscape:zoom="15.839192"
     inkscape:cx="18.218643"
     inkscape:cy="19.675809"
     inkscape:document-units="px"
     inkscape:current-layer="layer1"
     showgrid="true"
     inkscape:snap-bbox="true"
     inkscape:bbox-paths="true"
     inkscape:bbox-nodes="true"
     inkscape:snap-bbox-edge-midpoints="true"
     inkscape:snap-bbox-midpoints="true"
     inkscape:object-paths="true"
     inkscape:snap-intersection-paths="true"
     inkscape:object-nodes="true"
     inkscape:snap-smooth-nodes="true"
     inkscape:snap-midpoints="true"
     inkscape:snap-object-midpoints="true"
     inkscape:snap-center="true"
     units="px"
     inkscape:window-width="1920"
     inkscape:window-height="1137"
     inkscape:window-x="-8"
     inkscape:window-y="-8"
     inkscape:window-maximized="1">
    <inkscape:grid
       type="xygrid"
       id="grid4241" />
  </sodipodi:namedview>
  <metadata
     id="metadata4230">
    <rdf:RDF>
      <cc:Work
         rdf:about="">
        <dc:format>image/svg+xml</dc:format>
        <dc:type
           rdf:resource="http://purl.org/dc/dcmitype/StillImage" />
        <dc:title />
      </cc:Work>
    </rdf:RDF>
  </metadata>
  <g
     inkscape:label="Ebene 1"
     inkscape:groupmode="layer"
     id="layer1"
     transform="translate(0,-1004.3622)">
    <g
       id="g932">
      <path
         sodipodi:nodetypes="ccccccccccccc"
         inkscape:connector-curvature="0"
         id="rect853"
         d="m 26,1010.3622 -0.03126,-4 h 14 l 0.03126,2 h 8 v 6 h -4 l -0.03126,4 h -14 l 0.03126,-2 h -8 v -6 z"
         style="opacity:1;fill:#ffffff;fill-opacity:1;fill-rule:evenodd;stroke:none;stroke-width:1;stroke-linecap:square;stroke-linejoin:round;stroke-miterlimit:4;stroke-dasharray:none;stroke-dashoffset:0;stroke-opacity:1;paint-order:normal" />
      <path
         sodipodi:nodetypes="ccccc"
         inkscape:connector-curvature="0"
         id="path845"
         d="m 24,1013.3622 h 5 v -4 h 8 v 3"
         style="fill:none;fill-rule:evenodd;stroke:#0000ff;stroke-width:2;stroke-linecap:butt;stroke-linejoin:miter;stroke-miterlimit:4;stroke-dasharray:none;stroke-opacity:1" />
      <path
         style="fill:none;fill-rule:evenodd;stroke:#ff0000;stroke-width:2;stroke-linecap:butt;stroke-linejoin:miter;stroke-miterlimit:4;stroke-dasharray:none;stroke-opacity:1"
         d="m 46,1011.3622 h -5 v 4 h -8 v -3"
         id="path847"
         inkscape:connector-curvature="0"
         sodipodi:nodetypes="ccccc" />
    </g>
    <path
       inkscape:connector-curvature="0"
       id="path862"
       d="m 2.654258,1004.3634 c -0.591574,0.02 -1.24246,0.194 -1.637448,0.4822 C 0.395064,1005.299 0,1006.1452 0,1007.0232 c 0,0.9892 0.439166,1.853 2.041978,4.0168 1.494674,2.0178 1.649482,2.2912 2.004082,3.5366 0.803478,2.822 2.21765,6.001 3.133748,7.0436 0.61882,0.7046 0.70774,0.9086 0.52307,1.2018 -0.19948,0.3168 -0.969686,3.5144 -1.11968,4.6488 -0.1501,1.1354 -0.063,3.7198 0.16092,4.773 0.437008,2.056 1.133056,3.5414 2.141778,4.5718 0.976054,0.997 1.769256,1.1786 2.682778,0.6142 0.49764,-0.3076 0.72426,-0.9242 1.027204,-2.795 0.15102,-0.9328 0.301104,-1.7394 0.333432,-1.7928 0.0323,-0.054 0.39213,0.571 0.799682,1.3872 0.407552,0.816 0.878658,1.6706 1.04696,1.8988 0.495116,0.6714 2.13089,2.344 3.031286,3.0994 0.458868,0.385 1.162816,1.0178 1.564326,1.4062 1.133484,1.0962 1.312556,1.0756 0.233834,-0.026 -1.988948,-2.0328 -4.701478,-6.5776 -6.15994,-10.3204 -0.24897,-0.639 -0.495694,-1.1746 -0.54833,-1.19 -0.13042,-0.038 -1.079788,1.2198 -1.391598,1.8446 -0.365766,0.733 -0.59407,1.7148 -0.800694,3.444 -0.10002,0.8366 -0.229676,1.5538 -0.28802,1.5932 -0.14308,0.096 -0.577428,-0.144 -0.92148,-0.514 -0.305606,-0.3272 -0.77747,-1.3172 -1.11703,-2.3432 -0.516428,-1.5602 -0.689642,-4.4852 -0.374584,-6.324 0.0858,-0.501 0.390846,-1.6222 0.677878,-2.4922 0.728558,-2.208 0.716,-2.3344 -0.349324,-3.5162 -0.903458,-1.002 -1.544422,-2.3522 -2.447928,-5.157 -0.39492,-1.226 -0.86079,-2.5156 -1.035346,-2.8662 -0.351018,-0.7044 -1.60486,-2.5626 -2.376226,-3.5216 -0.707804,-0.8802 -1.132394,-1.8384 -1.059584,-2.3908 0.07662,-0.5814 0.270436,-0.7478 0.938188,-0.8042 0.471474,-0.04 0.722474,0.02 1.543544,0.3474 1.403112,0.5652 2.724748,1.2922 3.411172,1.8764 0.623822,0.5312 0.753054,0.651 0.941688,0.7988 0.249816,0.02 0.612984,0.038 1.871246,0.124 1.98287,0.136 2.614534,0.3144 4.559554,1.2876 5.255256,2.6292 10.238096,7.9876 12.358372,13.2898 0.24049,0.6014 0.850702,2.0012 1.356158,3.1102 0.505444,1.1094 1.198304,2.6454 1.539682,3.4132 1.09363,2.4608 1.75217,3.5102 2.420224,3.857 0.229644,0.12 1.118666,0.4528 1.975572,0.7414 0.856916,0.2886 1.861354,0.6646 2.232012,0.8358 0.82881,0.3824 5.397468,3.5206 5.706526,3.9198 l 0.224056,0.2894 -1.339452,0.078 c -0.736772,0.044 -1.785488,0.15 -2.33039,0.2406 -1.21445,0.198 -3.512202,0.9578 -3.640728,1.2026 -0.147,0.2804 0.514818,1.5656 1.208482,2.3464 1.002212,1.1288 2.56262,2.2272 4.622296,3.2546 1.791528,0.8934 3.298376,1.8774 4.400278,2.8736 0.287596,0.26 0.54483,0.4506 0.571546,0.4234 0.13018,-0.132 -0.512022,-1.079 -1.414002,-2.084 -1.887324,-2.103 -2.617416,-2.731 -4.464844,-3.84 -1.119964,-0.6722 -2.32699,-1.7138 -2.324694,-2.0064 0.0013,-0.186 2.370784,-0.7828 3.805306,-0.9572 1.237234,-0.15 2.867928,-0.6104 2.867928,-0.8086 0,-0.2602 -1.312074,-1.817 -2.1206,-2.5164 -1.04036,-0.9 -2.939188,-2.3428 -4.0538,-3.0804 -0.770366,-0.5096 -3.835032,-2.0196 -4.522894,-2.2288 -0.11896,-0.036 -0.342872,-0.2002 -0.497614,-0.3646 -0.467692,-0.4968 -2.84044,-5.496 -4.311262,-9.0834 -0.836332,-2.04 -1.43752,-3.13 -2.780344,-5.0412 -2.321666,-3.3042 -4.810194,-5.6882 -8.567736,-8.2082 -1.971782,-1.3224 -2.704546,-1.6824 -4.367684,-2.1464 -1.021716,-0.285 -1.630786,-0.3884 -2.602528,-0.442 -0.697742,-0.038 -1.290822,-0.142 -1.477146,-0.178 -0.291838,-0.2288 -0.443228,-0.3078 -0.73002,-0.5518 -1.374998,-1.1698 -3.648512,-2.2012 -5.37085,-2.4366 -0.12632,-0.02 -0.259654,-0.026 -0.396174,-0.022 z m 7.364346,7.9316 c -0.86697,0.02 -0.90347,0.09 -0.356246,0.7416 0.26694,0.3176 0.6546,0.944 0.861394,1.3916 0.226074,0.4896 0.426268,0.7944 0.502096,0.765 0.21062,-0.082 0.576228,-0.8432 0.576228,-1.1994 0,-0.8466 -0.806272,-1.7116 -1.583472,-1.6988 z"
       style="fill:#0055d4;stroke-width:0.10521538"
       sodipodi:nodetypes="ccsccccccccccccccccccccccccccccccccccccccccccccccccccccccsccccccccccccccccccsc" />
    <text
       xml:space="preserve"
       style="font-style:normal;font-variant:normal;font-weight:normal;font-stretch:normal;font-size:16px;line-height:50px;font-family:'Segoe UI';-inkscape-font-specification:'Segoe UI';letter-spacing:0px;word-spacing:0px;fill:#d40000;fill-opacity:1;stroke:none;stroke-width:2px;stroke-linecap:butt;stroke-linejoin:miter;stroke-opacity:1"
       x="1.550625"
       y="1050.1409"
       id="text866"><tspan
         sodipodi:role="line"
         id="tspan864"
         x="1.550625"
         y="1050.1409"
         style="stroke-width:2px">40</tspan></text>
  </g>
</svg>
