<?xml version="1.0" encoding="UTF-8" standalone="no"?>
<!-- Created with Inkscape (http://www.inkscape.org/) -->

<svg
   xmlns:dc="http://purl.org/dc/elements/1.1/"
   xmlns:cc="http://creativecommons.org/ns#"
   xmlns:rdf="http://www.w3.org/1999/02/22-rdf-syntax-ns#"
   xmlns:svg="http://www.w3.org/2000/svg"
   xmlns="http://www.w3.org/2000/svg"
   xmlns:sodipodi="http://sodipodi.sourceforge.net/DTD/sodipodi-0.dtd"
   xmlns:inkscape="http://www.inkscape.org/namespaces/inkscape"
   width="36"
   height="36"
   viewBox="0 0 36 36"
   id="svg4225"
   version="1.1"
   inkscape:version="0.92.2 (5c3e80d, 2017-08-06)"
   sodipodi:docname="tmysql55connection_150.svg"
   inkscape:export-filename="tmysql55connection_150.png"
   inkscape:export-xdpi="96"
   inkscape:export-ydpi="96">
  <defs
     id="defs4227" />
  <sodipodi:namedview
     id="base"
     pagecolor="#ffffff"
     bordercolor="#666666"
     borderopacity="1.0"
     inkscape:pageopacity="0.0"
     inkscape:pageshadow="2"
     inkscape:zoom="14.687516"
     inkscape:cx="12.694268"
     inkscape:cy="15.874029"
     inkscape:document-units="px"
     inkscape:current-layer="layer1"
     showgrid="true"
     inkscape:snap-bbox="true"
     inkscape:bbox-paths="true"
     inkscape:bbox-nodes="true"
     inkscape:snap-bbox-edge-midpoints="true"
     inkscape:snap-bbox-midpoints="true"
     inkscape:object-paths="true"
     inkscape:snap-intersection-paths="true"
     inkscape:object-nodes="true"
     inkscape:snap-smooth-nodes="true"
     inkscape:snap-midpoints="true"
     inkscape:snap-object-midpoints="true"
     inkscape:snap-center="true"
     units="px"
     inkscape:window-width="1920"
     inkscape:window-height="1137"
     inkscape:window-x="-8"
     inkscape:window-y="-8"
     inkscape:window-maximized="1">
    <inkscape:grid
       type="xygrid"
       id="grid4241" />
  </sodipodi:namedview>
  <metadata
     id="metadata4230">
    <rdf:RDF>
      <cc:Work
         rdf:about="">
        <dc:format>image/svg+xml</dc:format>
        <dc:type
           rdf:resource="http://purl.org/dc/dcmitype/StillImage" />
        <dc:title />
      </cc:Work>
    </rdf:RDF>
  </metadata>
  <g
     inkscape:label="Ebene 1"
     inkscape:groupmode="layer"
     id="layer1"
     transform="translate(0,-1016.3622)">
    <g
       id="g918"
       transform="translate(1,-1)">
      <path
         sodipodi:nodetypes="ccccccccccccc"
         inkscape:connector-curvature="0"
         id="rect853"
         d="m 18.923076,1021.3622 -0.02284,-3 h 10.230767 l 0.02284,1.5 H 35 v 4.5 h -2.923076 l -0.02284,3 H 21.823313 l 0.02284,-1.5 H 16 v -4.5 z"
         style="opacity:1;fill:#ffffff;fill-opacity:1;fill-rule:evenodd;stroke:none;stroke-width:1;stroke-linecap:square;stroke-linejoin:round;stroke-miterlimit:4;stroke-dasharray:none;stroke-dashoffset:0;stroke-opacity:1;paint-order:normal" />
      <path
         sodipodi:nodetypes="ccccc"
         inkscape:connector-curvature="0"
         id="path845"
         d="m 17,1023.3622 h 4 v -3 h 6 v 3"
         style="fill:none;fill-rule:evenodd;stroke:#0000ff;stroke-width:2;stroke-linecap:butt;stroke-linejoin:miter;stroke-miterlimit:4;stroke-dasharray:none;stroke-opacity:1" />
      <path
         style="fill:none;fill-rule:evenodd;stroke:#ff0000;stroke-width:2;stroke-linecap:butt;stroke-linejoin:miter;stroke-miterlimit:4;stroke-dasharray:none;stroke-opacity:1"
         d="m 34,1022.3622 h -4 v 3 h -6 v -3"
         id="path847"
         inkscape:connector-curvature="0"
         sodipodi:nodetypes="ccccc" />
    </g>
    <path
       inkscape:connector-curvature="0"
       id="path862"
       d="m 1.990693,1016.3622 c -0.44368,0.015 -0.931845,0.1455 -1.228086,0.3616 C 0.296298,1017.0639 0,1017.6985 0,1018.357 c 0,0.7419 0.329374,1.3898 1.531483,3.0126 1.121006,1.5134 1.237112,1.7184 1.503062,2.6525 0.602608,2.1165 1.663237,4.5007 2.350311,5.2827 0.464115,0.5284 0.530805,0.6814 0.392302,0.9013 -0.14961,0.2376 -0.727264,2.6358 -0.83976,3.4866 -0.112575,0.8516 -0.04725,2.7899 0.12069,3.5798 0.327756,1.542 0.849792,2.656 1.606334,3.4288 0.73204,0.7478 1.326942,0.884 2.012083,0.4607 0.37323,-0.2307 0.543195,-0.6932 0.770403,-2.0963 0.113265,-0.6996 0.225828,-1.3045 0.250074,-1.3446 0.02423,-0.041 0.294098,0.4283 0.599762,1.0404 0.305664,0.612 0.658993,1.253 0.78522,1.4241 0.371337,0.5036 1.598167,1.758 2.273464,2.3246 0.344151,0.2887 0.872112,0.7633 1.173245,1.0546 0.850113,0.8222 0.984417,0.8067 0.175375,-0.019 -1.491711,-1.5246 -3.526108,-4.9332 -4.619955,-7.7403 -0.186727,-0.4792 -0.37177,-0.8809 -0.411247,-0.8925 -0.09782,-0.028 -0.809841,0.9149 -1.043699,1.3835 -0.274324,0.5497 -0.445552,1.2861 -0.60052,2.583 -0.07502,0.6274 -0.172257,1.1653 -0.216015,1.1949 -0.10731,0.072 -0.433071,-0.108 -0.69111,-0.3855 -0.229205,-0.2454 -0.583103,-0.9879 -0.837773,-1.7574 -0.387321,-1.1702 -0.517231,-3.3639 -0.280938,-4.743 0.06435,-0.3758 0.293135,-1.2167 0.508409,-1.8692 0.546418,-1.656 0.537,-1.7508 -0.261993,-2.6371 -0.677594,-0.7515 -1.158317,-1.7642 -1.835946,-3.8678 -0.29619,-0.9195 -0.645593,-1.8867 -0.77651,-2.1496 -0.263263,-0.5283 -1.203645,-1.922 -1.782169,-2.6412 -0.530853,-0.6602 -0.849296,-1.3788 -0.794688,-1.7931 0.05747,-0.4361 0.202827,-0.5609 0.703641,-0.6032 0.353605,-0.03 0.541855,0.015 1.157658,0.2606 1.052334,0.4239 2.043561,0.9691 2.558379,1.4073 0.467866,0.3984 0.56479,0.4882 0.706266,0.5991 0.187362,0.015 0.459738,0.029 1.403434,0.093 1.487153,0.102 1.960901,0.2358 3.419666,0.9657 3.941442,1.9719 7.678572,5.9907 9.268779,9.9673 0.180367,0.4511 0.638026,1.5009 1.017118,2.3327 0.379083,0.832 0.898728,1.984 1.154762,2.5599 0.820222,1.8456 1.314127,2.6326 1.815168,2.8927 0.172233,0.09 0.838999,0.3396 1.481679,0.5561 0.642687,0.2164 1.396015,0.4984 1.674009,0.6268 0.621607,0.2868 4.048101,2.6405 4.279894,2.9399 l 0.168042,0.217 -1.004589,0.059 c -0.552579,0.033 -1.339116,0.1125 -1.747792,0.1805 -0.910838,0.1485 -2.634152,0.7183 -2.730546,0.9019 -0.11025,0.2103 0.386113,1.1742 0.906361,1.7598 0.751659,0.8466 1.921965,1.6704 3.466722,2.441 1.343646,0.67 2.473782,1.408 3.300209,2.1552 0.215697,0.195 0.408622,0.3379 0.428659,0.3175 0.09763,-0.099 -0.384016,-0.8092 -1.060501,-1.563 -1.415493,-1.5772 -1.963062,-2.0482 -3.348633,-2.88 -0.839973,-0.5041 -1.745243,-1.2853 -1.743521,-1.5048 9.74e-4,-0.1395 1.778088,-0.5871 2.85398,-0.7179 0.927925,-0.1125 2.150946,-0.4578 2.150946,-0.6064 0,-0.1952 -0.984056,-1.3628 -1.59045,-1.8873 -0.78027,-0.675 -2.204391,-1.7571 -3.04035,-2.3103 -0.577775,-0.3822 -2.876274,-1.5147 -3.392171,-1.6716 -0.08922,-0.027 -0.257154,-0.1502 -0.37321,-0.2735 -0.350769,-0.3726 -2.13033,-4.122 -3.233447,-6.8125 -0.627249,-1.53 -1.07814,-2.3475 -2.085258,-3.7809 -1.741249,-2.4782 -3.607645,-4.2662 -6.425802,-6.1562 -1.478836,-0.9918 -2.028409,-1.2618 -3.275763,-1.6098 -0.766287,-0.2137 -1.223089,-0.2913 -1.951896,-0.3315 -0.523306,-0.028 -0.968116,-0.1065 -1.107859,-0.1335 -0.218879,-0.1716 -0.332421,-0.2308 -0.547515,-0.4138 -1.031249,-0.8774 -2.736384,-1.6509 -4.028138,-1.8275 -0.09474,-0.015 -0.19474,-0.019 -0.29713,-0.016 z m 5.52326,5.9487 c -0.650228,0.015 -0.677603,0.068 -0.267185,0.5562 0.200205,0.2382 0.49095,0.708 0.646046,1.0437 0.169555,0.3672 0.319701,0.5958 0.376572,0.5737 0.157965,-0.062 0.432171,-0.6324 0.432171,-0.8995 0,-0.635 -0.604704,-1.2837 -1.187604,-1.2741 z"
       style="fill:#0055d4;stroke-width:0.07891154"
       sodipodi:nodetypes="ccsccccccccccccccccccccccccccccccccccccccccccccccccccccccsccccccccccccccccccsc" />
    <text
       xml:space="preserve"
       style="font-style:normal;font-variant:normal;font-weight:normal;font-stretch:normal;font-size:12px;line-height:37.5px;font-family:'Segoe UI';-inkscape-font-specification:'Segoe UI';letter-spacing:0px;word-spacing:0px;fill:#d40000;fill-opacity:1;stroke:none;stroke-width:1.5px;stroke-linecap:butt;stroke-linejoin:miter;stroke-opacity:1"
       x="0.83906251"
       y="1051.1057"
       id="text866"><tspan
         sodipodi:role="line"
         id="tspan864"
         x="0.83906251"
         y="1051.1057"
         style="stroke-width:1.5px"
         dx="0 -0.49000004">55</tspan></text>
  </g>
</svg>
