<?xml version="1.0" encoding="UTF-8" standalone="no"?>
<!-- Created with Inkscape (http://www.inkscape.org/) -->

<svg
   xmlns:dc="http://purl.org/dc/elements/1.1/"
   xmlns:cc="http://creativecommons.org/ns#"
   xmlns:rdf="http://www.w3.org/1999/02/22-rdf-syntax-ns#"
   xmlns:svg="http://www.w3.org/2000/svg"
   xmlns="http://www.w3.org/2000/svg"
   xmlns:sodipodi="http://sodipodi.sourceforge.net/DTD/sodipodi-0.dtd"
   xmlns:inkscape="http://www.inkscape.org/namespaces/inkscape"
   width="36"
   height="36"
   viewBox="0 0 36 36"
   id="svg4225"
   version="1.1"
   inkscape:version="0.92.2 (5c3e80d, 2017-08-06)"
   sodipodi:docname="tsqlite3connection_150.svg"
   inkscape:export-filename="tsqlite3connection_150.png"
   inkscape:export-xdpi="96"
   inkscape:export-ydpi="96">
  <defs
     id="defs4227" />
  <sodipodi:namedview
     id="base"
     pagecolor="#ffffff"
     bordercolor="#666666"
     borderopacity="1.0"
     inkscape:pageopacity="0.0"
     inkscape:pageshadow="2"
     inkscape:zoom="20.771284"
     inkscape:cx="6.2767125"
     inkscape:cy="18.10031"
     inkscape:document-units="px"
     inkscape:current-layer="layer1"
     showgrid="true"
     inkscape:snap-bbox="true"
     inkscape:bbox-paths="true"
     inkscape:bbox-nodes="true"
     inkscape:snap-bbox-edge-midpoints="true"
     inkscape:snap-bbox-midpoints="true"
     inkscape:object-paths="true"
     inkscape:snap-intersection-paths="true"
     inkscape:object-nodes="true"
     inkscape:snap-smooth-nodes="true"
     inkscape:snap-midpoints="true"
     inkscape:snap-object-midpoints="true"
     inkscape:snap-center="true"
     units="px"
     inkscape:window-width="1920"
     inkscape:window-height="1137"
     inkscape:window-x="-8"
     inkscape:window-y="-8"
     inkscape:window-maximized="1">
    <inkscape:grid
       type="xygrid"
       id="grid4241" />
  </sodipodi:namedview>
  <metadata
     id="metadata4230">
    <rdf:RDF>
      <cc:Work
         rdf:about="">
        <dc:format>image/svg+xml</dc:format>
        <dc:type
           rdf:resource="http://purl.org/dc/dcmitype/StillImage" />
        <dc:title />
      </cc:Work>
    </rdf:RDF>
  </metadata>
  <g
     inkscape:label="Ebene 1"
     inkscape:groupmode="layer"
     id="layer1"
     transform="translate(0,-1016.3622)">
    <g
       id="g918">
      <path
         sodipodi:nodetypes="ccccccccccccc"
         inkscape:connector-curvature="0"
         id="rect853"
         d="m 18.923076,1021.3622 -0.02284,-3 h 10.230767 l 0.02284,1.5 H 35 v 4.5 h -2.923076 l -0.02284,3 H 21.823313 l 0.02284,-1.5 H 16 v -4.5 z"
         style="opacity:1;fill:#ffffff;fill-opacity:1;fill-rule:evenodd;stroke:none;stroke-width:1;stroke-linecap:square;stroke-linejoin:round;stroke-miterlimit:4;stroke-dasharray:none;stroke-dashoffset:0;stroke-opacity:1;paint-order:normal" />
      <path
         sodipodi:nodetypes="ccccc"
         inkscape:connector-curvature="0"
         id="path845"
         d="m 17,1023.3622 h 4 v -3 h 6 v 3"
         style="fill:none;fill-rule:evenodd;stroke:#0000ff;stroke-width:2;stroke-linecap:butt;stroke-linejoin:miter;stroke-miterlimit:4;stroke-dasharray:none;stroke-opacity:1" />
      <path
         style="fill:none;fill-rule:evenodd;stroke:#ff0000;stroke-width:2;stroke-linecap:butt;stroke-linejoin:miter;stroke-miterlimit:4;stroke-dasharray:none;stroke-opacity:1"
         d="m 34,1022.3622 h -4 v 3 h -6 v -3"
         id="path847"
         inkscape:connector-curvature="0"
         sodipodi:nodetypes="ccccc" />
    </g>
    <path
       style="fill:#006680;fill-opacity:1;stroke-width:1"
       d="m 2.6738814,1019.6308 c 0.347016,-0.144 0.729497,-0.2283 1.116214,-0.2555 0.757403,-0.051 1.575706,0.05 2.367364,0.2895 0.925324,0.2073 1.8039,0.6582 2.561094,1.0308 3.4125496,1.7637 7.1430446,4.7967 10.1624126,8.2634 1.117322,1.2826 1.49048,1.6576 1.545153,1.9395 -0.03306,0.072 0.02655,3.3721 0.45073,4.2136 l 0.392828,-1.4422 c 0.33559,-1.232 0.10167,-1.4934 0.816005,-0.6683 0.336058,0.3881 0.657255,0.7184 0.683166,0.7811 0.02577,0.063 0.04518,0.4282 0.04254,0.8124 -0.0039,0.5836 0.450982,2.2573 0.557114,2.9179 0.0147,0.091 0.0696,-0.2905 0.122745,-0.8457 0.053,-0.5554 0.12279,-1.1715 0.155094,-1.3698 l 0.0587,-0.3606 0.44405,0.5978 c 0.654759,0.882 0.810963,1.141 0.853785,1.7007 -0.103755,1.753 0.10947,3.8709 0.97437,6.1996 1.939452,4.041 2.532319,6.4991 2.607055,8.3304 0.03945,0.3854 0.02456,0.5757 -0.04981,0.5898 -0.142605,0.027 -0.14751,0.018 -0.286533,-0.8418 -0.561147,-3.4488 -2.634546,-7.8915 -5.770759,-12.3651 -2.677451,-3.8193 -5.403168,-6.7939 -8.981304,-9.8016 -3.5705786,-3.0012 -7.6750186,-5.517 -10.3576946,-6.3487 l -0.501135,-0.1551 0.491283,0.2316 c 2.755105,1.2984 6.773866,4.7845 11.3679746,9.1282 3.621913,4.0076 6.719704,7.7615 8.930253,11.4561 -1.593326,-1.1887 -2.814845,-2.3209 -4.504502,-2.5269 -0.58665,-0.066 -0.759486,-0.135 -1.681638,-0.6733 -0.988363,-0.5765 -2.277117,-1.3758 -3.717633,-2.306 -0.407361,-0.2629 -0.639393,-0.4566 -0.577621,-0.4822 0.307779,-0.1275 3.462072,-0.5127 4.172544,-0.51 0.457495,0 0.826446,0 0.820593,-0.021 -0.01673,-0.041 -2.20262,-0.8387 -3.246752,-0.9152 -0.520302,-0.037 -1.440342,-0.2356 -2.132989,-0.2254 l -1.25931,0.019 c -1.3951316,-0.7449 -3.2268836,-1.8152 -4.3925306,-2.8403 -4.647218,-4.0869 -6.78267803,-7.5778 -6.35264303,-10.5573 0.10641,-0.7366 0.54152003,-1.7103 0.99231203,-2.2201 0.285331,-0.3228 0.679809,-0.5868 1.127773,-0.767 z"
       id="path849"
       inkscape:connector-curvature="0"
       sodipodi:nodetypes="cccccccscsccccccccccccsccccccccscscccscccc" />
  </g>
</svg>
