<?xml version="1.0" encoding="UTF-8" standalone="no"?>
<!-- Created with Inkscape (http://www.inkscape.org/) -->

<svg
   xmlns:dc="http://purl.org/dc/elements/1.1/"
   xmlns:cc="http://creativecommons.org/ns#"
   xmlns:rdf="http://www.w3.org/1999/02/22-rdf-syntax-ns#"
   xmlns:svg="http://www.w3.org/2000/svg"
   xmlns="http://www.w3.org/2000/svg"
   xmlns:sodipodi="http://sodipodi.sourceforge.net/DTD/sodipodi-0.dtd"
   xmlns:inkscape="http://www.inkscape.org/namespaces/inkscape"
   width="16"
   height="16"
   id="svg2"
   sodipodi:version="0.32"
   inkscape:version="0.92.3 (2405546, 2018-03-11)"
   version="1.0"
   sodipodi:docname="menu_build_all.svg"
   inkscape:output_extension="org.inkscape.output.svg.inkscape"
   inkscape:export-filename="menu_build_all.png"
   inkscape:export-xdpi="96"
   inkscape:export-ydpi="96">
  <defs
     id="defs4" />
  <sodipodi:namedview
     id="base"
     pagecolor="#ffffff"
     bordercolor="#666666"
     borderopacity="1.0"
     inkscape:pageopacity="0.0"
     inkscape:pageshadow="2"
     inkscape:zoom="41.542933"
     inkscape:cx="-2.963379"
     inkscape:cy="7.5486973"
     inkscape:document-units="px"
     inkscape:current-layer="layer1"
     showgrid="true"
     objecttolerance="10"
     gridtolerance="10"
     guidetolerance="10"
     showguides="true"
     inkscape:guide-bbox="true"
     inkscape:window-width="1920"
     inkscape:window-height="1137"
     inkscape:window-x="-8"
     inkscape:window-y="-8"
     inkscape:snap-bbox="true"
     inkscape:bbox-paths="true"
     inkscape:bbox-nodes="true"
     inkscape:snap-bbox-edge-midpoints="true"
     inkscape:snap-bbox-midpoints="true"
     inkscape:object-paths="true"
     inkscape:snap-intersection-paths="true"
     inkscape:object-nodes="true"
     inkscape:snap-smooth-nodes="true"
     inkscape:snap-midpoints="true"
     inkscape:snap-object-midpoints="true"
     inkscape:snap-center="true"
     inkscape:window-maximized="1"
     inkscape:snap-grids="true">
    <inkscape:grid
       type="xygrid"
       id="grid2409"
       visible="true"
       enabled="true"
       spacingx="0.5"
       spacingy="0.5"
       empspacing="2"
       snapvisiblegridlinesonly="true"
       originx="0"
       originy="0" />
  </sodipodi:namedview>
  <metadata
     id="metadata7">
    <rdf:RDF>
      <cc:Work
         rdf:about="">
        <dc:format>image/svg+xml</dc:format>
        <dc:type
           rdf:resource="http://purl.org/dc/dcmitype/StillImage" />
        <dc:title />
      </cc:Work>
    </rdf:RDF>
  </metadata>
  <g
     inkscape:label="Ebene 1"
     inkscape:groupmode="layer"
     id="layer1">
    <path
       id="path825"
       d="M 4.4078949,0.26315759 4.2105264,1.842105 3.3254517,2.209087 2.0687706,1.2314965 1.2314969,2.0687704 2.2090874,3.3254521 1.8421053,4.2105261 0.2631579,4.4078946 V 5.5921051 L 1.8421053,5.7894736 2.2090874,6.6745477 1.2314958,7.9312297 2.0687706,8.7685036 3.3254517,7.7909126 4.2105264,8.1578947 4.4078949,9.7368421 H 5.5921054 L 5.7894739,8.1578947 6.6745476,7.7909126 7.9312297,8.7685036 8.7685036,7.9312297 7.7909126,6.6745477 8.1578947,5.7894736 9.7368421,5.5921051 V 4.4078946 L 8.1578947,4.2105261 7.7909126,3.3254521 8.7685036,2.0687703 7.9312297,1.2314965 6.6745476,2.209087 5.7894739,1.842105 5.5921054,0.26315759 Z M 5.0000002,3.4210524 A 1.5789474,1.5789474 0 0 1 6.5789473,4.9999998 1.5789474,1.5789474 0 0 1 5.0000002,6.5789473 1.5789474,1.5789474 0 0 1 3.4210527,4.9999998 1.5789474,1.5789474 0 0 1 5.0000002,3.4210524 Z"
       style="fill:#dc0000;fill-opacity:1;fill-rule:evenodd;stroke:#8c0000;stroke-width:0.526;stroke-linecap:butt;stroke-linejoin:round;stroke-miterlimit:4;stroke-dasharray:none;stroke-opacity:1"
       inkscape:connector-curvature="0" />
    <path
       inkscape:connector-curvature="0"
       style="fill:#dc0000;fill-opacity:1;fill-rule:evenodd;stroke:#8c0000;stroke-width:0.52600002;stroke-linecap:butt;stroke-linejoin:round;stroke-miterlimit:4;stroke-dasharray:none;stroke-opacity:1"
       d="M 10.407895,6.2633155 10.210526,7.8422629 9.3254517,8.2092449 8.0687706,7.2316544 7.2314969,8.0689283 8.2090874,9.32561 7.8421053,10.210684 6.2631579,10.408052 v 1.184211 l 1.5789474,0.197368 0.3669821,0.885075 -0.9775916,1.256682 0.8372748,0.837273 1.2566811,-0.977591 0.8850743,0.366983 0.197369,1.578947 h 1.18421 l 0.197369,-1.578947 0.885074,-0.366983 1.256682,0.977591 0.837274,-0.837273 -0.977591,-1.256682 0.366982,-0.885075 1.578947,-0.197368 V 10.408052 L 14.157895,10.210684 13.790913,9.32561 14.768504,8.0689282 13.93123,7.2316544 12.674548,8.2092449 11.789474,7.8422629 11.592105,6.2633155 Z M 11,9.4212103 A 1.5789474,1.5789474 0 0 1 12.578947,11.000158 1.5789474,1.5789474 0 0 1 11,12.579105 1.5789474,1.5789474 0 0 1 9.4210527,11.000158 1.5789474,1.5789474 0 0 1 11,9.4212103 Z"
       id="path837" />
  </g>
</svg>
