<?xml version="1.0" encoding="UTF-8" standalone="no"?>
<!-- Created with Inkscape (http://www.inkscape.org/) -->

<svg
   xmlns:dc="http://purl.org/dc/elements/1.1/"
   xmlns:cc="http://creativecommons.org/ns#"
   xmlns:rdf="http://www.w3.org/1999/02/22-rdf-syntax-ns#"
   xmlns:svg="http://www.w3.org/2000/svg"
   xmlns="http://www.w3.org/2000/svg"
   xmlns:sodipodi="http://sodipodi.sourceforge.net/DTD/sodipodi-0.dtd"
   xmlns:inkscape="http://www.inkscape.org/namespaces/inkscape"
   width="16"
   height="16"
   id="svg2"
   sodipodi:version="0.32"
   inkscape:version="0.92.3 (2405546, 2018-03-11)"
   version="1.0"
   sodipodi:docname="menu_uncomment.svg"
   inkscape:output_extension="org.inkscape.output.svg.inkscape"
   inkscape:export-filename="menu_uncomment.png"
   inkscape:export-xdpi="96"
   inkscape:export-ydpi="96">
  <defs
     id="defs4" />
  <sodipodi:namedview
     id="base"
     pagecolor="#ffffff"
     bordercolor="#666666"
     borderopacity="1.0"
     inkscape:pageopacity="0.0"
     inkscape:pageshadow="2"
     inkscape:zoom="53.077258"
     inkscape:cx="8.0965727"
     inkscape:cy="7.5447484"
     inkscape:document-units="px"
     inkscape:current-layer="layer1"
     showgrid="true"
     objecttolerance="10"
     gridtolerance="10"
     guidetolerance="10"
     showguides="true"
     inkscape:guide-bbox="true"
     inkscape:window-width="1920"
     inkscape:window-height="1137"
     inkscape:window-x="-8"
     inkscape:window-y="-8"
     inkscape:snap-bbox="true"
     inkscape:bbox-paths="true"
     inkscape:bbox-nodes="true"
     inkscape:snap-bbox-edge-midpoints="true"
     inkscape:snap-bbox-midpoints="true"
     inkscape:object-paths="true"
     inkscape:snap-intersection-paths="true"
     inkscape:object-nodes="true"
     inkscape:snap-smooth-nodes="true"
     inkscape:snap-midpoints="true"
     inkscape:snap-object-midpoints="true"
     inkscape:snap-center="true"
     inkscape:window-maximized="1">
    <inkscape:grid
       type="xygrid"
       id="grid2409"
       visible="true"
       enabled="true"
       spacingx="0.5"
       spacingy="0.5"
       empspacing="2"
       snapvisiblegridlinesonly="true"
       originx="0"
       originy="0" />
  </sodipodi:namedview>
  <metadata
     id="metadata7">
    <rdf:RDF>
      <cc:Work
         rdf:about="">
        <dc:format>image/svg+xml</dc:format>
        <dc:type
           rdf:resource="http://purl.org/dc/dcmitype/StillImage" />
        <dc:title />
      </cc:Work>
    </rdf:RDF>
  </metadata>
  <g
     inkscape:label="Ebene 1"
     inkscape:groupmode="layer"
     id="layer1">
    <g
       aria-label="{ }"
       style="font-style:normal;font-variant:normal;font-weight:bold;font-stretch:normal;font-size:12px;line-height:25px;font-family:'Segoe UI';-inkscape-font-specification:'Segoe UI Bold';letter-spacing:0px;word-spacing:0px;fill:#0055d4;fill-opacity:1;stroke:none;stroke-width:1px;stroke-linecap:butt;stroke-linejoin:miter;stroke-opacity:1"
       id="text829">
      <path
         d="m 5.8642578,13.178 q -1.2773437,0 -1.8574219,-0.46875 Q 3.4267578,12.2405 3.4267578,11.039329 V 9.6330786 q 0,-1.078125 -0.890625,-1.078125 v -1.078125 q 0.890625,0 0.890625,-1.1191406 V 5.0510473 q 0,-1.2070312 0.5742188,-1.6933593 0.5742187,-0.4921875 1.8632812,-0.4921875 v 1.0957031 q -0.9375,0 -0.9375,1.0195312 v 1.2480469 q 0,1.40625 -0.9023437,1.7753906 v 0.023437 Q 4.9267578,8.3908911 4.9267578,9.826438 v 1.201172 q 0,0.574219 0.2167969,0.814453 0.2226562,0.240234 0.7207031,0.240234 z"
         style=""
         id="path831" />
      <path
         d="m 13.463867,8.5549536 q -0.896484,0 -0.896484,1.0957031 v 1.3535153 q 0,1.236328 -0.574219,1.705078 -0.568359,0.46875 -1.851562,0.46875 v -1.095703 q 0.492187,0 0.714843,-0.240234 0.222657,-0.234375 0.222657,-0.802734 V 9.7912817 q 0,-1.4003906 0.896484,-1.7519531 V 8.0158911 Q 11.079102,7.6467505 11.079102,6.1819067 V 4.9807348 q 0,-1.0195312 -0.9375,-1.0195312 V 2.8655005 q 1.277343,0 1.851562,0.4921875 0.574219,0.4863281 0.574219,1.6699218 v 1.3417969 q 0,1.1074219 0.896484,1.1074219 z"
         style=""
         id="path833" />
    </g>
    <path
       style="fill:none;fill-rule:evenodd;stroke:#f00000;stroke-width:2.5;stroke-linecap:round;stroke-linejoin:miter;stroke-miterlimit:4;stroke-dasharray:none;stroke-opacity:1"
       d="M 2,13 14,3"
       id="path830"
       inkscape:connector-curvature="0"
       sodipodi:nodetypes="cc" />
  </g>
</svg>
