<?xml version="1.0" encoding="UTF-8" standalone="no"?>
<!-- Created with Inkscape (http://www.inkscape.org/) -->

<svg
   xmlns:dc="http://purl.org/dc/elements/1.1/"
   xmlns:cc="http://creativecommons.org/ns#"
   xmlns:rdf="http://www.w3.org/1999/02/22-rdf-syntax-ns#"
   xmlns:svg="http://www.w3.org/2000/svg"
   xmlns="http://www.w3.org/2000/svg"
   xmlns:sodipodi="http://sodipodi.sourceforge.net/DTD/sodipodi-0.dtd"
   xmlns:inkscape="http://www.inkscape.org/namespaces/inkscape"
   width="32"
   height="32"
   id="svg2"
   sodipodi:version="0.32"
   inkscape:version="0.92.3 (2405546, 2018-03-11)"
   version="1.0"
   sodipodi:docname="menu_build_200.svg"
   inkscape:output_extension="org.inkscape.output.svg.inkscape"
   inkscape:export-filename="menu_build_200.png"
   inkscape:export-xdpi="96"
   inkscape:export-ydpi="96">
  <defs
     id="defs4" />
  <sodipodi:namedview
     id="base"
     pagecolor="#ffffff"
     bordercolor="#666666"
     borderopacity="1.0"
     inkscape:pageopacity="0.0"
     inkscape:pageshadow="2"
     inkscape:zoom="25.56463"
     inkscape:cx="16.56668"
     inkscape:cy="15.077273"
     inkscape:document-units="px"
     inkscape:current-layer="layer1"
     showgrid="true"
     objecttolerance="10"
     gridtolerance="10"
     guidetolerance="10"
     showguides="true"
     inkscape:guide-bbox="true"
     inkscape:window-width="1920"
     inkscape:window-height="1137"
     inkscape:window-x="-8"
     inkscape:window-y="-8"
     inkscape:window-maximized="1">
    <inkscape:grid
       type="xygrid"
       id="grid2409"
       visible="true"
       enabled="true"
       spacingx="0.5"
       spacingy="0.5"
       empspacing="2"
       snapvisiblegridlinesonly="true"
       originx="0"
       originy="0" />
  </sodipodi:namedview>
  <metadata
     id="metadata7">
    <rdf:RDF>
      <cc:Work
         rdf:about="">
        <dc:format>image/svg+xml</dc:format>
        <dc:type
           rdf:resource="http://purl.org/dc/dcmitype/StillImage" />
        <dc:title />
      </cc:Work>
    </rdf:RDF>
  </metadata>
  <g
     inkscape:label="Ebene 1"
     inkscape:groupmode="layer"
     id="layer1">
    <path
       inkscape:connector-curvature="0"
       style="fill:#aaccff;fill-opacity:1;fill-rule:evenodd;stroke:#457abe;stroke-width:1.5;stroke-linecap:butt;stroke-linejoin:round;stroke-miterlimit:4;stroke-dasharray:none;stroke-opacity:1"
       d="M 14.46875,3.7500003 13.958333,7.8333334 11.669435,8.7823899 8.4195153,6.2542311 6.2542321,8.4195146 l 2.5281576,3.2499194 -0.949056,2.2889 -4.0833332,0.510416 v 3.0625 l 4.0833332,0.510418 0.949056,2.288899 -2.5281576,3.249919 2.1652832,2.165284 3.2499197,-2.52816 2.288899,0.949057 0.510417,4.083333 h 3.062499 l 0.510418,-4.083333 2.288899,-0.949057 3.24992,2.52816 2.165283,-2.165284 -2.528159,-3.249919 0.949057,-2.288899 L 28.25,17.53125 v -3.0625 L 24.166667,13.958334 23.21761,11.669434 25.745769,8.4195146 23.580486,6.2542311 20.330566,8.7823899 18.041667,7.8333334 17.531249,3.7500003 Z m 1.531249,8.1666677 A 4.0833332,4.0833332 0 0 1 20.083334,16 4.0833332,4.0833332 0 0 1 16,20.083334 4.0833332,4.0833332 0 0 1 11.916667,16 4.0833332,4.0833332 0 0 1 15.999999,11.916668 Z"
       id="path1030" />
  </g>
</svg>
