<?xml version="1.0" encoding="UTF-8" standalone="no"?>
<!-- Created with Inkscape (http://www.inkscape.org/) -->

<svg
   xmlns:dc="http://purl.org/dc/elements/1.1/"
   xmlns:cc="http://creativecommons.org/ns#"
   xmlns:rdf="http://www.w3.org/1999/02/22-rdf-syntax-ns#"
   xmlns:svg="http://www.w3.org/2000/svg"
   xmlns="http://www.w3.org/2000/svg"
   xmlns:sodipodi="http://sodipodi.sourceforge.net/DTD/sodipodi-0.dtd"
   xmlns:inkscape="http://www.inkscape.org/namespaces/inkscape"
   width="32"
   height="32"
   id="svg2"
   sodipodi:version="0.32"
   inkscape:version="0.92.3 (2405546, 2018-03-11)"
   version="1.0"
   sodipodi:docname="menu_abort_build_200.svg"
   inkscape:output_extension="org.inkscape.output.svg.inkscape"
   inkscape:export-filename="menu_abort_build_200.png"
   inkscape:export-xdpi="96"
   inkscape:export-ydpi="96">
  <defs
     id="defs4" />
  <sodipodi:namedview
     id="base"
     pagecolor="#ffffff"
     bordercolor="#666666"
     borderopacity="1.0"
     inkscape:pageopacity="0.0"
     inkscape:pageshadow="2"
     inkscape:zoom="25.564629"
     inkscape:cx="7.3781236"
     inkscape:cy="15.890719"
     inkscape:document-units="px"
     inkscape:current-layer="layer1"
     showgrid="true"
     objecttolerance="10"
     gridtolerance="10"
     guidetolerance="10"
     showguides="true"
     inkscape:guide-bbox="true"
     inkscape:window-width="1920"
     inkscape:window-height="1137"
     inkscape:window-x="-8"
     inkscape:window-y="-8"
     inkscape:window-maximized="1">
    <inkscape:grid
       type="xygrid"
       id="grid2409"
       visible="true"
       enabled="true"
       spacingx="0.5"
       spacingy="0.5"
       empspacing="2"
       snapvisiblegridlinesonly="true"
       originx="0"
       originy="0" />
  </sodipodi:namedview>
  <metadata
     id="metadata7">
    <rdf:RDF>
      <cc:Work
         rdf:about="">
        <dc:format>image/svg+xml</dc:format>
        <dc:type
           rdf:resource="http://purl.org/dc/dcmitype/StillImage" />
        <dc:title />
      </cc:Work>
    </rdf:RDF>
  </metadata>
  <g
     inkscape:label="Ebene 1"
     inkscape:groupmode="layer"
     id="layer1">
    <path
       inkscape:connector-curvature="0"
       style="fill:#aaccff;fill-opacity:1;fill-rule:evenodd;stroke:#457abe;stroke-width:1.5;stroke-linecap:butt;stroke-linejoin:round;stroke-miterlimit:4;stroke-dasharray:none;stroke-opacity:1"
       d="M 14.46875,3.7499999 13.958333,7.8333331 11.669435,8.7823896 8.419515,6.2542307 6.2542317,8.4195143 8.7823894,11.669433 7.8333333,13.958333 3.75,14.46875 v 3.062499 l 4.0833333,0.510419 0.9490561,2.288898 -2.5281577,3.249919 2.1652833,2.165285 3.24992,-2.52816 2.288898,0.949056 L 14.46875,28.25 h 3.0625 l 0.510418,-4.083334 2.288898,-0.949056 3.24992,2.52816 2.165284,-2.165285 -2.528159,-3.249919 0.949056,-2.288898 L 28.25,17.531249 V 14.46875 L 24.166667,13.958333 23.217611,11.669433 25.74577,8.4195143 23.580486,6.2542307 20.330566,8.7823896 18.041668,7.8333331 17.53125,3.7499999 Z M 16,11.916668 A 4.0833333,4.0833333 0 0 1 20.083334,16 4.0833333,4.0833333 0 0 1 16,20.083333 4.0833333,4.0833333 0 0 1 11.916667,16 4.0833333,4.0833333 0 0 1 16,11.916668 Z"
       id="path1030" />
    <path
       style="fill:#f00000;fill-rule:evenodd;stroke:#f00000;stroke-width:4;stroke-linecap:round;stroke-linejoin:miter;stroke-miterlimit:4;stroke-dasharray:none;stroke-opacity:1;fill-opacity:1"
       d="M 3,23 29,9"
       id="path825"
       inkscape:connector-curvature="0"
       sodipodi:nodetypes="cc" />
  </g>
</svg>
