<?xml version="1.0" encoding="UTF-8" standalone="no"?>
<!-- Created with Inkscape (http://www.inkscape.org/) -->

<svg
   xmlns:dc="http://purl.org/dc/elements/1.1/"
   xmlns:cc="http://creativecommons.org/ns#"
   xmlns:rdf="http://www.w3.org/1999/02/22-rdf-syntax-ns#"
   xmlns:svg="http://www.w3.org/2000/svg"
   xmlns="http://www.w3.org/2000/svg"
   xmlns:sodipodi="http://sodipodi.sourceforge.net/DTD/sodipodi-0.dtd"
   xmlns:inkscape="http://www.inkscape.org/namespaces/inkscape"
   width="16"
   height="16"
   id="svg2"
   sodipodi:version="0.32"
   inkscape:version="0.92.3 (2405546, 2018-03-11)"
   version="1.0"
   sodipodi:docname="menu_edit_uppercase.svg"
   inkscape:output_extension="org.inkscape.output.svg.inkscape"
   inkscape:export-filename="menu_edit_uppercase.png"
   inkscape:export-xdpi="96"
   inkscape:export-ydpi="96">
  <defs
     id="defs4" />
  <sodipodi:namedview
     id="base"
     pagecolor="#ffffff"
     bordercolor="#666666"
     borderopacity="1.0"
     inkscape:pageopacity="0.0"
     inkscape:pageshadow="2"
     inkscape:zoom="42.33633"
     inkscape:cx="8.6216304"
     inkscape:cy="7.807685"
     inkscape:document-units="px"
     inkscape:current-layer="layer1"
     showgrid="true"
     objecttolerance="10"
     gridtolerance="10"
     guidetolerance="10"
     showguides="true"
     inkscape:guide-bbox="true"
     inkscape:window-width="1920"
     inkscape:window-height="1137"
     inkscape:window-x="-8"
     inkscape:window-y="-8"
     inkscape:snap-bbox="true"
     inkscape:bbox-paths="true"
     inkscape:bbox-nodes="true"
     inkscape:snap-bbox-edge-midpoints="true"
     inkscape:snap-bbox-midpoints="true"
     inkscape:object-paths="true"
     inkscape:snap-intersection-paths="true"
     inkscape:object-nodes="true"
     inkscape:snap-smooth-nodes="true"
     inkscape:snap-midpoints="true"
     inkscape:snap-object-midpoints="true"
     inkscape:snap-center="false"
     inkscape:window-maximized="1"
     inkscape:snap-grids="true">
    <inkscape:grid
       type="xygrid"
       id="grid2409"
       visible="true"
       enabled="true"
       spacingx="0.5"
       spacingy="0.5"
       empspacing="2"
       snapvisiblegridlinesonly="true"
       originx="0"
       originy="0" />
  </sodipodi:namedview>
  <metadata
     id="metadata7">
    <rdf:RDF>
      <cc:Work
         rdf:about="">
        <dc:format>image/svg+xml</dc:format>
        <dc:type
           rdf:resource="http://purl.org/dc/dcmitype/StillImage" />
        <dc:title />
      </cc:Work>
    </rdf:RDF>
  </metadata>
  <g
     inkscape:label="Ebene 1"
     inkscape:groupmode="layer"
     id="layer1">
    <g
       id="g823"
       style="font-style:normal;font-variant:normal;font-weight:bold;font-stretch:normal;font-size:21.33333397px;line-height:25px;font-family:'Courier New';-inkscape-font-specification:'Courier New Bold';letter-spacing:0px;word-spacing:0px;fill:#aa4400;fill-opacity:1;stroke:none;stroke-width:1px;stroke-linecap:butt;stroke-linejoin:miter;stroke-opacity:1"
       aria-label="a"
       transform="matrix(0.69349842,0,0,0.69349842,-2.7435496,-3.857275)">
      <path
         id="path821"
         d="m 12.072916,15.445833 v -0.5 Q 11.270833,15.372917 10.302083,15.58125 9.333333,15.8 8.5416663,15.8 q -1.71875,0 -2.7916667,-0.90625 -1.0729167,-0.916667 -1.0729167,-2.020834 0,-1.34375 1.3645834,-2.489583 1.375,-1.15625 3.7916667,-1.15625 0.96875,0 2.239583,0.2083334 V 8.9249997 q 0,-0.4791667 -0.416666,-0.78125 -0.40625,-0.3020834 -1.5625,-0.3020834 -0.947917,0 -2.4583337,0.375 -0.5625,0.1354167 -0.875,0.1354167 -0.4270834,0 -0.7291667,-0.3020833 Q 5.7395829,7.7374996 5.7395829,7.258333 q 0,-0.2708334 0.1041667,-0.4687501 0.1041667,-0.1979166 0.2916667,-0.3125 0.1875,-0.125 0.78125,-0.2916666 0.7916667,-0.21875 1.6145834,-0.34375 0.8229167,-0.1354167 1.4895833,-0.1354167 1.989583,0 3.083333,0.8645833 1.104167,0.8541667 1.104167,2.3437501 v 4.395833 h 0.364584 q 0.770833,0 1.09375,0.302084 Q 16,13.904166 16,14.383333 q 0,0.46875 -0.333333,0.770834 -0.322917,0.291666 -1.09375,0.291666 z m 0,-3.822917 q -1.28125,-0.25 -2.364583,-0.25 -1.3020833,0 -2.2395834,0.635417 -0.5833333,0.40625 -0.5833333,0.822917 0,0.302083 0.28125,0.489583 0.5208333,0.34375 1.4270834,0.34375 0.7708333,0 1.7395833,-0.302083 0.979167,-0.302084 1.739583,-0.822917 z"
         inkscape:connector-curvature="0"
         style="fill:#aa4400;fill-opacity:1" />
    </g>
    <g
       id="g819"
       style="font-style:normal;font-variant:normal;font-weight:bold;font-stretch:normal;font-size:12px;line-height:25px;font-family:'Courier New';-inkscape-font-specification:'Courier New Bold';letter-spacing:0px;word-spacing:0px;fill:#0055d4;fill-opacity:1;stroke:none;stroke-width:1px;stroke-linecap:butt;stroke-linejoin:miter;stroke-opacity:1"
       aria-label="A"
       transform="matrix(1.4069799,0,0,1.4069799,4.1736027,5.7963728)">
      <path
         id="path817"
         d="M 5.9678906,5.1764064 H 3.0499219 L 2.7569531,5.9088283 h 0.2929688 q 0.4335937,0 0.6152343,0.1699218 0.1875,0.1640625 0.1875,0.4335938 0,0.2636719 -0.1875,0.4335937 Q 3.4835156,7.1100001 3.0499219,7.1100001 H 1.4327344 Q 0.99914062,7.1100001 0.8175,6.9459376 0.63,6.7760158 0.63,6.5064845 0.63,6.2369533 0.82335937,6.0670314 1.0167187,5.8971095 1.4620312,5.9088283 L 3.34875,1.2096095 H 2.5635937 Q 2.13,1.2096095 1.9425,1.045547 1.7608594,0.87562513 1.7608594,0.60609388 1.7608594,0.33656263 1.9425,0.17250013 2.13,0.00257826 2.5635937,0.00257826 l 2.5957032,0.00585937 2.390625,5.90039067 q 0.421875,0 0.5566406,0.09375 0.2695312,0.1933593 0.2695312,0.5097656 0,0.2636719 -0.1816406,0.4335937 Q 8.0128125,7.1100001 7.5792187,7.1100001 H 5.9620312 q -0.4335937,0 -0.6210937,-0.1640625 -0.1816406,-0.1699218 -0.1816406,-0.4394531 0,-0.2636719 0.1816406,-0.4277344 0.1875,-0.1699218 0.6210937,-0.1699218 H 6.255 Z M 5.4698437,3.9752345 4.5030469,1.5963283 3.5303906,3.9752345 Z"
         inkscape:connector-curvature="0"
         style="fill:#0055d4;fill-opacity:1" />
    </g>
  </g>
</svg>
