<?xml version="1.0" encoding="UTF-8" standalone="no"?>
<!-- Created with Inkscape (http://www.inkscape.org/) -->

<svg
   xmlns:dc="http://purl.org/dc/elements/1.1/"
   xmlns:cc="http://creativecommons.org/ns#"
   xmlns:rdf="http://www.w3.org/1999/02/22-rdf-syntax-ns#"
   xmlns:svg="http://www.w3.org/2000/svg"
   xmlns="http://www.w3.org/2000/svg"
   xmlns:sodipodi="http://sodipodi.sourceforge.net/DTD/sodipodi-0.dtd"
   xmlns:inkscape="http://www.inkscape.org/namespaces/inkscape"
   width="1024"
   height="1024"
   viewBox="0 0 270.93333 270.93334"
   version="1.1"
   id="svg4391"
   inkscape:version="0.92.2 (5c3e80d, 2017-08-06)"
   sodipodi:docname="namespace.svg"
   inkscape:export-filename="S:\Works\_graphics\lazarus\png\namespace_200.png"
   inkscape:export-xdpi="3.0000002"
   inkscape:export-ydpi="3.0000002">
  <defs
     id="defs4385" />
  <sodipodi:namedview
     id="base"
     pagecolor="#ffffff"
     bordercolor="#666666"
     borderopacity="1.0"
     inkscape:pageopacity="0.0"
     inkscape:pageshadow="2"
     inkscape:zoom="0.98994949"
     inkscape:cx="-13.683376"
     inkscape:cy="368.33616"
     inkscape:document-units="mm"
     inkscape:current-layer="layer1"
     showgrid="true"
     units="px"
     inkscape:window-width="3840"
     inkscape:window-height="2066"
     inkscape:window-x="-11"
     inkscape:window-y="-11"
     inkscape:window-maximized="1">
    <inkscape:grid
       type="xygrid"
       id="grid4936"
       spacingx="16.933333"
       spacingy="16.933333" />
  </sodipodi:namedview>
  <metadata
     id="metadata4388">
    <rdf:RDF>
      <cc:Work
         rdf:about="">
        <dc:format>image/svg+xml</dc:format>
        <dc:type
           rdf:resource="http://purl.org/dc/dcmitype/StillImage" />
        <dc:title></dc:title>
        <dc:creator>
          <cc:Agent>
            <dc:title>coth</dc:title>
          </cc:Agent>
        </dc:creator>
        <cc:license
           rdf:resource="http://creativecommons.org/publicdomain/zero/1.0/" />
      </cc:Work>
      <cc:License
         rdf:about="http://creativecommons.org/publicdomain/zero/1.0/">
        <cc:permits
           rdf:resource="http://creativecommons.org/ns#Reproduction" />
        <cc:permits
           rdf:resource="http://creativecommons.org/ns#Distribution" />
        <cc:permits
           rdf:resource="http://creativecommons.org/ns#DerivativeWorks" />
      </cc:License>
    </rdf:RDF>
  </metadata>
  <g
     inkscape:label="Layer 1"
     inkscape:groupmode="layer"
     id="layer1"
     transform="translate(0,-26.06665)">
    <g
       aria-label="{..}"
       transform="scale(0.91091708,1.0977948)"
       style="font-style:normal;font-weight:normal;font-size:176.5103302px;line-height:1.25;font-family:sans-serif;letter-spacing:0px;word-spacing:0px;fill:#505050;fill-opacity:1;stroke:none;stroke-width:0.33095691"
       id="text4940">
      <path
         d="m 76.063187,195.29614 q 0,8.79104 4.998828,12.75563 5.085014,3.96459 14.824109,4.13696 v 12.06614 q -16.37547,-0.17237 -25.338885,-7.49824 -8.963415,-7.32587 -8.963415,-20.59862 v -26.11457 q 0,-8.96341 -5.429761,-12.75562 -5.429761,-3.87841 -15.772164,-3.87841 v -12.15232 q 11.204269,-0.17237 16.203097,-4.13696 4.998828,-3.96459 4.998828,-12.23851 V 98.508496 q 0,-13.358936 9.308162,-20.770991 9.308162,-7.412055 24.994138,-7.412055 V 82.305399 Q 76.063187,82.82252 76.063187,99.45655 v 25.42507 q 0,18.53014 -19.219631,21.89142 v 1.03424 q 19.219631,3.36128 19.219631,21.89142 z"
         style="font-style:normal;font-variant:normal;font-weight:normal;font-stretch:normal;font-family:'Open Sans';-inkscape-font-specification:'Open Sans';fill:#505050;fill-opacity:1;stroke-width:0.33095691"
         id="path3801"
         inkscape:connector-curvature="0" />
      <path
         d="m 115.10575,187.19459 q 0,-5.7745 2.58561,-8.70485 2.67178,-3.01653 7.58442,-3.01653 4.99883,0 7.75681,3.01653 2.84416,2.93035 2.84416,8.70485 0,5.60214 -2.84416,8.61867 -2.84417,3.01654 -7.75681,3.01654 -4.39552,0 -7.32586,-2.67179 -2.84417,-2.75797 -2.84417,-8.96342 z"
         style="font-style:normal;font-variant:normal;font-weight:normal;font-stretch:normal;font-family:'Open Sans';-inkscape-font-specification:'Open Sans';fill:#505050;fill-opacity:1;stroke-width:0.33095691"
         id="path3803"
         inkscape:connector-curvature="0" />
      <path
         d="m 161.99131,187.19459 q 0,-5.7745 2.5856,-8.70485 2.67178,-3.01653 7.58443,-3.01653 4.99882,0 7.7568,3.01653 2.84416,2.93035 2.84416,8.70485 0,5.60214 -2.84416,8.61867 -2.84416,3.01654 -7.7568,3.01654 -4.39553,0 -7.32587,-2.67179 -2.84416,-2.75797 -2.84416,-8.96342 z"
         style="font-style:normal;font-variant:normal;font-weight:normal;font-stretch:normal;font-family:'Open Sans';-inkscape-font-specification:'Open Sans';fill:#505050;fill-opacity:1;stroke-width:0.33095691"
         id="path3805"
         inkscape:connector-curvature="0" />
      <path
         d="m 240.76594,146.77304 q -19.21963,-3.36128 -19.21963,-21.89142 V 99.45655 q 0,-16.63403 -19.56438,-17.151151 V 70.32545 q 15.85835,0 24.90795,7.498242 9.13579,7.498241 9.13579,20.684804 v 26.373124 q 0,8.36011 5.08502,12.3247 5.08501,3.8784 16.28928,4.05077 v 12.15232 q -10.51478,0 -15.94454,3.87841 -5.42976,3.79221 -5.42976,12.75562 v 26.11457 q 0,13.18656 -8.87723,20.51243 -8.79104,7.41206 -25.16651,7.58443 v -12.06614 q 9.56672,-0.17237 14.56555,-4.13696 4.99883,-3.96459 4.99883,-12.75563 V 169.6987 q 0,-9.82528 4.74027,-14.99649 4.74026,-5.1712 14.47936,-6.89493 z"
         style="font-style:normal;font-variant:normal;font-weight:normal;font-stretch:normal;font-family:'Open Sans';-inkscape-font-specification:'Open Sans';fill:#505050;fill-opacity:1;stroke-width:0.33095691"
         id="path3807"
         inkscape:connector-curvature="0" />
    </g>
  </g>
</svg>
