<?xml version="1.0" encoding="UTF-8" standalone="no"?>
<!-- Created with Inkscape (http://www.inkscape.org/) -->

<svg
   xmlns:dc="http://purl.org/dc/elements/1.1/"
   xmlns:cc="http://creativecommons.org/ns#"
   xmlns:rdf="http://www.w3.org/1999/02/22-rdf-syntax-ns#"
   xmlns:svg="http://www.w3.org/2000/svg"
   xmlns="http://www.w3.org/2000/svg"
   xmlns:sodipodi="http://sodipodi.sourceforge.net/DTD/sodipodi-0.dtd"
   xmlns:inkscape="http://www.inkscape.org/namespaces/inkscape"
   width="16"
   height="16"
   id="svg2"
   sodipodi:version="0.32"
   inkscape:version="0.92.3 (2405546, 2018-03-11)"
   version="1.0"
   sodipodi:docname="laz_highlighter.svg"
   inkscape:output_extension="org.inkscape.output.svg.inkscape"
   inkscape:export-filename="laz_highlighter.png"
   inkscape:export-xdpi="96"
   inkscape:export-ydpi="96">
  <defs
     id="defs4" />
  <sodipodi:namedview
     id="base"
     pagecolor="#ffffff"
     bordercolor="#666666"
     borderopacity="1.0"
     inkscape:pageopacity="0.0"
     inkscape:pageshadow="2"
     inkscape:zoom="59.68254"
     inkscape:cx="8"
     inkscape:cy="8.125"
     inkscape:document-units="px"
     inkscape:current-layer="layer1"
     showgrid="true"
     objecttolerance="10"
     gridtolerance="10"
     guidetolerance="10"
     showguides="true"
     inkscape:guide-bbox="true"
     inkscape:window-width="1920"
     inkscape:window-height="1137"
     inkscape:window-x="-8"
     inkscape:window-y="-8"
     inkscape:snap-bbox="true"
     inkscape:bbox-paths="true"
     inkscape:bbox-nodes="true"
     inkscape:snap-bbox-edge-midpoints="true"
     inkscape:snap-bbox-midpoints="true"
     inkscape:object-paths="true"
     inkscape:snap-intersection-paths="true"
     inkscape:object-nodes="true"
     inkscape:snap-smooth-nodes="true"
     inkscape:snap-midpoints="true"
     inkscape:snap-object-midpoints="true"
     inkscape:snap-center="true"
     inkscape:window-maximized="1"
     inkscape:snap-grids="true">
    <inkscape:grid
       type="xygrid"
       id="grid2409"
       visible="true"
       enabled="true"
       spacingx="0.5"
       spacingy="0.5"
       empspacing="2"
       snapvisiblegridlinesonly="true"
       originx="0"
       originy="0" />
  </sodipodi:namedview>
  <metadata
     id="metadata7">
    <rdf:RDF>
      <cc:Work
         rdf:about="">
        <dc:format>image/svg+xml</dc:format>
        <dc:type
           rdf:resource="http://purl.org/dc/dcmitype/StillImage" />
        <dc:title />
      </cc:Work>
    </rdf:RDF>
  </metadata>
  <g
     inkscape:label="Ebene 1"
     inkscape:groupmode="layer"
     id="layer1">
    <rect
       style="opacity:1;fill:#ffff00;fill-opacity:1;fill-rule:evenodd;stroke:none;stroke-width:0.5;stroke-linecap:square;stroke-linejoin:round;stroke-miterlimit:4;stroke-dasharray:none;stroke-dashoffset:0;stroke-opacity:1;paint-order:normal"
       id="rect838"
       width="13"
       height="7"
       x="0"
       y="0" />
    <g
       aria-label="abc"
       style="font-style:normal;font-variant:normal;font-weight:bold;font-stretch:normal;font-size:8px;line-height:25px;font-family:Corbel;-inkscape-font-specification:'Corbel Bold';letter-spacing:0px;word-spacing:0px;fill:#333333;fill-opacity:1;stroke:none;stroke-width:1px;stroke-linecap:butt;stroke-linejoin:miter;stroke-opacity:1"
       id="text829">
      <path
         d="M 3.1990505,5.4970528 H 3.1847476 Q 3.1132339,5.5795678 3.0131145,5.6660115 2.9129951,5.7524555 2.7842703,5.831041 2.6555453,5.905697 2.4982149,5.9528485 q -0.1573305,0.047151 -0.3396907,0.047151 -0.2467229,0 -0.4612644,-0.086444 Q 1.4827184,5.831041 1.3289635,5.67387 1.1752088,5.5127699 1.0858166,5.2888012 1,5.0609034 1,4.781925 1,4.4754417 1.1001194,4.2318267 1.2038144,3.9882118 1.3861747,3.8192531 1.5685349,3.6502943 1.8224091,3.5638502 q 0.2538742,-0.090374 0.5613837,-0.090374 0.2252684,0 0.4147802,0.031434 0.1895116,0.031434 0.3325391,0.074656 V 3.4263257 q 0,-0.1335953 -0.042909,-0.2554028 Q 3.0488713,3.0451862 2.9559033,2.9508836 2.866511,2.8526518 2.7199078,2.797642 2.5733042,2.7387028 2.3623385,2.7387028 q -0.2574497,0 -0.5148997,0.062868 Q 1.5899891,2.8644388 1.289631,2.9901759 V 2.2632608 Q 1.5506566,2.137524 1.8438632,2.0707263 2.13707,2.0039293 2.4588822,2.0000003 q 0.3790233,0 0.661503,0.1021611 0.2860554,0.1021611 0.4755669,0.2829077 0.1930874,0.1768174 0.2860554,0.4204323 0.096543,0.243615 0.096543,0.5304519 V 4.770138 q 0,0.3772103 0.00714,0.6483302 0.00715,0.2711198 0.014307,0.4833006 H 3.2348073 Z M 3.1311121,4.278978 Q 3.0095388,4.247544 2.8522082,4.223968 2.6948779,4.196463 2.5339717,4.196463 q -0.3110851,0 -0.4934454,0.1375246 -0.1787846,0.1335953 -0.1787846,0.4125737 0,0.1296661 0.039333,0.2278979 0.042909,0.094303 0.1108464,0.1571709 0.071513,0.062868 0.1644819,0.094303 0.092968,0.031434 0.1966631,0.031434 0.1287248,0 0.2431471,-0.035363 0.114422,-0.039293 0.2109657,-0.094303 Q 2.9237232,5.0687621 2.998812,4.998035 3.0774773,4.927309 3.1311125,4.8605105 Z"
         style="stroke-width:1px;fill:#333333"
         id="path831"
         inkscape:connector-curvature="0" />
      <path
         d="m 8.3,3.9453125 q 0,0.5117187 -0.1361563,0.90625 Q 8.0276873,5.2460937 7.8055375,5.5 7.5869708,5.7539062 7.311075,5.8789062 7.0351792,6 6.7557004,6 6.558632,6 6.4009773,5.9453125 6.2433226,5.8945312 6.1250815,5.8164062 6.0068406,5.7382812 5.9244301,5.6523437 5.8456027,5.5664062 5.799023,5.5 H 5.7846907 L 5.7022801,5.9023437 H 5 Q 5.00716,5.734375 5.010749,5.4882812 q 0.00716,-0.25 0.00716,-0.4726562 V 0.24609375 H 5.8671011 V 1.8203125 q 0,0.1679687 -0.00359,0.3125 0,0.140625 -0.00359,0.21875 h 0.00716 q 0.08242,-0.0625 0.1791623,-0.1210937 Q 6.1429969,2.171875 6.2576549,2.125 6.3723128,2.078125 6.5048861,2.050781 6.6374594,2.023437 6.7843649,2.023437 q 0.290228,0 0.5625407,0.1171875 Q 7.6228014,2.2539058 7.834202,2.492187 8.0491857,2.726562 8.1745929,3.0976558 8.3,3.4648433 8.3,3.9453125 Z m -0.8778501,0.046875 q 0,-0.3554687 -0.078827,-0.609375 Q 7.2644951,3.125 7.1355049,2.9921875 7.0100978,2.8554688 6.8703584,2.8085938 6.734202,2.7617188 6.5980457,2.7617188 q -0.1863192,0 -0.3798046,0.082031 Q 6.0247558,2.9257813 5.8671011,3.0625 V 4.875 q 0.050162,0.0625 0.1218241,0.1328125 0.075244,0.066406 0.1648208,0.125 0.09316,0.054687 0.2006515,0.09375 0.1074918,0.035156 0.2293159,0.035156 0.2078176,0 0.3618893,-0.089844 Q 7.1032574,5.0781245 7.2071662,4.9101557 7.314658,4.742187 7.368404,4.5117182 7.4221501,4.2773432 7.4221499,3.9921875 Z"
         id="path833"
         inkscape:connector-curvature="0"
         style="stroke-width:1px;fill:#333333" />
      <path
         d="m 11.921875,5.8203125 q -0.175781,0.074219 -0.429688,0.125 Q 11.238281,6 10.957031,6 10.546875,6 10.191406,5.8828125 9.8359372,5.765625 9.5703122,5.5273437 9.3046875,5.2890625 9.1523437,4.9257812 9,4.5585937 9,4.0703125 9,3.5234375 9.1757812,3.1328125 9.3515625,2.7421875 9.6289062,2.5 q 0.28125,-0.2460937 0.6289058,-0.359375 0.351563,-0.1171875 0.691407,-0.1171875 0.253906,0 0.488281,0.046875 0.234375,0.042969 0.425781,0.1210938 V 2.9453125 Q 11.691406,2.8710938 11.496094,2.828125 11.304687,2.78125 11.082031,2.78125 q -0.222656,0 -0.425781,0.070312 -0.203125,0.066406 -0.359375,0.2148438 -0.15625,0.1484375 -0.25,0.3945312 -0.08984,0.2421875 -0.08984,0.5859375 0,0.25 0.07031,0.4726562 0.07031,0.21875 0.203125,0.375 0.136718,0.15625 0.34375,0.2539063 0.210937,0.09375 0.496093,0.09375 0.253907,0 0.460938,-0.050781 0.207031,-0.050781 0.390625,-0.125 z"
         id="path835"
         inkscape:connector-curvature="0"
         style="fill:#333333" />
    </g>
    <path
       style="fill:#ffff00;fill-rule:evenodd;stroke:#ffcc00;stroke-width:0.5;stroke-linecap:butt;stroke-linejoin:miter;stroke-miterlimit:4;stroke-dasharray:none;stroke-opacity:1"
       d="m 7.5,15.5 2,-2 L 8,12 4.5,15.5 Z"
       id="path840"
       inkscape:connector-curvature="0"
       sodipodi:nodetypes="ccccc" />
    <path
       style="fill:#ffff00;fill-rule:evenodd;stroke:#d4aa00;stroke-width:0.5;stroke-linecap:butt;stroke-linejoin:round;stroke-miterlimit:4;stroke-dasharray:none;stroke-opacity:1"
       d="m 12.5,12 3.25,-3.25 v -6 L 9.5,9 Z"
       id="path846"
       inkscape:connector-curvature="0"
       sodipodi:nodetypes="ccccc" />
    <path
       sodipodi:nodetypes="ccccc"
       inkscape:connector-curvature="0"
       id="path844"
       d="M 9.5,13.5 12.5,12 9.5,9 8,12 Z"
       style="fill:#4d4d4d;fill-rule:evenodd;stroke:#4d4d4d;stroke-width:0.5;stroke-linecap:butt;stroke-linejoin:round;stroke-miterlimit:4;stroke-dasharray:none;stroke-opacity:1" />
  </g>
</svg>
