<?xml version="1.0" encoding="UTF-8" standalone="no"?>
<!-- Created with Inkscape (http://www.inkscape.org/) -->

<svg
   xmlns:dc="http://purl.org/dc/elements/1.1/"
   xmlns:cc="http://creativecommons.org/ns#"
   xmlns:rdf="http://www.w3.org/1999/02/22-rdf-syntax-ns#"
   xmlns:svg="http://www.w3.org/2000/svg"
   xmlns="http://www.w3.org/2000/svg"
   xmlns:sodipodi="http://sodipodi.sourceforge.net/DTD/sodipodi-0.dtd"
   xmlns:inkscape="http://www.inkscape.org/namespaces/inkscape"
   width="32"
   height="32"
   id="svg2"
   sodipodi:version="0.32"
   inkscape:version="0.92.3 (2405546, 2018-03-11)"
   version="1.0"
   sodipodi:docname="preferences_200.svg"
   inkscape:output_extension="org.inkscape.output.svg.inkscape"
   inkscape:export-filename="preferences_200.png"
   inkscape:export-xdpi="96"
   inkscape:export-ydpi="96">
  <defs
     id="defs4" />
  <sodipodi:namedview
     id="base"
     pagecolor="#ffffff"
     bordercolor="#666666"
     borderopacity="1.0"
     inkscape:pageopacity="0.0"
     inkscape:pageshadow="2"
     inkscape:zoom="22.156013"
     inkscape:cx="17.828427"
     inkscape:cy="14.272923"
     inkscape:document-units="px"
     inkscape:current-layer="layer1"
     showgrid="true"
     objecttolerance="10"
     gridtolerance="10"
     guidetolerance="10"
     showguides="true"
     inkscape:guide-bbox="true"
     inkscape:window-width="1920"
     inkscape:window-height="1137"
     inkscape:window-x="-8"
     inkscape:window-y="-8"
     inkscape:window-maximized="1">
    <inkscape:grid
       type="xygrid"
       id="grid2409"
       visible="true"
       enabled="true"
       spacingx="0.5"
       spacingy="0.5"
       empspacing="2"
       snapvisiblegridlinesonly="true"
       originx="0"
       originy="0" />
  </sodipodi:namedview>
  <metadata
     id="metadata7">
    <rdf:RDF>
      <cc:Work
         rdf:about="">
        <dc:format>image/svg+xml</dc:format>
        <dc:type
           rdf:resource="http://purl.org/dc/dcmitype/StillImage" />
        <dc:title />
      </cc:Work>
    </rdf:RDF>
  </metadata>
  <g
     inkscape:label="Ebene 1"
     inkscape:groupmode="layer"
     id="layer1">
    <path
       inkscape:connector-curvature="0"
       style="fill:#ffd81c;fill-opacity:1;fill-rule:evenodd;stroke:#b48b18;stroke-width:1.5;stroke-linecap:butt;stroke-linejoin:round;stroke-miterlimit:4;stroke-dasharray:none;stroke-opacity:1"
       d="M 13.46875,2.7500003 12.958333,6.8333334 10.669435,7.7823899 7.4195148,5.2542311 5.2542316,7.4195146 7.7823892,10.669434 6.8333332,12.958334 2.75,13.46875 v 3.0625 l 4.0833332,0.510418 0.949056,2.288899 -2.5281576,3.249919 2.1652832,2.165284 3.2499202,-2.52816 2.288899,0.949057 0.510417,4.083333 h 3.062499 l 0.510418,-4.083333 2.288899,-0.949057 3.24992,2.52816 2.165283,-2.165284 -2.528159,-3.249919 0.949057,-2.288899 L 27.25,16.53125 v -3.0625 L 23.166667,12.958334 22.21761,10.669434 24.745768,7.4195146 22.580486,5.2542311 19.330566,7.7823899 17.041667,6.8333334 16.531248,2.7500003 Z m 1.531249,8.1666677 A 4.0833332,4.0833332 0 0 1 19.083334,15 4.0833332,4.0833332 0 0 1 15,19.083334 4.0833332,4.0833332 0 0 1 10.916667,15 4.0833332,4.0833332 0 0 1 14.999999,10.916668 Z"
       id="path1030" />
    <g
       id="g833"
       transform="matrix(2,0,0,2,87.417023,1.7319145)">
      <rect
         y="6.6340427"
         x="-36.208511"
         height="8"
         width="8"
         id="rect814"
         style="opacity:1;fill:#ffffff;fill-opacity:1;fill-rule:evenodd;stroke:#3566a5;stroke-width:1;stroke-linecap:square;stroke-linejoin:round;stroke-miterlimit:4;stroke-dasharray:none;stroke-dashoffset:0;stroke-opacity:0.99607843;paint-order:normal" />
      <path
         sodipodi:nodetypes="ccc"
         inkscape:connector-curvature="0"
         id="path815"
         d="m -34.45346,11.134043 1.5,1.5 3,-3.8063829"
         style="fill:none;fill-rule:evenodd;stroke:#000000;stroke-width:1;stroke-linecap:round;stroke-linejoin:round;stroke-miterlimit:4;stroke-dasharray:none;stroke-opacity:1" />
    </g>
  </g>
</svg>
