<?xml version="1.0" encoding="UTF-8" standalone="no"?>
<!-- Created with Inkscape (http://www.inkscape.org/) -->

<svg
   xmlns:dc="http://purl.org/dc/elements/1.1/"
   xmlns:cc="http://creativecommons.org/ns#"
   xmlns:rdf="http://www.w3.org/1999/02/22-rdf-syntax-ns#"
   xmlns:svg="http://www.w3.org/2000/svg"
   xmlns="http://www.w3.org/2000/svg"
   xmlns:sodipodi="http://sodipodi.sourceforge.net/DTD/sodipodi-0.dtd"
   xmlns:inkscape="http://www.inkscape.org/namespaces/inkscape"
   width="24"
   height="24"
   viewBox="0 0 24 24"
   id="svg4225"
   version="1.1"
   inkscape:version="0.92.2 (5c3e80d, 2017-08-06)"
   sodipodi:docname="tsynvbsyn.svg"
   inkscape:export-filename="tsynvbsyn.png"
   inkscape:export-xdpi="96"
   inkscape:export-ydpi="96">
  <defs
     id="defs4227" />
  <sodipodi:namedview
     id="base"
     pagecolor="#ffffff"
     bordercolor="#666666"
     borderopacity="1.0"
     inkscape:pageopacity="0.0"
     inkscape:pageshadow="2"
     inkscape:zoom="30.212768"
     inkscape:cx="10.88309"
     inkscape:cy="11.347875"
     inkscape:document-units="px"
     inkscape:current-layer="text831"
     showgrid="true"
     inkscape:snap-bbox="true"
     inkscape:bbox-paths="true"
     inkscape:bbox-nodes="true"
     inkscape:snap-bbox-edge-midpoints="true"
     inkscape:snap-bbox-midpoints="true"
     inkscape:object-paths="true"
     inkscape:snap-intersection-paths="true"
     inkscape:object-nodes="true"
     inkscape:snap-smooth-nodes="true"
     inkscape:snap-midpoints="true"
     inkscape:snap-object-midpoints="true"
     inkscape:snap-center="true"
     units="px"
     inkscape:window-width="1920"
     inkscape:window-height="1137"
     inkscape:window-x="-8"
     inkscape:window-y="-8"
     inkscape:window-maximized="1"
     showguides="false"
     inkscape:guide-bbox="true"
     inkscape:snap-grids="true">
    <inkscape:grid
       type="xygrid"
       id="grid4241"
       spacingx="0.5"
       spacingy="0.5"
       empspacing="2" />
  </sodipodi:namedview>
  <metadata
     id="metadata4230">
    <rdf:RDF>
      <cc:Work
         rdf:about="">
        <dc:format>image/svg+xml</dc:format>
        <dc:type
           rdf:resource="http://purl.org/dc/dcmitype/StillImage" />
        <dc:title />
      </cc:Work>
    </rdf:RDF>
  </metadata>
  <g
     inkscape:label="Ebene 1"
     inkscape:groupmode="layer"
     id="layer1"
     transform="translate(0,-1028.3622)">
    <g
       id="g842">
      <rect
         y="1029.8622"
         x="1.5000001"
         height="20.999966"
         width="20"
         id="rect894"
         style="opacity:1;fill:#ffffff;fill-opacity:1;fill-rule:evenodd;stroke:#b3b3b3;stroke-width:1;stroke-linecap:square;stroke-linejoin:round;stroke-miterlimit:4;stroke-dasharray:none;stroke-dashoffset:0;stroke-opacity:1;paint-order:normal" />
      <rect
         y="1029.8622"
         x="1.5"
         height="20.999983"
         width="3"
         id="rect896"
         style="opacity:1;fill:#b3b3b3;fill-opacity:1;fill-rule:evenodd;stroke:#b3b3b3;stroke-width:1;stroke-linecap:square;stroke-linejoin:round;stroke-miterlimit:4;stroke-dasharray:none;stroke-dashoffset:0;stroke-opacity:1;paint-order:normal" />
    </g>
    <g
       id="g853">
      <path
         inkscape:connector-curvature="0"
         id="path874"
         d="M 7,1032.8622 H 18"
         style="fill:none;fill-rule:evenodd;stroke:#666666;stroke-width:1px;stroke-linecap:butt;stroke-linejoin:miter;stroke-opacity:1" />
      <path
         style="fill:none;fill-rule:evenodd;stroke:#666666;stroke-width:1px;stroke-linecap:butt;stroke-linejoin:miter;stroke-opacity:1"
         d="m 9,1034.8622 h 4"
         id="path876"
         inkscape:connector-curvature="0" />
      <path
         inkscape:connector-curvature="0"
         id="path878"
         d="m 11,1036.8622 h 6"
         style="fill:none;fill-rule:evenodd;stroke:#666666;stroke-width:1px;stroke-linecap:butt;stroke-linejoin:miter;stroke-opacity:1" />
      <path
         style="fill:none;fill-rule:evenodd;stroke:#666666;stroke-width:1px;stroke-linecap:butt;stroke-linejoin:miter;stroke-opacity:1"
         d="M 8.9999998,1038.8622 H 11"
         id="path880"
         inkscape:connector-curvature="0" />
      <path
         inkscape:connector-curvature="0"
         id="path882"
         d="M 7.0000004,1040.8622 H 11"
         style="fill:none;fill-rule:evenodd;stroke:#666666;stroke-width:1.00000012px;stroke-linecap:butt;stroke-linejoin:miter;stroke-opacity:1" />
      <path
         inkscape:connector-curvature="0"
         id="path884"
         d="m 14,1034.8622 h 3"
         style="fill:none;fill-rule:evenodd;stroke:#ff0000;stroke-width:1px;stroke-linecap:butt;stroke-linejoin:miter;stroke-opacity:1" />
      <path
         style="fill:none;fill-rule:evenodd;stroke:#ff0000;stroke-width:1px;stroke-linecap:butt;stroke-linejoin:miter;stroke-opacity:1"
         d="m 12,1040.8621 h 6"
         id="path886"
         inkscape:connector-curvature="0" />
      <path
         style="fill:none;fill-rule:evenodd;stroke:#2a7fff;stroke-width:1px;stroke-linecap:butt;stroke-linejoin:miter;stroke-opacity:1"
         d="m 11,1038.8622 h 3"
         id="path890"
         inkscape:connector-curvature="0" />
      <path
         style="fill:none;fill-rule:evenodd;stroke:#666666;stroke-width:1px;stroke-linecap:butt;stroke-linejoin:miter;stroke-opacity:1"
         d="m 14,1038.8622 h 2"
         id="path892"
         inkscape:connector-curvature="0" />
    </g>
    <g
       aria-label="BAS"
       style="font-style:normal;font-variant:normal;font-weight:bold;font-stretch:normal;font-size:8px;line-height:25px;font-family:'Trebuchet MS';-inkscape-font-specification:'Trebuchet MS Bold';letter-spacing:0px;word-spacing:0px;fill:#2c5aa0;fill-opacity:1;stroke:none;stroke-width:1px;stroke-linecap:butt;stroke-linejoin:miter;stroke-opacity:1"
       id="text831">
      <path
         d="M 7.8119314,1049.3622 H 6 v -5.9428 q 1.1971689,-0.057 1.6784633,-0.057 0.9221436,0 1.4398387,0.3978 0.521739,0.3938 0.521739,1.1285 0,0.7063 -0.7441864,1.1163 Q 10,1046.3905 10,1047.596 q 0,0.812 -0.610717,1.2909 -0.6107186,0.4749 -1.5773516,0.4749 z m -0.7603641,-5.0984 v 1.4248 q 0.2426694,0.016 0.5096057,0.016 1.0273004,0 1.0273004,-0.7754 0,-0.686 -0.9342771,-0.686 -0.2467139,0 -0.602629,0.02 z m 0,2.2488 v 1.9647 q 0.3195147,0.028 0.5176947,0.028 0.7037412,0 1.0192114,-0.2395 0.3195147,-0.2394 0.3195147,-0.7955 0,-0.5075 -0.2952478,-0.7387 -0.2952477,-0.2315 -1.0313448,-0.2315 -0.1536906,0 -0.5298282,0.012 z"
         style="stroke-width:1.03728151px"
         id="path833"
         inkscape:connector-curvature="0" />
      <path
         d="m 14.385005,1049.3622 -0.415696,-1.1999 h -1.950272 l -0.396271,1.1999 H 10.5 l 2.268842,-6 h 0.44289 l 2.288268,6 z m -1.394717,-4.1899 -0.683761,2.1859 h 1.367522 z"
         id="path835"
         inkscape:connector-curvature="0"
         style="stroke-width:1.01425564px" />
      <path
         d="m 16,1048.9424 0.378805,-0.9227 q 0.607666,0.4276 1.195603,0.4276 0.903608,0 0.903608,-0.6337 0,-0.2969 -0.213078,-0.5663 -0.213078,-0.2693 -0.879932,-0.6019 -0.662909,-0.3366 -0.895716,-0.5506 -0.228861,-0.2177 -0.35513,-0.5148 -0.122322,-0.297 -0.122322,-0.6574 0,-0.6733 0.48929,-1.1168 0.493235,-0.4436 1.262682,-0.4436 1.002256,0 1.471815,0.3762 l -0.311723,0.8872 q -0.540588,-0.3881 -1.140362,-0.3881 -0.355129,0 -0.552424,0.1901 -0.193348,0.1861 -0.193348,0.4871 0,0.499 1.100902,1.0376 0.580046,0.2852 0.836528,0.5267 0.256482,0.2376 0.390643,0.5584 0.134159,0.3169 0.134159,0.7089 0,0.705 -0.556369,1.1605 -0.552425,0.4554 -1.483653,0.4554 -0.808906,0 -1.459978,-0.4198 z"
         style="stroke-width:1.01199949px"
         id="path837"
         inkscape:connector-curvature="0" />
    </g>
  </g>
</svg>
