<?xml version="1.0" encoding="UTF-8" standalone="no"?>
<!-- Created with Inkscape (http://www.inkscape.org/) -->

<svg
   xmlns:dc="http://purl.org/dc/elements/1.1/"
   xmlns:cc="http://creativecommons.org/ns#"
   xmlns:rdf="http://www.w3.org/1999/02/22-rdf-syntax-ns#"
   xmlns:svg="http://www.w3.org/2000/svg"
   xmlns="http://www.w3.org/2000/svg"
   xmlns:sodipodi="http://sodipodi.sourceforge.net/DTD/sodipodi-0.dtd"
   xmlns:inkscape="http://www.inkscape.org/namespaces/inkscape"
   width="24"
   height="24"
   viewBox="0 0 24 24"
   id="svg4225"
   version="1.1"
   inkscape:version="0.92.2 (5c3e80d, 2017-08-06)"
   sodipodi:docname="tsynpassyn.svg"
   inkscape:export-filename="tsynpassyn.png"
   inkscape:export-xdpi="96"
   inkscape:export-ydpi="96">
  <defs
     id="defs4227" />
  <sodipodi:namedview
     id="base"
     pagecolor="#ffffff"
     bordercolor="#666666"
     borderopacity="1.0"
     inkscape:pageopacity="0.0"
     inkscape:pageshadow="2"
     inkscape:zoom="30.212768"
     inkscape:cx="11.319336"
     inkscape:cy="11.192765"
     inkscape:document-units="px"
     inkscape:current-layer="layer1"
     showgrid="true"
     inkscape:snap-bbox="true"
     inkscape:bbox-paths="true"
     inkscape:bbox-nodes="true"
     inkscape:snap-bbox-edge-midpoints="true"
     inkscape:snap-bbox-midpoints="true"
     inkscape:object-paths="true"
     inkscape:snap-intersection-paths="true"
     inkscape:object-nodes="true"
     inkscape:snap-smooth-nodes="true"
     inkscape:snap-midpoints="true"
     inkscape:snap-object-midpoints="true"
     inkscape:snap-center="true"
     units="px"
     inkscape:window-width="1920"
     inkscape:window-height="1137"
     inkscape:window-x="-8"
     inkscape:window-y="-8"
     inkscape:window-maximized="1"
     showguides="false"
     inkscape:guide-bbox="true"
     inkscape:snap-grids="true">
    <inkscape:grid
       type="xygrid"
       id="grid4241"
       spacingx="0.5"
       spacingy="0.5"
       empspacing="2" />
  </sodipodi:namedview>
  <metadata
     id="metadata4230">
    <rdf:RDF>
      <cc:Work
         rdf:about="">
        <dc:format>image/svg+xml</dc:format>
        <dc:type
           rdf:resource="http://purl.org/dc/dcmitype/StillImage" />
        <dc:title />
      </cc:Work>
    </rdf:RDF>
  </metadata>
  <g
     inkscape:label="Ebene 1"
     inkscape:groupmode="layer"
     id="layer1"
     transform="translate(0,-1028.3622)">
    <g
       id="g842">
      <rect
         y="1029.8622"
         x="1.5000001"
         height="20.999966"
         width="20"
         id="rect894"
         style="opacity:1;fill:#ffffff;fill-opacity:1;fill-rule:evenodd;stroke:#b3b3b3;stroke-width:1;stroke-linecap:square;stroke-linejoin:round;stroke-miterlimit:4;stroke-dasharray:none;stroke-dashoffset:0;stroke-opacity:1;paint-order:normal" />
      <rect
         y="1029.8622"
         x="1.5"
         height="20.999983"
         width="3"
         id="rect896"
         style="opacity:1;fill:#b3b3b3;fill-opacity:1;fill-rule:evenodd;stroke:#b3b3b3;stroke-width:1;stroke-linecap:square;stroke-linejoin:round;stroke-miterlimit:4;stroke-dasharray:none;stroke-dashoffset:0;stroke-opacity:1;paint-order:normal" />
    </g>
    <g
       id="g853">
      <path
         inkscape:connector-curvature="0"
         id="path874"
         d="M 7,1032.8622 H 18"
         style="fill:none;fill-rule:evenodd;stroke:#666666;stroke-width:1px;stroke-linecap:butt;stroke-linejoin:miter;stroke-opacity:1" />
      <path
         style="fill:none;fill-rule:evenodd;stroke:#666666;stroke-width:1px;stroke-linecap:butt;stroke-linejoin:miter;stroke-opacity:1"
         d="m 9,1034.8622 h 4"
         id="path876"
         inkscape:connector-curvature="0" />
      <path
         inkscape:connector-curvature="0"
         id="path878"
         d="m 11,1036.8622 h 6"
         style="fill:none;fill-rule:evenodd;stroke:#666666;stroke-width:1px;stroke-linecap:butt;stroke-linejoin:miter;stroke-opacity:1" />
      <path
         style="fill:none;fill-rule:evenodd;stroke:#666666;stroke-width:1px;stroke-linecap:butt;stroke-linejoin:miter;stroke-opacity:1"
         d="M 8.9999998,1038.8622 H 11"
         id="path880"
         inkscape:connector-curvature="0" />
      <path
         inkscape:connector-curvature="0"
         id="path882"
         d="M 7.0000004,1040.8622 H 11"
         style="fill:none;fill-rule:evenodd;stroke:#666666;stroke-width:1.00000012px;stroke-linecap:butt;stroke-linejoin:miter;stroke-opacity:1" />
      <path
         inkscape:connector-curvature="0"
         id="path884"
         d="m 14,1034.8622 h 3"
         style="fill:none;fill-rule:evenodd;stroke:#ff0000;stroke-width:1px;stroke-linecap:butt;stroke-linejoin:miter;stroke-opacity:1" />
      <path
         style="fill:none;fill-rule:evenodd;stroke:#ff0000;stroke-width:1px;stroke-linecap:butt;stroke-linejoin:miter;stroke-opacity:1"
         d="m 12,1040.8621 h 6"
         id="path886"
         inkscape:connector-curvature="0" />
      <path
         style="fill:none;fill-rule:evenodd;stroke:#2a7fff;stroke-width:1px;stroke-linecap:butt;stroke-linejoin:miter;stroke-opacity:1"
         d="m 11,1038.8622 h 3"
         id="path890"
         inkscape:connector-curvature="0" />
      <path
         style="fill:none;fill-rule:evenodd;stroke:#666666;stroke-width:1px;stroke-linecap:butt;stroke-linejoin:miter;stroke-opacity:1"
         d="m 14,1038.8622 h 2"
         id="path892"
         inkscape:connector-curvature="0" />
    </g>
    <g
       aria-label="PAS"
       transform="matrix(0.99314198,0,0,1.0069054,25.965021,0.99998742)"
       style="font-style:normal;font-variant:normal;font-weight:bold;font-stretch:normal;font-size:8.05524349px;line-height:25.17263412px;font-family:'Trebuchet MS';-inkscape-font-specification:'Trebuchet MS Bold';letter-spacing:0px;word-spacing:0px;fill:#2c5aa0;fill-opacity:1;stroke:none;stroke-width:1.00690544px;stroke-linecap:butt;stroke-linejoin:miter;stroke-opacity:1"
       id="text832">
      <path
         d="m -18.044434,1038.995 v 2.1775 h -1.086768 v -5.9144 q 1.086768,-0.044 1.270683,-0.044 1.450418,0 2.119199,0.4323 0.67296,0.4283 0.67296,1.3413 0,2.036 -2.482848,2.036 -0.183914,0 -0.493226,-0.028 z m 0,-2.8279 v 1.8947 q 0.275873,0.028 0.434709,0.028 0.744018,0 1.086768,-0.2384 0.342749,-0.2424 0.342749,-0.7837 0,-0.9211 -1.534015,-0.9211 -0.171375,0 -0.330211,0.02 z"
         style="stroke-width:1.05197895px"
         id="path834"
         inkscape:connector-curvature="0" />
      <path
         d="m -11.652354,1041.1725 -0.420855,-1.1917 h -1.974479 l -0.401189,1.1917 h -1.136702 l 2.297004,-5.9589 h 0.448387 l 2.316669,5.9589 z m -1.412028,-4.1612 -0.692247,2.1708 h 1.384495 z"
         style="stroke-width:1.01702893px"
         id="path836"
         inkscape:connector-curvature="0" />
      <path
         d="m -10.033833,1040.7555 0.3814203,-0.9163 q 0.6118626,0.4247 1.2038594,0.4247 0.9098474,0 0.9098474,-0.6292 0,-0.2951 -0.2145492,-0.5625 -0.2145491,-0.2675 -0.8860086,-0.5978 -0.6674863,-0.3345 -0.9019013,-0.5468 -0.2304416,-0.2163 -0.3575823,-0.5113 -0.1231667,-0.2951 -0.1231667,-0.6529 0,-0.6687 0.4926686,-1.1092 0.4966415,-0.4406 1.2714025,-0.4406 1.0091758,0 1.4819787,0.3738 l -0.3138777,0.881 q -0.5443191,-0.3855 -1.1482353,-0.3855 -0.357582,0 -0.5562386,0.1889 -0.1946836,0.1848 -0.1946836,0.4836 0,0.4956 1.1085042,1.0305 0.5840505,0.2833 0.8423042,0.5233 0.2582535,0.236 0.3933401,0.5545 0.1350865,0.3146 0.1350865,0.704 0,0.7002 -0.5602117,1.1525 -0.5562386,0.4523 -1.4938981,0.4523 -0.8144923,0 -1.4700588,-0.417 z"
         style="stroke-width:1.01200533px"
         id="path838"
         inkscape:connector-curvature="0" />
    </g>
  </g>
</svg>
