<?xml version="1.0" encoding="UTF-8" standalone="no"?>
<!-- Created with Inkscape (http://www.inkscape.org/) -->

<svg
   xmlns:dc="http://purl.org/dc/elements/1.1/"
   xmlns:cc="http://creativecommons.org/ns#"
   xmlns:rdf="http://www.w3.org/1999/02/22-rdf-syntax-ns#"
   xmlns:svg="http://www.w3.org/2000/svg"
   xmlns="http://www.w3.org/2000/svg"
   xmlns:xlink="http://www.w3.org/1999/xlink"
   xmlns:sodipodi="http://sodipodi.sourceforge.net/DTD/sodipodi-0.dtd"
   xmlns:inkscape="http://www.inkscape.org/namespaces/inkscape"
   width="24"
   height="24"
   viewBox="0 0 24 24"
   id="svg4225"
   version="1.1"
   inkscape:version="0.92.2 (5c3e80d, 2017-08-06)"
   sodipodi:docname="tsynmemo.svg"
   inkscape:export-filename="tsynmemo.png"
   inkscape:export-xdpi="96"
   inkscape:export-ydpi="96">
  <defs
     id="defs4227">
    <linearGradient
       id="linearGradient1207"
       inkscape:collect="always">
      <stop
         id="stop1203"
         offset="0"
         style="stop-color:#a05a2c;stop-opacity:1" />
      <stop
         style="stop-color:#ffff00;stop-opacity:1;"
         offset="0.26457807"
         id="stop1211" />
      <stop
         id="stop1213"
         offset="0.75078517"
         style="stop-color:#ffff00;stop-opacity:1;" />
      <stop
         id="stop1205"
         offset="1"
         style="stop-color:#a05a2c;stop-opacity:1" />
    </linearGradient>
    <linearGradient
       id="linearGradient1169"
       inkscape:collect="always">
      <stop
         id="stop1165"
         offset="0"
         style="stop-color:#aa0000;stop-opacity:1" />
      <stop
         style="stop-color:#ff0000;stop-opacity:1"
         offset="0.51070523"
         id="stop1173" />
      <stop
         id="stop1167"
         offset="1"
         style="stop-color:#aa0000;stop-opacity:1" />
    </linearGradient>
    <linearGradient
       id="linearGradient1149"
       inkscape:collect="always">
      <stop
         id="stop1145"
         offset="0"
         style="stop-color:#999999;stop-opacity:1" />
      <stop
         style="stop-color:#ffffff;stop-opacity:1"
         offset="0.49999997"
         id="stop1153" />
      <stop
         id="stop1147"
         offset="1"
         style="stop-color:#999999;stop-opacity:1" />
    </linearGradient>
    <linearGradient
       inkscape:collect="always"
       xlink:href="#linearGradient1149"
       id="linearGradient961"
       gradientUnits="userSpaceOnUse"
       gradientTransform="translate(-1,8.0000174)"
       x1="34"
       y1="1029.3622"
       x2="37"
       y2="1029.3622" />
    <linearGradient
       inkscape:collect="always"
       xlink:href="#linearGradient1169"
       id="linearGradient963"
       gradientUnits="userSpaceOnUse"
       gradientTransform="translate(-1,8.0000174)"
       x1="34"
       y1="1027.3622"
       x2="37"
       y2="1027.3622" />
    <linearGradient
       inkscape:collect="always"
       xlink:href="#linearGradient1207"
       id="linearGradient965"
       gradientUnits="userSpaceOnUse"
       gradientTransform="translate(-1,8.0000174)"
       x1="34"
       y1="1033.8622"
       x2="37"
       y2="1033.8622" />
  </defs>
  <sodipodi:namedview
     id="base"
     pagecolor="#ffffff"
     bordercolor="#666666"
     borderopacity="1.0"
     inkscape:pageopacity="0.0"
     inkscape:pageshadow="2"
     inkscape:zoom="29.345862"
     inkscape:cx="12.329809"
     inkscape:cy="12.799089"
     inkscape:document-units="px"
     inkscape:current-layer="layer1"
     showgrid="true"
     inkscape:snap-bbox="true"
     inkscape:bbox-paths="true"
     inkscape:bbox-nodes="true"
     inkscape:snap-bbox-edge-midpoints="true"
     inkscape:snap-bbox-midpoints="true"
     inkscape:object-paths="true"
     inkscape:snap-intersection-paths="true"
     inkscape:object-nodes="true"
     inkscape:snap-smooth-nodes="true"
     inkscape:snap-midpoints="true"
     inkscape:snap-object-midpoints="true"
     inkscape:snap-center="true"
     units="px"
     inkscape:window-width="1920"
     inkscape:window-height="1137"
     inkscape:window-x="-8"
     inkscape:window-y="-8"
     inkscape:window-maximized="1"
     showguides="true"
     inkscape:guide-bbox="true"
     inkscape:snap-grids="true">
    <inkscape:grid
       type="xygrid"
       id="grid4241"
       spacingx="0.5"
       spacingy="0.5"
       empspacing="2" />
  </sodipodi:namedview>
  <metadata
     id="metadata4230">
    <rdf:RDF>
      <cc:Work
         rdf:about="">
        <dc:format>image/svg+xml</dc:format>
        <dc:type
           rdf:resource="http://purl.org/dc/dcmitype/StillImage" />
        <dc:title />
      </cc:Work>
    </rdf:RDF>
  </metadata>
  <g
     inkscape:label="Ebene 1"
     inkscape:groupmode="layer"
     id="layer1"
     transform="translate(0,-1028.3622)">
    <g
       id="g842">
      <rect
         y="1029.8622"
         x="1.5000001"
         height="20.999966"
         width="20"
         id="rect894"
         style="opacity:1;fill:#ffffff;fill-opacity:1;fill-rule:evenodd;stroke:#b3b3b3;stroke-width:1;stroke-linecap:square;stroke-linejoin:round;stroke-miterlimit:4;stroke-dasharray:none;stroke-dashoffset:0;stroke-opacity:1;paint-order:normal" />
      <rect
         y="1029.8622"
         x="1.5"
         height="20.999983"
         width="3"
         id="rect896"
         style="opacity:1;fill:#b3b3b3;fill-opacity:1;fill-rule:evenodd;stroke:#b3b3b3;stroke-width:1;stroke-linecap:square;stroke-linejoin:round;stroke-miterlimit:4;stroke-dasharray:none;stroke-dashoffset:0;stroke-opacity:1;paint-order:normal" />
    </g>
    <g
       aria-label="7"
       style="font-style:normal;font-weight:normal;font-size:10.66666698px;line-height:25px;font-family:sans-serif;letter-spacing:0px;word-spacing:0px;fill:#000000;fill-opacity:1;stroke:none;stroke-width:1px;stroke-linecap:butt;stroke-linejoin:miter;stroke-opacity:1"
       id="text846"
       transform="translate(-75.416014,-30.323644)" />
    <g
       aria-label="7"
       style="font-style:normal;font-weight:normal;font-size:10.66666698px;line-height:25px;font-family:sans-serif;letter-spacing:0px;word-spacing:0px;fill:#000000;fill-opacity:1;stroke:none;stroke-width:1px;stroke-linecap:butt;stroke-linejoin:miter;stroke-opacity:1"
       id="text846-8"
       transform="translate(-101.43449,-35.029053)" />
    <g
       aria-label="7"
       style="font-style:normal;font-weight:normal;font-size:10.66666698px;line-height:25px;font-family:sans-serif;letter-spacing:0px;word-spacing:0px;fill:#000000;fill-opacity:1;stroke:none;stroke-width:1px;stroke-linecap:butt;stroke-linejoin:miter;stroke-opacity:1"
       id="text846-7"
       transform="translate(-129.89638,-60.178617)" />
    <g
       aria-label="7"
       style="font-style:normal;font-weight:normal;font-size:10.66666698px;line-height:25px;font-family:sans-serif;letter-spacing:0px;word-spacing:0px;fill:#000000;fill-opacity:1;stroke:none;stroke-width:1px;stroke-linecap:butt;stroke-linejoin:miter;stroke-opacity:1"
       id="text846-8-6"
       transform="translate(-155.91485,-64.884026)" />
    <path
       style="fill:none;fill-rule:evenodd;stroke:#666666;stroke-width:0.99999988px;stroke-linecap:butt;stroke-linejoin:miter;stroke-opacity:1"
       d="m 14,1040.8622 h 5.5"
       id="path878"
       inkscape:connector-curvature="0" />
    <path
       inkscape:connector-curvature="0"
       id="path851"
       d="m 15,1042.8622 h 4"
       style="fill:none;fill-rule:evenodd;stroke:#2a7fff;stroke-width:1px;stroke-linecap:butt;stroke-linejoin:miter;stroke-opacity:1" />
    <path
       inkscape:connector-curvature="0"
       id="path853"
       d="m 15,1044.8622 h 4"
       style="fill:none;fill-rule:evenodd;stroke:#666666;stroke-width:1px;stroke-linecap:butt;stroke-linejoin:miter;stroke-opacity:1" />
    <path
       style="fill:none;fill-rule:evenodd;stroke:#d45500;stroke-width:0.99999988px;stroke-linecap:butt;stroke-linejoin:miter;stroke-opacity:1"
       d="m 14,1046.8622 h 5.5"
       id="path855"
       inkscape:connector-curvature="0" />
    <g
       style="stroke-width:0.96113175"
       transform="matrix(0.82495801,0.82495801,-0.65610346,0.65610346,672.59981,322.84006)"
       id="g959">
      <rect
         y="1036.3622"
         x="33"
         height="2.0000174"
         width="3"
         id="rect949"
         style="opacity:1;fill:url(#linearGradient961);fill-opacity:1;fill-rule:evenodd;stroke:none;stroke-width:0.28833953;stroke-linecap:round;stroke-linejoin:miter;stroke-miterlimit:4;stroke-dasharray:none;stroke-dashoffset:0;stroke-opacity:1;paint-order:normal" />
      <rect
         y="1034.3622"
         x="33"
         height="2.0000174"
         width="3"
         id="rect951"
         style="opacity:1;fill:url(#linearGradient963);fill-opacity:1;fill-rule:evenodd;stroke:none;stroke-width:0.19222634;stroke-linecap:round;stroke-linejoin:miter;stroke-miterlimit:4;stroke-dasharray:none;stroke-dashoffset:0;stroke-opacity:1;paint-order:normal" />
      <rect
         y="1038.3622"
         x="33"
         height="7.0000172"
         width="3"
         id="rect953"
         style="opacity:1;fill:url(#linearGradient965);fill-opacity:1;fill-rule:evenodd;stroke:none;stroke-width:0.28833956;stroke-linecap:round;stroke-linejoin:miter;stroke-miterlimit:4;stroke-dasharray:none;stroke-dashoffset:0;stroke-opacity:1;paint-order:normal" />
      <path
         inkscape:connector-curvature="0"
         id="path955"
         d="m 33,1045.3622 1.000135,3.0037 h 1 L 36,1045.3622 Z"
         style="fill:#d38d5f;fill-opacity:1;fill-rule:evenodd;stroke:none;stroke-width:0.96113175px;stroke-linecap:butt;stroke-linejoin:miter;stroke-opacity:1"
         sodipodi:nodetypes="ccccc" />
      <path
         inkscape:connector-curvature="0"
         id="path957"
         d="m 33.665763,1047.3617 h 1.667648 l -0.333276,1.0012 h -1 z"
         style="fill:#333333;fill-rule:evenodd;stroke:none;stroke-width:0.96113175px;stroke-linecap:butt;stroke-linejoin:miter;stroke-opacity:1"
         sodipodi:nodetypes="ccccc" />
    </g>
    <g
       style="font-style:normal;font-variant:normal;font-weight:bold;font-stretch:normal;font-size:medium;line-height:25px;font-family:'Trebuchet MS';-inkscape-font-specification:'Trebuchet MS Bold';letter-spacing:0px;word-spacing:0px;fill:#2c5aa0;fill-opacity:1;stroke:none;stroke-width:1.02410448px;stroke-linecap:butt;stroke-linejoin:miter;stroke-opacity:1"
       transform="matrix(0,-0.81485413,1.170123,0,-1234.448,1048.1622)"
       id="g1150">
      <path
         style="stroke-width:1.02410448px"
         inkscape:connector-curvature="0"
         id="path1138"
         d="m 3.6338699,1064.3736 v -2.6281 q 0,-0.8264 -0.7783335,-0.8264 -0.2306174,0 -0.444762,0.1292 -0.2141446,0.1293 -0.3006261,0.2977 v 3.0276 H 1.0806067 v -2.7809 q 0,-0.3093 -0.2017901,-0.4895 -0.20179015,-0.1841 -0.56830694,-0.1841 -0.19355381,0 -0.42417112,0.1371 -0.22649915,0.137 -0.3294533,0.3016 v 3.0158 H -1.4726563 v -4.1948 h 0.70832457 l 0.21002647,0.3682 q 0.4282893,-0.4465 1.10778673,-0.4465 0.87716943,0 1.32193143,0.4543 0.1935537,-0.2075 0.5394797,-0.329 0.345926,-0.1253 0.691852,-0.1253 0.7371517,0 1.1448502,0.4034 0.4118166,0.3994 0.4118166,1.1006 v 2.7691 z" />
      <path
         style="stroke-width:1.02410448px"
         inkscape:connector-curvature="0"
         id="path1140"
         d="M 8.884815,1062.5313 H 6.1947911 q 0.024615,0.4923 0.3094406,0.7654 0.284826,0.2731 0.7665688,0.2731 0.6012995,0 0.9142565,-0.3424 l 0.3410881,0.7346 q -0.464161,0.4116 -1.3854503,0.4116 -0.8615109,0 -1.364352,-0.55 -0.4993247,-0.5539 -0.4993247,-1.5423 0,-0.9731 0.5485539,-1.577 0.5520703,-0.6038 1.3221555,-0.6038 0.8193145,0 1.3151229,0.5346 0.4958082,0.5346 0.4958082,1.3615 0,0.1769 -0.073844,0.5347 z m -2.6583767,-0.7232 h 1.8496113 q -0.091425,-0.9037 -0.9142566,-0.9037 -0.7525034,0 -0.9353547,0.9037 z" />
      <path
         style="stroke-width:1.02410448px"
         inkscape:connector-curvature="0"
         id="path1142"
         d="m 14.678792,1064.3736 v -2.6211 q 0,-0.8242 -0.778333,-0.8242 -0.230618,0 -0.444762,0.1289 -0.214145,0.1289 -0.300627,0.2969 v 3.0195 h -1.029541 v -2.7735 q 0,-0.3085 -0.20179,-0.4882 -0.201791,-0.1836 -0.568308,-0.1836 -0.193554,0 -0.424171,0.1367 -0.226498,0.1367 -0.329453,0.3008 v 3.0078 H 9.5722652 V 1060.19 H 10.28059 l 0.210027,0.3672 q 0.428289,-0.4453 1.107787,-0.4453 0.877169,0 1.321931,0.4531 0.193554,-0.207 0.53948,-0.3281 0.345926,-0.125 0.691851,-0.125 0.737152,0 1.14485,0.4023 0.411817,0.3984 0.411817,1.0977 v 2.7617 z" />
      <path
         style="stroke-width:1.02410448px"
         inkscape:connector-curvature="0"
         id="path1144"
         d="m 16.321939,1062.2274 q 0,-0.9423 0.588561,-1.5346 0.592737,-0.5923 1.56115,-0.5923 1.018504,0 1.582021,0.5692 0.563515,0.5692 0.563515,1.5577 0,0.9846 -0.576038,1.5655 -0.571865,0.5807 -1.569498,0.5807 -1.018504,0 -1.586194,-0.5846 -0.563517,-0.5885 -0.563517,-1.5616 z m 1.085291,0 q 0,1.3616 1.06442,1.3616 0.488381,0 0.772226,-0.3538 0.288019,-0.3539 0.288019,-1.0078 0,-1.3423 -1.060245,-1.3423 -0.488381,0 -0.776401,0.3538 -0.288019,0.3539 -0.288019,0.9885 z" />
    </g>
  </g>
</svg>
