<?xml version="1.0" encoding="UTF-8" standalone="no"?>
<!-- Created with Inkscape (http://www.inkscape.org/) -->

<svg
   xmlns:dc="http://purl.org/dc/elements/1.1/"
   xmlns:cc="http://creativecommons.org/ns#"
   xmlns:rdf="http://www.w3.org/1999/02/22-rdf-syntax-ns#"
   xmlns:svg="http://www.w3.org/2000/svg"
   xmlns="http://www.w3.org/2000/svg"
   xmlns:sodipodi="http://sodipodi.sourceforge.net/DTD/sodipodi-0.dtd"
   xmlns:inkscape="http://www.inkscape.org/namespaces/inkscape"
   width="36"
   height="36"
   viewBox="0 0 36 36"
   id="svg4225"
   version="1.1"
   inkscape:version="0.92.2 (5c3e80d, 2017-08-06)"
   sodipodi:docname="tsyncsssyn_150.svg"
   inkscape:export-filename="tsyncsssyn_150.png"
   inkscape:export-xdpi="96"
   inkscape:export-ydpi="96">
  <defs
     id="defs4227" />
  <sodipodi:namedview
     id="base"
     pagecolor="#ffffff"
     bordercolor="#666666"
     borderopacity="1.0"
     inkscape:pageopacity="0.0"
     inkscape:pageshadow="2"
     inkscape:zoom="20.771251"
     inkscape:cx="18.30463"
     inkscape:cy="16.191569"
     inkscape:document-units="px"
     inkscape:current-layer="text832"
     showgrid="true"
     inkscape:snap-bbox="true"
     inkscape:bbox-paths="true"
     inkscape:bbox-nodes="true"
     inkscape:snap-bbox-edge-midpoints="true"
     inkscape:snap-bbox-midpoints="true"
     inkscape:object-paths="true"
     inkscape:snap-intersection-paths="true"
     inkscape:object-nodes="true"
     inkscape:snap-smooth-nodes="true"
     inkscape:snap-midpoints="true"
     inkscape:snap-object-midpoints="true"
     inkscape:snap-center="true"
     units="px"
     inkscape:window-width="1920"
     inkscape:window-height="1137"
     inkscape:window-x="-8"
     inkscape:window-y="-8"
     inkscape:window-maximized="1"
     showguides="true"
     inkscape:guide-bbox="true"
     inkscape:snap-grids="true">
    <inkscape:grid
       type="xygrid"
       id="grid4241"
       spacingx="0.5"
       spacingy="0.5"
       empspacing="2" />
  </sodipodi:namedview>
  <metadata
     id="metadata4230">
    <rdf:RDF>
      <cc:Work
         rdf:about="">
        <dc:format>image/svg+xml</dc:format>
        <dc:type
           rdf:resource="http://purl.org/dc/dcmitype/StillImage" />
        <dc:title />
      </cc:Work>
    </rdf:RDF>
  </metadata>
  <g
     inkscape:label="Ebene 1"
     inkscape:groupmode="layer"
     id="layer1"
     transform="translate(0,-1016.3622)">
    <g
       id="g853">
      <rect
         y="1018.8622"
         x="2.5000002"
         height="31.000017"
         width="30.000002"
         id="rect894"
         style="opacity:1;fill:#ffffff;fill-opacity:1;fill-rule:evenodd;stroke:#b3b3b3;stroke-width:1;stroke-linecap:square;stroke-linejoin:round;stroke-miterlimit:4;stroke-dasharray:none;stroke-dashoffset:0;stroke-opacity:1;paint-order:normal" />
      <rect
         y="1018.8622"
         x="2.5"
         height="31.000017"
         width="4"
         id="rect896"
         style="opacity:1;fill:#b3b3b3;fill-opacity:1;fill-rule:evenodd;stroke:#b3b3b3;stroke-width:0.99999994;stroke-linecap:square;stroke-linejoin:round;stroke-miterlimit:4;stroke-dasharray:none;stroke-dashoffset:0;stroke-opacity:1;paint-order:normal" />
    </g>
    <g
       id="g849">
      <path
         inkscape:connector-curvature="0"
         id="path874"
         d="M 10,1022.8622 H 26.775"
         style="fill:none;fill-rule:evenodd;stroke:#666666;stroke-width:1px;stroke-linecap:butt;stroke-linejoin:miter;stroke-opacity:1" />
      <path
         style="fill:none;fill-rule:evenodd;stroke:#666666;stroke-width:1px;stroke-linecap:butt;stroke-linejoin:miter;stroke-opacity:1"
         d="m 13,1025.8622 h 6.1"
         id="path876"
         inkscape:connector-curvature="0" />
      <path
         inkscape:connector-curvature="0"
         id="path878"
         d="m 16,1028.8622 h 9.15"
         style="fill:none;fill-rule:evenodd;stroke:#666666;stroke-width:1px;stroke-linecap:butt;stroke-linejoin:miter;stroke-opacity:1" />
      <path
         style="fill:none;fill-rule:evenodd;stroke:#666666;stroke-width:1px;stroke-linecap:butt;stroke-linejoin:miter;stroke-opacity:1"
         d="m 13,1031.8622 h 3.05"
         id="path880"
         inkscape:connector-curvature="0" />
      <path
         inkscape:connector-curvature="0"
         id="path882"
         d="m 10,1034.8622 h 6.099999"
         style="fill:none;fill-rule:evenodd;stroke:#666666;stroke-width:1.00000012px;stroke-linecap:butt;stroke-linejoin:miter;stroke-opacity:1" />
      <path
         inkscape:connector-curvature="0"
         id="path884"
         d="m 21,1025.8622 h 4.575"
         style="fill:none;fill-rule:evenodd;stroke:#ff0000;stroke-width:1px;stroke-linecap:butt;stroke-linejoin:miter;stroke-opacity:1" />
      <path
         style="fill:none;fill-rule:evenodd;stroke:#ff0000;stroke-width:1px;stroke-linecap:butt;stroke-linejoin:miter;stroke-opacity:1"
         d="m 18,1034.8622 h 9.15"
         id="path886"
         inkscape:connector-curvature="0" />
      <path
         style="fill:none;fill-rule:evenodd;stroke:#2a7fff;stroke-width:1px;stroke-linecap:butt;stroke-linejoin:miter;stroke-opacity:1"
         d="m 16,1031.8622 h 4.575"
         id="path890"
         inkscape:connector-curvature="0" />
      <path
         style="fill:none;fill-rule:evenodd;stroke:#666666;stroke-width:1px;stroke-linecap:butt;stroke-linejoin:miter;stroke-opacity:1"
         d="m 20.5,1031.8622 h 3.05"
         id="path892"
         inkscape:connector-curvature="0" />
    </g>
    <g
       aria-label="C++"
       style="font-style:normal;font-variant:normal;font-weight:bold;font-stretch:normal;font-size:8px;line-height:25px;font-family:'Trebuchet MS';-inkscape-font-specification:'Trebuchet MS Bold';letter-spacing:0px;word-spacing:0px;fill:#2c5aa0;fill-opacity:1;stroke:none;stroke-width:0.66666669px;stroke-linecap:butt;stroke-linejoin:miter;stroke-opacity:1"
       id="text832"
       transform="matrix(1.5,0,0,1.5,-1.2910157,-526.6811)">
      <g
         aria-label="C++"
         style="font-style:normal;font-variant:normal;font-weight:bold;font-stretch:normal;font-size:8px;line-height:25px;font-family:'Trebuchet MS';-inkscape-font-specification:'Trebuchet MS Bold';letter-spacing:0px;word-spacing:0px;fill:#2c5aa0;fill-opacity:1;stroke:none;stroke-width:0.66666669px;stroke-linecap:butt;stroke-linejoin:miter;stroke-opacity:1"
         id="text832-3"
         transform="translate(0.5273438,3.43568e-5)">
        <g
           aria-label="CSS"
           style="font-style:normal;font-variant:normal;font-weight:bold;font-stretch:normal;font-size:8px;line-height:25px;font-family:'Trebuchet MS';-inkscape-font-specification:'Trebuchet MS Bold';letter-spacing:0px;word-spacing:0px;fill:#2c5aa0;fill-opacity:1;stroke:none;stroke-width:0.66209543px;stroke-linecap:butt;stroke-linejoin:miter;stroke-opacity:1"
           id="text833"
           transform="matrix(1,0,0,1.013856,0,-14.539997)">
          <path
             d="m 11.195313,1043.8466 -0.417969,0.8398 q -0.339844,-0.3398 -1.0937502,-0.3398 -0.7148438,0 -1.171875,0.6015 -0.4570313,0.5977 -0.4570313,1.5156 0,0.918 0.421875,1.4571 0.4257813,0.539 1.1328125,0.539 0.808594,0 1.265625,-0.5781 l 0.472656,0.8203 q -0.621093,0.6602 -1.8203122,0.6602 -1.1992188,0 -1.8632813,-0.7891 Q 7,1047.7841 7,1046.4208 q 0,-1.2696 0.734375,-2.1211 0.7382813,-0.8555 1.8867188,-0.8555 0.9843752,0 1.5742192,0.4024 z"
             id="path835"
             inkscape:connector-curvature="0"
             style="stroke-width:0.65755552px" />
          <path
             d="m 11.988281,1048.9481 0.375,-0.9101 q 0.601563,0.4218 1.183594,0.4218 0.894531,0 0.894531,-0.625 0,-0.2929 -0.210937,-0.5586 -0.210938,-0.2656 -0.871094,-0.5937 -0.65625,-0.332 -0.886719,-0.543 -0.226562,-0.2148 -0.351562,-0.5078 Q 12,1045.3387 12,1044.9833 q 0,-0.6641 0.484375,-1.1016 0.488281,-0.4375 1.25,-0.4375 0.992187,0 1.457031,0.3711 l -0.308594,0.875 q -0.535156,-0.3828 -1.128906,-0.3828 -0.351562,0 -0.546875,0.1875 -0.191406,0.1836 -0.191406,0.4805 0,0.4922 1.089844,1.0234 0.574218,0.2813 0.828125,0.5195 0.253906,0.2344 0.386718,0.5508 0.132813,0.3125 0.132813,0.6992 0,0.6953 -0.550781,1.1446 -0.546875,0.4492 -1.46875,0.4492 -0.800782,0 -1.445313,-0.4141 z"
             id="path837"
             inkscape:connector-curvature="0"
             style="stroke-width:0.65755552px" />
          <path
             d="m 16,1048.9481 0.375,-0.9101 q 0.601562,0.4218 1.183594,0.4218 0.894531,0 0.894531,-0.625 0,-0.2929 -0.210938,-0.5586 -0.210937,-0.2656 -0.871093,-0.5937 -0.65625,-0.332 -0.886719,-0.543 -0.226563,-0.2148 -0.351563,-0.5078 -0.121093,-0.293 -0.121093,-0.6484 0,-0.6641 0.484375,-1.1016 0.488281,-0.4375 1.25,-0.4375 0.992187,0 1.457031,0.3711 l -0.308594,0.875 q -0.535156,-0.3828 -1.128906,-0.3828 -0.351563,0 -0.546875,0.1875 -0.191406,0.1836 -0.191406,0.4805 0,0.4922 1.089843,1.0234 0.574219,0.2813 0.828125,0.5195 0.253907,0.2344 0.386719,0.5508 0.132813,0.3125 0.132813,0.6992 0,0.6953 -0.550782,1.1446 -0.546875,0.4492 -1.46875,0.4492 -0.800781,0 -1.445312,-0.4141 z"
             id="path839"
             inkscape:connector-curvature="0"
             style="stroke-width:0.65755552px" />
        </g>
      </g>
    </g>
  </g>
</svg>
