<?xml version="1.0" encoding="UTF-8" standalone="no"?>
<!-- Created with Inkscape (http://www.inkscape.org/) -->

<svg
   xmlns:osb="http://www.openswatchbook.org/uri/2009/osb"
   xmlns:dc="http://purl.org/dc/elements/1.1/"
   xmlns:cc="http://creativecommons.org/ns#"
   xmlns:rdf="http://www.w3.org/1999/02/22-rdf-syntax-ns#"
   xmlns:svg="http://www.w3.org/2000/svg"
   xmlns="http://www.w3.org/2000/svg"
   xmlns:sodipodi="http://sodipodi.sourceforge.net/DTD/sodipodi-0.dtd"
   xmlns:inkscape="http://www.inkscape.org/namespaces/inkscape"
   width="48"
   height="48"
   viewBox="0 0 48 48"
   id="svg4225"
   version="1.1"
   inkscape:version="0.92.2 (5c3e80d, 2017-08-06)"
   sodipodi:docname="tsynsqlsyn_200.svg"
   inkscape:export-filename="tsynsqlsyn_200.png"
   inkscape:export-xdpi="96"
   inkscape:export-ydpi="96">
  <defs
     id="defs4227">
    <linearGradient
       id="linearGradient826"
       osb:paint="solid">
      <stop
         style="stop-color:#e6e6e6;stop-opacity:1;"
         offset="0"
         id="stop824" />
    </linearGradient>
  </defs>
  <sodipodi:namedview
     id="base"
     pagecolor="#ffffff"
     bordercolor="#666666"
     borderopacity="1.0"
     inkscape:pageopacity="0.0"
     inkscape:pageshadow="2"
     inkscape:zoom="15.106384"
     inkscape:cx="22.134566"
     inkscape:cy="22.947779"
     inkscape:document-units="px"
     inkscape:current-layer="text832"
     showgrid="true"
     inkscape:snap-bbox="true"
     inkscape:bbox-paths="true"
     inkscape:bbox-nodes="true"
     inkscape:snap-bbox-edge-midpoints="true"
     inkscape:snap-bbox-midpoints="true"
     inkscape:object-paths="true"
     inkscape:snap-intersection-paths="true"
     inkscape:object-nodes="true"
     inkscape:snap-smooth-nodes="true"
     inkscape:snap-midpoints="true"
     inkscape:snap-object-midpoints="true"
     inkscape:snap-center="true"
     units="px"
     inkscape:window-width="1920"
     inkscape:window-height="1137"
     inkscape:window-x="-8"
     inkscape:window-y="-8"
     inkscape:window-maximized="1"
     showguides="true"
     inkscape:guide-bbox="true">
    <inkscape:grid
       type="xygrid"
       id="grid4241"
       spacingx="0.5"
       spacingy="0.5"
       empspacing="2" />
  </sodipodi:namedview>
  <metadata
     id="metadata4230">
    <rdf:RDF>
      <cc:Work
         rdf:about="">
        <dc:format>image/svg+xml</dc:format>
        <dc:type
           rdf:resource="http://purl.org/dc/dcmitype/StillImage" />
        <dc:title />
      </cc:Work>
    </rdf:RDF>
  </metadata>
  <g
     inkscape:label="Ebene 1"
     inkscape:groupmode="layer"
     id="layer1"
     transform="translate(0,-1004.3622)">
    <g
       id="g858">
      <rect
         y="1007.3622"
         x="3"
         height="41.999931"
         width="40"
         id="rect894"
         style="opacity:1;fill:#ffffff;fill-opacity:1;fill-rule:evenodd;stroke:#b3b3b3;stroke-width:2;stroke-linecap:square;stroke-linejoin:round;stroke-miterlimit:4;stroke-dasharray:none;stroke-dashoffset:0;stroke-opacity:1;paint-order:normal" />
      <rect
         y="1007.3622"
         x="3"
         height="41.999966"
         width="6"
         id="rect896"
         style="opacity:1;fill:#b3b3b3;fill-opacity:1;fill-rule:evenodd;stroke:#b3b3b3;stroke-width:2;stroke-linecap:square;stroke-linejoin:round;stroke-miterlimit:4;stroke-dasharray:none;stroke-dashoffset:0;stroke-opacity:1;paint-order:normal" />
    </g>
    <g
       id="g854">
      <path
         inkscape:connector-curvature="0"
         id="path874"
         d="M 14,1013.3622 H 36"
         style="fill:none;fill-rule:evenodd;stroke:#666666;stroke-width:2px;stroke-linecap:butt;stroke-linejoin:miter;stroke-opacity:1" />
      <path
         style="fill:none;fill-rule:evenodd;stroke:#666666;stroke-width:2px;stroke-linecap:butt;stroke-linejoin:miter;stroke-opacity:1"
         d="m 18,1017.3622 h 8"
         id="path876"
         inkscape:connector-curvature="0" />
      <path
         inkscape:connector-curvature="0"
         id="path878"
         d="M 22,1021.3622 H 34"
         style="fill:none;fill-rule:evenodd;stroke:#666666;stroke-width:2px;stroke-linecap:butt;stroke-linejoin:miter;stroke-opacity:1" />
      <path
         style="fill:none;fill-rule:evenodd;stroke:#666666;stroke-width:2px;stroke-linecap:butt;stroke-linejoin:miter;stroke-opacity:1"
         d="m 18,1025.3622 h 4"
         id="path880"
         inkscape:connector-curvature="0" />
      <path
         inkscape:connector-curvature="0"
         id="path882"
         d="M 14.000001,1029.3622 H 22"
         style="fill:none;fill-rule:evenodd;stroke:#666666;stroke-width:2.00000024px;stroke-linecap:butt;stroke-linejoin:miter;stroke-opacity:1" />
      <path
         inkscape:connector-curvature="0"
         id="path884"
         d="m 28,1017.3622 h 6"
         style="fill:none;fill-rule:evenodd;stroke:#ff0000;stroke-width:2px;stroke-linecap:butt;stroke-linejoin:miter;stroke-opacity:1" />
      <path
         style="fill:none;fill-rule:evenodd;stroke:#ff0000;stroke-width:2px;stroke-linecap:butt;stroke-linejoin:miter;stroke-opacity:1"
         d="M 24,1029.362 H 36"
         id="path886"
         inkscape:connector-curvature="0" />
      <path
         style="fill:none;fill-rule:evenodd;stroke:#2a7fff;stroke-width:2px;stroke-linecap:butt;stroke-linejoin:miter;stroke-opacity:1"
         d="m 22,1025.3622 h 6"
         id="path890"
         inkscape:connector-curvature="0" />
      <path
         style="fill:none;fill-rule:evenodd;stroke:#666666;stroke-width:2px;stroke-linecap:butt;stroke-linejoin:miter;stroke-opacity:1"
         d="m 28,1025.3622 h 4"
         id="path892"
         inkscape:connector-curvature="0" />
    </g>
    <g
       aria-label="PAS"
       transform="matrix(1.986284,0,0,2.0138108,51.841371,-1050.3622)"
       style="font-style:normal;font-variant:normal;font-weight:bold;font-stretch:normal;font-size:8.05524349px;line-height:25.17263412px;font-family:'Trebuchet MS';-inkscape-font-specification:'Trebuchet MS Bold';letter-spacing:0px;word-spacing:0px;fill:#2c5aa0;fill-opacity:1;stroke:none;stroke-width:1.00690544px;stroke-linecap:butt;stroke-linejoin:miter;stroke-opacity:1"
       id="text832">
      <g
         aria-label="SQL"
         style="font-style:normal;font-variant:normal;font-weight:bold;font-stretch:normal;font-size:8px;line-height:25px;font-family:'Trebuchet MS';-inkscape-font-specification:'Trebuchet MS Bold';letter-spacing:0px;word-spacing:0px;fill:#2c5aa0;fill-opacity:1;stroke:none;stroke-width:1px;stroke-linecap:butt;stroke-linejoin:miter;stroke-opacity:1"
         id="text831"
         transform="matrix(1.0069054,0,0,0.99314196,-26.099678,-0.99314454)">
        <path
           d="m 6,1048.9423 0.378805,-0.9227 q 0.6076662,0.4277 1.1956031,0.4277 0.9036076,0 0.9036076,-0.6337 0,-0.2969 -0.2130777,-0.5662 -0.2130778,-0.2694 -0.8799324,-0.602 -0.6629087,-0.3366 -0.8957159,-0.5505 -0.2288613,-0.2178 -0.3551296,-0.5149 -0.1223225,-0.2969 -0.1223225,-0.6574 0,-0.6733 0.4892897,-1.1168 0.4932357,-0.4436 1.2626833,-0.4436 1.0022548,0 1.4718151,0.3762 l -0.3117249,0.8872 q -0.5405863,-0.3881 -1.1403608,-0.3881 -0.3551296,0 -0.5524239,0.1901 -0.1933484,0.1861 -0.1933484,0.4871 0,0.499 1.1009019,1.0376 0.5800452,0.2852 0.8365277,0.5267 0.2564825,0.2376 0.3906426,0.5584 Q 9.5,1047.3543 9.5,1047.7463 q 0,0.705 -0.5563698,1.1605 -0.5524239,0.4554 -1.4836528,0.4554 -0.8089064,0 -1.4599774,-0.4199 z"
           style="stroke-width:1.01199961px"
           id="path833"
           inkscape:connector-curvature="0" />
        <path
           d="m 16.1,1050.3272 q -0.248801,0.035 -0.505141,0.035 -0.701165,0 -1.293008,-0.2951 -0.588074,-0.2912 -0.916039,-0.8191 -0.139479,0.027 -0.448594,0.027 -1.089445,0 -1.715217,-0.8385 Q 10.6,1047.5979 10.6,1046.278 q 0,-1.25 0.63708,-2.0808 0.637081,-0.8347 1.700138,-0.8347 1.194996,0 1.839615,0.7726 0.648389,0.7686 0.648389,2.1429 0,2.0381 -1.296778,2.7214 0.410898,0.4658 1.364634,0.4658 0.350583,0 0.606922,-0.077 z m -4.482179,-4.049 q 0,0.8928 0.346813,1.4946 0.346812,0.6018 0.972584,0.6018 0.723782,0 1.096984,-0.5513 0.373201,-0.5513 0.373201,-1.5451 0,-2.0148 -1.470185,-2.0148 -0.64839,0 -0.983894,0.5395 -0.335503,0.5397 -0.335503,1.4753 z"
           style="stroke-width:0.97932845px"
           id="path835"
           inkscape:connector-curvature="0" />
        <path
           d="m 17,1049.3622 v -6 h 1 v 5 h 2 v 1 z"
           id="path837"
           inkscape:connector-curvature="0"
           style="stroke-width:1.00940967px"
           sodipodi:nodetypes="ccccccc" />
      </g>
    </g>
  </g>
</svg>
