<?xml version="1.0" encoding="UTF-8" standalone="no"?>
<!-- Created with Inkscape (http://www.inkscape.org/) -->

<svg
   xmlns:osb="http://www.openswatchbook.org/uri/2009/osb"
   xmlns:dc="http://purl.org/dc/elements/1.1/"
   xmlns:cc="http://creativecommons.org/ns#"
   xmlns:rdf="http://www.w3.org/1999/02/22-rdf-syntax-ns#"
   xmlns:svg="http://www.w3.org/2000/svg"
   xmlns="http://www.w3.org/2000/svg"
   xmlns:xlink="http://www.w3.org/1999/xlink"
   xmlns:sodipodi="http://sodipodi.sourceforge.net/DTD/sodipodi-0.dtd"
   xmlns:inkscape="http://www.inkscape.org/namespaces/inkscape"
   width="48"
   height="48"
   viewBox="0 0 48 48"
   version="1.1"
   id="svg2747"
   inkscape:version="0.92.3 (2405546, 2018-03-11)"
   sodipodi:docname="tsecretpanel_rx_200.svg"
   inkscape:export-filename="D:\temp\rx\work\tsecretpanel_rx_200.png"
   inkscape:export-xdpi="96"
   inkscape:export-ydpi="96">
  <defs
     id="defs2741">
    <linearGradient
       inkscape:collect="always"
       id="linearGradient941">
      <stop
         style="stop-color:#ffffff;stop-opacity:1"
         offset="0"
         id="stop937" />
      <stop
         style="stop-color:#d6d6d6;stop-opacity:1"
         offset="1"
         id="stop939" />
    </linearGradient>
    <linearGradient
       spreadMethod="pad"
       id="linearGradient4868"
       gradientUnits="userSpaceOnUse"
       x1="42.5844"
       y1="20.573299"
       x2="10"
       y2="29">
      <stop
         offset="0"
         stop-color="#7D6400"
         id="stop4864" />
      <stop
         style="stop-opacity:0"
         offset="1"
         stop-color="#BE9700"
         id="stop4866" />
    </linearGradient>
    <linearGradient
       y2="29"
       x2="10"
       y1="20.573299"
       x1="42.5844"
       gradientUnits="userSpaceOnUse"
       id="0-3"
       spreadMethod="pad">
      <stop
         id="stop3332"
         stop-color="#7D6400"
         offset="0" />
      <stop
         id="stop3334"
         stop-color="#BE9700"
         offset="1"
         style="stop-opacity:0" />
    </linearGradient>
    <linearGradient
       y2="29"
       x2="10"
       y1="20.573299"
       x1="42.5844"
       gradientUnits="userSpaceOnUse"
       id="0">
      <stop
         id="stop3326"
         stop-color="#7D6400"
         offset="0" />
      <stop
         id="stop3328"
         stop-color="#BE9700"
         offset="1"
         style="stop-opacity:0" />
    </linearGradient>
    <linearGradient
       id="a2"
       gradientUnits="userSpaceOnUse"
       x1="42.5844"
       y1="20.573299"
       x2="10"
       y2="29"
       spreadMethod="pad"
       xlink:href="#0-3"
       osb:paint="gradient">
      <stop
         offset="0"
         stop-color="#7D6400"
         id="stop15" />
      <stop
         offset="1"
         stop-color="#BE9700"
         id="stop17" />
    </linearGradient>
    <pattern
       y="0"
       x="0"
       height="6"
       width="6"
       patternUnits="userSpaceOnUse"
       id="EMFhbasepattern" />
    <pattern
       y="0"
       x="0"
       height="6"
       width="6"
       patternUnits="userSpaceOnUse"
       id="EMFhbasepattern-9" />
    <linearGradient
       inkscape:collect="always"
       xlink:href="#linearGradient941"
       id="linearGradient943"
       x1="4"
       y1="12"
       x2="36"
       y2="44"
       gradientUnits="userSpaceOnUse" />
  </defs>
  <sodipodi:namedview
     id="base"
     pagecolor="#ffffff"
     bordercolor="#666666"
     borderopacity="1.0"
     inkscape:pageopacity="0.0"
     inkscape:pageshadow="2"
     inkscape:zoom="8.5520833"
     inkscape:cx="20.933858"
     inkscape:cy="13.997904"
     inkscape:document-units="px"
     inkscape:current-layer="layer10"
     showgrid="true"
     units="px"
     inkscape:window-width="1920"
     inkscape:window-height="1018"
     inkscape:window-x="-8"
     inkscape:window-y="-8"
     inkscape:window-maximized="1"
     inkscape:snap-global="true"
     inkscape:snap-object-midpoints="true">
    <inkscape:grid
       type="xygrid"
       id="grid3295" />
  </sodipodi:namedview>
  <metadata
     id="metadata2744">
    <rdf:RDF>
      <cc:Work
         rdf:about="">
        <dc:format>image/svg+xml</dc:format>
        <dc:type
           rdf:resource="http://purl.org/dc/dcmitype/StillImage" />
        <dc:title />
      </cc:Work>
    </rdf:RDF>
  </metadata>
  <g
     inkscape:label="base"
     inkscape:groupmode="layer"
     id="layer1"
     transform="translate(0,-284.29999)"
     style="display:inline">
    <path
       style="opacity:1;fill:none;fill-opacity:1;fill-rule:nonzero;stroke:none;stroke-width:1.10000002;stroke-linecap:butt;stroke-linejoin:round;stroke-miterlimit:4;stroke-dasharray:none;stroke-opacity:1;paint-order:stroke fill markers"
       d="m 0,284.29999 h 48 v 48 H 0 Z"
       id="rect3297"
       inkscape:connector-curvature="0" />
  </g>
  <g
     inkscape:groupmode="layer"
     id="layer8"
     inkscape:label="panel">
    <path
       style="color:#000000;font-style:normal;font-variant:normal;font-weight:normal;font-stretch:normal;font-size:medium;line-height:normal;font-family:sans-serif;font-variant-ligatures:normal;font-variant-position:normal;font-variant-caps:normal;font-variant-numeric:normal;font-variant-alternates:normal;font-feature-settings:normal;text-indent:0;text-align:start;text-decoration:none;text-decoration-line:none;text-decoration-style:solid;text-decoration-color:#000000;letter-spacing:normal;word-spacing:normal;text-transform:none;writing-mode:lr-tb;direction:ltr;text-orientation:mixed;dominant-baseline:auto;baseline-shift:baseline;text-anchor:start;white-space:normal;shape-padding:0;clip-rule:nonzero;display:inline;overflow:visible;visibility:visible;opacity:1;isolation:auto;mix-blend-mode:normal;color-interpolation:sRGB;color-interpolation-filters:linearRGB;solid-color:#000000;solid-opacity:1;vector-effect:none;fill:#999999;fill-opacity:1;fill-rule:evenodd;stroke:none;stroke-width:2.07251978;stroke-linecap:round;stroke-linejoin:round;stroke-miterlimit:4;stroke-dasharray:none;stroke-dashoffset:0;stroke-opacity:1;color-rendering:auto;image-rendering:auto;shape-rendering:auto;text-rendering:auto;enable-background:accumulate"
       d="m 3.0492149,10 a 1.0367956,1.0359317 0 0 0 -1.0363852,1.035521 v 33.905546 a 1.0367956,1.0359317 0 0 0 1.0363852,1.035521 H 36.983038 a 1.0367956,1.0359317 0 0 0 1.036384,-1.035521 V 11.035521 A 1.0367956,1.0359317 0 0 0 36.983038,10 Z"
       id="path869"
       inkscape:connector-curvature="0" />
    <path
       style="color:#000000;font-style:normal;font-variant:normal;font-weight:normal;font-stretch:normal;font-size:medium;line-height:normal;font-family:sans-serif;font-variant-ligatures:normal;font-variant-position:normal;font-variant-caps:normal;font-variant-numeric:normal;font-variant-alternates:normal;font-feature-settings:normal;text-indent:0;text-align:start;text-decoration:none;text-decoration-line:none;text-decoration-style:solid;text-decoration-color:#000000;letter-spacing:normal;word-spacing:normal;text-transform:none;writing-mode:lr-tb;direction:ltr;text-orientation:mixed;dominant-baseline:auto;baseline-shift:baseline;text-anchor:start;white-space:normal;shape-padding:0;clip-rule:nonzero;display:inline;overflow:visible;visibility:visible;opacity:1;isolation:auto;mix-blend-mode:normal;color-interpolation:sRGB;color-interpolation-filters:linearRGB;solid-color:#000000;solid-opacity:1;vector-effect:none;fill:url(#linearGradient943);fill-opacity:1;fill-rule:evenodd;stroke:none;stroke-width:2.07874012;stroke-linecap:round;stroke-linejoin:round;stroke-miterlimit:4;stroke-dasharray:none;stroke-dashoffset:0;stroke-opacity:1;color-rendering:auto;image-rendering:auto;shape-rendering:auto;text-rendering:auto;enable-background:accumulate"
       d="M 4.0292968,12.029297 H 35.970703 V 43.970703 H 4.0292968 Z"
       id="path826"
       inkscape:connector-curvature="0" />
    <path
       id="path830"
       d="m 8.739955,7.1002041 h 11.999912 c 1.119992,0 2.079984,0.96 2.079984,2.08 v 1.9200029 c 0,1.12 -0.959992,2.080001 -2.079984,2.080001 H 8.739955 c -0.959992,0 -1.9199837,-0.960001 -1.9199837,-2.080001 V 9.1802041 c 0,-1.12 0.9599917,-2.08 1.9199837,-2.08 z"
       style="fill:none;stroke:none;stroke-width:2"
       inkscape:connector-curvature="0" />
  </g>
  <g
     inkscape:groupmode="layer"
     id="layer5"
     inkscape:label="spy_circle"
     style="display:inline">
    <path
       style="color:#000000;font-style:normal;font-variant:normal;font-weight:normal;font-stretch:normal;font-size:medium;line-height:normal;font-family:sans-serif;font-variant-ligatures:normal;font-variant-position:normal;font-variant-caps:normal;font-variant-numeric:normal;font-variant-alternates:normal;font-feature-settings:normal;text-indent:0;text-align:start;text-decoration:none;text-decoration-line:none;text-decoration-style:solid;text-decoration-color:#000000;letter-spacing:normal;word-spacing:normal;text-transform:none;writing-mode:lr-tb;direction:ltr;text-orientation:mixed;dominant-baseline:auto;baseline-shift:baseline;text-anchor:start;white-space:normal;shape-padding:0;clip-rule:nonzero;display:inline;overflow:visible;visibility:visible;opacity:1;isolation:auto;mix-blend-mode:normal;color-interpolation:sRGB;color-interpolation-filters:linearRGB;solid-color:#000000;solid-opacity:1;vector-effect:none;fill:#222222;fill-opacity:1;fill-rule:evenodd;stroke:none;stroke-width:1.12890327;stroke-linecap:round;stroke-linejoin:round;stroke-miterlimit:4;stroke-dasharray:none;stroke-dashoffset:0;stroke-opacity:1;paint-order:normal;color-rendering:auto;image-rendering:auto;shape-rendering:auto;text-rendering:auto;enable-background:accumulate"
       d="m 31.318197,14.705337 c -8.105753,2e-6 -14.687865,6.582154 -14.687865,14.687861 0,8.10571 6.582112,14.688963 14.687865,14.688964 8.105774,1e-6 14.688953,-6.583251 14.688953,-14.688964 0,-8.105707 -6.583179,-14.687861 -14.688953,-14.687861 z"
       id="path933"
       inkscape:connector-curvature="0" />
    <path
       style="color:#000000;font-style:normal;font-variant:normal;font-weight:normal;font-stretch:normal;font-size:medium;line-height:normal;font-family:sans-serif;font-variant-ligatures:normal;font-variant-position:normal;font-variant-caps:normal;font-variant-numeric:normal;font-variant-alternates:normal;font-feature-settings:normal;text-indent:0;text-align:start;text-decoration:none;text-decoration-line:none;text-decoration-style:solid;text-decoration-color:#000000;letter-spacing:normal;word-spacing:normal;text-transform:none;writing-mode:lr-tb;direction:ltr;text-orientation:mixed;dominant-baseline:auto;baseline-shift:baseline;text-anchor:start;white-space:normal;shape-padding:0;clip-rule:nonzero;display:inline;overflow:visible;visibility:visible;opacity:1;isolation:auto;mix-blend-mode:normal;color-interpolation:sRGB;color-interpolation-filters:linearRGB;solid-color:#000000;solid-opacity:1;vector-effect:none;fill:#ffffff;fill-opacity:1;fill-rule:evenodd;stroke:none;stroke-width:1.08785617;stroke-linecap:round;stroke-linejoin:round;stroke-miterlimit:4;stroke-dasharray:none;stroke-dashoffset:0;stroke-opacity:1;paint-order:normal;color-rendering:auto;image-rendering:auto;shape-rendering:auto;text-rendering:auto;enable-background:accumulate"
       d="m 31.318197,16.327255 c 7.223065,0 13.067067,5.842886 13.067067,13.065965 0,7.223077 -5.844002,13.067031 -13.067067,13.067031 -7.223044,0 -13.065979,-5.843957 -13.065979,-13.067031 0,-7.223079 5.842935,-13.065965 13.065979,-13.065965 z"
       id="path926"
       inkscape:connector-curvature="0" />
  </g>
  <g
     inkscape:groupmode="layer"
     id="layer2"
     inkscape:label="spy"
     style="display:inline;opacity:1">
    <path
       style="fill:#000000;fill-opacity:1;fill-rule:evenodd;stroke:none;stroke-width:0.04368314"
       d="m 27.66656,20 c -1.017259,0 -1.615573,0.905045 -2.096111,1.619702 l -0.458211,0.778091 c -0.272541,0.448933 -0.578882,1.170332 -0.798463,1.678684 -0.05922,0.136613 -0.107009,0.270872 -0.157715,0.402658 a 9.7311991,4.3968806 0 0 0 7.239906,1.471116 9.7311991,4.3968806 0 0 0 7.095831,-1.398532 C 38.147953,23.69364 37.715977,22.741585 37.523165,22.419343 37.359658,22.145366 37.240479,21.904195 37.063756,21.640117 36.591513,20.933706 35.974073,20 34.955235,20 c -0.885136,0 -1.222209,0.28733 -1.933921,0.648789 L 32.26707,21.026498 C 30.756177,21.693293 30.12342,20.790167 28.855262,20.262012 28.295441,20.029288 28.232945,20 27.66656,20 Z m -3.974361,5.83343 c -0.01089,0.03639 -0.02275,0.08319 -0.0246,0.108878 -0.217947,0 -1.070818,0.214561 -1.316884,0.275622 -0.989075,0.245926 -3.847039,0.982827 -2.844715,2.326337 0.475628,0.638741 2.378242,1.129424 3.1726,1.322526 0.166718,0.04131 0.466681,0.128578 0.635054,0.141784 0,0.845057 -0.113998,0.993761 0.10899,2.084742 0.06445,0.321851 0.315268,1.204564 0.315268,1.204564 1.490057,4.253623 5.312571,5.214387 5.858392,5.307136 1.922687,0.326713 2.857899,0.179883 4.07424,-0.165602 1.216309,-0.345475 4.082601,-1.695809 5.214064,-5.141534 0.633682,-1.929595 0.424226,-3.289306 0.424226,-3.289306 l 1.20687,-0.276758 c 0.72323,-0.214559 2.826536,-0.759551 2.826536,-1.703637 0,-1.010101 -2.181228,-1.587747 -3.04321,-1.802312 -0.263657,-0.06591 -1.103693,-0.28267 -1.341791,-0.283562 a 9.7311991,4.3968806 0 0 1 -7.54161,1.621971 9.7311991,4.3968806 0 0 1 -7.72309,-1.730849 z m 3.02613,4.843224 c 0.961131,-0.0114 2.102141,0.09256 2.575854,0.145179 0.997414,0.110581 1.244112,0.284693 2.229965,0.284693 0.328571,0 2.131011,-0.424207 3.714634,-0.424207 l 1.238646,0.03289 c 0.430942,0.0032 0.562216,0.04436 0.813181,0.214378 0,0.77408 -0.23775,0.498015 -0.449198,1.034429 l -0.419643,1.101352 c -0.105702,0.254177 -0.399612,0.772568 -0.579567,0.90626 -0.06782,0.0495 -0.143368,0.09114 -0.214377,0.140648 -0.685303,0.491845 -1.973514,0.490997 -2.683626,0.06351 -0.114019,-0.0693 -0.12619,-0.07513 -0.230249,-0.15766 -0.394691,-0.321845 -0.493503,-0.624321 -0.681678,-1.192093 -0.07587,-0.227769 -0.114095,-0.331636 -0.213234,-0.529689 -0.09591,-0.193109 -0.198886,-0.307381 -0.472961,-0.307381 -0.295597,0 -0.42121,0.02727 -0.56485,0.284694 -0.219679,0.392813 -0.304132,1.093739 -0.683975,1.545972 -0.435961,0.519911 -1.338243,0.772899 -2.229965,0.622703 -0.909837,-0.155146 -1.223004,-0.432503 -1.663939,-1.308916 -0.181577,-0.358164 -0.272889,-0.698438 -0.40831,-1.076401 -0.242746,-0.676704 -0.344845,-0.270493 -0.42072,-0.711167 -0.06009,-0.341652 -0.06205,-0.255527 -0.01089,-0.486598 0.263767,-0.126881 0.775341,-0.175781 1.352013,-0.182607 z"
       id="path855"
       inkscape:connector-curvature="0" />
  </g>
  <g
     inkscape:groupmode="layer"
     id="layer10"
     inkscape:label="text"
     style="display:inline">
    <flowRoot
       xml:space="preserve"
       id="flowRoot914"
       style="font-style:normal;font-variant:normal;font-weight:normal;font-stretch:normal;font-size:12px;line-height:1.25;font-family:'Arial Unicode MS';-inkscape-font-specification:'Arial Unicode MS';letter-spacing:0px;word-spacing:0px;clip-rule:evenodd;fill:#c500ab;fill-opacity:1;fill-rule:evenodd;stroke:#ffffff;stroke-width:2.96764684;stroke-linecap:round;stroke-linejoin:round;stroke-miterlimit:4;stroke-dasharray:none;stroke-opacity:1;paint-order:markers stroke fill;image-rendering:optimizeQuality;shape-rendering:geometricPrecision;text-rendering:geometricPrecision"
       transform="matrix(0.92708572,0,0,1.1022954,-1.6745897,-0.28070299)"><flowRegion
         id="flowRegion916"
         style="fill:#c500ab;fill-opacity:1;stroke:#ffffff;stroke-width:2.96764684;stroke-linecap:round;stroke-linejoin:round;stroke-miterlimit:4;stroke-dasharray:none;stroke-opacity:1;paint-order:markers stroke fill"><rect
           id="rect918"
           width="38.14209"
           height="34.674625"
           x="3.4674628"
           y="-1.8781176"
           style="fill:#c500ab;fill-opacity:1;stroke:#ffffff;stroke-width:2.96764684;stroke-linecap:round;stroke-linejoin:round;stroke-miterlimit:4;stroke-dasharray:none;stroke-opacity:1;paint-order:markers stroke fill" /></flowRegion><flowPara
         id="flowPara920"
         style="font-style:normal;font-variant:normal;font-weight:bold;font-stretch:normal;font-size:21.33333397px;font-family:Arial;-inkscape-font-specification:'Arial Bold';stroke:#ffffff;stroke-width:2.96764684;stroke-linecap:round;stroke-linejoin:round;stroke-miterlimit:4;stroke-dasharray:none;stroke-opacity:1;paint-order:markers stroke fill">Rx</flowPara></flowRoot>  </g>
</svg>
