<?xml version="1.0" encoding="UTF-8" standalone="no"?>
<!-- Created with Inkscape (http://www.inkscape.org/) -->

<svg
   xmlns:osb="http://www.openswatchbook.org/uri/2009/osb"
   xmlns:dc="http://purl.org/dc/elements/1.1/"
   xmlns:cc="http://creativecommons.org/ns#"
   xmlns:rdf="http://www.w3.org/1999/02/22-rdf-syntax-ns#"
   xmlns:svg="http://www.w3.org/2000/svg"
   xmlns="http://www.w3.org/2000/svg"
   xmlns:xlink="http://www.w3.org/1999/xlink"
   xmlns:sodipodi="http://sodipodi.sourceforge.net/DTD/sodipodi-0.dtd"
   xmlns:inkscape="http://www.inkscape.org/namespaces/inkscape"
   width="36"
   height="36"
   viewBox="0 0 36 36"
   version="1.1"
   id="svg2747"
   inkscape:version="0.92.3 (2405546, 2018-03-11)"
   sodipodi:docname="tsecretpanel_rx_150.svg"
   inkscape:export-filename="D:\temp\rx\work\tsecretpanel_rx_150.png"
   inkscape:export-xdpi="96"
   inkscape:export-ydpi="96">
  <defs
     id="defs2741">
    <linearGradient
       inkscape:collect="always"
       id="linearGradient941">
      <stop
         style="stop-color:#ffffff;stop-opacity:1"
         offset="0"
         id="stop937" />
      <stop
         style="stop-color:#d6d6d6;stop-opacity:1"
         offset="1"
         id="stop939" />
    </linearGradient>
    <linearGradient
       spreadMethod="pad"
       id="linearGradient4868"
       gradientUnits="userSpaceOnUse"
       x1="42.5844"
       y1="20.573299"
       x2="10"
       y2="29">
      <stop
         offset="0"
         stop-color="#7D6400"
         id="stop4864" />
      <stop
         style="stop-opacity:0"
         offset="1"
         stop-color="#BE9700"
         id="stop4866" />
    </linearGradient>
    <linearGradient
       y2="29"
       x2="10"
       y1="20.573299"
       x1="42.5844"
       gradientUnits="userSpaceOnUse"
       id="0-3"
       spreadMethod="pad">
      <stop
         id="stop3332"
         stop-color="#7D6400"
         offset="0" />
      <stop
         id="stop3334"
         stop-color="#BE9700"
         offset="1"
         style="stop-opacity:0" />
    </linearGradient>
    <linearGradient
       y2="29"
       x2="10"
       y1="20.573299"
       x1="42.5844"
       gradientUnits="userSpaceOnUse"
       id="0">
      <stop
         id="stop3326"
         stop-color="#7D6400"
         offset="0" />
      <stop
         id="stop3328"
         stop-color="#BE9700"
         offset="1"
         style="stop-opacity:0" />
    </linearGradient>
    <linearGradient
       id="a2"
       gradientUnits="userSpaceOnUse"
       x1="42.5844"
       y1="20.573299"
       x2="10"
       y2="29"
       spreadMethod="pad"
       xlink:href="#0-3"
       osb:paint="gradient">
      <stop
         offset="0"
         stop-color="#7D6400"
         id="stop15" />
      <stop
         offset="1"
         stop-color="#BE9700"
         id="stop17" />
    </linearGradient>
    <pattern
       y="0"
       x="0"
       height="6"
       width="6"
       patternUnits="userSpaceOnUse"
       id="EMFhbasepattern" />
    <pattern
       y="0"
       x="0"
       height="6"
       width="6"
       patternUnits="userSpaceOnUse"
       id="EMFhbasepattern-9" />
    <linearGradient
       inkscape:collect="always"
       xlink:href="#linearGradient941"
       id="linearGradient943"
       x1="4"
       y1="12"
       x2="36"
       y2="44"
       gradientUnits="userSpaceOnUse"
       gradientTransform="matrix(0.78111668,0,0,0.78248947,-0.12537796,10.609175)" />
  </defs>
  <sodipodi:namedview
     id="base"
     pagecolor="#ffffff"
     bordercolor="#666666"
     borderopacity="1.0"
     inkscape:pageopacity="0.0"
     inkscape:pageshadow="2"
     inkscape:zoom="12.094472"
     inkscape:cx="19.691142"
     inkscape:cy="14.295999"
     inkscape:document-units="px"
     inkscape:current-layer="layer5"
     showgrid="true"
     units="px"
     inkscape:window-width="1920"
     inkscape:window-height="1018"
     inkscape:window-x="-8"
     inkscape:window-y="-8"
     inkscape:window-maximized="1"
     inkscape:snap-global="true"
     inkscape:snap-object-midpoints="true">
    <inkscape:grid
       type="xygrid"
       id="grid3295" />
  </sodipodi:namedview>
  <metadata
     id="metadata2744">
    <rdf:RDF>
      <cc:Work
         rdf:about="">
        <dc:format>image/svg+xml</dc:format>
        <dc:type
           rdf:resource="http://purl.org/dc/dcmitype/StillImage" />
        <dc:title></dc:title>
      </cc:Work>
    </rdf:RDF>
  </metadata>
  <g
     inkscape:label="base"
     inkscape:groupmode="layer"
     id="layer1"
     transform="translate(0,-296.29999)"
     style="display:inline"
     sodipodi:insensitive="true">
    <path
       style="opacity:1;fill:none;fill-opacity:1;fill-rule:nonzero;stroke:none;stroke-width:0.82500005;stroke-linecap:butt;stroke-linejoin:round;stroke-miterlimit:4;stroke-dasharray:none;stroke-opacity:1;paint-order:stroke fill markers"
       d="m 0,296.29999 h 36 v 36 H 0 Z"
       id="rect3297"
       inkscape:connector-curvature="0" />
  </g>
  <g
     inkscape:groupmode="layer"
     id="layer8"
     inkscape:label="panel"
     transform="translate(0,-12)"
     sodipodi:insensitive="true">
    <path
       style="color:#000000;font-style:normal;font-variant:normal;font-weight:normal;font-stretch:normal;font-size:medium;line-height:normal;font-family:sans-serif;font-variant-ligatures:normal;font-variant-position:normal;font-variant-caps:normal;font-variant-numeric:normal;font-variant-alternates:normal;font-feature-settings:normal;text-indent:0;text-align:start;text-decoration:none;text-decoration-line:none;text-decoration-style:solid;text-decoration-color:#000000;letter-spacing:normal;word-spacing:normal;text-transform:none;writing-mode:lr-tb;direction:ltr;text-orientation:mixed;dominant-baseline:auto;baseline-shift:baseline;text-anchor:start;white-space:normal;shape-padding:0;clip-rule:nonzero;display:inline;overflow:visible;visibility:visible;opacity:1;isolation:auto;mix-blend-mode:normal;color-interpolation:sRGB;color-interpolation-filters:linearRGB;solid-color:#000000;solid-opacity:1;vector-effect:none;fill:#999999;fill-opacity:1;fill-rule:evenodd;stroke:none;stroke-width:1.55435371;stroke-linecap:round;stroke-linejoin:round;stroke-miterlimit:4;stroke-dasharray:none;stroke-dashoffset:0;stroke-opacity:1;color-rendering:auto;image-rendering:auto;shape-rendering:auto;text-rendering:auto;enable-background:accumulate"
       d="m 2.7830056,19.005159 a 0.7775967,0.77691266 0 0 0 -0.7772889,0.776605 v 25.427978 a 0.7775967,0.77691266 0 0 0 0.7772889,0.776605 H 28.233373 A 0.7775967,0.77691266 0 0 0 29.01066,45.209742 V 19.781764 a 0.7775967,0.77691266 0 0 0 -0.777287,-0.776605 z"
       id="path869"
       inkscape:connector-curvature="0" />
    <path
       style="color:#000000;font-style:normal;font-variant:normal;font-weight:normal;font-stretch:normal;font-size:medium;line-height:normal;font-family:sans-serif;font-variant-ligatures:normal;font-variant-position:normal;font-variant-caps:normal;font-variant-numeric:normal;font-variant-alternates:normal;font-feature-settings:normal;text-indent:0;text-align:start;text-decoration:none;text-decoration-line:none;text-decoration-style:solid;text-decoration-color:#000000;letter-spacing:normal;word-spacing:normal;text-transform:none;writing-mode:lr-tb;direction:ltr;text-orientation:mixed;dominant-baseline:auto;baseline-shift:baseline;text-anchor:start;white-space:normal;shape-padding:0;clip-rule:nonzero;display:inline;overflow:visible;visibility:visible;opacity:1;isolation:auto;mix-blend-mode:normal;color-interpolation:sRGB;color-interpolation-filters:linearRGB;solid-color:#000000;solid-opacity:1;vector-effect:none;fill:url(#linearGradient943);fill-opacity:1;fill-rule:evenodd;stroke:none;stroke-width:1.62516475;stroke-linecap:round;stroke-linejoin:round;stroke-miterlimit:4;stroke-dasharray:none;stroke-dashoffset:0;stroke-opacity:1;color-rendering:auto;image-rendering:auto;shape-rendering:auto;text-rendering:auto;enable-background:accumulate"
       d="M 3.0219729,20.021973 H 27.971937 V 45.015786 H 3.0219729 Z"
       id="path826"
       inkscape:connector-curvature="0" />
    <path
       id="path830"
       d="M 6.5549662,17.325153 H 15.5549 c 0.839994,0 1.559988,0.72 1.559988,1.56 v 1.440002 c 0,0.84 -0.719994,1.560001 -1.559988,1.560001 H 6.5549662 c -0.719994,0 -1.4399877,-0.720001 -1.4399877,-1.560001 v -1.440002 c 0,-0.84 0.7199937,-1.56 1.4399877,-1.56 z"
       style="fill:none;stroke:none;stroke-width:1.5"
       inkscape:connector-curvature="0" />
  </g>
  <g
     inkscape:groupmode="layer"
     id="layer5"
     inkscape:label="spy_circle"
     style="display:inline"
     transform="translate(0,-12)">
    <path
       style="color:#000000;font-style:normal;font-variant:normal;font-weight:normal;font-stretch:normal;font-size:medium;line-height:normal;font-family:sans-serif;font-variant-ligatures:normal;font-variant-position:normal;font-variant-caps:normal;font-variant-numeric:normal;font-variant-alternates:normal;font-feature-settings:normal;text-indent:0;text-align:start;text-decoration:none;text-decoration-line:none;text-decoration-style:solid;text-decoration-color:#000000;letter-spacing:normal;word-spacing:normal;text-transform:none;writing-mode:lr-tb;direction:ltr;text-orientation:mixed;dominant-baseline:auto;baseline-shift:baseline;text-anchor:start;white-space:normal;shape-padding:0;clip-rule:nonzero;display:inline;overflow:visible;visibility:visible;opacity:1;isolation:auto;mix-blend-mode:normal;color-interpolation:sRGB;color-interpolation-filters:linearRGB;solid-color:#000000;solid-opacity:1;vector-effect:none;fill:#222222;fill-opacity:1;fill-rule:evenodd;stroke:none;stroke-width:0.84667742;stroke-linecap:round;stroke-linejoin:round;stroke-miterlimit:4;stroke-dasharray:none;stroke-dashoffset:0;stroke-opacity:1;paint-order:normal;color-rendering:auto;image-rendering:auto;shape-rendering:auto;text-rendering:auto;enable-background:accumulate"
       d="m 23.977793,22.937908 c -6.079315,1e-6 -11.015899,4.936615 -11.015899,11.015896 0,6.079282 4.936584,11.016722 11.015899,11.016722 6.07933,10e-7 11.016715,-4.937438 11.016715,-11.016722 0,-6.079281 -4.937385,-11.015896 -11.016715,-11.015896 z"
       id="path933"
       inkscape:connector-curvature="0" />
    <path
       style="color:#000000;font-style:normal;font-variant:normal;font-weight:normal;font-stretch:normal;font-size:medium;line-height:normal;font-family:sans-serif;font-variant-ligatures:normal;font-variant-position:normal;font-variant-caps:normal;font-variant-numeric:normal;font-variant-alternates:normal;font-feature-settings:normal;text-indent:0;text-align:start;text-decoration:none;text-decoration-line:none;text-decoration-style:solid;text-decoration-color:#000000;letter-spacing:normal;word-spacing:normal;text-transform:none;writing-mode:lr-tb;direction:ltr;text-orientation:mixed;dominant-baseline:auto;baseline-shift:baseline;text-anchor:start;white-space:normal;shape-padding:0;clip-rule:nonzero;display:inline;overflow:visible;visibility:visible;opacity:1;isolation:auto;mix-blend-mode:normal;color-interpolation:sRGB;color-interpolation-filters:linearRGB;solid-color:#000000;solid-opacity:1;vector-effect:none;fill:#ffffff;fill-opacity:1;fill-rule:evenodd;stroke:none;stroke-width:0.8158921;stroke-linecap:round;stroke-linejoin:round;stroke-miterlimit:4;stroke-dasharray:none;stroke-dashoffset:0;stroke-opacity:1;paint-order:normal;color-rendering:auto;image-rendering:auto;shape-rendering:auto;text-rendering:auto;enable-background:accumulate"
       d="m 23.977793,24.154346 c 5.417299,0 9.8003,4.382165 9.8003,9.799474 0,5.417308 -4.383001,9.800273 -9.8003,9.800273 -5.417283,0 -9.799485,-4.382968 -9.799485,-9.800273 0,-5.417309 4.382202,-9.799474 9.799485,-9.799474 z"
       id="path926"
       inkscape:connector-curvature="0" />
  </g>
  <g
     inkscape:groupmode="layer"
     id="layer2"
     inkscape:label="spy"
     style="display:inline;opacity:1"
     transform="translate(0,-12)">
    <path
       style="fill:#000000;fill-opacity:1;fill-rule:evenodd;stroke:none;stroke-width:0.03276236"
       d="m 21.239065,26.908905 c -0.762944,0 -1.21168,0.678784 -1.572083,1.214776 l -0.343659,0.583569 c -0.204405,0.336699 -0.434161,0.877749 -0.598847,1.259013 -0.04441,0.10246 -0.08026,0.203154 -0.118286,0.301993 a 7.2983993,3.2976605 0 0 0 5.429929,1.103337 7.2983993,3.2976605 0 0 0 5.321874,-1.048899 c -0.257883,-0.643559 -0.581865,-1.3576 -0.726474,-1.599282 -0.12263,-0.205483 -0.212015,-0.386361 -0.344557,-0.584419 -0.354182,-0.529809 -0.817262,-1.230088 -1.581391,-1.230088 -0.663852,0 -0.916656,0.215498 -1.45044,0.486592 l -0.565684,0.283281 C 23.556278,28.178875 23.08171,27.50153 22.130591,27.105414 21.710726,26.930871 21.663854,26.908905 21.239065,26.908905 Z m -2.980771,4.375073 c -0.0082,0.02729 -0.01706,0.06239 -0.01845,0.08166 -0.16346,0 -0.803113,0.160921 -0.987663,0.206716 -0.741806,0.184445 -2.885279,0.737121 -2.133536,1.744753 0.356721,0.479056 1.783681,0.847068 2.37945,0.991895 0.125038,0.03098 0.350011,0.09643 0.47629,0.106338 0,0.633792 -0.0855,0.74532 0.08174,1.563556 0.04834,0.241389 0.236451,0.903423 0.236451,0.903423 1.117543,3.190217 3.984428,3.91079 4.393794,3.980352 1.442015,0.245035 2.143424,0.134912 3.05568,-0.124201 0.912232,-0.259107 3.061951,-1.271857 3.910548,-3.856151 0.475261,-1.447196 0.318169,-2.466979 0.318169,-2.466979 l 0.905153,-0.207569 c 0.542422,-0.160919 2.119902,-0.569663 2.119902,-1.277728 0,-0.757575 -1.635921,-1.19081 -2.282408,-1.351734 -0.197739,-0.04943 -0.827766,-0.212004 -1.00634,-0.212673 a 7.2983993,3.2976605 0 0 1 -5.656207,1.216478 7.2983993,3.2976605 0 0 1 -5.792318,-1.298137 z m 2.269598,3.632418 c 0.720848,-0.0085 1.576606,0.06942 1.93189,0.108884 0.748061,0.08293 0.933084,0.213519 1.672474,0.213519 0.246428,0 1.598258,-0.318155 2.785975,-0.318155 l 0.928985,0.02467 c 0.323207,0.0024 0.421662,0.03327 0.609886,0.160783 0,0.58056 -0.178313,0.373511 -0.336899,0.775822 l -0.314732,0.826014 c -0.07928,0.190633 -0.299709,0.579426 -0.434675,0.679695 -0.05087,0.03713 -0.107526,0.06835 -0.160783,0.105486 -0.513977,0.368884 -1.480136,0.368248 -2.012719,0.04763 -0.08551,-0.05197 -0.09464,-0.05635 -0.172687,-0.118244 -0.296018,-0.241384 -0.370127,-0.468241 -0.511259,-0.89407 -0.0569,-0.170827 -0.08557,-0.248727 -0.159925,-0.397267 -0.07193,-0.144832 -0.149165,-0.230536 -0.354721,-0.230536 -0.221698,0 -0.315907,0.02045 -0.423637,0.213521 -0.16476,0.29461 -0.228099,0.820304 -0.512982,1.159479 -0.32697,0.389933 -1.003682,0.579674 -1.672473,0.467027 -0.682378,-0.11636 -0.917253,-0.324377 -1.247955,-0.981687 -0.136182,-0.268623 -0.204666,-0.523828 -0.306232,-0.807301 -0.18206,-0.507528 -0.258634,-0.202869 -0.31554,-0.533375 -0.04507,-0.256239 -0.04654,-0.191645 -0.0082,-0.364948 0.197826,-0.09516 0.581506,-0.131836 1.01401,-0.136956 z"
       id="path855"
       inkscape:connector-curvature="0" />
  </g>
  <g
     inkscape:groupmode="layer"
     id="layer10"
     inkscape:label="text"
     style="display:inline"
     transform="translate(0,-12)"
     sodipodi:insensitive="true">
    <flowRoot
       xml:space="preserve"
       id="flowRoot914-8"
       style="font-style:normal;font-variant:normal;font-weight:normal;font-stretch:normal;font-size:12px;line-height:1.25;font-family:'Arial Unicode MS';-inkscape-font-specification:'Arial Unicode MS';letter-spacing:0px;word-spacing:0px;clip-rule:evenodd;fill:#c500ab;fill-opacity:1;fill-rule:evenodd;stroke:#ffffff;stroke-width:2.96764684;stroke-linecap:round;stroke-linejoin:round;stroke-miterlimit:4;stroke-dasharray:none;stroke-opacity:1;paint-order:markers stroke fill;image-rendering:optimizeQuality;shape-rendering:geometricPrecision;text-rendering:geometricPrecision"
       transform="matrix(0.69531428,0,0,0.82672154,-1.4999422,11.646973)"><flowRegion
         id="flowRegion916-5"
         style="fill:#c500ab;fill-opacity:1;stroke:#ffffff;stroke-width:2.96764684;stroke-linecap:round;stroke-linejoin:round;stroke-miterlimit:4;stroke-dasharray:none;stroke-opacity:1;paint-order:markers stroke fill"><rect
           id="rect918-0"
           width="38.14209"
           height="34.674625"
           x="3.4674628"
           y="-1.8781176"
           style="fill:#c500ab;fill-opacity:1;stroke:#ffffff;stroke-width:2.96764684;stroke-linecap:round;stroke-linejoin:round;stroke-miterlimit:4;stroke-dasharray:none;stroke-opacity:1;paint-order:markers stroke fill" /></flowRegion><flowPara
         id="flowPara920-2"
         style="font-style:normal;font-variant:normal;font-weight:bold;font-stretch:normal;font-size:21.33333397px;font-family:Arial;-inkscape-font-specification:'Arial Bold';stroke:#ffffff;stroke-width:2.96764684;stroke-linecap:round;stroke-linejoin:round;stroke-miterlimit:4;stroke-dasharray:none;stroke-opacity:1;paint-order:markers stroke fill">Rx</flowPara></flowRoot>  </g>
</svg>
