<?xml version="1.0" encoding="UTF-8" standalone="no"?>
<!-- Created with Inkscape (http://www.inkscape.org/) -->

<svg
   xmlns:dc="http://purl.org/dc/elements/1.1/"
   xmlns:cc="http://creativecommons.org/ns#"
   xmlns:rdf="http://www.w3.org/1999/02/22-rdf-syntax-ns#"
   xmlns:svg="http://www.w3.org/2000/svg"
   xmlns="http://www.w3.org/2000/svg"
   xmlns:xlink="http://www.w3.org/1999/xlink"
   xmlns:sodipodi="http://sodipodi.sourceforge.net/DTD/sodipodi-0.dtd"
   xmlns:inkscape="http://www.inkscape.org/namespaces/inkscape"
   width="36"
   height="36"
   viewBox="0 0 36 36"
   version="1.1"
   id="svg862"
   inkscape:version="0.92.3 (2405546, 2018-03-11)"
   sodipodi:docname="TRxSortSqlDB_150.svg"
   inkscape:export-filename="TRxSortSqlDB_150.png"
   inkscape:export-xdpi="96"
   inkscape:export-ydpi="96">
  <sodipodi:namedview
     id="base"
     pagecolor="#ffffff"
     bordercolor="#666666"
     borderopacity="1.0"
     inkscape:pageopacity="0.0"
     inkscape:pageshadow="2"
     inkscape:zoom="22.805556"
     inkscape:cx="17.276492"
     inkscape:cy="18"
     inkscape:document-units="px"
     inkscape:current-layer="layer7"
     showgrid="true"
     units="px"
     inkscape:window-width="1920"
     inkscape:window-height="1018"
     inkscape:window-x="-8"
     inkscape:window-y="-8"
     inkscape:window-maximized="1"
     inkscape:snap-bbox="true"
     inkscape:bbox-nodes="true"
     inkscape:snap-global="false"
     inkscape:snap-bbox-midpoints="false"
     inkscape:snap-object-midpoints="false"
     inkscape:snap-nodes="false">
    <inkscape:grid
       id="grid1407"
       type="xygrid" />
  </sodipodi:namedview>
  <defs
     id="defs856">
    <inkscape:path-effect
       effect="simplify"
       id="path-effect1396"
       is_visible="true"
       steps="1"
       threshold="0.5"
       smooth_angles="360"
       helper_size="0"
       simplify_individual_paths="false"
       simplify_just_coalesce="false"
       simplifyindividualpaths="false"
       simplifyJustCoalesce="false" />
    <inkscape:path-effect
       effect="simplify"
       id="path-effect1392"
       is_visible="true"
       steps="1"
       threshold="0.5"
       smooth_angles="360"
       helper_size="0"
       simplify_individual_paths="false"
       simplify_just_coalesce="false"
       simplifyindividualpaths="false"
       simplifyJustCoalesce="false" />
    <inkscape:path-effect
       effect="simplify"
       id="path-effect1290"
       is_visible="true"
       steps="1"
       threshold="0.5"
       smooth_angles="360"
       helper_size="0"
       simplify_individual_paths="false"
       simplify_just_coalesce="false"
       simplifyindividualpaths="false"
       simplifyJustCoalesce="false" />
    <inkscape:path-effect
       effect="simplify"
       id="path-effect1263"
       is_visible="true"
       steps="1"
       threshold="0.5"
       smooth_angles="360"
       helper_size="0"
       simplify_individual_paths="false"
       simplify_just_coalesce="false"
       simplifyindividualpaths="false"
       simplifyJustCoalesce="false" />
    <inkscape:path-effect
       effect="simplify"
       id="path-effect1257"
       is_visible="true"
       steps="1"
       threshold="0.5"
       smooth_angles="360"
       helper_size="0"
       simplify_individual_paths="false"
       simplify_just_coalesce="false"
       simplifyindividualpaths="false"
       simplifyJustCoalesce="false" />
    <inkscape:path-effect
       effect="simplify"
       id="path-effect1232"
       is_visible="true"
       steps="1"
       threshold="0.5"
       smooth_angles="360"
       helper_size="0"
       simplify_individual_paths="false"
       simplify_just_coalesce="false"
       simplifyindividualpaths="false"
       simplifyJustCoalesce="false" />
    <inkscape:path-effect
       effect="simplify"
       id="path-effect1228"
       is_visible="true"
       steps="1"
       threshold="0.5"
       smooth_angles="360"
       helper_size="0"
       simplify_individual_paths="false"
       simplify_just_coalesce="false"
       simplifyindividualpaths="false"
       simplifyJustCoalesce="false" />
    <inkscape:path-effect
       effect="simplify"
       id="path-effect1224"
       is_visible="true"
       steps="1"
       threshold="0.5"
       smooth_angles="360"
       helper_size="0"
       simplify_individual_paths="false"
       simplify_just_coalesce="false"
       simplifyindividualpaths="false"
       simplifyJustCoalesce="false" />
    <inkscape:path-effect
       effect="powerstroke"
       id="path-effect1220"
       is_visible="true"
       offset_points="1,0.5"
       sort_points="true"
       interpolator_type="CubicBezierJohan"
       interpolator_beta="0.2"
       start_linecap_type="zerowidth"
       linejoin_type="extrp_arc"
       miter_limit="4"
       end_linecap_type="zerowidth" />
    <inkscape:path-effect
       effect="simplify"
       id="path-effect1218"
       is_visible="true"
       steps="1"
       threshold="0.5"
       smooth_angles="360"
       helper_size="0"
       simplify_individual_paths="false"
       simplify_just_coalesce="false"
       simplifyindividualpaths="false"
       simplifyJustCoalesce="false" />
    <linearGradient
       id="linearGradient923"
       inkscape:collect="always">
      <stop
         id="stop919"
         offset="0"
         style="stop-color:#b3b3b3" />
      <stop
         style="stop-color:#e6e6e6"
         offset="0.12078682"
         id="stop929" />
      <stop
         id="stop931"
         offset="0.47874999"
         style="stop-color:#ffffff" />
      <stop
         style="stop-color:#e6e6e6"
         offset="0.88"
         id="stop927" />
      <stop
         id="stop921"
         offset="1"
         style="stop-color:#b3b3b3" />
    </linearGradient>
    <linearGradient
       gradientTransform="matrix(0.71428571,0,0,0.79999998,0,4.1999999)"
       gradientUnits="userSpaceOnUse"
       y2="41"
       x2="20"
       y1="16"
       x1="20"
       id="linearGradient925"
       xlink:href="#linearGradient923"
       inkscape:collect="always" />
    <linearGradient
       gradientUnits="userSpaceOnUse"
       y2="37"
       x2="46"
       y1="12"
       x1="46"
       id="linearGradient949"
       xlink:href="#linearGradient923"
       inkscape:collect="always"
       gradientTransform="matrix(0.99999998,0,0,0.8,-12,7.4000001)" />
    <filter
       inkscape:collect="always"
       style="color-interpolation-filters:sRGB"
       id="filter922"
       x="-0.10421053"
       width="1.2084211"
       y="-0.14142857"
       height="1.2828571">
      <feGaussianBlur
         inkscape:collect="always"
         stdDeviation="0.66"
         id="feGaussianBlur924" />
    </filter>
  </defs>
  <metadata
     id="metadata859">
    <rdf:RDF>
      <cc:Work
         rdf:about="">
        <dc:format>image/svg+xml</dc:format>
        <dc:type
           rdf:resource="http://purl.org/dc/dcmitype/StillImage" />
        <dc:title />
      </cc:Work>
    </rdf:RDF>
  </metadata>
  <g
     transform="translate(0,-296.29999)"
     id="layer1"
     inkscape:groupmode="layer"
     inkscape:label="base"
     sodipodi:insensitive="true"
     style="display:none">
    <path
       inkscape:connector-curvature="0"
       id="rect1409"
       d="m 0,296.29999 h 36 v 36 H 0 Z"
       style="fill:#f4e3d7;fill-opacity:0.93922652;stroke-width:2.1828208" />
  </g>
  <g
     inkscape:label="title"
     id="layer3"
     inkscape:groupmode="layer"
     transform="translate(0,-12)"
     sodipodi:insensitive="true"
     style="display:none">
    <path
       inkscape:connector-curvature="0"
       id="path884"
       d="M 0,16 V 16.523809 38 H 36 V 16 Z"
       style="color:#000000;fill:#808080;stroke-width:0.87731367" />
    <path
       inkscape:connector-curvature="0"
       id="rect836"
       d="M 0,17 H 30 V 37 H 0 Z"
       style="color:#000000;fill:url(#linearGradient925);stroke-width:0.81969041" />
    <path
       inkscape:connector-curvature="0"
       id="rect836-8"
       d="m 33,17 h 3 v 20 h -3 z"
       style="color:#000000;fill:url(#linearGradient949);stroke-width:0.25920889" />
    <path
       inkscape:connector-curvature="0"
       id="rect901"
       d="m 30,17 h 1 v 20 h -1 z"
       style="fill:#4d4d4d;fill-opacity:0.93922652;stroke-width:1.49071205" />
    <path
       inkscape:connector-curvature="0"
       id="rect901-0"
       d="m 32,17 h 1 v 20 h -1 z"
       style="fill:#ffffff;fill-opacity:0.93922652;stroke-width:1.49071193" />
  </g>
  <g
     inkscape:groupmode="layer"
     id="layer5"
     inkscape:label="table">
    <path
       style="color:#000000;fill:#666666;stroke-width:1.17141891;stroke-linejoin:round;stroke-miterlimit:1"
       d="M 2.7222223,11.999999 A 0.72229444,0.4750475 0 0 0 2,12.475 v 18.05 A 0.72229444,0.4750475 0 0 0 2.7222223,31 H 27.277777 A 0.72229444,0.4750475 0 0 0 28,30.525 v -18.05 a 0.72229444,0.4750475 0 0 0 -0.722223,-0.475001 z"
       id="path964"
       inkscape:connector-curvature="0" />
    <path
       id="path872"
       d="m 9,13 h 1 V 30 H 9 Z"
       style="fill:#000000;stroke-width:1.0520395"
       inkscape:connector-curvature="0" />
    <path
       id="path900-8"
       d="m 20,16 h 7 v 13.999985 h -7 z"
       style="fill:#f2f2f2;stroke-width:2.47489071"
       inkscape:connector-curvature="0" />
    <path
       id="path874"
       d="m 19,13.040125 h 1.039992 V 30 H 19 Z"
       style="fill:#000000"
       inkscape:connector-curvature="0" />
    <path
       id="path876"
       d="M 27,14.960007 V 16 H 3 v -1.039993 z"
       style="fill:#000000;stroke-width:0.90909427"
       inkscape:connector-curvature="0" />
    <path
       id="path878-0"
       d="m 26,17 v 1 h -5 v -1 z"
       style="fill:#000000;stroke-width:0.93170178"
       inkscape:connector-curvature="0" />
    <path
       id="path880"
       d="m 26,19 v 1 h -5 v -1 z"
       style="fill:#000000;stroke-width:0.93170178"
       inkscape:connector-curvature="0" />
    <path
       id="path882"
       d="m 25,24 v 1 h -4 v -1 z"
       style="fill:#000000;stroke-width:0.83333945"
       inkscape:connector-curvature="0" />
    <path
       id="path884-9"
       d="m 10,16 h 9 v 14 h -9 z"
       style="fill:#d5f6ff;stroke-width:0.93542129"
       inkscape:connector-curvature="0" />
    <path
       id="path886"
       d="m 18,17 v 1 h -7 v -1 z"
       style="fill:#000000;stroke-width:0.85391885"
       inkscape:connector-curvature="0" />
    <path
       id="path888"
       d="m 17,19 v 1 h -6 v -1 z"
       style="fill:#000000;stroke-width:1.02062821"
       inkscape:connector-curvature="0" />
    <path
       id="path890-5"
       d="M 3,16 H 9 V 30 H 3 Z"
       style="fill:#ffeeaa;stroke-width:1.043401"
       inkscape:connector-curvature="0" />
    <path
       id="path892"
       d="m 8,17 v 1 H 4 v -1 z"
       style="fill:#000000;stroke-width:0.91655123"
       inkscape:connector-curvature="0" />
    <path
       id="path894-4"
       d="m 8,19 v 1 H 4 v -1 z"
       style="fill:#000000;stroke-width:0.91655123"
       inkscape:connector-curvature="0" />
    <path
       id="path896"
       d="m 3,13.000015 h 7.039948 V 15 H 3 Z"
       style="fill:#aa8800"
       inkscape:connector-curvature="0" />
    <path
       id="path898"
       d="m 10,13 h 9 v 1.999985 h -9 z"
       style="fill:#216778;stroke-width:0.86602861"
       inkscape:connector-curvature="0" />
    <path
       id="path900"
       d="m 20,13.000015 h 7 V 15 h -7 z"
       style="fill:#e6e6e6;stroke-width:0.93541777"
       inkscape:connector-curvature="0" />
    <path
       id="path902"
       d="m 17,21 v 1 h -6 v -1 z"
       style="fill:#000000;stroke-width:1.02062821"
       inkscape:connector-curvature="0" />
    <path
       id="path904"
       d="m 8,21 v 1 H 4 v -1 z"
       style="fill:#000000;stroke-width:1.02062821"
       inkscape:connector-curvature="0" />
  </g>
  <g
     inkscape:groupmode="layer"
     id="layer6"
     inkscape:label="dbdriver_base"
     transform="translate(0,-12)"
     sodipodi:insensitive="true">
    <path
       style="color:#000000;fill:#0060b0;stroke-width:0.73984331;stroke-linejoin:round"
       d="M 3.263158,34 C 2.5706516,34 2,34.440469 2,34.975 v 11.05 C 2,46.559531 2.5706516,47 3.263158,47 H 32.736841 C 33.429347,47 34,46.559531 34,46.025 V 34.975 C 34,34.440469 33.429347,34 32.736841,34 Z"
       id="path1142"
       inkscape:connector-curvature="0" />
  </g>
  <g
     inkscape:groupmode="layer"
     id="layer4"
     inkscape:label="dbdriver_name">
    <g
       aria-label="S"
       transform="matrix(0.99182133,0,0,1.0745619,1.5174531,1.78e-6)"
       style="font-size:11.3146677px;font-family:Arial;-inkscape-font-specification:Arial;letter-spacing:0px;word-spacing:0px;fill:#ffffff;stroke-width:0.60614294"
       id="text869">
      <path
         d="m 2.1491239,27.039306 1.0110274,-0.0884 q 0.071822,0.607721 0.3314844,0.999978 0.2651876,0.386732 0.8176616,0.62982 0.552474,0.237564 1.2430665,0.237564 0.6132461,0 1.082849,-0.182316 0.4696029,-0.182317 0.6961173,-0.497227 0.2320391,-0.320435 0.2320391,-0.696117 0,-0.381207 -0.2209896,-0.662969 Q 7.12139,26.492357 6.6131139,26.298991 6.2871542,26.171922 5.1711567,25.906734 4.0551592,25.636022 3.6076553,25.398458 3.0275576,25.094597 2.7402711,24.647093 2.4585093,24.194065 2.4585093,23.636066 q 0,-0.613246 0.3480587,-1.143621 0.3480586,-0.5359 1.0165521,-0.812137 0.6684936,-0.276237 1.4861551,-0.276237 0.9005327,0 1.5856004,0.292811 0.6905925,0.287287 1.0607501,0.85081 0.3701576,0.563524 0.3977813,1.276215 l -1.0276016,0.07735 Q 7.2429343,23.133315 6.7622819,22.741058 6.2871542,22.348802 5.3534731,22.348802 q -0.9723542,0 -1.4198582,0.359108 -0.4419792,0.353583 -0.4419792,0.856334 0,0.436455 0.3149102,0.718217 0.3093855,0.281761 1.6132241,0.580097 1.3093634,0.292812 1.7955406,0.513801 0.7071667,0.32596 1.0441758,0.828711 0.3370092,0.497227 0.3370092,1.149146 0,0.646395 -0.3701576,1.220968 -0.3701576,0.569048 -1.0662748,0.889483 -0.6905926,0.31491 -1.5579768,0.31491 -1.0994232,0 -1.8452631,-0.320435 Q 3.0165081,29.138707 2.5911031,28.497837 2.1712229,27.851443 2.1491239,27.039306 Z"
         id="path893"
         inkscape:connector-curvature="0" />
    </g>
    <g
       aria-label="q"
       transform="matrix(1.0071079,0,0,0.99294226,1.9997917,1.78e-6)"
       style="font-size:11.05187893px;font-family:Arial;-inkscape-font-specification:Arial;letter-spacing:0px;word-spacing:0px;fill:#ffffff;stroke-width:0.59206498"
       id="text873">
      <path
         d="m 12.929835,34.241667 v -2.806141 q -0.22665,0.318389 -0.636778,0.52885 -0.404732,0.210461 -0.863429,0.210461 -1.019924,0 -1.7592342,-0.814861 -0.7339138,-0.81486 -0.7339138,-2.23412 0,-0.863428 0.2968034,-1.548774 0.3021998,-0.685346 0.8688246,-1.036113 0.572021,-0.356164 1.251971,-0.356164 1.063095,0 1.672891,0.895806 v -0.766292 h 0.874221 v 7.927348 z M 9.9348187,29.163631 q 0,1.106268 0.4640923,1.662099 0.464093,0.550436 1.111664,0.550436 0.620589,0 1.068492,-0.523454 0.447903,-0.528849 0.447903,-1.602738 0,-1.144042 -0.474885,-1.72146 -0.469489,-0.577417 -1.106267,-0.577417 -0.631382,0 -1.073889,0.539643 -0.4371103,0.534246 -0.4371103,1.672891 z"
         id="path890"
         inkscape:connector-curvature="0" />
    </g>
    <g
       aria-label="l "
       transform="matrix(0.95868511,0,0,0.94168298,3.4581299,1.88e-6)"
       style="font-size:11.86810112px;font-family:Arial;-inkscape-font-specification:Arial;letter-spacing:0px;word-spacing:0px;fill:#ffffff;stroke-width:0.63579118"
       id="text877">
      <path
         d="m 14.125245,33.981712 v -8.495428 h 1.043095 v 8.495428 z"
         id="path887"
         inkscape:connector-curvature="0" />
    </g>
    <g
       aria-label="D"
       transform="matrix(1.0287733,0,0,1.0935354,1,-4.0000002)"
       style="font-size:11.49755955px;font-family:Arial;-inkscape-font-specification:Arial;letter-spacing:0px;word-spacing:0px;fill:#ffffff;stroke-width:0.61594069"
       id="text881">
      <path
         style="stroke-width:0.65330374"
         d="m 19,23 v 9 h 3.054688 c 0.5121,0 0.964682,-0.05198 1.357421,-0.154297 0.39659,-0.102319 0.734491,-0.250812 1.011719,-0.447265 0.281078,-0.200546 0.538564,-0.472613 0.773438,-0.816407 0.234873,-0.347885 0.42796,-0.784533 0.578125,-1.3125 C 25.925556,28.741563 26,28.134665 26,27.451172 26,26.648989 25.887386,25.936555 25.664062,25.314453 25.444591,24.688259 25.11266,24.174529 24.666016,23.773438 24.323331,23.462386 23.908976,23.247597 23.423828,23.128906 23.077293,23.042958 22.574431,23 21.916016,23 Z m 1,1 h 1.882812 c 0.704973,0 1.215354,0.06249 1.533204,0.1875 0.440098,0.175001 0.813517,0.522397 1.11914,1.039062 C 24.844855,25.739063 25,26.473306 25,27.431641 c 0,0.691665 -0.07936,1.280079 -0.238281,1.767578 -0.15485,0.483334 -0.373123,0.868749 -0.654297,1.15625 -0.199674,0.204166 -0.468417,0.364064 -0.806641,0.476562 C 22.966633,30.944533 22.504934,31 21.914062,31 H 20 Z"
         transform="matrix(0.97203145,0,0,0.91446514,-0.97203145,3.6578607)"
         id="path883"
         inkscape:connector-curvature="0" />
    </g>
    <g
       aria-label="B"
       transform="scale(0.9396098,1.0642716)"
       style="font-size:11.81370258px;font-family:Arial;-inkscape-font-specification:Arial;letter-spacing:0px;word-spacing:0px;fill:#ffffff;stroke-width:0.63287693"
       id="text879">
      <path
         d="m 27,23 v 9 h 3.029297 c 0.505871,0 0.932413,-0.04826 1.279297,-0.146484 0.350497,-0.10232 0.641791,-0.252767 0.873047,-0.449219 0.231255,-0.196453 0.424703,-0.47382 0.580078,-0.833985 C 32.920707,30.206056 33,29.812181 33,29.390625 c 0,-0.523874 -0.130463,-0.978561 -0.390625,-1.363281 -0.256549,-0.38472 -0.62489,-0.656788 -1.105469,-0.816406 0.372177,-0.208733 0.649703,-0.482566 0.833985,-0.822266 0.184282,-0.3397 0.277343,-0.701218 0.277343,-1.085938 0,-0.41337 -0.104877,-0.809012 -0.314453,-1.185546 C 32.094819,23.736559 31.808017,23.455472 31.439453,23.275391 31.074503,23.091216 30.587515,23 29.980469,23 Z m 1,1 h 1.472656 c 0.52965,0 0.903199,0.04777 1.121094,0.142578 0.217893,0.09029 0.386579,0.260849 0.503906,0.513672 0.117328,0.248307 0.175782,0.537615 0.175782,0.867188 0,0.34763 -0.06402,0.636939 -0.191407,0.867187 C 30.958,26.620873 30.771502,26.785443 30.523438,26.884766 30.335713,26.961513 30.026185,27 29.59375,27 H 28 Z m 0,4 h 1.904297 c 0.524344,0 0.925971,0.04923 1.203125,0.148438 0.280898,0.09524 0.498946,0.263795 0.65625,0.505859 C 31.920975,28.892392 32,29.174604 32,29.5 c 0,0.277778 -0.0535,0.523996 -0.162109,0.738281 -0.108615,0.210317 -0.247477,0.371311 -0.416016,0.482422 -0.16854,0.111109 -0.37797,0.190659 -0.628906,0.238281 C 30.650646,30.986762 30.402841,31 30.050781,31 H 28 Z"
         transform="scale(1.0642716,0.93960978)"
         id="path894"
         inkscape:connector-curvature="0" />
    </g>
  </g>
  <g
     inkscape:groupmode="layer"
     id="layer7"
     inkscape:label="arrow_matte">
    <path
       style="fill:#ffffff;stroke-width:0.59761423;stroke-miterlimit:1"
       d="m 23,12 h 5 v 5 h -5 z"
       id="rect991"
       inkscape:connector-curvature="0" />
  </g>
  <g
     inkscape:groupmode="layer"
     id="layer8"
     inkscape:label="arrow">
    <g
       id="g1056">
      <path
         inkscape:connector-curvature="0"
         id="path1061"
         d="m 30.997656,2.000007 a 0.40007622,0.50004945 0 0 0 -0.332843,0.2275386 l -2.600236,4.9999946 a 0.40007622,0.50004945 0 0 0 0.335188,0.77246 h 0.08751 5.112962 a 0.40007622,0.50004945 0 0 0 0.335186,-0.77246 L 31.335186,2.2275456 A 0.40007622,0.50004945 0 0 0 30.997656,2.000007 Z"
         style="color:#000000;fill:#008000;stroke-width:0.89446723;stroke-linejoin:round" />
      <path
         inkscape:connector-curvature="0"
         id="rect1063"
         d="M 30.666666,7.0000002 A 0.66673352,0.46158461 0 0 0 30,7.4615387 V 12.538461 A 0.66673352,0.46158461 0 0 0 30.666666,13 h 0.666667 A 0.66673352,0.46158461 0 0 0 32,12.538461 V 7.4615387 A 0.66673352,0.46158461 0 0 0 31.333333,7.0000002 Z"
         style="color:#000000;fill:#008000;stroke-width:1.10940063;stroke-linejoin:round" />
    </g>
    <g
       id="g1060"
       transform="translate(1.0000005)">
      <path
         inkscape:connector-curvature="0"
         id="path1061-7"
         d="M 24.997656,15.999993 A 0.40007622,0.50004945 0 0 1 24.664813,15.772455 L 22.064577,10.77246 A 0.40007622,0.50004945 0 0 1 22.399765,10 h 0.08751 5.112962 a 0.40007622,0.50004945 0 0 1 0.335186,0.77246 l -2.600237,4.999995 a 0.40007622,0.50004945 0 0 1 -0.33753,0.227538 z"
         style="color:#000000;fill:#ff0000;stroke-width:0.89446723;stroke-linejoin:round" />
      <path
         inkscape:connector-curvature="0"
         id="rect1063-78"
         d="M 24.666666,11 A 0.66673352,0.46158461 0 0 1 24,10.538462 V 5.4615388 a 0.66673352,0.46158461 0 0 1 0.666666,-0.4615386 h 0.666667 A 0.66673352,0.46158461 0 0 1 26,5.4615388 V 10.538462 A 0.66673352,0.46158461 0 0 1 25.333333,11 Z"
         style="color:#000000;fill:#ff0000;stroke-width:1.10940051;stroke-linejoin:round" />
    </g>
  </g>
  <g
     inkscape:label="triangle"
     id="g1156"
     inkscape:groupmode="layer"
     transform="translate(0,-12)"
     style="display:none"
     sodipodi:insensitive="true">
    <path
       inkscape:connector-curvature="0"
       id="path1144"
       d="m 24.497264,19.000007 a 0.46675548,0.5000494 0 0 0 -0.388316,0.22754 L 21.07534,24.22754 A 0.46675548,0.5000494 0 0 0 21.466391,25 h 0.102096 5.965122 a 0.46675548,0.5000494 0 0 0 0.391051,-0.77246 l -3.033607,-4.999993 a 0.46675548,0.5000494 0 0 0 -0.393785,-0.22754 z"
       style="color:#000000;fill:#008000;stroke-width:0.96613479;stroke-linejoin:round" />
    <path
       inkscape:connector-curvature="0"
       id="path1150"
       d="M 24.497264,32.999993 A 0.46675549,0.50004948 0 0 1 24.108948,32.772455 L 21.07534,27.77246 A 0.46675549,0.50004948 0 0 1 21.466391,27 h 0.102096 5.965122 a 0.46675549,0.50004948 0 0 1 0.391051,0.77246 l -3.033607,4.999995 a 0.46675549,0.50004948 0 0 1 -0.393785,0.227538 z"
       style="color:#000000;fill:#ff0000;stroke-width:0.96613491;stroke-linejoin:round" />
  </g>
  <g
     inkscape:label="text"
     id="layer2"
     inkscape:groupmode="layer"
     transform="translate(0,-12)"
     sodipodi:insensitive="true">
    <path
       transform="matrix(1.25,0,0,1.25,-9,-31)"
       style="opacity:0.7;fill:#ffffff;fill-rule:evenodd;stroke-width:1.54574692;stroke-linecap:round;stroke-linejoin:round;filter:url(#filter922)"
       d="m 9.6,36 h 12 c 0.8864,0 1.6,0.666027 1.6,1.493333 v 8.213333 C 23.2,46.533974 22.4864,47.2 21.6,47.2 H 9.6 C 8.7136,47.2 8,46.533974 8,45.706666 V 37.493333 C 8,36.666027 8.7136,36 9.6,36 Z"
       id="rect927"
       inkscape:connector-curvature="0" />
    <path
       style="color:#000000;fill:#c500ab;fill-rule:evenodd;stroke-width:1.58827055;stroke-linecap:round;stroke-linejoin:round"
       d="M 2.865235,15 A 0.86602866,0.72835573 0 0 0 2,15.728515 v 4.542969 A 0.86602866,0.72835573 0 0 0 2.865235,21 H 6.81836 c 1.7472863,0 3.1816399,-1.206265 3.1816399,-2.675781 V 17.675781 C 9.9999999,16.206265 8.5656463,15 6.81836,15 Z M 4,17 H 6.7226563 C 7.443925,17 8,17.343367 8,17.789063 v 0.421875 C 8,18.656633 7.443925,19 6.7226563,19 H 4 Z"
       id="path866"
       inkscape:connector-curvature="0" />
    <path
       style="color:#000000;fill:#c500ab;stroke-width:1.41421366px"
       d="M 2,15 V 27 H 4 V 15 Z"
       id="path869"
       inkscape:connector-curvature="0" />
    <path
       style="color:#000000;fill:#c500ab;stroke-width:1.41421366px"
       d="m 4.9023438,20 c 1.9183312,3.509988 1.9019812,3.490013 3.8203125,7 H 11 L 7.1735263,19.999098 7.1679688,20 Z"
       id="path869-7"
       inkscape:connector-curvature="0"
       sodipodi:nodetypes="cccccc" />
    <path
       style="color:#000000;fill:#c500ab;stroke-width:1.41421342px"
       d="M 17.067184,19 11.500203,26.999474 13.929688,27 19.5,19 Z"
       id="path914"
       inkscape:connector-curvature="0"
       inkscape:transform-center-x="-4.2600094"
       inkscape:transform-center-y="-4.3500857"
       sodipodi:nodetypes="ccccc" />
    <path
       sodipodi:nodetypes="ccccc"
       inkscape:transform-center-y="-4.3500857"
       inkscape:transform-center-x="4.2600094"
       inkscape:connector-curvature="0"
       id="path922-0"
       d="M 13.933019,19 19.5,26.999474 17.070515,27 11.500203,19 Z"
       style="color:#000000;fill:#c500ab;stroke-width:1.41421342px" />
  </g>
</svg>
