<?xml version="1.0" encoding="UTF-8" standalone="no"?>
<!-- Created with Inkscape (http://www.inkscape.org/) -->

<svg
   xmlns:dc="http://purl.org/dc/elements/1.1/"
   xmlns:cc="http://creativecommons.org/ns#"
   xmlns:rdf="http://www.w3.org/1999/02/22-rdf-syntax-ns#"
   xmlns:svg="http://www.w3.org/2000/svg"
   xmlns="http://www.w3.org/2000/svg"
   xmlns:sodipodi="http://sodipodi.sourceforge.net/DTD/sodipodi-0.dtd"
   xmlns:inkscape="http://www.inkscape.org/namespaces/inkscape"
   width="24"
   height="24"
   viewBox="0 0 24 24"
   version="1.1"
   id="svg862"
   inkscape:version="0.92.3 (2405546, 2018-03-11)"
   sodipodi:docname="TRxSortSqlDB.svg"
   inkscape:export-filename="TRxSortSqlDB.png"
   inkscape:export-xdpi="96"
   inkscape:export-ydpi="96">
  <sodipodi:namedview
     id="base"
     pagecolor="#ffffff"
     bordercolor="#666666"
     borderopacity="1.0"
     inkscape:pageopacity="0.0"
     inkscape:pageshadow="2"
     inkscape:zoom="34.208333"
     inkscape:cx="11.517661"
     inkscape:cy="12"
     inkscape:document-units="px"
     inkscape:current-layer="layer5"
     showgrid="true"
     units="px"
     inkscape:window-width="1920"
     inkscape:window-height="1018"
     inkscape:window-x="-8"
     inkscape:window-y="-8"
     inkscape:window-maximized="1"
     inkscape:snap-bbox="true"
     inkscape:bbox-nodes="true"
     inkscape:snap-global="false"
     inkscape:object-paths="false">
    <inkscape:grid
       id="grid1407"
       type="xygrid" />
  </sodipodi:namedview>
  <defs
     id="defs856">
    <inkscape:path-effect
       effect="simplify"
       id="path-effect1290"
       is_visible="true"
       steps="1"
       threshold="0.5"
       smooth_angles="360"
       helper_size="0"
       simplify_individual_paths="false"
       simplify_just_coalesce="false"
       simplifyindividualpaths="false"
       simplifyJustCoalesce="false" />
    <inkscape:path-effect
       effect="simplify"
       id="path-effect1263"
       is_visible="true"
       steps="1"
       threshold="0.5"
       smooth_angles="360"
       helper_size="0"
       simplify_individual_paths="false"
       simplify_just_coalesce="false"
       simplifyindividualpaths="false"
       simplifyJustCoalesce="false" />
    <inkscape:path-effect
       effect="simplify"
       id="path-effect1257"
       is_visible="true"
       steps="1"
       threshold="0.5"
       smooth_angles="360"
       helper_size="0"
       simplify_individual_paths="false"
       simplify_just_coalesce="false"
       simplifyindividualpaths="false"
       simplifyJustCoalesce="false" />
    <inkscape:path-effect
       effect="simplify"
       id="path-effect1232"
       is_visible="true"
       steps="1"
       threshold="0.5"
       smooth_angles="360"
       helper_size="0"
       simplify_individual_paths="false"
       simplify_just_coalesce="false"
       simplifyindividualpaths="false"
       simplifyJustCoalesce="false" />
    <inkscape:path-effect
       effect="simplify"
       id="path-effect1228"
       is_visible="true"
       steps="1"
       threshold="0.5"
       smooth_angles="360"
       helper_size="0"
       simplify_individual_paths="false"
       simplify_just_coalesce="false"
       simplifyindividualpaths="false"
       simplifyJustCoalesce="false" />
    <inkscape:path-effect
       effect="simplify"
       id="path-effect1224"
       is_visible="true"
       steps="1"
       threshold="0.5"
       smooth_angles="360"
       helper_size="0"
       simplify_individual_paths="false"
       simplify_just_coalesce="false"
       simplifyindividualpaths="false"
       simplifyJustCoalesce="false" />
    <inkscape:path-effect
       effect="powerstroke"
       id="path-effect1220"
       is_visible="true"
       offset_points="1,0.5"
       sort_points="true"
       interpolator_type="CubicBezierJohan"
       interpolator_beta="0.2"
       start_linecap_type="zerowidth"
       linejoin_type="extrp_arc"
       miter_limit="4"
       end_linecap_type="zerowidth" />
    <inkscape:path-effect
       effect="simplify"
       id="path-effect1218"
       is_visible="true"
       steps="1"
       threshold="0.5"
       smooth_angles="360"
       helper_size="0"
       simplify_individual_paths="false"
       simplify_just_coalesce="false"
       simplifyindividualpaths="false"
       simplifyJustCoalesce="false" />
    <filter
       inkscape:collect="always"
       style="color-interpolation-filters:sRGB"
       id="filter906"
       x="-0.104"
       width="1.2079999"
       y="-0.14181818"
       height="1.2836365">
      <feGaussianBlur
         inkscape:collect="always"
         stdDeviation="0.52"
         id="feGaussianBlur908" />
    </filter>
    <pattern
       y="0"
       x="0"
       height="6"
       width="6"
       patternUnits="userSpaceOnUse"
       id="EMFhbasepattern" />
  </defs>
  <metadata
     id="metadata859">
    <rdf:RDF>
      <cc:Work
         rdf:about="">
        <dc:format>image/svg+xml</dc:format>
        <dc:type
           rdf:resource="http://purl.org/dc/dcmitype/StillImage" />
        <dc:title />
      </cc:Work>
    </rdf:RDF>
  </metadata>
  <g
     transform="translate(0,-308.29999)"
     id="layer1"
     inkscape:groupmode="layer"
     inkscape:label="base"
     sodipodi:insensitive="true"
     style="display:none">
    <path
       inkscape:connector-curvature="0"
       id="rect1409"
       d="m 0,308.29999 h 24 v 24 H 0 Z"
       style="fill:#f4e3d7;fill-opacity:0.93922652;stroke-width:1.45521379" />
  </g>
  <g
     inkscape:label="title"
     id="layer3"
     inkscape:groupmode="layer"
     transform="translate(0,-24)"
     sodipodi:insensitive="true"
     style="display:none">
    <path
       inkscape:connector-curvature="0"
       id="path884"
       d="M 0,27 V 27.357143 42 H 24 V 27 Z"
       style="color:#000000;fill:#808080;stroke-width:0.59148479" />
    <path
       inkscape:connector-curvature="0"
       id="rect836"
       d="M 0,28 H 21 V 41 H 0 Z"
       style="color:#000000;fill:#e6e6e6;stroke-width:0.55291134" />
    <path
       inkscape:connector-curvature="0"
       id="rect836-8"
       d="m 23,28 h 1 v 13 h -1 z"
       style="color:#000000;fill:#e6e6e6;stroke-width:0.12065516" />
    <path
       inkscape:connector-curvature="0"
       id="rect901"
       d="m 21,28 h 1 v 13 h -1 z"
       style="fill:#4d4d4d;fill-opacity:0.93922652;stroke-width:1.20185053" />
    <path
       inkscape:connector-curvature="0"
       id="rect901-0"
       d="m 22,28 h 1 v 13 h -1 z"
       style="fill:#ffffff;fill-opacity:0.93922652;stroke-width:1.20185053" />
  </g>
  <g
     inkscape:groupmode="layer"
     id="layer4"
     inkscape:label="table"
     sodipodi:insensitive="true">
    <path
       style="fill:#666666;stroke-width:2.81365728;stroke-miterlimit:1"
       d="M 1,4.9999997 H 20 V 20 H 1 Z"
       id="rect927"
       inkscape:connector-curvature="0" />
    <path
       id="path865"
       d="M 14.000001,9 H 19 v 10 h -5 z"
       style="fill:#ffffff;stroke-width:0.32804239"
       inkscape:connector-curvature="0" />
    <path
       id="path867"
       d="M 6,5.9999997 H 7 V 19 H 6 Z"
       style="fill:#000000;stroke-width:0.9199819"
       inkscape:connector-curvature="0" />
    <path
       id="path869"
       d="m 13.000001,5.9999997 h 1 V 19 h -1 z"
       style="fill:#000000;stroke-width:0.85851032"
       inkscape:connector-curvature="0" />
    <path
       id="path871"
       d="M 19,7.9999997 V 9 H 2 V 7.9999997 Z"
       style="fill:#000000;stroke-width:0.75026155"
       inkscape:connector-curvature="0" />
    <path
       id="path873"
       d="m 18,11 v 1 h -3 v -1 z"
       style="fill:#000000;stroke-width:0.72169292"
       inkscape:connector-curvature="0" />
    <path
       id="path875"
       d="m 18,13 v 1 h -3 v -1 z"
       style="fill:#000000;stroke-width:0.72169274"
       inkscape:connector-curvature="0" />
    <path
       id="path879"
       d="M 6.9952195,9 H 13.000001 V 19 H 6.9952195 Z"
       style="fill:#d5f6ff;stroke-width:0.64575911"
       inkscape:connector-curvature="0" />
    <path
       id="path881"
       d="m 12.000001,11 v 1 H 8 v -1 z"
       style="fill:#000000;stroke-width:0.64550185"
       inkscape:connector-curvature="0" />
    <path
       id="path883"
       d="m 11.000001,13 v 1 H 8 v -1 z"
       style="fill:#000000;stroke-width:0.72169274"
       inkscape:connector-curvature="0" />
    <path
       id="path885-5"
       d="M 2,9 H 6 V 19 H 2 Z"
       style="fill:#ffeeaa;stroke-width:0.72001517"
       inkscape:connector-curvature="0" />
    <path
       id="path887"
       d="m 5,11 v 1 H 3 v -1 z"
       style="fill:#000000;stroke-width:0.64809942"
       inkscape:connector-curvature="0" />
    <path
       id="path889"
       d="m 5,13 v 1 H 3 v -1 z"
       style="fill:#000000;stroke-width:0.64809924"
       inkscape:connector-curvature="0" />
    <path
       id="path891"
       d="m 2,5.9999997 h 4 v 2 H 2 Z"
       style="fill:#aa8800;stroke-width:0.753784"
       inkscape:connector-curvature="0" />
    <path
       id="path893"
       d="m 7,5.9999997 h 6 v 2 H 7 Z"
       style="fill:#216778;stroke-width:0.70711201"
       inkscape:connector-curvature="0" />
    <path
       id="path895"
       d="M 14.000001,5.9999997 H 19 v 2 h -5 z"
       style="fill:#cccccc;stroke-width:0.79057527"
       inkscape:connector-curvature="0" />
  </g>
  <g
     inkscape:groupmode="layer"
     id="layer6"
     inkscape:label="dbdriver_base"
     transform="translate(0,-24)"
     sodipodi:insensitive="true">
    <path
       style="color:#000000;fill:#0060b0;stroke-width:0.48122644;stroke-linejoin:round"
       d="M 1.8684211,39 C 1.3923229,39 1,39.27106 1,39.6 v 6.8 C 1,46.728941 1.3923229,47 1.8684211,47 H 22.131579 C 22.607676,47 23,46.728941 23,46.4 V 39.6 C 23,39.27106 22.607676,39 22.131579,39 Z"
       id="path1142"
       inkscape:connector-curvature="0" />
  </g>
  <g
     inkscape:groupmode="layer"
     id="layer7"
     inkscape:label="dbdriver_name"
     transform="translate(0,-24)"
     sodipodi:insensitive="true">
    <text
       xml:space="preserve"
       style="font-size:7.21376324px;line-height:1.25;font-family:Arial;-inkscape-font-specification:Arial;letter-spacing:0px;word-spacing:0px;fill:#ffffff;stroke-width:0.38645163"
       x="1.3299713"
       y="47.999012"
       id="text863"
       transform="scale(1.0686799,0.93573389)"><tspan
         sodipodi:role="line"
         id="tspan861"
         x="1.3299713"
         y="47.999012"
         style="font-weight:bold">S</tspan></text>
    <g
       aria-label="q"
       transform="scale(1.0369823,0.9643366)"
       style="font-size:5.7013154px;font-family:Arial;-inkscape-font-specification:Arial;letter-spacing:0px;word-spacing:0px;fill:#ffffff;stroke-width:0.30542767"
       id="text867">
      <path
         d="m 8.3066406,17.976562 c -0.3695102,0 -0.6794983,0.129002 -0.9296875,0.386719 -0.2482647,0.255929 -0.3730468,0.612147 -0.3730469,1.070313 10e-8,0.486801 0.1328521,0.873639 0.3984376,1.158203 0.2251702,0.2434 0.5129877,0.365234 0.8613281,0.365234 0.1828305,0 0.3519539,-0.03795 0.5097656,-0.111328 0.1578116,-0.07517 0.2906351,-0.175665 0.3964844,-0.302734 v 1.433593 H 9.9804688 V 18.041016 H 9.2324219 v 0.421875 C 9.11695,18.300027 8.9840979,18.178193 8.8339844,18.097656 8.6857954,18.017119 8.510641,17.976562 8.3066406,17.976562 Z m 0.2773438,0.759766 c 0.1612608,0 0.2959117,0.05087 0.4023437,0.152344 0.1080447,0.100202 0.1621094,0.254193 0.1621094,0.460937 0,0.21816 -0.058061,0.381839 -0.1757813,0.492188 -0.1177203,0.110348 -0.2556864,0.166015 -0.4121093,0.166015 -0.1564229,0 -0.2880991,-0.04882 -0.3945313,-0.146484 -0.106432,-0.09893 -0.1601562,-0.258503 -0.1601562,-0.480469 0,-0.223233 0.056358,-0.387496 0.1660156,-0.490234 0.1112699,-0.102738 0.2476234,-0.154297 0.4121094,-0.154297 z"
         transform="matrix(0.96433661,0,0,1.0369823,0,24.887576)"
         id="path860"
         inkscape:connector-curvature="0" />
    </g>
    <text
       xml:space="preserve"
       style="font-size:7.13501406px;line-height:1.25;font-family:Arial;-inkscape-font-specification:Arial;letter-spacing:0px;word-spacing:0px;fill:#ffffff;stroke-width:0.3822329"
       x="10.256582"
       y="45.966488"
       id="text871"
       transform="scale(1.0214775,0.97897407)"><tspan
         sodipodi:role="line"
         id="tspan869"
         x="10.256582"
         y="45.966488"
         style="font-weight:bold">l</tspan></text>
    <text
       xml:space="preserve"
       style="font-size:6.82341862px;line-height:1.25;font-family:Arial;-inkscape-font-specification:Arial;letter-spacing:0px;word-spacing:0px;fill:#ffffff;stroke-width:0.3655403"
       x="12.814734"
       y="43.959072"
       id="text875"
       transform="scale(0.97686831,1.0236794)"><tspan
         sodipodi:role="line"
         id="tspan873"
         x="12.814734"
         y="43.959072"
         style="font-weight:bold">D</tspan></text>
    <text
       xml:space="preserve"
       style="font-size:6.98499298px;line-height:1.25;font-family:Arial;-inkscape-font-specification:Arial;letter-spacing:0px;word-spacing:0px;fill:#ffffff;stroke-width:0.37419608"
       x="17.488403"
       y="45"
       id="text879"><tspan
         sodipodi:role="line"
         id="tspan877"
         x="17.488403"
         y="45"
         style="font-weight:bold">B</tspan></text>
  </g>
  <g
     inkscape:groupmode="layer"
     id="layer5"
     inkscape:label="arrow_matte">
    <path
       id="path895-6"
       d="m 16,4.9600374 h 3.99997 V 10 H 16 Z"
       style="fill:#ffffff"
       inkscape:connector-curvature="0" />
  </g>
  <g
     inkscape:groupmode="layer"
     id="layer8"
     inkscape:label="arrow">
    <path
       id="path897"
       d="m 21.519959,0.96006704 c -0.08,0 -0.159999,0.0799994 -0.159999,0.0799994 l -1.35999,2.559981 c -0.08,0.1599989 0.08,0.3199977 0.159999,0.3999971 h 0.08 2.559981 c 0.159998,-0.079999 0.239997,-0.2399982 0.159998,-0.3999971 l -1.279991,-2.559981 c -0.08,0 -0.08,-0.0799993 -0.159998,-0.0799994 z"
       style="fill:#008000"
       inkscape:connector-curvature="0" />
    <path
       id="path899"
       d="m 21.35996,2.9600522 c -0.239998,0 -0.319998,0.1599988 -0.319998,0.3199976 v 3.3599751 c 0,0.1599988 0.08,0.3199977 0.319998,0.3199977 h 0.319997 c 0.159999,0 0.319998,-0.1599989 0.319998,-0.3199977 V 3.2800498 c 0,-0.1599988 -0.159999,-0.3199976 -0.319998,-0.3199976 z"
       style="fill:#008000"
       inkscape:connector-curvature="0" />
    <path
       id="path901"
       d="m 18.479981,8.9600077 c -0.08,0 -0.08,-0.079999 -0.159999,-0.079999 l -1.27999,-2.5599814 c -0.08,-0.1599988 0,-0.3199976 0.159999,-0.399997 h 0.08 2.559981 c 0.08,0.079999 0.239998,0.2399982 0.159999,0.399997 l -1.35999,2.559981 c 0,0 -0.08,0.079999 -0.159999,0.079999 z"
       style="fill:#ff0000"
       inkscape:connector-curvature="0" />
    <path
       id="path903"
       d="m 18.319982,6.9600226 c -0.159998,0 -0.319997,-0.1599989 -0.319997,-0.3199977 V 3.2800498 c 0,-0.1599988 0.159999,-0.3199976 0.319997,-0.3199976 h 0.319998 c 0.239998,0 0.319998,0.1599988 0.399997,0.3199976 v 3.3599751 c -0.08,0.1599988 -0.159999,0.3199977 -0.399997,0.3199977 z"
       style="fill:#ff0000"
       inkscape:connector-curvature="0" />
  </g>
  <g
     inkscape:label="triangle"
     id="g1156"
     inkscape:groupmode="layer"
     transform="translate(0,-24)"
     sodipodi:insensitive="true"
     style="display:none">
    <path
       inkscape:connector-curvature="0"
       id="path1144"
       d="m 17.498047,29.000004 a 0.33339697,0.33336629 0 0 0 -0.277369,0.151693 l -2.166864,3.33333 A 0.33339697,0.33336629 0 0 0 15.333137,33 h 0.07292 4.260803 a 0.33339697,0.33336629 0 0 0 0.279323,-0.514973 l -2.166862,-3.33333 a 0.33339697,0.33336629 0 0 0 -0.281276,-0.151693 z"
       style="color:#000000;fill:#008000;stroke-width:0.66669661;stroke-linejoin:round" />
    <path
       inkscape:connector-curvature="0"
       id="path1150"
       d="m 17.498047,37.999995 a 0.33339697,0.33336629 0 0 1 -0.277369,-0.151693 l -2.166864,-3.33333 a 0.33339697,0.33336629 0 0 1 0.279323,-0.514973 h 0.07292 4.260803 a 0.33339697,0.33336629 0 0 1 0.279323,0.514973 l -2.166863,3.33333 a 0.33339697,0.33336629 0 0 1 -0.281275,0.151693 z"
       style="color:#000000;fill:#ff0000;stroke-width:0.66669661;stroke-linejoin:round" />
  </g>
  <g
     inkscape:label="text"
     id="layer2"
     inkscape:groupmode="layer"
     transform="translate(0,-24)"
     sodipodi:insensitive="true">
    <path
       transform="matrix(1.25,0,0,1.25,-10,-47)"
       inkscape:connector-curvature="0"
       style="opacity:0.7;fill:#ffffff;fill-rule:evenodd;stroke-width:0.80000001;stroke-linejoin:round;paint-order:fill markers stroke;filter:url(#filter906)"
       d="m 8.8,56.8 h 10.4 c 0.4432,0 0.8,0.3568 0.8,0.8 v 7.2 c 0,0.4432 -0.3568,0.8 -0.8,0.8 H 8.8 C 8.3568,65.6 8,65.2432 8,64.8 v -7.2 c 0,-0.4432 0.3568,-0.8 0.8,-0.8 z"
       id="rect957" />
    <path
       style="color:#000000;fill:#c500ab;fill-rule:evenodd;stroke-width:0.99394226;stroke-linejoin:round;paint-order:fill markers stroke"
       d="M 1.5429688,25 A 0.54445904,0.45371587 0 0 0 1,25.453125 v 4.09375 A 0.54445904,0.45371587 0 0 0 1.5429688,30 h 2.5 C 5.6183038,30 7,29.114429 7,27.908203 V 27.091796 C 7,25.885571 5.6183038,25 4.0429688,25 Z M 3,26 H 4.021485 C 4.5969613,26 5,26.542635 5,27.115234 v 0.769531 C 5,28.457365 4.5969613,29 4.021485,29 H 3 Z"
       id="path923"
       inkscape:connector-curvature="0" />
    <path
       style="color:#000000;fill:#c500ab;stroke-width:1.41421342px"
       d="m 1,25 v 9 h 2 v -9 z"
       id="path926"
       inkscape:connector-curvature="0" />
    <path
       style="color:#000000;fill:#c500ab;stroke-width:1px"
       d="m 3,29 3,5 H 8 L 5,29 Z"
       id="path926-3"
       inkscape:connector-curvature="0"
       inkscape:transform-center-x="2.1060773"
       inkscape:transform-center-y="-3.9821745"
       sodipodi:nodetypes="ccccc" />
    <path
       style="color:#000000;fill:#c500ab;stroke-width:1px"
       d="m 12,28 -4,6.005859 2,-0.0059 4,-6 z"
       id="path946"
       inkscape:connector-curvature="0"
       sodipodi:nodetypes="ccccc" />
    <path
       sodipodi:nodetypes="ccccc"
       inkscape:connector-curvature="0"
       id="path950"
       d="m 10,28 4,6 -2,-4.1e-5 -4,-6 z"
       style="color:#000000;fill:#c500ab;stroke-width:1px" />
  </g>
</svg>
