<?xml version="1.0" encoding="UTF-8" standalone="no"?>
<!-- Created with Inkscape (http://www.inkscape.org/) -->

<svg
   xmlns:dc="http://purl.org/dc/elements/1.1/"
   xmlns:cc="http://creativecommons.org/ns#"
   xmlns:rdf="http://www.w3.org/1999/02/22-rdf-syntax-ns#"
   xmlns:svg="http://www.w3.org/2000/svg"
   xmlns="http://www.w3.org/2000/svg"
   xmlns:sodipodi="http://sodipodi.sourceforge.net/DTD/sodipodi-0.dtd"
   xmlns:inkscape="http://www.inkscape.org/namespaces/inkscape"
   width="48"
   height="48"
   viewBox="0 0 48 48"
   id="svg4225"
   version="1.1"
   inkscape:version="0.92.3 (2405546, 2018-03-11)"
   sodipodi:docname="ttimeedit_rx_200.svg"
   inkscape:export-filename="D:\temp\rx\work\ttimeedit_rx_200.png"
   inkscape:export-xdpi="96"
   inkscape:export-ydpi="96">
  <defs
     id="defs4227" />
  <sodipodi:namedview
     id="base"
     pagecolor="#ffffff"
     bordercolor="#666666"
     borderopacity="1.0"
     inkscape:pageopacity="0.0"
     inkscape:pageshadow="2"
     inkscape:zoom="16"
     inkscape:cx="19.946925"
     inkscape:cy="8.773045"
     inkscape:document-units="px"
     inkscape:current-layer="layer4"
     showgrid="true"
     inkscape:snap-bbox="true"
     inkscape:bbox-paths="true"
     inkscape:bbox-nodes="true"
     inkscape:snap-bbox-edge-midpoints="true"
     inkscape:snap-bbox-midpoints="true"
     inkscape:object-paths="true"
     inkscape:snap-intersection-paths="true"
     inkscape:object-nodes="true"
     inkscape:snap-smooth-nodes="true"
     inkscape:snap-midpoints="true"
     inkscape:snap-object-midpoints="true"
     inkscape:snap-center="true"
     units="px"
     inkscape:window-width="1920"
     inkscape:window-height="1018"
     inkscape:window-x="-8"
     inkscape:window-y="-8"
     inkscape:window-maximized="1"
     inkscape:snap-global="true">
    <inkscape:grid
       type="xygrid"
       id="grid4241" />
  </sodipodi:namedview>
  <metadata
     id="metadata4230">
    <rdf:RDF>
      <cc:Work
         rdf:about="">
        <dc:format>image/svg+xml</dc:format>
        <dc:type
           rdf:resource="http://purl.org/dc/dcmitype/StillImage" />
        <dc:title />
      </cc:Work>
    </rdf:RDF>
  </metadata>
  <g
     inkscape:groupmode="layer"
     id="layer5"
     inkscape:label="base"
     sodipodi:insensitive="true">
    <path
       style="opacity:1;fill:#ffffff;fill-opacity:1;fill-rule:evenodd;stroke:none;stroke-width:1.01133668;stroke-linecap:square;stroke-linejoin:round;stroke-miterlimit:4;stroke-dasharray:none;stroke-dashoffset:0;stroke-opacity:1;paint-order:fill markers stroke"
       d="M 0,0 H 48 V 48 H 0 Z"
       id="rect891"
       inkscape:connector-curvature="0" />
  </g>
  <g
     inkscape:label="time_edit"
     inkscape:groupmode="layer"
     id="layer1"
     transform="translate(0,-1004.3622)"
     sodipodi:insensitive="true">
    <path
       style="color:#000000;font-style:normal;font-variant:normal;font-weight:normal;font-stretch:normal;font-size:medium;line-height:normal;font-family:sans-serif;font-variant-ligatures:normal;font-variant-position:normal;font-variant-caps:normal;font-variant-numeric:normal;font-variant-alternates:normal;font-feature-settings:normal;text-indent:0;text-align:start;text-decoration:none;text-decoration-line:none;text-decoration-style:solid;text-decoration-color:#000000;letter-spacing:normal;word-spacing:normal;text-transform:none;writing-mode:lr-tb;direction:ltr;text-orientation:mixed;dominant-baseline:auto;baseline-shift:baseline;text-anchor:start;white-space:normal;shape-padding:0;clip-rule:nonzero;display:inline;overflow:visible;visibility:visible;opacity:1;isolation:auto;mix-blend-mode:normal;color-interpolation:sRGB;color-interpolation-filters:linearRGB;solid-color:#000000;solid-opacity:1;vector-effect:none;fill:#999999;fill-opacity:1;fill-rule:nonzero;stroke:none;stroke-width:1.148664;stroke-linecap:round;stroke-linejoin:round;stroke-miterlimit:4;stroke-dasharray:none;stroke-dashoffset:0;stroke-opacity:1;paint-order:normal;color-rendering:auto;image-rendering:auto;shape-rendering:auto;text-rendering:auto;enable-background:accumulate"
       d="M 38.56479,1028.3622 A 0.56553558,0.58338203 0 0 0 38,1028.9461 v 5.8334 a 0.56553558,0.58338203 0 0 0 0.56479,0.5827 h 7.916659 a 0.56553558,0.58338203 0 0 0 0.565985,-0.5827 v -5.8334 a 0.56553558,0.58338203 0 0 0 -0.565985,-0.5839 z"
       id="path884"
       inkscape:connector-curvature="0" />
    <rect
       style="opacity:1;fill:#7f9db9;fill-opacity:1;stroke:none;stroke-width:0;stroke-linecap:round;stroke-linejoin:round;stroke-miterlimit:4;stroke-dasharray:none;stroke-dashoffset:0;stroke-opacity:1;paint-order:normal"
       id="rect820"
       width="36"
       height="15.000017"
       x="1"
       y="1028.3622" />
    <rect
       style="opacity:1;fill:#ffffff;fill-opacity:1;stroke:none;stroke-width:0;stroke-linecap:round;stroke-linejoin:round;stroke-miterlimit:4;stroke-dasharray:none;stroke-dashoffset:0;stroke-opacity:1;paint-order:normal"
       id="rect818"
       width="34"
       height="13.000017"
       x="2"
       y="1029.3622" />
    <path
       style="color:#000000;font-style:normal;font-variant:normal;font-weight:normal;font-stretch:normal;font-size:medium;line-height:normal;font-family:sans-serif;font-variant-ligatures:normal;font-variant-position:normal;font-variant-caps:normal;font-variant-numeric:normal;font-variant-alternates:normal;font-feature-settings:normal;text-indent:0;text-align:start;text-decoration:none;text-decoration-line:none;text-decoration-style:solid;text-decoration-color:#000000;letter-spacing:normal;word-spacing:normal;text-transform:none;writing-mode:lr-tb;direction:ltr;text-orientation:mixed;dominant-baseline:auto;baseline-shift:baseline;text-anchor:start;white-space:normal;shape-padding:0;clip-rule:nonzero;display:inline;overflow:visible;visibility:visible;opacity:1;isolation:auto;mix-blend-mode:normal;color-interpolation:sRGB;color-interpolation-filters:linearRGB;solid-color:#000000;solid-opacity:1;vector-effect:none;fill:#999999;fill-opacity:1;fill-rule:nonzero;stroke:none;stroke-width:1.14564216;stroke-linecap:round;stroke-linejoin:round;stroke-miterlimit:4;stroke-dasharray:none;stroke-dashoffset:0;stroke-opacity:1;paint-order:normal;color-rendering:auto;image-rendering:auto;shape-rendering:auto;text-rendering:auto;enable-background:accumulate"
       d="M 38.561829,1043.3622 A 0.56257036,0.58337532 0 0 1 38,1042.7795 v -5.8334 a 0.56257036,0.58337532 0 0 1 0.561829,-0.5839 h 7.87515 A 0.56257036,0.58337532 0 0 1 47,1036.9461 v 5.8334 a 0.56257036,0.58337532 0 0 1 -0.563021,0.5827 z"
       id="path888"
       inkscape:connector-curvature="0" />
    <path
       style="color:#000000;font-style:normal;font-variant:normal;font-weight:normal;font-stretch:normal;font-size:medium;line-height:normal;font-family:sans-serif;font-variant-ligatures:normal;font-variant-position:normal;font-variant-caps:normal;font-variant-numeric:normal;font-variant-alternates:normal;font-feature-settings:normal;text-indent:0;text-align:start;text-decoration:none;text-decoration-line:none;text-decoration-style:solid;text-decoration-color:#000000;letter-spacing:normal;word-spacing:normal;text-transform:none;writing-mode:lr-tb;direction:ltr;text-orientation:mixed;dominant-baseline:auto;baseline-shift:baseline;text-anchor:start;white-space:normal;shape-padding:0;clip-rule:nonzero;display:inline;overflow:visible;visibility:visible;opacity:1;isolation:auto;mix-blend-mode:normal;color-interpolation:sRGB;color-interpolation-filters:linearRGB;solid-color:#000000;solid-opacity:1;vector-effect:none;fill:#ffffff;fill-opacity:1;fill-rule:nonzero;stroke:none;stroke-width:1.20767725;stroke-linecap:round;stroke-linejoin:round;stroke-miterlimit:4;stroke-dasharray:none;stroke-dashoffset:0;stroke-opacity:1;paint-order:normal;color-rendering:auto;image-rendering:auto;shape-rendering:auto;text-rendering:auto;enable-background:accumulate"
       d="m 39,1029.3622 h 7 v 5 h -7 z"
       id="rect842"
       inkscape:connector-curvature="0" />
    <path
       style="color:#000000;font-style:normal;font-variant:normal;font-weight:normal;font-stretch:normal;font-size:medium;line-height:normal;font-family:sans-serif;font-variant-ligatures:normal;font-variant-position:normal;font-variant-caps:normal;font-variant-numeric:normal;font-variant-alternates:normal;font-feature-settings:normal;text-indent:0;text-align:start;text-decoration:none;text-decoration-line:none;text-decoration-style:solid;text-decoration-color:#000000;letter-spacing:normal;word-spacing:normal;text-transform:none;writing-mode:lr-tb;direction:ltr;text-orientation:mixed;dominant-baseline:auto;baseline-shift:baseline;text-anchor:start;white-space:normal;shape-padding:0;clip-rule:nonzero;display:inline;overflow:visible;visibility:visible;opacity:1;isolation:auto;mix-blend-mode:normal;color-interpolation:sRGB;color-interpolation-filters:linearRGB;solid-color:#000000;solid-opacity:1;vector-effect:none;fill:#ffffff;fill-opacity:1;fill-rule:nonzero;stroke:none;stroke-width:1.20752025;stroke-linecap:round;stroke-linejoin:round;stroke-miterlimit:4;stroke-dasharray:none;stroke-dashoffset:0;stroke-opacity:1;paint-order:normal;color-rendering:auto;image-rendering:auto;shape-rendering:auto;text-rendering:auto;enable-background:accumulate"
       d="m 39,1042.3622 h 7 v -5 h -7 z"
       id="rect935"
       inkscape:connector-curvature="0" />
  </g>
  <g
     inkscape:groupmode="layer"
     id="layer4"
     inkscape:label="arrow"
     style="display:inline">
    <path
       style="fill:#000000;fill-opacity:1;fill-rule:evenodd;stroke:#000000;stroke-width:1.17285049px;stroke-linecap:butt;stroke-linejoin:round;stroke-opacity:1"
       d="m 42.492622,26.67884 -1.759275,1.759218 h 3.518551 z"
       id="path833"
       inkscape:connector-curvature="0"
       sodipodi:nodetypes="cccc" />
    <path
       sodipodi:nodetypes="cccc"
       inkscape:connector-curvature="0"
       id="path937"
       d="m 42.472767,36.336197 -1.759274,-1.759346 h 3.518551 z"
       style="fill:#000000;fill-opacity:1;fill-rule:evenodd;stroke:#000000;stroke-width:1.17285049px;stroke-linecap:butt;stroke-linejoin:round;stroke-opacity:1" />
  </g>
  <g
     inkscape:groupmode="layer"
     id="layer3"
     inkscape:label="clock"
     style="display:inline"
     sodipodi:insensitive="true">
    <flowRoot
       xml:space="preserve"
       id="flowRoot844"
       style="font-style:normal;font-variant:normal;font-weight:bold;font-stretch:normal;font-size:8px;line-height:1.25;font-family:'Segoe UI';-inkscape-font-specification:'Segoe UI Bold';letter-spacing:0px;word-spacing:0px;fill:#000000;fill-opacity:1;stroke:none"><flowRegion
         id="flowRegion846"><rect
           id="rect848"
           width="22"
           height="15"
           x="5"
           y="29" /></flowRegion><flowPara
         id="flowPara850">12:06:48</flowPara></flowRoot>    <path
       inkscape:connector-curvature="0"
       id="path856"
       style="font-style:normal;font-variant:normal;font-weight:normal;font-stretch:normal;font-size:medium;line-height:1.25;font-family:'DJB Get Digital';-inkscape-font-specification:'DJB Get Digital';letter-spacing:0px;word-spacing:0px;fill:#000000;fill-opacity:1;stroke:none;stroke-width:1.20965707"
       d="m 5.0154001,31.986237 0.023747,2.30356 -0.4796921,0.488918 -0.4701932,-0.484217 -0.023747,-2.30356 0.4749426,-0.484218 z m -0.023747,-3.554064 v 2.378778 L 4.5119609,31.29987 4.0417676,30.815652 v -2.378778 l 0.4749427,-0.484218 z" />
    <path
       inkscape:connector-curvature="0"
       id="path858"
       style="font-style:normal;font-variant:normal;font-weight:normal;font-stretch:normal;font-size:medium;line-height:1.25;font-family:'DJB Get Digital';-inkscape-font-specification:'DJB Get Digital';letter-spacing:0px;word-spacing:0px;fill:#000000;fill-opacity:1;stroke:none;stroke-width:1.20965707"
       d="m 6.9531661,33.960716 h 1.8902717 l 0.4939404,0.474816 -0.489191,0.465413 H 6.9579155 l -0.489191,-0.470114 z m -0.075991,-1.974479 v 1.871054 L 6.3974832,34.346211 5.9272899,33.861993 V 31.990938 L 6.4022326,31.50672 Z M 9.8598147,28.935195 V 30.80625 L 9.380123,31.295169 8.9099298,30.810951 V 28.939896 L 9.3848724,28.455678 Z M 6.934168,30.914376 h 1.8902717 l 0.4939404,0.474815 -0.489191,0.465414 H 6.9389178 L 6.4497269,31.38449 Z m 0.014249,-3.013432 h 1.8902717 l 0.4939404,0.474816 -0.489191,0.465413 h -1.890272 l -0.489191,-0.470115 z" />
    <path
       style="font-style:normal;font-variant:normal;font-weight:normal;font-stretch:normal;font-size:medium;line-height:1.25;font-family:'DJB Get Digital';-inkscape-font-specification:'DJB Get Digital';letter-spacing:0px;word-spacing:0px;fill:#000000;fill-opacity:1;stroke:none;stroke-width:1.20965707"
       d="m 11.647887,29.937778 q 0.213724,0 0.360956,0.155138 0.147231,0.155138 0.147231,0.376092 0,0.220953 -0.147231,0.376091 -0.147232,0.155138 -0.360956,0.155138 -0.208975,0 -0.360957,-0.155138 -0.147232,-0.155138 -0.147232,-0.376091 0,-0.220954 0.147232,-0.376092 0.151982,-0.155138 0.360957,-0.155138 z"
       id="path887"
       inkscape:connector-curvature="0" />
    <path
       style="font-style:normal;font-variant:normal;font-weight:normal;font-stretch:normal;font-size:medium;line-height:1.25;font-family:'DJB Get Digital';-inkscape-font-specification:'DJB Get Digital';letter-spacing:0px;word-spacing:0px;fill:#000000;fill-opacity:1;stroke:none;stroke-width:1.20965707"
       d="m 11.742867,31.969046 q 0.213724,0 0.360956,0.155139 0.147232,0.155137 0.147232,0.376091 0,0.220954 -0.147232,0.376091 -0.147232,0.155138 -0.360956,0.155138 -0.208975,0 -0.360957,-0.155138 -0.147232,-0.155137 -0.147232,-0.376091 0,-0.220954 0.147232,-0.376091 0.151982,-0.155139 0.360957,-0.155139 z"
       id="path860"
       inkscape:connector-curvature="0" />
    <path
       inkscape:connector-curvature="0"
       id="path862"
       style="font-style:normal;font-variant:normal;font-weight:normal;font-stretch:normal;font-size:medium;line-height:1.25;font-family:'DJB Get Digital';-inkscape-font-specification:'DJB Get Digital';letter-spacing:0px;word-spacing:0px;fill:#000000;fill-opacity:1;stroke:none;stroke-width:1.20965707"
       d="m 14.174581,33.960716 h 1.890272 l 0.49394,0.474816 -0.489191,0.465413 H 14.179331 L 13.69014,34.430831 Z m -0.07599,-1.974479 v 1.871054 l -0.479693,0.48892 -0.470193,-0.484218 v -1.871055 l 0.474946,-0.484218 z m 2.98264,-3.051042 v 1.871055 l -0.479693,0.488919 -0.470193,-0.484218 v -1.871055 l 0.474943,-0.484218 z m -3.006387,0.0047 v 1.871055 l -0.479693,0.488919 -0.470193,-0.484218 v -1.871029 l 0.474939,-0.484218 z m 0.09498,-1.038952 h 1.890272 l 0.49394,0.474816 -0.489191,0.465413 h -1.890264 l -0.48919,-0.47009 z m 2.916148,4.085293 v 1.871054 l -0.479692,0.48892 -0.470193,-0.484218 v -1.871055 l 0.474942,-0.484218 z" />
    <path
       inkscape:connector-curvature="0"
       id="path864"
       style="font-style:normal;font-variant:normal;font-weight:normal;font-stretch:normal;font-size:medium;line-height:1.25;font-family:'DJB Get Digital';-inkscape-font-specification:'DJB Get Digital';letter-spacing:0px;word-spacing:0px;fill:#000000;fill-opacity:1;stroke:none;stroke-width:1.20965707"
       d="m 18.999999,33.960716 h 1.890271 l 0.49394,0.474816 -0.489191,0.465413 h -1.890271 l -0.489191,-0.470114 z m -0.07599,-1.974479 v 1.871054 l -0.479692,0.48892 -0.470193,-0.484218 v -1.871055 l 0.474943,-0.484218 z m -0.02375,-3.046341 v 1.871055 l -0.479692,0.488919 -0.470193,-0.484218 v -1.871054 l 0.474943,-0.484218 z m 0.08074,1.97448 h 1.890271 l 0.493941,0.474815 -0.489191,0.465414 H 18.985751 L 18.49656,31.38449 Z m 0.01425,-3.013432 h 1.890272 l 0.49394,0.474816 -0.489191,0.465413 h -1.890277 l -0.489191,-0.470115 z m 2.916148,4.085293 v 1.871054 l -0.479692,0.48892 -0.470193,-0.484218 v -1.871055 l 0.474942,-0.484218 z" />
    <path
       style="font-style:normal;font-variant:normal;font-weight:normal;font-stretch:normal;font-size:medium;line-height:1.25;font-family:'DJB Get Digital';-inkscape-font-specification:'DJB Get Digital';letter-spacing:0px;word-spacing:0px;fill:#000000;fill-opacity:1;stroke:none;stroke-width:1.20965707"
       d="m 23.408323,29.880499 q 0.213724,0 0.360957,0.155138 0.147232,0.155138 0.147232,0.376092 0,0.220953 -0.147232,0.376091 -0.147233,0.155138 -0.360957,0.155138 -0.208975,0 -0.360956,-0.155138 -0.147232,-0.155138 -0.147232,-0.376091 0,-0.220954 0.147232,-0.376092 0.151981,-0.155138 0.360956,-0.155138 z"
       id="path883"
       inkscape:connector-curvature="0" />
    <path
       style="font-style:normal;font-variant:normal;font-weight:normal;font-stretch:normal;font-size:medium;line-height:1.25;font-family:'DJB Get Digital';-inkscape-font-specification:'DJB Get Digital';letter-spacing:0px;word-spacing:0px;fill:#000000;fill-opacity:1;stroke:none;stroke-width:1.20965707"
       d="m 23.503303,31.911767 q 0.213724,0 0.360957,0.155139 0.147232,0.155137 0.147232,0.376091 0,0.220954 -0.147232,0.376091 -0.147233,0.155138 -0.360957,0.155138 -0.208974,0 -0.360956,-0.155138 -0.147231,-0.155137 -0.147231,-0.376091 0,-0.220954 0.147231,-0.376091 0.151982,-0.155139 0.360956,-0.155139 z"
       id="path866"
       inkscape:connector-curvature="0" />
    <path
       inkscape:connector-curvature="0"
       id="path868"
       style="font-style:normal;font-variant:normal;font-weight:normal;font-stretch:normal;font-size:medium;line-height:1.25;font-family:'DJB Get Digital';-inkscape-font-specification:'DJB Get Digital';letter-spacing:0px;word-spacing:0px;fill:#000000;fill-opacity:1;stroke:none;stroke-width:1.20965707"
       d="m 29.080284,28.422771 -0.0095,2.383479 -0.479693,0.488919 -0.470193,-0.484218 0.0095,-2.383479 0.474942,-0.484218 z m -3.006387,0.0047 -0.0095,2.383479 -0.479693,0.488919 -0.470193,-0.484218 0.0095,-2.383479 0.474943,-0.484218 z m 0.07124,2.486904 h 1.890272 l 0.49394,0.474815 -0.489191,0.465414 h -1.890271 l -0.489191,-0.470115 z m 2.930396,1.071861 v 2.406985 l -0.479692,0.488919 -0.470193,-0.484218 v -2.406985 l 0.474943,-0.484218 z" />
    <path
       inkscape:connector-curvature="0"
       id="path870"
       style="font-style:normal;font-variant:normal;font-weight:normal;font-stretch:normal;font-size:medium;line-height:1.25;font-family:'DJB Get Digital';-inkscape-font-specification:'DJB Get Digital';letter-spacing:0px;word-spacing:0px;fill:#000000;fill-opacity:1;stroke:none;stroke-width:1.20965707"
       d="m 30.989551,33.960716 h 1.890272 l 0.493941,0.474816 -0.489191,0.465413 h -1.890271 l -0.489191,-0.470114 z m -0.07599,-1.974479 v 1.871054 l -0.479692,0.48892 -0.470194,-0.484218 v -1.871055 l 0.474944,-0.484218 z m 2.98264,-3.051042 v 1.871055 l -0.479693,0.488919 -0.470193,-0.484218 v -1.871055 l 0.474944,-0.484218 z m -3.006387,0.0047 v 1.871055 l -0.479692,0.488919 -0.470194,-0.484218 v -1.871029 l 0.47494,-0.484218 z m 0.08074,1.97448 h 1.890271 l 0.49394,0.474815 -0.489191,0.465414 h -1.890268 l -0.489191,-0.470115 z m 0.01424,-3.013432 h 1.890272 l 0.49394,0.474816 -0.489191,0.465413 h -1.890271 l -0.489191,-0.47009 z m 2.916148,4.085293 v 1.871054 l -0.479691,0.48892 -0.470195,-0.484218 V 31.990937 L 33.426,31.506719 Z" />
  </g>
  <g
     inkscape:groupmode="layer"
     id="layer2"
     inkscape:label="text"
     style="display:inline"
     sodipodi:insensitive="true">
    <flowRoot
       xml:space="preserve"
       id="flowRoot914"
       style="font-style:normal;font-variant:normal;font-weight:normal;font-stretch:normal;font-size:12px;line-height:1.25;font-family:'Arial Unicode MS';-inkscape-font-specification:'Arial Unicode MS';letter-spacing:0px;word-spacing:0px;clip-rule:evenodd;fill:#c500ab;fill-opacity:1;fill-rule:evenodd;stroke:#ffffff;stroke-width:2.96764684;stroke-linecap:round;stroke-linejoin:round;stroke-miterlimit:4;stroke-dasharray:none;stroke-opacity:1;paint-order:markers stroke fill;image-rendering:optimizeQuality;shape-rendering:geometricPrecision;text-rendering:geometricPrecision"
       transform="matrix(0.92708572,0,0,1.1022954,-1.6745897,-0.28070299)"><flowRegion
         id="flowRegion916"
         style="fill:#c500ab;fill-opacity:1;stroke:#ffffff;stroke-width:2.96764684;stroke-linecap:round;stroke-linejoin:round;stroke-miterlimit:4;stroke-dasharray:none;stroke-opacity:1;paint-order:markers stroke fill"><rect
           id="rect918"
           width="38.14209"
           height="34.674625"
           x="3.4674628"
           y="-1.8781176"
           style="fill:#c500ab;fill-opacity:1;stroke:#ffffff;stroke-width:2.96764684;stroke-linecap:round;stroke-linejoin:round;stroke-miterlimit:4;stroke-dasharray:none;stroke-opacity:1;paint-order:markers stroke fill" /></flowRegion><flowPara
         id="flowPara920"
         style="font-style:normal;font-variant:normal;font-weight:bold;font-stretch:normal;font-size:21.33333397px;font-family:Arial;-inkscape-font-specification:'Arial Bold';stroke:#ffffff;stroke-width:2.96764684;stroke-linecap:round;stroke-linejoin:round;stroke-miterlimit:4;stroke-dasharray:none;stroke-opacity:1;paint-order:markers stroke fill">Rx</flowPara></flowRoot>  </g>
</svg>
